<svg width="40" height="40" viewBox="0 0 40 40" fill="none" xmlns="http://www.w3.org/2000/svg">
<path d="M13.9543 25.6735C12.9379 26.7618 11.7052 27.5158 10.3085 27.9944C9.16749 28.3812 7.96095 28.4074 6.80686 28.2304C4.78722 27.9288 3.10199 26.952 1.79709 25.3588C0.964316 24.3426 0.446289 23.1953 0.17744 21.9168C-0.288128 19.6877 0.183998 17.6487 1.43644 15.7999C2.36758 14.4296 3.65936 13.4593 5.22 12.8758C5.81016 12.6529 6.40687 12.4759 7.04948 12.4562C7.31833 12.4497 7.58718 12.3317 7.8757 12.3448C8.68225 12.3775 9.47568 12.489 10.256 12.7185C11.6265 13.1184 12.7871 13.8396 13.7707 14.8623C13.8428 14.941 13.9084 15.0328 13.974 15.1115C13.7445 15.4262 13.5019 15.7343 13.2855 16.0556C12.5052 17.2291 12.0724 18.5338 11.9937 19.9368C11.9609 20.5007 11.9806 21.0645 12.0855 21.6414C12.2166 22.3692 12.4002 23.0707 12.7019 23.7394C13.0101 24.4213 13.3969 25.0638 13.9346 25.6014C13.9478 25.6276 13.9478 25.6473 13.9543 25.6735ZM7.48227 24.9326C7.45604 25.2015 7.44948 25.4768 7.56751 25.7325C7.6921 25.9948 7.88882 26.1193 8.17078 26.0603C8.43307 26.0079 8.5511 25.7981 8.56422 25.562C8.58389 25.1162 8.61668 24.6638 8.55766 24.2246C8.40684 23.1231 8.40684 22.0151 8.31504 20.9137C8.28226 20.5269 8.2757 20.1335 8.21012 19.7467C8.12488 19.2878 8.20357 18.901 8.66258 18.6256C9.01667 18.4158 9.29864 18.0945 9.28552 17.6487C9.26585 16.8161 9.1347 16.0031 8.68225 15.2819C8.22324 14.5476 7.44292 14.5739 7.03637 15.3409C6.70851 15.9638 6.60359 16.6391 6.59047 17.3471C6.57736 17.8651 6.78064 18.2453 7.16752 18.5141C7.58063 18.8026 7.71177 19.137 7.67898 19.6418C7.58718 21.412 7.54784 23.169 7.48227 24.9326Z" fill="#63C7F0"/>
<path d="M26.0063 15.1575C26.1113 15.1575 26.1834 15.1116 26.2555 15.0329C27.2457 13.9774 28.4588 13.2955 29.8358 12.8891C30.7801 12.6137 31.7637 12.4957 32.7341 12.6268C34.498 12.8563 36.0784 13.5381 37.4029 14.7707C38.5701 15.859 39.3308 17.1702 39.7308 18.6913C39.9275 19.4321 39.9472 20.2058 39.9275 20.9794C39.875 22.625 39.3111 24.0805 38.3406 25.3786C37.5865 26.3882 36.6292 27.1881 35.4751 27.7323C34.8062 28.0535 34.1046 28.2568 33.3767 28.4207C32.5833 28.5977 31.7899 28.5583 31.0161 28.4993C30.3079 28.4469 29.5997 28.2502 28.9243 27.9486C27.9604 27.5225 27.1014 26.9521 26.3342 26.2375C26.2031 26.1194 26.1047 25.9818 26.0195 25.831C26.1637 25.5097 26.4391 25.2868 26.6227 24.9983C27.2063 24.0739 27.685 23.1102 27.8817 22.0087C27.9867 21.4187 28.0522 20.8286 28.026 20.2385C27.9998 19.5698 27.9473 18.8945 27.744 18.2323C27.4752 17.3735 27.1211 16.5736 26.6031 15.8459C26.4391 15.623 26.3473 15.3083 26.0195 15.2231C26.0129 15.2034 26.0063 15.1837 26.0063 15.1575ZM33.6128 18.0422C33.639 17.3735 33.521 16.7769 33.3308 16.1999C33.1145 15.5378 32.78 14.9674 32.0325 14.7772C31.6522 14.6789 31.6391 14.6723 31.6456 15.0657C31.6784 16.2393 31.7178 17.4128 31.7571 18.5864C31.8227 20.468 31.5604 22.3431 31.6456 24.2247C31.6719 24.7754 31.7243 25.3261 31.8948 25.8572C31.9604 26.0604 32.085 26.185 32.321 26.185C32.7145 26.1916 32.9243 26.0145 32.9374 25.5556C32.9768 24.3427 33.0161 23.1167 32.7735 21.9169C32.6161 21.1433 32.6751 20.4483 33.1079 19.7665C33.4489 19.2354 33.7046 18.6585 33.6128 18.0422Z" fill="#FEBB5F"/>
<path d="M26.0061 15.1576C26.0061 15.1772 26.0061 15.2034 26.0127 15.2231C25.8816 15.3673 25.7373 15.505 25.6258 15.6624C24.7603 16.8359 24.216 18.1144 23.9996 19.5699C23.875 20.4222 23.9209 21.2417 24.0586 22.0547C24.2488 23.1758 24.6947 24.2182 25.3635 25.1623C25.5209 25.3852 25.7963 25.5426 25.8029 25.8638C25.1537 26.644 24.3144 27.1619 23.416 27.6209C22.8586 27.9093 22.2685 28.1257 21.6652 28.2371C20.7537 28.4076 19.8357 28.4994 18.898 28.3027C18.3276 28.1847 17.7571 28.0864 17.2128 27.8831C16.3735 27.5619 15.5932 27.1357 14.9112 26.5456C14.5833 26.2637 14.2686 25.9687 13.9407 25.6737C13.9342 25.6475 13.9276 25.6278 13.9276 25.6016C14.3866 25.3983 14.5965 24.9656 14.8325 24.5788C15.4096 23.6478 15.7374 22.625 15.9341 21.5367C16.1768 20.2058 15.9932 18.9274 15.5997 17.6751C15.2981 16.7114 14.7407 15.8591 14.0653 15.092C14.7276 14.2921 15.58 13.7414 16.485 13.2563C17.0227 12.9678 17.6063 12.7842 18.1898 12.6203C18.8259 12.4367 19.4948 12.4826 20.157 12.4695C21.5865 12.4367 22.8718 12.8694 24.0849 13.5775C24.8324 14.0037 25.4291 14.5675 26.0061 15.1576ZM19.5866 16.3901C19.5866 16.3901 19.58 16.3901 19.5866 16.3901C19.58 15.9312 19.58 15.4788 19.58 15.0199C19.58 14.9346 19.5931 14.8297 19.462 14.8363C19.3636 14.8363 19.3439 14.9215 19.3374 15.0002C19.2915 15.446 19.1472 15.8787 19.0751 16.318C18.9767 16.9474 18.898 17.5768 18.9046 18.2193C18.9112 18.8225 19.1341 19.2814 19.6062 19.6026C19.8751 19.7928 19.9275 20.0026 19.9013 20.291C19.8488 20.8614 19.8292 21.4384 19.7636 22.0088C19.6915 22.6316 19.7374 23.261 19.6259 23.8904C19.5407 24.3952 19.58 24.9328 19.5931 25.4508C19.5997 25.831 19.9144 26.0998 20.2816 26.0933C20.6357 26.0867 20.9111 25.7982 20.898 25.4114C20.8652 24.6116 20.8718 23.8117 20.8062 23.0119C20.7275 22.0743 20.6619 21.1302 20.6226 20.1861C20.6095 19.878 20.721 19.6944 20.9636 19.5436C21.3701 19.3011 21.5669 18.9077 21.6062 18.4619C21.6587 17.898 21.6259 17.3342 21.5144 16.7769C21.3964 16.2065 21.2783 15.6362 21.1669 15.0592C21.1472 14.9609 21.1996 14.8101 21.0292 14.8166C20.8652 14.8232 20.9111 14.974 20.9111 15.0723C20.9046 15.6952 20.9046 16.3114 20.9046 16.9343C20.9046 17.2162 20.9046 17.4981 20.898 17.78C20.898 17.8587 20.8849 17.9374 20.7865 17.9439C20.6947 17.9505 20.6488 17.898 20.6292 17.8128C20.5898 17.6686 20.5177 17.5178 20.5242 17.3735C20.5636 16.5999 20.4128 15.8394 20.38 15.0789C20.3734 14.9871 20.4259 14.8429 20.2947 14.8297C20.1505 14.8166 20.1898 14.9609 20.1833 15.0527C20.1177 15.9312 20.0521 16.8032 19.9931 17.6817C19.9865 17.8259 19.9669 17.9439 19.7833 17.9505C19.5866 17.957 19.5931 17.8128 19.5931 17.6817C19.5866 17.2621 19.5866 16.8228 19.5866 16.3901Z" fill="#FEAA61"/>
<path d="M25.8096 25.8575C25.803 25.5428 25.521 25.3789 25.3702 25.156C24.7014 24.2119 24.2555 23.176 24.0653 22.0483C23.9276 21.2354 23.8817 20.4159 24.0063 19.5635C24.2161 18.1081 24.7604 16.8231 25.626 15.6561C25.744 15.4987 25.8883 15.361 26.0128 15.2168C26.3407 15.302 26.4325 15.6167 26.5964 15.8396C27.1145 16.5674 27.4686 17.3672 27.7374 18.2261C27.9407 18.8883 27.9997 19.557 28.0194 20.2323C28.0391 20.8158 27.98 21.4124 27.8751 22.0025C27.6784 23.1039 27.1997 24.0676 26.6161 24.9921C26.4325 25.2805 26.1505 25.5035 26.0128 25.8247C25.9407 25.8444 25.8751 25.8509 25.8096 25.8575Z" fill="#FE970C"/>
<path d="M14.085 15.0918C14.7604 15.8589 15.3112 16.7112 15.6194 17.6749C16.0128 18.9206 16.1899 20.2056 15.9538 21.5365C15.7571 22.6249 15.4292 23.6476 14.8522 24.5786C14.6096 24.9654 14.4063 25.3981 13.9473 25.6014C13.4096 25.0638 13.0227 24.4278 12.7145 23.7394C12.4129 23.0707 12.2227 22.3692 12.0981 21.6414C11.9932 21.0645 11.9735 20.5007 12.0063 19.9368C12.085 18.5338 12.5112 17.2291 13.2981 16.0556C13.5145 15.7343 13.7571 15.4262 13.9866 15.1115C14.0128 15.1049 14.0456 15.0984 14.085 15.0918Z" fill="#E4925A"/>
</svg>
