<svg width="40" height="40" viewBox="0 0 40 40" fill="none" xmlns="http://www.w3.org/2000/svg">
<circle cx="20" cy="20" r="20" fill="#A5BDD0"/>
<path d="M29 18.282C29 21.562 29 24.842 29 28.138C28.6421 29.146 27.8728 29.466 26.7097 29.45C22.4692 29.402 18.2107 29.434 13.9702 29.434C13.505 29.434 13.0219 29.45 12.5567 29.418C11.7157 29.37 11.1968 28.954 11.0358 28.218C11 28.01 11 27.802 11 27.594C11 24.682 11 21.77 11 18.874C11 18.618 11.0179 18.346 11.0716 18.09C11.3042 17.178 11.8767 16.858 12.8787 17.082C17.6024 18.154 22.326 18.138 27.0497 17.082C27.9622 16.874 28.4274 17.098 28.7853 17.882C28.8569 18.01 28.9284 18.138 29 18.282ZM21.7535 26.426C21.7714 26.218 21.8072 26.138 21.7893 26.058C21.6103 25.37 21.4314 24.666 21.1988 23.994C21.0378 23.514 21.002 23.146 21.4851 22.73C22.1292 22.154 22.0577 21.258 21.5209 20.618C21.002 20.01 20.1074 19.786 19.3022 20.042C17.996 20.442 17.5845 21.866 18.5149 22.81C18.8191 23.13 18.9264 23.37 18.7833 23.786C18.5686 24.362 18.4254 24.954 18.2644 25.546C18.1928 25.818 18.175 26.09 18.1213 26.426C19.4095 26.426 20.5547 26.426 21.7535 26.426Z" fill="white"/>
<path d="M16.02 17.9C15.1136 17.7499 14.2627 17.6165 13.3564 17.483C13.3194 17.2328 13.2824 17.016 13.2639 16.8158C13.2454 16.0484 13.2454 15.2644 13.2639 14.4971C13.3009 11.3277 16.131 8.70877 19.6085 8.55864C23.567 8.37515 26.5081 11.1609 26.7115 14.0467C26.7855 15.1143 26.73 16.1819 26.73 17.3496C25.8236 17.5164 24.9543 17.6832 23.9184 17.8834C23.9184 17.3162 23.9184 16.8325 23.9184 16.3487C23.8999 15.6314 23.9554 14.9141 23.8444 14.1968C23.5485 12.3286 21.8282 11.0775 19.8305 11.1609C17.7773 11.261 16.1865 12.6955 16.1125 14.5972C16.0755 15.5313 16.1125 16.4655 16.094 17.4163C16.0755 17.5331 16.057 17.6665 16.02 17.9Z" fill="white"/>
</svg>
