<svg width="40" height="40" viewBox="0 0 40 40" fill="none" xmlns="http://www.w3.org/2000/svg">
<path d="M0 14.1629C0.0344423 14.0064 0.0688846 13.8586 0.0947163 13.7021C0.318591 12.4501 0.809393 11.3199 1.66184 10.3809C2.67789 9.25932 3.96086 8.68549 5.47632 8.69419C6.20822 8.69419 6.82818 8.98979 7.24149 9.60709C7.53425 10.0418 7.84423 10.5026 8.00783 10.9982C8.4728 12.4501 8.88611 13.9281 9.28219 15.4062C9.49746 16.1887 9.40274 16.9711 9.14442 17.7536C8.94638 18.3361 8.76556 18.9447 8.67945 19.5533C8.42975 21.3444 8.91194 22.9354 10.083 24.2917C10.393 24.6482 10.7546 24.9699 11.1335 25.2481C11.4004 25.4481 11.7362 25.5872 12.0634 25.6741C12.6145 25.8219 13.1053 25.5176 13.2603 24.9612C13.3292 24.7004 13.3464 24.4221 13.3464 24.1439C13.3378 23.4919 13.5186 22.892 13.7511 22.292C13.7769 22.2225 13.8114 22.1616 13.8458 22.1008C14.0697 21.7269 14.3022 21.7008 14.5346 22.0486C14.9566 22.7007 15.3613 23.3701 15.5249 24.1526C15.611 24.5699 15.5593 24.9438 15.2665 25.2829C15.189 25.3785 15.1374 25.5437 15.1546 25.6654C15.1804 25.848 15.3613 25.8828 15.5249 25.8915C16.3945 25.9176 17.0748 26.3001 17.6603 26.9435C18.1769 27.5086 18.7538 28.0129 19.4943 28.2737C19.5374 28.2911 19.5804 28.2998 19.6063 28.3346C19.7526 28.4563 20.0024 28.578 20.0196 28.7171C20.0454 28.9866 19.7526 29.0736 19.5374 29.1258C17.9961 29.5257 16.5237 29.5257 15.2493 28.378C15.0857 28.2302 14.9135 28.0998 14.7585 27.952C13.8888 27.0826 12.8384 26.6218 11.6243 26.4827C10.7288 26.3784 9.83327 26.2306 8.95499 26.0567C7.78395 25.8219 6.74208 25.2742 5.75186 24.6308C5.70881 24.6047 5.67436 24.5526 5.61409 24.5004C5.98434 24.0483 6.41487 23.6397 6.45793 23.0224C6.46654 22.9963 6.47515 22.9789 6.48376 22.9528C6.47515 22.9789 6.47515 23.005 6.46654 23.0311C5.94129 23.8657 5.16634 24.3874 4.33112 24.8482C3.70254 25.1872 3.18591 25.6567 2.82427 26.3001C2.71233 26.5001 2.55734 26.6827 2.39374 26.8305C2.14403 27.0565 1.86849 27.0391 1.69628 26.7522C1.5499 26.5001 1.42935 26.2045 1.40352 25.9089C1.28297 24.7873 1.54129 23.7266 2.03209 22.7181C2.56595 21.6139 3.28924 20.6488 4.28806 19.9272C4.33112 19.8924 4.37417 19.8576 4.41722 19.8142C4.42583 19.8055 4.42583 19.7881 4.44305 19.7359C3.57339 20.0402 2.9362 20.6227 2.30763 21.2661C1.7135 20.4662 1.26575 19.6316 0.886889 18.7535C0.490802 17.8232 0.189433 16.8581 0.0861057 15.8409C0.0774951 15.7713 0.0344423 15.7105 0.00861057 15.6409C0 15.1453 0 14.6585 0 14.1629Z" fill="#3476BC"/>
<path d="M28.0619 9.09407C28.036 9.6505 27.9499 10.1722 28.1566 10.6764C28.1824 10.659 28.2169 10.6416 28.2169 10.633C28.1566 9.86786 28.3977 9.18101 28.699 8.50286C28.8454 8.17247 28.9746 7.8334 29.0951 7.49432C29.2587 7.0683 29.276 6.62489 29.2587 6.17279C29.2501 5.92935 29.2329 5.67721 29.2673 5.43377C29.319 5.04253 29.6118 4.84256 29.9734 4.98167C30.2059 5.06862 30.4298 5.23381 30.602 5.40769C31.3081 6.12932 31.6955 7.02483 31.9194 7.99859C32.2294 9.3462 32.238 10.6938 31.8247 12.024C31.8161 12.0675 31.7989 12.1023 31.7902 12.1458C31.7902 12.1545 31.7989 12.1718 31.8247 12.2153C32.2983 11.4676 32.4791 10.6503 32.5996 9.78091C32.703 9.7983 32.7718 9.807 32.8407 9.82439C34.5628 10.4417 36.13 11.3285 37.4216 12.65C38.8854 14.1454 39.6345 15.9365 39.4967 18.0579C39.402 19.5707 38.7045 20.7879 37.5593 21.7355C36.8619 22.3094 36.0611 22.4137 35.2086 22.1094C34.494 21.8573 33.8568 21.4747 33.2713 21.0139C32.3758 20.3097 31.4975 19.5968 30.6106 18.8925C29.8529 18.2926 29.3362 17.5362 29.0865 16.5885C28.7593 15.3453 28.191 14.2411 27.2353 13.3717C26.0298 12.2762 24.6176 11.7371 22.9902 11.8241C22.6717 11.8415 22.3358 11.9458 22.0517 12.0849C21.5781 12.3283 21.4231 12.8065 21.6298 13.3021C21.7331 13.5542 21.8881 13.789 22.0431 14.0063C22.4306 14.5454 22.6458 15.154 22.7922 15.7887C22.8094 15.8408 22.8094 15.9017 22.8094 15.9625C22.8353 16.3799 22.6544 16.5451 22.2583 16.406C21.5264 16.1451 20.8204 15.8321 20.2349 15.2931C19.9249 15.0149 19.7441 14.6758 19.7785 14.2237C19.8129 13.7977 19.5805 13.6499 19.2274 13.8933C18.4697 14.3976 17.6689 14.4758 16.7992 14.2932C16.0846 14.1454 15.3527 14.0759 14.6294 14.3193C14.483 14.3715 14.3194 14.3628 14.1644 14.3628C13.8975 14.3454 13.82 14.215 13.9061 13.9542C13.9319 13.8759 13.975 13.789 14.018 13.7194C14.8446 12.6413 15.8262 11.8067 17.2298 11.685C17.8067 11.6328 18.4008 11.7023 18.9863 11.7719C19.7957 11.8675 20.5621 11.7719 21.294 11.4241C22.0431 11.059 22.775 10.6677 23.5069 10.2765C24.9018 9.51139 26.4 9.12884 28.0619 9.09407Z" fill="#EB252B"/>
<path d="M31.3167 26.1349C32.2466 25.7871 33.2024 25.8915 34.1581 26.0132C34.7264 26.0827 35.2689 26.0045 35.8028 25.8045C36.0266 25.7176 36.2505 25.6132 36.4916 25.5611C37.0255 25.4307 37.3441 25.7437 37.2321 26.274C37.1891 26.4914 37.0943 26.7174 36.9824 26.9087C36.3194 28.0476 35.3034 28.7867 34.1495 29.3257C33.1249 29.8126 32.0313 30.0213 30.9034 30.0386C30.8861 30.0299 30.8603 30.0126 30.8517 30.0126C30.8603 30.0126 30.8861 30.0212 30.912 30.0299C31.1875 30.0908 31.463 30.1951 31.7386 30.2038C32.3241 30.2125 32.9096 30.1691 33.5296 30.1517C33.5382 30.1951 33.564 30.2734 33.564 30.3516C33.4865 32.3687 33.0904 34.3075 32.0399 36.0638C31.0497 37.7331 29.6118 38.8199 27.7347 39.272C26.3656 39.5937 25.0826 39.2894 23.8943 38.5851C22.8439 37.9591 22.5683 36.9506 22.775 35.8116C22.8955 35.1509 23.085 34.4901 23.2916 33.8467C23.5585 33.0382 23.903 32.2557 24.1613 31.4471C24.5488 30.2647 25.2032 29.317 26.2709 28.6476C27.2955 28.0042 28.0446 27.1 28.5268 25.9871C29.1382 24.596 29.1985 23.1615 28.7335 21.7182C28.6302 21.3878 28.4407 21.0574 28.2082 20.7879C27.7691 20.2663 27.1491 20.275 26.667 20.7618C26.5034 20.927 26.3742 21.1183 26.2364 21.3009C25.8576 21.8052 25.384 22.1964 24.8501 22.5094C24.764 22.5616 24.6693 22.605 24.5746 22.6311C24.2904 22.7181 24.101 22.6137 24.1096 22.3094C24.1268 21.44 24.1871 20.5706 24.6004 19.7794C24.7554 19.4751 24.9793 19.2403 25.3409 19.1795C25.5131 19.1534 25.7198 19.0925 25.7112 18.8926C25.7026 18.7448 25.5906 18.5709 25.4787 18.4665C24.8415 17.9449 24.5143 17.2667 24.4282 16.4495C24.3938 16.093 24.3163 15.7365 24.2129 15.3888C24.1096 15.0584 23.9546 14.7454 23.8169 14.4324C23.7566 14.302 23.6705 14.1803 23.6102 14.0499C23.5327 13.8847 23.3863 13.676 23.5585 13.5369C23.6619 13.4499 23.8943 13.4326 24.0407 13.476C25.3754 13.9368 26.512 14.6498 27.0286 16.0669C27.2094 16.5625 27.33 17.0929 27.4333 17.6145C27.6313 18.5709 28.0705 19.3708 28.7593 20.0402C29.3534 20.6227 29.9476 21.2139 30.5417 21.8052C31.5405 22.7963 32.2035 24.0048 32.7116 25.309C32.7288 25.3611 32.7374 25.4133 32.7546 25.4915C32.2466 25.6828 31.6869 25.6828 31.3167 26.1349C31.265 26.1697 31.2047 26.1958 31.1444 26.2219L31.1358 26.2132C31.2047 26.1871 31.2564 26.161 31.3167 26.1349Z" fill="#85489C"/>
<path d="M17.643 33.5948C18.2457 34.2382 18.5213 35.0381 18.6763 35.8901C18.8313 36.7508 19.1068 37.5681 19.7354 38.2202C19.9678 38.4636 20.1831 38.7679 20.0109 39.1157C19.8301 39.4982 19.434 39.4374 19.0896 39.4113C18.5385 39.3765 18.0219 39.1765 17.5483 38.8983C15.8606 37.9333 14.681 36.5335 14.0782 34.6555C14.0524 34.5773 14.0266 34.4903 13.9749 34.4208C13.9491 34.8729 14.0179 35.3163 14.1815 35.7423C14.3451 36.177 14.526 36.5943 14.7068 37.0464C14.6724 37.0725 14.6293 37.1247 14.5862 37.1334C12.5542 37.742 10.5048 37.9246 8.4383 37.4029C6.69036 36.9595 5.32128 35.951 4.37411 34.4121C3.59916 33.1514 3.45278 31.7864 3.81443 30.3605C4.02969 29.4998 4.57216 28.8912 5.44183 28.6738C6.01012 28.526 6.59564 28.4043 7.17255 28.4043C8.61912 28.413 10.0657 28.4913 11.5123 28.5695C12.2614 28.613 12.9244 28.9173 13.5185 29.3781C14.1213 29.8476 14.7326 30.2997 15.4559 30.5779C17.4277 31.3343 19.3048 31.143 21.07 29.9693C21.3369 29.7867 21.5866 29.552 21.7933 29.2998C22.353 28.5869 22.1635 27.874 21.3283 27.5262C21.1819 27.4653 21.0356 27.4045 20.8806 27.361C20.2606 27.1784 19.744 26.8133 19.2618 26.4046C19.2532 26.3959 19.2446 26.3872 19.2273 26.3785C18.8054 25.9525 18.8571 25.6656 19.4426 25.5526C20.054 25.4222 20.6825 25.3265 21.3111 25.2918C21.8277 25.257 22.2927 25.4222 22.5855 25.9351C22.7663 26.2568 23.0246 26.222 23.2054 25.8917C23.2399 25.8308 23.2657 25.7612 23.2915 25.6917C23.5412 25.0222 24.0062 24.5527 24.6262 24.231C24.9448 24.0659 25.2633 23.892 25.5733 23.7181C25.978 23.492 26.3311 23.2051 26.6238 22.8313C26.6583 22.7878 26.6927 22.7356 26.7358 22.7009C26.8994 22.553 27.0457 22.2922 27.2954 22.3966C27.5279 22.5009 27.5193 22.7965 27.5107 23.0138C27.4504 23.8398 27.3041 24.6484 26.908 25.3874C26.6324 25.909 26.2536 26.3351 25.7628 26.6568C25.4528 26.8567 25.1342 27.0654 24.807 27.248C23.8254 27.787 23.1193 28.5695 22.6457 29.578C22.2927 30.3344 21.9138 31.0821 21.535 31.8299C20.9495 32.9688 20.0884 33.8643 19.1326 34.6903C19.081 34.7338 19.0207 34.7772 18.9604 34.8207C18.9346 34.8381 18.9087 34.8381 18.8571 34.8642C18.5041 34.3947 18.2457 33.8295 17.643 33.5948L17.6258 33.5774L17.643 33.5948Z" fill="#55B948"/>
<path d="M15.3957 6.1817C15.3268 6.05998 15.2751 5.92957 15.1804 5.82523C14.7671 5.35574 14.2504 5.00797 13.708 4.72106C13.5788 4.65151 13.4583 4.59065 13.2775 4.49501C13.4841 4.23418 13.6649 3.98205 13.863 3.7473C15.0512 2.36491 16.4031 1.19988 18.1166 0.530417C20.0195 -0.217291 21.9052 -0.191208 23.7307 0.756468C24.7553 1.29551 25.47 2.16494 25.9436 3.21695C26.4 4.21679 26.2536 5.14708 25.5303 5.99912C25.0912 6.52078 24.5831 6.96419 24.0234 7.34673C23.1193 7.96403 22.2066 8.56393 21.3111 9.18123C20.4931 9.73766 19.5976 10.0246 18.5988 9.99849C18.0305 9.9811 17.445 9.9811 16.8853 10.0941C14.6035 10.5375 13.0536 11.8938 12.2614 14.0935C12.1322 14.45 12.1064 14.8586 12.1236 15.2411C12.1495 15.8497 12.5714 16.2149 13.1827 16.1801C13.4238 16.1714 13.6649 16.1106 13.8888 16.0323C14.5432 15.7976 15.2148 15.815 15.8865 15.841C15.9467 15.841 15.9984 15.8584 16.0587 15.8671C16.4461 15.9715 16.5409 16.1801 16.2825 16.4931C15.9467 16.9017 15.5679 17.2843 15.189 17.6582C15.0168 17.8233 14.8101 17.9625 14.5949 18.0842C14.2418 18.2928 13.8716 18.345 13.4841 18.1624C13.3291 18.0929 13.1569 18.0494 13.0536 18.1972C12.9761 18.3102 12.9244 18.5015 12.9589 18.6232C13.1913 19.4666 13.0536 20.249 12.6403 21.0054C12.2442 21.7184 11.9428 22.4661 11.9342 23.3007C11.9342 23.3268 11.9342 23.3616 11.9256 23.3877C11.8653 23.5442 11.8825 23.7876 11.6673 23.7876C11.5209 23.7876 11.3315 23.6746 11.2454 23.5529C10.3671 22.2748 9.91072 20.9011 10.479 19.3535C10.6082 19.0058 10.7459 18.6493 10.9095 18.3102C11.3917 17.293 11.4434 16.2323 11.2454 15.1368C11.0731 14.1978 10.9009 13.2588 10.7976 12.3199C10.6684 11.1461 10.8751 9.9898 11.1851 8.85084C11.1937 8.81607 11.2281 8.78129 11.2712 8.72912C11.805 8.97256 12.3475 9.18123 12.9675 9.02473C12.8814 9.00734 12.8039 8.98126 12.7178 8.96387C12.1322 8.85084 11.6501 8.55524 11.2109 8.17269C10.8579 7.87708 10.5221 7.56409 10.169 7.26848C9.76434 6.9381 9.30798 6.70336 8.79134 6.59033C8.58469 6.54686 8.36942 6.486 8.17999 6.39906C7.78391 6.21648 7.68919 5.82523 7.99917 5.52093C8.21443 5.30358 8.49858 5.12969 8.78273 5.01667C9.56629 4.69498 10.3929 4.59934 11.2281 4.6602C12.4853 4.75584 13.6821 5.07753 14.7671 5.76437C14.9823 5.8774 15.189 6.0339 15.3957 6.1817L15.4215 6.19909L15.3957 6.1817Z" fill="#FDB415"/>
</svg>
