<svg width="498" height="424" viewBox="0 0 498 424" fill="none" xmlns="http://www.w3.org/2000/svg">
<g clip-path="url(#clip0)">
<path d="M406.29 330.617C470.2 321.519 513.071 252.253 493.026 174.123C467.347 74.0397 406.29 177.763 319.554 86.778C232.818 -4.20694 136.882 20.9619 92.2568 112.253C62.0133 174.123 3.05176e-05 163.204 3.05176e-05 288.764C3.05176e-05 366.101 86.5504 345.175 143.614 330.617C200.677 316.06 200.677 385.208 277.712 393.396C354.747 401.585 342.379 339.716 406.29 330.617Z" fill="white"/>
<g clip-path="url(#clip1)">
<path d="M364.759 178.886C366.053 178.886 367.132 178.886 368.103 178.886C369.936 178.886 371.554 178.241 372.74 176.736C373.388 175.876 373.819 175.016 373.819 173.942C374.035 170.394 373.495 166.955 372.633 163.515C372.525 163.085 372.417 162.548 372.309 162.118C372.201 159.001 371.446 155.884 370.799 152.767C370.476 151.262 370.368 149.649 370.044 148.145C369.505 145.78 368.966 143.415 368.103 141.158C366.377 136.428 364.651 131.699 362.71 127.077C360.661 122.133 357.964 117.511 354.405 113.426C350.954 109.556 347.502 105.794 343.296 102.785C340.384 100.635 337.04 99.1302 333.589 98.1628C331.647 97.6254 329.49 97.7328 327.333 97.5179C326.902 94.2932 326.794 90.7461 325.068 87.629C326.47 84.6194 327.441 81.5022 328.088 78.2776C328.627 75.3754 329.059 72.5807 329.598 69.6786C330.137 66.454 330.785 63.3368 331 60.1122C331.108 58.4999 330.677 56.7801 330.245 55.1678C329.598 52.9105 328.735 50.6533 327.117 48.826C326.147 47.7511 325.176 46.8912 323.666 46.6762C323.127 46.5687 322.695 46.2463 322.048 46.0313C322.264 45.7088 322.264 45.4939 322.48 45.3864C324.745 43.8816 326.147 41.5168 327.872 39.582C328.735 38.7221 329.49 37.7548 330.137 36.6799C331.971 33.9927 330.137 31.8429 327.872 31.413C324.098 30.6606 320.646 31.5205 317.734 34.1002C317.518 34.3152 317.303 34.4226 316.871 34.7451C316.548 33.3478 316.116 32.1654 316.008 30.983C315.793 29.5857 315.038 28.7258 313.743 28.4033C310.292 27.3285 307.488 27.8659 306.409 31.9504C306.301 32.2729 306.193 32.5954 305.87 33.2403C305.331 32.7028 304.899 32.3804 304.468 31.9504C301.448 28.4033 297.996 25.1787 294.221 22.384C289.907 19.3744 285.269 17.0096 280.2 15.5048C278.475 14.9674 276.641 14.4299 274.915 14.215C270.493 13.57 266.071 14.215 261.865 15.6123C258.521 16.6872 255.286 18.2995 252.05 19.9118C250.971 20.4492 250.001 20.5567 248.922 20.2343C244.608 18.9444 240.186 18.407 235.764 18.7294C234.901 18.8369 234.146 19.1594 233.283 19.3744C231.557 20.0193 229.832 20.7717 227.998 21.3092C226.272 21.8466 224.87 22.9215 223.576 24.1038C222.066 25.6087 220.664 27.221 219.046 28.6183C216.457 30.983 215.379 34.2077 214.732 37.5398C214.192 40.3345 214.085 43.2366 213.545 46.0313C212.79 50.3308 210.741 53.9854 207.182 56.7801C206.103 57.64 204.917 58.3924 203.838 59.2523C201.142 61.402 198.877 63.9817 197.691 67.2064C197.043 68.8187 196.936 70.646 196.828 72.3658C196.504 78.815 198.23 84.6194 202.652 89.4563C206.427 93.5408 211.065 95.7981 216.673 95.6906C218.615 95.6906 220.556 95.6906 222.605 95.6906C222.605 103.322 225.949 110.201 228.322 117.296C230.694 124.497 235.656 130.194 240.401 135.998C238.352 138.471 237.597 141.373 237.274 144.49C237.166 144.92 236.734 145.565 236.195 145.78C232.42 147.822 228.537 149.649 224.978 151.799C221.958 153.626 219.154 155.776 216.457 157.926C213.114 160.721 209.77 163.623 206.643 166.632C203.191 170.072 200.063 173.727 196.828 177.381C194.347 180.176 192.082 183.186 189.925 186.195C186.366 191.032 183.238 196.084 180.649 201.673C178.6 206.08 176.443 210.38 174.394 214.787C173.423 216.829 172.668 218.979 172.021 221.021C170.403 225.858 168.57 230.803 167.167 235.747C166.089 239.509 165.334 243.271 164.579 247.141C163.824 250.795 163.177 254.557 162.745 258.212C162.314 261.329 162.098 264.446 161.882 267.671C161.667 271.218 161.343 274.872 161.451 278.42C161.559 282.289 161.99 286.159 162.422 290.028C162.745 293.36 163.069 296.692 163.608 300.025C164.04 302.819 164.795 305.614 165.442 308.409C165.657 309.483 165.873 310.558 166.197 311.956C164.687 311.848 163.285 311.848 161.99 311.741C161.235 311.633 160.588 311.526 159.833 311.418C156.058 310.881 152.283 310.343 148.508 309.806C145.596 309.376 142.576 308.946 139.664 308.624C136.968 308.301 134.164 307.979 131.467 307.656C126.614 307.011 121.652 306.366 116.799 305.721C111.082 304.969 105.258 304.217 99.5418 303.464C95.1197 302.819 90.5898 302.174 86.0598 302.174C85.0891 302.174 84.1184 302.067 83.1477 301.744C81.6378 301.207 80.2357 301.637 78.8335 302.067C77.9707 302.389 76.8921 304.432 77.1078 305.399C77.6471 307.764 78.2942 310.128 79.0492 312.386C80.6671 317.76 82.2849 323.027 83.9027 328.401C84.9813 332.056 85.8441 335.71 86.9227 339.365C88.1091 343.665 89.2955 348.072 90.5898 352.371C91.4526 355.381 92.639 358.39 93.6097 361.4C94.4726 363.872 95.2276 366.344 95.9826 368.817C96.9533 371.719 97.8161 374.728 98.7868 377.631C100.405 382.79 102.13 388.057 103.748 393.216C104.072 394.184 104.503 395.151 104.827 396.118C105.15 396.978 105.582 397.731 104.935 398.698C104.827 398.806 105.042 399.451 105.258 399.558C106.013 399.988 106.876 400.418 107.739 400.633C111.298 401.385 114.965 401.923 118.524 402.568C121.329 403.105 124.025 403.535 126.829 403.965C130.065 404.61 133.409 405.255 136.644 405.9C139.017 406.33 141.39 406.76 143.763 407.19C145.812 407.62 147.969 407.942 150.018 408.372C153.685 409.124 157.353 409.769 161.02 410.522C165.442 411.382 169.756 412.242 174.178 413.102C179.247 414.069 184.209 415.036 189.278 416.111C194.671 417.186 200.171 418.261 205.564 419.228C208.045 419.658 210.525 420.088 212.898 420.518C215.487 421.056 217.967 421.593 220.556 422.131C221.527 422.345 222.605 422.345 223.684 422.453C226.164 422.883 228.537 423.313 231.018 423.743C233.175 424.173 235.332 424.71 237.489 425.033C239.539 425.355 241.588 425.57 243.637 425.785C244.716 425.893 245.794 426 246.981 425.893C247.951 425.785 249.03 425.57 249.893 425.14C253.776 422.99 257.658 420.733 261.433 418.476C267.581 414.821 273.621 411.167 279.769 407.512C285.917 403.858 291.957 400.203 298.104 396.763C304.899 393.001 311.371 388.594 317.842 384.295C321.185 382.038 324.421 379.565 327.657 377.093C328.735 376.233 328.735 375.803 327.549 375.158C326.255 374.406 324.96 373.869 323.343 373.761C320.215 373.546 317.087 372.794 313.959 372.471C309.645 371.934 305.331 371.611 301.124 371.181C296.163 370.751 291.202 370.321 286.24 369.892C282.034 369.569 277.827 369.354 273.621 368.924C268.875 368.494 264.13 367.957 259.492 367.419C254.962 366.989 250.54 366.667 246.01 366.237C244.5 366.129 244.392 366.129 244.069 364.625C243.961 363.872 243.853 363.012 243.853 362.26C243.314 356.241 242.666 350.221 242.127 344.094C242.127 343.88 242.235 343.665 242.235 343.127C242.882 343.45 243.421 343.665 243.853 344.094C246.873 347.319 250.648 349.576 254.207 352.156C257.551 354.628 261.002 356.886 264.777 358.605C270.385 361.185 275.994 363.442 282.034 365.055C288.182 366.667 294.437 367.742 300.693 368.602C305.546 369.247 310.508 369.354 315.361 369.032C319.999 368.709 324.745 368.279 329.275 367.097C332.834 366.237 336.393 365.485 339.952 364.625C342.109 364.087 344.267 363.335 346.316 362.475C349.551 361.185 352.679 359.788 355.807 358.175C360.661 355.703 365.406 353.016 369.936 349.899C374.358 346.889 378.457 343.665 382.232 339.902C386.115 335.925 389.782 331.733 393.017 327.111C396.145 322.704 398.734 317.868 401.107 313.031C403.695 307.764 405.96 302.497 407.794 296.907C408.98 293.253 409.735 289.491 410.49 285.836C411.137 283.042 411.676 280.247 412 277.452C412.539 272.293 413.079 267.133 412.539 261.974C412.324 259.609 412.324 257.244 412 254.88C411.461 251.225 410.814 247.678 410.059 244.131C409.088 239.831 408.225 235.639 406.931 231.447C405.852 227.9 404.342 224.568 402.94 221.129C401.107 216.614 398.842 212.315 396.145 208.23C394.312 205.435 392.155 202.856 389.997 200.384C387.517 197.481 384.928 194.579 382.124 191.892C379.535 189.42 376.731 187.163 374.035 184.798C371.662 182.863 369.073 181.036 366.269 179.746C365.298 179.746 365.083 179.423 364.759 178.886ZM229.184 285.406C229.077 285.514 228.969 285.514 228.861 285.621C228.537 285.299 228.214 285.084 227.998 284.761C226.272 282.934 224.654 280.999 222.929 279.172C222.39 278.527 221.742 277.99 221.203 277.345C218.075 273.69 214.84 270.143 210.633 267.671C208.045 266.166 205.456 265.306 202.544 265.629C201.034 265.843 200.495 266.381 200.387 267.886C200.387 268.316 200.495 268.853 200.603 269.283C201.25 271.97 202.544 274.335 204.054 276.7C207.613 282.182 211.28 287.449 215.595 292.393C216.134 293.038 216.673 293.79 216.997 294.22C215.81 295.51 214.624 296.37 213.869 297.552C212.575 299.81 211.82 302.389 211.604 304.969C211.496 306.796 211.496 308.731 211.496 310.666C211.496 313.138 211.82 315.61 213.114 317.868C213.222 317.975 213.114 318.19 213.114 318.512C199.524 316.685 186.15 314.858 172.56 312.923C172.56 312.278 172.452 311.741 172.452 311.311C172.452 308.946 172.452 306.581 172.344 304.217C172.237 301.207 171.697 298.197 171.805 295.08C171.913 289.168 172.237 283.149 172.452 277.237C172.452 276.055 172.452 274.872 172.56 273.798C172.776 271.755 173.207 269.713 173.423 267.671C173.854 264.231 174.178 260.792 174.825 257.459C175.796 252.515 176.767 247.678 177.953 242.841C178.708 239.617 179.786 236.392 180.757 233.275C182.051 229.298 183.13 225.213 184.856 221.451C187.336 215.754 190.033 210.057 192.945 204.576C195.533 199.739 198.446 195.224 201.358 190.602C203.623 187.163 205.888 183.723 208.476 180.498C211.28 176.844 214.192 173.189 217.32 169.965C220.664 166.417 224.547 163.193 228.106 159.861C230.263 157.926 232.42 155.884 234.577 153.949C235.117 153.411 235.872 153.089 236.842 152.552C236.95 153.519 236.95 154.056 236.95 154.594C236.95 155.239 236.842 155.884 237.058 156.421C237.597 159.216 238.244 162.01 238.891 164.805C239.646 167.922 241.049 170.932 242.99 173.512C245.902 177.381 249.353 180.713 253.021 183.723C254.746 185.12 256.364 186.518 257.874 188.022C258.198 188.345 258.413 189.097 258.413 189.635C258.09 193.719 257.766 197.911 257.119 201.996C256.256 207.263 256.256 212.637 255.178 217.904C254.638 220.591 254.854 223.386 254.531 226.073C254.315 228.223 254.099 230.265 253.776 232.522C253.128 232.415 252.589 232.307 252.05 232.307C251.079 232.2 250.108 232.092 249.138 232.092C248.814 232.092 248.491 232.522 248.167 232.737C248.383 233.06 248.598 233.49 248.922 233.597C250.216 234.135 251.618 234.565 253.128 235.102C253.128 235.639 253.128 236.284 253.128 236.822C253.021 238.004 252.805 239.187 252.805 240.369C252.805 241.551 253.236 241.981 254.315 242.196C255.286 242.411 255.717 241.766 255.933 241.121C256.472 239.509 256.903 237.897 257.443 236.069C258.305 236.069 259.384 236.069 260.355 235.854C260.786 235.747 261.11 235.424 261.541 235.21C261.325 234.887 261.11 234.35 260.786 234.135C259.923 233.812 258.953 233.597 257.982 233.275C257.982 232.737 257.874 232.2 257.982 231.77C258.629 227.578 259.276 223.493 259.815 219.301C260.355 214.679 260.355 209.95 261.002 205.328C261.433 202.211 261.325 198.986 261.649 195.869C261.757 194.579 262.08 193.289 262.296 191.785C263.698 192.537 264.777 193.182 265.855 193.827C269.63 195.869 273.837 196.621 278.151 196.944C279.661 197.051 281.063 197.051 282.573 197.159C283.867 197.266 284.083 197.481 283.867 198.771C283.759 199.631 283.436 200.384 283.328 201.243C282.897 204.468 282.465 207.585 282.142 210.81C281.71 214.572 281.171 218.226 280.74 221.989C280.308 225.536 279.985 229.083 279.553 232.63C279.337 234.35 279.014 236.069 278.69 237.789C277.396 238.434 275.562 237.359 274.592 238.972C275.562 239.939 275.562 239.939 276.965 240.261C278.367 240.691 278.367 240.691 278.151 242.089C277.935 243.701 277.827 245.313 277.72 246.926C278.151 247.141 278.367 247.248 278.69 247.356C280.2 247.893 280.74 247.678 281.279 246.066C281.602 245.206 281.71 244.346 282.034 243.486C282.249 242.734 282.573 242.089 282.681 241.766C284.514 241.551 286.024 241.444 287.427 241.121C288.289 240.906 288.505 239.617 287.75 239.079C286.995 238.542 286.132 238.219 285.269 238.004C283.867 237.574 283.544 237.359 283.652 235.854C283.759 234.887 284.083 233.92 284.191 233.06C284.73 229.835 285.162 226.611 285.701 223.386C286.24 220.054 287.103 216.722 287.534 213.39C287.966 209.198 288.074 205.005 288.289 200.813C288.397 197.696 287.642 197.589 291.417 197.696C293.79 197.696 296.055 197.804 298.428 197.589C301.664 197.266 304.899 196.621 308.135 196.084C311.047 195.547 313.851 195.117 316.655 194.364C319.675 193.504 322.695 192.537 325.715 191.462C331.647 189.42 336.932 186.303 342.109 182.863C345.345 180.713 348.581 178.779 351.816 176.736C352.787 176.199 353.542 176.199 354.513 176.844C356.562 178.241 358.827 179.423 360.984 180.713C361.955 181.251 362.926 181.788 363.681 182.433C366.269 184.69 368.75 186.948 371.123 189.312C373.603 191.785 375.868 194.364 378.133 196.944C381.153 200.491 383.634 204.468 386.115 208.445C389.135 213.067 391.723 218.011 393.988 222.956C396.253 228.223 398.41 233.49 399.92 238.972C401.214 243.916 401.969 248.86 402.185 253.912C402.401 258.427 402.293 262.941 402.185 267.456C402.185 269.928 401.969 272.4 401.646 274.872C401.214 278.42 400.783 281.859 400.028 285.299C399.273 288.953 398.41 292.5 397.332 296.048C396.469 298.95 395.282 301.852 394.096 304.754C392.478 308.731 390.537 312.601 388.056 316.148C385.791 319.48 383.526 322.919 381.045 326.037C378.673 329.046 376.084 331.841 373.603 334.743C370.907 337.86 367.887 340.547 364.759 343.127C361.308 345.922 358.072 348.824 354.405 351.189C349.228 354.521 343.619 357.1 337.795 359.143C333.805 360.54 329.706 361.507 325.715 362.475C320.215 363.872 314.606 363.98 308.998 364.302C306.733 364.41 304.468 363.98 302.311 363.872C299.83 363.657 297.457 363.55 294.976 363.335C290.231 362.905 285.701 361.4 281.279 360.003C278.475 359.143 275.886 357.853 273.082 356.778C272.435 356.456 271.68 356.133 270.817 355.703C271.248 355.381 271.464 355.166 271.68 354.951C274.052 353.231 276.749 351.726 278.906 349.791C282.573 346.567 285.054 342.267 287.427 338.075C289.692 334.098 291.633 329.799 292.711 325.392C293.359 323.027 293.79 320.555 294.006 318.082C294.221 315.61 294.006 313.031 294.006 310.343C294.329 310.236 294.869 310.128 295.408 310.128C296.702 309.913 298.104 309.913 299.399 309.483C302.419 308.409 305.438 307.226 308.458 306.044C312.341 304.432 315.577 301.959 319.028 299.595C323.558 296.477 327.333 292.5 330.677 288.308C333.157 285.191 335.315 281.644 337.472 278.205C340.276 273.475 342.649 268.531 343.512 263.049C343.943 260.577 344.159 257.997 344.267 255.417C344.267 254.88 344.159 254.235 343.835 253.697C343.296 252.837 342.541 252.3 341.462 252.408C340.492 252.515 340.168 253.16 339.844 253.912C339.197 255.847 338.442 257.782 337.903 259.824C336.501 264.446 334.775 269.068 332.295 273.26C330.892 275.625 329.49 277.99 327.872 280.139C325.284 283.579 322.48 286.911 319.675 290.028C316.655 293.468 312.988 296.155 309.106 298.627C307.164 299.917 305.438 301.959 302.634 301.314C302.526 301.314 302.419 301.422 302.311 301.422C299.614 302.497 297.026 303.572 294.329 304.539C290.123 306.151 285.809 307.226 281.279 306.044C280.955 305.936 280.632 305.936 280.416 305.936C276.102 305.829 271.895 305.184 267.581 304.109C267.15 301.744 266.718 299.272 266.287 296.8C265.748 293.683 265.208 290.566 264.561 287.448C264.022 284.869 263.159 282.289 262.404 279.709C261.649 277.345 260.57 275.195 257.982 274.335C254.962 273.26 251.511 273.905 250.54 277.452C250.001 279.602 249.461 281.859 249.461 284.009C249.353 286.696 249.785 289.491 249.893 292.178C249.893 292.715 249.893 293.253 249.785 293.898C248.706 292.393 248.167 290.781 247.304 289.383C245.471 286.266 243.637 283.256 241.696 280.247C239.431 276.7 236.95 273.26 234.577 269.928C233.499 268.316 232.097 266.918 231.018 265.306C229.184 262.834 227.351 260.362 224.762 258.534C223.792 257.889 223.468 256.922 223.792 255.525C224.439 253.052 224.547 250.365 224.978 247.786C225.625 243.916 226.164 239.939 226.812 236.069C227.135 234.027 227.674 232.092 228.214 230.05C229.184 225.966 230.263 221.881 231.342 217.904C231.881 216.077 232.636 214.249 233.283 212.422C233.714 211.132 233.499 210.595 232.312 210.165C231.342 209.842 230.479 210.057 230.047 211.025C228.861 213.819 227.459 216.614 226.596 219.409C225.194 224.031 224.115 228.76 223.037 233.49C222.39 236.177 221.742 238.757 221.311 241.444C220.772 244.883 220.448 248.43 220.125 251.87C220.017 253.052 219.801 254.235 219.585 255.417C216.997 256.17 216.242 257.674 217.212 259.932C218.938 264.124 220.664 268.316 222.605 272.4C224.115 275.732 225.949 278.957 227.674 282.289C227.998 283.256 228.537 284.331 229.184 285.406ZM318.058 84.2969C318.597 84.8343 319.136 85.2643 319.46 85.8017C320.215 87.0916 320.754 88.4889 321.401 89.8862C322.588 92.5734 322.48 95.3681 322.588 98.1628C322.695 103 320.754 106.869 317.842 110.524C316.548 112.136 314.93 113.534 312.881 114.393C310.184 115.468 307.596 116.113 304.683 116.113C303.497 116.113 302.419 116.436 301.664 117.403C299.075 121.058 296.486 124.605 294.006 128.259C291.741 131.484 288.937 134.279 285.917 136.751C280.847 140.943 275.562 144.705 269.307 147.177C266.179 148.36 263.483 147.93 260.786 146.425C260.031 145.995 259.276 145.672 258.521 145.242C255.933 143.63 253.236 142.233 250.971 140.298C248.383 138.148 246.01 135.568 243.853 132.989C240.294 128.582 237.058 123.96 234.685 118.8C234.146 117.618 233.607 116.328 233.067 115.146C232.204 113.211 231.449 111.384 230.587 109.556C229.184 106.869 228.429 103.967 227.89 101.065C227.459 98.8077 226.704 96.8729 225.841 94.7232C226.919 94.2932 228.106 93.8633 229.184 93.4333C230.371 93.0034 231.126 92.1435 231.449 90.9611C232.959 86.8766 232.636 82.6846 232.097 78.4926C231.881 76.4503 232.312 74.838 234.146 73.6556C235.117 73.0107 236.195 72.3658 237.274 71.7208C239.215 70.431 241.156 69.1411 242.99 67.7438C245.579 65.9165 246.765 63.1218 248.167 60.3272C249.03 58.6074 249.893 56.995 250.863 55.3827C251.726 54.0929 252.589 53.8779 253.991 54.6303C255.501 55.4902 256.903 56.3501 258.305 57.425C260.678 59.2523 263.051 60.7571 265.963 61.402C267.797 61.7245 269.738 61.832 271.572 62.2619C274.268 62.9069 276.857 62.9069 279.553 62.1544C281.602 61.617 283.544 61.0796 285.593 60.5421C286.132 60.4346 286.887 60.3272 287.319 60.4346C289.584 61.2945 291.417 62.6919 292.28 65.1641C293.359 68.1738 294.761 70.9684 295.839 73.9781C296.81 76.6653 297.673 79.5674 298.428 82.3621C299.075 84.6194 299.614 86.8766 300.154 89.2413C300.585 91.3911 301.016 93.5408 301.34 95.6906C301.556 96.9804 301.664 98.2703 301.879 99.5601C302.419 99.6676 302.85 99.7751 303.281 99.8826C303.713 99.9901 304.252 100.098 304.683 100.313C306.517 100.85 306.625 100.957 307.596 99.3452C309.753 96.013 311.802 92.5734 313.851 89.1338C314.93 87.414 315.9 85.5867 318.058 84.2969ZM327.225 99.5601C328.52 99.6676 329.598 99.6676 330.569 99.7751C331.108 99.8826 331.755 99.8826 332.187 100.098C334.02 101.28 335.962 102.355 337.579 103.752C340.276 106.117 342.757 108.697 345.237 111.276C347.179 113.426 349.012 115.683 350.63 118.155C354.081 123.315 356.454 129.012 358.288 135.031C359.151 138.041 360.229 140.943 361.092 143.845C362.063 146.962 362.926 150.079 363.788 153.304C364.328 155.239 364.436 157.281 364.975 159.216C365.946 162.978 366.269 166.847 366.053 170.824C365.838 174.801 364.436 175.876 360.661 174.372C358.072 173.297 355.376 172.544 352.571 172.222C351.709 172.114 350.954 172.114 350.091 172.114C346.424 172.329 343.08 173.834 339.952 175.554C336.609 177.274 333.373 179.316 330.137 181.143C323.99 184.798 317.626 188.022 310.831 190.065C308.674 190.71 306.517 191.247 304.252 191.677C300.369 192.429 296.379 193.397 292.388 193.827C288.613 194.257 284.838 193.934 281.063 193.182C280.955 193.182 280.847 192.967 280.632 192.752C281.171 192.322 281.494 191.892 282.034 191.57C284.946 189.85 287.427 187.592 289.044 184.583C289.26 184.153 289.584 183.723 289.799 183.293C290.554 182.111 290.662 182.003 291.956 182.541C292.604 182.863 293.251 183.293 293.898 183.508C296.055 184.045 298.212 184.583 300.477 184.905C303.066 185.335 305.762 185.013 308.243 184.153C310.292 183.508 312.126 182.433 313.959 181.466C319.46 178.779 322.911 174.157 325.392 168.782C327.333 164.483 327.98 159.861 327.872 155.131C327.765 149.219 325.392 144.49 321.617 140.19C321.401 139.975 321.293 139.653 320.97 139.223C323.235 138.148 324.098 136.213 324.853 134.064C326.147 130.517 326.47 126.969 325.392 123.53C324.313 120.09 323.127 116.651 319.675 114.178C324.098 110.309 327.225 105.687 327.225 99.5601ZM316.763 377.093C316.224 377.523 316.008 377.631 315.793 377.738C312.341 379.565 308.89 381.285 305.546 383.22C301.556 385.477 297.565 387.949 293.574 390.314C291.525 391.497 289.584 392.786 287.534 394.076C285.377 395.366 283.22 396.548 281.171 397.838C277.504 400.096 273.837 402.46 270.17 404.717C264.993 407.942 259.708 411.167 254.531 414.391C252.697 415.574 250.756 416.756 248.706 417.938C248.491 414.284 248.167 410.844 248.167 407.405C248.167 404.503 247.736 401.708 247.412 398.913C246.873 395.044 246.334 391.174 245.902 387.197C245.579 384.94 245.471 382.575 245.147 380.318C244.824 376.878 244.392 373.439 244.069 369.999C244.5 369.892 244.824 369.784 245.147 369.784C246.334 369.892 247.412 370.106 248.598 370.214C251.942 370.536 255.286 370.751 258.629 371.074C262.404 371.504 266.071 372.149 269.846 372.364C273.405 372.579 276.857 372.901 280.308 373.439C283.436 373.869 286.672 373.869 289.799 374.084C292.496 374.298 295.3 374.513 297.996 374.836C300.909 375.158 303.928 375.481 306.841 375.803C309.537 376.018 312.233 376.233 315.038 376.448C315.577 376.448 316.008 376.771 316.763 377.093ZM222.497 260.684C222.713 260.469 223.037 260.362 223.252 260.147C223.468 260.469 223.684 260.899 223.9 261.222C225.841 264.124 227.782 267.026 229.616 270.035C231.449 272.938 233.283 275.732 235.009 278.742C238.352 284.331 241.696 289.921 244.931 295.51C246.549 298.305 248.275 300.884 251.726 301.637C254.423 302.282 256.041 301.314 256.041 298.52C256.041 293.575 255.825 288.523 255.825 283.579C255.825 282.074 256.148 280.569 256.364 279.064C256.472 278.635 256.796 278.312 257.227 277.56C257.658 278.42 257.982 278.957 258.09 279.494C258.413 281.322 259.061 283.042 259.168 284.976C259.276 287.556 259.815 290.136 260.031 292.715C260.355 296.585 261.11 300.562 262.728 304.002C263.914 306.581 263.806 308.516 262.512 310.773C262.296 311.096 262.08 311.526 261.865 311.848C257.335 319.157 252.158 325.929 244.716 330.659C243.529 331.411 242.451 332.486 240.833 332.593C240.725 332.163 240.617 331.733 240.509 331.303C240.078 328.509 239.754 325.714 239.323 323.027C238.999 321.307 238.136 320.77 236.519 320.985C235.872 321.092 235.332 321.307 234.793 321.415C234.362 321.522 233.93 321.63 233.607 321.522C229.939 320.985 226.272 320.447 222.605 319.91C221.419 319.695 220.556 319.157 219.909 318.082C218.83 316.148 218.83 314.105 218.722 312.063C218.615 311.203 218.291 310.128 219.154 309.268C219.477 309.483 219.693 309.591 219.909 309.806C221.85 311.526 223.684 313.246 225.625 314.858C227.135 316.04 228.753 317.438 230.91 317.115C231.342 316.148 230.91 315.503 230.371 314.858C228.537 312.923 226.812 311.096 224.978 309.161C223.792 307.871 222.605 306.581 221.527 305.184C220.88 304.324 220.556 303.357 219.801 302.067C220.125 301.314 220.664 300.132 221.311 298.627C222.066 299.165 222.605 299.595 223.037 300.025C225.41 302.174 227.674 304.432 230.047 306.689C231.342 307.871 232.852 308.839 235.009 307.979C234.685 307.226 234.577 306.366 234.146 305.829C232.42 303.679 230.587 301.529 228.753 299.487C226.704 297.122 224.439 294.865 222.497 292.393C217.428 286.266 212.898 279.924 208.8 273.153C208.153 271.97 207.505 270.788 206.966 269.606C207.074 269.498 207.182 269.498 207.29 269.391C207.937 270.035 208.692 270.573 209.339 271.218C211.388 273.368 213.545 275.41 215.487 277.667C218.507 280.999 221.527 284.439 224.547 287.878C226.919 290.566 228.969 293.468 231.773 295.833C233.93 297.66 236.195 299.057 239.215 298.627C240.617 298.412 241.156 297.767 240.833 296.477C240.617 295.51 240.294 294.65 239.754 293.79C237.058 288.523 234.254 283.256 231.557 277.99C229.077 273.26 226.596 268.531 224.115 263.801C223.36 262.834 223.037 261.759 222.497 260.684ZM283.436 162.763C283.22 160.183 283.436 157.711 284.407 155.239C285.269 152.874 285.809 150.402 286.995 148.252C287.966 146.425 289.476 144.812 290.878 143.2C294.437 139.116 298.967 136.536 304.252 135.139C304.791 135.031 305.331 134.924 305.87 135.031C307.056 135.246 308.135 135.461 309.213 135.783C315.038 137.503 318.381 141.695 320.107 147.285C320.862 149.542 321.078 151.907 321.401 154.271C321.94 159.108 320.862 163.623 318.705 167.815C316.979 171.039 314.822 173.834 312.018 176.306C308.89 179.101 305.223 180.606 301.34 181.358C299.506 181.681 297.565 181.573 295.731 181.143C291.741 180.283 288.829 177.704 286.672 174.264C285.809 172.867 285.054 171.469 284.407 169.965C283.328 167.815 283.22 165.343 283.436 162.763ZM177.414 371.289C177.414 371.826 177.414 372.256 177.414 372.794C176.982 377.631 174.825 381.5 170.403 383.757C165.01 386.445 159.617 385.907 154.656 382.79C148.616 379.028 145.488 373.331 146.135 366.022C146.567 360.648 151.097 355.488 156.49 354.306C159.402 353.661 162.098 354.091 164.902 354.843C171.805 356.563 177.737 363.872 177.414 371.289ZM285.917 179.208C284.946 181.358 282.897 182.541 281.279 184.045C279.661 185.443 278.043 186.948 275.886 188.452C275.886 185.658 275.886 183.4 275.886 181.143C275.886 179.101 276.21 177.166 276.102 175.124C275.994 172.867 275.67 170.609 275.239 168.46C274.807 166.525 274.268 164.698 273.621 162.87C272.327 159.323 272.542 155.346 270.385 152.122C273.621 150.939 276.641 149.757 280.092 148.36C275.994 160.076 277.935 170.18 285.917 179.208ZM250.432 145.457C253.236 147.07 255.609 148.682 258.09 149.972C260.678 151.369 263.59 151.584 266.718 151.907C267.258 155.024 267.905 157.926 268.12 160.828C268.336 163.73 269.307 166.74 268.66 169.965C267.905 169.642 267.365 169.427 266.934 168.997C264.345 166.955 261.757 164.805 259.276 162.655C256.041 159.968 253.776 156.529 251.834 152.874C250.648 150.724 250.432 148.252 250.432 145.457ZM259.6 328.616C262.943 330.444 266.395 331.733 269.954 332.593C273.513 333.561 277.072 334.206 280.74 334.313C280.74 334.636 280.847 334.743 280.847 334.851C279.122 337.753 277.288 340.655 275.562 343.557C275.131 344.202 274.484 344.524 273.621 344.094C273.082 343.88 272.542 343.772 272.111 343.45C268.444 341.73 265.208 339.365 262.08 337C260.247 335.603 258.413 334.206 256.58 332.808C256.041 332.378 255.609 331.841 256.256 331.303C257.227 330.444 258.305 329.691 259.6 328.616ZM272.003 347.427C271.464 348.072 271.14 348.609 270.817 348.931C269.63 350.006 268.552 351.081 267.365 352.156C265.963 353.338 265.748 353.231 264.13 352.479C260.678 350.759 257.658 348.501 254.531 346.244C251.295 343.88 248.275 341.192 245.579 338.29C245.147 337.753 244.824 337.108 244.5 336.678C246.334 336.033 247.951 335.495 249.677 334.851C250.432 334.528 251.187 334.528 251.511 335.388C252.373 336.893 253.668 338.075 254.962 338.935C256.903 340.332 258.953 341.73 261.11 342.805C264.022 344.309 266.826 346.029 270.17 346.674C270.601 346.674 271.032 346.997 272.003 347.427ZM287.75 310.773C288.074 313.246 287.75 315.503 287.319 317.76C286.995 319.372 286.887 319.372 285.269 319.372C281.063 319.157 276.857 319.05 272.65 318.727C271.14 318.62 269.738 318.297 268.12 318.082C268.228 317.653 268.336 317.33 268.444 317.115C269.63 315.288 270.277 313.353 270.817 311.203C271.248 309.483 271.572 309.268 273.405 309.483C277.827 310.128 282.249 310.558 286.672 310.558C286.887 310.666 287.211 310.773 287.75 310.773ZM243.961 140.62C245.147 140.943 244.824 141.695 244.824 142.448C244.931 145.135 244.931 147.93 245.363 150.617C245.686 152.981 246.334 155.239 246.873 157.603C247.736 161.258 248.922 164.805 250.648 168.245C251.403 169.857 252.481 171.362 253.236 172.974C255.609 177.704 258.521 182.111 261.973 186.088C262.188 186.303 262.296 186.733 262.404 187.055C261.541 186.733 261.11 186.195 260.57 185.765C257.443 183.293 254.423 180.713 251.834 177.704C249.785 175.339 248.275 172.759 247.089 170.072C245.902 167.17 244.931 164.16 243.961 161.151C243.637 160.183 243.314 159.108 243.314 158.141C243.098 154.594 242.882 151.154 242.882 147.607C242.882 145.78 243.314 143.845 243.529 142.018C243.421 141.48 243.745 141.05 243.961 140.62ZM285.377 323.457C285.377 326.467 283.544 328.616 282.789 331.303C275.778 329.799 268.983 328.294 261.865 326.681C263.051 324.209 264.777 322.597 265.963 320.77C272.327 323.027 278.582 323.887 285.377 323.457ZM313.636 134.386C310.831 133.741 308.351 133.204 305.762 132.559C305.978 132.021 306.086 131.591 306.301 131.161C307.056 129.549 307.488 127.829 307.596 126.11C307.703 124.067 308.135 122.133 308.351 120.198C308.674 118.263 309.321 117.618 311.263 117.511C312.126 117.403 312.881 117.081 313.743 116.866C314.498 116.651 315.361 116.436 316.44 116.221C315.9 122.562 315.685 128.582 313.636 134.386ZM149.155 343.342C155.195 341.3 161.235 346.244 161.235 350.651C160.049 351.404 158.862 350.759 157.676 350.544C154.333 350.006 151.636 348.286 149.587 345.599C149.155 344.954 148.724 344.202 149.155 343.342Z" fill="black"/>
<path d="M293.467 106.332C292.496 106.332 291.849 106.117 291.309 106.332C287.427 107.622 283.652 109.019 279.769 110.309C275.886 111.599 272.003 112.889 268.12 113.963C264.238 115.146 260.247 116.006 256.364 117.081C254.207 117.726 252.05 118.478 250.001 119.123C249.461 119.338 248.814 119.445 248.275 119.338C246.981 119.23 246.01 119.553 245.147 120.628C245.363 120.95 245.471 121.38 245.794 121.595C248.275 123.315 250.864 124.712 253.991 125.035C256.256 125.357 258.521 125.68 260.894 126.002C264.238 126.432 267.365 125.465 270.601 124.605C275.131 123.53 278.798 121.058 282.573 118.478C284.838 116.973 287.103 115.468 288.829 113.319C290.339 111.491 291.633 109.556 293.035 107.622C293.035 107.622 293.035 107.192 293.467 106.332ZM287.642 110.201C287.211 110.954 286.995 111.384 286.672 111.706C282.573 115.468 278.582 119.445 273.405 121.703C270.493 122.992 267.473 124.175 264.238 123.852C262.296 123.745 260.247 123.315 258.413 122.67C256.903 122.133 255.933 120.843 255.501 119.123C257.335 118.693 259.061 118.156 260.678 117.726C263.483 117.081 266.395 116.651 269.199 115.898C274.7 114.501 280.092 112.889 285.27 110.739C286.025 110.631 286.672 110.524 287.642 110.201Z" fill="black"/>
<path d="M257.119 109.234C256.903 107.299 256.256 105.472 256.58 103.322C257.011 100.527 256.903 97.7328 257.227 94.9381C257.766 90.7461 258.306 86.5541 259.492 82.3621C259.708 81.6097 259.815 80.7498 260.031 79.9974C260.678 77.8476 261.325 75.6979 261.973 73.5481C262.188 72.6882 262.404 71.8283 262.62 70.9684C261.541 70.001 260.463 69.786 259.384 70.431C258.953 70.6459 258.521 71.0759 258.306 71.5058C257.766 72.7957 257.227 74.193 256.688 75.5904C255.717 78.4925 254.962 81.3947 254.315 84.2969C253.56 88.0589 252.589 91.821 252.589 95.798C252.481 98.7002 252.266 101.495 252.266 104.397C252.266 105.794 252.481 107.299 252.805 108.697C253.452 111.814 257.766 113.104 260.463 110.954C261.865 109.771 263.159 108.482 264.453 107.192C264.669 106.977 264.885 106.224 264.777 106.117C264.561 105.794 263.914 105.579 263.59 105.687C262.728 106.009 261.757 106.439 261.002 106.977C259.923 107.729 258.845 108.589 257.766 109.449C257.443 109.341 257.335 109.341 257.119 109.234Z" fill="black"/>
<path d="M237.489 77.0952C238.676 78.0626 239.754 77.9551 240.833 77.6327C244.176 76.6653 247.52 75.3754 250.216 73.0107C251.834 71.6134 253.668 70.3235 255.178 68.8187C255.717 68.2812 255.825 67.4213 256.148 66.6689C255.393 66.3465 254.638 65.809 253.883 65.7015C252.373 65.4866 250.863 65.809 249.677 66.8839C246.549 70.001 242.666 72.2583 239.215 74.9455C238.568 75.6979 238.029 76.4503 237.489 77.0952Z" fill="black"/>
<path d="M290.77 70.7535C290.447 68.7112 289.152 68.3887 287.858 68.3887C285.162 68.2812 282.357 68.1738 279.661 68.0663C277.935 67.9588 276.317 67.7438 274.592 67.6363C272.003 67.4213 269.415 67.8513 266.934 69.0337C267.581 70.3235 268.444 70.5385 269.523 70.646C271.68 70.7535 273.837 70.7535 275.886 71.1834C279.014 71.9358 282.142 71.7209 285.377 71.6134C287.103 71.5059 288.829 71.0759 290.77 70.7535Z" fill="black"/>
<path d="M272.542 87.414C273.729 88.4889 274.915 88.7039 275.994 88.5964C277.396 88.4889 278.906 88.2739 280.308 87.844C284.083 86.5541 287.319 84.4044 290.554 82.2546C291.309 81.7172 292.064 81.2872 292.819 80.7498C293.035 80.5348 293.251 80.2123 293.574 79.6749C292.604 79.6749 291.957 79.5674 291.309 79.6749C286.887 80.5348 282.789 82.2546 278.798 84.4044C276.749 85.2643 274.7 86.2317 272.542 87.414Z" fill="black"/>
<path d="M307.919 108.374C309.106 108.697 309.968 108.589 310.723 107.622C311.802 106.117 312.881 104.72 314.067 103.107C315.901 103.967 317.626 105.472 319.999 104.397C319.46 102.892 318.166 102.247 316.979 101.71C315.469 100.957 315.253 100.743 316.44 99.5602C317.95 98.0553 319.46 96.658 321.078 95.0457C319.568 94.4008 318.489 94.9382 317.303 95.6906C313.851 97.9478 311.263 100.957 309.214 104.397C308.674 105.257 308.243 106.332 307.811 107.299C307.811 107.729 307.919 108.052 307.919 108.374Z" fill="black"/>
<path d="M236.303 83.5445C237.813 84.6194 239.215 85.6943 240.725 86.7691C242.882 88.1665 244.931 89.5638 247.089 90.9611C248.275 91.7136 249.461 91.821 250.756 91.0686C251.942 90.4237 252.158 89.1339 251.187 88.1665C250.756 87.7365 250.216 87.3066 249.569 86.9841C245.902 84.8344 241.804 83.9745 237.597 83.222C237.382 83.222 237.058 83.222 236.842 83.222C236.734 83.3295 236.627 83.437 236.303 83.5445Z" fill="black"/>
<path d="M243.637 122.562C243.745 121.165 244.284 119.875 242.882 119.015C242.235 118.585 241.588 118.263 240.833 118.908C240.186 119.445 240.617 120.09 240.833 120.735C241.372 121.81 242.235 122.24 243.637 122.562Z" fill="black"/>
<path d="M303.605 149.542C301.556 149.649 299.614 149.972 297.673 150.832C295.947 151.584 294.869 152.874 294.221 154.486C293.143 156.959 292.604 159.538 292.819 162.333C292.927 164.483 293.466 166.417 294.761 168.137C296.594 170.717 299.291 171.577 302.311 171.792C307.703 172.222 311.478 169.105 313.528 164.483C314.39 162.44 315.038 160.398 314.498 158.141C313.743 154.809 312.449 151.692 308.89 150.509C307.272 149.864 305.438 149.864 303.605 149.542ZM297.349 162.118C297.241 160.183 297.457 158.571 298.212 156.959C299.614 153.949 301.987 152.122 305.007 151.154C306.193 150.832 307.811 151.692 308.243 152.874C308.89 154.701 309.429 156.421 308.89 158.356C308.566 159.431 308.351 160.613 308.027 161.688C306.948 165.02 304.576 167.385 301.556 168.997C300.585 169.535 299.722 169.32 299.075 168.352C297.673 166.525 297.026 164.375 297.349 162.118Z" fill="black"/>
</g>
</g>
<defs>
<clipPath id="clip0">
<rect width="498" height="424" fill="white"/>
</clipPath>
<clipPath id="clip1">
<rect width="335" height="412" fill="white" transform="matrix(-1 0 0 1 412 14)"/>
</clipPath>
</defs>
</svg>
