<svg width="560" height="532" viewBox="0 0 560 532" fill="none" xmlns="http://www.w3.org/2000/svg">
<g clip-path="url(#clip0)">
<path d="M458.713 555.152C529.297 547.01 576.645 485.023 554.506 415.104C526.147 325.538 458.713 418.361 362.921 336.937C267.128 255.514 161.175 278.038 111.89 359.735C78.4886 415.103 10 405.332 10 517.697C10 586.907 105.588 568.18 168.609 555.152C231.631 542.124 231.631 604.006 316.71 611.334C401.789 618.662 388.129 563.294 458.713 555.152Z" fill="#F2F8F1"/>
<path d="M140.957 482.635C140.957 483.017 140.83 483.4 140.894 483.655C141.66 486.078 141.277 488.629 141.404 491.053C141.532 493.859 141.277 496.728 141.596 499.471C142.17 503.68 141.915 507.952 142.043 512.162C142.17 516.052 142.234 519.878 142.298 523.768C142.426 528.743 142.489 533.717 142.681 538.755C142.809 542.39 143.064 546.089 143.192 549.724C143.255 551.51 143.192 553.359 143.255 555.145C143.383 558.716 143.638 562.287 143.83 565.922C143.894 567.198 143.83 568.473 143.957 569.749C144.34 574.468 144.66 579.123 144.596 583.842C144.532 586.011 144.787 588.243 144.404 590.347C143.894 593.281 144.085 596.278 143.83 599.212C143.575 601.699 143.447 604.186 143.192 606.609C142.809 610.308 142.362 613.943 141.915 617.642C141.787 618.535 141.085 619.045 140.383 619.3C138.851 619.81 137.255 620.193 135.66 620.64C135.34 620.703 134.957 620.767 134.447 620.895C134.83 622.553 135.149 624.147 135.596 625.741C136.362 628.547 137.255 631.29 137.575 634.223C137.894 636.838 138.468 639.453 138.66 642.067C138.915 645.32 138.851 648.572 138.021 651.697C137.447 653.929 136.362 655.97 133.043 656.48C127.681 657.309 123.979 654.822 121.043 650.868C117.34 645.83 114.787 640.09 112.553 634.223C111.213 630.779 109.809 627.4 108.468 623.956C107.894 622.425 107.255 620.895 106.809 619.364C106.106 616.941 104.83 614.9 102.851 613.433C101.319 612.285 100.553 610.627 99.9149 609.033C98.383 605.079 96.2766 601.444 94.4256 597.681C93.5958 596.023 92.9575 594.301 92.2554 592.643C91.2341 590.092 90.2128 587.478 89.1915 584.863C87.8511 581.419 86.5107 577.975 85.1703 574.595C83.5745 570.514 81.9149 566.496 80.383 562.415C79.1064 559.162 77.9575 555.91 76.8086 552.657C75.5958 549.214 74.383 545.834 73.2341 542.39C72.2766 539.456 71.383 536.459 70.4894 533.462C69.532 530.273 68.5107 527.148 67.6171 523.96C67.0426 521.919 66.5958 519.751 66.0213 517.71C65.5107 515.669 64.8724 513.692 64.3617 511.651C63.8511 509.611 63.4043 507.57 62.8937 505.529C62.383 503.488 61.7447 501.511 61.1703 499.471C60.4681 496.856 59.766 494.178 59.0639 491.563C58.5532 489.713 58.1064 487.928 57.5958 486.078C57.0213 483.846 56.4469 481.614 55.8724 479.382C55.2979 477.278 54.7234 475.109 54.2128 473.005C53.766 471.219 53.2554 469.434 52.7447 467.648C52.1703 465.543 51.532 463.375 50.9575 461.271C50.383 459.102 49.9362 456.87 49.4894 454.638C48.8511 451.641 48.2766 448.644 47.766 445.646C47.5107 444.371 47.383 443.159 47.1915 441.884C46.9362 440.034 46.6809 438.249 46.3617 436.399C46.0426 434.55 45.6596 432.764 45.3405 430.978C45.0851 429.575 44.8298 428.172 44.6383 426.769C44.3192 424.665 44.1277 422.56 43.8086 420.456C43.4894 418.224 43.1064 415.992 42.7234 413.76C42.4681 412.293 42.2128 410.826 42.0213 409.359C41.766 407.191 41.5107 405.087 41.2554 402.918C40.9362 400.304 40.4894 397.689 40.1703 395.074C39.9788 393.225 39.8511 391.375 39.7234 389.526C39.5958 388.25 39.532 386.975 39.4043 385.699C39.0852 381.937 38.7022 378.238 38.7022 374.475C38.7022 372.945 38.1915 371.351 37.9362 369.82C37.6171 368.034 37.1703 366.312 36.8511 364.591C36.532 362.996 36.2128 361.402 35.8937 359.808C35.6383 358.596 35.3192 357.32 35.1277 356.109C34.8086 354.068 34.6171 352.027 34.3617 349.987C33.9788 346.989 33.532 343.992 33.2766 340.995C33.0852 338.954 33.2128 336.849 32.9575 334.809C32.1915 328.367 32.5745 321.863 32.2554 315.422C32 310.065 32.2554 304.708 32.383 299.351C32.4469 295.397 32.4469 291.507 32.5745 287.553C32.7022 283.663 32.9575 279.709 33.2766 275.818C33.4681 273.459 33.7234 271.099 33.9149 268.74C34.2979 264.403 34.6809 260.067 35.1915 255.794C35.5745 252.478 35.9575 249.161 36.4681 245.909C37.0426 242.019 37.6809 238.192 38.383 234.366C38.8298 231.751 39.4681 229.2 40.0426 226.649C40.4894 224.481 40.9362 222.313 41.5107 220.145C41.9575 218.423 42.4043 216.701 42.9788 214.979C43.7447 212.556 44.5107 210.196 45.3405 207.773C47.4469 201.714 49.4256 195.656 52.1703 189.852C54.8511 184.177 57.5958 178.628 60.2766 172.952C61.8724 169.636 63.3405 166.256 64.9362 162.94C67.6171 157.328 70.4894 151.907 73.7447 146.614C76.1703 142.596 78.3405 138.451 80.3192 134.178C80.8937 132.903 81.5958 131.628 82.3617 130.48C83.2554 129.14 84.0213 127.737 84.4681 126.079C84.6596 125.378 84.5958 124.931 84.0851 124.549C81.8511 122.827 81.0213 120.34 80.2554 117.789C78.149 110.774 75.5958 103.95 71.766 97.7002C69.5958 94.129 67.1703 90.8128 64.6809 87.4966C61.8724 83.7977 59.0639 80.0351 56.8298 75.8899C55.6171 73.6578 54.9149 71.2344 54.6596 68.6835C54.4681 66.579 54.5958 64.4745 54.7873 62.37C54.9788 60.3292 55.4256 58.2885 55.9362 56.3115C56.5107 54.0157 57.0852 51.7199 57.9788 49.4878C59.8298 44.7048 61.6809 39.8581 64.9362 35.7128C68.4469 31.3125 72.4681 27.4861 77.2554 24.4887C77.766 24.1699 78.2766 23.9148 78.8511 23.851C80.5745 23.5322 82.2979 23.3408 84.0213 23.0857C88.1064 22.448 92.2554 22.1929 96.0213 20.471C98.383 19.3869 100.681 18.0477 102.979 16.7722C106.617 14.6677 110.255 12.5632 113.83 10.3949C115.553 9.37453 117.277 8.29038 118.809 7.01492C120.915 5.22928 123.596 4.59155 125.957 3.44363C127.426 2.74213 128.894 2.1044 130.426 1.59421C131.575 1.21157 132.723 0.892707 133.936 0.765161C136.489 0.510069 138.979 0.254976 141.532 0.318749C143.383 0.382522 145.17 0.828934 146.957 1.21157C148.809 1.59421 150.66 2.16817 152.447 2.67835C155.128 3.44363 157.681 4.59155 159.723 6.56851C163.234 9.94849 166.809 13.3285 169.681 17.3462C171.915 20.471 173.575 23.851 174.404 27.6136C174.979 30.4196 175.17 33.3532 174.851 36.3505C174.596 38.5826 174.021 40.6871 172.809 42.6003C171.787 44.1946 170.383 45.3425 168.66 46.1078C167.83 46.4905 167.702 46.6818 168.085 47.5746C169.043 49.998 169.745 52.5489 170.383 55.0998C171.404 59.6915 172.043 64.3469 172.426 69.0661C172.553 70.788 172.617 72.5737 172.362 74.2955C171.787 77.9944 172.745 81.2468 174.468 84.4992C175.872 87.1777 177.213 89.8562 178.298 92.5984C179.192 94.8942 179.383 97.4452 179.192 99.9323C179.064 101.08 178.362 101.718 177.404 102.164C175.681 102.93 173.766 102.93 171.915 102.802C170.192 102.675 168.723 103.312 167.255 104.078C166.936 104.269 166.681 104.652 166.489 104.97C165.979 105.927 165.596 107.075 164.894 107.84C163.617 109.243 162.66 110.838 162.085 112.559C161.447 114.473 160.234 115.939 158.766 117.279C157.617 118.363 156.468 119.383 155.319 120.531C153.787 122.062 151.936 123.018 149.894 123.656C146.894 124.612 143.894 125.442 140.702 124.995C138.213 124.676 135.851 125.186 133.426 125.633C132.085 125.888 131 126.589 129.979 127.482C126.66 130.543 124.553 134.242 123.468 138.643C122.957 140.811 122.319 142.915 121.809 145.084C121.681 145.53 121.745 146.04 121.681 146.55C128 149.038 133.17 153.183 138.085 157.647C141.277 160.517 144.404 163.514 147.34 166.639C150.021 169.509 152.511 172.57 155 175.631C157.553 178.756 160.17 181.881 162.596 185.069C167.383 191.383 171.723 197.888 175.362 204.903C178.362 210.706 181.234 216.573 184.106 222.44C185.957 226.267 187.809 230.093 189.532 233.983C191.255 238.001 192.851 242.146 194.447 246.292C195.596 249.161 196.745 252.031 197.766 254.965C198.468 256.942 198.851 259.046 199.489 261.023C200.064 262.873 200.064 264.786 199.936 266.699C199.872 268.102 200.128 268.229 201.468 268.421C201.787 268.485 202.106 268.485 202.426 268.485C205.617 268.931 208.809 269.377 212 269.76C214.106 270.015 216.213 270.27 218.319 270.525C219.277 270.653 220.17 270.844 221.064 271.163C222.851 271.673 224.575 272.311 226.298 272.885C227 273.14 227.511 273.523 227.702 274.288C227.83 274.926 228.34 275.181 228.915 274.926C232.872 273.331 237.085 272.885 241.234 272.247C245.383 271.546 249.468 271.673 253.617 271.865C255.979 271.928 258.213 271.865 260.511 271.354C263.255 270.78 266.128 270.78 268.936 271.291C269.702 271.418 270.532 271.865 271.234 272.311C272.192 272.949 273.149 273.204 274.234 273.076C276.532 272.885 278.894 272.757 281.192 272.63C282.213 272.566 283.234 272.566 284.192 272.566C287.575 272.502 291.021 272.502 294.404 272.439C295.043 272.439 295.617 272.183 296.255 272.12C296.638 272.056 297.085 272.12 297.468 272.183C298.106 272.247 298.809 272.566 299.447 272.375C301.298 271.865 303.149 271.227 305 270.589C306.532 270.015 308.064 269.696 309.596 270.525C309.787 270.589 309.979 270.525 310.362 270.525C310.872 268.803 311.383 267.082 311.894 265.36C312.66 262.681 313.489 260.003 314.192 257.324C314.638 255.666 315.213 254.008 315.149 252.222C314.957 248.46 314.766 244.697 314.766 240.935C314.766 238.256 314.894 235.641 315.213 233.027C315.532 230.284 316.809 227.797 318.532 225.629C321.213 222.313 324.213 219.379 327.66 216.892C328.106 216.573 328.617 216.191 328.936 215.744C330.404 214.022 331.936 212.364 333.915 211.153C335.064 210.451 335.128 209.112 335.447 207.964C336.021 206.051 336.468 204.074 336.979 202.161C337.553 200.12 338.128 198.079 338.638 196.102C339.149 194.061 339.66 192.021 340.17 189.98C340.553 188.577 340.872 187.11 341.255 185.707C341.83 183.411 342.404 181.115 342.979 178.82C343.489 176.588 343.936 174.292 344.511 172.06C344.894 170.529 345.277 168.999 345.723 167.468C345.915 166.958 346.362 166.511 346.872 166.256C349.872 164.598 353.064 163.387 356.255 162.302C360.532 160.836 364.872 159.496 368.766 157.137C369.979 156.371 371.447 155.925 372.851 155.415C373.553 155.16 373.936 154.777 373.809 154.012C373.553 152.609 373.298 151.206 372.979 149.803C372.66 148.464 372.34 147.124 371.894 145.849C370.809 142.533 369.787 139.28 368.638 136.028C368.511 135.645 367.809 135.135 367.362 135.135C363.021 135.008 359 133.541 355.298 131.628C351.66 129.778 348.66 126.908 346.362 123.401C343.872 119.574 342.277 115.365 340.809 111.029C340.426 110.008 340.234 108.861 340.17 107.776C339.979 105.544 339.213 103.312 339.532 101.016C339.915 98.2104 338.574 96.6161 336.149 95.4044C333.915 94.2565 331.617 93.1086 329.894 91.1954C328.106 89.1547 327.468 86.9226 328.234 84.1804C328.745 82.5223 329.574 81.2468 330.787 80.1627C333.085 78.1219 335.447 76.0812 337.745 74.0404C339.149 72.8287 340.553 71.6808 341.894 70.4054C343.553 68.811 344.383 66.6428 345.021 64.4745C346.234 60.2654 347.638 56.1202 350.192 52.5489C350.894 51.5923 351.787 50.6995 352.617 49.9342C353.128 49.4878 353.383 48.9776 353.383 48.2761C353.192 45.0237 353 41.835 352.872 38.5826C352.809 37.4347 352.809 36.223 352.745 35.0751C352.553 32.5242 352.362 30.037 352.043 27.4861C351.851 25.7004 351.468 23.9786 351.213 22.1929C350.957 20.5348 351.34 20.1522 353 19.5782C354.979 18.8129 356.957 18.8767 359 19.0043C361.426 19.1318 363.723 18.5578 365.958 17.7288C368.638 16.7722 371.319 15.8156 373.936 14.7315C377.447 13.2009 380.894 11.479 384.34 9.88471C387.532 8.41793 390.787 7.0787 393.979 5.61192C395.319 4.97418 396.532 4.20891 397.872 3.57118C399.213 2.99722 400.617 2.42326 402.021 2.04062C403.362 1.65798 404.702 2.1044 405.787 2.86967C408.34 4.65532 410.766 6.56851 413.255 8.41793C415.681 10.2674 418.17 12.053 420.532 13.9662C422.319 15.433 424.043 16.9635 425.574 18.6854C429.277 22.8306 432.787 27.1034 436.489 31.3125C438.851 33.9909 441.213 36.7332 443.702 39.2841C446.638 42.2814 449.192 45.4701 451.17 49.1689C451.681 50.1255 452.319 51.0184 453.404 51.5285C453.979 51.8474 454.362 52.6127 454.809 53.1866C455.128 53.5693 455.319 54.1432 455.702 54.3983C456.851 55.3549 457.17 56.2477 456.596 57.6508C455.192 61.0945 453.277 64.3469 451.106 67.3443C446.894 73.0838 442.553 78.7596 437.766 84.1166C434.128 88.1981 430.553 92.3433 427.298 96.7437C425.064 99.741 422.957 102.802 420.915 105.927C418.362 109.753 415.809 113.644 413.319 117.534C412.872 118.299 412.426 119.128 412.234 119.957C411.723 123.209 410.83 126.334 410.702 129.651C410.638 132.393 410.383 135.135 410.128 137.877C410.064 138.77 410.255 139.408 411.149 139.79C412.234 140.301 412.17 141.576 412.553 142.533C413.83 145.403 414.979 148.336 416.128 151.27C417.149 153.948 418.106 156.627 419.064 159.305C420.021 162.111 420.915 164.853 421.872 167.659C422.83 170.465 423.851 173.208 424.809 175.95C425.958 179.138 427.17 182.391 428.319 185.58C429.277 188.258 430.234 190.936 431.192 193.615C432.149 196.166 433.17 198.717 434.064 201.332C435.085 204.456 436.043 207.645 437 210.834C437.638 212.874 438.149 214.979 438.66 217.083C438.979 218.231 439.17 219.443 439.362 220.655C439.872 223.333 440.255 225.948 440.83 228.626C441.532 231.751 442.362 234.876 443.064 238.001C443.383 239.213 443.575 240.488 443.894 241.7C444.468 244.187 445.106 246.61 445.681 249.098C446.192 251.138 446.638 253.179 447.085 255.284C447.66 257.898 448.234 260.513 448.809 263.191C449.064 264.339 449.319 265.423 449.511 266.571C450.021 269.25 450.468 271.865 450.979 274.543C451.489 277.285 452.128 280.027 452.638 282.77C452.894 283.981 453.085 285.257 453.277 286.532C453.532 288.382 453.787 290.231 454.043 292.017C454.362 294.121 454.809 296.29 455.128 298.394C455.383 299.861 455.638 301.328 455.83 302.794C456.149 305.537 456.468 308.279 456.66 311.021C456.915 314.975 457.106 318.929 457.362 322.883C457.745 327.857 458.128 332.832 458.638 337.742C458.894 339.974 459.34 342.206 459.723 344.438C459.979 345.969 460.17 347.436 460.362 348.966C460.681 352.793 461 356.555 461.255 360.382C461.319 361.529 460.936 362.55 459.851 363.188C458.766 363.825 458.766 364.208 459.404 365.356C461.128 368.481 462.915 371.606 464.447 374.794C466.043 378.047 467.319 381.427 468.723 384.807C468.979 385.444 469.234 386.082 470.064 386.21C472.809 386.656 475.043 388.187 477.021 390.036C479.958 392.906 482.255 396.222 483.532 400.176C483.596 400.367 483.723 400.559 483.787 400.75C483.915 401.005 484.043 401.196 484.298 401.515C490.745 399.73 497 397.306 503.383 395.776C504.787 398.901 506.128 401.77 507.34 404.768C508.426 407.574 509.319 410.443 510.277 413.249C511.043 415.609 511.809 417.969 512.511 420.328C513.277 422.688 513.979 425.048 514.681 427.407C515.447 430.022 516.277 432.636 517.043 435.315C517.745 437.738 518.447 440.162 519.149 442.585C519.66 444.371 520.234 446.093 520.745 447.878C521.319 449.728 521.894 451.577 522.404 453.49C522.915 455.34 523.489 457.125 523.936 458.975C524.575 461.526 525.085 464.14 525.66 466.691C526.426 470.454 526.681 474.217 527.064 478.043C527.255 480.02 527.192 481.742 526.362 483.527C526.043 484.229 526.298 485.186 526.298 486.142C524.192 487.418 521.958 488.565 519.596 489.458C513.468 491.818 507.277 494.178 501.149 496.537C494.766 499.024 488.319 501.575 481.936 504.126C478.17 505.657 474.468 507.251 470.702 508.782C468.468 509.674 466.17 510.376 463.872 511.269C461.383 512.225 458.957 513.373 456.468 514.394C453.979 515.414 451.489 516.371 449.064 517.455C446.894 518.411 444.787 519.559 442.617 520.516C441.915 520.835 441.915 521.345 441.851 521.919C441.596 524.47 441.277 527.021 441.021 529.635C440.638 532.824 440.319 536.076 439.936 539.265C439.617 541.816 439.234 544.367 438.915 546.982C438.66 548.703 438.468 550.425 438.277 552.211C438.021 554.316 437.766 556.42 437.447 558.525C437.128 560.374 436.745 562.287 436.426 564.137C436.17 565.667 435.915 567.134 435.723 568.664C435.468 570.897 435.213 573.065 434.957 575.297C434.638 577.784 434.255 580.207 433.872 582.695C433.872 582.886 433.809 583.141 433.809 583.332C433.553 586.393 433.426 589.454 432.979 592.516C432.213 597.362 432.723 602.273 432.34 607.12C432.085 610.308 431.702 613.433 431.319 616.622C431.128 618.599 430.745 620.512 430.681 622.489C430.617 624.657 429.66 626.57 429.021 628.547C428.511 630.206 427.809 631.8 427.362 633.458C427.106 634.478 426.532 634.861 425.574 634.925C423.085 635.18 420.532 635.435 417.915 635.69C417.915 635.818 417.723 636.073 417.723 636.264C417.723 639.389 416.574 642.131 415.043 644.746C411.979 649.911 408.213 654.567 404.128 658.967C401.383 661.964 397.872 664.069 394.298 665.982C391.936 667.258 389.575 668.533 387.085 669.553C383.447 671.02 379.681 671.148 376.106 669.171C373.809 667.895 372.532 665.855 372.468 663.112C372.404 659.669 372.723 656.225 373.681 652.909C374.064 651.442 374.383 649.975 374.83 648.19C374.383 648.636 374 648.827 373.745 649.146C371.383 651.697 369.021 654.184 366.149 656.225C363.213 658.266 360.149 660.051 356.702 660.817C354.66 661.263 352.362 661.391 350.319 660.37C348.723 659.605 347.83 658.393 347.638 656.607C347.383 654.248 348.149 652.08 348.979 649.975C350.511 646.149 352.234 642.45 354.532 639.006C355.745 637.157 357.277 635.562 359.064 634.223C359.383 633.968 359.638 633.649 360.021 633.33C356.766 629.44 355.362 624.721 353.511 620.321C351.723 616.175 350.128 611.966 348.532 607.694C347.064 603.74 345.787 599.722 344.447 595.768C343.234 592.069 341.957 588.37 340.809 584.672C339.851 581.547 339.021 578.422 338.064 575.297C337.106 572.3 336.085 569.302 335.192 566.305C334.426 563.882 333.787 561.458 333.085 559.035C332.319 556.484 331.553 553.869 330.787 551.318C330.277 549.469 329.83 547.683 329.319 545.834C328.489 542.773 327.66 539.711 326.894 536.65C326.383 534.61 325.936 532.505 325.426 530.464C324.915 528.424 324.34 526.383 323.766 524.342C323.447 523.194 323.192 521.983 322.936 520.835C322.362 518.475 321.787 516.115 321.213 513.756C320.957 512.544 320.638 511.396 320.447 510.185C320.128 508.526 319.936 506.868 319.617 505.21C319.298 503.552 318.915 501.894 318.596 500.236C318.34 498.705 318.085 497.239 317.894 495.708C317.638 493.667 317.383 491.627 317.128 489.586C316.809 487.418 316.426 485.313 316.106 483.145C315.851 481.55 315.596 480.02 315.404 478.426C315.085 476.066 314.894 473.706 314.638 471.347C314.255 468.031 313.872 464.714 313.489 461.462C313.426 460.697 313.426 459.868 313.362 459.102C313.106 455.148 313.043 451.131 312.532 447.177C311.894 442.394 312.468 437.483 311.83 432.764C311.192 427.917 311.766 423.134 311.128 418.351C311.128 418.224 311.128 418.032 311.128 417.905C311 412.357 310.936 406.872 310.809 401.324C310.809 399.219 310.872 397.115 310.809 395.01C310.809 393.48 310.681 393.607 309.277 393.161C308.064 392.778 306.851 392.332 305.83 391.63C304.872 390.993 303.979 390.738 302.894 390.865C302.192 390.929 301.489 390.801 300.851 390.865C299.064 390.993 297.723 390.1 296.319 389.271C296 389.079 295.617 388.569 295.617 388.123C295.17 384.87 294.596 381.618 294.34 378.366C294.021 374.667 293.894 370.968 293.766 367.269C293.702 366.44 293.957 365.611 293.957 364.718C294.085 360.127 294.085 355.471 294.34 350.879C294.532 347.691 295.043 344.566 295.362 341.441C295.426 341.122 295.426 340.803 295.426 340.484C295.809 337.296 296.192 334.043 296.702 330.855C297.149 327.985 297.66 325.115 298.17 322.245C298.553 320.077 298.936 317.909 299.383 315.74C299.702 314.274 299.064 313.317 297.851 312.616C293.064 309.746 288.277 306.94 283.489 304.07C282.34 303.368 281.255 302.667 280.106 302.029C279.021 301.391 278.766 301.391 277.872 302.221C276.021 303.942 274.234 305.728 272.383 307.45C270.021 309.746 267.213 311.404 264.085 312.36C262.553 312.807 261.021 313.189 259.489 313.636C258.915 313.827 258.468 314.146 257.894 314.337C256.617 314.784 255.34 315.358 254 315.485C251.447 315.677 248.83 315.677 246.213 315.103C243.979 314.592 241.745 314.21 239.575 313.7C237.979 313.317 236.511 312.679 234.979 312.169C233.575 311.659 232.17 311.213 230.894 310.575C229.106 309.682 227.638 308.47 226.745 306.621C226.426 305.919 226.298 305.09 225.979 304.389C225.34 303.113 225.085 303.177 223.745 303.751C222.34 304.389 220.809 304.963 219.34 305.409C215.064 306.621 210.787 307.705 206.83 309.682C205.106 310.511 203.255 311.213 201.404 311.786C200.447 312.105 200.319 312.552 200.383 313.381C200.574 315.358 200.894 317.398 200.894 319.375C200.957 324.732 200.894 330.089 200.766 335.446C200.638 341.377 200.575 347.308 200.319 353.239C200.192 356.173 199.681 359.042 199.362 361.912C199.298 362.677 199.234 363.379 199.17 364.144C198.787 366.759 198.404 369.374 198.021 371.988C197.766 373.519 197.511 374.986 197.255 376.516C196.681 379.577 195.66 382.32 192.723 383.914C192.532 383.978 192.34 384.169 192.277 384.296C191.83 385.189 191.575 386.146 190.553 386.656C189.66 387.103 188.766 387.549 187.809 388.059C187.809 388.25 187.745 388.569 187.872 388.697C188.957 390.1 189.213 391.758 189.596 393.352C190.745 397.816 190.872 402.344 190.809 406.936C190.809 409.742 190.617 412.612 191 415.354C191.447 418.67 191.255 422.05 191.638 425.303C192.213 430.66 192.851 436.016 193.489 441.373C193.872 444.435 194.319 447.559 194.766 450.62C195.213 453.618 195.596 456.551 196.043 459.549C196.426 462.355 196.809 465.225 197.319 468.031C197.83 471.283 198.468 474.472 198.979 477.724C199.234 479.191 199.426 480.658 199.617 482.124C200.128 485.441 200.575 488.821 201.085 492.137C201.596 495.262 202.234 498.387 202.809 501.448C203.064 502.914 203.255 504.381 203.511 505.848C204.085 508.845 204.723 511.843 205.362 514.84C205.809 517.136 206.255 519.495 206.766 521.791C207.277 524.087 207.851 526.383 208.426 528.742C208.745 529.954 209 531.23 209.255 532.441C209.83 535.056 210.468 537.671 211.106 540.285C211.617 542.39 212.064 544.494 212.575 546.599C212.957 548.257 213.532 549.851 213.979 551.446C214.553 553.487 215.128 555.463 215.766 557.504C216.277 559.354 216.851 561.139 217.426 562.989C217.936 564.774 218.447 566.496 218.957 568.282C219.468 570.195 220.043 572.108 220.553 574.085C221.064 575.935 221.638 577.848 222.149 579.697C222.723 581.866 223.298 584.098 223.872 586.266C224.383 588.307 224.83 590.347 225.34 592.388C225.66 593.791 226.106 595.258 226.362 596.725C226.936 599.977 227.511 603.229 227.128 606.482C227 607.885 226.489 609.224 226.106 610.563C225.979 611.074 225.915 611.52 226.426 611.966C229.553 615.028 232.234 618.471 234.851 621.979C237.404 625.423 239.383 629.185 241.106 633.075C242 635.116 242.319 637.284 241.489 639.516C240.979 640.856 239.957 641.748 238.745 642.45C235.043 644.554 231.149 644.81 226.936 643.917C218.702 642.259 212 637.922 205.936 632.31C202.936 629.504 199.936 626.698 197.511 623.382C196.106 621.469 194.957 619.3 193.617 617.068C191.319 617.132 190.106 615.283 189.213 613.433C186.915 608.714 184.745 603.931 182.575 599.148C180.979 595.641 179.383 592.197 177.915 588.625C175.809 583.651 173.83 578.613 171.787 573.575C170.383 570.131 168.915 566.688 167.575 563.18C166.362 560.119 165.277 556.93 164.192 553.869C163.17 551.063 162.149 548.257 161.192 545.387C160.234 542.518 159.34 539.584 158.383 536.714C157.681 534.546 156.915 532.441 156.213 530.273C155.255 527.34 154.298 524.342 153.404 521.409C152.255 517.71 151.043 514.011 149.894 510.248C149.128 507.825 148.426 505.402 147.66 503.042C146.638 499.853 145.617 496.728 144.66 493.54C143.83 490.734 143.192 487.8 142.426 484.994C142.298 484.42 141.979 483.846 141.787 483.272C141.213 482.571 141.085 482.635 140.957 482.635ZM148.426 102.483C148.298 102.356 148.234 102.164 148.106 102.037C148.043 102.101 147.979 102.164 147.979 102.228C148.106 102.292 148.298 102.419 148.426 102.483C148.617 102.802 148.745 103.249 149 103.504C151.298 105.863 153.66 108.159 156.021 110.519C156.34 110.838 156.723 111.093 157.106 111.348C158.192 110.2 158.766 108.988 158.766 108.031C156.532 106.82 154.298 105.672 152.128 104.524C150.851 103.886 149.638 103.185 148.426 102.483ZM434.83 419.308C437 419.18 438.915 418.032 440.894 417.267C441.149 417.203 441.213 416.566 441.213 416.119C441.277 414.525 441.213 412.931 441.213 411.336C441.213 409.997 441.213 408.594 441.213 407.255C439.936 406.936 438.723 407 438.021 405.916C437.894 405.66 437.447 405.405 437.319 405.469C437.064 405.66 436.809 405.979 436.745 406.234C435.915 409.359 435.277 412.484 435.468 415.737C435.532 416.948 435.66 418.224 434.83 419.308C434.511 419.372 434.128 419.435 433.809 419.499C434.319 419.882 434.702 420.009 434.83 419.308ZM339.149 207.007C339.34 206.816 339.596 206.688 339.723 206.497C340.553 204.967 341.255 203.436 342.149 201.905C343.681 199.227 345.277 196.612 346.872 193.934C348.851 190.618 350.702 187.301 352.809 184.113C354.979 180.797 357.34 177.544 359.702 174.292C362.638 170.146 365.511 166.065 368.447 161.984C369.213 160.899 370.106 159.879 371.064 158.604C370.553 158.667 370.298 158.604 370.17 158.667C366.34 160.899 362.064 162.047 357.979 163.705C355.809 164.598 353.702 165.682 351.596 166.766C351.277 166.894 350.957 167.213 350.83 167.532C350.511 168.552 350.319 169.636 350.064 170.72C349.617 172.634 349.17 174.611 348.66 176.524C347.894 179.138 346.936 181.689 346.17 184.304C345.34 187.301 344.511 190.299 343.809 193.296C343.043 196.549 342.404 199.865 340.745 202.862C339.915 204.201 338.957 205.477 339.149 207.007C339.021 207.135 338.894 207.199 338.766 207.326C338.83 207.39 338.894 207.454 338.957 207.517C338.957 207.326 339.085 207.199 339.149 207.007ZM130.553 156.69C130.489 156.563 130.362 156.371 130.298 156.244C130.234 156.244 130.234 156.308 130.17 156.308C130.298 156.435 130.426 156.563 130.553 156.69C130.617 157.264 130.617 157.966 130.745 158.54C131.383 160.772 131.83 163.004 131.83 165.363C131.83 171.358 131.83 177.353 131.83 183.347C131.83 184.24 131.957 185.006 132.532 185.707C135.404 189.087 137.447 193.041 139.17 197.122C140.064 199.291 140.957 201.523 140.894 203.946C140.83 205.923 140.447 207.581 138.404 208.474C137.575 208.857 137.255 209.494 137.447 210.451C137.957 213.321 138.404 216.191 138.979 218.997C139.489 221.548 140.192 224.035 140.638 226.586C141.213 229.838 141.596 233.09 142.106 236.279C142.362 237.873 142.681 239.468 143.894 240.743C145.234 242.083 146.511 243.486 147.66 244.952C149.894 247.758 152.447 250.182 155.383 252.159C161.319 256.176 167.702 259.493 174.34 262.235C174.787 262.426 175.298 262.426 176.064 262.554C175.745 261.214 175.489 260.194 175.362 259.237C175.043 257.579 174.851 255.921 174.532 254.263C174.277 252.924 174.021 251.585 173.766 250.245C173.447 248.779 173.128 247.248 172.809 245.781C172.489 244.251 172.17 242.72 171.787 241.126C171.277 239.085 170.766 237.044 170.319 235.004C169.809 232.644 169.362 230.284 168.787 227.861C168.213 225.31 167.575 222.823 167 220.336C166.553 218.423 166.043 216.446 165.532 214.533C164.957 212.3 164.383 210.068 163.809 207.836C163.298 205.732 162.787 203.627 162.277 201.523C161.702 199.036 161.192 196.612 160.617 194.125C160.426 193.36 160.234 192.531 159.851 191.893C155.83 185.898 151.489 180.223 146.957 174.611C144.596 171.677 142.234 168.68 139.745 165.81C137.064 162.749 134.255 159.879 131.447 156.945C131.192 156.818 130.809 156.818 130.553 156.69ZM222.468 275.5C221.064 275.245 219.851 274.926 218.574 274.734C215.894 274.415 213.213 274.288 210.532 273.969C208.106 273.714 205.681 273.395 203.255 273.076C201.851 272.885 200.383 272.694 198.979 272.439C196.362 271.928 193.745 271.163 191.064 270.844C186.979 270.334 183.085 269.25 179.255 267.974C174.468 266.316 169.809 264.403 165.277 262.235C160.872 260.13 156.723 257.579 152.383 255.22C151.043 254.454 150.021 253.37 149 252.222C146.638 249.544 144.277 246.865 141.787 244.315C139.106 241.509 136.489 238.639 134.192 235.45C133.362 234.302 132.532 233.154 131.83 231.943C130.234 229.137 128.638 226.267 127.043 223.397C124.809 219.379 122.575 215.298 120.213 211.344C117.404 206.561 115.362 201.459 112.234 196.867C109.362 192.722 106.617 188.513 103.234 184.687C100.426 181.498 97.2979 178.628 94.2341 175.695C92.5107 174.037 90.7234 172.506 88.8086 171.103C85.8724 168.999 82.8724 166.958 79.8086 164.981C77.5107 163.514 75.0852 162.175 72.7234 160.899C71.7022 160.325 71.6383 160.389 71.1277 161.473C70.4894 162.749 69.9149 164.024 69.2766 165.3C66.532 171.167 63.7234 177.034 60.9788 182.965C59.383 186.409 57.9149 189.852 56.4469 193.36C55.1703 196.421 53.9575 199.482 52.8086 202.607C51.5958 205.923 50.5107 209.303 49.4256 212.619C48.6596 214.979 48.0213 217.339 47.383 219.762C46.5532 222.759 45.7234 225.757 45.0851 228.818C44.4469 231.624 44.0639 234.557 43.6171 237.427C43.3617 238.766 43.1064 240.106 42.9149 241.445C42.532 243.486 42.149 245.462 41.8937 247.503C41.5745 249.927 41.3192 252.35 41.0639 254.773C40.6809 258.408 40.2979 262.043 39.9149 265.679C39.8511 266.061 39.9149 266.444 39.8511 266.763C39.4681 269.888 39.0213 273.076 38.8298 276.201C38.5107 280.538 38.3192 284.874 38.0639 289.211C37.8724 293.42 37.5532 297.693 37.4894 301.902C37.3617 310.766 37.3617 319.631 37.3617 328.495C37.3617 331.365 37.4894 334.235 37.6809 337.104C38 341.25 38.383 345.331 38.766 349.476C38.9575 351.326 39.2128 353.175 39.532 354.961C39.8511 356.81 40.2341 358.66 40.5532 360.573C40.8724 362.231 41.0639 363.889 41.383 365.611C41.5745 366.759 41.8298 367.907 42.0213 369.055C42.4043 370.968 42.8511 372.881 43.1064 374.794C43.2341 375.56 43.4894 376.134 44.1277 376.452C45.8511 377.154 47.6383 377.855 49.4256 378.493C51.8511 379.322 54.3405 380.087 56.766 380.853C59.1915 381.618 61.6171 382.32 64.0426 383.021C65.8937 383.531 67.8086 383.978 69.7234 384.424C72.2128 384.998 74.766 385.636 77.2554 386.146C79.8724 386.656 82.5532 387.103 85.1703 387.613C88.0426 388.187 90.8511 388.824 93.7234 389.271C96.3405 389.653 98.9575 389.845 101.638 390.1C101.894 390.1 102.149 390.164 102.404 390.227C106.936 390.801 111.468 391.312 116 391.312C121.872 391.312 127.745 391.439 133.681 390.801C138.213 390.291 142.809 390.1 147.34 390.036C150.404 389.972 150.213 389.335 150.149 386.975C150.021 382.575 149.83 378.174 149.702 373.838C149.702 373.71 149.702 373.646 149.702 373.519C149.638 368.608 149.575 363.762 149.511 358.851C149.511 358.532 149.511 358.213 149.511 357.894C149.319 355.854 149.192 353.813 149 351.708C148.809 349.859 149.128 347.755 147.085 346.543C146.894 346.415 146.766 346.224 146.702 346.033C145.809 344.183 144.787 342.398 144.021 340.484C142.362 336.467 140.766 332.385 139.106 328.368C137.766 325.051 136.362 321.799 134.957 318.483C134.064 316.442 133.17 314.337 132.34 312.488C129.085 311.978 126.021 311.595 123.021 311.021C120.149 310.511 117.34 309.746 114.532 309.172C111.085 308.406 107.83 306.94 104.702 305.473C99.7873 303.177 95.0639 300.499 90.5958 297.438C86.4469 294.632 82.4256 291.698 78.7873 288.19C76.1064 285.576 73.2979 283.025 70.7447 280.283C68.1915 277.477 65.8298 274.415 63.4681 271.354C60.4043 267.337 58.1064 262.809 56.1277 258.153C54.4681 254.199 53.1277 250.182 52.1703 246.036C52.0426 245.462 52.1703 244.825 52.1703 244.187C53.766 243.996 54.0213 244.123 54.532 245.335C55.6171 247.695 56.6383 250.118 57.7873 252.478C59.5107 255.985 61.2341 259.556 63.2128 263C66.2766 268.357 70.2979 273.012 74.6383 277.413C79.1064 281.941 83.766 286.277 88.8086 290.231C92.5107 293.165 96.4681 295.843 100.553 298.139C105.723 301.073 110.957 303.815 116.766 305.409C119.575 306.174 122.447 307.067 125.319 307.641C128 308.215 130.745 308.534 133.489 308.917C136.872 309.363 140.319 309.81 143.702 310.192C146.511 310.511 149.383 310.447 152.255 310.766C155.894 311.149 159.596 311.021 163.234 310.83C166.043 310.702 168.787 310.065 171.532 309.81C174.532 309.491 177.532 309.236 180.532 308.98C181.043 308.917 181.617 308.917 182.128 308.853C185.064 308.47 188 308.215 190.936 307.705C192.851 307.386 194.83 307.833 196.745 307.131C197.383 306.876 198.021 306.685 198.723 306.557C201.851 306.047 204.787 304.899 207.723 303.56C209.319 302.794 210.979 302.093 212.83 301.902C214.489 301.774 216.149 301.455 218 301.2C217.936 296.864 217.745 292.463 218.511 288.127C219.277 283.79 221.128 279.772 222.468 275.5ZM413.83 159.815C413.638 159.815 413.511 159.815 413.319 159.751C411.851 161.282 410.447 162.813 408.979 164.343C403.681 169.636 398.319 174.929 393.021 180.159C390.213 182.901 387.532 185.835 385.106 188.96C383.958 190.426 382.617 191.766 381.149 192.786C378.532 194.699 376.362 197.059 374.064 199.227C372.085 201.076 370.298 203.245 368.192 204.967C364.681 207.773 362.064 211.344 358.809 214.405C358.298 214.851 357.915 215.425 357.532 215.999C356.574 217.339 356.128 218.742 356.702 220.463C357.213 221.93 357.277 223.461 357.596 224.991C357.979 226.713 358.298 228.435 358.745 230.093C359.319 232.198 359.766 234.302 359.575 236.47C359.511 237.363 359.319 238.256 359.064 239.085C358.17 241.636 356.766 243.932 355.362 246.164C352.17 251.138 348.851 256.113 345.787 261.151C343.426 265.105 341.383 269.314 339.085 273.268C337.489 275.946 335.957 278.561 335.574 281.749C335.255 284.492 334.489 287.234 334.106 289.976C333.532 293.739 333.149 297.501 332.638 301.264C332.638 301.455 332.574 301.71 332.574 301.902C332.192 304.261 331.809 306.621 331.489 308.917C331.17 310.894 330.979 312.871 330.66 314.848C330.149 317.781 329.574 320.651 329.064 323.585C328.553 326.773 328.17 329.962 327.723 333.151C327.277 336.53 326.83 339.847 326.447 343.227C326.128 346.288 325.872 349.349 325.681 352.41C325.426 356.236 325.17 360.126 325.106 363.953C324.979 370.904 324.979 377.855 324.979 384.807C324.979 385.827 325.043 386.847 325.043 387.804C325.106 389.398 325.872 390.61 327.34 391.312C328.426 391.822 329.511 392.332 330.66 392.778C333.723 393.862 336.596 395.457 339.851 396.158C340.17 396.222 340.489 396.286 340.745 396.477C342.851 398.135 345.404 398.645 347.83 399.475C350.766 400.431 353.702 401.26 356.574 402.153C360.021 403.237 363.532 404.257 366.979 405.342C370.745 406.49 374.575 406.872 378.468 406.49C378.979 406.426 379.553 406.362 380.064 406.234C382.234 405.66 384.34 405.15 386.511 404.513C389.447 403.62 392.383 402.791 395.255 401.77C398.894 400.495 402.404 399.028 405.979 397.561C411.851 395.202 417.66 392.842 423.532 390.482C424.234 390.227 424.489 389.781 424.617 389.079C425 384.998 425.447 380.98 425.766 376.899C426.021 374.157 426.34 371.478 427.106 368.8C427.298 368.162 427.489 367.46 426.723 366.95C423.787 364.782 421.745 361.912 420.149 358.66C418.809 355.917 418.234 352.984 417.787 349.987C417.66 349.158 418.043 348.265 418.106 347.372C418.17 346.734 418.362 345.905 418.106 345.395C416.383 341.313 414.532 337.359 412.745 333.278C411.149 329.579 409.553 325.817 408.085 322.054C406.681 318.546 405.277 315.039 403.936 311.531C402.723 308.47 401.575 305.345 400.426 302.221C399.404 299.478 398.447 296.8 397.489 294.058C396.723 291.953 396.021 289.785 395.319 287.616C394.553 285.193 393.723 282.834 392.957 280.41C392.255 278.178 391.553 276.01 390.915 273.778C390.34 271.737 389.766 269.76 389.192 267.719C388.426 264.977 387.723 262.235 386.957 259.493C386.447 257.579 386 255.73 385.489 253.817C384.915 251.712 384.34 249.672 383.83 247.567C383.064 244.57 382.426 241.636 381.723 238.639C380.894 235.004 380.064 231.369 379.234 227.67C378.915 226.203 378.851 224.609 378.404 223.142C377.894 221.356 378.021 219.634 378.021 217.849C380.319 217.083 381.404 217.466 382.298 219.634C383.511 222.632 384.596 225.629 385.617 228.69C386.638 231.815 387.532 234.94 388.489 238.065C389.447 241.317 390.468 244.506 391.362 247.758C392.128 250.437 392.766 253.179 393.468 255.857C394.234 258.727 395.064 261.661 395.894 264.531C396.596 267.082 397.362 269.569 398.064 272.12C398.83 274.926 399.66 277.668 400.426 280.474C400.809 281.877 401.319 283.28 401.511 284.747C401.702 286.086 402.532 287.043 402.979 288.19C403.809 290.678 404.638 293.165 405.404 295.652C406.043 297.629 406.681 299.67 407.383 301.647C408.34 304.58 409.298 307.577 410.319 310.511C411.021 312.552 411.787 314.529 412.489 316.569C413.511 319.375 414.468 322.245 415.489 325.051C416.575 328.176 417.787 331.301 418.809 334.426C419.83 337.36 420.66 340.357 421.617 343.29C421.936 344.375 422.319 344.566 423.34 344.438C424.872 344.183 426.34 343.928 427.872 343.673C429.851 343.354 431.83 342.844 433.809 342.716C436.298 342.525 438.66 341.76 440.958 340.931C442.553 340.293 444.085 339.4 445.617 338.571C447.404 337.678 449.128 336.467 451.234 336.212C451.936 336.148 452.128 335.574 452.064 334.936C451.681 331.62 451.234 328.304 450.979 324.988C450.66 320.97 450.532 316.952 450.277 312.934C450.085 310.001 449.766 307.004 449.447 304.07C449.319 302.667 449 301.264 448.745 299.861C448.362 297.82 447.979 295.843 447.66 293.802C447.34 291.953 447.149 290.104 446.894 288.318C446.702 287.043 446.447 285.703 446.192 284.428C445.872 282.706 445.426 281.048 445.17 279.326C444.851 277.668 444.66 276.01 444.34 274.352C444.149 273.076 443.894 271.865 443.638 270.653C443.319 269.186 442.936 267.656 442.617 266.189C442.298 264.467 442.106 262.745 441.787 261.023C441.596 259.875 441.34 258.727 441.085 257.579C440.511 255.22 439.936 252.86 439.362 250.501C438.787 248.141 438.213 245.781 437.638 243.422C437.128 241.381 436.617 239.34 436.17 237.3C435.66 234.876 435.213 232.453 434.702 230.029C434.128 227.223 433.553 224.481 433.043 221.675C432.723 220.017 432.532 218.359 432.277 216.701C432.085 215.489 431.83 214.277 431.511 213.13C430.809 210.515 430.043 207.836 429.213 205.285C428.255 202.288 427.234 199.291 426.213 196.293C425.128 193.041 423.915 189.852 422.83 186.6C421.872 183.794 420.979 180.924 420.021 178.054C418.362 173.144 416.702 168.17 414.979 163.259C414.596 162.111 414.213 160.963 413.83 159.815ZM126.66 395.074C125.766 395.074 125.128 395.074 124.489 395.074C119.128 394.947 113.766 395.393 108.468 394.564C106.043 394.181 103.617 394.118 101.192 393.862C98.6383 393.607 96.149 393.352 93.5958 393.097C91.8724 392.906 90.149 392.651 88.4256 392.268C85.9362 391.758 83.5107 391.184 81.0213 390.61C78.4681 390.036 75.9788 389.462 73.4256 388.952C71.9575 388.633 70.4256 388.314 68.8937 388.123C67.8086 387.932 67.6809 388.187 67.4256 389.271C67.1064 390.61 66.7234 392.013 66.2128 393.352C65.5745 395.202 64.8724 396.987 64.1064 398.773C62.8937 401.707 61.8086 404.704 60.0213 407.255C58.0426 410.061 56 412.931 53.8937 415.673C53.1277 416.693 52.0426 417.458 51.0213 418.351C50.4469 418.798 49.5532 419.053 49.2341 419.627C48.9788 420.137 49.2979 420.966 49.4256 421.668C49.4256 421.731 49.4256 421.795 49.4256 421.795C49.6809 423.453 49.8724 425.175 50.1915 426.833C50.7022 429.703 51.3405 432.509 51.9149 435.379C52.4256 438.185 52.8724 440.991 53.383 443.797C53.6383 445.136 53.8937 446.475 54.149 447.815C54.4681 449.536 54.7873 451.258 55.1703 452.916C55.6809 455.212 56.1277 457.572 56.7022 459.868C57.2128 462.036 57.7873 464.268 58.3617 466.436C58.8724 468.477 59.383 470.518 59.9575 472.558C60.4681 474.599 61.0426 476.64 61.5532 478.681C62.0639 480.594 62.5107 482.571 63.0852 484.484C63.5958 486.461 64.2341 488.438 64.7447 490.415C65.5107 493.093 66.2128 495.836 66.9149 498.514C67.6809 501.193 68.4469 503.871 69.2128 506.549C69.9149 509.164 70.5532 511.843 71.3192 514.457C72.4681 518.348 73.6809 522.238 74.8937 526.064C76.0426 529.763 77.1277 533.398 78.2766 537.033C79.4894 540.668 80.7022 544.303 81.9788 547.938C83.0639 551.127 84.2128 554.252 85.4256 557.44C86.766 560.948 88.2341 564.455 89.6383 568.027C91.1703 572.044 92.7022 576.126 94.2341 580.144C95.8937 584.544 97.6171 588.881 99.0851 593.281C100.936 598.765 103.234 604.059 105.34 609.479C105.915 611.01 106.936 611.456 108.213 611.839C110.064 612.413 111.915 613.051 113.83 613.497C116.192 614.071 118.553 614.517 120.979 614.964C122.83 615.283 124.745 615.474 126.66 615.729C128.064 615.92 129.468 616.239 130.872 616.43C132.213 616.686 133.553 617.004 134.957 617.068C136.681 617.196 137.702 616.048 137.638 614.39C137.447 610.691 137.192 606.992 137 603.293C136.936 602.4 137 601.508 136.872 600.615C136.489 596.788 136.043 592.898 135.66 589.072C135.596 588.625 135.66 588.115 135.596 587.669C135.277 584.927 134.83 582.121 134.511 579.378C134.319 577.465 134.192 575.552 134.064 573.703C133.809 569.302 133.553 564.966 133.234 560.565C132.851 554.571 133.426 548.576 132.596 542.645C132.532 524.661 132.532 506.613 132.468 488.629C132.468 487.481 132.404 486.27 132.404 485.122C132.404 480.53 132.34 475.875 132.468 471.283C132.596 466.564 132.851 461.845 133.043 457.125C133.17 454.766 133.17 452.342 133.426 449.983C133.745 447.241 134.064 444.498 132.979 441.884C132.851 441.501 132.66 441.118 132.532 440.736C131.511 437.547 130.426 434.422 129.532 431.233C128.894 429.001 128.447 426.706 128.064 424.41C127.681 422.433 127.489 420.456 127.234 418.479C126.851 414.716 126.277 411.017 126.149 407.255C126.021 403.939 126.468 400.622 126.596 397.242C126.723 396.605 126.66 395.967 126.66 395.074ZM348.915 411.273C350.319 410.954 350.957 411.209 351.213 412.229C351.468 413.122 351.723 414.079 351.787 415.035C352.043 417.777 352.17 420.52 352.298 423.262C352.617 427.854 352.553 432.445 353.128 437.037C353.447 439.652 353.638 442.33 353.894 444.945C354.277 448.325 354.723 451.641 355.106 455.021C355.17 455.34 355.17 455.659 355.234 455.977C355.617 458.401 355.936 460.76 356.319 463.184C356.638 465.288 356.83 467.393 357.085 469.497C357.277 470.964 357.532 472.431 357.787 473.898C358.362 477.15 359 480.403 359.575 483.719C359.83 485.249 360.149 486.844 360.468 488.374C360.787 490.032 361.106 491.69 361.426 493.348C361.745 495.134 361.936 496.92 362.255 498.642C362.766 501.256 363.404 503.871 363.915 506.549C364.553 509.738 365.192 512.991 365.83 516.179C366.468 519.495 367.106 522.812 367.745 526.128C368.383 529.253 368.957 532.441 369.66 535.566C370.489 539.201 371.383 542.836 372.213 546.471C373.17 550.68 374 554.953 374.957 559.162C375.213 560.31 375.468 561.458 375.787 562.542C376.298 564.647 376.872 566.688 377.383 568.792C378.149 571.789 378.787 574.723 379.553 577.72C380.128 580.016 380.702 582.312 381.277 584.608C381.787 586.776 382.234 588.944 382.809 591.049C383.319 593.217 383.958 595.322 384.468 597.426C384.979 599.531 385.362 601.635 385.936 603.74C386.702 606.609 387.532 609.543 387.787 612.54C387.851 613.625 388.106 614.772 388.298 615.857C388.362 616.112 388.553 616.431 388.745 616.622C389.511 617.387 390.34 618.152 391.17 618.854C394.043 621.15 396.979 623.446 399.915 625.55C402.787 627.591 405.851 629.121 409.362 629.695C410.638 629.887 411.915 630.269 413.255 630.461C415.362 630.843 417.404 631.162 419.511 631.481C420.085 631.545 420.66 631.481 421.234 631.417C422.511 631.29 422.766 630.971 422.766 629.695C422.766 628.93 422.766 628.229 422.766 627.463C422.894 625.167 423.149 622.808 423.213 620.512C423.404 609.862 422.894 599.212 423.915 588.562C424.234 585.118 424.426 581.674 424.809 578.23C425.128 575.424 425.575 572.682 425.958 569.876C426.213 567.772 426.468 565.667 426.723 563.563C426.915 562.223 427.17 560.884 427.426 559.481C427.745 557.823 428.128 556.165 428.447 554.507C428.766 552.657 428.958 550.872 429.277 549.022C429.532 547.556 429.787 546.089 430.043 544.622C430.362 542.773 430.745 540.859 431.064 539.01C431.319 537.479 431.575 535.885 431.83 534.355C432.213 532.378 432.66 530.464 432.979 528.487C433.298 526.829 433.234 525.044 433.809 523.513C434.319 522.11 433.872 521.217 433.298 520.133C431.702 517.263 430.043 514.457 428.638 511.524C426.404 506.677 424.426 501.83 422.383 496.92C421.17 494.05 420.085 491.18 419.064 488.247C417.851 484.867 416.766 481.487 415.617 478.107C414.66 475.301 413.575 472.495 412.681 469.625C411.723 466.5 410.766 463.375 409.936 460.25C409.043 456.87 408.213 453.427 407.447 449.983C407.128 448.58 406.936 447.177 406.681 445.774C406.298 443.287 405.851 440.799 405.66 438.249C405.532 436.782 405.979 435.315 406.106 433.848C406.234 432.7 406.809 431.807 407.766 431.106C409.809 429.512 412.234 428.555 414.532 427.471C416.447 426.578 418.426 425.685 420.596 424.665C415.106 417.777 409.936 410.89 407.192 402.408C405.915 402.791 404.83 403.173 403.681 403.556C400.234 404.704 396.787 405.916 393.34 407C390.596 407.829 387.851 408.53 385.043 409.104C382.745 409.614 380.383 410.061 378.021 410.125C375.404 410.188 372.787 409.742 370.106 409.551C369.979 409.551 369.787 409.487 369.66 409.423C368 409.104 366.34 408.785 364.681 408.403C363.277 408.084 361.872 407.829 360.532 407.382C358.234 406.681 356 405.916 353.766 405.214C350.638 404.194 347.574 403.173 344.447 402.153C343.489 401.834 342.532 401.515 341.574 401.196C341.383 401.579 341.255 401.707 341.255 401.834C341.574 405.597 341.957 409.296 342.277 413.058C342.277 413.122 342.277 413.186 342.34 413.186C342.915 415.673 343.298 418.16 344.064 420.583C345.021 423.708 346.234 426.706 347.383 429.767C347.511 430.086 347.894 430.277 348.404 430.723C348.66 424.155 348.787 417.65 348.915 411.273ZM149.064 394.692C149.128 395.393 149.064 396.095 149.192 396.732C149.319 397.816 149.575 398.901 149.766 399.985C150.021 401.898 150.277 403.747 150.468 405.66C150.851 409.232 151.362 412.803 151.489 416.374C151.553 420.392 151.234 424.41 150.979 428.427C150.851 430.596 150.66 432.764 150.149 434.869C149.511 437.419 148.617 439.907 147.723 442.394C146.575 445.71 144.915 448.771 141.915 450.812C140.383 451.896 140.575 453.299 140.894 454.766C141.468 457.189 142.043 459.613 142.553 462.036C143.064 464.268 143.511 466.5 144.021 468.668C144.787 471.602 145.617 474.472 146.447 477.341C147.149 479.829 147.915 482.252 148.745 484.739C149.447 486.971 150.213 489.139 150.915 491.308C151.809 493.986 152.702 496.728 153.66 499.407C154.809 502.659 156.085 505.912 157.234 509.164C158.255 512.034 159.213 514.904 160.234 517.837C161.383 521.154 162.532 524.47 163.681 527.85C164.83 531.166 165.915 534.546 167.064 537.862C168.213 541.178 169.489 544.495 170.702 547.811C172.234 552.083 173.766 556.356 175.298 560.565C177.34 566.05 179.447 571.47 181.553 576.891C183.085 580.845 184.553 584.735 186.213 588.625C188.447 593.982 190.809 599.212 193.106 604.505C194.064 606.673 195.149 608.778 196.043 610.946C196.362 611.711 196.809 611.839 197.511 611.903C199.809 612.158 202.17 612.285 204.468 612.732C207.468 613.306 210.404 613.433 213.404 612.54C215.511 611.903 217.234 610.882 218.383 608.969C218.638 608.586 219.021 608.268 219.213 607.821C219.468 607.247 219.851 606.546 219.787 605.972C219.723 604.76 219.34 603.612 219.277 602.4C219.085 599.148 217.936 596.087 217.106 593.026C216.213 589.773 215.128 586.585 214.17 583.396C213.404 580.845 212.83 578.294 212.064 575.807C211.106 572.746 210.085 569.685 209.128 566.624C207.723 562.16 206.447 557.632 205.106 553.168C204.34 550.489 203.447 547.874 202.745 545.132C201.979 542.071 201.34 538.946 200.638 535.885C199.872 532.633 199.043 529.444 198.277 526.192C197.511 522.812 196.872 519.368 196.17 515.988C195.915 514.776 195.66 513.501 195.404 512.289C195.085 510.631 194.702 509.037 194.383 507.379C194.064 505.593 193.809 503.807 193.553 502.085C193.362 500.746 193.106 499.343 192.851 498.004C192.468 496.027 192.085 494.05 191.766 492.073C191.447 490.351 191.255 488.629 191 486.907C190.745 485.441 190.489 483.974 190.234 482.571C189.915 480.721 189.532 478.936 189.277 477.15C188.957 475.301 188.766 473.387 188.447 471.474C188.255 469.944 188 468.413 187.745 466.946C187.426 464.906 186.979 462.929 186.66 460.888C186.34 458.975 186.149 456.998 185.894 455.085C185.702 453.618 185.447 452.151 185.192 450.684C184.809 448.388 184.426 446.093 184.106 443.797C183.787 441.373 183.532 438.95 183.277 436.527C182.957 433.529 182.575 430.532 182.319 427.535C182.128 424.856 182.064 422.114 182.064 419.435C182.064 418.288 181.553 417.65 180.787 417.076C179.192 415.8 177.532 414.525 176.064 413.186C172.298 409.614 169.234 405.469 166.809 400.941C165.532 398.582 164.447 396.031 163.234 393.48C158.766 393.671 153.979 394.181 149.064 394.692ZM330.021 395.839C329.83 396.031 329.766 396.095 329.702 396.158C329.638 396.413 329.574 396.668 329.638 396.924C329.894 399.411 329 401.643 328.17 403.811C325.809 410.125 321.915 415.609 317.574 420.711C316.617 421.795 316.362 422.879 316.489 424.218C316.745 427.598 317.064 430.978 317.255 434.358C317.511 438.631 317.702 442.904 317.957 447.241C318.213 450.939 318.468 454.638 318.723 458.337C318.723 458.528 318.787 458.783 318.851 458.975C319.17 461.526 319.553 464.077 319.872 466.691C320.319 470.199 320.702 473.706 321.149 477.214C321.532 480.466 321.979 483.719 322.426 486.971C322.936 490.542 323.383 494.114 323.894 497.685C324.085 499.024 324.34 500.363 324.596 501.767C324.979 503.743 325.362 505.72 325.745 507.634C326.192 509.929 326.638 512.162 327.213 514.457C327.723 516.689 328.362 518.858 328.872 521.026C329.383 523.13 329.83 525.235 330.34 527.34C330.915 529.763 331.553 532.25 332.192 534.673C332.447 535.694 332.702 536.714 332.957 537.735C333.532 539.839 334.106 541.88 334.617 543.984C335.192 546.153 335.702 548.257 336.277 550.425C336.979 552.976 337.745 555.463 338.447 558.014C339.213 560.629 339.979 563.244 340.745 565.922C341.447 568.282 342.213 570.641 342.915 573.001C343.617 575.361 344.319 577.72 345.021 580.08C345.979 583.077 347 586.075 347.957 589.072C349.17 592.643 350.319 596.278 351.532 599.849C352.617 602.974 353.766 606.099 354.979 609.16C356.574 613.306 358.17 617.515 359.83 621.66C360.979 624.53 362.192 627.4 363.277 630.333C363.979 632.246 364.17 632.501 366.213 632.374C366.468 632.374 366.723 632.374 366.979 632.31C369.149 631.927 371.383 631.609 373.489 631.035C375.34 630.524 377.128 629.632 378.915 628.93C379.17 628.802 379.553 628.611 379.681 628.42C380.958 626.57 382.234 624.657 383.383 622.744C383.702 622.234 383.702 621.405 383.511 620.767C383.192 619.364 382.617 618.089 382.234 616.686C381.404 613.88 380.702 611.137 379.872 608.331C379.106 605.78 378.34 603.166 377.575 600.615C377.064 598.957 376.553 597.299 376.043 595.641C375.277 592.834 374.447 590.092 373.745 587.286C373.234 585.245 372.723 583.205 372.213 581.164C371.702 578.932 371.192 576.636 370.617 574.404C369.851 571.088 369.021 567.708 368.255 564.392C368 563.18 367.745 561.905 367.489 560.693C366.915 558.014 366.34 555.336 365.766 552.657C365.192 550.043 364.617 547.428 364.043 544.813C363.532 542.581 363.085 540.413 362.638 538.181C362.319 536.714 362.128 535.184 361.809 533.653C361.234 530.847 360.66 528.105 360.085 525.299C359.702 523.258 359.319 521.154 358.936 519.049C358.681 517.518 358.426 516.052 358.17 514.521C357.915 512.863 357.66 511.205 357.34 509.547C357.021 507.634 356.574 505.72 356.255 503.807C355.936 501.958 355.745 500.045 355.426 498.131C355.234 496.792 354.979 495.453 354.723 494.05C354.34 492.009 353.957 490.032 353.638 487.992C353.319 486.142 353.128 484.229 352.809 482.316C352.298 479 351.596 475.683 351.149 472.303C350.766 469.752 350.638 467.138 350.383 464.587C350.255 462.929 350.192 461.334 350.064 459.676C349.809 456.679 349.553 453.682 349.362 450.684C349.17 447.942 349.17 445.136 348.979 442.394C348.915 441.182 348.596 439.97 348.149 438.886C347.766 438.057 346.809 437.419 346.17 436.654C345.404 435.761 344.574 434.996 344 433.976C341.574 430.086 339.979 425.813 338.766 421.349C337.745 417.65 337.298 413.887 337.106 410.125C336.915 406.872 337.043 403.62 337.043 400.431C337.043 399.73 336.915 399.283 336.085 399.028C334.936 398.582 333.915 397.944 332.83 397.434C332.064 396.732 331.043 396.286 330.021 395.839ZM372.149 134.497C372.277 135.071 372.34 135.581 372.468 135.964C373.043 137.431 373.809 138.834 374.319 140.301C375.787 144.127 376.936 148.017 376.809 152.162C376.745 153.565 376.936 153.693 378.404 153.629C380.511 153.438 382.617 153.31 384.723 152.928C386.766 152.545 388.809 152.226 390.66 151.397C395.447 149.293 400.106 146.742 404.511 143.872C405.468 143.234 405.851 141.895 405.213 140.938C403.872 138.961 403.553 136.729 403.681 134.434C403.809 131.628 404.128 128.885 404.319 126.079C404.319 125.952 404.319 125.888 404.383 125.76C404.894 123.465 405.468 121.169 405.979 118.809C406.043 118.49 405.979 118.044 405.851 117.725C405.468 116.322 405.021 114.919 404.702 113.452C403.745 109.243 404.255 105.162 405.213 101.016C405.468 99.8685 406.553 98.6568 405.596 97.3814C406.617 96.4886 407.575 95.7233 408.468 94.8942C411.149 92.4709 413.575 89.7924 415.298 86.6675C416.128 85.1369 416.511 83.3513 417.149 81.6932C418.043 79.3974 417.723 77.1015 417.468 74.8057C417.277 73.4027 416.575 72.1272 415.553 71.0431C413.575 68.9386 413 68.811 410.574 70.4691C410.064 70.8518 409.553 71.1706 409.043 71.6171C406.745 73.7216 404.957 76.1449 403.553 78.8872C403.298 79.3336 403.043 79.9076 402.66 80.1627C401 81.3743 398.447 80.8004 397.17 79.0147C394.681 75.5072 393.277 71.5533 392.064 67.5356C391.043 64.0918 390.149 60.5205 389.255 57.013C388.617 54.2708 388.043 51.5285 387.596 48.7863C387.213 46.6818 387.085 44.5773 386.83 42.4728C386.702 41.1973 386.511 39.9856 386.383 38.7101C386.383 38.5188 386.255 38.3275 386.192 38.0724C385.809 38.0724 385.426 38.0724 385.106 38.1362C383.064 38.8377 381.021 39.4754 378.979 40.3045C375.085 41.8988 371.255 43.6207 367.426 45.215C364.298 46.4905 361.17 47.7021 358.043 48.9138C357.404 49.1689 356.766 49.4878 356.383 49.998C355.617 51.0821 354.915 52.23 354.468 53.4417C353.319 57.0768 352.298 60.7756 351.213 64.4745C350.447 66.9616 349.681 69.5125 347.447 71.2344C346.809 71.7446 346.17 72.2548 345.468 72.8287C343.234 74.6144 340.936 76.4 338.766 78.3132C337.362 79.5887 336.085 80.9917 335 82.5223C334.043 83.8615 333.532 85.5196 334.17 87.1777C334.809 88.7082 335.766 90.1113 337.234 91.1316C338.511 91.9607 339.66 92.981 340.872 93.8739C343.043 95.4682 343.936 97.6365 344.128 100.251C344.255 102.292 344.575 104.333 344.894 106.373C345.149 107.713 345.66 108.924 346.106 110.391C346.681 110.136 347.064 110.008 347.383 109.753C349.17 108.542 351.021 107.394 352.745 106.118C356.192 103.504 359.702 101.08 362.319 97.5089C363.085 96.4248 364.106 95.4682 365.192 94.6391C366.277 93.8101 367.17 94.0014 368.128 95.0856C367.234 98.338 365.383 100.953 362.894 103.185C360.66 105.098 358.426 107.011 356.128 108.797C353.574 110.838 350.83 112.623 347.383 112.942C347.383 113.325 347.255 113.707 347.383 113.962C349.362 118.427 351.596 122.699 355.234 126.016C357.213 127.865 359.319 129.587 362.255 130.097C364.043 130.416 365.702 131.054 367.426 131.436C368.447 131.628 369.532 131.819 370.553 131.691C373.043 131.436 375.532 130.798 378.085 130.607C379.745 130.48 381.213 130.033 382.489 129.077C384.723 127.419 386.957 125.76 389.192 124.102C389.957 123.528 390.596 123.273 391.681 123.72C391.362 124.294 391.17 124.804 390.851 125.25C389.511 126.972 388.17 128.758 386.702 130.352C385.872 131.181 384.851 132.01 383.702 132.329C381.468 132.967 379.17 133.222 376.872 133.668C375.404 133.923 373.872 134.178 372.149 134.497ZM116.383 156.499C116.383 155.861 116.447 155.224 116.447 154.586C116.511 152.864 116.447 151.078 116.638 149.356C117.085 145.53 117.915 141.767 118.872 138.069C119.83 134.497 121.298 131.181 123.596 128.375C125.064 126.526 126.787 124.868 129.149 124.102C132.34 123.082 135.596 122.125 139.043 122.317C143.766 122.572 148.106 121.743 151.362 117.916C151.617 117.597 152 117.406 152.319 117.151C153.149 116.45 153.979 115.748 154.809 114.983C155.702 114.09 155.702 113.835 154.745 112.942C154.489 112.687 154.17 112.496 153.915 112.241C150.468 109.307 147.085 106.246 144.34 102.611C142.809 100.57 140.511 98.8482 140.638 95.8508C140.638 95.7233 140.383 95.532 140.255 95.3406C139.936 94.7029 140.192 94.1927 140.894 94.384C141.66 94.5754 142.489 94.958 143.192 95.4044C148.489 98.6569 153.723 101.909 159.021 105.162C160.745 106.246 161 106.118 162.277 104.524C162.34 104.396 162.404 104.205 162.532 104.078C164.447 101.399 167 99.9323 170.383 100.124C171.213 100.187 172.106 100.187 172.936 100.06C173.319 99.9961 173.83 99.6772 173.957 99.3584C174.277 98.6569 174.532 97.8916 174.66 97.1263C174.979 93.555 173.83 90.3663 172.298 87.2415C171.404 85.3921 170.255 83.6702 169.234 81.8845C168.149 79.9076 167.383 77.8668 167.638 75.571C167.83 73.594 168.149 71.6808 168.085 69.7039C168.085 67.2167 167.83 64.7296 167.638 62.3062C167.447 60.0104 167.255 57.7783 166.745 55.5462C166.17 52.8678 165.213 50.3168 164.447 47.7022C164.192 46.8731 163.809 46.5542 163.043 46.5542C162.277 46.5542 161.511 46.5542 160.809 46.3629C158.575 45.6614 156.532 44.641 154.872 42.9192C154.106 42.0901 153.277 42.0901 152.255 42.2814C149.957 42.7916 147.851 43.6207 145.745 44.5773C142.872 45.8527 140.255 47.5108 138.404 50.1255C135.979 53.633 133.489 57.0768 131.128 60.5843C129.085 63.6454 126.404 65.6862 122.766 66.1964C119.575 66.6428 116.447 66.2601 113.319 65.3035C110.894 64.5382 108.723 63.2628 106.745 61.6047C104.894 60.0104 102.723 60.0741 100.872 61.222C99.149 62.3062 97.4256 63.6454 96.4043 65.6224C96.2128 65.9413 96.0213 66.3239 96.0213 66.6428C95.9575 68.4922 95.7022 70.3416 95.9575 72.191C96.3405 75.7623 98 78.8234 100.234 81.5019C101.383 82.9049 102.723 84.1804 104.064 85.392C105.723 86.9226 105.915 89.0909 105.979 91.0679C106.043 92.6622 105.213 94.3203 104.575 95.8508C103.298 98.7206 101.83 101.527 100.553 104.46C98.7022 108.797 97.1703 113.325 94.7447 117.406C93.3405 119.83 91.8086 122.253 90.2128 124.549C89.6383 125.314 89.5745 125.952 89.9575 126.653C91.4894 129.523 92.9575 132.457 94.6171 135.199C96.5958 138.515 99.149 141.512 101.83 144.318C105.404 148.081 109.043 151.716 112.681 155.415C113.638 156.308 114.66 157.073 116.383 156.499ZM510.851 437.93C510.723 437.356 510.468 436.272 510.213 435.187C509.702 432.892 509.255 430.66 508.745 428.364C507.979 425.175 507.085 421.923 506.319 418.734C506 417.522 505.809 416.247 505.489 415.035C504.979 412.867 504.404 410.635 503.83 408.466C503.128 405.788 502.489 403.173 501.787 400.495C501.532 399.538 501.085 399.474 500.128 399.857C498.596 400.431 497.064 400.941 495.532 401.515C493.298 402.28 491.064 403.046 488.83 403.875C486.979 404.513 485.192 405.278 483.404 405.979C481.426 406.745 479.511 407.701 477.34 408.084C475.426 408.403 473.638 409.551 471.787 410.188C468.66 411.336 465.468 412.42 462.277 413.568C458.894 414.78 455.511 415.928 452.128 417.076C450.723 417.586 449.319 418.415 447.851 418.543C445.617 418.734 443.638 419.563 441.66 420.328C438.979 421.412 436.362 422.624 433.681 423.644C430.362 424.92 427.043 426.004 423.723 427.28C421.809 427.981 419.894 428.746 417.979 429.512C415.681 430.468 413.319 431.425 411.021 432.445C409.809 432.955 409.681 433.338 410.128 434.486C410.766 436.335 411.404 438.185 412.106 439.97C413.702 444.435 415.298 448.899 416.957 453.299C419.319 459.549 421.745 465.799 424.043 472.048C424.298 472.686 424.617 472.941 425.192 472.877C425.702 472.814 426.277 472.814 426.723 472.622C429.277 471.538 431.83 470.39 434.383 469.242C435.979 468.541 437.511 467.712 439.106 467.074C440.638 466.436 442.362 466.181 443.894 465.48C450.085 462.546 456.149 459.421 462.34 456.488C465.34 455.085 468.34 453.682 471.404 452.47C474.149 451.386 476.957 450.557 479.766 449.6C482.766 448.58 485.766 447.623 488.766 446.603C491 445.838 493.234 445.008 495.468 444.307C498.532 443.35 501.596 442.394 504.66 441.501C506.255 440.991 507.915 440.672 509.511 440.162C510.66 439.907 510.851 439.524 510.851 437.93ZM425.958 477.469C426.149 477.979 426.34 478.362 426.468 478.744C427.234 480.785 428.128 482.826 428.83 484.93C430.043 488.566 432.021 491.945 432.34 495.836C432.34 495.963 432.404 496.155 432.468 496.282C433.489 498.705 434.447 501.129 435.468 503.552C436.872 506.677 438.787 509.483 440.894 512.225C441.532 513.118 442.872 513.692 443.511 513.437C445.489 512.544 447.468 511.524 449.511 510.695C453.277 509.1 457.106 507.634 460.936 506.103C464.128 504.828 467.319 503.68 470.511 502.404C473.83 501.065 477.149 499.662 480.404 498.323C484.936 496.473 489.468 494.624 494 492.838C497.83 491.308 501.66 489.65 505.617 488.247C510.532 486.525 515.447 484.803 520.106 482.443C521.064 481.997 521.319 481.487 520.872 480.594C519.596 478.043 519.277 475.237 518.511 472.558C517.681 469.561 517.17 466.5 516.532 463.439C515.894 460.633 515.319 457.763 514.681 454.957C513.979 451.832 513.277 448.707 512.511 445.327C511.043 445.646 509.575 445.838 508.17 446.284C505.234 447.177 502.426 448.261 499.489 449.218C494.638 450.812 489.723 452.215 484.936 453.873C480.213 455.467 475.553 457.189 470.894 458.911C467.574 460.186 464.255 461.653 461 463.056C457.043 464.842 453.085 466.691 449.128 468.413C446.255 469.689 443.255 470.773 440.383 472.112C436.106 474.025 431.958 476.257 427.234 476.831C426.787 476.895 426.404 477.214 425.958 477.469ZM154.745 389.079C161.128 388.123 167.255 387.23 173.319 385.253C173.511 383.531 173.766 381.873 173.894 380.215C174.34 375.623 174.723 371.032 175.106 366.44C175.362 363.251 175.553 360.126 175.809 356.938C176.064 354.387 176.319 351.772 176.638 349.221C176.83 347.755 177.085 346.288 177.277 344.821C177.66 342.079 178.043 339.273 178.362 336.467C178.681 333.278 178.872 330.153 179.192 326.965C179.447 324.35 179.894 321.735 180.277 319.12C180.468 317.59 180.66 316.059 180.851 314.592C180.915 314.274 180.787 313.955 180.787 313.508C180.213 313.508 179.702 313.445 179.192 313.508C177.596 313.7 176.064 313.891 174.468 314.019C171.532 314.337 168.596 314.592 165.596 314.911C164.319 315.039 163.106 315.23 161.894 315.422C161.319 317.462 160.809 319.439 160.298 321.352C159.723 323.648 159.149 325.944 158.575 328.24C158 330.536 157.489 332.832 156.915 335.127C156.468 336.786 155.957 338.444 155.383 340.102C154.617 342.27 154.106 344.566 152.575 346.415C152.319 346.734 152.192 347.436 152.319 347.882C153.021 350.369 153.277 352.984 153.404 355.535C153.596 359.68 153.532 363.762 153.915 367.907C154.362 372.817 154.106 377.792 154.17 382.702C154.17 384.424 154.17 386.082 154.298 387.804C154.362 388.25 154.617 388.697 154.745 389.079ZM114.34 190.299C114.468 190.299 114.532 190.235 114.66 190.235C114.66 189.789 114.66 189.278 114.596 188.832C113.957 185.835 113.319 182.837 112.681 179.904C112.426 178.692 112.17 177.544 111.915 176.332C111.532 174.738 111.149 173.144 110.83 171.549C110.511 169.891 110.447 168.17 110 166.575C109.362 164.152 109.298 161.601 110.319 159.433C111.277 157.264 110.383 156.308 108.979 155.16C103.553 150.632 98.5107 145.658 93.9788 140.173C91.4894 137.112 89.3192 133.86 87.8511 130.161C87.7234 129.778 87.3405 129.459 86.9575 128.949C86.5107 129.651 86.1915 130.097 85.9362 130.607C84.5958 133.668 83.3192 136.793 81.9149 139.854C79.7447 144.446 77.5107 148.91 75.2766 153.502C74.5745 154.905 73.8724 156.308 73.1703 157.774C73.5532 157.966 73.7447 158.093 74 158.221C74.2554 158.348 74.4468 158.476 74.7022 158.54C78.149 159.56 81.2766 161.282 84.4043 163.068C90.4681 166.703 96.5958 170.274 101.702 175.312C104.766 178.309 108.021 181.115 110.447 184.751C111.66 186.6 113 188.449 114.34 190.299ZM451.17 363.762C449.958 364.336 448.809 364.846 447.596 365.483C444.66 366.95 441.468 367.779 438.213 368.226C436.043 368.545 433.872 368.417 431.766 368.991C430.809 369.246 430.17 369.692 429.787 370.394C429.404 371.159 429.213 371.988 429.149 372.817C429.021 374.858 429.085 376.835 429.021 378.876C428.83 382.192 428.575 385.508 428.319 388.888C428.319 389.207 428.192 389.526 428.064 389.781C427.553 391.12 428.064 392.268 428.894 393.289C429.787 394.436 431.255 394.245 431.83 392.97C433.106 390.036 433.617 386.911 434.255 383.786C434.319 383.467 434.447 383.212 434.511 382.893C435.277 384.998 435.596 387.103 436.298 389.079C437.447 392.523 438.787 395.903 440.064 399.283C440.766 401.069 442.553 401.834 444.085 401.196C443.319 398.008 442.617 394.755 441.851 391.567C443.702 391.056 443.894 391.12 444.404 392.396C445.489 394.947 446.511 397.434 447.404 400.048C448.106 402.089 448.043 402.089 450.213 401.962C450.532 401.962 450.851 401.898 451.17 401.834C451.17 401.451 451.298 401.133 451.17 400.877C449.638 397.816 448.681 394.5 447.787 391.184C447.532 390.291 448.043 389.653 448.936 389.972C449.766 390.227 450.66 390.674 451.17 391.375C452.064 392.587 452.702 393.99 453.277 395.393C453.915 396.987 454.362 398.645 454.936 400.495C455.83 400.112 456.723 399.73 457.681 399.283C457.489 398.135 457.298 397.115 457.106 396.158C456.66 394.118 456.213 392.013 455.702 389.972C455.575 389.526 455.255 389.143 455.128 388.697C454.872 387.804 455.319 387.294 456.213 387.549C456.723 387.676 457.234 387.932 457.553 388.314C458.128 389.016 458.638 389.717 458.958 390.546C459.787 392.715 460.489 394.883 461.255 397.242C462.66 397.179 463.872 396.222 465.149 395.584C465.277 395.521 465.34 395.202 465.468 395.074C466.234 394.181 465.468 393.288 465.404 392.396C465.213 390.419 464.511 388.633 463.745 386.847C462.34 383.723 461 380.598 459.596 377.473C458.575 375.241 457.681 372.881 456.34 370.84C454.872 368.417 453.021 366.249 451.17 363.762ZM251.064 291.507C251.128 291.315 251.192 291.124 251.255 290.996C251.766 291.124 252.34 291.252 252.851 291.507C254.383 292.208 255.851 293.101 257.447 293.675C261.149 295.078 264.979 296.353 268.681 297.756C270.979 298.585 271.809 298.394 273.213 296.417C273.404 296.162 273.404 295.716 273.277 295.461C273.085 295.078 272.766 294.823 272.383 294.568C268.106 291.57 263.894 288.573 259.617 285.576C258.34 284.683 257.064 284.045 255.532 284.81C255.34 284.874 255.085 284.81 254.894 284.874C253.17 285.448 251.511 285.958 250.234 287.553C247.936 290.359 244.936 291.953 241.17 291.889C239 291.889 237.532 290.55 238.872 287.935C239.702 286.341 240.723 284.874 241.681 283.407C243.851 280.091 246.277 276.966 249.149 274.16C248.383 273.395 247.426 273.65 246.596 273.778C242.766 274.224 238.936 274.671 235.106 275.245C232.745 275.627 230.447 276.137 228.149 276.648C227.383 276.839 227 277.285 226.936 278.114C226.553 281.558 226.106 285.002 225.213 288.446C224.255 292.144 224.383 296.035 224.192 299.797C224.128 300.626 224.511 300.818 225.277 300.626C225.34 299.797 225.34 299.032 225.532 298.33C226.043 296.162 228.596 294.695 230.638 294.887C231.468 294.95 232.298 295.078 233.128 295.142C235.234 295.205 236.638 296.162 237.34 298.139C237.66 298.968 238.234 299.096 239 298.904C239.574 298.777 240.085 298.522 240.66 298.458C242.447 298.33 244.106 298.968 245.511 299.988C246.404 300.626 247.234 300.945 248.319 300.818C249.596 300.69 250.681 301.136 251.638 302.029C252.723 303.113 252.723 303.05 254 301.71C251.383 300.244 248.83 298.841 246.085 297.31C247.617 296.927 247.936 296.927 248.957 297.374C254.064 299.67 259.17 302.029 264.532 303.815C265.043 303.942 265.745 304.197 266.064 303.942C267.34 303.05 268.553 302.093 269.064 300.562C262.872 297.565 256.617 295.205 251.064 291.507ZM409.106 144C408.851 144.191 408.66 144.255 408.532 144.382C405.34 146.869 401.702 148.719 398.192 150.696C394.553 152.736 390.66 153.948 386.575 154.65C383.957 155.16 381.213 155.16 378.532 155.351C376.809 155.479 376.681 155.542 376.809 157.201C376.936 158.922 377.255 160.708 377.319 162.43C377.383 165.491 378.021 168.488 378.532 171.549C378.851 173.335 379.106 175.121 379.298 176.906C379.617 179.33 379.809 181.753 380.128 184.177C380.192 184.687 380.511 185.133 380.83 185.835C381.851 184.751 382.553 183.858 383.383 183.029C387.596 178.692 391.809 174.292 396.021 169.955C400.298 165.619 404.575 161.282 408.915 157.009C409.745 156.18 410.83 155.479 411.787 154.841C412.426 154.458 412.553 154.076 412.362 153.438C411.277 150.249 410.255 147.188 409.106 144ZM180.468 384.169C181.553 383.914 182.447 383.659 183.404 383.404C184.362 383.085 185.383 382.83 185.894 381.746C185.957 381.554 186.149 381.427 186.34 381.299C188.638 380.279 189.277 378.174 189.723 376.07C190.298 373.072 190.681 370.011 191.064 367.014C191.383 364.527 191.575 361.976 191.83 359.425C191.83 359.234 191.894 358.979 191.957 358.787C192.34 356.428 192.787 354.132 192.979 351.772C193.298 347.691 193.426 343.609 193.681 339.592C193.745 338.763 193.745 337.87 193.809 337.041C194.128 334.362 194.511 331.684 194.83 329.005C195.149 325.689 195.34 322.373 195.596 319.057C195.723 317.526 195.787 315.996 195.915 314.465C195.979 313.763 196.043 313.062 196.106 312.36C195.66 312.297 195.404 312.233 195.213 312.233C192.532 312.488 189.851 312.679 187.106 312.934C186.532 312.998 185.957 313.317 185.575 313.508C185.702 314.72 185.83 315.613 185.83 316.569C185.702 320.778 186.085 324.924 185.511 329.133C185.128 331.747 185.511 334.426 185.383 337.104C185.192 340.995 184.936 344.821 184.553 348.647C184.298 351.39 183.723 354.068 183.468 356.81C183.149 360.637 182.957 364.527 182.702 368.417C182.511 370.713 182.319 373.072 181.936 375.368C181.489 377.919 180.851 380.406 180.34 382.957C180.277 383.276 180.468 383.723 180.468 384.169ZM453.34 360.509C453.34 354.004 452.447 347.818 451.234 341.505C450.404 341.887 449.638 342.206 448.936 342.525C444.149 344.885 439.362 347.053 434.064 348.01C430.745 348.584 427.489 348.839 424.17 347.946C423.915 347.882 423.66 347.946 423.213 348.01C423.34 348.711 423.404 349.349 423.596 349.923C424.106 351.772 424.872 353.622 425.128 355.535C425.511 358.15 426.34 360.509 428.383 362.295C429.149 362.932 429.723 363.825 430.553 364.336C431.383 364.909 432.404 365.42 433.362 365.547C436.17 365.994 439.043 365.739 441.66 364.846C445.617 363.698 449.383 362.04 453.34 360.509ZM303.404 388.888C303.404 387.995 303.468 387.549 303.404 387.166C302.383 383.595 302.766 379.896 302.447 376.261C302 370.904 302.192 365.547 302.128 360.19C302.064 352.793 302.128 345.331 302.83 337.933C302.957 336.594 303.149 335.191 303.34 333.852C303.596 332.13 303.851 330.408 304.106 328.686C304.362 327.156 304.617 325.689 304.936 324.158C305.128 323.074 305.447 321.99 305.702 320.906C306.021 319.312 306.468 317.717 306.723 316.123C307.043 313.955 307.298 311.723 307.617 309.491C308.128 305.856 308.702 302.284 309.277 298.649C309.723 295.652 310.234 292.718 310.745 289.721C310.936 288.573 311.255 287.425 311.511 286.341C312.021 284.237 312.596 282.132 313.106 280.091C313.681 278.051 314.192 276.01 314.83 274.033C315.468 272.056 316.234 270.079 316.872 268.102C317.702 265.487 318.532 262.873 319.298 260.258C319.426 259.811 319.362 259.301 319.426 258.727C318.596 258.919 318.021 259.174 317.383 259.174C316.617 259.237 316.298 259.556 316.106 260.322C315.532 262.426 314.894 264.594 314.319 266.699C313.809 268.612 313.234 270.589 312.723 272.502C312.213 274.352 311.702 276.265 311.192 278.114C310.617 280.219 310.043 282.387 309.468 284.492C308.957 286.405 308.447 288.254 308 290.167C307.489 292.336 306.979 294.44 306.468 296.608C305.894 299.159 305.319 301.774 304.809 304.325C304.489 305.983 304.298 307.641 304.043 309.299C303.787 310.702 303.532 312.105 303.277 313.508C302.957 315.23 302.574 316.952 302.255 318.61C301.936 320.396 301.681 322.181 301.362 323.903C300.851 327.092 300.149 330.217 299.766 333.406C299.255 337.423 298.872 341.377 298.553 345.395C298.234 350.114 297.915 354.897 297.851 359.68C297.787 365.037 297.723 370.394 298.234 375.687C298.553 379.067 298.298 382.447 299 385.827C299.064 386.273 299.255 386.911 299.575 387.039C300.66 387.868 301.936 388.314 303.404 388.888ZM145.106 395.329C143.702 394.819 133.872 394.819 131.957 395.329C131.894 395.393 131.83 395.521 131.83 395.584C132.085 399.156 132.34 402.791 132.66 406.362C132.915 409.04 133.362 411.719 133.681 414.397C133.936 416.566 134.128 418.734 134.511 420.839C135.021 424.027 135.596 427.216 136.234 430.341C136.617 432.318 137.192 434.231 137.702 436.144C137.83 436.718 138.085 437.419 138.468 437.611C139.298 438.057 139.426 438.695 139.426 439.46C139.426 440.481 139.553 441.437 139.553 442.458C139.553 443.031 139.617 443.542 140.447 443.478C140.638 442.904 140.894 442.394 141.085 441.884C141.851 439.524 142.681 437.164 143.255 434.805C143.702 432.892 143.894 430.851 144.085 428.874C144.468 424.601 144.979 420.328 145.106 416.056C145.234 412.548 145.234 408.977 144.851 405.469C144.532 402.599 144.34 399.666 145.106 396.796C145.234 396.286 145.106 395.776 145.106 395.329ZM196.234 266.316C196.17 265.615 196.234 265.105 196.043 264.722C194 259.62 192.085 254.454 189.468 249.544C187.681 246.292 186.213 242.848 184.617 239.468C182.957 235.769 181.362 232.07 179.638 228.371C177.532 223.971 175.362 219.571 173.128 215.234C172.043 213.13 170.894 211.025 169.809 208.921C169.489 209.367 169.426 209.686 169.553 210.005C170 211.535 170.575 213.066 171.021 214.66C171.787 217.147 172.553 219.698 173.255 222.249C173.83 224.417 174.277 226.522 174.851 228.69C175.617 231.688 176.383 234.685 177.085 237.746C177.66 240.424 178.106 243.167 178.553 245.845C178.809 247.184 179 248.524 179.192 249.927C179.511 251.904 179.957 253.881 180.277 255.857C180.596 257.834 180.787 259.811 181.043 261.788C181.17 262.617 181.362 263.446 181.617 264.276C181.681 264.594 182.064 264.913 182.319 264.977C183.404 265.232 184.489 265.487 185.575 265.615C187.234 265.806 188.957 265.87 190.681 265.934C192.404 266.125 194.192 266.189 196.234 266.316ZM294.085 304.644C294.468 303.815 294.851 303.241 295.043 302.539C295.426 301.328 295.553 300.052 295.936 298.841C296.574 296.672 296.957 294.568 297.085 292.336C297.34 287.553 297.085 282.834 295.681 278.178C295.234 276.648 294.404 275.627 292.617 275.755C291.532 275.818 290.383 275.691 289.298 275.755C287.575 275.882 285.851 276.201 284.128 276.265C282.468 276.329 280.745 276.201 279.085 276.074C278.511 276.01 277.872 275.755 277.553 276.329C277.298 276.775 277.298 277.477 277.426 277.923C278.192 280.027 279.085 282.132 279.915 284.237C281.255 287.872 282.149 291.57 282.404 295.397C282.468 296.545 282.979 297.374 283.809 298.139C284.766 299.032 286.043 299.287 287.064 299.988C289.298 301.455 291.532 302.986 294.085 304.644ZM62.2554 386.592C55.6171 384.169 49.1703 381.809 42.5958 379.386C42.5958 379.641 42.532 380.087 42.5958 380.47C42.7873 381.682 43.1064 382.83 43.2979 384.041C43.8724 387.676 44.5107 391.312 45.0213 395.01C45.3405 397.37 45.5958 399.73 45.8511 402.089C45.8511 402.217 45.9149 402.408 45.9149 402.536C46.2979 404.64 46.6171 406.808 47.0639 408.913C47.3192 410.125 47.5745 411.273 47.8298 412.484C49.3617 410.699 50.6383 408.977 51.7873 407.191C52.4256 406.234 52.9362 405.15 53.4469 404.13C56.2554 398.454 58.9362 392.715 62.1277 387.23C62.2554 386.975 62.2554 386.72 62.2554 386.592ZM242.255 288.382C242.319 288.446 242.383 288.509 242.447 288.573C243.468 288.063 244.617 287.616 245.575 286.979C247.298 285.831 248.894 284.555 250.553 283.407C251.894 282.451 253.17 281.303 254.894 280.984C256.872 280.538 258.596 281.239 260.255 282.004C264.915 284.109 269.064 287.043 273.021 290.295C274.106 291.188 275.255 292.081 276.468 293.037C276.468 290.996 276.66 289.211 276.404 287.489C276.213 286.341 276.085 285.129 275.192 284.109C272.766 281.558 270.468 278.88 268.17 276.201C266.064 273.778 263.383 273.268 260.575 274.097C257.957 274.862 255.277 275.436 252.596 275.882C252.213 275.946 251.83 276.074 251.575 276.265C250.617 277.03 249.532 277.795 248.766 278.752C246.66 281.622 244.745 284.619 242.766 287.616C242.511 287.872 242.383 288.127 242.255 288.382ZM428.638 421.923C428.702 421.795 428.83 421.668 428.894 421.54C428.255 420.838 427.936 420.009 427.617 419.117C427.362 418.224 427.681 417.459 427.617 416.693C427.234 411.081 428.064 405.66 430.362 400.304C428 399.538 426.277 397.816 425.064 395.903C420.34 397.625 415.809 399.347 411.468 400.941C413.383 403.556 415.17 405.979 416.957 408.466C420.149 412.994 423.787 417.14 427.426 421.285C427.681 421.604 428.255 421.668 428.638 421.923ZM474.66 404.576C474.468 403.875 474.468 403.428 474.277 403.046C473.575 401.643 472.809 400.304 472.043 398.901C471.404 397.689 470.766 397.306 469.489 397.625C467.958 398.071 466.489 398.582 465.085 399.219C462.404 400.431 459.851 401.898 457.17 403.046C455.128 403.939 452.894 404.576 450.596 404.704C449.383 404.768 448.106 404.576 447.149 405.469C447.149 408.339 447.149 411.209 447.149 414.142C447.596 414.206 447.851 414.334 448.106 414.27C456.851 411.081 465.66 407.829 474.66 404.576ZM336.596 212.492C336.468 212.428 336.404 212.3 336.277 212.237C335.957 212.556 335.575 212.874 335.319 213.193C332.957 215.872 330.34 218.295 327.596 220.591C325.617 222.185 323.957 224.035 322.426 226.075C320.766 228.308 319.745 230.858 319.426 233.601C319.106 236.343 318.851 239.085 318.851 241.827C318.787 245.526 318.979 249.225 319.106 252.924C319.106 253.115 319.298 253.243 319.426 253.434C319.617 253.243 319.809 253.179 319.872 253.051C320.766 250.309 321.532 247.503 322.617 244.825C324.149 240.935 325.809 237.044 327.468 233.218C328.809 230.157 330.277 227.16 331.681 224.098C332.957 221.229 334.106 218.295 335.319 215.425C335.702 214.469 336.149 213.512 336.596 212.492ZM374 176.46C370.617 179.266 357.851 204.074 356.511 210.451C357.021 210.005 357.404 209.75 357.723 209.494C359.574 207.709 361.489 205.987 363.34 204.201C367.234 200.439 371.064 196.676 374.957 192.913C375.532 192.403 375.66 191.766 375.596 191.064C375.34 188.896 375.149 186.791 374.894 184.623C374.638 182.136 374.447 179.712 374.192 177.225C374.192 176.97 374.128 176.779 374 176.46ZM341.255 258.217C341.702 257.643 341.957 257.324 342.149 257.069C346.234 250.883 350.255 244.697 354.34 238.575C355.17 237.363 355.17 236.279 354.851 235.004C354.468 233.728 354.149 232.453 353.894 231.177C353.383 228.945 352.936 226.777 352.426 224.545C352.234 223.78 351.979 223.014 351.596 221.803C350.957 223.078 350.447 223.907 350.064 224.864C348.787 228.116 347.574 231.305 346.426 234.557C345.851 236.152 345.34 237.746 344.957 239.404C344.383 242.019 344 244.697 343.426 247.312C342.723 250.564 341.894 253.753 341.128 257.005C341.064 257.324 341.192 257.643 341.255 258.217ZM300.021 309.172C302.128 296.29 305.957 284.173 309.66 271.801C309.213 271.928 308.957 271.928 308.766 272.056C306.34 273.395 303.66 274.033 300.979 274.543C299.574 274.798 299.383 274.926 299.575 276.456C299.766 277.732 300.149 279.007 300.149 280.346C300.34 286.405 300.468 292.463 299.064 298.522C298.489 301.2 298.426 304.07 297.66 306.748C297.532 307.195 297.66 307.769 297.66 308.343C298.489 308.598 299.128 308.853 300.021 309.172ZM316.426 415.482C320.319 410.188 323.128 404.449 325.681 398.709C326.128 397.689 326.447 396.541 327.34 395.712C327.915 395.202 327.723 394.628 326.957 394.5C326.383 394.373 325.809 394.436 325.234 394.436C322.617 394.564 320.064 394.755 317.511 393.926C316.745 393.671 315.915 393.48 314.83 393.225C314.83 393.99 314.83 394.564 314.83 395.202C315.021 398.645 315.213 402.089 315.468 405.469C315.532 406.298 315.468 407.191 315.532 408.02C315.723 410.443 315.404 412.867 316.426 415.482ZM121.106 148.846C120.787 150.632 120.532 152.29 120.277 153.948C120.085 155.224 119.957 156.627 119.511 157.838C119.064 159.114 119.255 160.134 119.957 161.218C122.255 164.79 124.298 168.552 125.511 172.634C125.894 174.037 126.532 175.44 127.043 176.779C127.17 176.779 127.234 176.715 127.362 176.715C127.362 176.205 127.426 175.695 127.426 175.185C127.426 172.506 127.362 169.891 127.362 167.213C127.362 163.259 126.915 159.433 125.447 155.734C124.745 153.948 124.106 152.099 123.34 150.313C122.957 149.612 122.447 148.719 121.106 148.846ZM180.468 389.717C180.34 389.59 180.213 389.462 180.085 389.271C176.511 390.036 173 390.929 169.298 392.077C170.957 394.819 172.553 397.306 174.149 399.857C174.596 399.602 174.915 399.538 175.043 399.347C176.83 396.158 178.681 392.97 180.468 389.717ZM241.298 300.754C239.511 300.562 238.426 301.71 237.787 303.113C237.021 304.58 236.575 306.238 236.064 307.833C236 308.088 236.255 308.725 236.447 308.725C237.915 309.044 239.255 310.065 240.915 309.554C241.362 307.641 241.872 305.792 242.319 303.879C242.447 303.368 242.255 302.731 242.064 302.157C241.872 301.774 241.553 301.391 241.298 300.754ZM232.872 306.94C233.702 306.621 233.957 306.047 233.894 305.282C233.894 304.835 233.83 304.261 234.021 303.879C234.851 302.221 234.213 300.69 233.511 299.159C232.681 297.374 232.106 297.182 230.383 298.267C229.809 298.649 229.426 299.096 229.426 299.797C229.426 300.499 229.426 301.2 229.362 301.838C229.17 304.453 230.447 306.047 232.872 306.94ZM244.234 311.085C244.617 311.085 245.064 311.021 245.447 311.085C245.83 311.149 246.213 311.404 246.66 311.468C248 311.723 248.447 311.404 248.638 310.001C248.702 309.554 248.766 309.172 248.83 308.725C249.021 307.45 249.213 306.111 249.34 304.835C249.404 303.56 248.83 302.667 247.872 302.221C244.745 304.516 243.596 307.386 244.234 311.085ZM183.34 396.668C183.213 396.668 183.149 396.668 183.021 396.668C182.383 397.944 181.745 399.156 181.106 400.431C180.468 401.643 179.638 402.536 178.17 402.791C177.085 402.982 176.83 403.747 177.532 404.64C178.681 406.234 179.894 407.829 181.17 409.423C181.362 409.678 181.745 409.742 182.064 409.997C182.319 407.064 182.575 404.257 182.894 401.515C183.021 400.367 183.213 399.219 183.34 398.072C183.404 397.561 183.34 397.115 183.34 396.668ZM251.575 311.34C253.362 311.85 254.83 311.468 255.596 309.873C256.362 308.215 256.872 306.43 257.447 304.708C257.702 304.006 257.255 303.432 256.553 303.05C255.915 302.667 255.468 302.731 254.83 303.113C253.681 303.751 252.851 304.516 252.915 305.919C252.915 306.238 252.787 306.557 252.723 306.812C252.34 308.279 251.957 309.746 251.575 311.34ZM260.766 306.876C260.83 306.94 260.957 307.004 261.021 307.131C261.468 306.493 262.681 306.94 262.617 305.856C262.553 304.899 261.532 305.218 260.766 305.027C260.766 305.728 260.766 306.302 260.766 306.876Z" fill="black"/>
<path d="M226.936 244.825C229.043 244.251 230.702 244.569 232.234 245.781C235.489 248.332 238.106 251.457 239.83 255.283C240.213 256.112 240.085 256.495 239.383 256.941C237.915 257.834 235.234 257.579 233.702 256.431C230.447 253.88 228.596 250.373 227.064 246.674C226.809 246.1 226.936 245.462 226.936 244.825Z" fill="black"/>
<path d="M228.723 336.212C229.17 333.342 229.362 330.855 230.702 328.559C231.596 326.964 233 326.263 234.723 326.327C235.936 326.327 236.447 326.773 236.319 327.985C236.191 329.579 235.936 331.237 235.489 332.768C235.043 334.362 234.404 335.829 233.83 337.36C233.191 339.018 230.255 339.655 229.17 338.252C228.787 337.678 228.851 336.722 228.723 336.212Z" fill="black"/>
<path d="M249.149 240.233C249.149 242.848 249.277 245.271 249.085 247.695C249.021 249.034 248.574 250.373 248.064 251.649C247.553 252.86 246.213 253.243 244.809 252.86C243.34 252.478 242.894 251.904 242.83 250.437C242.702 248.524 243.34 246.802 243.787 245.016C244.043 244.06 244.362 243.103 244.681 242.146C245.511 239.787 246.979 239.213 249.149 240.233Z" fill="black"/>
<path d="M245.83 335.255C246.149 333.724 246.404 332.13 246.787 330.663C246.979 329.962 247.553 329.579 248.319 329.579C249.085 329.579 249.723 329.898 249.915 330.599C250.362 332.066 250.681 333.533 251.064 335C251.638 337.423 251.702 339.974 252.915 342.27C253.298 342.971 252.979 343.418 252.085 343.545C250.17 343.864 248.575 343.035 247.489 341.186C246.66 339.655 245.957 337.104 245.83 335.255Z" fill="black"/>
<path d="M261.021 258.09C260.638 258.09 260.255 258.026 259.936 258.026C258.723 257.898 258.277 257.197 258.787 256.113C259.106 255.411 259.681 254.774 260.192 254.263C261.787 252.605 263.511 251.202 265.553 250.182C265.936 249.991 266.319 249.863 266.766 249.863C267.404 249.799 268.106 249.799 268.426 250.501C268.745 251.139 268.234 251.521 267.851 251.968C266.702 253.434 265.553 254.965 264.532 256.495C263.702 257.771 262.553 258.281 261.021 258.09Z" fill="black"/>
<path d="M269 326.199C269.957 326.072 270.404 326.582 270.979 327.475C272.638 330.344 274.426 333.087 276.213 335.893C276.34 336.084 276.532 336.211 276.596 336.403C276.915 336.977 276.596 337.487 275.958 337.423C275.255 337.296 274.426 337.168 273.915 336.722C272.192 335 270.596 333.214 269.064 331.428C268.426 330.663 267.979 329.77 267.468 328.941C267.404 328.878 267.34 328.75 267.277 328.686C266.638 327.028 267.149 326.263 269 326.199Z" fill="black"/>
<path d="M365.511 66.005C365.447 68.4284 364.936 70.5967 364.17 72.8287C363.66 74.2318 362.638 74.6782 361.426 74.8695C360.277 75.0608 358.809 73.9767 358.489 72.7012C358.106 71.2982 357.66 69.7676 357.787 68.3646C358.043 65.4948 358.809 62.6888 360.34 60.2017C360.979 59.1175 362.128 58.9262 363.277 59.1175C364.234 59.3088 364.617 59.9466 364.745 60.9032C365 62.6251 365.255 64.2832 365.511 66.005Z" fill="black"/>
<path d="M407.319 83.0324C408.085 83.4788 408.723 83.7977 409.426 84.1803C409.298 84.6905 409.298 85.0732 409.17 85.4558C408.915 85.966 408.532 86.0935 408.021 85.7747C407.574 85.5196 407.064 85.2645 406.553 85.0731C405.915 86.4762 405.468 87.6878 404.894 88.8358C404.447 89.7286 403.553 90.0474 402.66 89.7286C401.83 89.4097 401.638 88.6444 401.83 87.8792C402.979 83.16 404.83 78.9509 409.106 76.1449C409.809 75.6985 410.447 75.571 411.34 75.8261C411.213 76.2087 411.149 76.5276 410.957 76.7827C409.936 78.377 408.787 79.9713 407.766 81.6294C407.511 82.0758 407.447 82.6498 407.319 83.0324Z" fill="black"/>
<path d="M366.596 47.3833C367.489 46.3629 368.319 46.1716 369.34 46.8093C370.426 47.4471 371.383 48.2761 372.341 49.1052C373.553 50.1255 374.766 51.0821 375.915 52.1663C377.128 53.3142 376.936 53.9519 375.341 54.5259C374.064 54.9723 372.851 54.6534 371.894 53.8881C369.851 51.9749 368 49.8704 366.596 47.3833Z" fill="black"/>
<path d="M155.447 75.4434C155.894 72.8925 156.532 70.4053 158.383 68.4284C159.979 66.7065 160.936 66.7703 162.277 67.408C164 68.3008 164.702 69.3212 164.255 71.2344C163.745 73.5302 162.915 75.6985 161.255 77.3566C160.17 78.377 157.936 78.7596 156.723 77.9943C155.702 77.4841 155.319 76.5913 155.447 75.4434Z" fill="black"/>
<path d="M104 71.6808C103.681 69.7039 102.149 68.556 101.192 66.8979C102.34 66.4514 103.298 66.6428 104.255 67.3443C106.489 69.1299 108.213 71.2982 109.489 73.7854C110.319 75.3797 110.894 77.0378 111.596 78.6959C111.915 79.4612 112.298 80.2264 111.404 80.8004C110.638 81.2468 109.043 80.8642 108.532 80.1627C108.149 79.5887 107.894 78.951 107.575 78.377C107 77.1016 106.362 75.8261 105.851 74.4869C105.468 73.594 104.894 73.4665 103.936 73.594C102.66 73.7854 101.319 73.7854 99.9788 73.6578C100.872 71.9359 102.532 72.191 104 71.6808Z" fill="black"/>
<path d="M162.085 53.5691C161.83 54.0156 161.702 54.3982 161.447 54.7808C159.787 57.0767 157.872 59.1812 155.575 60.8393C154.681 61.5408 153.723 61.7321 152.638 61.1581C151.745 60.648 151.362 60.1378 151.872 59.3087C153.532 56.3114 155.383 53.5692 158.894 52.485C159.915 52.1661 160.681 52.4212 161.447 52.8039C161.702 52.9314 161.894 53.3141 162.085 53.5691Z" fill="black"/>
<path d="M474.979 443.095C470.958 445.646 466.681 447.368 462.34 449.026C461.638 449.281 460.809 449.345 459.979 449.345C459.149 449.345 458.575 448.899 458.383 448.07C457.809 445.455 457.17 442.84 456.532 440.226C456.277 439.142 456.66 438.312 457.426 437.547C459.723 435.315 462.404 433.912 465.532 433.338C466.298 433.211 467.064 432.828 467.766 432.637C468.532 432.445 469.298 432.19 470.064 432.126C471.532 432.063 471.979 432.509 472.298 433.976C472.745 435.953 473.128 437.866 473.638 439.843C473.83 440.672 474.277 441.374 474.596 442.203C474.851 442.458 474.915 442.84 474.979 443.095Z" fill="black"/>
<g clip-path="url(#clip1)">
<path d="M161.84 226.298C161.834 226.263 161.83 226.234 161.824 226.199C161.755 225.941 161.579 225.752 161.315 225.651C161.261 225.631 161.199 225.612 161.144 225.592C160.957 225.536 156.348 224.14 156.348 224.14C155.945 224.019 155.543 223.897 155.14 223.775L160.269 220.069C160.307 220.041 160.353 220.012 160.396 219.968C160.67 219.726 160.746 219.371 160.602 219.067C160.5 218.866 160.314 218.716 160.046 218.637C159.214 218.39 158.382 218.137 157.558 217.882L152.927 216.505C152.882 216.49 152.829 216.477 152.784 216.463C152.694 216.434 152.606 216.413 152.516 216.384C152.336 216.327 152.156 216.314 151.974 216.344C151.792 216.375 151.626 216.446 151.476 216.566C151.467 216.56 151.459 216.569 151.451 216.57L147.823 219.195C146.944 219.83 146.034 220.484 145.14 221.129C144.806 221.367 144.67 221.667 144.729 222.021C145.02 223.755 145.317 225.525 145.603 227.231L145.864 228.788C145.873 228.845 145.883 228.901 145.891 228.951C145.915 229.093 145.997 229.224 146.127 229.341C146.217 229.428 146.338 229.487 146.49 229.535C146.652 229.588 152.575 231.374 152.575 231.374C151.847 231.897 147.491 235.044 147.491 235.044C147.445 235.073 147.4 235.11 147.348 235.155C147.117 235.347 147.001 235.621 147.046 235.89C147.092 236.159 147.29 236.38 147.579 236.485C147.615 236.493 147.643 236.51 147.679 236.519L154.407 238.549L154.649 238.625C154.837 238.681 155.024 238.737 155.204 238.794C155.383 238.851 155.564 238.865 155.737 238.835C155.919 238.805 156.077 238.735 156.228 238.622L156.259 238.602L162.404 234.166L162.464 234.119C162.532 234.071 162.592 234.025 162.661 233.977C162.91 233.79 163.028 233.53 162.997 233.244C162.992 233.216 162.988 233.194 162.984 233.166L161.84 226.298ZM155.145 229.531C154.91 228.13 154.675 226.728 154.44 225.327C154.52 225.349 159.048 226.715 159.048 226.715C158.94 226.784 155.145 229.531 155.145 229.531ZM160.208 233.683L156.314 236.497C156.079 235.096 155.843 233.694 155.61 232.299C155.778 232.344 160.208 233.683 160.208 233.683ZM156.31 230.755C157.606 229.818 158.901 228.88 160.197 227.949C160.432 229.351 160.666 230.745 160.901 232.147C160.783 232.101 157.528 231.126 156.31 230.755ZM153.263 218.355C154.801 218.818 156.331 219.281 157.87 219.744C156.566 220.683 155.271 221.621 153.968 222.56L153.263 218.355ZM153.277 229.838C152.107 229.495 149.816 228.802 148.671 228.456C149.974 227.517 151.277 226.57 152.58 225.631C152.765 226.685 153.107 228.774 153.277 229.838ZM147.51 221.482C148.813 220.542 150.108 219.605 151.404 218.667C151.639 220.069 151.874 221.47 152.109 222.872C150.578 222.408 149.048 221.944 147.51 221.482ZM146.816 223.017C146.833 223.021 151.415 224.407 151.415 224.407C150.111 225.347 148.816 226.284 147.513 227.223C147.33 226.184 146.987 224.087 146.816 223.017ZM154.456 236.816C153.32 236.475 151.02 235.777 149.855 235.419C149.871 235.409 153.742 232.612 153.742 232.612C153.93 233.68 154.281 235.775 154.456 236.816Z" fill="black"/>
</g>
</g>
<defs>
<clipPath id="clip0">
<rect width="560" height="532" fill="white"/>
</clipPath>
<clipPath id="clip1">
<rect width="16.1681" height="22.8256" fill="white" transform="translate(144 217.674) rotate(-9.52051)"/>
</clipPath>
</defs>
</svg>
