<svg width="550" height="409" viewBox="0 0 550 409" fill="none" xmlns="http://www.w3.org/2000/svg">
<path d="M448.713 343.984C519.297 339.633 566.645 306.511 544.506 269.15C516.147 221.291 448.713 270.891 352.921 227.382C257.128 183.874 151.175 195.91 101.89 239.564C68.4886 269.15 0 263.929 0 323.97C0 360.952 95.5878 350.946 158.609 343.984C221.631 337.023 221.631 370.089 306.71 374.005C391.789 377.92 378.129 348.335 448.713 343.984Z" fill="white"/>
<path d="M219.961 145.762C219.961 145.105 220.016 144.776 219.961 144.502C219.196 142.093 218.65 139.629 218.486 137.055C218.376 135.357 218.103 133.605 218.048 131.907C217.939 129.06 218.376 126.212 218.923 123.365C219.305 121.174 219.633 118.984 220.234 116.848C220.89 114.548 221.765 112.303 222.639 110.113C224.115 106.279 225.699 102.501 227.23 98.7224C228.432 95.7106 229.634 92.6987 230.782 89.6321C231.82 86.8941 232.64 84.1561 232.749 81.199C232.859 78.6253 233.077 76.0515 233.35 73.4778C233.624 70.685 234.006 67.8922 234.443 65.1542C234.826 62.8542 235.318 60.5543 235.81 58.2544C236.192 56.502 236.52 54.6949 237.067 52.9426C237.777 50.6426 238.542 48.3975 239.417 46.1523C241.111 41.9357 243.188 37.8834 245.701 34.105C246.74 32.5717 247.833 31.0931 249.035 29.7241C251.986 26.329 255.32 23.4814 259.091 21.2362C261.222 19.922 263.517 18.991 265.867 18.2244C267.616 17.6768 269.42 17.1292 271.168 16.6911C272.425 16.3625 273.737 16.1983 275.049 15.9792C276.961 15.6507 278.874 15.2673 280.787 15.103C282.59 14.9388 284.394 14.9388 286.252 14.884C286.689 14.884 287.126 14.884 287.891 14.884C287.509 14.3912 287.29 14.0626 287.072 13.7888C285.815 12.146 284.558 10.5032 283.355 8.80558C282.426 7.43657 282.754 6.66992 284.285 6.17708C286.635 5.41043 289.039 5.30091 291.334 6.23184C292.209 6.5604 292.919 7.38181 293.684 7.98418C293.903 8.14846 294.231 8.42226 294.45 8.3675C294.668 8.31274 294.832 7.92941 294.887 7.65561C295.269 5.79375 295.925 4.15094 297.073 2.61764C298.658 0.42722 300.789 -0.284667 303.358 0.0986571C304.341 0.262939 305.161 0.481981 305.981 1.02959C307.784 2.23432 308.823 4.80806 308.276 6.99849C308.057 7.98418 307.784 8.96987 307.566 10.1198C308.221 10.0651 308.768 10.0651 309.26 9.90079C311.336 9.18891 313.468 9.46271 315.599 9.35319C316.801 9.29843 317.949 9.35319 319.151 9.46271C321.228 9.73651 323.25 10.1198 325.327 10.4484C327.568 10.8317 329.699 11.5436 331.776 12.4198C334.617 13.6793 337.022 15.5411 339.263 17.6768C341.995 20.3053 344.728 22.9338 347.406 25.6171C350.138 28.3551 352.597 31.3669 354.838 34.543C357.133 37.8834 359.702 41.0595 361.396 44.7833C362.926 48.1237 364.457 51.4093 365.932 54.7497C367.134 57.5425 368.009 60.4995 368.883 63.4566C369.867 66.7422 370.249 70.1374 370.796 73.4778C370.96 74.573 370.96 75.7777 370.96 76.8729C370.96 82.1847 370.96 87.4417 370.851 92.7535C370.796 94.7249 370.741 96.6963 370.249 98.5581C369.594 100.968 370.249 103.103 370.796 105.348C371.288 107.429 371.67 109.51 371.998 111.646C372.381 114.001 372.654 116.41 372.982 118.82C373.091 119.75 373.091 120.736 373.146 121.667C373.31 124.734 373.474 127.745 373.583 130.812C373.583 131.414 373.419 131.962 373.365 132.564C373.31 133.112 373.419 133.714 373.419 134.262C373.419 135.631 373.474 136.945 373.419 138.314C373.419 138.588 373.201 138.807 373.201 139.081C372.982 141.217 372.763 143.352 372.545 145.433C372.435 146.528 372.217 147.569 371.944 148.664C371.288 151.128 370.632 153.538 369.867 155.947C369.32 157.645 368.774 159.288 368.063 160.93C367.298 162.573 367.572 164.271 367.79 165.914C367.954 167.228 368.391 168.542 368.665 169.911C369.102 172.321 369.484 174.73 369.922 177.14C370.14 178.454 370.304 179.768 370.523 181.027C370.632 181.739 371.015 182.123 371.725 182.451C374.13 183.492 376.37 184.861 378.775 185.846C381.617 186.996 384.076 188.639 386.535 190.446C388.831 192.144 390.743 194.225 392.875 196.141C394.35 197.456 395.99 198.551 397.465 199.92C398.613 200.96 399.542 202.165 400.58 203.26C402.657 205.56 404.679 207.97 406.701 210.27C409.488 213.391 412.002 216.731 414.134 220.346C415.391 222.536 416.866 224.562 418.232 226.698C420.91 230.86 423.096 235.24 424.845 239.84C425.993 242.743 426.922 245.7 427.796 248.712C428.616 251.669 429.272 254.68 430.037 257.638C430.529 259.554 431.075 261.471 431.512 263.442C431.786 264.537 431.895 265.687 432.059 266.783C433.261 273.189 433.644 279.596 433.261 286.058C432.988 290.22 432.769 294.327 432.442 298.434C432.223 301.172 431.895 303.965 431.567 306.703C431.403 308.127 430.966 309.55 430.693 310.92C430.474 311.96 430.255 313.055 430.037 314.096C429.436 316.834 428.999 319.626 428.288 322.31C426.539 328.881 424.572 335.343 421.238 341.312C418.834 345.638 415.773 349.471 411.838 352.483C408.231 355.276 404.679 358.068 400.963 360.752C398.394 362.613 395.826 364.475 393.093 366.009C389.596 367.98 385.989 369.623 382.382 371.43C381.343 371.923 381.234 372.142 381.453 373.127C382.71 378.22 382.546 383.422 382.436 388.57C382.327 392.458 379.977 394.648 376.753 396.072C373.201 397.66 369.594 399.303 365.987 400.782C364.566 401.384 363.09 401.712 361.615 402.096C359.811 402.589 357.953 403.081 356.095 403.52C355.057 403.793 353.964 404.012 352.925 404.177C350.466 404.615 348.007 404.998 345.548 405.436C342.924 405.874 340.301 406.367 337.678 406.805C335.71 407.134 333.743 407.298 331.776 407.627C328.988 408.065 326.147 408.01 323.36 408.393C321.447 408.612 319.534 408.667 317.676 408.667C314.889 408.722 312.102 408.777 309.369 408.612C306.91 408.503 304.396 408.065 301.937 407.846C300.242 407.681 298.494 407.627 296.745 407.517C294.613 407.353 292.482 407.408 290.405 407.024C286.689 406.367 282.918 406.367 279.202 405.984C276.579 405.71 273.901 405.381 271.278 405.108C270.403 404.998 269.474 404.998 268.6 404.889C265.649 404.615 262.643 404.341 259.692 404.012C259.091 403.958 258.544 403.848 257.943 403.793C255.156 403.574 252.314 403.574 249.527 403.136C245.92 402.534 242.258 402.479 238.597 402.041C236.083 401.767 233.514 401.384 231.001 401.11C230.29 401.001 229.525 401.055 228.815 401.001C226.574 400.836 224.279 400.727 222.093 400.398C217.83 399.741 213.512 399.522 209.25 399.303C207.883 398.591 206.299 398.865 204.823 398.646C202.965 398.427 201.107 398.372 199.249 398.153C197.992 398.044 196.735 397.77 195.532 397.66C193.237 397.441 190.942 397.277 188.701 397.058C187.062 396.894 185.422 396.784 183.837 396.51C180.504 395.908 177.115 395.579 173.727 395.415C172.689 395.36 171.596 395.032 170.557 394.922C168.262 394.703 165.912 394.539 163.617 394.265C162.196 394.101 160.83 393.717 159.409 393.444C159.135 393.389 158.862 393.444 158.644 393.498C158.37 393.553 158.152 393.717 157.933 393.827C156.02 394.539 154.982 394.046 154.271 392.129C153.342 389.501 152.468 386.818 151.539 384.189C151.156 383.149 150.665 382.218 150.282 381.232C149.408 378.932 148.643 376.577 147.823 374.223C147.768 374.004 147.713 373.785 147.659 373.566C147.167 372.416 146.675 371.266 146.238 370.061C145.746 368.747 145.364 367.432 144.981 366.063C144.434 364.256 143.888 362.504 143.451 360.697C143.014 358.78 142.686 356.809 142.248 354.892C142.03 353.961 141.702 353.085 141.429 352.154C141.374 351.88 141.265 351.661 141.21 351.388C140.773 349.197 140.609 346.897 139.898 344.762C139.407 343.338 139.188 341.914 138.751 340.49C138.423 339.505 138.259 338.464 138.04 337.478C137.712 336.164 137.33 334.905 137.057 333.59C136.783 332.495 136.619 331.345 136.346 330.305C135.909 328.662 135.362 327.019 134.925 325.376C134.324 323.076 133.723 320.776 133.176 318.422C132.958 317.491 132.739 316.56 132.466 315.684C131.974 314.041 131.482 312.398 130.99 310.755C130.499 309.112 130.061 307.47 129.624 305.827C129.351 304.732 129.078 303.636 128.804 302.541C128.477 301.336 128.094 300.186 127.766 298.982C127.493 297.941 127.329 296.846 127.056 295.806C126.837 294.984 126.509 294.163 126.291 293.341C126.017 292.191 125.689 291.096 125.471 289.946C125.198 288.413 124.924 286.88 124.432 285.346C123.995 283.923 123.995 282.389 123.777 280.911C123.613 279.98 123.777 278.994 122.902 278.282C122.848 278.227 122.793 278.118 122.793 278.063C122.246 275.161 120.771 272.587 120.115 269.74C119.623 267.494 119.241 265.194 118.858 262.949C118.476 260.595 118.202 258.295 117.929 255.94C117.82 255.173 117.82 254.407 117.82 253.64C117.328 249.369 117 244.933 117 240.552C117 236.938 117.164 233.379 117.601 229.819C117.984 226.479 118.53 223.193 119.514 219.962C120.716 215.965 121.809 211.967 123.012 208.024C123.831 205.286 124.651 202.494 125.689 199.81C126.673 197.182 127.875 194.553 129.078 191.98C130.608 188.803 132.193 185.682 133.832 182.561C134.707 180.863 135.636 179.22 136.674 177.632C137.111 176.975 137.275 176.373 137.057 175.716C136.182 173.197 137.166 171.171 138.642 169.199C140.008 167.447 141.21 165.585 142.631 163.942C146.402 159.507 150.118 155.071 154.053 150.8C156.512 148.171 159.354 145.981 162.414 144.009C165.202 142.202 167.989 140.176 169.628 137.055C170.885 134.591 171.978 132.072 172.689 129.388C173.454 126.596 174.383 123.857 175.203 121.119C175.804 119.039 176.35 116.958 177.006 114.877C177.553 113.015 178.044 111.153 178.973 109.401C179.575 108.251 179.793 106.882 180.285 105.732C181.159 103.76 182.526 102.172 184.438 101.077C187.554 99.2152 192.527 101.406 193.456 104.637C194.221 107.21 194.658 109.729 194.439 112.413C194.276 114.22 194.057 116.027 194.002 117.834C194.002 118.327 194.33 118.929 194.713 119.367C196.844 121.777 199.085 124.131 201.161 126.596C203.402 129.279 205.424 132.072 207.61 134.81C208.703 136.179 209.742 137.602 210.889 138.862C211.436 139.464 212.255 139.848 212.966 140.34C215.261 142.038 217.939 143.243 219.961 145.762ZM358.828 99.6533C358.882 99.8176 358.992 99.9271 359.046 100.091C359.101 100.037 359.155 99.9819 359.21 99.9271C359.101 99.8724 358.937 99.7629 358.828 99.6533C358.773 99.489 358.882 99.1605 358.773 99.051C357.735 97.3534 357.133 95.382 355.658 93.9582C354.018 92.3702 352.488 90.6726 350.794 89.0845C350.193 88.5369 349.646 87.6608 348.553 87.7155C348.499 87.9893 348.389 88.3179 348.499 88.5369C348.936 89.8512 349.318 91.2202 350.411 92.2059C353.035 94.6701 355.712 97.1344 358.39 99.5986C358.445 99.6533 358.664 99.6533 358.828 99.6533ZM203.73 134.7L203.785 134.755C203.785 134.755 203.73 134.7 203.73 134.7C203.02 133.824 202.364 132.893 201.599 132.017C197.718 127.691 193.838 123.365 189.903 119.093C189.521 118.71 189.193 118.272 188.756 117.943C187.991 117.396 187.335 117.779 187.28 118.71C187.226 119.641 187.663 120.353 188.264 121.01C189.794 122.598 191.324 124.186 192.855 125.774C194.658 127.581 196.462 129.388 198.374 131.086C199.686 132.236 201.107 133.222 202.528 134.262C202.91 134.481 203.347 134.536 203.73 134.7ZM277.508 60.7733C277.125 61.0471 276.688 61.2662 276.36 61.5947C275.541 62.4709 274.885 63.4018 274.065 64.2233C271.059 67.1803 268.381 70.4112 266.195 73.9706C264.774 76.3801 263.353 78.7896 262.26 81.3633C260.949 84.3751 260.676 87.6608 260.566 90.9464C260.512 94.1225 260.949 97.1891 261.605 100.256C262.042 102.227 262.315 104.308 262.916 106.17C264.556 111.044 266.742 115.698 269.638 119.969C273.136 125.117 277.235 129.772 281.607 134.207C285.432 138.04 289.422 141.764 292.264 146.528C292.591 147.131 293.083 147.35 293.739 147.24C294.887 147.076 296.089 146.966 297.237 146.802C298.603 146.583 299.915 146.364 301.226 146.145C302.92 145.871 304.56 145.433 305.981 144.393C306.8 143.79 307.62 143.243 308.331 142.586C308.713 142.257 308.986 141.709 309.15 141.217C309.478 140.45 309.642 139.574 309.97 138.807C310.517 137.383 311.282 136.014 311.774 134.591C313.085 130.429 315.435 126.76 317.403 122.927C319.315 119.093 321.447 115.37 323.305 111.536C324.726 108.579 325.873 105.458 327.076 102.391C327.732 100.803 328.278 99.1605 328.825 97.5724C329.48 95.5463 330.081 93.5202 330.628 91.494C331.175 89.4131 331.776 87.2774 332.049 85.1418C332.431 82.2942 332.431 79.4467 331.666 76.6539C330.737 73.2587 329.152 70.1922 327.021 67.4541C325.546 65.5923 323.742 63.9495 322.048 62.3066C319.971 60.2805 317.731 58.3639 315.654 56.3377C314.561 55.2973 313.632 54.1473 312.593 53.1069C307.347 47.7951 302.756 41.9357 299.095 35.474C298.603 34.5978 298.056 33.7216 297.51 32.7359C297.237 33.1193 297.018 33.2835 296.909 33.5574C296.089 35.1454 295.379 36.843 294.559 38.431C291.061 45.0023 286.908 51.0807 281.552 56.283C280.623 57.1591 279.694 58.0353 278.874 58.9662C278.218 59.5686 277.836 60.2257 277.508 60.7733C277.508 60.7733 277.453 60.8281 277.508 60.7733ZM315.599 403.355C316.255 403.41 316.638 403.465 317.075 403.41C319.315 403.246 321.501 403.136 323.742 402.917C326.147 402.698 328.551 402.479 330.901 402.26C331.011 402.26 331.065 402.26 331.175 402.205C332.978 401.932 334.727 401.603 336.53 401.329C338.17 401.055 339.864 400.891 341.503 400.617C342.815 400.398 344.072 400.179 345.384 399.96C346.914 399.686 348.389 399.358 349.92 399.084C351.34 398.81 352.761 398.646 354.182 398.372C355.275 398.208 356.423 397.989 357.516 397.77C359.593 397.277 361.669 396.839 363.691 396.291C365.222 395.908 366.697 395.36 368.173 394.867C369.758 394.265 371.342 393.663 372.927 393.006C374.239 392.458 375.551 391.856 376.862 391.308C376.808 390.487 376.807 389.775 376.753 389.118C376.589 387.639 376.425 386.161 376.261 384.682C376.206 384.134 376.152 383.587 376.097 383.039C375.988 382.273 375.824 381.506 375.824 380.739C375.769 379.261 375.824 377.727 375.824 376.249C375.824 375.92 375.824 375.592 375.878 375.318C376.152 373.949 376.152 373.949 374.731 373.894C373.528 373.894 372.272 373.949 371.069 373.73C368.774 373.347 366.479 372.744 364.183 372.306C362.052 371.923 360.03 371.101 358.062 370.335C354.947 369.075 352.106 367.268 349.209 365.461C346.477 363.763 343.853 361.956 341.667 359.602C340.246 358.068 338.935 356.48 337.569 354.892C336.421 353.523 335.219 352.264 334.29 350.785C332.759 348.376 331.448 345.857 330.027 343.447C326.912 338.136 324.507 332.495 322.758 326.581C321.993 324.062 321.228 321.598 320.572 319.024C319.971 316.779 319.479 314.424 319.042 312.124C318.769 310.591 318.55 309.058 318.386 307.524C318.058 304.841 317.567 302.213 317.512 299.529C317.348 294.382 317.348 289.234 317.403 284.087C317.403 280.473 317.567 276.913 317.731 273.299C317.894 269.849 318.222 266.399 318.496 262.949C318.66 260.704 318.55 258.404 318.933 256.159C319.37 253.585 319.37 250.902 319.589 248.273C319.807 245.809 320.026 243.29 320.408 240.826C320.736 238.581 321.337 236.39 321.775 234.2C321.829 233.926 321.72 233.598 321.72 233.543C320.244 232.886 318.878 232.393 317.621 231.681C314.834 230.093 312.867 227.574 310.954 225C309.041 222.426 307.511 219.634 306.254 216.677C305.106 213.993 303.849 211.31 302.702 208.627C301.827 206.655 301.062 204.684 300.133 202.439C299.86 202.932 299.641 203.315 299.532 203.644C299.423 204.082 299.477 204.575 299.368 205.013C298.712 207.532 298.056 209.996 297.346 212.46C296.417 215.581 295.543 218.703 294.504 221.769C293.411 225 291.826 227.957 289.64 230.586C288.602 231.845 287.454 232.94 285.979 233.488C283.629 234.419 281.115 234.364 278.656 233.488C275.267 232.229 272.863 229.874 271.005 226.917C268.873 223.522 267.452 219.853 266.031 216.129C264.774 212.789 264.119 209.339 263.517 205.889C262.971 202.932 262.698 199.975 262.424 196.963C262.151 194.389 261.933 191.815 261.769 189.187C261.659 186.668 261.55 184.094 262.151 181.575C262.315 180.863 261.987 180.589 261.058 180.644C258.763 180.699 256.522 180.754 254.227 180.863C251.221 181.027 248.27 181.082 245.264 181.575C241.821 182.068 238.925 183.492 236.247 185.573C231.766 189.023 227.339 192.582 223.186 196.525C220.617 198.989 218.103 201.617 215.644 204.191C214.004 205.944 212.529 207.915 210.835 209.667C209.304 211.255 207.665 212.734 206.08 214.267C203.02 217.279 200.123 220.4 196.516 222.755C193.073 225 189.466 226.753 185.695 228.231C182.58 229.436 179.411 229.162 176.514 227.629C174.875 226.753 173.508 225.384 172.087 224.124C170.994 223.138 170.229 221.934 169.792 220.51C169.355 218.977 168.754 217.498 168.808 215.91C168.863 214.76 168.754 214.76 167.661 214.486C166.786 214.267 165.912 213.993 165.092 213.665C162.25 212.46 159.9 210.489 157.878 208.189C153.397 203.096 149.681 197.456 145.91 191.815C143.888 188.803 142.084 185.737 140.117 182.506C139.844 182.725 139.516 182.889 139.352 183.163C138.915 183.93 138.478 184.751 138.095 185.573C136.128 189.789 134.051 193.951 132.302 198.277C130.99 201.453 129.952 204.739 128.859 207.97C128.203 209.886 127.711 211.858 127.11 213.829C126.618 215.527 126.072 217.224 125.689 218.922C125.198 221.003 124.76 223.084 124.378 225.164C124.05 227.136 123.667 229.107 123.503 231.079C123.285 233.817 123.121 236.609 123.066 239.402C123.012 242.14 123.012 244.878 123.175 247.616C123.339 251.066 123.667 254.516 123.995 257.966C124.159 259.828 124.378 261.69 124.706 263.497C125.088 265.578 125.689 267.604 126.127 269.685C126.673 272.423 127.766 274.942 128.914 277.406C129.023 277.625 129.187 277.899 129.406 277.954C130.061 278.173 130.717 278.337 131.373 278.556C133.34 279.158 135.308 279.761 137.33 280.363C138.314 280.692 139.297 281.02 140.281 281.239C141.757 281.513 143.287 281.677 144.817 281.951C147.003 282.28 149.134 282.718 151.32 283.046C152.577 283.265 153.834 283.43 155.091 283.649C156.731 283.923 158.316 284.306 159.955 284.58C160.939 284.744 161.923 284.908 162.906 285.073C163.945 285.292 164.983 285.511 166.076 285.675C167.606 285.894 169.136 286.003 170.667 286.277C174.82 286.989 178.973 287.92 183.182 288.468C185.313 288.741 187.444 289.234 189.576 289.618C191.106 289.891 192.691 290.165 194.221 290.439C195.587 290.658 196.953 290.932 198.374 291.096C199.959 291.315 201.599 291.315 203.074 291.753C204.932 292.301 206.736 292.629 208.649 292.739C209.14 292.794 209.742 292.629 210.124 292.301C211.709 291.096 213.294 289.946 214.715 288.577C216.409 286.989 217.83 285.237 219.524 283.649C222.202 281.075 224.989 278.556 227.776 276.037C227.885 275.928 228.049 275.928 228.213 275.818C228.869 282.773 228.705 289.727 230.782 296.463C232.476 296.846 234.17 297.229 235.864 297.558C238.597 298.051 241.329 298.489 244.007 298.982C245.537 299.256 247.068 299.584 248.653 299.858C249.8 300.077 251.003 300.186 252.15 300.46C254.282 300.953 256.413 301.501 258.599 301.939C259.692 302.158 260.621 302.651 261.605 303.253C261.004 304.293 261.113 305.334 261.495 306.429C261.605 306.703 261.659 306.977 261.659 307.251C261.769 310.81 261.987 314.315 262.643 317.819C262.971 319.462 262.971 321.215 263.299 322.912C263.736 325.103 263.791 327.348 263.955 329.538C264.119 331.619 264.283 333.7 264.501 335.781C264.501 336.055 264.556 336.328 264.61 336.602C264.884 338.409 265.266 340.271 265.485 342.078C265.758 344.269 265.813 346.459 266.141 348.595C266.578 351.607 267.124 354.618 267.671 357.575C268.053 359.875 268.491 362.121 268.819 364.421C269.256 367.378 269.584 370.335 269.966 373.292C270.185 374.88 270.403 376.523 270.622 378.111C270.622 378.165 270.622 378.22 270.677 378.22C271.005 380.246 271.496 382.218 271.606 384.244C271.715 386.544 271.824 388.844 272.644 391.144C273.191 391.308 273.901 391.691 274.557 391.746C277.563 391.965 280.623 392.075 283.629 392.294C286.361 392.458 289.094 392.677 291.826 392.896C293.302 393.006 294.777 393.225 296.253 393.389C298.22 393.608 300.188 393.772 302.155 394.046C304.068 394.32 305.981 394.758 307.893 395.086C309.15 395.306 310.407 395.47 311.61 395.853C312.703 396.236 313.905 396.127 314.998 396.729C317.129 397.825 316.965 397.934 316.856 400.398C316.856 401.001 316.419 401.548 316.146 402.151C315.872 402.589 315.763 402.862 315.599 403.355ZM331.065 203.425C330.792 205.122 330.573 206.546 330.355 207.915C330.136 209.12 329.918 210.324 329.644 211.529C329.371 212.734 329.043 213.884 328.825 215.089C328.551 216.896 328.387 218.703 328.169 220.455C327.895 222.207 327.622 223.96 327.294 225.712C326.912 227.574 326.475 229.436 326.092 231.298C325.655 233.488 325.218 235.679 324.89 237.869C324.507 240.114 324.179 242.359 323.851 244.55C323.742 245.481 323.687 246.466 323.578 247.397C323.36 250.081 323.032 252.709 322.922 255.392C322.758 258.295 322.813 261.252 322.704 264.154C322.649 265.852 322.376 267.604 322.376 269.301C322.267 272.532 322.212 275.763 322.267 278.994C322.376 285.62 321.939 292.301 322.758 298.927C323.032 301.117 323.141 303.253 323.36 305.443C323.633 308.784 324.234 312.069 324.999 315.355C325.163 316.122 325.382 316.943 325.6 317.71C326.037 319.462 326.42 321.214 326.966 322.967C327.677 325.267 328.606 327.457 329.371 329.757C330.628 333.536 332.213 337.15 334.126 340.654C337.131 346.131 340.957 351.004 345.001 355.714C345.711 356.535 346.531 357.411 347.46 358.014C350.521 360.04 353.581 361.956 356.696 363.873C358.882 365.187 361.178 366.337 363.746 366.885C365.112 367.213 366.479 367.542 367.845 367.816C368.993 368.035 370.14 368.309 371.342 368.363C374.02 368.473 376.698 368.473 379.376 368.363C380.524 368.309 381.781 368.199 382.819 367.706C385.169 366.611 387.464 365.461 389.596 364.092C394.077 361.19 398.394 358.123 402.438 354.673C405.881 351.771 409.434 349.033 412.276 345.419C415.719 341.038 418.123 336.109 420.036 330.962C421.02 328.333 421.566 325.595 422.386 322.912C423.315 319.791 424.08 316.615 424.517 313.384C424.681 312.179 424.954 310.974 425.173 309.77C425.446 308.236 425.829 306.648 426.047 305.115C426.43 301.665 426.758 298.16 427.031 294.656C427.304 291.096 427.523 287.482 427.632 283.868C427.687 281.13 427.851 278.447 427.304 275.708C426.703 272.642 426.43 269.521 425.993 266.399C425.829 265.304 425.61 264.264 425.392 263.168C424.9 261.142 424.408 259.116 423.916 257.09C423.479 255.228 423.151 253.366 422.659 251.504C422.058 249.204 421.293 246.904 420.637 244.604C420.091 242.797 419.599 240.936 418.888 239.183C417.413 235.733 415.882 232.229 413.751 229.107C411.674 226.041 409.707 222.919 407.794 219.798C405.772 216.458 403.422 213.446 400.69 210.653C398.613 208.517 396.646 206.217 394.733 203.863C393.64 202.494 392.437 201.344 391.126 200.248C389.705 199.098 388.284 197.948 386.918 196.689C386.043 195.922 385.388 194.882 384.513 194.17C382.983 193.02 381.343 192.144 379.759 191.103C377.354 189.515 374.895 187.982 372.49 186.394C372.217 186.23 371.944 186.12 371.452 185.846C371.506 186.504 371.452 186.942 371.561 187.38C371.889 188.913 372.217 190.501 372.654 191.98C373.747 195.594 374.458 199.263 375.168 202.932C375.605 205.232 375.988 207.586 376.425 209.886C376.644 211.036 376.807 212.186 377.081 213.336C377.518 215.308 378.064 217.279 378.502 219.25C378.939 221.331 379.376 223.412 379.759 225.493C380.25 227.957 380.797 230.476 381.234 232.94C381.726 235.679 382.054 238.417 382.491 241.155C382.655 242.25 382.874 243.4 383.092 244.495C383.366 245.919 383.693 247.343 383.967 248.766C384.24 250.3 384.404 251.833 384.677 253.311C384.896 254.516 385.114 255.721 385.333 256.926C385.606 258.459 385.879 259.992 386.207 261.471C386.59 263.387 386.972 265.359 387.519 267.275C388.065 269.301 388.831 271.328 389.486 273.354C390.306 275.873 390.962 278.446 391.782 280.965C392.984 284.58 394.296 288.194 395.553 291.808C395.717 292.191 395.88 292.575 396.427 292.41C396.482 292.191 396.536 291.972 396.536 291.753C396.536 288.796 396.591 285.839 396.536 282.882C396.536 282.006 396.318 281.13 396.208 280.254C397.739 279.925 398.012 279.98 398.558 281.075C398.832 281.623 399.105 282.225 399.214 282.827C399.761 285.511 400.416 288.139 400.362 290.877C400.362 293.341 400.362 295.806 400.416 298.27C400.416 299.091 400.143 299.858 399.378 300.186C397.411 301.117 395.389 300.625 394.514 298.598C393.203 295.641 391.782 292.684 390.689 289.672C389.377 286.223 388.393 282.663 387.191 279.158C386.317 276.639 385.497 274.12 384.459 271.656C382.491 266.947 381.507 261.964 380.305 257.035C379.759 254.899 379.485 252.654 379.048 250.519C378.83 249.478 378.556 248.383 378.338 247.343C377.846 245.152 377.409 243.016 376.971 240.826C376.534 238.581 376.152 236.39 375.66 234.145C375.223 232.01 374.731 229.874 374.239 227.793C373.802 225.822 373.474 223.795 372.982 221.824C372.217 218.538 371.506 215.308 371.342 211.912C371.233 210.215 371.015 208.572 370.851 206.929C370.851 206.874 370.741 206.765 370.577 206.491C370.031 206.601 369.375 206.655 368.719 206.874C367.79 207.148 366.916 207.586 366.041 207.696C363.09 208.079 360.085 208.408 357.133 208.627C355.931 208.736 354.674 208.408 353.472 208.408C351.067 208.353 348.663 208.408 346.258 207.86C344.072 207.422 341.886 207.203 339.7 206.71C337.077 206.163 334.617 205.177 332.377 203.698C331.994 203.753 331.612 203.644 331.065 203.425ZM185.204 174.018C184.93 175.716 184.712 177.194 184.438 178.673C184.275 179.604 184.056 180.535 183.837 181.466C183.564 182.78 183.236 184.094 182.908 185.408C182.635 186.558 182.362 187.708 182.034 188.858C181.597 190.501 181.214 192.199 180.777 193.841C180.34 195.43 179.957 197.018 179.465 198.551C178.809 200.632 178.099 202.658 177.443 204.739C176.678 207.148 176.022 209.612 174.547 211.693C174.274 212.077 174.164 212.624 174.164 213.117C174.11 214.87 174.164 216.677 174.765 218.374C175.421 220.127 176.077 221.879 178.044 222.591C179.192 222.974 180.285 223.412 181.706 223.029C183.345 222.591 184.985 222.207 186.57 221.386C189.357 219.962 191.871 218.155 194.112 215.965C196.516 213.61 199.085 211.365 201.38 208.901C204.823 205.286 208.047 201.508 211.436 197.784C212.966 196.087 214.551 194.334 216.245 192.801C219.579 189.789 223.022 186.887 226.465 183.985C228.978 181.849 231.93 180.261 234.99 179.111C238.324 177.906 241.821 177.359 245.374 177.085C250.292 176.701 255.265 176.592 260.238 177.03C260.785 177.085 261.386 177.03 261.823 176.756C263.736 175.716 265.594 174.621 266.851 172.759C268.272 170.678 269.365 168.378 270.294 166.023C271.059 164.106 271.005 163.887 270.13 162.683C269.584 161.916 269.256 161.807 268.436 162.299C267.671 162.737 266.906 163.285 266.195 163.778C264.829 164.764 263.408 165.585 261.714 165.914C260.457 166.133 259.2 166.352 257.943 166.516C253.134 167.283 248.379 167.009 243.734 165.311C239.963 163.942 236.52 162.026 233.35 159.616C231.766 158.411 230.235 157.152 228.705 155.838C226.574 153.976 224.388 152.059 222.748 149.65C222.53 149.376 222.202 149.157 221.765 148.719C221.765 149.54 221.819 150.033 221.765 150.526C221.655 151.019 221.491 151.566 221.218 152.004C220.508 152.99 220.398 152.99 221.273 153.921C222.912 155.728 224.606 157.426 226.246 159.233C227.831 160.985 229.197 162.902 229.962 165.147C230.29 166.187 230.181 167.392 230.673 168.268C231.164 169.199 232.203 169.911 232.968 170.678C233.624 171.335 233.624 171.992 233.132 172.978C231.93 172.43 230.563 171.992 229.689 171.061C228.596 169.966 227.558 169.09 225.918 168.706C223.732 168.214 221.983 166.735 220.398 165.202C220.016 164.818 219.688 164.654 219.087 164.764C218.212 164.983 217.338 165.092 216.409 165.147C215.862 165.202 215.261 165.147 214.551 165.147C214.605 165.695 214.551 166.023 214.605 166.352C214.66 166.845 214.824 167.337 214.879 167.83C215.152 170.24 214.114 171.718 211.764 172.102C210.671 172.321 209.523 172.211 208.375 172.266C207.938 172.266 207.501 172.321 207.064 172.321C207.064 172.978 207.064 173.416 207.064 173.854C207.064 175.551 206.626 176.044 205.096 176.701C202.746 177.632 200.56 176.866 198.32 176.373C196.462 175.99 194.658 175.442 192.8 175.004C190.996 174.621 189.193 174.292 187.335 173.963C186.624 174.073 185.914 174.073 185.204 174.018ZM193.51 150.471C194.713 150.526 195.86 150.635 196.844 151.402C198.046 152.278 199.249 153.1 200.506 153.921C203.785 156.111 207.064 158.192 210.233 160.438C211.326 161.204 212.365 162.026 213.731 162.354C215.316 162.737 216.19 162.08 215.972 160.438C215.808 159.342 215.316 158.521 214.551 157.754C210.561 153.592 205.916 150.088 201.763 146.145C200.342 144.776 198.757 143.571 197.281 142.257C196.899 141.928 196.68 141.436 196.352 140.943C197.555 140.559 198.538 140.505 199.413 141.107C201.817 142.75 204.222 144.447 206.626 146.09C208.485 147.405 210.233 148.938 212.419 149.759C213.294 150.088 214.168 150.416 215.207 149.814C214.769 147.952 214.114 146.255 212.638 145.05C211.928 144.502 211.217 143.9 210.507 143.407C207.501 141.381 204.44 139.3 201.38 137.329C198.866 135.686 196.735 133.605 194.494 131.633C193.073 130.429 191.598 129.224 190.231 127.965C188.974 126.815 187.936 125.446 186.734 124.241C185.313 122.817 184.329 121.284 183.837 119.258C183.509 117.724 184.165 116.355 185.75 116.081C186.351 115.972 187.007 116.027 187.663 116.027C188.1 116.027 188.537 116.027 189.029 116.027C189.084 115.37 189.084 114.877 189.084 114.384C189.193 113.015 189.412 111.701 189.357 110.332C189.302 108.689 188.974 106.991 188.701 105.348C188.647 105.075 188.373 104.856 188.155 104.637C186.461 105.732 185.695 107.32 185.04 109.017C184.111 111.536 183.291 114.165 182.416 116.684C181.87 118.327 181.269 120.024 180.722 121.667C179.52 125.007 178.482 128.457 177.115 131.743C175.749 135.193 173.946 138.424 171.596 141.271C170.885 142.148 170.557 143.078 170.94 144.174C171.541 145.926 171.924 147.733 172.962 149.321C174.055 151.019 174.929 152.881 175.694 154.742C177.225 158.302 178.646 161.916 180.176 165.475C180.941 167.228 181.925 168.98 182.799 170.678C182.908 170.952 183.182 171.225 183.455 171.28C185.149 171.663 186.898 172.047 188.647 172.321C189.958 172.54 191.215 172.704 192.527 172.868C194.822 173.087 197.063 173.799 199.249 174.456C199.85 174.621 200.506 174.675 201.161 174.621C201.435 174.621 201.981 174.347 201.981 174.128C202.091 173.197 202.2 172.211 202.036 171.335C201.927 170.842 201.38 170.404 200.943 170.075C198.32 168.214 195.642 166.461 193.073 164.599C192.035 163.833 191.051 162.957 190.669 161.587C191.598 160.93 192.417 161.478 193.183 161.861C194.439 162.518 195.642 163.23 196.789 163.942C199.522 165.695 202.254 167.392 204.987 169.199C205.971 169.856 206.954 169.802 207.993 169.637C208.703 169.528 209.14 169.09 209.086 168.323C209.031 167.721 208.812 167.118 208.703 166.461C208.102 163.942 206.79 161.861 204.768 160.328C202.746 158.795 200.56 157.371 198.538 155.838C196.953 154.633 195.478 153.319 194.002 152.004C193.565 151.785 193.128 151.347 193.51 150.471ZM165.912 146.474C164.764 147.35 163.781 147.952 162.961 148.774C160.775 150.909 158.589 153.045 156.512 155.345C153.397 158.849 150.391 162.409 147.331 165.968C145.254 168.378 143.56 171.171 141.046 173.197C140.773 173.416 140.718 174.018 140.773 174.401C141.046 176.099 141.866 177.632 142.904 179.001C147.276 184.915 151.266 191.049 155.31 197.237C157.551 200.687 159.9 204.027 162.414 207.313C163.453 208.682 164.874 209.832 166.131 210.982C166.841 211.639 167.169 211.529 167.825 210.762C167.989 210.543 168.153 210.324 168.317 210.105C169.628 208.024 170.503 205.779 171.268 203.425C172.251 200.413 173.29 197.456 174.219 194.389C175.093 191.596 175.749 188.694 176.569 185.901C177.389 183.163 178.263 180.48 179.083 177.742C179.192 177.359 179.028 176.866 178.864 176.482C178.099 175.059 177.225 173.69 176.514 172.211C174.601 168.268 172.798 164.326 170.994 160.328C169.464 156.933 168.153 153.483 167.114 149.924C166.732 148.938 166.349 147.843 165.912 146.474ZM353.964 206.491C355.166 206.382 356.751 206.053 358.39 205.998C362.38 205.834 366.041 204.41 369.703 202.932C370.195 202.713 370.523 202.439 370.468 201.782C370.249 200.194 370.14 198.606 369.922 197.072C369.758 196.032 369.484 195.046 369.266 194.006C368.829 192.034 368.446 190.118 368.009 188.146C367.572 186.284 367.025 184.477 366.533 182.67C366.041 180.754 365.55 178.837 365.058 176.866C364.62 175.004 364.129 173.197 363.801 171.28C363.473 169.692 363.364 168.049 363.09 166.461C363.036 166.023 362.653 165.476 362.325 165.366C361.396 165.037 360.412 164.709 359.429 164.709C357.461 164.654 355.439 164.709 353.417 164.818C351.942 164.873 350.466 164.818 348.936 165.202C347.679 165.53 346.75 166.023 346.149 167.118C344.673 169.802 343.143 172.43 341.831 175.223C339.755 179.604 337.896 184.039 335.929 188.42C334.235 192.199 333.361 196.196 332.978 200.358C332.923 201.234 333.251 201.617 333.907 201.891C334.563 202.165 335.273 202.439 335.874 202.822C338.388 204.52 341.285 205.396 344.236 205.724C347.406 206.163 350.466 206.217 353.964 206.491ZM363.637 161.697C364.238 160.109 364.894 158.521 365.495 156.823C365.877 155.783 366.26 154.688 366.533 153.592C366.97 151.731 367.408 149.924 367.736 148.007C368.118 145.816 368.446 143.626 368.61 141.381C368.883 137.438 368.446 133.55 368.118 129.662C368.063 129.115 368.009 128.567 367.954 128.019C367.681 126.157 367.244 124.241 367.189 122.379C367.08 119.75 366.697 117.177 365.768 114.767C364.784 112.303 363.473 109.839 361.943 107.703C359.702 104.527 356.969 101.679 354.237 98.8867C352.16 96.751 349.756 95.3272 347.023 94.3416C345.493 93.7392 344.509 94.5606 344.673 96.2034C344.673 96.4225 344.728 96.6415 344.837 96.8605C345.657 98.8867 346.641 100.749 348.116 102.391C349.428 103.815 350.685 105.294 351.832 106.827C353.69 109.291 355.439 111.865 357.243 114.439C358.609 116.465 360.03 118.436 361.287 120.517C361.943 121.612 362.325 122.872 362.708 124.131C362.872 124.679 362.872 125.336 362.216 125.665C361.56 125.938 360.959 125.884 360.467 125.391C359.757 124.679 358.992 123.967 358.39 123.091C357.024 121.065 355.822 118.984 354.565 116.903C354.073 116.081 353.417 115.534 352.597 115.096C351.013 114.22 349.482 113.343 347.734 112.851C346.203 112.413 344.728 112.084 343.143 112.96C343.088 113.727 343.471 114.439 343.963 114.932C345.711 116.903 347.515 118.765 349.318 120.681C350.849 122.269 352.488 123.748 353.854 125.446C355.603 127.636 356.642 130.155 357.297 132.838C357.844 135.029 358.39 137.164 358.281 139.409C358.172 140.888 357.68 142.148 356.204 142.805C355.002 143.352 353.745 143.462 352.488 143.407C350.794 143.407 349.428 142.586 348.553 141.162C347.898 140.067 347.351 138.917 346.914 137.767C345.875 135.138 344.837 132.455 343.088 130.155C342.378 129.224 341.722 128.238 340.52 127.8C339.099 129.005 338.989 130.648 339.099 132.291C339.317 135.412 340.738 138.205 341.722 141.107C342.76 144.283 343.744 147.459 344.673 150.69C345.22 152.497 345.493 154.414 345.93 156.221C346.422 158.138 346.859 160.109 346.914 162.08C346.914 162.354 346.968 162.573 347.078 162.957C347.624 162.902 348.116 162.902 348.608 162.847C350.193 162.573 351.778 162.19 353.417 161.971C355.603 161.697 357.844 161.588 360.03 161.478C361.123 161.642 362.325 161.697 363.637 161.697ZM275.486 167.502C274.885 169.309 274.448 170.952 273.901 172.485C273.628 173.197 273.682 173.69 274.284 174.182C275.377 175.113 276.524 175.99 277.617 176.92C279.803 178.782 282.426 179.932 284.886 181.301C287.345 182.67 289.914 183.492 292.755 183.382C295.597 183.273 298.494 183.492 301.281 182.835C302.975 182.397 304.724 182.068 306.363 181.411C310.353 179.823 313.686 177.194 317.129 174.73C317.731 174.292 317.785 173.963 317.184 173.416C316.747 173.032 316.255 172.704 315.818 172.321C314.725 171.28 313.468 170.294 312.539 169.144C309.314 165.037 307.675 160.328 307.566 155.071C307.511 153.1 307.456 151.073 307.948 149.102C308.167 148.171 308.003 147.185 308.003 146.145C307.73 146.2 307.62 146.145 307.511 146.255C304.013 148.445 300.242 149.814 296.089 150.088C295.379 150.143 294.668 150.471 293.958 150.635C294.176 151.183 294.395 151.566 294.395 151.95C294.613 153.921 294.176 155.838 293.575 157.645C292.701 160.164 290.624 161.807 288.93 163.668C288.383 164.271 287.728 164.818 287.017 165.202C283.847 166.954 280.568 167.994 276.907 167.447C276.36 167.447 275.923 167.502 275.486 167.502ZM266.633 183.82C266.578 184.477 266.469 184.806 266.523 185.135C266.687 187.106 266.851 189.132 267.07 191.103C267.234 192.801 267.507 194.499 267.78 196.251C267.944 197.346 268.108 198.496 268.327 199.591C268.655 201.508 268.982 203.425 269.256 205.341C269.474 206.874 269.693 208.408 269.912 209.886C270.075 210.762 270.239 211.693 270.513 212.515C271.551 215.417 272.535 218.319 273.682 221.112C274.666 223.522 275.814 225.876 277.508 227.903C278.546 229.162 279.639 230.422 281.169 231.243C281.825 231.571 282.262 231.571 282.7 231.079C283.356 230.367 284.011 229.71 284.612 228.998C287.017 225.986 288.274 222.426 289.531 218.812C290.241 216.786 290.788 214.65 291.389 212.57C291.881 210.982 292.318 209.339 292.755 207.751C293.466 205.122 294.176 202.548 294.832 199.92C294.941 199.427 294.996 198.879 295.051 198.441C294.832 198.332 294.723 198.222 294.668 198.222C294.286 198.168 293.848 198.168 293.466 198.168C290.187 198.058 286.962 198.003 283.738 197.127C280.623 196.306 277.89 194.827 275.377 192.911C272.644 190.775 270.349 188.146 268.163 185.463C267.726 185.025 267.288 184.532 266.633 183.82ZM302.647 197.784C303.849 200.358 304.942 202.767 306.09 205.067C308.549 210.105 311.009 215.198 313.577 220.181C315.435 223.85 317.621 227.3 320.627 230.148C321.064 230.531 321.501 230.86 322.048 231.243C322.212 230.86 322.376 230.695 322.43 230.476C322.922 228.45 323.469 226.424 323.851 224.398C324.289 222.043 324.562 219.634 324.944 217.279C325.327 214.815 325.764 212.351 326.201 209.941C326.42 208.846 326.639 207.805 326.857 206.765C327.294 204.52 327.95 202.275 328.223 199.975C328.551 197.237 329.098 194.608 329.863 192.034C330.847 188.639 332.049 185.354 333.688 182.232C333.798 182.013 333.688 181.739 333.688 181.466C332.377 181.247 331.175 180.973 329.918 180.863C329.535 180.808 329.098 181.137 328.77 181.466C327.732 182.506 326.748 183.546 325.819 184.642C322.212 188.803 318.058 192.308 312.867 194.389C309.97 195.539 307.074 196.689 304.013 197.291C303.576 197.291 303.194 197.51 302.647 197.784ZM199.631 360.368C201.763 360.368 203.347 360.149 204.823 359.383C207.228 358.068 208.649 355.987 209.742 353.633C210.616 351.716 211.162 349.69 210.78 347.554C210.397 345.364 209.796 343.228 208.649 341.312C206.736 338.135 203.839 336.383 200.287 335.671C198.21 335.233 196.134 335.507 194.057 335.726C193.237 335.836 192.417 336.164 191.652 336.547C187.608 338.519 185.969 342.023 185.805 346.295C185.75 347.664 186.078 349.088 186.297 350.457C186.351 350.73 186.461 350.949 186.57 351.223C188.1 354.235 190.231 356.645 193.237 358.233C195.369 359.383 197.555 360.478 199.631 360.368ZM191.598 319.079C190.778 319.188 190.177 319.626 190.177 320.448C190.122 321.543 190.177 322.693 190.395 323.788C190.778 325.595 191.926 327.019 193.128 328.388C194.494 329.976 196.407 330.907 198.32 331.619C198.975 331.893 199.522 331.455 199.413 330.852C199.194 329.648 199.03 328.443 198.702 327.293C197.828 324.226 195.915 321.926 193.346 320.065C192.8 319.681 192.144 319.407 191.598 319.079ZM350.411 126.924C349.756 128.238 349.209 129.334 348.663 130.484C348.389 131.031 348.389 131.524 348.717 132.126C349.756 134.207 350.739 136.343 351.723 138.479C352.16 139.409 352.597 140.395 353.144 141.271C353.636 142.038 354.128 141.983 354.565 141.162C355.275 139.902 355.166 138.533 354.893 137.164C354.674 135.96 354.292 134.81 354.018 133.605C353.472 131.469 352.652 129.388 351.34 127.636C351.067 127.307 350.739 127.143 350.411 126.924ZM216.573 294.382C219.633 294.875 222.475 295.587 225.426 295.696C225.809 292.465 225.262 289.453 224.989 286.332C224.716 286.442 224.552 286.496 224.497 286.551C222.256 289.125 219.907 291.48 217.119 293.451C216.901 293.615 216.791 293.998 216.573 294.382ZM343.198 101.57C343.034 101.844 342.815 102.008 342.815 102.118C343.416 104.91 344.072 107.758 344.673 110.386C346.859 111.044 348.827 111.591 351.122 112.248C348.936 108.141 346.094 104.965 343.198 101.57ZM225.699 167.009C225.863 166.954 225.973 166.899 226.137 166.845C226.191 166.516 226.41 166.078 226.301 165.804C225.863 164.709 225.481 163.559 224.77 162.683C222.475 159.89 220.016 157.152 217.611 154.414C217.447 154.195 217.338 153.976 217.229 153.702C216.955 154.633 217.01 154.633 217.447 155.181C219.087 157.207 220.344 159.397 220.726 162.026C220.781 162.299 220.945 162.628 221.163 162.847C222.694 164.216 224.224 165.64 225.699 167.009ZM339.973 100.365C339.481 100.584 339.044 100.694 338.716 100.913C337.514 101.625 337.459 101.953 337.896 103.322C337.951 103.487 338.006 103.651 338.006 103.87C338.388 105.841 338.826 107.867 339.263 109.839C339.372 110.332 339.645 110.715 339.864 111.317C340.629 110.989 341.285 110.77 342.05 110.441C341.339 107.101 340.684 103.815 339.973 100.365ZM345.384 127.636C345.274 126.979 345.329 126.596 345.165 126.212C344.618 124.515 344.291 122.817 344.072 121.065C343.908 119.696 342.706 118.874 341.503 118.217C341.558 119.148 341.722 120.024 341.886 120.9C342.214 122.543 342.542 124.186 342.924 125.774C342.979 125.993 343.088 126.322 343.307 126.431C343.908 126.869 344.509 127.143 345.384 127.636ZM348.116 127.088C348.663 126.431 349.428 125.884 349.045 125.172C348.663 124.515 348.116 123.748 347.023 123.748C347.351 124.843 347.734 125.884 348.116 127.088Z" fill="black"/>
<path d="M122.246 386.051C123.394 385.887 124.542 385.722 125.744 385.558C125.853 385.558 126.017 385.503 126.126 385.503C128.312 385.722 130.553 385.339 132.739 385.503C135.362 385.722 137.876 386.215 140.117 387.749C140.773 388.187 141.046 388.734 140.882 389.446C140.718 390.158 140.117 390.541 139.407 390.706C139.297 390.76 139.133 390.76 139.024 390.706C137.002 390.103 134.98 390.706 132.958 390.76C130.553 390.76 128.203 390.541 125.853 389.884C125.635 389.829 125.416 389.775 125.197 389.829C123.011 389.884 121.099 388.953 119.131 388.132C118.749 387.968 118.148 387.365 118.257 387.146C118.421 386.708 118.858 386.16 119.295 386.106C120.279 385.887 121.263 385.941 122.246 385.832C122.246 385.887 122.246 385.996 122.246 386.051Z" fill="black"/>
<path d="M147.058 395.305C147.714 395.36 148.042 395.36 148.315 395.415C149.189 395.634 149.299 396.182 148.752 396.894C147.768 398.317 146.347 399.248 144.926 400.179C144.489 400.453 144.107 400.891 143.67 401.165C140.773 403.136 137.713 404.615 134.27 405.491C132.739 405.874 131.155 406.093 129.624 406.312C129.297 406.367 128.969 406.477 128.695 406.367C128.204 406.258 127.548 406.093 127.329 405.765C127.001 405.217 127.657 404.943 128.04 404.67C128.914 404.067 129.843 403.52 130.772 402.972C132.958 401.767 135.144 400.508 137.385 399.413C139.024 398.591 140.664 397.824 142.413 397.222C143.615 396.784 144.653 396.127 145.801 395.579C146.293 395.47 146.839 395.36 147.058 395.305Z" fill="black"/>
<path d="M294.012 98.2843C294.887 98.4486 295.324 98.9415 295.707 99.7081C296.69 101.406 297.893 102.994 299.04 104.637C299.15 104.801 299.368 104.91 299.587 105.129C300.352 103.815 300.461 102.446 300.461 101.022C300.461 97.4082 300.625 93.794 300.297 90.2345C300.024 87.0584 300.024 83.8823 299.751 80.7062C299.532 77.6396 299.095 74.573 298.876 71.5064C298.822 70.2469 299.15 68.9874 299.259 67.728C299.314 67.0708 299.641 66.7423 300.297 66.7423C301.062 66.7423 301.554 67.0161 301.664 67.7827C301.827 68.6589 301.827 69.5898 301.937 70.466C302.265 72.5469 302.593 74.573 302.92 76.6539C303.139 77.8587 303.358 79.0634 303.522 80.2681C304.177 84.5942 305.106 88.9203 305.216 93.3559C305.27 95.9296 305.38 98.5581 305.216 101.132C305.106 103.048 304.833 105.02 303.74 106.717C302.811 108.141 301.554 108.525 299.915 108.141C297.565 107.594 296.253 106.006 295.433 103.87C294.996 102.775 294.504 101.734 294.067 100.639C293.849 99.8724 293.63 99.1057 294.012 98.2843Z" fill="black"/>
<path d="M282.536 81.3085C282.7 83.6632 282.426 85.9084 281.224 87.9893C280.186 89.7416 278.492 90.6178 276.688 90.2345C274.611 89.7964 272.972 88.7012 272.152 86.7298C271.169 84.3203 270.567 81.8561 271.278 79.1729C271.66 77.8038 271.879 76.3801 272.589 75.0658C273.245 73.7516 274.338 72.8754 275.65 72.3825C276.142 72.2183 276.743 72.1635 277.235 72.273C278.929 72.7659 280.568 73.4778 281.333 75.2849C281.716 76.2158 282.099 77.2015 282.317 78.2419C282.481 79.3371 282.481 80.3228 282.536 81.3085Z" fill="black"/>
<path d="M321.829 80.4323C321.447 82.1847 321.174 84.1561 320.572 86.0727C319.971 87.9893 318.605 88.4274 316.747 87.825C313.905 86.8941 312.593 84.7037 311.883 82.0204C311.555 80.7609 311.336 79.4467 311.118 78.1324C310.845 76.0515 311.172 74.0801 312.593 72.4373C313.741 71.123 315.217 70.7945 316.856 71.4516C319.315 72.4373 320.736 74.2444 321.174 76.8729C321.392 77.9681 321.611 79.0633 321.829 80.4323Z" fill="black"/>
<path d="M278.328 114.931C277.508 114.548 277.289 113.946 277.672 113.234C278.601 111.262 279.913 110.824 281.388 111.262C281.006 112.412 281.771 112.96 282.59 113.508C286.033 115.917 289.531 118.217 293.411 119.805C295.98 120.846 298.658 121.667 301.39 122.269C303.849 122.817 306.254 122.762 308.713 122.707C309.424 122.707 310.134 122.707 310.845 122.707C310.899 122.817 310.954 122.926 311.009 123.036C310.79 123.31 310.571 123.693 310.298 123.748C308.713 124.186 307.183 124.679 305.598 124.843C302.21 125.172 298.876 124.624 295.652 123.693C291.826 122.598 288.219 121.01 285.104 118.436C283.52 117.177 281.88 115.972 280.295 114.712C279.475 114.055 278.874 114.658 278.328 114.931Z" fill="black"/>
<path d="M277.453 60.828C278.054 60.4447 278.656 60.1161 279.202 59.7328C281.279 58.1448 283.301 56.5567 285.815 55.6258C286.908 55.2424 287.782 55.6258 288.547 56.2281C289.203 56.6662 289.094 57.9257 288.383 58.8019C287.181 60.3352 285.596 61.3756 284.066 62.4161C283.465 62.8542 282.809 63.128 282.208 63.5113C281.06 64.1684 279.803 64.3327 278.546 64.1137C277.016 63.8946 276.47 62.8542 277.235 61.4851C277.399 61.3209 277.399 61.0471 277.453 60.828Z" fill="black"/>
<path d="M314.015 64.0589C312.211 64.3875 310.736 64.2232 309.315 63.0732C306.965 61.1566 305.052 58.8019 303.576 56.1734C303.03 55.2425 303.139 55.1877 304.178 54.8591C306.418 54.2568 308.386 54.8591 310.025 56.3924C311.227 57.4876 312.32 58.6924 313.304 59.9519C313.905 60.7185 314.343 61.6495 314.015 62.7447C313.905 63.128 314.015 63.5113 314.015 64.0589Z" fill="black"/>
<g clip-path="url(#clip0)">
<path d="M261.532 253.491C261.538 253.431 261.542 253.384 261.548 253.324C261.548 252.881 261.346 252.503 260.967 252.227C260.888 252.172 260.796 252.115 260.717 252.059C260.44 251.889 253.639 247.673 253.639 247.673C253.044 247.305 252.45 246.937 251.856 246.569L261.679 242.818C261.751 242.789 261.838 242.761 261.927 242.709C262.47 242.438 262.745 241.901 262.643 241.352C262.566 240.985 262.331 240.663 261.934 240.422C260.705 239.67 259.477 238.906 258.263 238.144L251.419 233.948C251.353 233.906 251.273 233.862 251.207 233.82C251.075 233.736 250.942 233.663 250.81 233.579C250.547 233.41 250.263 233.311 249.958 233.282C249.653 233.253 249.355 233.297 249.063 233.425C249.05 233.411 249.035 233.422 249.022 233.421L242.071 236.079C240.388 236.722 238.647 237.384 236.936 238.036C236.298 238.275 235.95 238.697 235.894 239.291C235.617 242.2 235.335 245.168 235.064 248.03L234.815 250.642C234.806 250.737 234.797 250.832 234.79 250.915C234.767 251.152 234.841 251.399 235 251.642C235.109 251.82 235.277 251.968 235.501 252.109C235.738 252.263 244.481 257.67 244.481 257.67C243.089 258.197 234.746 261.382 234.746 261.382C234.66 261.41 234.572 261.45 234.469 261.5C234.016 261.708 233.713 262.099 233.671 262.55C233.628 263.001 233.852 263.442 234.271 263.733C234.324 263.762 234.363 263.802 234.416 263.831L244.348 269.974L244.704 270.199C244.981 270.369 245.259 270.54 245.522 270.708C245.786 270.877 246.07 270.976 246.361 271.004C246.666 271.033 246.95 270.988 247.241 270.872L247.298 270.853L259.065 266.364L259.181 266.315C259.312 266.267 259.428 266.218 259.559 266.171C260.038 265.977 260.339 265.61 260.412 265.138C260.416 265.09 260.42 265.054 260.424 265.007L261.532 253.491ZM249.398 255.813C249.621 253.462 249.845 251.111 250.068 248.76C250.187 248.831 256.87 252.964 256.87 252.964C256.668 253.029 249.398 255.813 249.398 255.813ZM255.746 264.647L248.288 267.497C248.512 265.146 248.735 262.795 248.957 260.455C249.209 260.599 255.746 264.647 255.746 264.647ZM250.744 258.277C253.225 257.326 255.707 256.376 258.187 255.437C257.964 257.788 257.741 260.128 257.518 262.479C257.348 262.355 252.54 259.394 250.744 258.277ZM251.165 237.063C253.437 238.465 255.695 239.865 257.967 241.267C255.471 242.216 252.99 243.167 250.495 244.116L251.165 237.063ZM246.267 255.503C244.535 254.452 241.155 252.358 239.464 251.311C241.959 250.362 244.456 249.401 246.951 248.452C246.797 250.222 246.45 253.724 246.267 255.503ZM240.589 239.617C243.084 238.668 245.565 237.717 248.047 236.767C247.823 239.118 247.6 241.469 247.377 243.82C245.119 242.419 242.861 241.019 240.589 239.617ZM238.817 241.785C238.843 241.799 245.605 245.988 245.605 245.988C243.11 246.937 240.628 247.887 238.133 248.836C238.285 247.09 238.633 243.576 238.817 241.785ZM245.169 267.212C243.492 266.178 240.098 264.071 238.382 262.998C238.411 262.988 245.825 260.158 245.825 260.158C245.669 261.952 245.335 265.467 245.169 267.212Z" fill="black"/>
</g>
<defs>
<clipPath id="clip0">
<rect width="26.8661" height="37.9286" fill="white" transform="translate(236.586 232) rotate(5.42518)"/>
</clipPath>
</defs>
</svg>
