<svg width="345" height="212" viewBox="0 0 345 212" fill="none" xmlns="http://www.w3.org/2000/svg">
<path d="M84.406 6.12783C95.7952 5.84317 106.473 9.82839 116.581 15.9485C117.862 16.6602 120.852 16.5179 121.99 15.5216C148.328 -6.82411 183.635 -4.68918 206.84 20.9301C209.118 23.492 210.542 23.7766 213.531 21.9264C248.98 -0.419303 293.54 16.9448 303.506 57.7933C305.499 65.6214 307.919 69.8913 315.607 73.3072C335.538 82.1316 347.212 103.908 344.65 124.83C341.802 148.315 326 166.106 303.506 170.66C298.523 171.657 293.398 170.945 288.273 171.514C286.138 171.799 283.148 172.937 282.151 174.645C262.932 206.527 226.202 217.344 192.888 200.549C188.902 198.557 185.628 195.283 181.641 193.291C180.075 192.437 177.086 192.437 175.947 193.433C146.477 221.187 104.907 216.348 82.1282 182.616C81.274 181.335 78.2843 180.196 76.8607 180.623C49.3842 188.451 20.6264 176.496 6.81698 151.303C-6.13825 127.392 -0.158912 96.6491 20.7688 78.2887C22.6195 76.7231 24.0432 73.3072 23.9008 70.8876C22.6195 34.1667 48.2453 6.12783 84.406 6.12783Z" fill="#A5BDD0"/>
<path d="M68.08 65.6C68.08 63.152 68.896 61.096 70.528 59.432C72.192 57.768 74.288 56.936 76.816 56.936C79.344 56.936 81.432 57.736 83.08 59.336C84.744 60.952 85.576 63.04 85.576 65.6C85.576 68.112 84.744 70.184 83.08 71.816C81.416 73.448 79.328 74.264 76.816 74.264C74.288 74.264 72.2 73.464 70.552 71.864C68.904 70.264 68.08 68.176 68.08 65.6ZM71.2 65.6C71.2 67.296 71.736 68.704 72.808 69.824C73.88 70.944 75.216 71.504 76.816 71.504C78.544 71.504 79.912 70.944 80.92 69.824C81.944 68.704 82.456 67.296 82.456 65.6C82.456 63.888 81.912 62.472 80.824 61.352C79.736 60.248 78.4 59.696 76.816 59.696C75.2 59.696 73.856 60.248 72.784 61.352C71.728 62.456 71.2 63.872 71.2 65.6ZM88.558 76.52H85.99V71.432H87.358C88.206 70.296 88.71 68.416 88.87 65.792L89.038 63.2H97.006V71.432H98.806V76.52H96.214V74H88.558V76.52ZM91.606 65.792L91.534 66.896C91.342 68.976 90.91 70.488 90.238 71.432H94.246V65.792H91.606ZM108.422 67.16L103.382 74H100.622V63.2H103.382V70.04L108.422 63.2H111.182V74H108.422V67.16ZM124.511 74H121.751V69.872H117.023V74H114.263V63.2H117.023V67.28H121.751V63.2H124.511V74ZM138.613 63.2H141.373V74H138.613V70.28C137.813 70.696 136.917 70.904 135.925 70.904C134.581 70.904 133.589 70.552 132.949 69.848C132.325 69.144 132.013 68.08 132.013 66.656V63.2H134.965V66.32C134.965 67.648 135.549 68.312 136.717 68.312C137.469 68.312 138.101 68.168 138.613 67.88V63.2ZM145.29 65.984L144.594 63.968C145.762 63.28 147.034 62.936 148.41 62.936C149.914 62.936 151.01 63.304 151.698 64.04C152.386 64.776 152.73 65.904 152.73 67.424V74H150.33V72.752C149.69 73.68 148.626 74.144 147.138 74.144C146.114 74.144 145.29 73.848 144.666 73.256C144.058 72.648 143.754 71.84 143.754 70.832C143.754 69.712 144.114 68.848 144.834 68.24C145.554 67.632 146.506 67.328 147.69 67.328C148.666 67.328 149.482 67.56 150.138 68.024C150.17 67.064 150.026 66.36 149.706 65.912C149.402 65.464 148.874 65.24 148.122 65.24C147.29 65.24 146.346 65.488 145.29 65.984ZM148.05 71.816C148.978 71.816 149.674 71.488 150.138 70.832V69.728C149.69 69.376 149.058 69.2 148.242 69.2C147.73 69.2 147.314 69.32 146.994 69.56C146.674 69.8 146.514 70.128 146.514 70.544C146.514 70.928 146.658 71.24 146.946 71.48C147.234 71.704 147.602 71.816 148.05 71.816ZM157.983 65.96H154.431V63.2H164.271V65.96H160.743V74H157.983V65.96ZM164.666 72.2C164.666 71.736 164.842 71.328 165.194 70.976C165.562 70.608 166.026 70.424 166.586 70.424C167.066 70.424 167.474 70.608 167.81 70.976C168.162 71.328 168.338 71.736 168.338 72.2C168.338 72.728 168.162 73.184 167.81 73.568C167.474 73.936 167.066 74.12 166.586 74.12C166.026 74.12 165.562 73.936 165.194 73.568C164.842 73.184 164.666 72.728 164.666 72.2ZM68.08 96.6C68.08 94.152 68.896 92.096 70.528 90.432C72.192 88.768 74.288 87.936 76.816 87.936C79.344 87.936 81.432 88.736 83.08 90.336C84.744 91.952 85.576 94.04 85.576 96.6C85.576 99.112 84.744 101.184 83.08 102.816C81.416 104.448 79.328 105.264 76.816 105.264C74.288 105.264 72.2 104.464 70.552 102.864C68.904 101.264 68.08 99.176 68.08 96.6ZM71.2 96.6C71.2 98.296 71.736 99.704 72.808 100.824C73.88 101.944 75.216 102.504 76.816 102.504C78.544 102.504 79.912 101.944 80.92 100.824C81.944 99.704 82.456 98.296 82.456 96.6C82.456 94.888 81.912 93.472 80.824 92.352C79.736 91.248 78.4 90.696 76.816 90.696C75.2 90.696 73.856 91.248 72.784 92.352C71.728 93.456 71.2 94.872 71.2 96.6ZM88.558 107.52H85.99V102.432H87.358C88.206 101.296 88.71 99.416 88.87 96.792L89.038 94.2H97.006V102.432H98.806V107.52H96.214V105H88.558V107.52ZM91.606 96.792L91.534 97.896C91.342 99.976 90.91 101.488 90.238 102.432H94.246V96.792H91.606ZM108.422 98.16L103.382 105H100.622V94.2H103.382V101.04L108.422 94.2H111.182V105H108.422V98.16ZM124.511 105H121.751V100.872H117.023V105H114.263V94.2H117.023V98.28H121.751V94.2H124.511V105ZM135.421 105H132.661V94.2H135.157L138.829 98.712L142.309 94.2H144.733V105H141.973V98.4L138.781 102.432H138.709L135.421 98.4V105ZM156.274 101.976L157.066 103.92C155.994 104.816 154.618 105.264 152.938 105.264C151.21 105.264 149.802 104.744 148.714 103.704C147.658 102.68 147.13 101.312 147.13 99.6C147.13 98 147.65 96.656 148.69 95.568C149.73 94.48 151.114 93.936 152.842 93.936C154.266 93.936 155.474 94.408 156.466 95.352C157.458 96.296 157.954 97.496 157.954 98.952C157.954 99.592 157.898 100.088 157.786 100.44H149.986C150.098 101.224 150.442 101.84 151.018 102.288C151.61 102.736 152.346 102.96 153.226 102.96C154.426 102.96 155.442 102.632 156.274 101.976ZM152.722 96.24C151.154 96.24 150.21 97.024 149.89 98.592H155.194C155.21 97.904 154.986 97.344 154.522 96.912C154.074 96.464 153.474 96.24 152.722 96.24ZM170.425 105H167.665V100.872H162.937V105H160.177V94.2H162.937V98.28H167.665V94.2H170.425V105ZM181.961 101.976L182.753 103.92C181.681 104.816 180.305 105.264 178.625 105.264C176.897 105.264 175.489 104.744 174.401 103.704C173.345 102.68 172.817 101.312 172.817 99.6C172.817 98 173.337 96.656 174.377 95.568C175.417 94.48 176.801 93.936 178.529 93.936C179.953 93.936 181.161 94.408 182.153 95.352C183.145 96.296 183.641 97.496 183.641 98.952C183.641 99.592 183.585 100.088 183.473 100.44H175.673C175.785 101.224 176.129 101.84 176.705 102.288C177.297 102.736 178.033 102.96 178.913 102.96C180.113 102.96 181.129 102.632 181.961 101.976ZM178.409 96.24C176.841 96.24 175.897 97.024 175.577 98.592H180.881C180.897 97.904 180.673 97.344 180.209 96.912C179.761 96.464 179.161 96.24 178.409 96.24ZM186.785 107.52H184.217V102.432H185.585C186.433 101.296 186.937 99.416 187.097 96.792L187.265 94.2H195.233V102.432H197.033V107.52H194.441V105H186.785V107.52ZM189.833 96.792L189.761 97.896C189.569 99.976 189.137 101.488 188.465 102.432H192.473V96.792H189.833ZM210.585 94.2H213.849L210.273 99.432L214.137 105H210.872L207.273 99.432L210.585 94.2ZM207.153 105H204.393V94.2H207.153V105ZM197.481 105L201.297 99.432L197.697 94.2H201.057L204.273 99.432L200.769 105H197.481ZM223.68 101.976L224.472 103.92C223.4 104.816 222.024 105.264 220.344 105.264C218.616 105.264 217.208 104.744 216.12 103.704C215.064 102.68 214.536 101.312 214.536 99.6C214.536 98 215.056 96.656 216.096 95.568C217.136 94.48 218.52 93.936 220.248 93.936C221.672 93.936 222.88 94.408 223.872 95.352C224.864 96.296 225.36 97.496 225.36 98.952C225.36 99.592 225.304 100.088 225.192 100.44H217.392C217.504 101.224 217.848 101.84 218.424 102.288C219.016 102.736 219.752 102.96 220.632 102.96C221.832 102.96 222.848 102.632 223.68 101.976ZM220.128 96.24C218.56 96.24 217.616 97.024 217.296 98.592H222.6C222.616 97.904 222.392 97.344 221.928 96.912C221.48 96.464 220.88 96.24 220.128 96.24ZM230.343 109.8H227.583V94.2H230.343V95.232C230.695 94.848 231.175 94.536 231.783 94.296C232.391 94.056 233.023 93.936 233.679 93.936C235.167 93.936 236.351 94.448 237.231 95.472C238.127 96.512 238.575 97.832 238.575 99.432C238.575 101.112 238.047 102.504 236.991 103.608C235.935 104.712 234.559 105.264 232.863 105.264C231.775 105.264 230.935 105.088 230.343 104.736V109.8ZM232.815 96.528C231.855 96.528 231.031 96.92 230.343 97.704V102.072C230.999 102.488 231.759 102.696 232.623 102.696C233.535 102.696 234.263 102.4 234.807 101.808C235.367 101.216 235.647 100.448 235.647 99.504C235.647 98.608 235.391 97.888 234.879 97.344C234.383 96.8 233.695 96.528 232.815 96.528ZM240.51 103.2C240.51 102.736 240.686 102.328 241.038 101.976C241.406 101.608 241.87 101.424 242.43 101.424C242.91 101.424 243.318 101.608 243.654 101.976C244.006 102.328 244.182 102.736 244.182 103.2C244.182 103.728 244.006 104.184 243.654 104.568C243.318 104.936 242.91 105.12 242.43 105.12C241.87 105.12 241.406 104.936 241.038 104.568C240.686 104.184 240.51 103.728 240.51 103.2ZM70.048 139H67.288V133.24H69.088C69.568 132.68 70.088 131.44 70.648 129.52C71.224 127.552 71.568 125.232 71.68 122.56L71.848 119.2H82.264V133.24H84.544V139H81.784V136H70.048V139ZM74.704 121.96L74.44 124.888C74.296 126.904 74 128.672 73.552 130.192C73.088 131.776 72.68 132.792 72.328 133.24H79.336V121.96H74.704ZM94.7502 132.976L95.5422 134.92C94.4702 135.816 93.0942 136.264 91.4142 136.264C89.6862 136.264 88.2782 135.744 87.1902 134.704C86.1342 133.68 85.6062 132.312 85.6062 130.6C85.6062 129 86.1262 127.656 87.1662 126.568C88.2062 125.48 89.5902 124.936 91.3182 124.936C92.7422 124.936 93.9502 125.408 94.9422 126.352C95.9342 127.296 96.4302 128.496 96.4302 129.952C96.4302 130.592 96.3742 131.088 96.2622 131.44H88.4622C88.5742 132.224 88.9182 132.84 89.4942 133.288C90.0862 133.736 90.8222 133.96 91.7022 133.96C92.9022 133.96 93.9182 133.632 94.7502 132.976ZM91.1982 127.24C89.6302 127.24 88.6862 128.024 88.3662 129.592H93.6702C93.6862 128.904 93.4622 128.344 92.9982 127.912C92.5502 127.464 91.9502 127.24 91.1982 127.24ZM106.767 132.376L108.063 134.392C107.151 135.64 105.719 136.264 103.767 136.264C102.023 136.264 100.607 135.744 99.5189 134.704C98.4469 133.68 97.9109 132.312 97.9109 130.6C97.9109 128.984 98.4389 127.64 99.4949 126.568C100.551 125.48 101.887 124.936 103.503 124.936C105.423 124.936 106.871 125.424 107.847 126.4L106.551 128.584C105.815 127.88 104.919 127.528 103.863 127.528C103.063 127.528 102.359 127.816 101.751 128.392C101.159 128.936 100.863 129.672 100.863 130.6C100.863 131.528 101.167 132.28 101.775 132.856C102.415 133.416 103.151 133.696 103.983 133.696C105.055 133.696 105.983 133.256 106.767 132.376ZM115.089 125.2H118.617V136H115.857V132.76H114.321L112.089 136H108.921L111.801 132.16C111.209 131.952 110.713 131.576 110.313 131.032C109.913 130.472 109.713 129.808 109.713 129.04C109.713 127.856 110.161 126.92 111.057 126.232C111.969 125.544 113.313 125.2 115.089 125.2ZM112.665 129.232C112.665 129.648 112.841 130 113.193 130.288C113.545 130.576 113.953 130.72 114.417 130.72H115.857V127.6H114.633C114.025 127.6 113.545 127.76 113.193 128.08C112.841 128.384 112.665 128.768 112.665 129.232ZM124.116 127.96H120.564V125.2H130.404V127.96H126.876V136H124.116V127.96ZM139.124 125.2H142.604L138.452 130.336L143.108 136H139.508L135.236 130.552L139.124 125.2ZM135.14 136H132.38V125.2H135.14V136ZM152.531 129.16L147.491 136H144.731V125.2H147.491V132.04L152.531 125.2H155.291V136H152.531V129.16ZM171.642 132.376L172.938 134.392C172.026 135.64 170.594 136.264 168.642 136.264C166.898 136.264 165.482 135.744 164.394 134.704C163.322 133.68 162.786 132.312 162.786 130.6C162.786 128.984 163.314 127.64 164.37 126.568C165.426 125.48 166.762 124.936 168.378 124.936C170.298 124.936 171.746 125.424 172.722 126.4L171.426 128.584C170.69 127.88 169.794 127.528 168.738 127.528C167.938 127.528 167.234 127.816 166.626 128.392C166.034 128.936 165.738 129.672 165.738 130.6C165.738 131.528 166.042 132.28 166.65 132.856C167.29 133.416 168.026 133.696 168.858 133.696C169.93 133.696 170.858 133.256 171.642 132.376ZM185.281 136H182.521V127.792H177.913V136H175.153V125.2H185.281V136ZM196.821 132.976L197.613 134.92C196.541 135.816 195.165 136.264 193.485 136.264C191.757 136.264 190.349 135.744 189.261 134.704C188.205 133.68 187.677 132.312 187.677 130.6C187.677 129 188.197 127.656 189.237 126.568C190.277 125.48 191.661 124.936 193.389 124.936C194.813 124.936 196.021 125.408 197.013 126.352C198.005 127.296 198.501 128.496 198.501 129.952C198.501 130.592 198.445 131.088 198.333 131.44H190.533C190.645 132.224 190.989 132.84 191.565 133.288C192.157 133.736 192.893 133.96 193.773 133.96C194.973 133.96 195.989 133.632 196.821 132.976ZM193.269 127.24C191.701 127.24 190.757 128.024 190.437 129.592H195.741C195.757 128.904 195.533 128.344 195.069 127.912C194.621 127.464 194.021 127.24 193.269 127.24ZM209.892 136H200.724V125.2H203.484V133.432H207.924V125.2H210.684V133.432H212.484V138.52H209.892V136ZM222.117 129.16L217.077 136H214.317V125.2H217.077V132.04L222.117 125.2H224.877V136H222.117V129.16ZM228.798 127.984L228.102 125.968C229.27 125.28 230.542 124.936 231.918 124.936C233.422 124.936 234.518 125.304 235.206 126.04C235.894 126.776 236.238 127.904 236.238 129.424V136H233.838V134.752C233.198 135.68 232.134 136.144 230.646 136.144C229.622 136.144 228.798 135.848 228.174 135.256C227.566 134.648 227.262 133.84 227.262 132.832C227.262 131.712 227.622 130.848 228.342 130.24C229.062 129.632 230.014 129.328 231.198 129.328C232.174 129.328 232.99 129.56 233.646 130.024C233.678 129.064 233.534 128.36 233.214 127.912C232.91 127.464 232.382 127.24 231.63 127.24C230.798 127.24 229.854 127.488 228.798 127.984ZM231.558 133.816C232.486 133.816 233.182 133.488 233.646 132.832V131.728C233.198 131.376 232.566 131.2 231.75 131.2C231.238 131.2 230.822 131.32 230.502 131.56C230.182 131.8 230.022 132.128 230.022 132.544C230.022 132.928 230.166 133.24 230.454 133.48C230.742 133.704 231.11 133.816 231.558 133.816ZM248.931 136H246.171V127.96H243.315L243.243 129.112C243.035 131.064 242.731 132.552 242.331 133.576C241.947 134.6 241.451 135.296 240.843 135.664C240.251 136.016 239.427 136.2 238.371 136.216L238.131 133.528C238.483 133.544 238.811 133.448 239.115 133.24C239.467 132.984 239.779 132.448 240.051 131.632C240.323 130.816 240.499 129.792 240.579 128.56L240.747 125.2H248.931V136ZM259.805 129.16L254.765 136H252.005V125.2H254.765V132.04L259.805 125.2H262.565V136H259.805V129.16ZM273.829 132.376L275.125 134.392C274.213 135.64 272.781 136.264 270.829 136.264C269.085 136.264 267.669 135.744 266.581 134.704C265.509 133.68 264.973 132.312 264.973 130.6C264.973 128.984 265.501 127.64 266.557 126.568C267.613 125.48 268.949 124.936 270.565 124.936C272.485 124.936 273.933 125.424 274.909 126.4L273.613 128.584C272.877 127.88 271.981 127.528 270.925 127.528C270.125 127.528 269.421 127.816 268.813 128.392C268.221 128.936 267.925 129.672 267.925 130.6C267.925 131.528 268.229 132.28 268.837 132.856C269.477 133.416 270.213 133.696 271.045 133.696C272.117 133.696 273.045 133.256 273.829 132.376ZM279.554 127.96H276.002V125.2H285.842V127.96H282.314V136H279.554V127.96ZM288.425 134.68C287.353 133.608 286.817 132.248 286.817 130.6C286.817 128.952 287.353 127.6 288.425 126.544C289.497 125.472 290.921 124.936 292.697 124.936C294.457 124.936 295.873 125.472 296.945 126.544C298.033 127.6 298.577 128.952 298.577 130.6C298.577 132.232 298.033 133.592 296.945 134.68C295.857 135.736 294.441 136.264 292.697 136.264C290.921 136.264 289.497 135.736 288.425 134.68ZM290.609 128.392C290.049 128.968 289.769 129.704 289.769 130.6C289.769 131.496 290.041 132.24 290.585 132.832C291.145 133.408 291.849 133.696 292.697 133.696C293.561 133.696 294.265 133.408 294.809 132.832C295.369 132.256 295.649 131.512 295.649 130.6C295.649 129.704 295.369 128.968 294.809 128.392C294.249 127.816 293.545 127.528 292.697 127.528C291.865 127.528 291.169 127.816 290.609 128.392ZM300.966 136V125.2C301.11 125.2 301.718 125.184 302.79 125.152C303.878 125.104 304.686 125.08 305.214 125.08C308.478 125.08 310.11 126.024 310.11 127.912C310.11 128.52 309.918 129.056 309.534 129.52C309.15 129.968 308.67 130.232 308.094 130.312V130.36C309.63 130.728 310.398 131.56 310.398 132.856C310.398 135.032 308.686 136.12 305.262 136.12C304.766 136.12 304.006 136.096 302.982 136.048C302.726 136.048 302.43 136.04 302.094 136.024C301.774 136.024 301.526 136.016 301.35 136C301.19 136 301.062 136 300.966 136ZM305.454 131.416H303.726V133.816C304.686 133.88 305.294 133.912 305.55 133.912C306.158 133.912 306.63 133.8 306.966 133.576C307.318 133.352 307.494 133.048 307.494 132.664C307.494 131.832 306.814 131.416 305.454 131.416ZM305.454 127.312C304.814 127.312 304.238 127.328 303.726 127.36V129.736H305.526C306.022 129.736 306.422 129.624 306.726 129.4C307.03 129.176 307.182 128.872 307.182 128.488C307.182 127.704 306.606 127.312 305.454 127.312ZM312.557 134.2C312.557 133.736 312.733 133.328 313.085 132.976C313.453 132.608 313.917 132.424 314.477 132.424C314.957 132.424 315.365 132.608 315.701 132.976C316.053 133.328 316.229 133.736 316.229 134.2C316.229 134.728 316.053 135.184 315.701 135.568C315.365 135.936 314.957 136.12 314.477 136.12C313.917 136.12 313.453 135.936 313.085 135.568C312.733 135.184 312.557 134.728 312.557 134.2Z" fill="white"/>
</svg>
