<svg width="399" height="347" viewBox="0 0 399 347" fill="none" xmlns="http://www.w3.org/2000/svg">
<g clip-path="url(#clip0)">
<path d="M320.773 284.645C365.307 278.902 397.683 276.608 383.714 227.287C365.821 164.107 320.773 188.153 260.335 130.717C199.896 73.2813 133.046 89.1696 101.951 146.799C80.8769 185.855 2 155.143 2 234.404C2 283.225 97.9748 293.835 137.737 284.645C177.5 275.456 177.499 319.107 231.179 324.276C284.858 329.445 276.239 290.389 320.773 284.645Z" fill="white"/>
<path d="M276.679 27.8205C277.935 27.7309 278.741 28.4026 279.459 29.3429C281.431 31.8951 282.91 34.6712 283.762 37.7608C284.435 40.1787 284.972 42.6414 285.6 45.0593C286.497 48.5518 286.183 52.0892 285.914 55.5817C285.869 56.119 286.003 56.5668 286.228 57.0593C287.214 59.2533 288.245 61.4921 289.141 63.7757C289.948 65.8802 290.621 68.0295 291.248 70.1787C291.697 71.6115 291.966 73.1339 292.324 74.6115C292.548 75.6414 292.817 76.716 293.041 77.7459C293.266 78.8205 293.49 79.8503 293.579 80.925C293.803 82.8056 293.983 84.6862 294.117 86.5668C294.252 88.313 294.431 90.0145 294.476 91.7608C294.521 94.3578 294.566 96.9996 294.476 99.5966C294.386 101.925 294.028 104.253 293.759 106.582C293.579 108.059 293.445 109.537 293.221 111.015C292.997 112.403 292.728 113.791 292.459 115.179C292.279 116.029 292.1 116.925 291.921 117.776C291.248 121.134 290.307 124.447 289.276 127.761C288.021 131.835 286.497 135.82 284.748 139.761C283.224 143.253 281.476 146.612 279.593 149.88C276.635 154.985 273.362 159.91 269.552 164.388C269.103 164.925 268.655 165.462 268.252 166.044C268.117 166.223 268.028 166.492 267.893 166.806C269.014 167.298 270.09 167.835 271.166 168.283C273.093 169.089 275.066 169.85 276.993 170.701C280.266 172.134 283.538 173.612 286.81 175.044C290.038 176.477 293.221 177.865 296.448 179.298C298.735 180.283 301.021 181.223 303.307 182.209C305.817 183.328 308.283 184.492 310.748 185.567C311.735 186.015 312.766 186.328 313.752 186.686C314.962 187.089 316.172 187.626 317.428 187.895C319.4 188.298 321.148 189.328 323.166 189.597C324.331 189.731 325.541 189.865 326.707 189.82C327.379 189.776 328.097 189.597 328.724 189.328C329.038 189.194 329.307 188.835 329.441 188.522C329.666 188.029 329.8 187.447 329.89 186.91C330.248 184.94 330.517 182.97 330.921 181C331.414 178.447 331.997 175.94 332.535 173.388C332.759 172.358 332.938 171.373 333.162 170.298C333.341 170.253 333.521 170.164 333.61 170.253C334.821 171.015 336.166 170.522 337.421 170.477C338.048 170.432 338.676 170.253 339.303 170.253C343.786 170.209 348.269 170.164 352.752 170.253C354.276 170.298 355.755 170.701 357.279 170.925C358.355 171.104 359.386 171.283 360.462 171.462C361.672 171.641 362.883 171.776 364.093 172.044C365.707 172.358 367.276 172.761 368.845 173.164C370.01 173.477 371.131 173.835 372.252 174.149C372.969 174.373 373.059 174.641 372.879 175.403C372.745 175.94 372.61 176.522 372.431 177.283C373.193 177.283 373.776 177.238 374.314 177.283C375.166 177.328 375.345 177.462 375.255 178.313C375.031 179.835 374.762 181.313 374.493 182.791C374.359 183.552 374.135 184.313 373.955 185.074C373.507 186.865 373.059 188.656 372.655 190.447C372.386 191.567 372.252 192.731 372.072 193.85C371.669 195.865 371.266 197.925 370.862 199.94C370.638 201.059 370.504 202.223 370.279 203.343C369.966 204.865 369.607 206.388 369.293 207.91C369.069 208.895 368.8 209.835 368.576 210.82C368.128 212.746 367.679 214.626 367.276 216.552C366.917 218.343 366.603 220.134 366.245 221.88C366.021 222.91 365.752 223.895 365.528 224.925C365.348 225.776 365.124 226.671 364.99 227.522C364.766 228.82 364.631 230.164 364.407 231.507C364.272 232.268 364.138 233.029 363.959 233.791C363.824 234.328 363.331 234.373 362.972 234.104C362.39 233.656 361.717 233.746 361.045 233.701C359.431 233.656 357.817 233.791 356.248 233.612C351.721 232.985 347.148 233.253 342.621 233.164C341.814 233.164 340.962 233.209 340.155 233.164C336.972 233.029 333.835 232.985 330.652 232.716C328.231 232.492 325.766 232.223 323.569 230.97C322.672 230.477 321.866 229.806 321.686 228.641C321.686 228.507 321.597 228.328 321.641 228.194C322.179 225.91 322.135 223.537 322.448 221.253C322.762 218.746 322.807 216.149 323.569 213.686C323.703 213.238 323.659 212.746 323.703 212.029C322.538 213.059 321.462 212.612 320.431 212.567C319.086 212.477 317.786 212.298 316.441 212.209C313.528 211.94 310.569 211.716 307.655 211.447C306.938 211.403 306.221 211.358 305.548 211.313C302.545 211.134 299.541 211 296.538 210.731C293.983 210.507 291.428 210.194 288.917 209.88C287.572 209.701 286.228 209.432 284.883 209.209C283.762 209.029 282.597 208.85 281.476 208.671C279.235 208.268 277.038 207.82 274.797 207.418C273.631 207.194 272.466 207.015 271.3 206.791C270.135 206.567 268.969 206.298 267.803 206.074C267.086 205.94 266.369 205.85 265.472 205.761C265.652 206.074 265.697 206.253 265.786 206.388C267.893 209.119 270.045 211.806 272.107 214.492C273.945 216.91 275.693 219.328 277.486 221.791C279.907 225.059 282.328 228.283 284.659 231.597C286.676 234.462 288.604 237.373 290.576 240.283C293.983 245.298 297.479 250.313 300.841 255.373C302.769 258.238 304.652 261.149 306.445 264.104C307.61 266.029 308.641 268.044 309.583 270.059C310.3 271.582 311.555 272.477 312.81 273.418C316.172 275.835 319.579 278.164 322.628 280.985C323.793 282.104 325.138 283.089 326.348 284.164C329.217 286.671 332.131 289.134 333.969 292.537C334.328 293.209 334.686 293.88 334.866 294.552C335.179 295.806 335.807 296.835 336.614 297.776C337.645 298.985 338.138 300.462 338.407 302.029C338.676 303.462 337.959 304.671 337.331 305.925C336.435 307.671 334.866 308.88 333.431 310.134C331.772 311.612 330.069 313 328.276 314.298C326.259 315.776 324.286 317.343 322.493 319.044C321.462 320.029 320.252 320.835 319.131 321.731C315.948 324.194 312.766 326.656 309.583 329.119C307.969 330.373 306.31 331.671 304.741 332.97C303.845 333.686 302.769 333.955 301.738 334.313C301.11 334.492 300.438 334.626 299.81 334.761C296.986 335.253 294.79 333.955 292.638 332.432C290.397 330.82 288.11 329.209 285.869 327.641C280.445 323.88 275.11 319.94 269.866 315.955C265.428 312.552 261.035 309.015 256.597 305.612C253.638 303.328 250.545 301.268 247.586 298.985C244.986 296.97 242.476 294.865 239.921 292.761C239.203 292.179 238.486 291.552 237.948 290.835C237.141 289.806 236.2 289.94 235.124 290.164C233.241 290.567 231.359 291.015 229.476 291.418C227.324 291.865 225.172 292.223 223.021 292.626C222.841 292.671 222.662 292.671 222.483 292.716C219.883 292.895 217.283 293.074 214.683 293.209C212.172 293.388 209.707 293.477 207.197 293.701C203.835 294.015 200.517 293.97 197.155 294.149C192.762 294.418 188.369 294.059 183.976 294.015C181.914 293.97 179.852 293.567 177.79 293.343C177.7 293.343 177.655 293.298 177.566 293.298C175.055 293.119 172.5 292.985 169.99 292.806C169.317 292.761 168.779 292.985 168.286 293.388C165.193 295.716 162.1 298.044 159.007 300.373C155.779 302.791 152.552 305.209 149.369 307.626C148.293 308.432 147.217 309.328 146.141 310.179C145.962 310.358 145.648 310.492 145.603 310.716C145.379 311.522 144.752 311.612 144.124 311.612C143.541 311.567 142.959 311.477 142.376 311.343C142.062 311.298 141.748 311.209 141.39 311.119C139.955 310.85 138.476 310.582 137.041 310.268C136.145 310.089 135.293 309.955 134.397 309.776C131.662 309.283 128.928 308.835 126.193 308.298C124.355 307.94 122.562 307.492 120.769 307.134C118.752 306.731 116.734 306.462 114.717 306.104C112.879 305.746 110.997 305.343 109.159 304.94C108.307 304.761 107.41 304.582 106.559 304.403C105.438 304.179 104.272 304.044 103.152 303.82C102.479 303.686 101.762 303.552 101.09 303.373C99.2517 302.97 97.4138 302.567 95.5311 302.209C94.4104 301.985 93.2448 301.85 92.1242 301.626C90.9138 301.403 89.7035 301.179 88.5379 300.91C87.731 300.731 86.969 300.552 86.1621 300.373C85.0414 300.149 83.8759 300.015 82.7552 299.791C81.7242 299.612 80.6483 299.343 79.6173 299.119C78.6311 298.895 77.6448 298.716 76.6586 298.537C74.1483 298.044 71.6379 297.597 69.1276 297.059C67.6931 296.746 66.2586 296.343 64.869 295.895C64.5552 295.806 64.1966 295.537 64.1069 295.223C62.7621 292.223 61.4173 289.223 60.1621 286.223C59.4448 284.567 58.9069 282.82 58.2345 281.119C57.2931 278.656 56.3069 276.238 55.3655 273.82C54.3345 271.179 53.2586 268.537 52.3621 265.85C51.2414 262.537 50.2552 259.134 49.2241 255.82C48.731 254.298 48.1035 252.865 47.6104 251.343C47.0276 249.597 46.5793 247.806 46.0862 246.015C45.9517 245.522 45.8173 245.029 45.6828 244.626C45.8621 244.492 45.9069 244.403 45.9966 244.403C47.1621 244.223 48.3724 244.134 49.4931 243.91C50.6138 243.686 51.6 244.179 52.631 244.447C53.4379 244.671 54.2448 244.985 55.0966 245.119C57.0241 245.477 58.9966 245.791 60.9242 246.149C63.569 246.641 66.169 247.223 68.769 247.761C69.9345 247.985 71.1 248.119 72.2655 248.343C73.3862 248.567 74.5069 248.791 75.6276 249.059C76.4793 249.238 77.2862 249.418 78.1379 249.552C79.2586 249.776 80.4242 249.91 81.5448 250.134C82.7104 250.358 83.8759 250.626 84.9966 250.895C85.8483 251.074 86.7448 251.253 87.5966 251.388C89.569 251.746 91.5414 252.015 93.5138 252.417C95.3517 252.776 97.1448 253.179 98.9379 253.582C100.014 253.806 101.134 253.985 102.21 254.164C102.569 254.209 102.928 254.119 103.241 254.119C104.272 250.358 105.617 246.776 107.141 243.283C107.59 242.253 108.038 241.268 108.486 240.238C108.755 239.656 108.666 239.432 107.993 239.388C107.276 239.343 106.559 239.388 105.886 239.343C102.703 239.298 99.5207 239.343 96.3828 239.253C93.0207 239.164 89.7035 238.985 86.3414 238.85C86.1173 238.85 85.8931 238.85 85.669 238.806C83.2483 238.671 80.8276 238.582 78.4069 238.447C76.8379 238.403 75.269 238.403 73.7 238.313C72.0414 238.223 70.3828 238.044 68.5448 237.91C68.231 236.97 67.9173 236.029 67.6483 235.044C67.4242 234.194 67.2897 233.298 67.0655 232.447C66.931 231.865 66.6621 231.462 65.9897 231.149C65.1379 230.746 64.2862 230.074 63.6586 229.358C62.2241 227.701 60.7 226.044 59.7138 224.074C59.2207 223.089 58.5931 222.328 57.831 221.567C56.2173 220 55.1414 218.119 54.5138 215.925C53.8414 213.552 53.6173 211.223 53.7069 208.761C53.931 204.597 53.9759 200.432 54.2 196.268C54.3345 193.626 54.7379 190.94 55.0517 188.298C55.1414 187.716 55.231 187.089 55.5448 186.597C56.0379 185.88 56.0379 185.209 55.8586 184.492C55.4552 182.612 55.0517 180.731 54.6483 178.85C54.469 177.91 54.2897 176.97 54.1104 176.029C53.8862 174.955 53.5724 173.88 53.3483 172.806C53.2586 172.403 53.2586 171.955 53.2586 171.373C53.931 171.373 54.469 171.373 55.0517 171.373C58.8621 171.328 62.6724 171.418 66.4828 171.194C73.7 170.791 80.9621 170.97 88.1793 170.925C92.3035 170.88 96.4724 170.925 100.597 170.925C101.807 170.925 102.793 171.865 102.972 173.074C103.197 174.82 103.466 176.612 103.734 178.358C103.779 178.537 103.779 178.716 103.779 178.895C103.959 180.82 104.138 182.746 104.317 184.671C104.407 185.746 104.676 185.88 105.528 185.253C108.262 183.283 111.131 181.626 114.09 180.015C118.124 177.865 122.159 175.716 126.372 173.88C126.641 173.746 126.866 173.567 127.179 173.298C126.328 172.626 125.521 171.955 124.714 171.373C122.024 169.358 119.559 167.074 117.317 164.567C115.166 162.149 113.193 159.686 111.355 157C109.741 154.626 108.352 152.119 107.007 149.567C105.438 146.522 104.183 143.298 103.062 140.074C102.434 138.283 102.031 136.447 101.583 134.612C101.134 132.82 100.731 131.029 100.372 129.194C100.103 127.716 100.014 126.238 99.7897 124.761C99.0724 120.373 99.2966 115.94 99.2966 111.507C99.2966 109.85 99.2966 108.238 99.4759 106.582C99.7897 104.029 100.238 101.432 100.597 98.8802C100.776 97.6265 100.955 96.3727 101.179 95.1638C101.448 93.7309 101.807 92.3429 102.166 90.9548C102.524 89.6115 102.928 88.2235 103.331 86.925C104.003 84.8653 104.631 82.7608 105.393 80.7459C106.11 78.91 106.962 77.119 107.724 75.2832C107.859 74.9697 107.814 74.4324 107.635 74.1638C105.886 71.119 105.797 67.8503 106.155 64.5369C106.469 61.9399 107.186 59.4772 108.71 57.2832C110.145 55.1787 112.117 54.1041 114.672 54.1041C115.21 54.1041 115.614 54.0593 115.883 53.522C116.869 51.3727 117.855 49.2683 118.931 46.9399C118.438 46.9847 118.035 46.9847 117.631 47.0742C116.914 47.1638 116.152 47.3429 115.435 47.4324C114.403 47.522 113.552 46.9399 113.148 45.9996C112.61 44.7011 112.79 43.8056 113.552 42.9548C114.314 42.1041 115.345 41.9698 116.331 41.6563C118.079 41.0742 119.917 40.6712 121.666 40.1787C121.979 40.0892 122.293 39.8653 122.697 39.6414C121.934 39.0593 121.262 38.5668 120.635 38.0742C119.245 36.9548 117.81 35.8354 116.421 34.6265C115.838 34.0892 115.39 33.3727 114.852 32.7459C114.314 32.119 114.403 31.4921 114.807 30.9101C115.255 30.328 115.748 29.7906 116.286 29.2533C116.779 28.7608 117.452 28.9399 117.99 29.1638C118.752 29.4772 119.469 29.8802 120.097 30.3727C121.935 31.8503 123.728 33.3727 125.566 34.8951C125.655 34.9847 125.79 35.0742 125.969 35.1638C126.372 34.8504 126.686 34.4921 127.09 34.2683C127.583 33.9548 128.121 33.6414 128.659 33.5518C129.645 33.4175 130.228 33.9996 130.228 34.9847C130.228 35.7011 130.093 36.4623 130.003 37.1787C129.959 37.4921 129.869 37.7608 130.407 37.8951C130.766 37.4026 131.124 36.8653 131.528 36.328C131.841 35.9698 132.155 35.5668 132.514 35.2533C133.321 34.5817 134.262 34.8056 134.71 35.7906C134.89 36.1489 135.024 36.5518 135.159 36.9996C135.428 36.9996 135.652 37.0444 135.921 36.9996C138.341 36.6414 140.762 36.2384 143.183 35.8354C143.362 35.7906 143.541 35.7906 143.721 35.7459C145.469 35.6115 147.172 35.522 148.921 35.3429C150.176 35.2086 151.386 35.3429 152.552 35.7011C152.91 35.8354 153.314 36.1489 153.493 36.5071C153.672 36.9101 153.359 37.313 152.955 37.4921C151.79 38.0742 150.669 38.7459 149.503 39.1936C146.814 40.2683 144.124 41.2981 141.345 41.9697C140.314 42.2384 139.283 42.5071 138.252 42.8653C137.983 42.9548 137.714 43.1787 137.445 43.4026C139.507 45.0593 141.524 46.6265 143.452 48.2384C144.976 49.5369 146.455 50.9698 147.89 52.3578C148.248 52.6712 148.472 53.119 148.741 53.522C149.324 54.4175 148.966 55.0892 147.89 55.2683C146.814 55.4474 145.828 55.0444 144.841 54.7309C142.6 53.9698 140.672 52.6712 138.79 51.328C136.997 50.0742 135.248 48.7757 133.455 47.5668C132.917 47.1638 132.648 47.2533 132.469 47.7906C131.617 50.119 130.766 52.4026 129.914 54.6862C130.541 55.0444 131.124 55.4026 131.707 55.8056C132.245 56.1638 132.469 56.6563 132.559 57.2832C132.603 57.8653 132.693 58.4474 132.828 59.0294C132.872 59.2533 133.007 59.522 133.186 59.7011C135.203 61.4921 135.159 63.91 134.083 66.1041C133.41 67.4474 132.424 68.4324 131.124 69.1936C130.766 69.4175 130.407 69.8205 130.228 70.2235C129.241 72.5966 128.076 74.8354 126.597 76.9399C126.507 77.0742 126.462 77.2086 126.328 77.2981C125.207 78.0593 125.207 79.2235 125.117 80.4324C124.983 82.2683 124.669 84.1041 124.445 85.9399C124.355 86.6115 124.355 87.2832 124.31 87.9548C124.221 90.0593 124.041 92.119 124.086 94.2235C124.131 96.1041 124.4 97.9847 124.624 99.8653C124.759 101.164 124.938 102.462 125.207 103.716C125.566 105.507 125.969 107.253 126.372 109.044C126.686 110.298 127.045 111.552 127.359 112.806C127.941 115.089 128.793 117.238 129.824 119.343C131.348 122.477 132.872 125.567 134.576 128.612C135.876 130.985 137.355 133.268 138.79 135.597C139.641 136.985 140.628 138.328 141.883 139.447C142.466 139.985 142.824 140.701 143.362 141.418C143.631 141.104 143.81 140.925 143.855 140.746C143.945 140.164 143.9 139.582 143.99 139C144.393 136.403 144.841 133.806 145.245 131.209C145.424 130.134 145.603 129.104 145.828 128.029C145.962 127.268 146.186 126.507 146.366 125.746C146.769 124.268 147.172 122.746 147.666 121.268C148.248 119.567 148.921 117.865 149.593 116.209C151.028 112.716 152.552 109.268 153.897 105.776C155.062 102.776 156.362 99.8653 157.797 96.9548C158.783 94.9847 159.679 93.0145 160.935 91.2683C162.459 89.1638 164.117 87.1936 165.776 85.2235C167.166 83.5668 168.6 81.9996 169.99 80.4324C170.931 79.4026 171.872 78.3727 172.859 77.3877C174.293 76.0444 175.728 74.7459 177.207 73.4921C179.045 71.925 181.107 70.7608 183.483 70.0891C186.666 69.1489 189.848 68.7459 193.121 68.7906C194.869 68.8354 196.348 69.4623 197.783 70.4026C198.455 70.8951 199.128 71.3877 200.024 72.0593C199.979 71.4772 199.935 71.0742 199.89 70.6712C199.8 69.8653 199.576 69.0593 199.531 68.2533C199.486 67.0892 200.383 66.5518 201.548 66.8205C203.252 67.2235 203.7 68.2981 204.014 69.8653C204.059 70.0444 204.014 70.2235 204.059 70.4026C204.148 71.0295 204.372 71.119 204.91 70.716C205.224 70.4921 205.583 70.2235 205.941 70.1787C207.824 69.91 208.272 70.8951 207.869 72.5071C207.734 72.9996 207.555 73.4921 207.376 74.0294C207.824 74.1638 208.228 74.2981 208.586 74.3877C212.89 75.7757 215.759 78.7309 217.866 82.5817C219.121 84.91 220.286 87.328 221.183 89.7906C221.945 91.9399 222.617 94.1339 223.29 96.328C223.872 98.3429 224.455 100.358 224.948 102.418C225.397 104.343 225.621 106.268 225.979 108.238C226.383 110.343 226.786 112.447 227.19 114.552C227.503 116.209 227.907 117.865 228.221 119.567C228.624 121.626 229.028 123.686 229.476 125.791C229.835 127.537 230.148 129.283 230.507 131.029C230.866 132.82 231.314 134.656 231.672 136.447C231.807 137.074 231.762 137.701 231.807 138.328C231.941 140.119 232.031 141.865 232.166 143.656C232.166 143.925 232.21 144.194 232.166 144.418C232.031 145.85 231.897 147.283 231.762 148.716C231.717 149.164 231.628 149.567 231.493 150.194C231.762 150.104 232.076 150.059 232.21 149.88C233.824 148.447 235.438 147.059 236.917 145.492C238.441 143.88 239.786 142.134 241.221 140.432C244.045 137.119 246.197 133.403 248.348 129.641C249.559 127.582 250.948 125.612 252.114 123.552C253.503 121.134 254.893 118.671 256.059 116.164C256.91 114.328 257.493 112.358 258.21 110.477C258.569 109.492 258.883 108.462 259.197 107.432C259.421 106.671 259.69 105.865 259.869 105.104C260.497 102.731 261.079 100.358 261.662 98.0294C262.29 95.6115 262.872 93.1488 263.455 90.6862C263.724 89.522 263.814 88.3578 264.038 87.1936C264.262 85.9847 264.531 84.8205 264.755 83.6115C264.934 82.6712 265.114 81.7309 265.248 80.7906C265.472 79.1339 265.607 77.4772 265.786 75.8205C266.01 73.8951 266.324 72.0145 266.548 70.0891C266.683 68.7011 266.683 67.313 266.728 65.9697C266.817 64.6712 266.907 63.3727 267.041 62.119C267.131 61.3578 266.817 60.8205 266.279 60.3727C265.069 59.2086 263.814 58.0892 262.648 56.925C261.438 55.716 260.228 54.4623 259.062 53.2086C257.897 51.9996 256.776 50.8354 255.655 49.6265C254.445 48.3727 253.324 47.0742 252.562 45.4623C252.159 44.5668 252.203 44.119 253.1 43.8056C253.952 43.4921 254.848 43.4474 255.835 43.2683C255.745 43.1339 255.61 42.8653 255.476 42.6414C254.535 41.0742 253.638 39.5071 252.517 38.0295C251.71 36.9996 251.352 35.6563 250.679 34.5369C249.424 32.3877 248.035 30.2832 246.735 28.1339C246.152 27.1489 245.524 26.1638 245.031 25.1787C244.09 23.3877 244.045 21.5071 244.762 19.6712C245.076 18.9101 245.614 18.1936 246.555 17.7906C248.438 16.9399 250.276 15.9996 252.159 15.1041C255.207 13.6265 258.3 12.1936 261.348 10.716C261.841 10.4921 262.29 10.1339 262.828 9.95483C263.859 9.55184 264.845 10.0444 265.652 10.5817C266.459 11.119 267.266 11.7906 267.848 12.5966C270.179 15.7309 272.241 19.0444 273.9 22.5817C274.752 24.4175 275.738 26.0742 276.679 27.8205ZM258.659 45.2384C258.748 45.3727 258.838 45.4623 258.928 45.5966C258.972 45.5518 258.972 45.5518 259.017 45.5071C258.883 45.4175 258.748 45.328 258.659 45.2384C258.479 45.1041 258.345 44.9697 258.21 44.8354C258.166 44.119 257.672 43.8503 257.135 43.6265C257.403 44.119 257.493 44.7906 258.21 44.8354C258.345 44.925 258.524 45.1041 258.659 45.2384ZM329.89 288.686C329.8 288.597 329.71 288.462 329.666 288.373C329.621 288.418 329.621 288.462 329.576 288.507C329.666 288.552 329.8 288.597 329.89 288.686C329.979 288.91 330.024 289.223 330.159 289.447C330.517 290.074 330.966 290.656 331.369 291.283C331.728 291.776 332.041 292.268 331.997 292.985C331.952 293.164 332.176 293.432 332.355 293.567C332.4 293.612 332.759 293.522 332.803 293.388C332.893 293.164 332.893 292.895 332.803 292.716C332.221 291.731 331.593 290.746 330.921 289.761C330.607 289.358 330.248 289.044 329.89 288.686ZM143.945 51.0593C143.9 51.2384 143.9 51.4623 143.81 51.5518C143.272 52.2235 143.362 52.8951 143.631 53.6115C144.483 53.8802 145.29 54.1041 146.231 54.4175C146.41 53.8354 146.679 53.3877 146.59 52.9847C146.366 51.9548 145.066 51.1041 143.945 51.0593C144.169 50.4772 143.766 50.0742 143.362 49.7608C141.972 48.5966 140.583 47.4324 139.193 46.2683C138.297 45.5071 137.355 44.7906 136.369 44.119C135.741 43.6712 134.307 43.7608 133.769 44.2533C132.917 44.9697 132.962 46.2235 133.903 46.8951C134.217 47.119 134.531 47.2981 134.845 47.522C136.638 48.8205 138.386 50.1638 140.224 51.4623C140.941 51.9548 141.703 52.4026 142.421 52.8503C142.959 52.1787 143.138 51.328 143.945 51.0593ZM166.807 116.835C166.986 116.612 167.121 116.388 167.3 116.029C166.448 114.731 165.552 113.432 164.655 112.134C164.7 112.089 164.745 112 164.834 111.955C165.059 112.044 165.372 112.089 165.552 112.268C166.269 113.029 166.941 113.791 167.614 114.552C167.883 114.865 168.152 115.134 168.51 115.582C168.421 113.925 168.331 112.537 168.286 111.104C168.286 109.716 167.569 108.641 166.941 107.567C166.717 107.209 166.403 107.119 165.91 107.298C164.969 107.656 164.476 108.373 164.207 109.179C163.893 110.029 163.938 111.015 163.624 111.865C163.131 113.119 163.624 114.328 163.938 115.447C164.655 118 166 120.238 167.793 122.209C168.555 123.059 169.317 123.82 170.662 124.447C170.438 123.641 170.259 123.059 170.124 122.477C169.766 120.686 169.003 119.074 168.152 117.462C167.793 116.97 167.345 116.791 166.807 116.835ZM265.383 44.7906C265.428 44.925 265.472 45.0145 265.517 45.1489C265.562 45.1041 265.607 45.0593 265.652 45.0593C265.562 44.925 265.472 44.8802 265.383 44.7906C264.666 43.8503 263.993 42.9548 263.366 41.9697C261.393 38.8802 259.421 35.7459 257.493 32.6115C256.776 31.4026 256.193 30.0593 255.655 28.716C255.386 28.0892 255.252 27.328 255.879 26.7459C256.552 26.119 257.269 25.8951 258.121 26.2981C258.345 26.3877 258.614 26.4324 258.838 26.522C260.138 27.0593 261.438 27.7309 262.29 28.8504C263.5 30.4623 264.621 32.1638 265.786 33.8205C266.459 34.7608 267.086 35.7459 267.714 36.6862C267.803 36.6414 267.893 36.5966 267.983 36.5966C267.893 36.2832 267.848 35.9698 267.759 35.7011C267.535 35.119 267.266 34.5369 267.131 33.9548C266.728 32.4324 266.234 30.9101 266.01 29.3429C265.741 27.5518 265.159 25.716 265.786 23.8354C266.01 23.119 266.817 22.6712 267.49 23.0742C267.848 23.2981 268.252 23.5668 268.521 23.8802C269.955 25.4921 271.166 27.2384 272.017 29.2533C273.317 32.4324 274.841 35.522 276.545 38.4772C276.679 38.7011 276.948 38.8802 277.172 39.1041C277.083 37.9847 276.814 37.0444 276.679 36.0593C276.455 34.2683 276.321 32.4324 276.097 30.6414C276.007 30.0145 275.828 29.3429 275.559 28.7608C274.976 27.5518 274.303 26.4324 273.676 25.2683C272.466 22.9847 271.166 20.7011 270.045 18.328C269.059 16.313 267.938 14.4324 266.593 12.6862C265.428 11.2533 263.455 10.8056 261.797 11.6115C259.421 12.7309 257.09 13.8951 254.714 15.0145C252.517 16.0444 250.321 17.119 248.079 18.1041C245.883 19.0444 245.435 21.328 245.793 22.8951C246.107 24.1041 246.645 25.2235 247.317 26.2981C248.707 28.5817 250.052 30.8205 251.262 33.1936C251.71 34.0892 252.293 34.4474 253.19 34.5817C253.817 34.716 254.535 34.8951 254.983 35.2981C256.821 36.8653 258.614 38.522 260.362 40.1787C261.841 41.5668 263.186 43.0892 264.621 44.522C264.845 44.6115 265.159 44.6563 265.383 44.7906ZM306.176 267.731C306.086 267.373 306.086 267.194 305.997 267.059C304.697 264.417 303.172 261.91 301.379 259.537C298.69 255.955 296.179 252.194 293.624 248.522C291.159 245.029 288.648 241.537 286.183 238.044C283.135 233.701 280.131 229.313 276.993 225.059C273.721 220.582 270.359 216.149 266.952 211.716C264.576 208.582 262.066 205.492 259.645 202.403C257.583 199.806 255.566 197.164 253.548 194.567C250.903 191.119 248.303 187.626 245.614 184.223C242.79 180.731 239.876 177.328 236.962 173.88C234.586 171.015 232.166 168.194 229.79 165.328C229.117 164.522 228.49 163.716 227.862 162.91C227.369 162.283 227.19 162.328 226.697 162.955C226.472 163.268 226.293 163.582 226.114 163.895C224.545 166.089 222.662 168.015 220.555 169.716C217.686 172.044 214.503 173.746 210.917 174.731C209.079 175.223 207.197 175.761 205.359 176.209C202.938 176.791 200.741 176.298 198.59 175.268C197.021 174.507 195.81 173.253 194.779 171.91C193.748 170.567 192.897 169.089 192.897 167.253C192.897 166.313 192.852 165.373 192.852 164.477C192.852 163.806 192.628 163.537 191.955 163.492C189.848 163.313 187.831 162.686 185.814 162.059C185.141 161.835 184.962 161.925 184.828 162.597C184.693 163.313 184.514 164.029 184.379 164.746C183.662 168.104 179.762 170.119 176.579 169C175.459 168.597 174.338 168.149 173.217 167.88C170.438 167.209 167.838 167.612 165.462 169.179C164.297 169.94 163.176 170.791 161.786 171.194C161.383 171.328 160.935 171.507 160.621 171.776C159.141 172.985 157.662 174.194 156.183 175.447C154.748 176.701 153.359 178 151.969 179.388C149.862 181.492 147.755 183.641 145.738 185.835C143.631 188.164 141.614 190.582 139.686 193.044C137.041 196.403 134.397 199.761 131.976 203.298C128.703 208 125.521 212.835 122.428 217.671C120.724 220.313 119.155 223 117.631 225.731C115.793 229 114 232.313 112.297 235.671C111.041 238.134 109.831 240.641 108.755 243.149C107.5 246.149 106.334 249.194 105.259 252.238C104.99 253.044 104.362 253.806 104.676 254.791C104.99 254.88 105.303 255.059 105.617 255.104C106.783 255.328 107.948 255.507 109.114 255.731C110.145 255.91 111.176 256.089 112.162 256.313C113.283 256.537 114.403 256.806 115.524 257.029C116.6 257.253 117.721 257.388 118.797 257.612C120.679 257.97 122.562 258.418 124.445 258.82C126.686 259.268 128.972 259.671 131.214 260.119C131.662 260.209 132.021 260.209 132.424 259.85C133.679 258.641 135.069 257.522 136.324 256.268C138.61 254.074 140.897 251.835 143.138 249.597C146.455 246.283 149.772 242.97 153.09 239.656C155.959 236.791 158.783 233.97 161.652 231.104C162.324 230.432 162.548 230.477 163.221 231.373C162.683 232 162.145 232.671 161.562 233.298C159.276 235.806 156.945 238.268 154.659 240.731C152.148 243.373 149.683 246.015 147.128 248.612C146.41 249.373 146.052 250.089 146.141 251.164C146.321 252.955 146.455 254.791 146.634 256.582C146.814 258.552 146.948 260.522 147.217 262.447C147.441 264.238 147.755 266.029 148.069 267.82C148.293 269.074 148.607 270.283 148.831 271.537C148.921 271.985 149.145 272.164 149.593 272.209C151.7 272.477 153.807 272.791 155.869 273.059C158.021 273.373 160.128 273.641 162.279 273.955C164.566 274.268 166.852 274.582 169.093 274.895C171.2 275.164 173.262 275.477 175.369 275.746C177.476 276.059 179.583 276.552 181.645 276.552C183.617 276.552 184.514 277.358 184.962 279.149C185.186 280.089 185.231 280.403 184.469 280.985C180.659 283.895 176.848 286.806 172.993 289.716C172.141 290.388 171.245 291.014 170.214 291.82C171.872 292.044 173.307 292.268 174.741 292.358C176.49 292.492 178.193 292.447 179.941 292.716C182.317 293.074 184.783 293.209 187.159 293.209C190.79 293.253 194.466 293.388 198.097 292.985C201.19 292.626 204.328 292.85 207.466 292.492C211.052 292.089 214.683 292.089 218.269 291.865C219.614 291.776 220.914 291.552 222.259 291.373C224.007 291.104 225.755 290.791 227.503 290.477C227.728 290.432 227.952 290.388 228.176 290.343C230.014 289.985 231.897 289.582 233.735 289.223C234.317 289.089 234.9 288.91 235.572 288.731C235.393 288.059 235.259 287.567 235.079 287.074C234.721 286 235.035 285.015 235.662 284.164C236.335 283.268 237.186 282.462 237.948 281.612C240.459 278.612 243.507 276.149 246.466 273.597C246.69 273.373 246.914 273.015 246.959 272.701C247.183 271.582 247.317 270.418 247.541 269.298C247.766 268 248.124 266.701 248.259 265.358C248.483 262.985 248.572 260.612 248.752 258.238C248.841 257.209 248.976 256.179 249.066 255.149C249.2 254.029 249.066 253.089 248.124 252.238C246.376 250.582 244.672 248.835 243.014 247.044C240.728 244.582 238.531 242.029 236.335 239.522C235.662 238.761 235.035 237.955 234.407 237.194C234.721 236.88 234.855 236.701 235.079 236.477C235.886 237.149 236.693 237.776 237.455 238.537C240.145 241.223 242.745 244 245.435 246.686C248.438 249.686 251.576 252.552 254.579 255.552C259.869 260.791 265.248 265.94 270.941 270.731C274.079 273.373 277.352 275.835 280.579 278.343C281.207 278.835 281.924 279.194 282.552 279.641C282.686 279.462 282.776 279.418 282.821 279.373C282.955 279.104 283.045 278.835 283.135 278.567C283.807 276.552 284.883 274.806 286.497 273.462C287.752 272.343 289.141 271.358 290.531 270.373C291.203 269.88 292.01 269.522 292.772 269.209C294.386 268.537 296.045 268.044 297.748 267.686C300.035 267.238 302.231 267.194 304.472 267.686C305.055 267.641 305.593 267.641 306.176 267.731ZM65.3173 295.582C66.5724 295.716 67.8276 295.806 69.0828 295.985C70.4724 296.209 71.8621 296.477 73.2517 296.746C74.4173 296.97 75.5828 297.104 76.7483 297.328C78.7207 297.686 80.6931 298.134 82.6207 298.492C84.5931 298.85 86.5655 299.119 88.5379 299.522C90.4207 299.88 92.3035 300.328 94.1862 300.731C96.5621 301.179 98.9379 301.626 101.314 302.074C103.331 302.432 105.348 302.746 107.366 303.104C108.307 303.283 109.248 303.462 110.19 303.641C111.31 303.865 112.431 304.134 113.552 304.313C114.672 304.537 115.838 304.716 116.959 304.895C117.766 305.029 118.572 305.209 119.379 305.343C121.397 305.746 123.369 306.149 125.386 306.552C126.148 306.686 126.91 306.865 127.672 307C128.748 307.179 129.779 307.313 130.855 307.537C132.738 307.94 134.621 308.343 136.503 308.746C138.028 309.059 139.552 309.328 141.076 309.597C141.434 309.641 141.793 309.597 142.197 309.597C142.107 309.194 142.062 308.97 142.017 308.746C141.614 307.492 141.21 306.194 140.807 304.94C140.403 303.641 140.045 302.343 139.641 301C139.014 298.806 138.341 296.612 137.759 294.418C137.31 292.806 136.907 291.194 136.503 289.582C136.145 288.149 135.786 286.716 135.428 285.283C135.069 283.94 134.71 282.552 134.397 281.209C133.993 279.552 133.59 277.895 133.231 276.238C132.872 274.582 132.559 272.88 132.2 271.223C131.841 269.656 131.393 268.134 130.945 266.612C130.631 265.447 130.272 264.283 129.959 263.164C129.062 262.985 128.3 262.806 127.538 262.626C126.462 262.403 125.341 262.268 124.266 262.044C122.472 261.686 120.635 261.238 118.841 260.88C117.003 260.522 115.21 260.209 113.372 259.85C110.817 259.313 108.217 258.731 105.662 258.194C104.81 258.015 104.003 257.88 103.152 257.701C102.121 257.522 101.09 257.343 100.103 257.119C98.3552 256.761 96.6517 256.313 94.9035 255.955C92.3483 255.462 89.7931 254.97 87.2379 254.477C86.3862 254.298 85.5793 254.164 84.7276 253.985C82.9345 253.582 81.1414 253.179 79.3035 252.82C77.5104 252.462 75.7173 252.149 73.969 251.791C73.1173 251.612 72.3104 251.477 71.4586 251.298C70.4276 251.074 69.3966 250.761 68.3207 250.582C66.5276 250.223 64.7345 249.955 62.9414 249.597C60.431 249.059 57.9655 248.522 55.4552 247.94C52.9897 247.358 50.4793 246.776 48.0138 246.194C47.7448 246.149 47.4759 246.194 47.0724 246.194C47.1621 246.641 47.1621 246.955 47.2966 247.268C48.0138 249.194 48.731 251.164 49.4931 253.089C50.8828 256.492 51.9138 259.985 53.0793 263.432C54.2 266.791 55.5448 270.059 56.8 273.373C57.6069 275.567 58.5035 277.716 59.2655 279.865C59.9379 281.656 60.431 283.537 61.1483 285.283C62.4931 288.686 63.9276 292.089 65.3173 295.582ZM266.1 166.044C266.459 165.641 266.862 165.283 267.176 164.88C268.521 163.179 269.866 161.432 271.166 159.686C274.214 155.567 276.859 151.268 279.235 146.746C281.341 142.761 283.269 138.686 284.793 134.477C285.959 131.253 287.169 128.029 288.155 124.761C288.962 122.164 289.455 119.432 290.083 116.791C290.307 115.895 290.486 115 290.666 114.059C290.89 112.85 291.159 111.641 291.338 110.432C291.562 108.776 291.786 107.119 291.966 105.462C292.19 103.044 292.548 100.671 292.593 98.2533C292.638 95.2981 292.683 92.2981 292.414 89.3429C292.19 86.8354 292.01 84.2832 291.786 81.7757C291.697 80.6115 291.517 79.4026 291.293 78.2384C290.935 76.4026 290.531 74.5668 290.083 72.7309C289.635 70.7608 289.231 68.7459 288.559 66.8205C287.393 63.4623 286.003 60.1489 284.703 56.8354C284.345 55.9847 284.21 55.8503 283.314 55.9399C282.462 56.0295 281.61 56.2533 280.803 56.522C279.145 57.0593 277.486 57.5518 275.872 58.1787C273.721 59.0295 271.569 59.9697 269.462 60.91C268.79 61.2235 268.386 61.716 268.521 62.6115C268.655 63.5071 268.7 64.4474 268.7 65.3877C268.7 66.6862 268.566 67.9847 268.521 69.2832C268.476 70.2683 268.476 71.2086 268.386 72.1936C268.162 74.522 267.893 76.8503 267.624 79.1787C267.535 80.119 267.4 81.0145 267.266 81.9548C267.086 83.0742 266.907 84.2384 266.772 85.3578C266.593 86.7011 266.414 88.0892 266.19 89.4324C266.055 90.328 265.876 91.1787 265.652 92.0294C265.293 93.5518 264.89 95.0294 264.531 96.5518C264.172 98.119 263.903 99.6862 263.455 101.209C262.828 103.582 262.11 105.955 261.348 108.328C260.586 110.656 259.735 112.985 258.883 115.313C257.493 118.985 255.341 122.253 253.459 125.656C252.428 127.492 251.128 129.149 250.097 130.985C247.631 135.507 244.717 139.716 241.31 143.522C238.845 146.253 236.379 148.985 233.376 151.179C233.062 151.403 232.883 151.582 233.107 152.074C244.359 155.88 255.072 161.119 266.1 166.044ZM240.772 286.447C241.31 286.94 241.669 287.253 242.028 287.612C242.252 287.835 242.521 288.059 242.79 288.238C244 289.179 245.21 290.074 246.421 290.97C251.038 294.462 255.7 297.91 260.317 301.403C264.128 304.268 267.893 307.179 271.659 310.044C276.276 313.537 280.848 317.119 285.645 320.388C287.124 321.373 288.469 322.582 289.859 323.656C291.114 324.686 292.459 325.626 293.624 326.791C294.835 328 296.224 328.94 297.748 329.701C297.972 329.791 298.331 329.746 298.555 329.612C299.048 329.298 299.497 328.85 300.035 328.492C300.617 328.044 301.29 327.686 301.828 327.238C303.262 326.119 304.652 324.955 306.086 323.88C310.569 320.522 314.962 317.029 319.31 313.447C324.017 309.597 328.904 305.97 333.745 302.253C334.641 301.582 334.731 301.313 333.924 300.507C332.848 299.477 331.817 298.358 330.517 297.731C328.321 296.612 326.931 294.641 325.048 293.253C323.972 292.447 323.076 291.462 322.045 290.612C320.835 289.626 319.624 288.686 318.369 287.701C316.755 286.403 315.186 285.015 313.528 283.806C312.138 282.82 310.659 282.015 309.179 281.119C308.193 280.537 307.207 280.179 306.041 280.223C304.203 280.268 302.366 280.268 300.572 280.223C299.497 280.179 298.6 280.447 297.793 281.164C297.569 281.343 297.3 281.477 297.031 281.567C296.045 281.835 295.014 282.059 294.028 282.373C292.235 282.865 290.486 283.582 288.693 283.895C287.214 284.164 285.645 284.074 284.3 283.179C283.583 282.686 282.955 282.149 282.238 281.656C279.324 279.597 276.321 277.671 273.497 275.522C270.628 273.373 267.893 271 265.114 268.716C264.531 268.268 263.993 267.776 263.5 267.373C262.693 267.91 261.931 268.313 261.303 268.85C259.869 270.059 258.435 271.268 257 272.522C254.803 274.447 252.652 276.373 250.41 278.298C247.317 280.94 244.179 283.492 241.086 286.134C240.907 286.179 240.817 286.403 240.772 286.447ZM148.831 164.253C148.876 163.985 148.876 163.85 148.876 163.761C148.831 163.582 148.741 163.403 148.652 163.268C146.903 160.537 145.917 157.492 145.245 154.313C145.066 153.462 144.931 152.656 144.752 151.806C144.303 149.835 143.855 147.91 143.945 145.85C143.99 145.089 143.766 144.507 143.228 143.97C142.017 142.716 140.807 141.418 139.686 140.074C137.4 137.388 135.472 134.388 133.769 131.298C131.572 127.268 129.555 123.194 127.583 119.074C126.597 116.925 125.834 114.686 125.207 112.403C124.579 110.029 124.176 107.567 123.728 105.104C123.548 104.029 123.369 103 123.234 101.925C122.966 99.5966 122.562 97.2683 122.472 94.9399C122.383 92.8802 122.652 90.7757 122.831 88.716C122.966 86.8354 123.145 84.9548 123.414 83.0742C123.548 81.9996 123.862 80.925 124.086 79.7608C122.652 78.5966 120.993 77.7011 119.245 76.9847C116.69 75.9548 114 75.6862 111.31 75.2384C110.728 75.1488 110.1 75.1488 109.517 75.1488C108.979 75.1488 108.666 75.328 108.486 75.91C107.814 77.8354 107.052 79.716 106.424 81.6414C105.752 83.6115 105.124 85.5817 104.541 87.5518C103.959 89.6115 103.51 91.716 103.017 93.8205C102.614 95.6563 102.166 97.4921 101.852 99.3727C101.493 101.477 101.269 103.626 101.09 105.776C100.866 108.418 100.597 111.015 100.552 113.656C100.507 116.074 100.731 118.492 100.866 120.91C101 122.791 101.179 124.671 101.359 126.552C101.493 127.626 101.672 128.701 101.897 129.731C102.255 131.432 102.659 133.134 103.107 134.791C103.555 136.626 104.003 138.462 104.631 140.253C105.707 143.164 106.828 146.029 108.128 148.85C109.562 151.985 111.266 154.94 113.283 157.761C115.21 160.492 117.272 163.044 119.603 165.462C122.069 168.015 124.714 170.343 127.538 172.537C128.076 172.94 128.524 172.94 129.062 172.671C132.962 170.656 136.952 168.82 140.986 167.119C141.748 166.806 142.466 166.403 143.228 166.134C145.11 165.462 146.993 164.88 148.831 164.253ZM101.448 221.164C101.448 221.253 101.448 221.343 101.448 221.477C100.148 221.477 98.8483 221.567 97.5931 221.477C95.1724 221.298 92.7069 220.94 90.2862 220.761C86.6552 220.447 83.0242 220.223 79.3931 219.91C77.1517 219.731 74.8655 219.552 72.6242 219.328C71.9069 219.283 71.2345 219.194 70.5173 219.059C70.1586 219.015 69.7552 218.791 69.5759 219.283C69.3517 219.82 69.8448 220.044 70.2035 220.179C70.7414 220.403 71.3242 220.492 71.9069 220.671C73.2069 220.985 74.5517 221.209 75.7621 221.701C77.4207 222.373 79.0345 223.089 79.7517 224.925C79.6621 225.283 79.5276 225.597 79.3931 226.044C79.8414 226.134 80.2 226.268 80.5586 226.313C83.7862 226.537 87.0138 226.806 90.2414 226.895C93.5138 226.985 96.7862 227.164 100.059 227.477C100.597 227.522 101.179 227.477 101.717 227.522C102.166 227.522 102.3 227.746 102.121 228.328C101.717 228.328 101.269 228.373 100.866 228.328C100.014 228.238 99.1621 228.015 98.3552 227.97C95.3517 227.791 92.3483 227.612 89.3448 227.432C87.5069 227.298 85.7138 227.164 83.8759 227.029C82.3069 226.895 80.7379 227.209 79.2138 226.671C78.9897 226.582 78.6759 226.626 78.4517 226.671C76.7035 227.164 74.9104 226.985 73.1173 226.94C72.6242 226.94 72.1759 226.806 71.7276 226.671C70.1138 226.358 68.5448 226.044 66.931 225.731C66.8414 225.731 66.7069 225.776 66.5276 225.865C67.4242 229.671 68.1414 233.477 69.1724 237.238C69.8 237.104 70.2035 236.97 70.6517 236.97C71.1448 236.97 71.5931 237.104 72.0862 237.149C72.4897 237.194 72.8931 237.238 73.2966 237.238C78.2724 237.373 83.2035 237.238 88.1793 237.686C92.169 238.044 96.2035 238.044 100.238 238.223C102.255 238.313 104.272 238.403 106.245 238.492C106.603 238.492 107.007 238.537 107.366 238.447C107.903 238.358 108.083 238.044 108.038 237.507C107.769 235.806 107.5 234.059 107.321 232.313C107.007 229.582 106.738 226.85 106.469 224.119C106.155 221.209 105.841 218.298 105.528 215.388C105.259 212.791 104.945 210.149 104.676 207.552C104.362 204.776 104.048 202 103.734 199.268C103.376 195.552 103.062 191.88 102.748 188.164C102.524 185.835 102.21 183.507 101.986 181.179C101.762 178.582 101.583 175.985 101.403 173.388C101.359 172.447 101.314 172.403 100.328 172.403C98.2207 172.403 96.069 172.403 93.9621 172.447C89.8379 172.537 85.7138 172.761 81.5448 172.761C73.1621 172.806 64.7345 172.761 56.3517 172.806C55.9035 172.806 55.4104 172.895 54.9173 172.895C55.231 174.418 55.5 175.85 55.8138 177.238C56.3966 180.104 56.9793 182.97 57.5621 185.835C57.7414 186.731 57.8759 187.671 58.0552 188.567C58.4586 190.761 58.9069 192.91 59.3104 195.104C59.4 195.641 59.4 196.179 59.9828 196.537C60.5207 195.641 61.0586 194.791 61.5966 193.94C62.9862 191.701 64.2862 189.328 66.931 188.298C66.8414 187.626 66.3931 187.671 65.9897 187.671C65.0931 187.626 64.1966 187.626 63.3 187.537C63.1207 187.537 62.9862 187.313 62.8069 187.179C62.9862 187.044 63.2104 186.82 63.3897 186.82C63.8828 186.865 64.3759 187.089 64.9138 187.134C68.0069 187.313 71.1 187.492 74.1483 187.671C76.6586 187.806 79.1242 187.985 81.6345 188.119C82.3966 188.164 83.2035 188.119 83.9655 188.209C86.6552 188.477 89.3897 188.746 92.0793 189.015C92.6621 189.059 93.2897 189.059 93.8724 189.149C94.3207 189.238 94.7242 189.417 95.1276 189.597C95.0828 189.731 95.0828 189.82 95.0379 189.955C94.3207 189.955 93.6035 190 92.8862 189.955C90.1517 189.731 87.4173 189.418 84.6379 189.194C81.4552 188.97 78.2724 188.791 75.0448 188.567C74.1035 188.522 73.1173 188.298 72.1759 188.253C70.9207 188.209 69.6655 188.253 68.231 188.253C69.6207 189.641 68.8586 191.119 68.7242 192.641C69.8448 192.776 70.8759 192.955 71.9069 193.044C72.8931 193.134 73.9242 193.134 74.9104 193.223C76.8828 193.447 78.9 193.671 80.8724 193.895C82.4414 194.074 84.0552 194.209 85.6242 194.343C87.8655 194.522 90.0621 194.656 92.3035 194.835C94.1862 194.97 96.069 195.194 97.9517 195.373C98.4 195.418 98.7586 195.507 98.7586 196.134C98.2655 196.134 97.8173 196.179 97.4138 196.134C95.3069 195.91 93.2 195.597 91.0931 195.417C88.4483 195.194 85.8035 195.059 83.1586 194.88C82.6207 194.835 82.0379 194.88 81.5 194.791C78.6759 194.522 75.8966 194.209 73.0724 193.895C72.5793 193.85 72.0414 193.716 71.5483 193.626C70.4724 193.492 69.4414 193.403 68.4104 193.492C67.6931 195.462 67.0207 197.298 66.2586 199.358C67.0207 199.358 67.6035 199.358 68.1414 199.358C68.8138 199.403 69.4862 199.358 70.1138 199.492C71.2345 199.761 72.1759 199.716 73.1621 199.044C74.5069 198.104 75.9414 197.253 77.5552 196.761C78.4966 196.447 79.3035 196.806 79.9759 197.253C80.6483 197.701 80.3345 198.552 80.2448 199.223C80.2 199.537 79.8862 199.85 79.7069 200.164C79.4379 200.522 79.1241 200.835 79.3483 201.373C79.4828 201.418 79.5724 201.462 79.7069 201.462C82.4862 201.507 85.2207 201.552 87.9552 201.91C90.7345 202.268 93.5138 202.313 96.2931 202.492C96.9655 202.537 97.6379 202.671 98.1759 203.164C97.8173 203.253 97.4586 203.298 97.1 203.253C94.4104 202.985 91.6759 202.716 88.9862 202.492C86.7 202.313 84.369 202.134 82.0828 202C81.0966 201.955 80.0655 201.955 79.0793 201.865C78.5414 201.82 78.2724 202 77.9586 202.403C77.1517 203.477 76.3 204.462 75.5379 205.537C75.4035 205.716 75.4483 206.029 75.4035 206.209C77.7345 206.432 79.931 206.656 82.0828 206.835C83.7862 206.97 85.4897 207.015 87.2379 207.104C90.4655 207.328 93.6931 207.552 96.9207 207.82C97.5483 207.865 98.0862 208.044 98.5793 208.492C98.0414 208.582 97.4586 208.626 96.9655 208.582C94.9483 208.358 92.9759 208.134 91.0035 207.91C88.7621 207.686 86.4759 207.865 84.2345 207.462C81.8586 207.059 79.4379 207.059 77.0173 206.88C76.3 206.835 75.5379 206.746 74.731 206.701C72.8035 208.582 70.831 210.552 68.6793 212.656C69.1724 212.656 69.3966 212.701 69.5759 212.656C70.5173 212.388 71.5035 212.074 72.4448 211.716C75.8517 210.373 79.3931 209.656 82.9793 209.029C83.5173 208.94 84.1 208.985 84.6379 209.074C85.5793 209.209 85.8035 209.522 85.7138 210.507C85.6241 211.761 84.7276 212.477 83.7862 213.104C83.3828 213.373 82.9793 213.597 82.3069 213.955C83.1138 214.089 83.6069 214.268 84.1 214.268C87.3276 214.492 90.5552 214.671 93.7828 214.85C95.1276 214.94 96.4724 214.94 97.8173 215.029C98.0414 215.029 98.2655 215.119 98.5345 215.164C98.2207 215.835 97.7276 215.701 97.2345 215.701C95.7552 215.567 94.2759 215.477 92.7966 215.343C91.5414 215.253 90.2862 215.164 88.9862 215.074C88.2242 215.029 87.4173 214.985 86.6552 214.94C85.3552 214.895 84.0104 215.074 82.7552 214.761C81.4104 214.403 80.2897 214.716 79.0793 215.164C77.6448 215.701 76.2552 216.238 74.8207 216.776C73.5207 217.268 72.2207 217.761 70.9207 218.253C70.9655 218.343 71.0104 218.477 71.0552 218.477C72.0414 218.612 73.0276 218.791 74.0138 218.925C74.8207 219.015 75.6724 219.015 76.4793 219.059C78.8552 219.283 81.2311 219.507 83.5621 219.776C85.4448 219.955 87.3276 219.91 89.2104 220.179C91.9 220.582 94.6793 220.582 97.4138 220.806C98.8483 220.806 100.148 220.985 101.448 221.164ZM320.879 192.104C320.61 191.925 320.297 191.746 319.983 191.612C317.786 190.671 315.545 189.82 313.348 188.835C307.61 186.328 301.872 183.776 296.09 181.268C293.266 180.015 290.352 178.85 287.528 177.597C284.39 176.209 281.297 174.686 278.159 173.298C274.483 171.686 270.717 170.209 267.041 168.552C266.369 168.238 266.01 168.373 265.607 168.82C264.979 169.537 264.352 170.253 263.635 170.925C261.931 172.582 260.228 174.283 258.39 175.85C255.924 177.955 253.369 179.97 250.814 181.985C250.141 182.522 249.424 182.925 248.707 183.373C248.214 183.686 248.214 183.955 248.617 184.403C249.962 186.015 251.217 187.716 252.472 189.373C256.193 194.209 259.869 199.044 263.59 203.835C263.814 204.104 264.128 204.373 264.441 204.418C265.966 204.641 267.49 204.731 268.969 204.91C270.538 205.089 272.152 205.268 273.721 205.492C274.752 205.626 275.783 205.806 276.814 205.985C278.203 206.209 279.593 206.522 280.983 206.701C282.462 206.925 283.941 207.104 285.421 207.283C288.29 207.686 291.159 208.134 294.028 208.447C296.224 208.716 298.466 208.806 300.707 208.985C301.379 209.029 302.052 208.985 302.724 209.074C305.593 209.298 308.507 209.612 311.376 209.791C313.348 209.88 315.321 209.835 317.293 209.791C317.966 209.791 318.638 209.567 319.266 209.432C319.176 208.671 319.086 208.089 319.041 207.507C318.817 205.492 318.728 203.477 318.324 201.507C318.01 199.806 318.369 198.238 318.817 196.671C319.445 195.194 320.207 193.716 320.879 192.104ZM180.479 99.1041C180.434 99.0593 180.39 98.9697 180.345 98.925C180.166 99.0593 179.941 99.1489 179.762 99.2832C179.09 99.91 178.417 100.537 177.7 101.119C175.1 103.403 172.455 105.686 169.855 107.97C169.541 108.238 169.183 108.686 169.183 109.044C169.138 110.074 169.138 111.104 169.272 112.134C169.452 113.791 169.676 115.447 169.945 117.104C170.124 118.179 170.259 119.253 170.572 120.283C171.2 122.298 171.872 124.268 172.679 126.238C173.934 129.373 175.772 132.194 178.148 134.612C181.51 138.059 185.366 140.477 190.252 141.238C192.359 141.597 194.376 141.328 196.303 140.88C199.397 140.209 202.131 138.641 204.597 136.582C208.093 133.626 210.738 130.044 212.576 125.88C213.338 124.179 214.1 122.432 214.459 120.597C214.728 119.253 215.041 117.91 215.355 116.612C215.893 114.283 216.207 111.955 216.162 109.537C216.162 108.418 216.072 107.298 216.207 106.179C216.297 105.015 215.848 104.343 214.772 103.85C212.038 102.597 209.572 100.895 207.286 98.9697C204.462 96.5966 201.638 94.2683 198.903 91.7608C197.514 90.4623 196.348 88.9399 195.048 87.5518C194.241 86.6563 193.928 86.6115 193.076 87.3727C190.431 89.7459 187.786 92.0742 185.141 94.4474C184.917 94.6265 184.738 94.8951 184.469 95.2533C184.962 95.3877 185.276 95.4772 185.724 95.5668C185.635 95.9697 185.679 96.4175 185.5 96.7309C184.693 98.3429 183.348 99.4623 182.048 100.582C181.69 100.895 180.748 100.895 180.3 100.671C179.672 100.358 180.255 99.7757 180.435 99.328C180.435 99.2384 180.434 99.1488 180.479 99.1041ZM128.524 174.641C128.39 174.731 128.255 174.776 128.121 174.865C126.866 175.447 125.61 175.985 124.4 176.612C120.993 178.313 117.586 180.015 114.224 181.806C111.176 183.462 108.217 185.298 105.214 187.044C104.631 187.358 104.407 187.761 104.497 188.388C104.631 189.462 104.766 190.537 104.9 191.612C105.124 193.671 105.259 195.776 105.483 197.835C105.707 200.074 106.021 202.313 106.2 204.552C106.424 206.925 106.603 209.298 106.828 211.671C107.052 214 107.321 216.328 107.59 218.656C107.635 219.104 107.635 219.552 107.635 220C107.679 220.537 107.948 220.806 108.531 220.716C109.428 220.537 110.324 220.358 111.266 220.223C113.238 219.91 115.21 219.597 117.228 219.417C118.707 219.283 120.052 219.059 120.635 217.447C120.724 217.223 120.859 217.089 120.993 216.865C123.234 213.418 125.431 209.88 127.717 206.477C129.51 203.835 131.393 201.194 133.321 198.641C135.607 195.597 137.983 192.641 140.359 189.686C142.062 187.582 143.81 185.567 145.514 183.507C146.097 182.835 145.962 182.522 145.11 182.298C142.376 181.537 139.686 180.552 137.086 179.343C134.441 178.089 131.841 176.791 129.421 175.179C129.152 174.91 128.838 174.776 128.524 174.641ZM144.976 305.343C145.29 305.253 145.559 305.209 145.783 305.029C146.814 304.268 147.845 303.507 148.876 302.701C150.355 301.492 151.79 300.194 153.314 299.029C155.376 297.462 157.483 295.985 159.545 294.418C162.728 292.044 165.955 289.671 169.093 287.209C173.083 284.074 177.162 281.119 181.331 278.298C181.51 278.164 181.645 277.895 181.779 277.626C181.555 277.537 181.51 277.492 181.421 277.492C177.924 277.044 174.428 276.597 170.931 276.149C168.645 275.88 166.359 275.567 164.072 275.253C162.279 275.029 160.441 274.85 158.648 274.671C158.424 274.626 158.2 274.626 157.976 274.582C156.497 274.358 155.062 274.044 153.583 273.865C151.834 273.641 150.041 273.507 148.248 273.328C148.114 273.328 147.979 273.283 147.8 273.238C146.321 272.97 144.886 272.746 143.407 272.522C141.703 272.253 140.045 271.94 138.341 271.761C137.579 271.671 136.817 271.761 135.966 271.761C139.014 282.955 141.972 294.104 144.976 305.343ZM231.135 152.925C230.103 155.522 229.162 157.806 228.266 160.134C228.086 160.582 228.131 160.94 228.49 161.343C230.103 163.134 231.628 164.97 233.241 166.761C235.259 169.044 237.366 171.283 239.383 173.567C241.893 176.432 244.359 179.298 246.869 182.164C247.497 182.88 247.631 182.88 248.393 182.298C250.455 180.731 252.562 179.164 254.624 177.507C258.121 174.731 261.169 171.462 264.262 168.238C264.441 168.059 264.486 167.791 264.666 167.432C253.459 162.462 242.521 157.089 231.135 152.925ZM257 26.925C256.462 27.9548 257.09 28.7608 257.493 29.4772C259.555 32.8802 261.662 36.2832 263.814 39.5966C265.114 41.5668 266.593 43.4026 267.983 45.328C268.431 45.9548 268.655 46.6265 268.341 47.522C267.893 47.6115 267.355 47.8802 266.952 47.7906C266.279 47.6115 265.562 47.2086 265.024 46.7608C263.59 45.5071 262.2 44.1638 260.855 42.8205C258.614 40.6265 256.462 38.3877 254.176 36.1936C253.772 35.7906 253.234 35.2533 252.428 35.5668C252.517 35.7459 252.517 35.8802 252.607 36.0145C253.235 37.2235 254.086 38.2086 255.028 39.1489C258.166 42.2384 260.81 45.7757 264.262 48.5071C264.8 48.91 265.203 49.5369 265.607 50.0742C265.966 50.6563 265.831 50.8802 265.159 51.1041C264.531 51.328 263.948 51.1489 263.455 50.7906C261.886 49.6712 260.317 48.5071 258.703 47.3429C257.493 46.4474 256.283 45.5518 255.028 44.7011C254.714 44.4772 254.266 44.4324 253.638 44.2533C253.772 44.7459 253.817 45.0145 253.952 45.1936C254.848 46.4026 255.655 47.7011 256.686 48.7757C258.21 50.3877 260.003 51.8205 261.348 53.6115C261.931 54.3727 262.693 55.0891 263.41 55.7608C264.8 57.0145 266.145 58.313 267.266 59.8802C267.848 60.6414 268.072 60.6862 269.059 60.1936C269.372 60.0593 269.686 59.925 269.955 59.7906C273.228 58.1787 276.679 57.0593 280.131 56.0295C281.566 55.5817 283.09 55.3578 284.614 54.9996C284.614 54.5966 284.659 54.1936 284.614 53.7906C284.524 52.4921 284.39 51.1936 284.255 49.8951C284.076 48.5518 283.941 47.2533 283.628 45.9548C283.135 43.8503 282.462 41.8354 282.014 39.7309C281.431 36.8205 280.086 34.2683 278.786 31.6265C278.652 31.3578 278.383 31.1787 278.203 30.9548C278.114 31.5817 278.248 32.119 278.293 32.6563C278.472 34.0892 278.607 35.522 278.831 36.9548C278.966 37.9399 279.235 38.925 279.414 39.91C279.548 40.8056 279.683 41.7459 279.772 42.6414C279.817 43.2235 279.414 43.4921 278.966 43.716C278.517 43.9847 278.114 43.7608 277.845 43.4474C277.352 42.91 276.903 42.2832 276.545 41.6563C274.169 37.716 272.152 33.6414 270.224 29.4772C269.552 27.9996 268.61 26.5668 267.759 25.1787C267.579 24.8653 267.355 24.3727 266.772 24.9101C267.176 26.8802 267.535 28.8951 267.983 30.9101C268.297 32.2086 268.655 33.5071 269.148 34.716C269.821 36.4623 270.672 38.1638 271.345 39.91C271.703 40.8503 272.286 41.7906 271.972 42.91C271.569 43.0892 271.21 43.2683 270.807 43.4474C270.538 43.2235 270.224 43.0892 270.045 42.8205C269.193 41.7459 268.386 40.6265 267.624 39.5518C265.338 36.328 263.5 32.7906 260.945 29.7011C259.869 28.313 258.524 27.5518 257 26.925ZM56.4414 188.567C56.3517 188.567 56.2621 188.567 56.1724 188.567C56.1276 189.059 56.0379 189.597 55.9931 190.089C55.769 193.089 55.5 196.089 55.2759 199.089C55.1414 200.88 55.231 202.671 55.1414 204.462C55.0517 206.029 54.8724 207.552 54.8276 209.119C54.7379 210.955 54.7379 212.791 55.231 214.537C55.5897 215.746 55.9931 216.91 56.4862 218.074C57.5173 220.492 59.4448 222.104 61.6414 223.403C63.1207 224.253 64.7793 224.701 66.5276 224.701C67.6035 224.701 68.6793 224.656 69.7104 225.104C70.2483 225.328 70.831 225.552 71.4138 225.552C73.0724 225.641 74.7759 225.641 76.4345 225.641C76.9724 225.641 77.4655 225.462 77.6448 224.88C77.8242 224.209 77.5104 223.716 76.9724 223.358C76.4345 223 75.8966 222.731 75.3138 222.417C73.7448 221.567 71.9517 221.612 70.2931 221.074C69.1276 220.716 67.7828 220.537 67.4242 219.015C68.0517 217.895 69.1276 217.447 70.2035 217.044C73.3414 215.835 76.4793 214.671 79.6173 213.462C81.0069 212.925 82.3966 212.388 83.4276 211.268C83.8311 210.82 84.3242 210.373 84.2793 209.656C83.6069 209.209 83.0242 209.746 82.4414 209.88C80.3345 210.328 78.2276 210.731 76.1655 211.358C73.6552 212.074 71.1897 213.015 68.6793 213.82C67.9173 214.044 67.2 213.955 66.6173 213.104C66.931 212.656 67.2 212.209 67.5586 211.806C69.3517 209.97 71.1897 208.134 72.9828 206.298C75.1345 204.149 76.7483 201.552 78.631 199.223C79.0793 198.641 79.0793 198.104 78.9 197.388C78.5862 197.388 78.3173 197.298 78.0931 197.388C76.7483 197.925 75.3138 198.418 74.3724 199.626C74.2379 199.806 74.0586 199.895 73.8793 199.985C73.4759 200.209 72.9828 200.343 72.669 200.656C71.0104 202.134 69.3966 203.612 67.7828 205.134C66.7069 206.164 65.7207 207.238 64.6448 208.223C63.7931 209.029 62.8966 208.85 62.1793 207.955C61.6414 207.238 61.8207 206.477 62.0448 205.806C62.7621 203.835 63.5242 201.865 64.3759 199.985C65.9 196.671 67.2897 193.358 68.0517 189.82C68.0966 189.552 68.0966 189.104 67.8724 188.925C67.6931 188.746 67.2448 188.791 66.9759 188.88C66.6621 188.97 66.3931 189.194 66.169 189.418C65.631 190 65.0483 190.626 64.6 191.298C62.0448 194.835 60.431 198.91 58.3242 202.671C57.7414 203.746 57.2483 204.82 56.6655 205.895C56.5759 206.074 56.2621 206.119 56.0828 206.253C55.9931 205.985 55.8138 205.716 55.8586 205.492C55.9483 205 56.0828 204.462 56.2621 204.015C56.9345 202.447 57.6517 200.835 58.369 199.268C58.5931 198.776 58.7276 198.373 58.5035 197.791C58.1897 197.029 58.1 196.223 57.9655 195.417C57.6069 193.716 57.2931 192.015 56.9345 190.313C56.8448 189.731 56.6207 189.149 56.4414 188.567ZM129.152 34.9847C128.21 34.716 127.807 35.2981 127.448 35.7459C125.476 38.3877 123.907 41.2533 122.472 44.2086C120.814 47.5668 119.021 50.8802 117.272 54.1936C116.869 54.9996 116.779 55.0892 117.362 55.716C118.841 57.2832 119.424 59.2086 119.738 61.2235C120.052 63.2384 119.872 65.2533 119.29 67.1787C118.886 68.6115 117.766 69.328 116.286 68.6115C115.3 68.1638 114.538 67.4921 114 66.5966C113.103 65.119 112.61 63.5071 112.297 61.8056C112.207 61.3578 112.386 61.1339 112.924 60.9996C113.148 61.3578 113.372 61.6712 113.552 62.0742C114.269 63.5518 114.897 65.0294 115.614 66.5071C115.748 66.8205 115.838 67.2683 116.331 67.2235C116.824 67.1787 117.093 66.91 117.183 66.4623C117.497 65.2981 117.855 64.1339 118.035 62.925C118.303 60.7757 117.945 58.716 117.093 56.7011C116.6 55.5369 115.076 54.8205 114 55.1339C111.445 55.8951 109.921 57.6414 108.979 60.0593C108.486 61.4026 108.217 62.8354 107.993 64.2683C107.5 67.4921 107.5 70.6712 108.71 73.8056C109.472 73.9399 110.19 74.0742 110.952 74.2086C112.7 74.522 114.448 74.7906 116.197 75.1041C118.483 75.4623 120.5 76.4026 122.472 77.5668C123.414 78.1489 123.638 78.0593 124.355 77.2533C126.014 75.2832 127 72.91 128.345 70.7608C128.659 70.2235 128.972 69.6862 129.241 69.1489C128.793 68.8354 128.39 68.6115 128.076 68.2981C127.762 67.9847 127.628 67.5369 127.314 67.2235C127.09 66.9996 126.686 66.8653 126.372 66.7757C125.566 66.6414 124.759 66.5071 124.041 66.1041C123.279 65.6563 123.19 65.5668 123.414 64.6712C123.548 64.0444 123.772 63.4623 123.997 62.8802C125.7 59.0742 127.403 55.2683 129.062 51.4623C129.869 49.6712 130.631 47.925 131.528 45.91C131.259 45.7309 130.99 45.5518 130.721 45.328C129.914 44.7459 128.3 45.0145 127.897 45.8653C126.372 48.91 124.893 51.9548 123.369 54.9996C122.786 56.1638 122.114 57.2832 121.397 58.4921C121.262 58.2683 121.217 58.1339 121.172 58.0444C121.128 57.8653 121.128 57.6862 121.172 57.5071C121.531 55.9847 121.89 54.4175 122.338 52.8951C122.786 51.4175 123.369 49.9847 123.907 48.5071C124.4 47.1638 124.983 45.8653 125.521 44.522C126.059 43.1787 126.641 41.8802 127.135 40.5369C127.493 39.5518 127.762 38.4772 128.121 37.4921C128.39 36.7309 128.748 35.8802 129.152 34.9847ZM157.214 171.597C156.9 171.373 156.676 171.149 156.407 170.97C156.003 170.746 155.51 170.612 155.107 170.343C153.403 169.223 151.79 167.97 150.624 166.268C150.266 165.776 149.907 165.462 149.235 165.686C146.097 166.85 142.869 167.925 139.821 169.223C136.683 170.567 133.634 172.134 130.541 173.656C130.003 173.925 130.003 174.238 130.497 174.507C132.021 175.403 133.5 176.343 135.069 177.194C138.252 178.85 141.569 180.238 144.976 181.358C146.993 182.029 146.993 181.85 148.517 180.194C148.607 180.104 148.697 179.97 148.786 179.835C149.145 179.388 149.503 178.895 149.952 178.492C152.283 176.253 154.703 173.97 157.214 171.597ZM192.717 158.477C193.166 158.522 193.524 158.477 193.659 157.94C194.241 155.567 195.541 153.552 196.617 151.403C198.186 148.313 200.338 145.671 202.579 143.074C203.207 142.313 203.745 141.552 203.61 140.477C203.566 140.164 203.79 139.85 203.835 139.537C203.879 139.313 203.879 139 203.745 138.955C203.566 138.865 203.252 138.865 203.072 138.955C202.445 139.268 201.862 139.626 201.19 139.94C199.038 140.97 196.797 141.776 194.421 141.91C193.031 142 191.597 142 190.162 141.91C189.086 141.82 188.01 141.507 186.935 141.194C186.262 141.015 185.948 141.015 185.679 141.686C185.052 143.432 184.245 145.089 184.2 147.015C184.2 147.462 184.11 147.91 184.066 148.358C183.976 149.298 183.841 150.194 183.886 151.134C183.931 152.164 184.11 153.194 184.245 154.223C184.335 154.94 184.603 155.567 185.366 155.88C187.024 156.597 188.683 157.358 190.386 158.029C191.148 158.253 191.955 158.298 192.717 158.477ZM144.797 250.94C144.438 251.209 144.214 251.343 144.035 251.522C141.21 254.119 138.431 256.761 135.652 259.358C135.024 259.985 134.352 260.567 133.724 261.194C133.545 261.373 133.321 261.731 133.366 261.955C133.455 262.671 133.635 263.388 133.859 264.104C134.083 264.955 134.352 265.806 134.621 266.656C134.979 267.91 135.293 269.119 135.652 270.328C138.431 271 146.724 271.806 147.531 271.492C145.962 264.776 145.2 258.015 144.797 250.94ZM288.738 279.238C290.531 279.507 291.966 279.955 293.445 279.641C293.983 279.507 294.521 279.418 295.103 279.328C296.314 279.104 297.524 278.88 298.735 278.701C300.303 278.432 301.872 278.209 303.441 277.985C303.935 277.895 304.428 277.985 304.876 277.895C307.341 277.447 309.493 278.119 311.51 279.462C312.586 280.179 313.662 280.895 314.738 281.612C317.338 283.268 319.983 284.88 322.583 286.582C324.6 287.925 326.528 289.358 328.455 290.746C328.59 290.835 328.814 290.88 329.038 291.015C328.993 290.791 329.038 290.656 328.993 290.567C328.903 290.388 328.814 290.253 328.679 290.119C326.079 286.94 323.345 283.94 320.341 281.119C318.01 278.925 315.366 277.089 312.766 275.253C311.869 274.626 310.972 274.089 309.897 273.865C309.045 273.686 308.193 273.328 307.341 273.149C306.49 272.97 305.593 272.746 304.741 272.746C303.8 272.746 302.814 273.015 301.872 273.194C300.617 273.418 299.407 273.686 298.152 274C297.21 274.223 296.314 274.582 295.417 274.94C293.31 275.791 291.248 276.776 289.41 278.209C289.186 278.253 289.052 278.701 288.738 279.238ZM337.421 186.955C336.076 187.447 334.776 187.806 333.566 188.298C331.683 189.104 329.89 190.089 328.052 190.895C326.841 191.432 325.631 192.015 324.241 191.97C323.3 191.925 322.762 192.418 322.359 193.089C320.879 195.418 320.072 197.925 320.072 200.746C320.072 202.492 320.207 204.238 320.566 205.94C320.79 207.104 321.148 208.223 321.417 209.298C323.255 209.656 323.524 209.656 324.51 209.388C325.228 206.656 325.945 203.925 326.662 201.104C325.721 201.149 325.138 202.358 324.017 201.686C324.779 200.835 325.452 199.985 326.214 199.268C328.41 197.298 330.652 195.373 332.803 193.403C334.193 192.149 335.448 190.761 336.703 189.373C337.197 188.791 337.645 188.119 337.421 186.955ZM250.186 254.701C250.007 260.432 249.828 266.029 248.348 271.85C248.886 271.537 249.2 271.403 249.469 271.179C252.472 268.94 255.476 266.656 258.479 264.373C258.838 264.104 259.152 263.746 259.51 263.432C255.207 258.82 251.083 254.925 250.186 254.701ZM109.562 236.835C109.652 236.88 109.697 236.88 109.786 236.925C109.966 236.612 110.19 236.343 110.324 236.029C111.759 233.253 113.193 230.477 114.672 227.701C115.793 225.597 117.048 223.537 118.214 221.477C118.348 221.253 118.348 220.985 118.483 220.537C114.897 220.94 111.579 221.298 108.083 221.656C108.083 222.238 108.038 222.731 108.083 223.268C108.217 224.522 108.397 225.776 108.531 227.029C108.755 229.268 108.89 231.552 109.114 233.791C109.203 234.776 109.383 235.806 109.562 236.835ZM127.717 44.522C134.441 42.91 140.941 41.6563 147.172 39.3727C146.903 38.3429 146.679 37.4026 146.41 36.4623C146.186 36.4623 145.962 36.3727 145.738 36.4175C144.707 36.5518 143.676 36.6862 142.69 36.8653C141.614 37.0444 140.583 37.1787 139.507 37.3578C137.803 37.6265 136.055 37.9399 134.352 38.2086C134.128 38.2533 133.903 38.2533 133.679 38.2981C132.559 38.522 131.438 38.8354 130.317 39.0593C129.286 39.2832 128.928 39.5518 128.703 40.5817C128.479 41.5668 128.121 42.5071 127.852 43.4474C127.807 43.6265 127.807 43.9399 127.717 44.522ZM373.866 178.268C372.655 177.641 372.207 177.731 372.028 178.626C371.714 180.194 371.445 181.761 371.131 183.328C370.503 186.641 369.831 189.955 369.203 193.268C368.666 196.134 368.083 199 367.545 201.91C367.186 203.925 366.872 205.94 366.514 207.955C366.335 208.985 366.155 210.015 365.976 211C365.752 212.164 365.483 213.328 365.259 214.492C365.035 215.522 364.855 216.507 364.631 217.537C364.407 218.567 364.183 219.641 363.959 220.671C363.735 221.656 363.555 222.641 363.376 223.626C363.107 224.88 362.793 226.134 362.614 227.432C362.39 229.179 362.435 229.179 360.731 229.223C359.341 229.268 358.445 230.432 358.759 232C359.7 232 360.731 232.044 361.717 232.044C362.838 232.044 362.928 231.91 363.017 230.835C363.197 229.358 363.376 227.88 363.6 226.447C363.735 225.597 363.914 224.791 364.093 223.94C364.497 222.149 364.9 220.358 365.303 218.522C365.662 216.82 365.931 215.119 366.29 213.418C366.872 210.731 367.455 208.089 368.038 205.403C368.262 204.462 368.397 203.522 368.576 202.582C368.979 200.612 369.383 198.686 369.741 196.716C369.966 195.418 370.1 194.164 370.324 192.865C370.459 191.97 370.683 191.119 370.907 190.268C371.266 188.835 371.669 187.403 372.028 185.97C372.431 184.492 372.835 183.059 373.193 181.582C373.417 180.373 373.597 179.343 373.866 178.268ZM216.117 119.522C216.207 119.567 216.297 119.656 216.341 119.701C216.566 119.522 216.79 119.388 216.969 119.164C217.372 118.716 217.686 118.223 218.09 117.776C219.748 115.671 220.555 113.253 220.959 110.656C221.272 108.731 220.779 106.806 220.017 105.015C219.838 104.612 219.345 104.119 218.941 103.985C218 103.761 217.014 104.656 217.059 105.641C217.148 107.164 217.283 108.641 217.462 110.164C217.462 110.253 217.597 110.298 217.686 110.343C218.448 109.537 218.717 108.283 220.062 107.88C220.017 108.194 220.062 108.418 219.972 108.597C219.703 109.089 219.39 109.626 219.031 110.074C218.269 110.97 218.135 111.776 218.897 112.716C219.39 113.343 219.479 114.104 219.031 115.089C218.538 114.238 218.135 113.522 217.731 112.85C217.641 112.85 217.552 112.895 217.462 112.895C216.969 115.134 216.566 117.328 216.117 119.522ZM124.624 65.7459C127.179 66.1489 129.645 64.5369 130.541 62.2086C131.169 60.5518 131.079 58.8503 131.124 57.1489C131.124 56.7906 130.945 56.3877 130.855 56.0742C129.69 55.7608 129.062 56.1638 128.569 57.1041C127.314 59.6563 126.014 62.1638 124.759 64.716C124.669 65.0294 124.669 65.3877 124.624 65.7459ZM117.003 33.9996C117.048 34.0892 117.093 34.3578 117.272 34.5369C118.976 36.0593 120.59 37.7608 122.741 38.7906C123.234 39.0593 123.503 38.925 123.728 38.5668C124.131 37.9847 124.579 37.3578 124.983 36.7309C125.341 36.1489 125.297 35.8354 124.714 35.4324C123.907 34.8056 123.055 34.2235 122.248 33.5518C121.397 32.8802 120.635 32.1638 119.738 31.5817C119.469 31.4026 118.976 31.313 118.662 31.3578C118.034 31.5369 117.003 33.1489 117.003 33.9996ZM358.31 229.492C357.907 228.731 357.324 228.776 356.741 228.731C355.307 228.641 353.872 228.686 352.438 228.418C350.6 228.059 348.672 228.015 346.79 227.88C343.652 227.701 340.559 227.567 337.421 227.343C335.852 227.253 334.328 227.029 332.759 226.94C331.324 226.85 329.89 227.074 328.5 226.761C327.29 226.492 326.214 226.806 325.093 226.94C324.555 227.029 323.928 227.209 323.569 227.97C323.883 227.925 324.062 227.88 324.241 227.88C328.859 227.88 333.476 227.567 338.048 228.149C340.335 228.418 342.71 228.238 345.041 228.641C346.655 228.91 348.359 228.82 350.017 229.089C352.483 229.492 355.038 229.492 357.548 229.626C357.817 229.626 357.997 229.537 358.31 229.492ZM63.3 207.82C65.0035 206.656 66.0345 205.134 67.3345 203.97C68.6793 202.761 69.9793 201.507 71.369 200.209C70.9207 200.164 70.6966 200.119 70.4276 200.119C69.2621 199.985 68.0966 199.895 66.931 199.761C66.2586 199.671 65.8552 199.85 65.5414 200.612C64.7793 202.447 64.0621 204.283 63.3897 206.164C63.2552 206.522 63.3448 207.059 63.3 207.82ZM323.3 228.731C323.3 228.91 323.255 228.955 323.3 229C323.883 229.94 324.824 229.582 325.631 229.537C326.707 229.492 327.738 229.223 328.814 229.223C333.297 229.313 337.824 228.865 342.262 229.582C343.876 229.806 345.49 229.626 347.103 229.94C348.986 230.343 350.914 230.074 352.841 230.432C354.231 230.701 355.666 230.656 357.055 230.791C357.593 230.835 357.683 230.612 357.593 230.119C357.369 230.119 357.19 230.074 357.01 230.074C354.903 230.253 352.797 229.85 350.69 229.626C350.197 229.582 349.703 229.582 349.255 229.537C347.014 229.313 344.772 229 342.531 228.865C340.559 228.731 338.586 228.731 336.614 228.641C335.448 228.597 334.238 228.373 333.072 228.373C331.324 228.328 329.576 228.328 327.828 228.373C326.259 228.418 324.779 228.597 323.3 228.731ZM116.107 42.7309C116.197 43.6265 116.152 44.4772 116.331 45.2832C116.645 46.6265 116.69 46.5817 118.035 46.2683C118.303 46.2235 118.572 46.2235 118.797 46.1787C119.066 46.0892 119.424 45.9996 119.514 45.7757C120.321 44.3429 121.128 42.8653 121.935 41.4324C121.89 41.3429 121.8 41.2981 121.755 41.2086C120.007 41.6563 118.214 42.1489 116.107 42.7309ZM325.138 230.119C326.035 231.015 327.11 231.015 328.186 231.015C331.369 230.925 334.597 231.104 337.779 230.656C339.662 230.432 341.59 230.612 343.472 230.612C344.279 230.612 345.041 230.522 345.848 230.477C345.848 230.388 345.848 230.298 345.848 230.253C345.714 230.209 345.624 230.119 345.49 230.119C342.262 229.985 339.035 229.985 335.807 229.716C334.014 229.537 332.176 229.895 330.383 229.985C329.755 230.029 329.128 229.985 328.5 229.985C327.379 230.029 326.259 230.074 325.138 230.119ZM132.738 60.9548C132.648 60.9996 132.514 60.9996 132.424 61.0444C132.335 61.5369 132.29 62.0742 132.11 62.522C131.528 64.2683 130.452 65.6115 128.703 66.328C128.479 66.4175 128.166 66.7309 128.166 66.9548C128.21 67.3578 128.121 67.8503 128.614 68.119C129.062 68.3877 129.51 68.7011 130.048 68.3877C130.497 68.1638 130.99 67.8503 131.259 67.4921C132.424 65.925 133.366 64.2683 133.141 62.2086C133.141 61.8056 132.872 61.4026 132.738 60.9548ZM191.507 158.925C190.341 158.567 189.4 158.298 188.459 158.029C187.159 160.895 187.966 162.507 190.476 162.373C190.79 161.298 191.148 160.179 191.507 158.925ZM184.828 156.328C184.828 156.865 184.783 157.268 184.828 157.671C184.917 158.388 185.052 159.104 185.097 159.82C185.141 161.074 185.679 161.522 187.114 161.432C186.935 160.447 186.979 159.462 187.338 158.522C187.607 157.85 187.428 157.537 186.71 157.223C186.128 156.91 185.545 156.641 184.828 156.328ZM147.531 36.2832C147.531 36.9996 147.486 37.5817 147.531 38.119C147.621 38.8802 148.114 39.1041 148.831 38.8354C149.19 38.7011 149.548 38.6115 149.862 38.4324C151.162 37.6712 151.297 38.1638 150.803 36.5071C150.803 36.4623 150.714 36.3727 150.624 36.2832C149.683 36.2832 148.697 36.2832 147.531 36.2832ZM118.348 30.7309C117.541 29.8354 116.779 29.6563 116.197 30.1936C115.076 31.2683 115.031 32.2086 116.107 33.1936C116.869 32.3877 117.631 31.5369 118.348 30.7309ZM192.717 162.776C192.897 161.835 193.076 160.85 193.255 159.91C193.255 159.82 193.3 159.731 193.255 159.686C192.986 159.462 192.762 159.194 192.448 159.059C192.359 159.015 192.045 159.418 191.955 159.641C191.776 160.223 191.686 160.85 191.507 161.477C191.238 162.507 191.417 162.731 192.717 162.776ZM115.569 46.4921C115.434 45.5518 115.345 44.6563 115.21 43.8056C115.166 43.5369 114.941 43.313 114.807 43.0444C113.597 43.8056 113.641 44.8354 114.09 45.7757C114.583 46.716 114.628 46.716 115.569 46.4921ZM343.921 231.597C345.893 231.731 347.866 231.865 349.838 231.507C347.866 231.238 345.893 231.462 343.921 231.597ZM133.59 36.328C132.693 36.3727 132.783 37.0444 132.469 37.4921C132.962 37.4921 133.366 37.4921 133.903 37.4921C133.724 37.0444 133.635 36.6862 133.59 36.328ZM351.138 231.418C351.138 231.507 351.138 231.597 351.093 231.731C351.407 231.776 351.721 231.776 352.035 231.82C352.035 231.731 352.035 231.597 352.079 231.507C351.81 231.462 351.497 231.462 351.138 231.418Z" fill="black"/>
<path d="M145.738 30.4619C144.662 29.8799 143.676 29.1634 142.555 28.6709C140.762 27.8649 138.969 27.1037 137.131 26.4321C134.934 25.5814 132.648 25.2231 130.317 24.8202C128.479 24.5067 126.686 24.7306 124.848 24.9097C123.19 25.0888 121.531 25.3127 119.962 25.8948C119.828 25.9396 119.603 25.8948 119.155 25.8948C120.186 25.1784 121.083 24.9097 122.024 24.6858C124.893 23.9694 127.852 23.9694 130.81 24.1933C132.783 24.3724 134.665 24.8649 136.548 25.4918C139.014 26.3425 141.39 27.3276 143.631 28.6261C144.124 28.9396 144.662 29.2082 145.11 29.5664C145.379 29.8799 145.514 30.2381 145.738 30.4619Z" fill="black"/>
<path d="M112.476 41.3877C110.728 37.5818 110.234 33.6862 111.893 29.7012C111.221 33.6415 111.31 37.537 112.476 41.3877Z" fill="black"/>
<path d="M153.493 41.1636C154.076 43.4472 152.731 48.9994 151.252 50.477C151.476 48.8651 152.193 47.4322 152.552 45.8651C152.91 44.3427 153.493 42.8203 153.493 41.1636Z" fill="black"/>
<path d="M138.386 57.5068C138.7 57.5068 138.969 57.5068 139.283 57.5068C139.283 57.5516 139.283 57.5964 139.283 57.6412C138.969 57.6412 138.7 57.6859 138.386 57.6859C138.386 57.6412 138.386 57.5516 138.386 57.5068Z" fill="black"/>
<path d="M137.041 58.0893C136.728 58.134 136.459 58.134 136.145 58.1788C136.145 58.0893 136.145 57.9997 136.145 57.9549C136.459 57.9549 136.728 57.9102 137.041 57.9102C137.041 57.9102 137.041 57.9997 137.041 58.0893Z" fill="black"/>
<path d="M145.738 30.5073C145.917 30.5073 146.097 30.5521 146.276 30.5969C146.41 30.6417 146.545 30.6864 146.59 30.8655C146.141 30.9999 145.828 30.9103 145.738 30.5073Z" fill="black"/>
<path d="M264.531 272.567C264.531 273.193 264.71 273.999 263.948 274.223C263.276 274.402 262.424 274.447 261.797 274.178C261.214 273.955 260.766 273.283 260.362 272.746C259.914 272.119 260.003 271.313 260.631 270.999C261.438 270.552 262.29 270.149 263.276 270.552C264.217 270.91 264.531 271.402 264.531 272.567Z" fill="black"/>
<path d="M300.124 325.939C300.169 325.939 300.169 325.984 300.214 325.984C300.169 326.029 300.124 326.074 300.079 326.119C300.079 326.119 300.035 326.074 299.99 326.074C300.035 326.029 300.079 325.984 300.124 325.939Z" fill="black"/>
<path d="M97.3242 183.641C97.0552 184.313 96.7862 184.447 96.2035 184.313C95.6207 184.179 94.9931 183.955 94.3655 183.91C91.9448 183.731 89.569 183.596 87.1483 183.417C84.9517 183.238 82.7104 182.925 80.5138 182.701C79.8862 182.656 79.2586 182.656 78.6311 182.611C76.1655 182.432 73.7 182.432 71.2793 182.074C68.6345 181.671 65.9897 181.805 63.3897 181.626C63.3 181.626 63.2104 181.582 63.0759 181.358C63.6586 181.268 64.2414 181.134 64.8242 181.134C66.6173 181.179 68.4104 181.223 70.1586 181.358C72.1311 181.447 74.1035 181.626 76.0311 181.761C78.4517 181.94 80.9173 182.119 83.338 182.298C86.8793 182.567 90.4655 182.835 94.0069 183.149C95.1276 183.238 96.2035 183.462 97.3242 183.641Z" fill="black"/>
<path d="M192.538 122.522C193.703 120.865 193.3 119.029 194.152 117.641C194.69 117.641 194.914 117.82 194.914 118.313C194.914 119.835 194.51 121.223 193.928 122.611C193.659 123.238 192.493 123.328 191.866 122.88C190.969 122.253 190.61 121.268 190.566 120.283C190.476 116.656 190.431 113.074 190.521 109.447C190.566 107.432 190.79 105.462 191.014 103.447C191.103 102.552 191.372 101.656 191.552 100.761C191.641 100.761 191.731 100.716 191.821 100.716C191.91 100.94 192.045 101.164 192.045 101.387C192 102.641 191.91 103.895 191.821 105.149C191.462 109.447 191.372 113.746 191.552 118.044C191.597 119.074 191.731 120.104 191.91 121.134C192 121.537 192.269 121.895 192.538 122.522Z" fill="black"/>
<path d="M200.921 121.582C200.831 121.85 200.786 122.119 200.652 122.343C198.948 124.671 197.11 126.91 194.421 128.164C193.3 128.701 192.09 129.015 190.879 129.418C190.252 129.597 189.579 129.686 188.907 129.776C188.503 129.821 188.055 129.776 187.876 129.104C188.683 128.791 189.445 128.343 190.297 128.164C192.852 127.582 195.138 126.418 197.29 124.94C198.635 124.044 199.755 122.88 200.652 121.492C200.741 121.492 200.831 121.537 200.921 121.582Z" fill="black"/>
<path d="M199.979 104.88C200.607 104.656 201.145 104.791 201.593 105.104C202.221 105.507 202.803 105.91 203.431 106.358C204.103 106.806 204.821 106.85 205.493 106.358C206.166 105.865 206.838 105.373 207.466 104.791C207.869 104.432 208.272 104.298 208.945 104.522C208.855 104.88 208.9 105.328 208.676 105.597C207.69 106.761 206.434 107.567 204.955 107.88C203.7 108.149 202.624 107.477 201.638 106.85C200.966 106.268 200.293 105.731 199.979 104.88Z" fill="black"/>
<path d="M176.31 105.865C176.759 105.462 177.207 105.507 177.655 105.955C178.148 106.402 178.731 106.805 179.269 107.253C180.345 108.149 181.376 107.88 182.407 107.298C182.99 106.985 183.528 106.582 184.021 106.134C184.648 105.641 185.276 105.552 185.993 105.82C185.814 107.074 183.841 108.328 181.645 108.641C179.224 108.91 177.207 107.88 176.31 105.865Z" fill="black"/>
<path d="M203.879 98.8805C201.459 99.1492 198.634 97.1343 198.679 95.0746C199.621 94.582 200.383 95.1193 201.145 95.5223C201.817 95.8805 202.445 96.3283 203.117 96.7313C203.969 97.3134 204.193 97.9402 203.879 98.8805Z" fill="black"/>
<path d="M247.452 22.1783C247.452 21.2828 248.169 20.6111 249.11 20.6559C249.783 20.7007 250.545 21.641 250.545 22.4917C250.545 23.1186 249.648 23.835 248.886 23.7903C247.99 23.7455 247.452 23.1634 247.452 22.1783Z" fill="black"/>
<path d="M166.807 116.835C166.583 116.969 166.359 117.104 166.179 117.283C166.134 117.148 166.09 117.059 166.045 116.925C166.314 116.925 166.583 116.88 166.807 116.835Z" fill="black"/>
<g clip-path="url(#clip1)">
<path d="M206.271 216.039C206.274 215.998 206.277 215.966 206.28 215.925C206.276 215.623 206.135 215.366 205.873 215.182C205.819 215.145 205.755 215.107 205.701 215.07C205.51 214.956 200.827 212.144 200.827 212.144C200.418 211.899 200.009 211.654 199.599 211.408L206.268 208.752C206.317 208.732 206.376 208.712 206.436 208.676C206.804 208.485 206.987 208.116 206.912 207.742C206.856 207.493 206.692 207.275 206.419 207.114C205.573 206.613 204.727 206.104 203.891 205.595L199.179 202.797C199.133 202.769 199.078 202.74 199.033 202.712C198.942 202.656 198.851 202.607 198.76 202.551C198.578 202.438 198.383 202.374 198.175 202.357C197.967 202.34 197.764 202.373 197.566 202.463C197.557 202.454 197.547 202.461 197.537 202.461L192.819 204.343C191.676 204.798 190.495 205.266 189.332 205.728C188.899 205.897 188.666 206.189 188.633 206.594C188.473 208.583 188.309 210.612 188.151 212.568L188.007 214.353C188.002 214.418 187.997 214.483 187.992 214.54C187.979 214.702 188.032 214.87 188.143 215.034C188.219 215.154 188.335 215.254 188.49 215.348C188.653 215.451 194.673 219.057 194.673 219.057C193.728 219.43 188.064 221.685 188.064 221.685C188.005 221.705 187.946 221.732 187.876 221.768C187.569 221.914 187.366 222.184 187.341 222.492C187.316 222.801 187.473 223.099 187.763 223.294C187.799 223.314 187.826 223.34 187.862 223.359L194.701 227.456L194.946 227.607C195.137 227.72 195.328 227.834 195.51 227.946C195.691 228.059 195.886 228.124 196.085 228.14C196.294 228.157 196.487 228.123 196.684 228.041L196.724 228.028L204.712 224.85L204.791 224.815C204.879 224.781 204.958 224.747 205.047 224.713C205.373 224.576 205.574 224.323 205.619 224C205.622 223.967 205.624 223.943 205.626 223.91L206.271 216.039ZM198.011 217.741C198.141 216.134 198.27 214.528 198.4 212.921C198.482 212.968 203.084 215.725 203.084 215.725C202.946 215.771 198.011 217.741 198.011 217.741ZM202.43 223.71L197.367 225.727C197.496 224.12 197.626 222.513 197.755 220.915C197.929 221.01 202.43 223.71 202.43 223.71ZM198.954 219.41C200.638 218.738 202.323 218.065 204.007 217.4C203.877 219.007 203.748 220.606 203.618 222.213C203.501 222.13 200.19 220.155 198.954 219.41ZM199.036 204.926C200.6 205.861 202.155 206.795 203.719 207.73C202.025 208.402 200.341 209.075 198.647 209.747L199.036 204.926ZM195.871 217.561C194.679 216.86 192.351 215.463 191.187 214.765C192.881 214.093 194.576 213.413 196.27 212.741C196.181 213.951 195.979 216.344 195.871 217.561ZM191.841 206.772C193.535 206.099 195.22 205.427 196.904 204.754C196.775 206.361 196.645 207.968 196.515 209.575C194.961 208.641 193.406 207.706 191.841 206.772ZM190.653 208.269C190.671 208.278 195.327 211.072 195.327 211.072C193.633 211.744 191.948 212.416 190.254 213.088C190.341 211.895 190.544 209.493 190.653 208.269ZM195.235 225.564C194.08 224.874 191.743 223.468 190.562 222.752C190.581 222.746 195.614 220.742 195.614 220.742C195.525 221.968 195.331 224.37 195.235 225.564Z" fill="black"/>
</g>
</g>
<defs>
<clipPath id="clip0">
<rect width="399" height="347" fill="white"/>
</clipPath>
<clipPath id="clip1">
<rect width="18.3401" height="25.892" fill="white" transform="translate(189.035 201.611) rotate(4.61259)"/>
</clipPath>
</defs>
</svg>
