<svg width="264" height="301" viewBox="0 0 264 301" fill="none" xmlns="http://www.w3.org/2000/svg">
<g clip-path="url(#clip0)">
<g clip-path="url(#clip1)">
<path d="M45.7353 161.225C44.7482 160.508 43.8509 159.836 42.9985 159.164C38.6016 155.668 35.2367 151.321 32.814 146.256C31.7372 144.016 30.9745 141.685 30.3464 139.265C29.0453 134.514 28.9107 129.719 29.135 124.879C29.2247 123.176 29.6734 121.518 29.8977 119.815C30.2118 117.619 30.9745 115.512 31.7372 113.406C33.3075 109.148 35.7302 105.339 38.6016 101.843C41.1141 98.7956 44.0304 96.1962 47.3953 94.1794C49.7732 92.7453 52.2856 91.5801 54.8878 90.6837C57.2208 89.877 59.6436 89.5185 62.0215 89.0255C62.2907 88.9807 62.5599 88.9807 62.7842 88.9807C64.7134 88.8911 66.6426 88.8014 68.5718 88.7118C68.7962 88.7118 69.0654 88.6222 69.514 88.5325C69.2448 88.0844 69.0205 87.7707 68.7962 87.4569C67.181 85.2161 65.521 82.9753 64.3545 80.4655C63.2777 78.1799 62.3355 75.8046 61.6625 73.3397C60.9447 70.6059 61.4382 68.1409 62.6944 65.7208C63.502 64.1522 64.8929 63.1663 66.508 62.5388C69.2448 61.4632 72.1162 61.0151 74.9876 60.8806C76.9168 60.791 78.7563 61.4184 80.4163 62.2699C83.2877 63.7041 86.0694 65.3175 88.8959 66.8413C91.9468 68.4547 94.9079 70.1577 98.0485 71.547C101.01 72.8467 103.746 74.5049 106.528 76.0735C108.143 77.0146 109.893 77.7317 111.553 78.5832C115.411 80.6 119.27 82.6167 123.173 84.5887C125.147 85.6195 127.166 86.5606 129.14 87.5018C129.275 87.5466 129.499 87.5018 129.724 87.4569C129.454 86.3365 129.185 85.2609 128.916 84.1853C128.692 83.2442 128.378 82.3478 128.198 81.4067C127.974 80.1966 127.839 78.9866 127.66 77.7765C127.391 76.2079 127.121 74.6394 126.897 73.0708C126.852 72.9363 126.852 72.7571 126.852 72.6226C126.493 69.3958 126.314 66.169 125.82 62.987C124.923 57.3849 124.878 51.6932 124.968 46.0463C125.013 41.7887 124.968 37.5311 125.102 33.2735C125.147 31.4361 125.551 29.5986 125.82 27.7611C126.224 25.0721 127.166 22.5175 128.198 20.0078C128.961 18.1703 129.903 16.4225 131.249 14.8987C133.762 12.0304 136.902 10.6859 140.716 11.0444C142.062 11.1789 143.183 11.9856 144.35 12.5682C146.189 13.5094 147.176 15.2124 148.253 16.8258C149.868 19.3355 150.9 22.1142 151.932 24.848C152.74 26.9544 153.592 29.0608 154.31 31.1672C155.073 33.2735 155.746 35.4247 156.419 37.5759C156.643 38.293 156.778 38.3826 157.361 37.9793C161.085 35.604 164.808 35.8281 168.487 38.0241C170.776 39.3686 172.525 41.2509 174.096 43.3125C175.621 45.3292 177.057 47.4356 178.134 49.7661C179.031 51.6932 179.614 53.71 180.153 55.7267C180.691 57.7435 181.229 59.7154 181.813 61.7321C182.441 63.8833 183.069 65.9897 183.697 68.0961C184.235 69.9784 184.863 71.8159 185.402 73.6982C185.895 75.4909 186.344 77.2835 186.882 79.0314C187.735 81.7652 188.632 84.4542 189.529 87.1432C189.574 87.2329 189.664 87.3225 189.754 87.4569C190.113 86.8743 190.516 86.3365 190.831 85.7987C191.997 83.6475 193.926 82.3926 196.17 81.81C197.381 81.4963 198.772 81.6756 200.073 81.6756C201.598 81.7204 202.989 82.1686 204.245 83.0201C205.053 83.5579 205.86 84.2301 206.444 85.0368C209.001 88.5325 211.02 92.342 212.411 96.4651C213.353 99.2437 214.43 102.022 215.372 104.846C216.09 107.042 216.718 109.327 217.346 111.568C217.884 113.585 218.468 115.557 218.961 117.574C219.5 119.68 219.993 121.831 220.532 123.938C220.846 125.148 221.205 126.358 221.519 127.568C221.922 129.047 222.326 130.571 222.73 132.05C223.268 133.887 223.807 135.725 224.345 137.607C224.839 139.4 225.377 141.147 225.871 142.94C226.409 144.912 226.992 146.839 227.486 148.811C227.889 150.29 228.204 151.769 228.562 153.248C228.921 154.772 229.325 156.251 229.729 157.774C229.953 158.671 230.133 159.567 230.312 160.508C230.581 161.673 230.806 162.839 231.075 163.959C231.254 164.811 231.434 165.707 231.613 166.558C232.107 168.889 232.6 171.175 233.049 173.505C233.498 175.791 233.946 178.076 234.395 180.362C235.158 184.216 235.741 188.07 235.696 191.97C235.696 194.121 235.876 196.272 235.876 198.468C235.831 202.412 235.696 206.356 235.561 210.3C235.427 213.75 235.427 217.246 235.068 220.697C234.709 223.879 234.888 227.016 234.619 230.198C234.574 230.87 234.664 231.543 234.664 232.215C234.574 235.038 234.395 237.862 234.395 240.685C234.395 243.688 234.619 246.736 234.709 249.738C234.754 251.262 234.709 252.786 234.844 254.31C235.023 256.461 235.292 258.567 235.561 260.718C235.696 262.018 235.876 263.318 236.1 264.573C236.459 266.5 236.907 268.427 237.311 270.354C237.491 271.205 237.67 272.102 237.895 272.953C238.433 275.105 239.016 277.256 239.599 279.407C240.093 281.155 240.542 282.903 241.08 284.65C241.708 286.712 242.381 288.729 243.054 290.79C243.727 292.762 244.4 294.734 245.073 296.661C245.881 298.857 246.688 301.009 247.541 303.205C248.662 306.118 249.739 309.076 250.995 311.989C251.758 313.737 252.7 315.44 253.642 317.098C255.886 320.997 258.219 324.851 260.462 328.75C262.301 331.977 264.006 335.293 265.891 338.475C267.865 341.792 269.973 345.063 272.172 348.29C275.492 353.13 278.991 357.926 282.401 362.721C283.837 364.783 285.273 366.844 286.753 368.861C287.74 370.206 288.907 371.416 289.983 372.67C291.868 374.911 293.797 377.063 295.636 379.348C298.508 382.889 301.334 386.519 304.161 390.149C304.789 390.956 305.283 391.897 305.866 392.748C306.225 393.286 305.866 394.496 305.193 394.855C303.712 395.661 302.097 395.93 300.437 395.93C300.078 395.93 299.719 395.482 299.45 395.124C297.566 392.793 295.681 390.463 293.797 388.132C291.599 385.398 289.4 382.665 287.247 379.886C284.824 376.794 282.446 373.656 280.068 370.519C277.152 366.665 274.191 362.856 271.319 358.957C268.179 354.699 265.038 350.397 261.987 346.049C260.193 343.495 258.443 340.895 256.873 338.206C255.392 335.697 254.27 333.008 252.88 330.453C251.175 327.361 249.29 324.313 247.63 321.221C245.432 317.098 243.189 312.975 241.215 308.762C239.51 305.132 238.074 301.367 236.683 297.558C235.606 294.689 234.754 291.732 233.857 288.818C233.004 286.04 232.107 283.261 231.299 280.438C230.581 277.883 229.998 275.284 229.37 272.684C228.787 270.264 228.204 267.844 227.71 265.424C227.441 264.169 227.306 262.87 227.127 261.57C226.902 259.822 226.633 258.029 226.409 256.281C226.319 255.475 226.319 254.623 226.229 253.817C225.691 247.542 225.826 241.313 225.826 235.038C225.826 233.559 225.96 232.08 226.05 230.557C226.14 228.45 226.185 226.389 226.319 224.282C226.454 221.728 226.633 219.173 226.813 216.574C226.992 214.243 227.216 211.913 227.351 209.582C227.486 207.073 227.575 204.608 227.665 202.098C227.755 198.916 227.979 195.779 227.934 192.597C227.889 190.087 227.575 187.533 227.306 185.023C227.172 183.678 226.947 182.289 226.723 180.945C226.499 179.555 226.185 178.166 225.96 176.777C225.781 175.925 225.601 175.029 225.467 174.177C224.973 171.533 224.525 168.934 223.986 166.29C223.448 163.645 222.909 161.001 222.326 158.357C221.833 155.982 221.339 153.562 220.801 151.186C220.307 149.08 219.724 146.974 219.186 144.822C218.692 142.761 218.199 140.699 217.705 138.682C217.211 136.8 216.673 134.873 216.135 132.991C215.596 131.153 215.103 129.271 214.564 127.433C214.026 125.551 213.443 123.669 212.949 121.787C212.545 120.352 212.276 118.918 211.917 117.439C211.379 115.333 210.841 113.182 210.302 111.075C209.943 109.731 209.584 108.342 209.225 106.997C208.911 105.787 208.508 104.577 208.149 103.367C207.79 102.112 207.386 100.812 206.982 99.5575C205.995 96.0617 204.873 92.6557 203.124 89.4289C202.316 87.9499 201.509 86.471 200.297 85.2609C200.163 85.1265 199.983 84.9472 199.804 84.8127C198.458 83.8268 197.874 83.8268 196.753 84.992C195.586 86.2469 194.824 87.7707 194.33 89.3841C193.388 92.6557 193.478 96.0169 193.747 99.3782C193.837 100.678 194.509 101.933 194.958 103.143C195.945 105.832 197.112 108.476 198.009 111.21C198.996 114.213 199.804 117.305 200.746 120.352C201.509 122.862 202.406 125.327 203.213 127.837C204.066 130.436 204.873 133.08 205.636 135.68C206.219 137.741 206.803 139.803 207.341 141.909C207.879 143.926 208.283 145.943 208.822 147.96C209.181 149.304 209.584 150.649 209.943 152.038C210.212 153.113 210.437 154.189 210.571 155.309C210.751 156.609 210.93 157.864 211.02 159.164C211.11 160.329 210.482 160.912 209.315 161.046C207.745 161.225 207.206 160.956 206.623 159.522C204.784 155.085 202.944 150.649 201.105 146.212C199.804 143.03 198.503 139.848 197.291 136.666C195.721 132.543 194.151 128.375 192.625 124.207C191.548 121.249 190.561 118.246 189.619 115.288C188.677 112.465 187.78 109.596 186.927 106.728C186.344 104.756 185.94 102.784 185.402 100.812C184.908 98.9748 184.325 97.227 183.787 95.3895C182.844 92.2523 181.857 89.1152 180.96 85.9332C180.332 83.6923 179.749 81.4515 179.165 79.2107C178.448 76.5217 177.775 73.8327 177.057 71.1437C176.339 68.4098 175.531 65.7208 174.814 63.0318C174.275 60.8806 173.871 58.6846 173.333 56.5334C172.436 52.9481 171.135 49.542 169.071 46.4945C168.129 45.1051 167.186 43.671 166.11 42.3713C165.212 41.3405 164.135 40.489 163.104 39.6375C162.341 38.9653 161.802 39.1445 161.309 40.0409C160.771 41.0716 160.322 42.1024 160.008 43.2228C159.335 45.7326 159.066 48.2871 159.425 50.8417C159.514 51.6036 159.739 52.3655 159.918 53.1273C160.322 54.92 160.726 56.7575 161.13 58.5502C161.309 59.4017 161.488 60.2084 161.668 61.0599C162.161 63.3904 162.61 65.7208 163.148 68.0065C163.642 70.0232 164.225 71.9952 164.764 74.0119C165.302 76.0287 165.751 78.0454 166.244 80.0622C166.783 82.0789 167.366 84.0509 167.904 86.0228C168.398 87.9051 168.891 89.8322 169.385 91.7145C169.878 93.552 170.462 95.3895 171 97.227C171.359 98.4818 171.673 99.7367 172.032 100.992C172.525 102.739 173.109 104.442 173.647 106.19C174.185 107.938 174.724 109.731 175.217 111.524C175.756 113.451 176.294 115.378 176.832 117.305C177.326 119.187 177.819 121.114 178.358 122.997C178.851 124.7 179.345 126.403 179.838 128.106C180.242 129.54 180.601 130.974 181.005 132.363C181.409 133.887 181.813 135.456 182.216 136.979C182.441 137.876 182.62 138.772 182.844 139.713C183.338 141.685 183.787 143.657 184.37 145.629C185.312 148.677 185.895 151.769 185.312 154.951C185.177 155.623 185.088 156.251 184.19 156.43C183.383 156.564 183.158 156.519 182.8 155.758C181.364 152.352 179.883 148.99 178.537 145.539C177.909 143.881 177.505 142.133 177.012 140.43C176.384 138.414 175.756 136.397 175.128 134.38C174.589 132.722 174.006 131.108 173.468 129.45C172.75 127.254 172.032 125.103 171.404 122.907C171 121.473 170.686 120.039 170.327 118.605C169.833 116.812 169.34 115.064 168.802 113.271C168.263 111.479 167.725 109.641 167.186 107.849C166.783 106.504 166.379 105.16 166.02 103.815C165.616 102.381 165.302 100.947 164.943 99.5126C164.584 98.1681 164.225 96.7788 163.866 95.4343C163.507 94.1346 163.104 92.7901 162.745 91.4904C162.161 89.3841 161.578 87.2777 161.04 85.1713C160.681 83.782 160.367 82.3478 160.008 80.9585C159.649 79.4796 159.2 78.0454 158.841 76.5665C158.482 75.222 158.168 73.8327 157.809 72.4433C157.406 70.7403 157.002 69.0821 156.598 67.3791C156.419 66.5275 156.239 65.7208 156.06 64.8693C155.566 62.2251 155.118 59.5361 154.579 56.8919C154.13 54.8304 153.502 52.8136 153.009 50.7521C152.65 49.3179 152.336 47.8838 151.977 46.4048C151.573 44.7018 151.169 42.9988 150.766 41.3405C150.452 40.0409 150.137 38.7412 149.779 37.4863C149.285 35.7833 148.836 34.0802 148.298 32.3772C147.804 30.719 147.221 29.0608 146.683 27.4025C146.055 25.4306 145.427 23.4587 144.843 21.4419C144.305 19.6044 143.542 17.8566 142.555 16.1984C141.748 14.8539 140.446 14.2712 139.056 13.8231C138.248 13.5542 137.665 14.0472 137.216 14.6298C135.152 17.2292 133.582 20.0526 132.55 23.2346C131.653 26.058 131.204 28.9263 131.07 31.8842C130.935 34.5284 130.845 37.1726 130.89 39.8168C130.935 42.1024 131.159 44.4329 131.294 46.7185C131.473 49.4524 131.608 52.1414 131.832 54.8752C132.012 56.6679 132.326 58.4605 132.595 60.2532C132.774 61.777 132.909 63.3007 133.133 64.7797C133.358 66.3483 133.627 67.9169 133.896 69.4854C133.896 69.5751 133.941 69.7095 133.941 69.7992C134.12 71.6815 134.3 73.5638 134.524 75.4461C134.704 77.0595 135.018 78.6729 135.242 80.2863C135.422 81.586 135.601 82.8408 135.825 84.1405C135.96 85.0816 136.139 86.0228 136.319 87.0088C136.543 88.3533 136.812 89.6978 137.037 91.0423C137.126 91.5353 137.171 92.0731 137.126 92.6109C137.082 93.2383 137.306 93.7761 137.71 94.2243C139.639 96.1514 140.671 98.6163 141.613 101.081C142.6 103.725 143.587 106.325 144.529 108.969C145.382 111.299 146.189 113.63 146.997 115.96C147.849 118.38 148.702 120.845 149.554 123.265C150.362 125.596 151.169 127.926 151.977 130.257C152.695 132.318 153.413 134.38 154.041 136.442C154.579 138.234 155.028 140.072 155.521 141.909C156.105 144.105 156.643 146.256 157.226 148.452C157.72 150.424 158.168 152.441 158.662 154.413C159.155 156.295 159.739 158.088 160.232 159.97C160.636 161.449 161.085 162.973 161.399 164.497C161.488 164.99 161.937 165.438 161.623 166.065C161.13 167.141 159.963 167.679 158.931 167.096C157.63 166.424 157.002 165.169 156.463 163.914C155.611 161.898 154.714 159.881 153.951 157.774C153.233 155.758 152.605 153.696 151.977 151.634C151.394 149.752 150.855 147.87 150.272 145.988C149.779 144.374 149.33 142.806 148.836 141.192C147.535 137.203 146.189 133.26 144.888 129.316C143.946 126.582 143.049 123.848 142.062 121.159C140.491 116.767 138.876 112.42 137.306 108.073C136.633 106.101 136.05 104.129 135.377 102.157C134.704 100.23 133.941 98.3026 133.133 96.3755C132.954 95.9721 132.55 95.6136 132.146 95.3447C128.692 93.2383 125.237 91.0871 121.603 89.2048C118.776 87.7258 116.084 86.0676 113.348 84.499C110.835 83.1097 108.412 81.6308 105.81 80.5103C102.67 79.121 99.6637 77.418 96.6577 75.8046C95.0874 74.9979 93.3825 74.4153 91.8122 73.6534C90.8252 73.2052 89.9278 72.6674 88.9857 72.1296C86.204 70.5162 83.4223 68.9028 80.6855 67.2894C79.1152 66.3931 77.5898 65.4071 76.0195 64.5108C75.5709 64.2419 75.0773 64.0626 74.6287 63.8385C72.7443 62.8526 69.2897 64.5108 68.6616 66.4827C68.3026 67.5583 67.9886 68.6787 67.8989 69.844C67.8091 70.6507 68.0783 71.547 68.3475 72.3537C69.8729 76.7906 72.2957 80.6896 75.3017 84.2301C77.7244 87.1432 80.1472 90.0115 82.9288 92.566C83.871 93.4176 84.9926 94.1346 86.0245 94.8517C88.3576 96.5547 90.4214 98.5715 92.2609 100.768C93.7863 102.56 95.5809 103.994 97.2858 105.518C98.5869 106.683 99.888 107.849 101.234 108.924C101.727 109.327 102.356 109.641 102.939 109.91C108.098 112.196 111.867 115.826 114.2 120.98C114.739 122.145 114.918 123.445 115.277 124.7C115.636 125.91 115.905 127.12 116.309 128.33C116.982 130.391 117.7 132.408 118.373 134.425C118.956 136.173 119.539 137.921 120.078 139.713C120.616 141.551 121.065 143.433 121.558 145.315C121.917 146.66 122.231 148.049 122.59 149.394C122.814 150.38 123.084 151.321 123.308 152.307C123.756 154.189 124.16 156.027 124.609 157.909C124.923 159.388 125.282 160.867 125.596 162.346C126 164.318 126.448 166.245 126.852 168.217C127.077 169.247 127.166 170.323 127.391 171.399C127.794 173.236 128.288 175.074 128.647 176.911C128.871 178.076 128.961 179.286 129.185 180.452C129.544 182.424 129.724 184.395 130.397 186.323C130.89 187.802 131.159 189.325 131.429 190.849C131.743 192.731 132.101 194.569 132.236 196.451C132.595 200.754 132.416 205.011 132.191 209.314C132.101 211.017 131.743 212.675 131.473 214.378C131.428 214.602 131.429 214.826 131.429 215.05C131.249 217.336 131.159 219.577 130.845 221.862C130.621 223.476 130.576 225.134 129.858 226.658C128.602 229.302 126.628 231.184 123.846 232.215C121.513 233.111 119.09 233.291 116.713 233.022C114.066 232.708 111.329 232.17 109.265 230.422C107.336 228.809 105.272 227.375 103.298 225.851C99.7983 223.072 96.7025 219.846 93.7863 216.439C89.7933 211.823 86.2489 206.893 83.1531 201.65C82.5699 200.619 81.8969 199.633 81.4034 198.558C80.7304 197.168 79.7882 196.003 78.8012 194.883C76.1541 191.745 73.5071 188.608 70.9048 185.471C68.7513 182.872 66.6875 180.272 64.4891 177.718C61.5728 174.312 58.5668 170.95 55.1122 168.037C53.6316 166.827 52.151 165.572 50.2667 164.9C49.5937 164.676 48.9207 164.542 48.2029 164.452C47.8439 164.407 47.5748 164.587 47.485 164.99C47.2158 166.155 46.7672 167.276 46.7223 168.441C46.6326 172.25 46.5428 176.06 46.7223 179.869C46.812 181.617 47.3504 183.365 47.8439 185.068C48.4272 187.264 49.145 189.415 49.818 191.521C50.9397 195.017 52.151 198.558 53.2727 202.053C55.1122 207.745 57.49 213.213 59.9576 218.68C62.0215 223.207 63.9956 227.778 65.9248 232.394C67.5848 236.383 69.2 240.416 70.7254 244.45C71.8919 247.542 72.8789 250.679 74.0454 253.727C74.7184 255.475 75.526 257.178 76.2439 258.926C77.0963 261.032 77.9039 263.183 78.8461 265.29C80.192 268.337 81.5829 271.34 83.0634 274.343C84.2299 276.673 85.217 279.048 86.0694 281.468C87.191 284.65 88.7165 287.653 90.3765 290.566C91.8571 293.21 93.7414 295.586 95.5809 297.961C97.3307 300.202 99.1253 302.398 101.01 304.504C103.029 306.745 105.272 308.807 107.739 310.599C109.624 311.989 111.643 313.288 113.662 314.498C116.354 316.112 119.046 317.725 121.827 319.204C126.448 321.714 131.114 324.179 135.78 326.644C136.543 327.047 137.306 327.495 138.069 327.988C139.908 329.243 141.748 330.498 143.497 331.842C146.728 334.263 149.285 337.355 151.573 340.627C153.951 344.033 156.105 347.618 158.482 351.024C161.219 354.878 163.732 358.867 166.11 362.945C169.25 368.413 172.391 373.881 175.397 379.438C177.236 382.754 178.941 386.16 180.601 389.566C182.216 392.883 183.742 396.244 185.222 399.65C186.748 403.191 188.183 406.821 189.619 410.406C190.875 413.588 192.042 416.77 193.208 419.952C193.388 420.445 193.478 420.938 193.657 421.431C193.792 421.924 193.522 422.238 193.164 422.462C191.773 423.269 190.247 423 189.35 421.655C188.139 419.818 186.972 417.935 185.806 416.053C184.639 414.216 183.517 412.378 182.396 410.496C180.781 407.807 179.165 405.118 177.64 402.384C175.352 398.261 173.109 394.093 170.865 389.97C169.116 386.698 167.411 383.382 165.571 380.155C163.283 376.077 160.95 371.998 158.662 367.92C157.092 365.141 155.611 362.273 153.996 359.539C151.887 355.909 149.734 352.279 147.446 348.738C145.516 345.736 143.452 342.823 141.299 339.954C139.773 337.938 138.069 336.01 136.319 334.128C135.736 333.501 134.928 333.008 134.165 332.604C128.916 329.781 123.667 327.047 118.417 324.268C113.931 321.893 109.669 319.159 105.406 316.426C101.01 313.602 97.1512 310.106 93.8312 306.073C91.5879 303.339 89.2997 300.605 87.1462 297.827C84.6337 294.645 82.3904 291.283 80.7304 287.519C79.8331 285.547 78.8012 283.62 77.9039 281.648C77.1412 279.945 76.5579 278.197 75.8401 276.494C74.4941 273.446 73.0135 270.488 71.6676 267.441C70.7703 265.424 69.9627 263.363 69.1551 261.301C68.3026 259.195 67.4951 257.133 66.6875 255.027C66.1042 253.503 65.6107 251.979 65.0723 250.411C64.5788 249.066 64.1301 247.677 63.6366 246.332C62.6496 243.688 61.6625 241.089 60.5858 238.489C59.509 235.89 58.3425 233.335 57.2208 230.736C56.2338 228.405 55.2468 226.03 54.2597 223.7C53.3175 221.504 52.3754 219.308 51.4781 217.067C50.7153 215.229 50.0424 213.347 49.3694 211.465C48.6515 209.538 47.9785 207.655 47.3056 205.728C46.7672 204.115 46.2736 202.501 45.7353 200.888C45.1071 198.961 44.479 197.034 43.806 195.107C43.1331 193.135 42.3703 191.208 41.7422 189.281C41.159 187.577 40.5757 185.83 40.1271 184.082C39.813 182.872 39.6335 181.617 39.4989 180.362C39.3644 179.286 39.2746 178.211 39.3195 177.135C39.3644 174.85 39.3644 172.519 39.6335 170.233C39.8579 168.441 40.3963 166.693 40.9346 164.945C41.2487 163.914 42.2357 163.376 43.0882 162.839C43.7612 162.301 44.7034 161.808 45.7353 161.225ZM64.5339 166.065C64.4891 166.155 64.4442 166.245 64.3545 166.334C64.5788 166.514 64.8031 166.693 65.0275 166.872C66.0594 167.724 67.0913 168.53 68.0335 169.472C71.7124 173.012 74.9876 176.911 77.9936 180.989C82.1212 186.547 86.1591 192.238 90.197 197.841C90.4662 198.199 90.7354 198.602 90.7354 199.006C90.7803 199.588 91.0495 199.947 91.4084 200.35C92.7992 201.919 94.1901 203.487 95.5809 205.101C97.5101 207.342 99.3496 209.627 101.234 211.913C104.509 215.767 107.739 219.621 111.374 223.162C113.751 225.448 116.488 226.747 119.674 227.285C121.02 227.509 121.558 227.106 121.738 225.806C121.917 224.506 122.096 223.252 122.141 221.952C122.321 219.039 122.725 216.171 122.59 213.257C122.545 212.316 122.59 211.375 122.68 210.479C123.128 206.714 123.173 202.95 123.039 199.185C122.949 197.348 122.725 195.465 122.545 193.628C122.411 192.373 122.231 191.118 122.007 189.863C121.648 187.846 121.244 185.874 120.795 183.858C120.302 181.572 119.763 179.286 119.27 177.046C118.911 175.567 118.507 174.132 118.193 172.654C117.924 171.399 117.834 170.144 117.61 168.934C117.475 167.993 117.296 167.051 117.116 166.11C116.757 164.138 116.219 162.211 115.995 160.194C115.591 157.147 115.367 154.055 115.053 151.007C114.918 149.663 114.694 148.363 114.469 147.063C114.066 144.822 113.662 142.626 113.168 140.385C112.854 138.951 112.45 137.517 112.047 136.083C111.688 134.828 111.374 133.573 110.97 132.363C110.387 130.795 110.207 129.092 109.31 127.568C107.695 124.789 106.214 121.966 104.733 119.098C104.375 118.38 103.791 117.977 103.118 117.663C102.535 117.394 101.997 117.126 101.413 116.902C101.189 116.812 100.965 116.767 100.561 116.677C100.606 117.26 100.651 117.663 100.74 118.112C100.965 119.411 101.369 120.711 101.458 122.055C101.727 126.223 101.638 130.391 100.74 134.514C100.157 137.293 99.3496 139.982 98.2728 142.537C97.0166 145.629 95.3117 148.452 93.2479 151.097C90.4214 154.772 87.0565 157.909 83.1083 160.419C79.7434 162.57 76.1093 164.049 72.2508 165.035C69.8729 165.617 67.4502 166.021 64.9826 166.065C64.8929 165.976 64.7134 166.065 64.5339 166.065Z" fill="black"/>
<path d="M38.9153 64.7798C40.7548 64.4213 42.0111 65.721 43.0878 67.1999C44.3441 68.9926 45.5554 70.8749 46.6322 72.802C47.2155 73.8776 47.5295 75.1325 47.7987 76.3425C48.1576 77.9111 47.5744 78.7178 45.9592 78.9867C43.8506 79.3452 42.1008 78.8971 40.4856 77.3285C38.3321 75.2221 36.8964 72.7124 35.7299 69.9785C35.3261 69.0822 35.0569 68.0962 34.7877 67.1551C34.6082 66.4828 34.9672 66.0347 35.5056 65.6761C36.7169 64.9143 37.031 64.7798 38.9153 64.7798Z" fill="black"/>
<path d="M49.1895 69.1268C49.2344 67.0204 49.4587 65.5415 50.0868 64.1522C50.5355 63.1214 52.5096 62.8973 53.2274 63.7936C53.5863 64.2418 53.9004 64.7796 54.0799 65.3174C54.4837 66.7963 54.708 68.3201 54.3491 69.8439C54.1247 70.785 54.035 71.7262 53.7658 72.6673C53.5863 73.3396 52.2852 73.7877 51.3879 73.6533C50.4458 73.5188 49.8625 72.981 49.7279 72.1295C49.4587 70.9195 49.2792 69.7542 49.1895 69.1268Z" fill="black"/>
</g>
<g clip-path="url(#clip2)">
<path d="M75.7092 130.697C75.7294 130.623 75.7456 130.564 75.7657 130.49C75.8633 129.929 75.6909 129.405 75.271 128.973C75.1836 128.885 75.0789 128.793 74.9915 128.706C74.6774 128.429 66.9901 121.596 66.9901 121.596C66.3183 120.999 65.6464 120.403 64.9746 119.806L78.2392 117.212C78.3376 117.191 78.4533 117.175 78.5771 117.129C79.3247 116.904 79.7906 116.285 79.7824 115.567C79.7654 115.086 79.5383 114.626 79.089 114.234C77.6976 113.012 76.3101 111.775 74.9399 110.543L67.1928 103.725C67.1186 103.657 67.0271 103.584 66.9529 103.516C66.8045 103.38 66.6521 103.259 66.5037 103.123C66.2069 102.852 65.8686 102.664 65.4888 102.56C65.1091 102.457 64.7223 102.447 64.3246 102.545C64.3114 102.525 64.2901 102.535 64.2728 102.531L54.8862 104.371C52.6134 104.816 50.2634 105.271 47.952 105.721C47.0916 105.884 46.5585 106.342 46.3567 107.082C45.3678 110.705 44.3588 114.403 43.3861 117.967L42.4981 121.221C42.4658 121.34 42.4335 121.458 42.4053 121.562C42.3246 121.857 42.3647 122.186 42.5124 122.528C42.6113 122.778 42.7913 123.002 43.0444 123.23C43.3107 123.477 53.1965 132.246 53.1965 132.246C51.3173 132.607 40.0515 134.809 40.0515 134.809C39.9359 134.825 39.8161 134.856 39.6751 134.897C39.0552 135.062 38.586 135.49 38.4326 136.052C38.2793 136.614 38.466 137.221 38.9336 137.682C38.9946 137.731 39.0343 137.789 39.0952 137.838L50.3247 147.799L50.7262 148.163C51.0403 148.439 51.3544 148.716 51.6512 148.988C51.948 149.259 52.2863 149.447 52.6488 149.546C53.0286 149.649 53.398 149.655 53.7917 149.572L53.8688 149.561L69.7574 146.459L69.9157 146.423C70.0912 146.391 70.2495 146.355 70.425 146.323C71.0754 146.183 71.5366 145.785 71.7325 145.202C71.7487 145.143 71.7608 145.099 71.7769 145.04L75.7092 130.697ZM59.8314 130.973C60.6305 128.045 61.4297 125.116 62.2288 122.188C62.364 122.304 69.9201 129.006 69.9201 129.006C69.6502 129.044 59.8314 130.973 59.8314 130.973ZM65.9313 143.556L55.8598 145.527C56.659 142.599 57.4581 139.67 58.2532 136.756C58.5409 136.994 65.9313 143.556 65.9313 143.556ZM60.9949 134.39C64.3464 133.731 67.6978 133.072 71.0451 132.428C70.246 135.357 69.4509 138.271 68.6517 141.199C68.4636 141.005 63.0238 136.199 60.9949 134.39ZM66.1871 107.614C68.7567 109.889 71.3089 112.158 73.8784 114.433C70.5098 115.087 67.1584 115.746 63.7897 116.4L66.1871 107.614ZM55.9341 129.894C53.9715 128.182 50.1497 124.787 48.2388 123.09C51.6075 122.436 54.9802 121.767 58.3489 121.113C57.7647 123.321 56.5568 127.68 55.9341 129.894ZM52.2316 108.526C55.6003 107.872 58.9517 107.213 62.3031 106.554C61.504 109.483 60.7048 112.411 59.9057 115.34C57.3534 113.07 54.8012 110.8 52.2316 108.526ZM49.5112 110.882C49.5417 110.907 57.1853 117.696 57.1853 117.696C53.8166 118.35 50.4652 119.009 47.0965 119.663C47.6726 117.484 48.8845 113.111 49.5112 110.882ZM51.9718 144.482C50.0741 142.804 46.2391 139.39 44.3018 137.653C44.3403 137.648 54.352 135.692 54.352 135.692C53.7598 137.93 52.5651 142.308 51.9718 144.482Z" fill="white"/>
</g>
</g>
<defs>
<clipPath id="clip0">
<rect width="264" height="301" fill="white"/>
</clipPath>
<clipPath id="clip1">
<rect width="277" height="412" fill="white" transform="translate(29 11)"/>
</clipPath>
<clipPath id="clip2">
<rect width="34.5342" height="48.7542" fill="white" transform="translate(48.8348 98) rotate(15.2634)"/>
</clipPath>
</defs>
</svg>
