<svg width="445" height="250" viewBox="0 0 445 250" fill="none" xmlns="http://www.w3.org/2000/svg">
<path d="M360 184.279C416 179.279 453.564 141.215 436 98.2791C413.5 43.2791 360 100.279 284 50.2793C208 0.279278 123.939 14.1106 84.8374 64.2789C58.3374 98.279 4 92.2788 4 161.279C4 203.779 79.8374 192.279 129.837 184.279C179.837 176.279 179.837 214.279 247.337 218.779C314.837 223.279 304 189.279 360 184.279Z" fill="white"/>
<g clip-path="url(#clip0)">
<path d="M177.871 59.0662C179.344 57.2093 180.786 55.6086 182.579 54.3601C183.636 53.6557 184.693 52.9834 185.814 52.4072C186.486 52.087 187.287 51.991 188.023 51.8309C188.248 51.7989 188.504 51.8309 188.728 51.895C189.24 52.055 189.401 52.5352 189.016 52.9194C188.152 53.7518 187.255 54.5842 186.39 55.4165C186.006 55.7687 185.622 56.1208 185.333 56.6011C185.493 56.537 185.654 56.505 185.782 56.409C186.742 55.7367 187.671 54.9683 188.664 54.3601C189.529 53.8478 190.457 53.4637 191.482 53.4637C191.642 53.4637 191.803 53.4637 191.963 53.4957C192.603 53.6878 192.731 54.1039 192.347 54.6482C192.059 55.0324 191.739 55.4165 191.45 55.7687C191.514 55.8967 191.546 55.9608 191.578 55.9608C192.699 56.6651 192.892 57.6255 191.963 58.5539C191.194 59.3543 190.265 60.0586 189.401 60.7309C188.504 61.4352 187.543 62.0435 186.646 62.6838C186.582 62.7478 186.518 62.8118 186.39 62.9719C186.614 63.0039 186.742 63.068 186.903 63.068C187.447 63.0359 187.959 62.9399 188.504 62.9079C189.369 62.8439 189.753 63.0359 190.329 63.8043C190.137 64.3485 189.817 64.7007 189.24 64.9568C187.959 65.5651 186.71 66.2694 185.429 66.9097C184.661 67.2938 183.828 67.55 182.931 67.9021C183.091 68.4144 183.252 68.8946 183.412 69.3748C183.732 70.2392 183.508 71.0075 182.899 71.6158C181.586 72.9284 180.241 74.1769 178.96 75.4895C178.384 76.0658 177.935 76.7701 177.455 77.4104C175.341 80.1636 173.227 82.9489 171.081 85.6701C170.025 86.9827 168.84 88.2312 167.815 89.5438C166.213 91.5607 164.676 93.5776 163.171 95.6265C161.057 98.5078 159.488 101.709 158.111 104.975C157.31 106.864 156.574 108.752 156.189 110.737C155.805 112.722 155.389 114.707 155.421 116.724C155.453 118.613 155.389 120.502 155.485 122.391C155.549 123.639 155.805 124.856 155.997 126.104C155.997 126.168 156.029 126.264 156.061 126.328C156.189 127.609 156.285 128.857 156.445 130.138C156.606 131.579 156.798 133.051 156.99 134.492C157.118 135.58 157.246 136.669 157.406 137.725C157.598 139.07 157.758 140.415 157.951 141.759C158.079 142.784 158.207 143.808 158.367 144.833C158.527 145.889 158.751 146.914 158.911 147.938C158.943 148.13 158.943 148.322 158.943 148.482C158.975 149.411 158.911 149.443 157.951 149.379C157.758 149.379 157.534 149.443 157.374 149.539C156.702 149.987 156.093 150.467 155.421 150.883C155.1 151.075 155.1 151.364 155.132 151.652C155.26 152.356 155.389 153.06 155.517 153.765C155.709 154.853 155.901 155.942 156.125 157.062C156.413 158.599 156.702 160.135 156.99 161.672C157.118 162.376 157.246 163.081 157.342 163.785C157.47 164.713 157.598 165.674 157.758 166.602C157.919 167.531 158.079 168.491 158.271 169.42C158.303 169.516 158.335 169.612 158.335 169.74C158.463 170.86 158.591 172.013 158.751 173.133C159.008 174.734 159.296 176.303 159.584 177.903C159.84 179.248 160.064 180.625 160.321 181.969C160.577 183.378 160.897 184.754 161.153 186.163C161.281 186.835 161.41 187.508 161.506 188.212C161.634 189.172 161.762 190.165 161.922 191.125C162.082 192.054 162.274 192.95 162.434 193.847C162.562 194.519 162.691 195.191 162.787 195.895C162.947 196.888 163.043 197.88 163.203 198.905C163.363 199.929 163.587 200.954 163.747 201.946C163.876 202.747 164.004 203.579 164.1 204.379C164.228 205.468 164.356 206.556 164.516 207.613C164.676 208.605 164.868 209.598 165.061 210.59C165.189 211.262 165.285 211.935 165.413 212.639C165.669 214.048 165.893 215.456 166.149 216.865C166.406 218.177 166.726 219.458 166.95 220.739C167.142 221.795 167.238 222.884 167.334 223.972C167.463 225.253 167.591 226.501 167.687 227.782C167.783 229.126 167.879 230.471 167.975 231.816C168.007 232.104 168.039 232.36 168.295 232.584C168.744 232.968 168.68 233.352 168.263 233.736C168.071 233.928 167.879 234.089 167.655 234.281C168.583 236.105 169.544 237.834 170.377 239.659C171.049 241.132 171.562 242.7 172.138 244.237C172.459 245.07 172.747 245.934 172.747 246.83C172.747 247.759 172.331 248.175 171.402 248.239C170.345 248.303 169.48 247.855 168.583 247.342C166.726 246.286 165.253 244.781 163.844 243.213C162.178 241.356 160.609 239.371 159.008 237.482C158.367 236.714 157.662 235.977 156.606 235.785C156.029 235.689 155.453 235.625 154.908 235.433C154.332 235.209 153.787 234.857 153.243 234.537C152.73 234.217 152.57 233.64 152.378 233.16C151.673 231.143 151.001 229.094 150.328 227.077C149.848 225.605 149.336 224.132 148.887 222.627C148.503 221.379 148.183 220.066 147.83 218.818C147.542 217.793 147.254 216.801 146.966 215.776C146.709 214.784 146.453 213.791 146.229 212.799C145.973 211.839 145.749 210.846 145.46 209.886C145.204 208.893 144.884 207.901 144.628 206.908C144.371 206.044 144.147 205.18 143.891 204.315C143.507 203.003 143.09 201.69 142.706 200.377C142.322 199.129 141.937 197.848 141.553 196.6C141.169 195.287 140.816 193.943 140.464 192.63C140.08 191.157 139.664 189.685 139.279 188.18C139.023 187.188 138.799 186.163 138.543 185.171C138.286 184.146 138.03 183.122 137.71 181.937C137.518 182.193 137.326 182.353 137.262 182.545C136.781 184.21 136.429 185.939 135.884 187.604C135.148 189.877 134.283 192.086 133.482 194.327C133.002 195.639 132.554 196.952 132.105 198.297C131.369 200.474 130.632 202.65 129.895 204.827C129.447 206.236 129.031 207.645 128.582 209.053C128.23 210.142 127.814 211.23 127.461 212.351C127.173 213.247 126.917 214.176 126.661 215.072C126.212 216.641 125.796 218.241 125.252 219.778C124.739 221.283 124.131 222.723 123.49 224.196C122.401 226.693 121.248 229.158 120.095 231.591C119.263 233.32 118.398 235.049 117.565 236.778C117.405 237.13 117.213 237.514 117.117 237.866C116.861 238.891 116.06 239.179 115.163 239.339C114.811 239.403 114.427 239.371 113.978 239.403C113.754 240.075 113.146 240.395 112.569 240.78C110.584 242.06 108.598 243.373 106.58 244.557C104.531 245.774 102.321 246.798 100.047 247.567C98.5736 248.079 97.1004 248.687 95.4991 248.655C94.5383 248.623 93.5775 248.751 92.6807 248.303C92.5847 248.239 92.4886 248.239 92.3925 248.175C91.3036 247.503 91.1435 246.798 91.9121 245.774C92.2324 245.358 92.6167 244.973 92.969 244.621C94.5703 243.085 96.1076 241.452 97.805 240.011C99.4383 238.635 101.232 237.45 102.929 236.17C103.153 236.009 103.378 235.817 103.602 235.625C104.018 235.241 103.954 234.889 103.442 234.697C103.282 234.633 103.057 234.697 102.897 234.633C102.705 234.537 102.481 234.409 102.385 234.217C102.225 233.896 102.129 233.544 102 233.128C102.609 233.032 102.577 232.552 102.641 232.072C102.737 231.079 102.897 230.119 103.025 229.158C103.217 227.782 103.41 226.405 103.602 225.061C103.762 223.972 103.954 222.916 104.114 221.859C104.242 221.091 104.37 220.354 104.466 219.586C104.627 218.466 104.723 217.313 104.883 216.193C105.043 215.136 105.235 214.112 105.427 213.055C105.555 212.287 105.651 211.518 105.748 210.782C105.876 209.79 106.004 208.797 106.132 207.805C106.292 206.716 106.484 205.66 106.676 204.603C106.804 203.835 106.9 203.067 107.029 202.33C107.157 201.338 107.285 200.345 107.445 199.321C107.541 198.521 107.669 197.752 107.797 196.952C108.021 195.415 108.246 193.911 108.47 192.374C108.662 190.997 108.886 189.589 109.11 188.212C109.334 186.835 109.527 185.427 109.751 184.05C109.975 182.545 110.167 181.041 110.391 179.568C110.584 178.192 110.808 176.783 111.032 175.406C111.256 173.934 111.448 172.461 111.672 170.988C111.993 168.971 112.281 166.954 112.633 164.938C112.761 164.201 112.986 163.497 113.114 162.761C113.21 162.28 113.21 161.768 113.21 161.256C113.21 160.968 113.05 160.872 112.793 160.776C111.929 160.488 111.064 160.167 110.199 159.815C109.463 159.527 108.758 159.175 108.021 158.887C107.093 158.535 106.612 157.894 106.644 156.902C106.708 154.917 106.644 152.9 106.868 150.915C107.157 148.61 107.093 146.305 107.093 143.968C107.093 143.104 106.868 142.239 106.74 141.375C106.58 140.447 106.388 139.518 106.228 138.558C106.036 137.405 105.523 136.445 104.627 135.741C104.114 135.324 103.442 135.068 102.769 134.876C100.847 134.3 98.8939 134.332 96.9403 134.748C95.6912 135.004 94.4422 135.228 93.1932 135.516C91.5598 135.869 89.9585 136.253 88.3251 136.701C87.1402 137.021 85.9872 137.341 84.8343 137.757C84.1617 137.982 83.5532 138.334 82.9447 138.686C80.3506 140.255 77.7884 141.855 75.1623 143.424C74.6819 143.712 74.1695 143.872 73.7851 144.32C73.6891 144.448 73.4649 144.512 73.2727 144.512C72.0557 144.705 70.9348 144.512 70.038 143.52C69.8139 143.744 69.5576 143.936 69.3655 144.192C67.8602 146.049 66.387 147.906 64.8818 149.731C64.5615 150.115 64.1772 150.435 63.7609 150.723C63.3445 151.043 62.8001 151.043 62.4157 150.787C62.0314 150.499 61.9674 150.051 62.2236 149.571C62.3517 149.315 62.3837 148.994 62.5118 148.738C62.8321 148.066 63.1524 147.426 63.4726 146.753C63.5046 146.657 63.5046 146.561 63.4086 146.369C63.0563 146.689 62.704 147.01 62.3517 147.33C61.3589 148.258 60.3661 149.219 59.3412 150.115C58.9249 150.467 58.3804 150.691 57.9 150.915C57.4516 151.107 56.9392 151.043 56.651 150.659C56.3948 150.307 56.4909 149.859 56.7471 149.475C57.1954 148.834 57.6118 148.162 58.0922 147.426C57.868 147.458 57.6758 147.458 57.5477 147.522C56.715 147.874 55.9144 148.29 55.1137 148.61C54.8575 148.706 54.5372 148.706 54.249 148.706C53.8967 148.706 53.4804 148.61 53.4163 148.226C53.3523 147.906 53.4163 147.49 53.5444 147.17C53.6085 146.978 53.8327 146.817 53.9608 146.625C52.8398 145.953 52.8078 145.697 53.7046 144.769C55.466 142.912 57.5157 141.343 59.7255 140.062C60.6863 139.518 61.6151 138.942 62.5759 138.366C62.704 138.302 62.768 138.142 62.9282 137.949C62.704 137.917 62.5118 137.853 62.3837 137.885C61.3589 138.142 60.334 138.398 59.3092 138.654C58.5405 138.846 57.7399 138.974 56.9713 139.102C56.5549 139.166 56.2026 139.038 56.0105 138.718C55.7863 138.302 56.0105 137.95 56.2987 137.661C57.2915 136.637 58.4765 135.901 59.7576 135.324C60.3981 135.036 61.0706 134.716 61.7432 134.556C63.6648 134.14 64.8818 132.667 66.355 131.611C68.3406 130.202 70.2622 128.761 72.2158 127.321C75.5146 124.856 78.8453 122.455 81.9519 119.733C83.6493 118.229 85.3467 116.724 87.1081 115.283C90.6951 112.274 94.3141 109.265 97.9651 106.319C99.8547 104.815 101.776 103.31 103.922 102.157C105.908 101.101 107.957 100.237 110.135 99.8524C111.672 99.5963 113.274 99.5323 114.875 99.9485C116.22 100.301 117.341 101.005 118.654 101.645C118.654 101.261 118.718 100.941 118.654 100.621C118.302 99.1161 117.854 97.6755 117.277 96.2348C116.861 95.2424 116.252 94.442 115.355 93.7697C113.914 92.6812 112.729 91.3366 111.704 89.864C111.16 89.0956 110.968 88.9996 110.071 89.1917C108.021 89.6078 106.324 88.9996 104.947 87.4629C104.627 87.1107 104.306 86.7586 104.05 86.3744C103.57 85.7021 103.185 84.9658 103.378 84.0373C101.872 83.7812 100.719 82.9809 99.6305 82.0845C98.4455 81.124 97.4527 79.9395 97.0684 78.4348C96.7801 77.2823 96.8442 76.0658 97.1324 74.8812C97.4527 73.5366 97.4527 72.2241 96.7801 70.9435C96.1396 69.6949 95.9154 68.4143 96.2037 66.9737C96.6841 64.5726 98.1252 62.8439 99.8867 61.3392C100.719 60.6349 101.584 59.9946 102.449 59.3543C103.73 58.3939 104.755 57.2093 105.619 55.8647C106.74 54.1039 108.342 52.8874 110.359 52.4392C112.281 51.991 114.267 51.7989 116.22 52.087C117.757 52.3111 119.263 52.7593 120.544 53.7518C121.697 54.6482 122.882 55.4485 123.907 56.473C124.387 56.9212 125.092 57.1453 125.668 57.4654C126.341 57.8496 127.077 58.1698 127.686 58.65C128.646 59.3863 129.127 60.4108 129.255 61.6273C129.351 62.6518 129.543 63.6762 129.639 64.7007C129.735 65.405 129.767 66.1413 129.863 66.8456C130.024 67.9341 130.216 69.0546 130.376 70.1431C130.408 70.3672 130.44 70.5593 130.472 70.7834C130.536 72.7683 131.048 74.6571 131.401 76.578C131.561 77.5384 131.721 78.4989 131.817 79.4913C131.945 81.1561 132.137 82.8528 132.105 84.5176C132.041 87.1107 131.529 89.6078 130.056 91.8168C129.639 92.4251 129.511 93.0654 129.511 93.7697C129.543 95.3384 129.799 96.8751 130.216 98.4118C130.344 98.892 130.568 98.956 130.92 98.5719C131.593 97.8355 132.297 97.0992 132.938 96.3309C133.867 95.2104 135.02 94.41 136.205 93.6417C137.422 92.8733 138.735 92.3291 140.08 91.8488C141.809 91.2406 143.411 90.4082 144.98 89.4478C147.542 87.9111 150.04 86.2784 152.282 84.3255C154.236 82.6287 156.093 80.8039 157.983 79.0431C160 77.1222 162.082 75.2334 164.036 73.2165C166.63 70.5913 169.48 68.2543 172.266 65.8532C172.779 65.437 173.259 64.9888 173.772 64.5726C174.06 64.3485 174.124 64.1244 174.06 63.8043C173.9 62.7478 173.676 61.7234 173.548 60.6669C173.355 59.2903 173.259 57.9136 173.804 56.569C174.028 56.0568 174.348 55.5126 175.053 55.5126C175.757 55.5126 176.398 55.5446 176.686 56.3129C176.974 57.0493 177.263 57.7856 177.583 58.4899C177.583 58.5539 177.711 58.746 177.871 59.0662ZM105.716 234.921C105.812 235.049 105.908 235.337 106.1 235.465C107.221 236.266 108.278 237.13 109.591 237.61C110.648 237.994 111.736 238.378 112.825 238.635C113.37 238.763 113.978 238.571 114.523 238.443C114.747 238.378 114.971 238.09 115.067 237.866C115.644 236.49 116.156 235.081 116.797 233.704C118.206 230.663 119.743 227.686 121.088 224.644C122.273 221.987 123.33 219.298 124.099 216.481C124.643 214.464 125.316 212.479 125.924 210.494C126.373 209.021 126.821 207.581 127.301 206.108C127.814 204.571 128.326 203.035 128.807 201.498C129.159 200.377 129.479 199.257 129.863 198.168C130.568 196.216 131.305 194.327 132.009 192.374C132.49 191.125 132.906 189.845 133.354 188.564C133.867 187.059 134.411 185.587 134.892 184.082C135.468 182.193 135.981 180.272 136.493 178.352C136.621 177.903 136.653 177.391 136.877 176.975C137.486 175.822 137.71 174.574 138.03 173.357C138.35 172.173 138.511 170.924 138.767 169.708C138.863 169.292 138.959 168.907 139.087 168.523C139.76 168.715 140.016 169.163 139.856 169.868C139.792 170.156 139.696 170.444 139.664 170.732C139.632 173.005 139.023 175.182 138.415 177.359C138.254 177.871 138.03 178.48 138.158 178.96C138.447 180.24 138.895 181.489 139.279 182.738C139.76 184.37 140.24 185.971 140.688 187.604C141.105 189.012 141.489 190.389 141.873 191.798C142.226 193.078 142.578 194.359 142.962 195.607C143.347 196.888 143.731 198.136 144.115 199.385C144.5 200.602 144.852 201.818 145.204 203.035C145.685 204.603 146.197 206.14 146.645 207.741C147.03 209.149 147.35 210.558 147.734 211.967C148.119 213.407 148.535 214.816 148.887 216.257C149.464 218.434 150.008 220.611 150.585 222.788C150.937 224.036 151.353 225.253 151.77 226.501C152.538 228.806 153.307 231.111 154.043 233.416C154.364 234.345 155.004 234.825 155.933 234.953C156.766 235.049 157.63 235.113 158.463 235.337C159.968 235.721 161.41 235.529 162.819 234.985C163.908 234.537 164.996 234.057 166.085 233.544C166.406 233.384 166.662 233.128 167.046 232.872C166.149 232.52 165.989 231.848 165.925 231.111C165.925 231.015 165.925 230.887 165.893 230.791C165.765 229.703 165.669 228.614 165.509 227.526C165.253 225.829 164.964 224.132 164.676 222.435C164.42 220.931 164.196 219.394 163.94 217.889C163.844 217.313 163.715 216.737 163.587 216.193C163.299 214.944 162.979 213.727 162.755 212.479C162.466 210.846 162.242 209.245 162.018 207.613C161.698 205.468 161.377 203.323 161.057 201.146C161.025 201.018 161.025 200.89 160.993 200.762C160.833 199.833 160.641 198.873 160.481 197.944C160.321 197.016 160.225 196.056 160.064 195.127C159.808 193.622 159.488 192.118 159.232 190.581C159.104 189.877 159.008 189.172 158.879 188.468C158.719 187.476 158.591 186.483 158.463 185.459C158.367 184.818 158.239 184.146 158.143 183.506C157.855 181.969 157.566 180.433 157.278 178.896C157.118 177.935 157.022 176.943 156.862 175.983C156.67 174.606 156.477 173.197 156.285 171.821C156.221 171.372 156.253 170.924 156.189 170.476C155.933 168.491 155.613 166.474 155.357 164.489C155.196 163.177 155.068 161.864 154.94 160.52C154.94 160.424 154.908 160.296 154.908 160.199C154.716 158.727 154.524 157.254 154.332 155.781C154.204 154.821 154.107 153.829 153.979 152.868C153.915 152.356 153.691 152.26 153.211 152.548C152.73 152.836 152.282 153.156 151.834 153.476C150.456 154.405 149.079 155.333 147.51 155.942C145.108 156.934 142.706 157.99 140.272 158.919C138.767 159.495 137.23 159.943 135.692 160.392C134.635 160.712 133.514 160.904 132.426 161.128C131.401 161.32 130.344 161.576 129.287 161.608C127.077 161.672 124.867 161.672 122.658 161.64C121.024 161.608 119.359 161.512 117.725 161.384C116.733 161.32 115.772 161.192 114.811 161.096C114.203 161.032 114.074 161.128 114.01 161.768C113.978 162.472 114.01 163.145 113.914 163.849C113.658 165.738 113.37 167.627 113.082 169.516C112.857 171.052 112.633 172.557 112.441 174.094C112.185 175.919 111.961 177.711 111.704 179.536C111.704 179.632 111.672 179.76 111.672 179.856C111.512 180.849 111.288 181.841 111.16 182.834C111 183.922 110.904 185.043 110.744 186.163C110.648 186.963 110.519 187.796 110.359 188.596C110.199 189.685 109.975 190.741 109.847 191.798C109.687 192.886 109.591 193.975 109.463 195.031C109.367 195.831 109.238 196.6 109.11 197.4C108.918 198.553 108.726 199.705 108.566 200.858C108.406 201.914 108.31 202.971 108.182 204.027C108.085 204.763 107.957 205.5 107.829 206.236C107.637 207.325 107.445 208.445 107.285 209.534C107.125 210.622 107.029 211.679 106.868 212.767C106.772 213.535 106.644 214.304 106.516 215.04C106.324 216.193 106.132 217.345 105.972 218.498C105.844 219.394 105.716 220.29 105.587 221.155C105.395 222.339 105.203 223.524 105.043 224.676C104.915 225.637 104.787 226.565 104.659 227.526C104.563 228.294 104.434 229.03 104.306 229.799C104.114 231.047 103.858 232.296 103.698 233.576C103.666 233.768 103.826 234.089 103.986 234.185C104.563 234.409 105.107 234.633 105.716 234.921ZM130.312 81.7643C130.248 80.6118 130.184 79.4273 130.12 78.2748C130.12 78.2107 130.088 78.1147 130.088 78.0507C129.928 77.1543 129.703 76.2579 129.575 75.3294C129.319 73.3446 128.775 71.4557 127.91 69.6629C127.301 68.4144 126.533 67.2938 125.348 66.5255C124.707 66.1093 124.099 65.6291 123.458 65.2129C122.433 64.5726 121.344 63.9964 120.288 63.4201C119.455 62.9719 118.494 62.8439 117.597 62.8439C116.637 62.8439 115.58 63.164 114.715 63.5802C111.576 65.0849 109.943 67.8061 109.11 71.0395C108.726 72.4802 108.598 74.0169 108.502 75.5215C108.31 77.9226 108.406 80.2917 109.302 82.6287C110.199 84.9017 111.064 87.1748 112.505 89.2237C114.267 91.6888 116.38 93.7377 119.199 94.9863C120.288 95.4665 121.408 95.8827 122.625 95.8506C124.291 95.8186 125.764 95.4024 126.757 93.8978C127.077 93.3855 127.558 92.9693 127.91 92.4891C128.743 91.4006 129.511 90.2161 129.831 88.8715C130.28 87.1427 130.568 85.3499 130.504 83.5251C130.408 82.9489 130.344 82.3726 130.312 81.7643ZM175.597 55.8007C175.021 56.1529 174.668 56.6651 174.636 57.1773C174.604 58.2978 174.636 59.4183 174.7 60.5388C174.765 61.6593 174.925 62.8118 175.021 63.9323C175.053 64.4446 175.181 64.7967 175.693 65.0528C176.91 65.6291 177.999 66.3334 178.832 67.3899C178.992 67.614 179.28 67.7741 179.472 67.9662C179.729 68.2223 179.985 68.2223 180.273 68.0622C181.394 67.3579 182.643 66.9097 183.86 66.3974C185.397 65.7572 186.871 65.0208 188.376 64.3165C188.6 64.2205 188.792 64.0604 188.632 63.7723C188.344 63.8363 188.088 63.9323 187.863 63.9644C187.159 64.0924 186.454 64.1885 185.75 64.2845C185.493 64.3165 185.205 64.3165 184.949 64.2845C184.34 64.1885 184.116 63.6762 184.565 63.228C185.045 62.7158 185.493 62.1716 186.07 61.8514C187.607 60.923 188.984 59.8025 190.329 58.618C190.81 58.2018 191.13 57.7216 191.258 57.0813C191.354 56.6971 191.194 56.537 190.874 56.409C190.714 56.537 190.522 56.6331 190.361 56.7611C188.76 58.0737 187.191 59.3863 185.622 60.6989C185.397 60.891 185.173 61.0831 184.949 61.2111C184.469 61.5313 184.469 61.4992 183.988 60.955C186.262 58.5539 189.144 56.7291 191.354 54.2C190.874 54.264 190.393 54.3601 190.041 54.5842C189.08 55.2244 188.152 55.9288 187.191 56.6011C186.07 57.4014 184.917 58.2338 183.796 59.0341C183.572 59.1942 183.252 59.2262 182.963 59.2262C182.579 59.1942 182.419 58.9061 182.579 58.5539C182.707 58.2018 182.835 57.8496 183.091 57.5935C184.597 56.0888 186.102 54.6162 187.639 53.1435C187.767 53.0155 187.863 52.8554 188.088 52.5993C187.767 52.5993 187.607 52.5673 187.479 52.5993C186.967 52.8234 186.422 53.0795 185.942 53.3676C183.412 54.8083 181.33 56.7611 179.44 58.9381C179.184 59.2262 178.96 59.5784 178.704 59.8665C178.223 60.3787 177.743 60.3467 177.327 59.7705C177.263 59.6744 177.134 59.5784 177.102 59.4503C176.878 58.81 176.654 58.1698 176.398 57.5295C176.046 56.9212 175.821 56.409 175.597 55.8007ZM57.7719 149.539C57.836 149.571 57.868 149.603 57.932 149.635C58.5405 149.187 59.1491 148.738 59.7576 148.29C61.2948 147.074 62.8001 145.889 64.3053 144.64C64.6576 144.352 65.0099 144.224 65.4262 144.192C65.5864 144.705 65.5543 145.217 65.2981 145.633C64.7857 146.529 64.2413 147.394 63.6968 148.258C63.5367 148.514 63.4086 148.77 63.2484 149.026C63.3125 149.09 63.3445 149.123 63.4086 149.187C63.6328 149.058 63.921 148.994 64.0811 148.834C64.4654 148.45 64.8177 148.002 65.138 147.554C65.8426 146.561 66.5151 145.569 67.2197 144.576C68.3727 142.944 69.7818 141.599 71.3191 140.287C71.255 140.158 71.223 139.998 71.1269 139.87C70.8387 139.422 70.5184 139.006 70.2943 138.558C69.6217 137.117 68.3086 136.253 67.2517 135.196C67.1877 135.132 67.1236 135.1 67.0596 135.068C66.2589 134.844 65.4903 134.588 64.6896 134.428C64.2733 134.364 63.7929 134.428 63.3765 134.588C62.3517 134.908 61.3268 135.26 60.334 135.708C59.2772 136.189 58.2523 136.701 57.3876 137.533C57.1954 137.725 57.0033 137.885 57.0994 138.174C57.7079 138.078 58.2843 138.046 58.8288 137.853C60.0458 137.373 61.3268 137.309 62.5439 137.021C63.0243 136.925 63.5046 136.989 63.889 137.309C64.1132 137.469 64.1772 137.693 63.985 137.917C63.8569 138.078 63.7288 138.238 63.5367 138.366C62.704 138.942 61.8713 139.582 61.0066 140.094C59.5334 141.023 57.9961 141.855 56.683 143.008C56.1386 143.488 55.5941 143.968 55.0497 144.448C55.0817 144.512 55.1457 144.576 55.1778 144.64C56.4588 143.968 57.6758 143.2 58.8928 142.432C60.1739 141.663 61.487 140.927 62.8001 140.19C63.0243 140.351 63.2164 140.479 63.4726 140.639C63.1524 140.895 62.8961 141.151 62.6399 141.311C60.6223 142.624 58.6046 143.904 56.619 145.249C55.8183 145.793 55.1137 146.497 54.3771 147.106C54.1529 147.298 54.0889 147.49 54.1849 147.842C54.7935 147.554 55.402 147.298 55.9144 147.01C58.0922 145.761 60.2379 144.448 62.3837 143.2C62.8961 142.88 63.4406 142.624 64.0171 142.367C64.3373 142.239 64.6256 142.271 64.8177 142.56C63.3125 143.904 61.8072 145.185 60.3661 146.529C59.5013 147.33 58.7007 148.226 57.9 149.09C57.868 149.219 57.836 149.379 57.7719 149.539ZM128.134 94.0578C126.981 95.5305 125.732 96.2668 123.971 96.3629C122.946 96.4269 121.889 96.3629 120.864 96.3309C120.544 96.3309 120.256 96.2028 119.935 96.1068C119.295 95.8827 118.686 95.6586 117.982 95.4024C117.982 95.5625 117.95 95.6265 117.982 95.6906C118.91 97.5154 119.711 99.3722 119.903 101.453C119.935 101.869 120.191 102.125 120.64 102.125C120.928 102.125 121.248 102.125 121.505 102.221C122.786 102.638 124.067 102.478 125.252 101.997C126.405 101.549 127.461 100.877 128.518 100.237C129.255 99.8204 129.319 99.5643 129.095 98.796C128.775 97.7715 128.518 96.747 128.454 95.6906C128.454 95.1783 128.262 94.6661 128.134 94.0578ZM108.47 83.5892C108.278 82.5327 108.021 81.6683 107.605 80.8359C107.413 80.4838 106.933 80.1636 106.42 80.3557C105.683 80.6118 105.011 80.964 104.819 81.8284C104.787 82.0204 104.691 82.1805 104.659 82.3406C104.499 83.173 104.402 84.0053 104.723 84.8377C105.075 85.7981 105.78 86.4704 106.42 87.2068C107.381 88.3273 108.63 88.5514 110.007 88.3273C110.359 88.2632 110.487 88.0712 110.327 87.751C110.135 87.3348 109.911 86.9186 109.367 86.6625C109.399 87.3028 108.95 87.4309 108.502 87.5589C108.406 87.4949 108.31 87.4629 108.246 87.3989C108.117 87.1748 107.957 86.9507 107.989 86.7266C108.021 86.4064 108.31 86.3744 108.598 86.3744C108.79 86.3744 109.014 86.3424 109.367 86.3424C108.982 85.9262 108.694 85.574 108.406 85.2539C107.893 84.6776 107.893 84.7097 107.189 84.9978C106.868 85.1258 106.484 85.478 106.1 84.9978C106.388 84.6456 106.676 84.2935 106.997 83.8773C106.452 83.4611 105.908 83.0449 105.235 82.5647C106.548 82.4046 107.349 83.205 108.47 83.5892ZM70.5505 142.624C70.9668 143.136 71.4792 143.52 72.0557 143.712C72.6322 143.904 72.9525 143.552 72.7923 142.976C72.6002 142.335 72.3119 141.727 72.0237 140.895C71.4472 141.567 71.0309 142.079 70.5505 142.624ZM181.202 68.6705C181.01 68.7665 180.85 68.8305 180.625 68.9266C180.818 69.3108 180.978 69.6629 181.17 70.0471C181.81 69.5349 181.81 69.5349 181.202 68.6705Z" fill="black"/>
<path d="M262.773 138.494C262.549 138.013 262.421 137.661 262.229 137.341C260.435 134.716 258.674 132.027 256.784 129.498C255.375 127.609 253.742 125.912 252.301 124.087C251.692 123.319 250.955 122.711 250.123 122.102C250.571 121.75 250.923 121.59 251.244 122.07C251.276 122.102 251.308 122.134 251.372 122.166C252.877 122.711 254.062 123.735 255.407 124.535C256.752 125.336 258.001 126.232 259.282 127.129C260.435 127.961 261.524 128.889 262.645 129.754C262.805 129.882 262.965 130.01 263.254 130.042C263.029 129.594 262.741 129.146 262.549 128.697C261.941 127.289 261.3 125.912 260.788 124.471C260.211 122.871 259.763 121.238 259.282 119.637C258.994 118.613 258.77 117.588 258.482 116.564C258.097 115.219 257.713 113.875 257.329 112.53C256.976 111.346 256.656 110.129 256.272 108.944C255.727 107.216 255.023 105.519 254.126 103.95C253.261 102.446 252.365 100.941 251.404 99.5002C250.923 98.7959 250.283 98.1876 249.706 97.5153C249.098 96.779 248.457 96.0747 247.881 95.3384C247.753 95.1463 247.721 94.8902 247.657 94.6341C247.913 94.57 248.137 94.442 248.361 94.442C248.778 94.506 249.194 94.634 249.578 94.7621C252.172 95.6265 254.735 96.4909 257.329 97.3233C258.994 97.8675 260.659 98.3797 262.325 98.924C262.709 99.052 263.093 99.1801 263.574 99.3722C263.318 98.4758 263.093 97.7715 262.901 97.0351C262.613 96.0427 262.357 95.0502 262.037 94.0578C261.46 92.233 260.948 90.4081 260.307 88.6153C259.699 86.9186 258.93 85.2539 258.193 83.5891C257.233 81.4121 256.08 79.3632 254.703 77.4103C254.478 77.0582 254.254 76.706 254.03 76.3218C254.446 76.0657 254.863 76.0337 255.151 76.2578C256.08 77.0262 257.201 77.4423 258.29 77.9226C259.571 78.4988 260.627 79.3632 261.524 80.4197C263.029 82.2445 264.407 84.1333 265.624 86.1503C266.616 87.783 267.769 89.3517 268.57 91.1125C269.114 92.329 269.627 93.5456 269.723 94.8581C269.755 95.3704 269.947 95.8826 270.107 96.3948C270.139 96.4909 270.331 96.5549 270.524 96.651C270.652 95.9787 270.812 95.4024 270.908 94.8261C271.068 93.8337 271.196 92.8412 271.356 91.8488C271.484 91.0164 271.677 90.1841 271.805 89.3517C271.933 88.5833 272.093 87.783 272.221 87.0146C272.477 85.51 272.669 84.0373 272.958 82.5326C273.214 81.22 273.566 79.9395 273.854 78.6589C273.95 78.3067 274.111 78.1146 274.495 78.0506C274.911 77.9866 275.135 78.2107 275.296 78.5628C275.36 78.7229 275.424 78.915 275.424 79.1071C275.552 80.7398 275.68 82.3405 275.84 83.9733C276 85.574 276.192 87.1427 276.352 88.7114C276.417 89.2877 276.384 89.8959 276.416 90.4722C276.513 91.7207 276.609 92.9693 276.737 94.2179C276.737 94.3139 276.801 94.3779 276.929 94.6661C277.217 93.9618 277.473 93.4175 277.698 92.8733C278.53 90.8884 279.299 88.8395 280.196 86.8866C282.021 83.0128 283.943 79.1711 285.832 75.2974C285.96 75.0733 286.024 74.8172 286.153 74.5931C286.409 74.1129 286.889 73.8888 287.241 74.1449C287.402 74.2729 287.562 74.497 287.594 74.6891C287.594 75.2013 287.53 75.6816 287.498 76.1938C287.434 77.2503 287.37 78.3067 287.273 79.3952C286.921 83.269 287.113 87.1747 287.017 91.0484C286.985 92.201 287.017 93.3535 286.985 94.474C286.953 95.1783 286.889 95.8826 286.825 96.683C287.017 96.5229 287.209 96.4268 287.338 96.2988C289.259 94.0898 291.181 91.8808 293.102 89.7038C293.711 88.9995 294.319 88.3272 294.928 87.6549C295.248 87.3028 295.376 86.9186 295.376 86.4384C295.408 85.4139 295.536 84.3574 295.6 83.333C295.664 82.4686 295.664 81.5722 295.696 80.7078C295.76 79.2992 295.857 77.8905 295.953 76.4819C295.985 75.7456 295.985 74.9772 296.017 74.2409C296.145 71.6157 296.113 68.9585 296.433 66.3654C296.689 64.2204 296.561 62.0755 296.849 59.9305C296.977 59.0661 296.945 58.1697 296.977 57.3053C297.106 54.8402 297.202 52.3751 297.362 49.91C297.522 47.5089 297.714 45.1399 297.874 42.7388C297.938 42.0025 297.906 41.2341 297.97 40.4978C298.066 38.1287 298.098 35.7597 298.355 33.3906C298.547 31.5018 298.515 29.6129 298.643 27.7241C298.803 25.451 298.995 23.178 299.155 20.905C299.219 20.1367 299.219 19.3683 299.251 18.6C299.347 16.487 299.347 14.4061 299.636 12.3252C299.796 10.9806 299.796 9.63596 299.924 8.29136C299.956 7.90719 300.052 7.491 300.18 7.13884C300.244 6.97877 300.5 6.91474 300.757 6.72266C300.789 7.17086 300.853 7.42697 300.821 7.68309C300.789 9.732 300.917 11.8129 300.693 13.8298C300.436 15.9428 300.596 18.0877 300.372 20.2007C300.212 21.7374 300.212 23.2741 300.116 24.8108C300.084 25.6111 299.956 26.3795 299.924 27.1798C299.86 28.0762 299.86 28.9726 299.86 29.901C299.86 30.2532 299.86 30.6054 299.86 30.9255C299.732 33.9669 299.732 37.0082 299.444 40.0176C299.187 42.5147 299.347 45.0118 298.963 47.5089C298.835 48.3733 298.899 49.2697 298.867 50.1341C298.771 52.7593 298.771 55.4165 298.483 58.0417C298.259 60.1866 298.419 62.3636 298.162 64.4765C297.874 66.6855 298.002 68.8945 297.81 71.0715C297.682 72.4801 297.682 73.8888 297.586 75.2974C297.49 76.8341 297.394 78.3708 297.298 79.9075C297.202 81.3161 297.106 82.7247 297.01 84.1333C296.977 84.4535 297.01 84.7736 297.01 85.1578C297.65 84.9017 298.227 84.4215 298.803 85.0297C298.387 86.2463 297.938 87.4628 297.522 88.6794C296.945 90.3121 296.561 91.9769 296.529 93.7056C296.465 95.6905 296.273 97.6754 296.177 99.6603C296.113 101.197 296.081 102.766 296.017 104.302C295.985 104.783 295.889 105.231 295.857 105.711C295.857 105.871 295.889 106.063 295.921 106.223C296.113 106.159 296.305 106.127 296.465 106.031C298.611 104.206 300.885 102.542 303.351 101.165C304.696 100.397 306.137 99.8844 307.578 99.4042C307.834 99.3081 308.219 99.5002 308.667 99.5963C308.475 100.173 308.379 100.653 308.187 101.101C307.194 103.438 306.105 105.711 305.144 108.048C304.28 110.161 303.543 112.306 302.71 114.419C302.134 115.924 301.493 117.396 300.949 118.901C300.468 120.149 300.02 121.43 299.604 122.711C299.347 123.447 299.411 123.415 300.084 123.927C301.269 124.824 302.358 125.784 303.575 126.616C304.824 127.513 305.849 128.665 307.002 129.658C307.226 129.85 307.418 130.138 307.61 130.362C307.963 130.778 308.347 131.13 308.763 131.515C309.34 131.995 309.724 132.699 310.108 133.339C310.333 133.756 310.397 134.236 310.589 134.684C311.101 135.805 311.646 136.925 312.158 138.046C312.382 138.526 312.574 139.006 312.767 139.486C312.831 139.486 312.895 139.486 312.959 139.486C312.991 139.23 313.055 138.942 313.055 138.686C313.183 134.3 313.279 129.914 313.375 125.496C313.375 125.336 313.375 125.176 313.375 125.016C313.439 122.519 313.535 120.021 313.599 117.524C313.599 117.14 313.631 116.788 313.631 116.404C313.663 114.099 313.695 111.762 313.759 109.457C313.823 106.543 313.887 103.598 313.984 100.685C314.08 96.5869 314.112 92.4891 314.368 88.3913C314.624 84.1974 314.432 80.0355 314.72 75.8416C314.944 72.4481 314.848 69.0226 315.008 65.6291C315.169 62.3636 315.169 59.0981 315.297 55.8007C315.393 53.0474 315.489 50.3262 315.585 47.573C315.617 46.9327 315.585 46.2924 315.617 45.6521C315.649 45.1399 315.777 44.6276 315.841 44.0834C315.905 43.5071 315.905 42.9309 315.937 42.3226C315.969 42.0025 316.097 41.6823 316.129 41.3302C316.161 41.0741 316.225 40.8179 316.225 40.5618C316.225 40.1776 316.257 39.8895 316.738 39.6654C317.026 40.8499 318.179 40.8179 319.012 41.2341C320.581 42.0025 322.214 42.6107 323.816 43.283C326.474 44.4356 329.1 45.5881 331.726 46.7406C334.833 48.0852 337.971 49.4618 341.078 50.8064C344.409 52.2471 347.771 53.6557 351.102 55.1283C353.921 56.3449 356.707 57.5935 359.493 58.842C362.536 60.1546 365.61 61.4672 368.653 62.7798C371.503 64.0283 374.353 65.2769 377.172 66.5575C378.965 67.3578 380.759 68.1582 382.52 68.9265C382.744 69.0226 382.969 69.1186 383.161 69.2787C383.481 69.5028 383.481 69.8229 383.321 70.1431C383.193 70.4312 382.969 70.4312 382.648 70.3032C380.503 69.4067 378.357 68.5744 376.211 67.71C375.058 67.2618 373.873 66.8456 372.784 66.2693C371.823 65.7571 370.863 65.2769 369.838 64.8927C368.364 64.3805 367.019 63.6121 365.642 62.8758C364.041 62.0434 362.376 61.3711 360.742 60.6348C358.244 59.5143 355.746 58.4258 353.216 57.3053C350.654 56.1528 348.124 55.0323 345.562 53.8798C343.064 52.7593 340.565 51.6068 338.067 50.4863C334.352 48.8215 330.637 47.1888 326.922 45.524C323.976 44.2115 321.061 42.8669 318.147 41.5223C317.763 41.3302 317.346 41.2341 316.77 41.042C316.77 41.4902 316.77 41.7464 316.77 42.0345C316.77 43.219 316.738 44.4356 316.706 45.6201C316.706 45.7481 316.738 45.9082 316.674 46.0043C316.225 46.6125 316.386 47.2848 316.386 47.9251C316.321 50.8704 316.289 53.7837 316.257 56.7291C316.193 60.6028 316.129 64.4445 316.033 68.3183C316.001 69.6949 315.873 71.0715 315.841 72.4481C315.777 76.3539 315.873 80.2916 315.681 84.1974C315.361 89.8319 315.649 95.4344 315.329 101.069C315.136 104.655 315.233 108.24 315.072 111.858C314.848 116.948 314.912 122.038 314.72 127.097C314.592 130.33 314.56 133.531 314.464 136.765C314.464 136.861 314.464 136.989 314.464 137.085C314.368 140.991 314.272 144.897 314.176 148.834C314.144 150.083 314.24 151.363 314.08 152.58C313.727 155.493 313.919 158.439 313.823 161.352C313.727 163.849 313.631 166.346 313.503 168.843C313.471 169.42 313.695 169.772 314.144 170.06C315.425 170.828 316.674 171.661 317.987 172.429C320.069 173.677 322.118 174.926 324.2 176.175C328.043 178.416 331.918 180.625 335.73 182.866C337.715 184.018 339.637 185.267 341.59 186.451C344.409 188.148 347.291 189.749 350.077 191.509C354.273 194.103 358.532 196.6 362.44 199.577C364.393 201.05 366.347 202.554 368.461 203.803C368.685 203.931 369.037 204.059 368.877 204.571C368.621 204.507 368.364 204.507 368.14 204.379C366.155 203.451 364.329 202.234 362.568 200.922C360.006 198.969 357.379 197.144 354.625 195.479C351.839 193.782 349.053 192.054 346.266 190.389C343.096 188.468 339.925 186.611 336.754 184.722C333.392 182.738 330.029 180.785 326.698 178.736C323.047 176.495 319.396 174.222 315.745 171.949C315.457 171.757 315.104 171.693 314.816 171.533C314.368 171.244 313.984 170.892 313.567 170.572C313.343 170.412 313.183 170.156 312.927 170.124C312.35 169.996 312.254 169.612 312.254 169.131C312.254 167.563 312.222 165.994 312.254 164.425C312.286 163.433 312.414 162.472 312.478 161.48C312.478 161.288 312.446 161.096 312.382 160.776C311.774 161.576 311.902 162.44 311.806 163.241C311.646 164.361 311.453 165.482 311.293 166.602C311.165 167.467 311.037 168.331 310.877 169.195C310.717 170.06 310.557 170.892 310.397 171.757C310.268 172.397 310.14 173.037 310.012 173.709C309.852 174.542 309.756 175.406 309.596 176.239C309.34 177.583 309.051 178.928 308.763 180.272C308.635 180.881 308.507 181.457 308.379 182.065C308.059 183.57 307.706 185.075 307.418 186.579C307.226 187.508 307.13 188.468 307.002 189.397C306.874 190.197 306.778 191.029 306.649 191.83C306.585 192.182 306.714 192.47 307.002 192.758C308.571 194.231 310.108 195.767 311.678 197.24C311.998 197.56 312.574 197.688 312.767 198.04C312.991 198.457 313.183 198.809 313.535 199.097C314.624 199.897 315.713 200.666 316.802 201.466C320.101 203.867 323.367 206.236 326.666 208.637C329.292 210.526 331.918 212.415 334.545 214.336C337.363 216.385 340.149 218.466 342.935 220.514C347.099 223.556 351.294 226.597 355.458 229.639C357.443 231.111 359.397 232.616 361.383 234.121C361.639 234.313 361.895 234.569 362.183 234.857C361.767 235.209 361.383 235.113 361.062 234.889C359.909 234.121 358.725 233.352 357.604 232.552C355.009 230.727 352.479 228.838 349.917 226.981C347.707 225.381 345.498 223.748 343.288 222.147C340.053 219.778 336.818 217.409 333.584 215.072C330.061 212.511 326.538 209.95 323.047 207.389C319.972 205.148 316.898 202.907 313.823 200.698C313.663 200.57 313.471 200.505 313.151 200.313C313.151 200.794 313.119 201.146 313.151 201.466C313.247 203.227 313.375 204.955 313.471 206.716C313.567 208.477 313.599 210.238 313.855 211.967C314.112 213.663 314.016 215.36 314.176 217.057C314.304 218.786 314.4 220.514 314.528 222.211C314.688 224.74 314.88 227.302 315.072 229.831C315.104 230.375 315.072 230.887 315.072 231.431C315.201 233.832 315.169 236.266 315.521 238.667C315.777 240.619 315.553 242.54 315.841 244.461C315.873 244.653 315.841 244.845 315.809 245.005C315.777 245.422 315.553 245.582 315.136 245.646C313.375 245.806 311.614 245.998 309.852 246.19C309.692 246.222 309.5 246.19 309.404 246.286C309.051 246.638 308.731 246.798 308.283 246.478C307.963 246.254 307.546 246.286 307.354 245.742C307.194 245.294 306.649 244.973 306.297 244.621C305.593 243.917 304.888 243.181 304.215 242.476C304.087 242.348 303.927 242.124 303.927 241.932C303.799 240.363 303.767 238.795 303.575 237.258C303.319 235.337 303.383 233.448 303.255 231.527C303.095 229.03 302.87 226.533 302.678 224.068C302.646 223.844 302.646 223.652 302.614 223.428C302.582 223.108 302.422 222.948 302.102 222.916C301.237 222.884 300.34 222.884 299.476 222.884C299.379 222.884 299.219 222.916 299.187 222.98C298.707 223.556 298.098 223.108 297.522 223.172C297.394 223.172 297.234 222.98 297.138 222.819C296.817 222.339 296.561 221.827 296.241 221.315C296.017 220.995 295.857 220.578 295.536 220.354C295.056 220.034 294.96 219.618 294.864 219.074C294.511 216.993 294.736 214.88 294.576 212.767C294.479 211.55 294.383 210.334 294.287 209.117C294.255 208.573 294.095 208.477 293.583 208.509C292.558 208.605 291.533 208.733 290.508 208.829C287.85 209.117 285.16 209.405 282.502 209.662C281.797 209.726 281.092 209.758 280.356 209.79C280.452 210.526 280.548 211.198 280.612 211.839C280.708 212.799 280.836 213.727 280.932 214.688C281.092 216.321 281.285 217.953 281.445 219.586C281.541 220.707 281.605 221.827 281.669 222.948C281.669 223.204 281.605 223.492 281.541 223.748C281.349 224.42 281.156 224.548 280.452 224.516C279.587 224.484 278.754 224.484 277.89 224.42C276.801 224.356 275.712 224.228 274.623 224.132C274.431 224.1 274.239 223.972 274.111 223.844C273.534 223.364 272.926 222.884 272.413 222.339C272.189 222.083 271.997 221.699 271.965 221.347C271.709 219.682 271.516 218.049 271.324 216.385C271.164 214.784 271.068 213.215 270.908 211.614C270.876 211.294 270.684 211.006 270.62 210.846C269.467 210.91 268.442 210.974 267.449 211.07C266.296 211.166 265.111 211.262 263.958 211.358C263.35 211.422 263.222 211.55 263.222 212.159C263.222 214.656 263.222 217.185 263.222 219.682C263.19 222.211 263.126 224.74 263.093 227.27C263.029 230.983 262.997 234.665 262.869 238.378C262.805 240.331 262.517 242.284 262.357 244.237C262.261 245.39 262.261 246.574 262.197 247.759C262.165 248.431 262.069 249.071 261.973 249.712C261.909 250.192 261.46 250.16 261.14 250.16C260.788 250.16 260.403 250.032 260.051 250C259.09 249.872 258.097 249.776 257.137 249.648C256.368 249.551 255.599 249.519 254.831 249.423C254.639 249.391 254.446 249.231 254.318 249.103C253.614 248.495 253.293 247.663 252.877 246.862C252.237 245.582 251.596 244.333 250.955 243.053C250.795 242.732 250.699 242.348 250.699 241.996C250.699 240.331 250.667 238.699 250.795 237.034C251.18 232.424 250.923 227.814 251.148 223.204C251.308 220.034 251.212 216.865 251.5 213.695C251.628 212.063 251.692 210.398 251.756 208.765C251.788 208.125 251.564 207.645 251.148 207.197C249.803 205.724 248.489 204.219 247.176 202.682C245.415 200.666 243.685 198.681 241.924 196.664C240.867 195.447 239.81 194.263 238.753 193.046C237.088 191.125 235.423 189.172 233.757 187.252C233.021 186.419 232.316 185.587 231.547 184.786C231.387 184.626 231.099 184.53 230.843 184.53C229.946 184.53 229.049 184.594 228.121 184.626C227.576 184.658 227.064 184.626 226.519 184.658C223.124 184.722 219.762 184.786 216.367 184.85C215.598 184.85 215.534 184.915 215.566 185.683C215.566 185.715 215.566 185.747 215.566 185.747C215.662 188.116 215.79 190.453 215.822 192.822C215.854 193.975 214.926 194.647 213.773 194.487C213.036 194.359 212.3 194.295 211.563 194.615C211.467 194.647 211.371 194.679 211.243 194.679C210.122 194.679 209.001 194.679 207.976 194.679C207.111 193.366 206.279 192.118 205.446 190.869C205.094 190.325 204.677 189.781 204.389 189.204C204.165 188.756 204.069 188.244 204.005 187.764C203.941 186.931 203.941 186.067 203.941 185.171C203.492 185.139 203.108 185.107 202.756 185.107C201.731 185.107 200.674 185.107 199.649 185.171C195.358 185.395 191.066 185.427 186.774 185.459C185.269 185.459 183.796 185.523 182.291 185.555C178.255 185.619 174.252 185.683 170.217 185.779C169.224 185.811 168.263 185.875 167.27 185.971C166.918 186.003 166.79 185.875 166.854 185.395C167.783 185.395 168.712 185.427 169.64 185.395C172.459 185.331 175.277 185.235 178.095 185.171C180.241 185.107 182.355 185.043 184.501 185.011C185.654 184.979 186.806 185.011 187.927 184.979C191.162 184.915 194.365 184.85 197.599 184.754C199.329 184.722 201.058 184.658 202.788 184.594C203.14 184.594 203.46 184.498 203.877 184.434C203.813 184.05 203.78 183.73 203.748 183.41C203.684 182.545 203.652 181.649 203.588 180.785C203.492 179.088 203.396 177.391 203.268 175.694C203.14 173.485 202.98 171.308 202.82 169.099C202.628 166.058 202.531 162.985 202.243 159.943C202.019 157.734 202.147 155.525 201.891 153.348C201.667 151.395 201.699 149.475 201.635 147.554C201.603 146.401 201.475 145.217 201.378 144.064C201.346 143.712 201.314 143.424 201.539 143.072C201.699 142.816 201.667 142.431 201.731 142.079C202.724 141.759 203.716 141.631 204.773 141.631C207.431 141.695 210.122 141.535 212.78 141.727C215.919 141.983 219.057 141.823 222.196 141.983C225.911 142.175 229.658 142.271 233.373 142.303C236.64 142.335 239.938 142.495 243.205 142.624C244.326 142.688 245.255 142.399 246.184 141.823C247.336 141.087 248.553 140.479 249.803 139.934C250.635 139.55 251.564 139.326 252.461 139.166C253.678 138.942 254.927 138.846 256.176 138.75C257.777 138.622 259.378 138.558 260.948 138.526C261.588 138.334 262.069 138.43 262.773 138.494ZM257.521 127.385C257.457 127.321 257.393 127.257 257.329 127.161C257.329 127.193 257.297 127.193 257.297 127.225C257.393 127.257 257.489 127.321 257.521 127.385C257.649 127.481 257.745 127.577 257.841 127.673C258.001 127.897 258.097 128.185 258.29 128.345C259.859 129.818 261.236 131.419 262.517 133.115C264.567 135.837 266.584 138.622 268.57 141.407C270.075 143.52 271.484 145.729 272.926 147.874C273.022 148.034 273.214 148.13 273.47 148.354C273.502 147.97 273.534 147.714 273.502 147.49C273.47 146.529 273.438 145.569 273.406 144.64C273.374 143.84 273.118 143.136 272.541 142.56C272.317 142.335 272.093 142.047 271.901 141.759C269.595 138.782 267.161 135.901 264.471 133.243C262.805 131.579 260.948 130.074 259.122 128.537C258.706 128.185 258.225 127.929 257.777 127.641C257.745 127.577 257.649 127.481 257.521 127.385ZM258.193 129.274C258.129 129.21 258.033 129.146 257.969 129.049C257.969 129.081 257.937 129.081 257.937 129.113C258.033 129.178 258.129 129.21 258.193 129.274C258.065 129.69 258.45 129.914 258.642 130.202C259.186 130.938 259.795 131.643 260.339 132.379C261.973 134.78 263.638 137.149 265.207 139.582C266.969 142.335 268.666 145.121 270.331 147.906C271.228 149.379 272.029 150.851 272.894 152.356C273.086 152.708 273.31 153.06 273.918 153.188C273.79 152.068 273.662 151.043 273.534 150.051C273.534 149.923 273.406 149.827 273.31 149.731C272.509 148.578 271.677 147.394 270.876 146.241C269.787 144.672 268.666 143.104 267.577 141.535C265.015 137.789 262.421 134.108 259.507 130.618C259.09 130.138 258.61 129.722 258.193 129.274ZM284.743 80.3557C284.295 80.3877 284.263 80.8359 284.135 81.092C282.79 83.9413 281.509 86.8226 280.228 89.7038C279.267 91.8488 278.306 93.9938 277.377 96.1387C277.185 96.5869 276.961 97.0992 276.961 97.5474C276.929 98.4438 277.057 99.3402 277.121 100.237C277.281 102.029 277.473 103.822 277.634 105.615C277.698 106.447 277.666 107.312 277.698 108.176C277.698 108.336 277.762 108.496 277.794 108.656C278.018 108.208 278.178 107.792 278.242 107.376C278.402 106.287 278.53 105.231 278.594 104.142C278.69 102.382 279.299 100.717 279.683 99.02C279.939 97.9315 280.292 96.843 280.58 95.7546C280.836 94.8261 281.092 93.8657 281.349 92.9373C281.733 91.5927 282.117 90.2481 282.469 88.9035C282.726 88.0071 282.95 87.1107 283.206 86.2143C283.59 84.7736 284.007 83.333 284.391 81.8603C284.583 81.3801 284.647 80.8359 284.743 80.3557C284.807 80.2916 284.871 80.2276 284.936 80.1636C284.904 80.1636 284.904 80.1316 284.871 80.1316C284.839 80.1956 284.807 80.2596 284.743 80.3557ZM203.3 142.816C203.428 143.104 203.492 143.296 203.588 143.424C204.549 144.48 205.542 145.473 206.503 146.529C209.609 149.923 212.716 153.348 215.822 156.742C217.808 158.919 219.73 161.16 221.715 163.337C223.509 165.29 225.334 167.243 227.128 169.195C228.793 171.02 230.427 172.813 232.092 174.638C232.957 175.566 233.821 176.495 234.654 177.423C235.871 178.8 237.088 180.176 238.337 181.553C239.81 183.186 241.315 184.786 242.757 186.419C244.838 188.756 246.888 191.125 248.97 193.494C251.596 196.504 254.254 199.513 256.88 202.554C257.105 202.843 257.329 202.971 257.681 202.907C258.225 202.811 258.77 202.682 259.314 202.618C260.756 202.458 262.229 202.362 263.67 202.234C266.264 201.946 268.826 201.626 271.42 201.37C272.926 201.21 274.431 201.146 275.936 201.018C277.858 200.826 279.811 200.634 281.733 200.441C283.046 200.313 284.391 200.217 285.704 200.089C286.889 199.993 288.074 199.865 289.259 199.769C290.924 199.641 292.59 199.513 294.287 199.385C294.672 199.353 295.088 199.353 295.472 199.321C296.945 199.161 298.419 198.969 299.892 198.809C301.365 198.681 302.87 198.585 304.344 198.489C306.329 198.361 308.315 198.264 310.333 198.136C310.557 198.136 310.781 198.072 311.069 198.04C310.973 197.816 310.973 197.624 310.877 197.528C310.108 196.792 309.308 196.088 308.571 195.319C307.098 193.846 305.4 192.63 304.023 190.997C302.486 189.172 300.725 187.508 299.059 185.811C298.002 184.722 296.881 183.666 295.825 182.577C295.152 181.905 294.479 181.233 293.807 180.561C293.134 179.888 292.494 179.184 291.757 178.576C291.021 177.967 290.38 177.327 289.804 176.591C289.74 176.495 289.643 176.431 289.579 176.367C288.843 175.694 288.074 175.022 287.338 174.35C285.704 172.813 284.103 171.244 282.469 169.708C279.939 167.371 277.377 165.034 274.847 162.697C272.99 160.968 271.196 159.207 269.371 157.446C269.05 157.126 268.73 156.806 268.378 156.55C267.449 155.91 266.488 155.301 265.56 154.661C264.343 153.797 263.222 152.836 261.973 152.068C259.314 150.403 256.464 149.09 253.486 148.098C251.212 147.362 249.034 146.401 246.664 146.081C245.607 145.921 244.486 145.857 243.429 146.177C242.885 146.337 242.308 146.497 241.732 146.561C241.219 146.625 241.027 146.305 241.348 145.889C241.7 145.409 241.956 144.833 242.597 144.544C242.853 144.416 243.013 144.16 243.301 143.872C243.013 143.808 242.885 143.776 242.757 143.776C238.753 143.744 234.782 143.744 230.779 143.52C226.583 143.296 222.356 143.36 218.16 143.296C215.566 143.264 213.004 143.2 210.41 143.136C210.186 143.136 209.93 143.104 209.705 143.104C207.56 142.944 205.542 142.88 203.3 142.816ZM256.912 203.931C256.912 205.916 256.912 207.901 256.944 209.854C256.944 209.982 257.201 210.238 257.329 210.238C258.322 210.238 259.314 210.27 260.275 210.174C261.46 210.046 262.645 209.822 263.83 209.662C265.752 209.438 267.673 209.213 269.595 209.021C271.068 208.893 272.541 208.797 274.047 208.669C275.712 208.541 277.377 208.381 279.043 208.253C280.996 208.061 282.95 207.869 284.904 207.677C286.537 207.517 288.17 207.293 289.804 207.1C290.828 206.972 291.853 206.908 292.878 206.812C294.287 206.684 295.696 206.556 297.074 206.46C298.675 206.332 300.308 206.172 301.91 206.044C302.038 206.044 302.166 206.012 302.294 205.98C304.087 205.82 305.881 205.628 307.706 205.468C308.987 205.34 310.301 205.244 311.582 205.148C311.678 205.148 311.774 205.052 311.966 204.955C311.838 203.131 311.71 201.242 311.582 199.385C311.325 199.385 311.197 199.385 311.069 199.385C309.788 199.513 308.475 199.641 307.194 199.737C307.162 199.737 307.13 199.737 307.13 199.737C305.689 199.897 304.247 200.121 302.774 200.249C301.013 200.409 299.219 200.506 297.458 200.698C295.825 200.858 294.191 201.05 292.558 201.21C291.245 201.338 289.9 201.434 288.587 201.53C287.209 201.626 285.832 201.754 284.455 201.85C283.398 201.946 282.341 202.042 281.285 202.138C279.427 202.266 277.569 202.394 275.712 202.554C275.167 202.586 274.591 202.618 274.047 202.682C272.221 202.843 270.396 203.035 268.57 203.163C266.616 203.323 264.631 203.419 262.677 203.547C260.948 203.643 259.218 203.739 257.521 203.835C257.361 203.835 257.201 203.899 256.912 203.931ZM254.767 209.277C254.831 209.245 254.895 209.213 254.959 209.149C254.959 208.861 254.959 208.573 254.959 208.285C254.959 206.78 254.991 205.308 255.023 203.803C255.023 203.611 255.023 203.355 255.119 203.259C255.599 202.875 255.343 202.586 255.055 202.266C254.863 202.074 254.703 201.85 254.542 201.658C252.14 199.097 249.738 196.568 247.368 194.007C245.287 191.766 243.269 189.493 241.187 187.22C239.49 185.331 237.793 183.474 236.063 181.617C235.006 180.465 233.949 179.344 232.925 178.191C231.451 176.527 230.01 174.862 228.537 173.197C227 171.5 225.462 169.804 223.925 168.107C222.516 166.506 221.107 164.906 219.698 163.337C218.865 162.408 217.968 161.48 217.136 160.552C215.726 158.983 214.317 157.414 212.908 155.845C211.05 153.765 209.161 151.716 207.303 149.635C205.958 148.098 204.613 146.561 203.14 144.897C203.108 145.281 203.076 145.505 203.108 145.729C203.204 147.266 203.332 148.802 203.46 150.339C203.492 150.595 203.716 150.851 203.909 151.043C204.357 151.492 204.869 151.876 205.318 152.324C207.335 154.533 209.321 156.774 211.339 159.015C212.716 160.552 214.125 162.088 215.502 163.689C217.808 166.346 220.114 169.067 222.42 171.725C224.694 174.35 227 176.943 229.274 179.6C231.804 182.545 234.302 185.491 236.8 188.468C238.369 190.293 239.938 192.118 241.508 193.911C244.294 197.112 247.08 200.345 249.835 203.547C251.148 205.052 252.429 206.588 253.742 208.093C254.03 208.509 254.414 208.893 254.767 209.277ZM305.785 207.357C305.913 208.285 306.073 209.117 306.137 209.95C306.265 211.23 306.361 212.543 306.489 213.855C306.682 216.128 306.906 218.402 307.098 220.675C307.226 222.179 307.322 223.684 307.482 225.221C307.642 227.045 307.866 228.87 308.059 230.695C308.187 231.976 308.315 233.224 308.411 234.505C308.539 236.105 308.667 237.738 308.795 239.339C308.827 239.755 308.859 240.203 308.891 240.619C309.019 242.188 309.148 243.789 309.308 245.454C310.941 244.749 312.831 245.582 314.528 244.653C314.528 244.429 314.56 244.173 314.528 243.885C314.432 242.892 314.336 241.868 314.24 240.876C314.208 240.395 314.24 239.915 314.208 239.435C314.048 237.066 313.855 234.729 313.663 232.36C313.567 230.951 313.567 229.575 313.375 228.166C313.119 226.181 313.119 224.132 312.991 222.115C312.895 220.611 312.863 219.074 312.767 217.569C312.638 215.68 312.478 213.823 312.382 211.935C312.318 210.494 312.318 209.053 312.254 207.613C312.254 207.261 312.062 206.94 311.966 206.556C309.852 206.812 307.898 207.068 305.785 207.357ZM261.364 211.518C260.243 211.518 259.122 211.518 258.001 211.518C256.976 211.518 256.656 211.839 256.592 212.863C256.56 213.119 256.592 213.407 256.592 213.663C256.56 216 256.592 218.337 256.528 220.707C256.496 222.82 256.368 224.964 256.336 227.077C256.272 230.055 256.272 233.032 256.208 236.041C256.176 237.802 256.208 239.595 256.016 241.356C255.823 243.149 255.856 244.973 255.823 246.766C255.823 247.374 255.888 247.951 255.92 248.527C256.112 248.591 256.176 248.623 256.272 248.623C257.393 248.719 258.546 248.559 259.667 248.879C259.731 248.911 259.827 248.879 259.891 248.879C260.531 248.847 260.691 248.719 260.724 248.079C260.756 247.407 260.756 246.734 260.788 246.094C260.884 244.589 261.044 243.085 261.044 241.548C261.044 238.154 260.948 234.729 260.916 231.335C260.916 229.19 261.044 227.013 261.044 224.868C261.012 221.859 261.172 218.85 261.364 215.872C261.428 214.464 261.364 213.023 261.364 211.518ZM208.392 157.99C208.328 157.99 208.296 158.022 208.232 158.022C208.2 158.279 208.168 158.567 208.168 158.823C208.296 160.904 208.232 163.017 208.456 165.13C208.649 167.05 208.649 169.003 208.809 170.924C209.033 173.645 209.033 176.399 209.193 179.12C209.353 182.065 209.097 185.011 209.449 187.956C209.641 189.621 209.513 191.317 209.545 192.982C209.545 193.686 209.898 193.911 210.538 193.814C211.147 193.686 211.787 193.622 212.428 193.59C213.164 193.558 213.901 193.494 214.669 193.174C214.669 192.79 214.701 192.438 214.669 192.054C214.605 191.253 214.477 190.485 214.413 189.685C214.221 186.643 213.997 183.602 213.869 180.529C213.773 177.999 213.773 175.47 213.741 172.941C213.741 170.188 213.773 167.403 213.805 164.649C213.805 164.265 213.677 163.945 213.42 163.657C211.947 161.992 210.506 160.327 209.065 158.631C208.809 158.439 208.584 158.215 208.392 157.99ZM250.539 95.7546C250.635 95.8826 250.635 95.9787 250.699 96.0107C250.859 96.1707 251.02 96.2988 251.18 96.4269C253.101 97.9315 254.895 99.5963 256.624 101.325C259.25 103.918 260.98 107.056 262.325 110.417C262.869 111.762 263.286 113.138 263.734 114.547C264.15 115.892 264.535 117.236 264.919 118.581C265.271 119.797 265.592 121.046 265.976 122.23C266.648 124.279 267.353 126.328 268.09 128.345C268.666 129.914 269.243 131.483 269.851 133.019C270.556 134.716 271.26 136.413 272.061 138.078C272.221 138.43 272.221 139.006 272.765 139.102C272.798 139.038 272.83 139.006 272.83 138.942C272.445 137.309 272.029 135.676 271.645 134.012C271.388 133.019 271.164 131.995 270.94 131.002C270.652 129.786 270.364 128.601 270.107 127.385C269.851 126.136 269.627 124.888 269.371 123.639C269.275 123.127 269.275 122.551 269.018 122.102C268.602 121.302 268.538 120.502 268.474 119.669C268.378 118.517 268.218 117.364 268.058 116.212C267.962 115.603 267.833 115.027 267.737 114.419C267.577 113.619 267.385 112.818 267.225 112.018C267.065 111.185 266.937 110.353 266.809 109.521C266.712 108.912 266.584 108.336 266.424 107.728C266.168 106.607 265.88 105.519 265.592 104.43C265.367 103.566 265.207 102.638 264.855 101.837C264.599 101.261 264.343 100.557 263.702 100.269C262.805 99.8524 261.909 99.5322 260.98 99.2121C260.051 98.892 259.122 98.6358 258.193 98.3157C257.201 97.9635 256.208 97.6114 255.215 97.2592C253.838 96.779 252.429 96.2988 251.052 95.8186C250.891 95.7866 250.763 95.7866 250.539 95.7546ZM215.214 165.93C215.15 165.962 215.086 165.994 215.022 166.058C215.022 166.25 214.99 166.41 214.99 166.602C215.054 167.659 215.118 168.715 215.15 169.772C215.214 171.693 215.214 173.613 215.278 175.534C215.342 177.871 215.47 180.208 215.598 182.545C215.63 183.026 215.598 183.506 215.598 184.05C216.143 184.082 216.591 184.146 217.007 184.146C220.402 184.082 223.829 184.05 227.224 183.954C228.281 183.922 229.338 183.794 230.394 183.698C230.459 183.698 230.523 183.602 230.619 183.538C228.889 181.553 227.192 179.6 225.462 177.647C223.765 175.694 222.068 173.709 220.338 171.757C218.641 169.836 216.975 167.851 215.214 165.93ZM295.216 89.0315C295.024 89.1596 294.864 89.2556 294.736 89.3837C292.782 91.6567 290.796 93.8977 288.907 96.2348C287.081 98.5078 285.32 100.845 283.59 103.214C282.534 104.655 281.541 106.159 280.676 107.728C278.947 110.769 277.826 114.067 277.089 117.492C277.057 117.588 277.153 117.684 277.185 117.844C277.377 117.684 277.537 117.62 277.666 117.492C278.082 117.14 278.466 116.692 278.915 116.404C279.651 115.956 280.292 115.219 281.22 115.091C281.829 114.995 282.437 114.899 283.014 114.899C283.43 114.899 283.622 114.771 283.751 114.355C284.295 112.946 284.839 111.57 285.48 110.193C286.281 108.4 287.145 106.671 287.946 104.911C288.875 102.926 289.74 100.909 290.668 98.956C292.013 96.1707 293.455 93.4175 294.8 90.6323C295.088 90.152 295.344 89.6718 295.216 89.0315ZM208.424 192.662C208.456 192.438 208.488 192.278 208.488 192.118C208.52 191.157 208.424 190.229 208.296 189.268C208.04 187.316 208.2 185.331 207.976 183.378C207.752 181.521 207.816 179.6 207.752 177.711C207.688 175.95 207.656 174.19 207.592 172.429C207.528 171.02 207.399 169.612 207.367 168.235C207.303 166.57 207.271 164.874 207.239 163.209C207.207 161.192 207.175 159.175 207.175 157.126C207.175 156.742 207.175 156.422 206.919 156.102C205.958 154.949 204.997 153.797 204.037 152.644C203.941 152.516 203.748 152.452 203.588 152.388C203.652 152.996 203.684 153.476 203.716 153.989C203.748 154.853 203.748 155.685 203.813 156.55C203.973 158.983 204.165 161.448 204.325 163.881C204.453 165.994 204.421 168.139 204.613 170.252C204.837 172.557 204.709 174.926 204.965 177.263C205.158 178.96 205.126 180.657 205.19 182.353C205.254 184.242 205.318 186.131 205.35 188.02C205.35 188.532 205.478 188.948 205.766 189.365C206.503 190.389 207.239 191.413 207.976 192.438C208.072 192.502 208.232 192.534 208.424 192.662ZM244.102 144.416C244.134 144.48 244.166 144.576 244.23 144.64C244.87 144.48 245.511 144.352 246.119 144.192C247.176 143.936 248.201 143.52 249.258 143.424C251.788 143.264 254.35 143.2 256.848 143.936C258.866 144.512 260.756 145.313 262.677 146.177C265.015 147.202 267.161 148.61 269.339 149.955C269.435 150.019 269.595 150.051 269.851 150.115C269.723 149.795 269.659 149.603 269.563 149.443C267.737 146.433 265.88 143.424 264.118 140.383C263.478 139.294 262.005 139.038 261.012 139.038C260.467 139.038 259.891 139.198 259.346 139.198C257.457 139.166 255.567 139.262 253.71 139.614C252.685 139.806 251.628 139.966 250.667 140.447C249.162 141.247 247.625 141.983 246.151 142.848C245.415 143.232 244.774 143.872 244.102 144.416ZM270.556 137.373C270.556 137.213 270.588 137.117 270.556 137.053C269.723 135.164 268.858 133.275 268.058 131.354C267.353 129.658 266.712 127.897 266.104 126.168C265.495 124.471 264.855 122.807 264.31 121.11C263.638 118.933 263.061 116.756 262.389 114.579C261.78 112.69 261.14 110.833 260.403 108.976C259.474 106.671 258.29 104.494 256.624 102.606C255.023 100.781 253.325 99.084 251.468 97.5153C251.212 97.2912 250.891 97.0992 250.603 96.8751C250.571 97.0671 250.635 97.1312 250.699 97.2272C251.34 97.9315 252.044 98.5718 252.589 99.3402C254.126 101.421 255.439 103.662 256.464 105.999C257.137 107.472 257.649 109.041 258.193 110.577C258.578 111.73 258.898 112.914 259.25 114.067C259.635 115.379 260.019 116.692 260.403 118.005C260.756 119.253 261.076 120.502 261.46 121.75C261.812 122.839 262.229 123.895 262.581 124.952C263.286 127.097 264.182 129.113 265.399 131.034C265.784 131.643 266.232 132.187 266.456 132.859C266.552 133.179 266.809 133.499 267.033 133.756C268.026 134.876 269.05 135.965 270.043 137.085C270.203 137.245 270.363 137.277 270.556 137.373ZM245.159 145.185C245.159 145.217 245.191 145.281 245.191 145.313C246.44 145.505 247.721 145.601 248.938 145.921C250.987 146.465 253.005 147.106 254.991 147.746C256.208 148.162 257.425 148.642 258.578 149.154C259.827 149.699 261.108 150.243 262.261 150.947C263.798 151.876 265.303 152.964 266.745 154.021C268.314 155.173 269.915 156.294 271.741 156.998C272.381 157.254 273.054 157.542 273.886 157.51C273.822 157.254 273.79 157.03 273.694 156.87C273.086 155.717 272.477 154.597 271.837 153.476C271.645 153.156 271.388 152.868 271.1 152.644C270.556 152.196 269.947 151.78 269.371 151.428C266.424 149.635 263.542 147.714 260.339 146.369C258.77 145.697 257.201 144.961 255.535 144.576C254.895 144.448 254.222 144.352 253.582 144.192C252.365 143.904 251.148 143.904 249.931 144.096C248.457 144.352 246.984 144.704 245.479 144.993C245.415 145.025 245.287 145.121 245.159 145.185ZM273.598 128.153C273.694 128.185 273.79 128.185 273.886 128.217C273.982 127.897 274.143 127.577 274.143 127.289C274.111 125.848 274.559 124.503 274.751 123.127C274.783 122.935 274.815 122.743 274.879 122.583C275.456 121.27 275.52 119.861 275.776 118.485C275.936 117.652 276.032 116.82 276.192 115.988C276.32 115.347 276.577 114.739 276.705 114.067C276.865 113.234 277.153 112.434 277.025 111.57C276.801 109.713 276.641 107.824 276.449 105.935C276.288 104.398 276.192 102.862 276.032 101.325C276.032 101.197 276 101.069 276 100.941C275.84 99.8524 275.648 98.7319 275.552 97.6434C275.392 95.6905 275.296 93.7376 275.167 91.7528C275.135 91.2405 275.167 90.7283 275.135 90.2481C275.103 89.6398 275.071 89.0636 275.039 88.3592C274.879 88.4873 274.815 88.5513 274.783 88.5833C274.687 89.1916 274.559 89.8319 274.495 90.4402C274.335 92.361 274.239 94.2499 274.079 96.1707C273.918 98.0916 273.694 100.012 273.566 101.933C273.406 104.334 273.374 106.767 273.278 109.169C273.086 113.362 273.214 117.588 273.214 121.782C273.214 122.999 273.374 124.215 273.438 125.432C273.534 126.36 273.566 127.257 273.598 128.153ZM302.87 207.805C302.998 208.957 303.159 210.078 303.223 211.198C303.383 213.247 303.479 215.328 303.607 217.409C303.639 218.049 303.703 218.69 303.735 219.33C303.863 220.899 304.055 222.435 304.151 224.004C304.312 226.853 304.408 229.735 304.536 232.616C304.632 234.409 304.536 236.169 304.824 237.962C304.984 238.987 304.92 240.043 304.888 241.068C304.888 241.548 305.016 241.932 305.4 242.252C306.105 242.86 306.778 243.469 307.482 244.077C307.578 244.141 307.802 244.173 307.899 244.109C307.995 244.045 307.995 243.821 307.995 243.693C307.963 243.341 307.866 242.989 307.834 242.604C307.77 241.996 307.77 241.388 307.706 240.78C307.546 239.147 307.354 237.514 307.194 235.881C307.066 234.665 306.97 233.448 306.874 232.232C306.746 230.663 306.649 229.094 306.521 227.526C306.489 226.885 306.457 226.245 306.393 225.605C306.233 223.972 306.073 222.339 305.881 220.707C305.785 219.586 305.657 218.498 305.561 217.377C305.432 215.936 305.304 214.464 305.208 212.991C305.08 211.198 304.984 209.373 304.856 207.581C304.856 207.549 304.792 207.485 304.728 207.421C304.183 207.325 303.575 207.389 302.87 207.805ZM253.518 209.694C253.454 209.79 253.421 209.822 253.421 209.886C253.293 212.287 253.165 214.72 253.069 217.121C252.973 219.33 253.069 221.539 252.845 223.748C252.589 226.117 252.749 228.518 252.493 230.919C252.237 233.288 252.429 235.689 252.14 238.09C251.98 239.307 252.076 240.523 252.044 241.772C252.044 242.028 252.076 242.316 252.204 242.54C252.845 243.725 253.486 244.877 254.158 246.03C254.222 246.03 254.286 245.998 254.35 245.998C254.382 245.774 254.414 245.55 254.414 245.358C254.414 244.077 254.286 242.796 254.446 241.548C254.606 240.331 254.574 239.115 254.606 237.898C254.606 237.354 254.606 236.778 254.638 236.234C254.735 233.128 254.863 230.023 254.959 226.885C255.055 224.196 254.927 221.507 255.183 218.818C255.375 216.929 255.311 214.976 255.343 213.055C255.375 211.582 254.51 210.622 253.518 209.694ZM306.585 100.557C306.297 100.589 306.233 100.589 306.201 100.621C304.151 101.517 302.262 102.702 300.468 104.046C297.746 106.063 295.152 108.176 292.974 110.801C292.109 111.826 291.213 112.85 290.732 114.131C290.444 114.899 290.444 115.764 290.156 116.5C289.675 117.652 290.22 118.197 291.181 118.613C291.213 118.613 291.213 118.645 291.245 118.677C291.757 118.965 292.174 118.837 292.526 118.357C294.543 115.667 296.497 112.914 298.611 110.289C300.308 108.144 302.166 106.127 303.927 104.046C304.632 103.214 305.368 102.35 306.041 101.517C306.201 101.229 306.361 100.941 306.585 100.557ZM273.47 134.78C273.598 133.884 273.47 133.115 273.31 132.315C272.99 130.906 272.798 129.434 272.637 127.993C272.477 126.616 272.381 125.24 272.285 123.863C272.253 123.319 272.253 122.807 272.253 122.262C272.157 120.342 272.029 118.453 271.997 116.532C271.965 114.291 272.093 112.05 272.125 109.809C272.125 109.393 272.061 108.944 272.125 108.528C272.445 106.447 272.189 104.334 272.477 102.253C272.765 100.141 272.765 98.0276 272.894 95.8826C272.926 95.2103 272.99 94.538 273.054 93.8977C273.214 92.0409 273.406 90.1841 273.598 88.3592C273.63 88.1031 273.694 87.847 273.726 87.5909C273.822 86.9186 273.918 86.2463 273.694 85.606C273.502 86.1823 273.342 86.7585 273.246 87.3348C273.022 88.7434 272.798 90.152 272.605 91.5927C272.349 93.2254 272.125 94.8581 271.869 96.4589C271.773 97.0992 271.645 97.7715 271.516 98.4117C271.356 99.3081 271.132 100.173 270.972 101.069C270.812 101.965 270.684 102.862 270.556 103.726C270.267 105.423 269.947 107.12 269.755 108.816C269.563 110.353 269.531 111.954 269.339 113.491C269.179 114.931 269.595 116.276 269.755 117.684C269.883 118.549 270.107 119.381 270.267 120.246C270.428 121.078 270.524 121.91 270.652 122.775C270.812 123.543 271.004 124.311 271.164 125.112C271.292 125.752 271.42 126.424 271.548 127.065C271.677 127.833 271.805 128.633 271.965 129.402C272.253 130.906 272.573 132.411 272.862 133.916C272.99 134.204 272.99 134.556 273.47 134.78ZM280.324 223.748C280.292 222.948 280.26 222.211 280.196 221.507C280.035 219.65 279.811 217.825 279.683 215.968C279.587 214.56 279.555 213.151 279.491 211.743C279.459 211.134 279.331 210.558 279.267 209.822C277.569 209.982 275.936 210.142 274.271 210.302C274.271 210.75 274.239 211.038 274.271 211.358C274.431 212.735 274.655 214.08 274.783 215.456C274.943 217.281 275.039 219.106 275.135 220.931C275.167 221.539 275.135 222.147 275.167 222.755C275.2 223.524 275.328 223.652 276.064 223.652C276.833 223.684 277.601 223.684 278.37 223.716C278.979 223.748 279.619 223.748 280.324 223.748ZM285.704 81.7003C285.64 81.7003 285.544 81.7003 285.48 81.7003C285.448 81.8283 285.384 81.9244 285.352 82.0524C285.096 83.1089 284.904 84.1654 284.615 85.2218C284.359 86.1503 284.039 87.0787 283.783 88.0391C283.43 89.2877 283.078 90.5362 282.726 91.7848C282.341 93.1614 281.925 94.506 281.541 95.8826C281.285 96.811 281.028 97.7715 280.74 98.6999C280.388 99.9484 279.939 101.165 279.651 102.414C279.267 104.206 279.011 105.999 278.69 107.824C278.658 107.952 278.722 108.112 278.754 108.24C278.818 108.24 278.851 108.272 278.915 108.272C279.299 107.6 279.651 106.896 280.1 106.255C281.765 103.822 283.462 101.421 285.16 98.988C285.288 98.7959 285.416 98.5718 285.448 98.3797C285.512 97.5153 285.512 96.6189 285.544 95.7546C285.608 93.0013 285.64 90.2161 285.704 87.4628C285.736 86.2783 285.736 85.0618 285.768 83.8772C285.736 83.1409 285.736 82.4366 285.704 81.7003ZM298.098 122.487C298.259 122.102 298.419 121.878 298.483 121.59C298.771 120.662 299.027 119.701 299.379 118.805C300.148 116.692 300.917 114.579 301.717 112.498C302.55 110.321 303.383 108.144 304.215 105.999C304.344 105.647 304.44 105.295 304.568 104.943C304.504 104.911 304.44 104.879 304.408 104.847C304.119 105.199 303.799 105.551 303.511 105.903C302.39 107.216 301.237 108.464 300.18 109.809C298.675 111.698 297.234 113.651 295.76 115.571C294.896 116.724 294.063 117.876 293.23 119.029C292.974 119.381 293.038 119.605 293.423 119.733C294.704 120.117 295.825 120.79 296.881 121.59C297.234 121.814 297.618 122.102 298.098 122.487ZM299.123 222.083C299.347 222.083 299.54 222.083 299.764 222.083C300.468 222.051 301.205 222.019 301.91 222.019C302.518 222.019 302.71 221.859 302.614 221.219C302.518 220.578 302.454 219.97 302.422 219.33C302.358 217.697 302.358 216.032 302.294 214.368C302.23 212.735 302.134 211.134 302.07 209.534C302.038 208.925 302.07 208.317 302.07 207.645C300.693 207.773 299.476 207.869 298.227 208.029C298.13 208.029 297.97 208.317 298.002 208.445C298.13 209.662 298.323 210.846 298.451 212.063C298.611 213.663 298.707 215.296 298.803 216.897C298.899 218.466 298.963 220.066 299.027 221.667C299.027 221.795 299.091 221.923 299.123 222.083ZM288.619 117.172C290.028 109.649 292.686 102.478 294.223 95.0182C294.031 95.1143 293.903 95.2423 293.839 95.4024C293.262 96.6189 292.686 97.8355 292.109 99.052C290.989 101.549 289.9 104.078 288.779 106.575C287.53 109.329 286.185 112.05 284.904 114.803C284.615 115.411 284.679 115.603 285.352 115.892C286.377 116.276 287.434 116.692 288.619 117.172ZM256.688 77.9866C256.656 78.0506 256.592 78.1146 256.56 78.1467C256.912 78.5629 257.265 78.947 257.617 79.3632C258.546 80.4197 259.571 81.3801 260.371 82.5006C262.421 85.3499 263.958 88.4553 265.239 91.7207C265.752 92.9693 266.136 94.2499 266.552 95.5304C267.001 96.9071 267.417 98.2837 267.833 99.6923C268.09 100.589 268.25 101.485 268.474 102.382C268.602 102.926 268.762 103.47 268.922 104.046C269.403 103.886 269.339 103.502 269.403 103.182C269.595 102.157 269.787 101.165 269.979 100.141C270.107 99.3722 270.203 98.6038 269.979 97.8355C269.819 97.2912 269.595 96.747 269.467 96.1707C269.05 94.2819 268.314 92.4891 267.289 90.8564C265.72 88.3913 264.118 85.9582 262.485 83.4931C261.428 81.8923 260.275 80.3877 258.802 79.1711C258.161 78.6269 257.457 78.2107 256.688 77.9866ZM258.994 82.2765C258.962 82.3085 258.93 82.3405 258.898 82.3726C259.346 83.365 259.795 84.3574 260.211 85.3499C261.012 87.3668 261.909 89.3837 262.581 91.4646C263.254 93.4815 263.67 95.5625 264.278 97.5794C264.599 98.6679 264.823 99.7884 265.527 100.717C265.848 101.133 266.04 101.709 266.2 102.221C266.456 102.99 266.712 103.79 266.937 104.559C267.257 105.679 267.513 106.8 267.833 107.92C267.962 108.432 268.122 108.912 268.282 109.553C268.89 107.984 268.73 106.639 268.282 105.295C267.865 104.078 267.545 102.83 267.225 101.581C266.937 100.525 266.68 99.5002 266.36 98.4438C266.04 97.3873 265.656 96.3308 265.303 95.3064C264.919 94.2179 264.631 93.0974 264.182 92.0089C263.51 90.4082 262.837 88.8074 262.069 87.2708C261.364 85.8301 260.531 84.4535 259.763 83.0449C259.507 82.7567 259.218 82.5326 258.994 82.2765ZM296.625 208.221C296.145 208.253 295.76 208.285 295.312 208.317C295.312 208.637 295.28 208.925 295.312 209.181C295.376 209.694 295.504 210.174 295.568 210.654C295.696 212.223 295.825 213.823 295.889 215.424C295.953 216.321 295.985 217.249 295.921 218.145C295.825 219.362 296.721 219.97 297.458 220.899C297.49 220.514 297.554 220.354 297.522 220.194C297.458 219.714 297.33 219.266 297.298 218.786C297.17 217.249 297.042 215.712 296.945 214.176C296.817 212.223 296.721 210.302 296.625 208.221ZM271.709 210.558C271.805 211.294 271.901 211.967 271.997 212.607C272.189 214.112 272.413 215.648 272.573 217.153C272.701 218.369 272.798 219.586 272.926 220.803C272.99 221.411 273.438 221.699 273.95 222.115C273.95 221.859 273.95 221.731 273.95 221.603C273.854 220.386 273.726 219.17 273.63 217.953C273.502 216.257 273.374 214.56 273.278 212.863C273.246 212.095 273.278 211.326 273.278 210.43C272.637 210.494 272.157 210.526 271.709 210.558ZM291.853 110.353C292.558 109.585 293.198 108.912 293.839 108.176C293.999 108.016 294.127 107.792 294.159 107.568C294.255 106.96 294.287 106.351 294.351 105.743C294.479 104.398 294.255 103.054 294.608 101.709C294.672 101.421 294.608 101.101 294.608 100.813C294.351 100.909 294.191 101.005 294.159 101.133C293.358 104.078 292.558 107.024 291.789 109.969C291.725 110.097 291.821 110.225 291.853 110.353ZM244.23 145.505C244.23 145.441 244.198 145.377 244.198 145.281C243.878 145.345 243.525 145.185 243.141 145.505C243.589 145.505 243.91 145.505 244.23 145.505ZM273.726 158.695C273.726 158.599 273.726 158.535 273.726 158.439C273.534 158.439 273.342 158.407 273.182 158.439C273.182 158.439 273.182 158.567 273.15 158.631C273.342 158.663 273.534 158.663 273.726 158.695ZM273.758 84.9977L273.79 84.9337H273.726L273.758 84.9977Z" fill="black"/>
<path d="M369.614 196.056C368.909 196.248 368.397 196.216 367.884 195.863C366.059 194.679 364.233 193.462 362.344 192.342C360.518 191.253 358.596 190.293 356.771 189.204C354.657 187.956 352.639 186.579 350.558 185.299C348.252 183.858 345.914 182.481 343.576 181.073C339.925 178.864 336.466 176.367 333.007 173.838C329.901 171.565 326.666 169.452 323.495 167.307C322.439 166.602 321.382 165.93 320.325 165.226C319.908 164.97 319.716 164.617 319.716 164.105C319.716 162.28 319.716 160.424 319.716 158.599C319.716 158.055 319.684 157.542 319.716 156.998C319.78 154.661 319.876 152.324 319.94 149.987C319.973 149.507 319.972 149.026 319.972 148.546C320.069 145.953 320.165 143.392 320.229 140.799C320.293 138.59 320.261 136.381 320.293 134.172C320.325 133.371 320.421 132.603 320.485 131.803C320.485 131.675 320.485 131.547 320.517 131.419C320.549 128.409 320.581 125.4 320.645 122.391C320.677 120.726 320.805 119.061 320.869 117.364C320.933 115.411 320.965 113.491 321.029 111.538C321.093 108.656 321.19 105.807 321.254 102.926C321.286 101.709 321.254 100.493 321.254 99.2762C321.254 98.892 321.382 98.5078 321.446 98.1237C321.478 97.9316 321.51 97.7715 321.51 97.5794C321.542 96.2348 321.51 94.8582 321.574 93.5136C321.638 91.8489 321.734 90.1841 321.798 88.4873C321.862 86.4384 321.862 84.3895 321.926 82.3406C321.958 80.8359 322.118 79.3312 322.15 77.8266C322.214 76.0018 322.214 74.1449 322.246 72.3201C322.278 70.8474 322.407 69.4068 322.471 67.9341C322.599 64.3805 322.695 60.859 322.855 57.3054C322.919 55.9928 323.047 54.6482 323.175 53.3356C323.207 52.8234 323.431 52.7273 323.912 52.9834C324.008 53.0475 324.104 53.1435 324.2 53.1115C325.577 53.0475 326.666 53.8158 327.851 54.296C330.285 55.2885 332.687 56.3129 335.089 57.3374C336.53 57.9457 337.971 58.586 339.413 59.2262C341.494 60.1547 343.608 61.0831 345.69 62.0115C347.996 63.0039 350.302 63.9964 352.575 64.9888C355.586 66.3014 358.596 67.678 361.607 68.9906C365.258 70.6233 368.877 72.2241 372.528 73.8248C374.994 74.9133 377.428 76.0018 379.894 77.0902C380.086 77.1863 380.278 77.3464 380.47 77.4744C380.15 77.9866 379.99 78.0507 379.446 77.8266C377.972 77.2183 376.499 76.642 375.058 76.0018C372.88 75.0733 370.702 74.1129 368.525 73.1525C366.219 72.128 363.881 71.1036 361.575 70.0791C359.333 69.0867 357.091 68.0942 354.849 67.1018C352.063 65.8852 349.309 64.6687 346.522 63.4201C343.736 62.2036 340.982 60.955 338.196 59.7065C335.922 58.682 333.648 57.6255 331.374 56.6011C329.612 55.8007 327.851 55.0324 326.122 54.232C325.481 53.9439 324.873 53.5917 324.136 53.2075C324.104 53.4957 324.04 53.7198 324.04 53.9439C324.04 54.6162 324.04 55.2885 324.04 55.9288C323.976 59.4183 323.88 62.9079 323.784 66.3975C323.784 66.8777 323.752 67.3579 323.752 67.8381C323.72 70.2712 323.656 72.6723 323.624 75.1054C323.559 78.1467 323.495 81.1881 323.431 84.1974C323.431 84.5816 323.367 84.9338 323.303 85.3179C323.271 85.542 323.207 85.7341 323.207 85.9582C323.175 89.5118 323.111 93.0974 323.079 96.651C323.079 96.7791 323.111 96.9071 323.143 97.0672C323.656 97.1953 324.008 96.8431 324.392 96.683C326.666 95.6906 328.908 94.6341 331.15 93.6096C332.623 92.9373 334.096 92.2971 335.537 91.6568C337.715 90.6963 339.893 89.7679 342.039 88.8075C343.8 88.0391 345.53 87.2068 347.323 86.4704C348.156 86.1183 349.021 85.8942 349.981 85.6061C350.43 84.6136 350.238 83.4291 350.334 82.2766C350.43 81.1561 350.526 80.0676 350.59 78.9471C350.654 78.1467 350.622 77.3464 350.686 76.546C350.718 76.1618 350.75 75.7456 350.814 75.3615C350.942 74.5931 351.102 74.5291 351.903 74.8813C351.903 75.1374 351.903 75.4255 351.903 75.7136C351.807 77.8266 351.711 79.9715 351.583 82.0845C351.487 83.6852 351.39 85.3179 351.294 86.9186C351.262 87.783 351.262 88.6154 351.23 89.4798C351.102 92.233 350.942 95.0183 350.814 97.7715C350.718 99.5643 350.686 101.325 350.59 103.118C350.494 104.847 350.398 106.575 350.302 108.304C350.173 111.153 350.077 114.003 349.917 116.82C349.821 118.837 349.629 120.854 349.533 122.871C349.437 124.728 349.405 126.584 349.309 128.441C349.277 129.178 349.181 129.914 349.149 130.65C349.085 132.123 349.117 133.596 348.956 135.036C348.7 137.021 348.86 139.038 348.604 140.991C348.348 143.04 348.412 145.089 348.252 147.106C348.124 148.45 348.188 149.827 347.996 151.171C347.739 153.188 347.9 155.237 347.643 157.222C347.387 159.143 347.483 161.032 347.323 162.953C347.131 165.162 347.003 167.339 346.843 169.548C346.811 170.092 346.811 170.668 346.779 171.212C346.651 173.325 346.554 175.438 346.426 177.551C346.362 178.544 346.234 179.536 346.138 180.561C346.074 181.105 346.266 181.457 346.779 181.745C349.693 183.538 352.575 185.395 355.49 187.188C357.732 188.564 360.07 189.813 362.311 191.157C364.585 192.534 366.827 194.007 369.069 195.447C369.293 195.703 369.389 195.863 369.614 196.056ZM344.857 180.817C344.985 180.497 345.113 180.304 345.113 180.112C345.145 179.408 345.145 178.672 345.177 177.967C345.305 175.726 345.209 173.453 345.466 171.18C345.722 168.811 345.722 166.41 345.818 164.009C345.946 161.256 346.042 158.535 346.17 155.782C346.234 154.373 346.362 152.964 346.426 151.556C346.554 149.155 346.619 146.785 346.779 144.384C346.907 142.464 346.715 140.511 347.099 138.59C347.227 137.982 347.131 137.373 347.131 136.765C347.227 134.748 347.355 132.731 347.451 130.714C347.483 129.946 347.515 129.178 347.579 128.409C347.579 128.185 347.579 127.961 347.611 127.769C347.387 127.801 347.131 127.769 346.939 127.833C343.896 129.082 340.854 130.362 337.811 131.579C335.633 132.443 333.424 133.211 331.214 134.044C329.548 134.652 327.915 135.324 326.25 135.901C325.321 136.221 324.392 136.509 323.367 136.349C322.919 136.285 322.439 136.349 321.926 136.349C321.798 138.334 321.67 140.191 321.574 142.079C321.478 144.288 321.478 146.497 321.414 148.706C321.382 150.115 321.286 151.524 321.222 152.932C321.19 154.501 321.19 156.07 321.125 157.638C321.061 159.751 320.933 161.896 320.805 164.009C320.773 164.553 321.029 164.81 321.446 165.098C324.456 167.051 327.499 168.939 330.477 170.956C333.392 172.941 336.21 175.086 339.124 177.103C341.014 178.352 342.903 179.536 344.857 180.817ZM322.535 113.266C322.791 113.202 322.983 113.234 323.111 113.138C324.776 112.274 326.442 111.346 328.139 110.481C329.837 109.649 331.566 108.816 333.328 108.112C335.441 107.248 337.587 106.415 339.637 105.391C342.455 103.982 345.337 102.702 348.22 101.389C349.181 100.941 349.373 100.717 349.373 99.6924C349.405 98.6679 349.437 97.6114 349.501 96.587C349.533 95.9467 349.597 95.3064 349.661 94.5381C349.341 94.6341 349.117 94.6661 348.892 94.7622C347.035 95.6586 345.177 96.5229 343.352 97.4834C340.982 98.7319 338.644 100.045 336.274 101.293C334.288 102.35 332.239 103.374 330.253 104.463C328.684 105.295 326.986 105.935 325.545 107.056C325.033 107.472 324.488 107.856 323.912 108.144C323.239 108.464 322.759 108.88 322.663 109.681C322.471 110.865 322.599 112.018 322.535 113.266Z" fill="black"/>
<path d="M177.903 4.03357C178.255 3.48932 178.576 2.97709 178.896 2.40084C179.216 1.82458 179.504 1.24832 179.761 0.640047C179.953 0.223861 180.145 -0.0322538 180.689 -0.000239451C188.408 0.0317749 196.094 0.0317749 203.813 0.0958036C209.417 0.127818 215.022 0.28789 220.594 0.351918C222.964 0.383933 225.366 0.255875 227.704 0.447961C230.715 0.672062 233.725 0.576019 236.736 0.672062C237.248 0.704076 237.761 0.704076 238.241 0.704076C242.533 0.73609 246.824 0.576019 251.116 0.800119C254.831 0.992205 258.514 0.864148 262.229 1.02422C262.357 1.02422 262.485 1.02422 262.613 1.02422C266.873 1.05623 271.164 0.992205 275.424 1.15228C280.9 1.34436 286.345 1.28033 291.821 1.34436C294.576 1.37638 297.298 1.50443 300.052 1.60048C300.757 1.63249 301.493 1.53645 302.198 1.60048C302.806 1.66451 303.383 1.79256 303.959 2.01666C305.497 2.59292 307.002 3.20119 308.539 3.80947C310.268 4.48177 312.03 5.12206 313.791 5.79436C316.161 6.72277 318.499 7.65119 320.869 8.54759C323.239 9.47601 325.609 10.3404 327.979 11.2688C330.221 12.1652 332.463 13.0936 334.737 13.958C336.466 14.6623 338.228 15.3026 339.989 15.9749C341.206 16.4551 342.423 16.9033 343.608 17.3515C345.145 17.9598 346.65 18.5681 348.156 19.1764C349.629 19.7526 351.102 20.2969 352.575 20.8731C354.145 21.4814 355.714 22.0897 357.283 22.6979C359.045 23.4022 360.838 24.0745 362.6 24.7789C364.681 25.5792 366.795 26.3796 368.877 27.2119C370.638 27.9163 372.4 28.6206 374.161 29.2929C376.179 30.0932 378.197 30.8616 380.214 31.6619C381.719 32.2382 383.225 32.8465 384.73 33.4227C386.588 34.127 388.413 34.8314 390.271 35.5357C390.559 35.6637 390.879 35.7598 391.135 35.9198C391.616 36.208 392.032 36.5601 391.936 37.2645C391.84 37.9047 391.744 38.513 391.712 39.1533C391.68 39.7616 391.68 40.3698 391.68 40.9781C391.68 41.5544 391.488 41.9706 391.135 42.0346C390.719 42.0986 390.335 41.9706 390.11 41.5864C389.694 40.9141 388.957 40.9141 388.317 40.658C386.203 39.7936 384.057 38.9932 381.912 38.1609C380.182 37.4886 378.453 36.8483 376.723 36.176C374.93 35.4716 373.136 34.7673 371.343 34.063C369.806 33.4547 368.236 32.9105 366.699 32.3022C365.034 31.6619 363.368 30.9896 361.671 30.3494C359.813 29.613 357.988 28.9087 356.162 28.1724C354.401 27.4681 352.639 26.7637 350.878 26.0594C349.085 25.3551 347.291 24.6828 345.498 23.9785C343.544 23.2102 341.622 22.4098 339.701 21.6415C337.939 20.9371 336.178 20.2648 334.416 19.5605C331.918 18.5681 329.42 17.5436 326.922 16.5512C325.161 15.8469 323.399 15.1425 321.638 14.4382C320.453 13.958 319.3 13.5098 318.115 13.0296C316.065 12.1972 313.984 11.3969 311.934 10.5645C310.044 9.79615 308.123 8.99579 306.233 8.22745C304.504 7.52313 302.742 6.85083 300.981 6.21054C300.5 6.01846 299.924 5.98644 299.412 5.98644C296.913 5.95443 294.383 5.98644 291.885 5.95443C284.455 5.8904 276.993 5.98644 269.563 5.73033C259.699 5.41018 249.835 5.6663 239.97 5.37817C233.629 5.18608 227.288 5.25011 220.947 5.12206C219.922 5.09004 218.865 5.12205 217.84 5.09004C213.965 5.02601 210.058 4.92997 206.182 4.86594C203.332 4.83393 200.482 4.86594 197.631 4.80191C195.005 4.7699 192.347 4.64184 189.721 4.5458C189.24 4.5458 188.76 4.51378 188.28 4.51378C185.686 4.48177 183.091 4.48177 180.529 4.44975C180.305 4.44975 180.049 4.35371 179.825 4.3217C179.633 4.28968 179.408 4.22565 179.28 4.28968C178.736 4.60983 178.352 4.35371 177.903 4.03357Z" fill="black"/>
<path d="M359.077 75.1377C359.397 75.1697 359.653 75.2017 360.006 75.2017C359.909 75.9701 359.845 76.6744 359.781 77.3787C359.749 77.8269 359.717 78.2751 359.685 78.7233C359.557 80.4201 359.461 82.1168 359.333 83.8136C359.205 85.7344 359.077 87.6233 358.949 89.5442C358.853 91.1769 358.725 92.8416 358.596 94.4744C358.532 95.1787 358.436 95.883 358.372 96.5873C358.34 96.7794 358.404 97.0035 358.404 97.2916C358.885 97.1316 359.269 97.0035 359.653 96.8754C361.543 96.1711 363.4 95.4348 365.29 94.7625C367.34 93.9941 369.421 93.3218 371.439 92.4895C372.688 92.0093 373.841 91.3049 375.058 90.7607C376.98 89.9283 378.901 89.16 380.823 88.3276C381.239 88.1675 381.623 87.9434 382.04 87.7834C382.2 87.7193 382.392 87.6873 382.68 87.5913C382.648 87.9434 382.68 88.2316 382.616 88.5197C382.328 89.6722 382.008 90.8247 381.784 91.9772C381.495 93.2578 381.303 94.5704 381.047 95.883C380.759 97.3236 380.47 98.7963 380.214 100.237C380.054 101.037 379.958 101.87 379.862 102.67C379.606 104.687 379.382 106.736 379.125 108.753C378.965 110.097 378.773 111.442 378.581 112.755C378.549 112.979 378.357 113.267 378.165 113.363C375.987 114.643 373.745 115.86 371.343 116.66C369.966 117.109 368.749 117.813 367.468 118.421C364.457 119.83 361.511 121.302 358.5 122.743C357.828 123.063 357.123 123.287 356.515 123.543C356.13 124.664 356.162 125.752 356.098 126.841C355.97 128.89 355.778 130.907 355.586 132.956C355.522 133.532 355.49 134.108 355.458 134.716C355.33 136.541 355.234 138.366 355.074 140.191C354.849 142.848 354.593 145.537 354.337 148.194C354.305 148.579 354.209 148.995 354.177 149.379C354.113 150.051 354.113 150.083 353.184 149.987C353.184 149.219 353.152 148.419 353.184 147.65C353.28 145.505 353.408 143.36 353.568 141.183C353.728 139.006 353.953 136.829 354.113 134.652C354.177 133.852 354.177 133.052 354.241 132.251C354.401 130.394 354.561 128.57 354.721 126.713C354.753 126.265 354.753 125.816 354.785 125.368C354.913 123.415 354.977 121.494 355.138 119.542C355.266 117.909 355.49 116.276 355.65 114.643C355.682 114.227 355.682 113.779 355.714 113.363C355.842 111.506 355.938 109.649 356.098 107.792C356.194 106.352 356.323 104.943 356.451 103.502C356.643 101.421 356.867 99.3405 357.027 97.2276C357.155 95.4988 357.155 93.7701 357.411 92.0733C357.636 90.6006 357.604 89.096 357.732 87.6233C357.828 86.1827 357.924 84.774 358.084 83.3334C358.372 80.9643 358.596 78.5952 358.692 76.1942C358.789 75.9381 358.949 75.5859 359.077 75.1377Z" fill="black"/>
<path d="M238.978 48.5655C238.914 47.477 238.849 46.3565 238.785 45.236C238.753 44.8839 238.689 44.5637 238.689 44.2116C238.657 42.4828 238.753 40.722 238.593 39.0252C238.305 35.6637 238.561 32.3022 238.401 28.9727C238.337 27.7242 238.529 26.4756 238.625 25.2271C238.753 23.4983 238.849 21.7695 238.978 20.0407C239.01 19.5605 238.978 19.1123 238.978 18.6321C234.398 17.6717 230.523 15.6868 227.576 12.1012C228.121 11.3328 228.857 11.3328 229.53 11.2688C230.491 11.1728 231.451 11.2048 232.412 11.2048C234.046 11.2048 235.679 11.2368 237.28 11.2048C239.074 11.1728 240.835 11.0447 242.629 10.9807C244.134 10.9167 245.607 10.9167 247.08 11.1408C248.137 11.3008 249.29 11.4609 250.411 11.0447C250.763 10.9167 251.276 11.2048 251.692 11.3328C251.756 11.3649 251.82 11.717 251.756 11.749C251.148 12.2292 251.148 12.9976 250.827 13.6379C249.738 15.6868 248.105 17.0954 245.991 17.9598C244.454 18.6001 242.885 18.7922 241.251 18.8242C241.059 18.8242 240.835 18.8882 240.611 18.9202C240.579 19.1443 240.579 19.3364 240.579 19.4965C240.547 22.1857 240.547 24.8749 240.515 27.5641C240.483 29.8371 240.195 32.1101 240.355 34.3512C240.611 37.9368 240.419 41.5544 240.707 45.14C240.771 46.1324 240.707 47.1249 240.739 48.0853C240.739 48.8216 240.771 48.7896 241.508 49.0137C242.148 49.2058 242.821 49.4299 243.429 49.75C246.312 51.2547 249.002 53.0475 251.564 55.0644C253.486 56.6011 255.215 58.3299 256.912 60.0907C258.482 61.7234 259.955 63.4522 261.172 65.4051C261.844 66.5256 262.357 67.7421 262.901 68.9587C262.965 69.0867 262.805 69.3748 262.677 69.4389C262.005 69.791 261.3 70.1432 260.595 70.3993C259.443 70.8155 258.258 71.2317 257.073 71.5518C255.92 71.872 254.767 72.0961 253.582 72.3202C252.685 72.5122 251.756 72.7043 250.859 72.8324C250.187 72.9284 249.482 72.9925 248.81 73.0565C247.753 73.1525 246.696 73.2166 245.639 73.2806C244.614 73.3446 243.557 73.4086 242.533 73.4407C240.995 73.4727 239.426 73.5047 237.889 73.4407C235.807 73.3126 233.757 73.1525 231.676 72.8644C230.01 72.6403 228.313 72.3522 226.679 71.904C224.822 71.4238 222.996 70.7515 221.203 70.1112C219.409 69.4709 217.712 68.6385 216.175 67.518C215.951 67.3579 215.63 67.2939 215.374 67.1659C214.67 66.8457 214.605 66.3015 215.086 65.7572C215.822 64.9248 216.463 64.0284 217.2 63.1961C218.321 61.9475 219.473 60.699 220.658 59.5144C222.772 57.4335 225.11 55.6407 227.544 53.9439C229.722 52.4072 231.932 50.9026 234.398 49.8461C235.391 49.3979 236.383 48.9817 237.504 48.9177C237.921 48.9177 238.401 48.7256 238.978 48.5655ZM261.172 68.7666C260.788 68.1263 260.499 67.6461 260.179 67.1338C259.699 66.3335 259.282 65.5331 258.738 64.7648C256.72 61.9155 254.254 59.4184 251.756 56.9853C251.052 56.281 250.315 55.9608 249.258 55.9608C246.216 55.9608 243.173 55.8008 240.163 55.7047C237.729 55.6087 235.327 55.7687 232.893 55.4486C231.676 55.2885 230.459 55.3205 229.21 55.3205C228.889 55.3205 228.505 55.3846 228.249 55.5767C226.519 56.8893 224.79 58.1698 223.157 59.5785C221.011 61.3713 219.089 63.3882 217.36 65.5971C217.072 65.9493 216.847 66.3015 216.527 66.7176C217.36 67.518 218.321 67.9982 219.281 68.5425C220.755 69.3748 222.356 69.9191 223.989 70.3993C225.334 70.7835 226.711 71.1036 228.089 71.3917C229.081 71.5838 230.074 71.6799 231.067 71.8079C232.572 72 234.078 72.2561 235.583 72.3202C237.921 72.4162 240.291 72.3842 242.629 72.3842C243.461 72.3842 244.294 72.3842 245.095 72.2881C247.24 72.032 249.418 71.7439 251.564 71.4238C252.845 71.2317 254.126 71.0076 255.375 70.6874C256.816 70.3353 258.226 69.8871 259.635 69.4389C260.179 69.2788 260.627 69.0227 261.172 68.7666ZM249.162 55.0324C249.194 54.9684 249.226 54.9044 249.226 54.8403C248.682 54.4241 248.169 53.9759 247.625 53.5918C245.991 52.4713 244.358 51.3508 242.693 50.3263C242.116 49.9742 241.38 49.686 240.707 49.59C239.33 49.3659 238.017 49.8141 236.768 50.3263C234.59 51.2227 232.636 52.5673 230.683 53.8159C230.523 53.9119 230.362 54.104 230.17 54.3281C230.427 54.3921 230.523 54.4241 230.619 54.4241C232.668 54.5202 234.718 54.4562 236.768 54.6482C238.497 54.8083 240.227 54.6803 241.956 54.7443C243.429 54.7763 244.935 54.9364 246.408 55.0004C247.337 55.0644 248.265 55.0324 249.162 55.0324Z" fill="black"/>
<path d="M200.13 79.4274C200.033 79.7475 199.905 80.0356 199.841 80.3558C199.649 81.2522 199.457 82.1806 199.297 83.077C199.233 83.3971 199.265 83.7493 199.233 84.0694C200.514 84.7417 202.019 84.7097 203.012 85.7982C202.499 86.6306 202.019 86.6306 201.411 86.0543C201.09 85.7342 200.514 85.6381 200.065 85.4781C199.745 85.382 199.393 85.318 198.945 85.222C198.848 85.6061 198.72 86.0223 198.624 86.4065C198.496 87.1108 198.464 87.8471 198.24 88.5194C197.952 89.4478 197.663 89.864 196.703 89.5119C196.478 87.9112 197.023 86.3425 197.215 84.6457C196.286 84.1015 195.229 83.6853 193.98 83.4292C194.076 83.7493 194.109 83.9094 194.205 84.2295C193.468 83.8133 192.859 83.4612 192.251 83.109C192.379 82.5968 192.699 82.5648 193.052 82.5327C194.429 82.4047 195.646 82.8529 196.927 83.2691C197.439 83.4612 197.503 83.4292 197.663 82.8849C197.952 81.8925 198.24 80.932 198.56 79.9396C198.945 79.0432 199.425 78.8831 200.13 79.4274Z" fill="black"/>
<path d="M206.279 29.9969C206.759 27.7879 207.239 25.6109 207.72 23.466C206.182 22.8257 204.645 23.0498 203.044 23.0818C203.172 22.5375 203.492 22.4415 203.845 22.4415C204.805 22.4415 205.766 22.4095 206.727 22.4095C207.047 22.4095 207.367 22.4415 207.688 22.4415C208.008 22.4415 208.168 22.3134 208.232 21.9933C208.424 21.257 208.649 20.5206 208.905 19.7843C209.033 19.4322 209.193 19.016 209.705 18.9199C209.769 19.08 209.93 19.2401 209.93 19.3681C209.866 19.9764 209.737 20.5527 209.641 21.1609C209.577 21.6411 209.513 22.1534 209.449 22.6976C210.25 22.8257 210.922 22.9217 211.595 23.0178C212.171 23.1138 212.716 23.3059 213.068 23.7861C212.556 24.2983 212.107 24.2983 211.563 23.9142C210.89 23.4339 210.09 23.658 209.321 23.658C209.225 23.658 209.065 23.9782 209.001 24.1383C208.841 24.7465 208.745 25.3868 208.552 25.9951C208.232 27.1476 207.88 28.2681 207.528 29.3886C207.335 29.9969 207.015 30.1249 206.279 29.9969Z" fill="black"/>
<path d="M150.585 47.5411C150.681 47.189 150.777 46.8688 150.873 46.5487C151.385 44.8839 151.898 43.2192 152.41 41.5544C152.538 41.1703 152.346 41.0422 152.026 40.9141C151.289 40.626 150.585 40.2739 149.848 40.0177C149.207 39.7936 148.791 39.3454 148.407 38.8652C148.887 38.385 148.919 38.353 149.336 38.8012C150.2 39.6976 151.417 39.8897 152.506 40.3059C152.57 40.3379 152.666 40.3059 152.826 40.2739C153.147 39.5055 153.467 38.7052 153.851 37.9368C154.268 37.0084 154.716 36.08 155.196 35.1516C155.26 35.0235 155.453 34.9595 155.709 34.9595C155.1 36.8803 154.46 38.8332 153.851 40.8181C155.292 41.5224 156.606 42.3548 157.63 43.6994C157.278 43.8915 156.99 43.7954 156.702 43.5713C155.997 43.0911 155.26 42.6109 154.524 42.1307C154.268 41.9706 153.979 41.8746 153.595 41.7145C153.211 42.739 152.89 43.6674 152.538 44.5958C152.218 45.4602 151.866 46.3246 151.513 47.1569C151.385 47.5411 151.161 47.8292 150.585 47.5411Z" fill="black"/>
<path d="M127.269 87.0146C127.173 87.3668 127.173 87.5589 127.077 87.6549C126.309 88.9035 125.412 90.024 124.035 90.6643C123.746 90.7923 123.362 90.8564 123.074 90.7603C121.216 90.2161 119.551 89.2557 118.078 88.0071C117.309 87.3348 116.604 86.5665 115.9 85.8621C115.836 85.7981 115.772 85.7341 115.74 85.67C115.708 85.4139 115.612 85.1258 115.676 84.9337C115.836 84.6136 116.188 84.7096 116.444 84.8057C116.733 84.9017 117.021 85.0938 117.309 85.2218C119.071 86.0222 120.832 86.8546 122.625 87.5909C123.074 87.783 123.682 87.719 124.195 87.6549C124.867 87.5589 125.54 87.3348 126.18 87.1747C126.501 87.1107 126.821 87.0787 127.269 87.0146ZM124.995 88.4233C123.746 88.7114 123.714 88.6794 122.657 88.4233C121.28 88.0391 119.967 87.5589 118.686 86.8866C118.59 86.8226 118.462 86.8226 118.174 86.7585C118.366 86.9826 118.398 87.0467 118.462 87.1107C119.711 88.3272 121.248 89.1276 122.818 89.8959C122.978 89.992 123.266 89.992 123.426 89.8959C124.035 89.5438 124.547 89.1276 124.995 88.4233Z" fill="black"/>
<path d="M120.416 81.6685C121.44 81.8606 121.633 82.9491 122.305 83.5894C122.625 83.3013 122.722 82.9491 122.658 82.5329C122.145 80.0358 121.28 77.6667 120.32 75.3297C119.967 74.4653 119.679 73.5369 119.359 72.6405C119.263 72.3844 119.263 72.1603 119.519 72.0322C119.807 71.9042 120.031 72.0002 120.159 72.2883C120.48 72.9286 120.832 73.5369 121.088 74.2092C121.857 76.098 122.625 77.9869 123.266 79.9077C123.586 80.8362 123.682 81.8606 123.81 82.8531C123.907 83.5254 123.49 84.1977 123.01 84.3898C122.497 84.6139 121.697 84.4218 121.312 83.8775C120.864 83.2693 120.512 82.5329 120.127 81.8926C120.256 81.8286 120.32 81.7326 120.416 81.6685Z" fill="black"/>
<path d="M116.669 76.4822C116.733 76.8023 116.637 77.1545 116.156 77.3146C115.708 77.4746 115.291 77.3786 115.003 76.9944C114.523 76.3221 114.106 75.6498 114.138 74.7534C114.138 74.4013 114.203 74.0491 114.555 73.9851C114.907 73.921 115.387 73.921 115.58 74.1131C116.188 74.7214 116.637 75.4577 116.669 76.4822Z" fill="black"/>
<path d="M123.17 71.4241C123.971 71.232 124.003 71.2 124.387 71.8082C124.707 72.3845 124.963 72.9608 125.22 73.569C125.38 73.9852 125.22 74.4334 124.931 74.5295C124.515 74.6575 124.035 74.5295 123.842 74.1133C123.298 73.0888 122.914 72.8327 123.17 71.4241Z" fill="black"/>
<path d="M113.626 71.9679C112.729 71.2316 112.665 70.8154 113.306 69.919C113.754 69.2467 114.267 69.1507 115.003 69.5989C114.715 70.4953 114.459 71.3917 113.626 71.9679Z" fill="black"/>
<path d="M119.967 66.9736C121.152 66.4294 121.889 66.6535 122.69 67.774C121.921 68.1261 121.184 67.838 120.448 67.774C120.159 67.742 119.807 67.4538 119.967 66.9736Z" fill="black"/>
<path d="M307.066 208.445C307.066 208.573 307.066 208.669 307.066 208.797C307.034 208.797 307.002 208.797 306.97 208.797C306.938 208.669 306.938 208.541 306.906 208.445C306.938 208.445 307.002 208.445 307.066 208.445Z" fill="black"/>
</g>
<g clip-path="url(#clip1)">
<path d="M135.409 124.47C135.408 124.443 135.407 124.423 135.405 124.397C135.377 124.204 135.265 124.053 135.083 123.959C135.045 123.94 135.001 123.921 134.964 123.902C134.833 123.846 131.614 122.459 131.614 122.459C131.333 122.338 131.052 122.217 130.77 122.096L134.783 119.837C134.813 119.819 134.848 119.802 134.884 119.774C135.101 119.621 135.186 119.37 135.106 119.139C135.049 118.985 134.926 118.861 134.739 118.782C134.158 118.536 133.577 118.284 133.002 118.033L129.765 116.657C129.734 116.643 129.697 116.629 129.665 116.615C129.603 116.587 129.541 116.565 129.478 116.536C129.353 116.48 129.223 116.456 129.089 116.463C128.956 116.47 128.829 116.508 128.711 116.583C128.705 116.578 128.699 116.583 128.693 116.584L125.854 118.184C125.166 118.572 124.455 118.971 123.756 119.364C123.495 119.509 123.371 119.714 123.385 119.975C123.454 121.253 123.523 122.557 123.59 123.814L123.652 124.962C123.654 125.004 123.656 125.045 123.658 125.082C123.664 125.186 123.712 125.288 123.796 125.383C123.855 125.453 123.937 125.506 124.044 125.553C124.156 125.604 128.293 127.382 128.293 127.382C127.724 127.7 124.316 129.619 124.316 129.619C124.28 129.637 124.245 129.659 124.203 129.688C124.021 129.807 123.915 129.996 123.925 130.194C123.936 130.393 124.061 130.569 124.262 130.668C124.287 130.677 124.306 130.692 124.331 130.701L129.03 132.72L129.199 132.795C129.33 132.851 129.461 132.907 129.587 132.963C129.712 133.019 129.841 133.043 129.969 133.036C130.103 133.029 130.223 132.991 130.341 132.922L130.365 132.911L135.172 130.205L135.22 130.177C135.273 130.148 135.32 130.119 135.374 130.09C135.569 129.975 135.676 129.797 135.677 129.587C135.676 129.566 135.675 129.551 135.674 129.53L135.409 124.47ZM130.303 126.26C130.248 125.227 130.193 124.194 130.137 123.161C130.194 123.184 133.356 124.543 133.356 124.543C133.272 124.584 130.303 126.26 130.303 126.26ZM133.624 129.676L130.577 131.393C130.522 130.36 130.467 129.327 130.412 128.299C130.53 128.345 133.624 129.676 133.624 129.676ZM131.045 127.24C132.059 126.668 133.072 126.096 134.086 125.529C134.141 126.562 134.196 127.59 134.251 128.622C134.17 128.58 131.895 127.608 131.045 127.24ZM129.857 118.023C130.931 118.483 132 118.944 133.075 119.405C132.055 119.977 131.042 120.549 130.022 121.122L129.857 118.023ZM128.927 126.328C128.109 125.984 126.509 125.296 125.709 124.951C126.728 124.379 127.748 123.801 128.767 123.229C128.815 124.006 128.891 125.545 128.927 126.328ZM125.44 119.813C126.46 119.24 127.473 118.668 128.487 118.096C128.542 119.129 128.597 120.162 128.652 121.195C127.584 120.734 126.515 120.273 125.44 119.813ZM124.813 120.866C124.825 120.871 128.025 122.248 128.025 122.248C127.005 122.821 125.992 123.393 124.972 123.965C124.925 123.199 124.849 121.654 124.813 120.866ZM129.208 131.471C128.414 131.132 126.808 130.438 125.995 130.084C126.007 130.078 129.036 128.373 129.036 128.373C129.084 129.16 129.167 130.704 129.208 131.471Z" fill="white"/>
</g>
<defs>
<clipPath id="clip0">
<rect width="339" height="250" fill="white" transform="translate(53)"/>
</clipPath>
<clipPath id="clip1">
<rect width="11.7671" height="16.6124" fill="white" transform="translate(123.214 116.772) rotate(-3.05886)"/>
</clipPath>
</defs>
</svg>
