<svg width="240" height="240" viewBox="0 0 240 240" fill="none" xmlns="http://www.w3.org/2000/svg">
<g clip-path="url(#clip0)">
<path d="M21.7241 175.862L33.6207 141.724L70.8621 104.483L82.2414 15.5172L116.379 8.79309L136.552 62.069L118.966 90.5172L167.586 125.172L155.69 168.103L148.966 157.241L143.276 192.414L65.6897 175.862V144.828L61.5517 152.069L53.2759 168.103L61.5517 182.586L53.2759 205.345L27.4138 195.517L21.7241 175.862Z" fill="white"/>
<path d="M157.039 114.059C158.139 114.625 159.082 115.411 160.056 116.165C161.879 117.611 163.64 119.12 165.274 120.755C165.368 120.85 165.431 121.07 165.62 121.007C165.871 120.912 165.746 120.692 165.746 120.535C165.651 117.926 165.651 115.285 165.746 112.676C165.84 110.066 166.437 107.551 167.632 105.193C167.663 105.13 167.726 105.067 167.789 105.005C168.952 104.219 168.857 102.93 169.203 101.798C169.706 100.132 170.838 98.9055 172.126 97.8366C173.887 96.3275 176.024 95.8245 178.256 95.9188C179.042 95.9503 179.796 96.2647 180.33 96.9877C180.456 97.1764 180.613 97.4908 180.928 97.3336C181.179 97.2078 181.053 96.8934 181.053 96.7048C181.116 95.1014 181.053 93.4981 181.211 91.9261C181.273 91.1087 181.305 90.2599 181.462 89.4425C181.776 87.8077 183.882 87.1789 185.422 88.2478C186.428 88.9395 186.931 89.977 187.34 91.0773C187.528 91.6118 187.749 92.1462 187.717 92.9007C188.44 92.1148 188.817 91.2974 189.257 90.5743C189.76 89.7255 190.515 89.4111 191.395 89.4425C192.495 89.4739 193.218 90.1656 193.658 91.1716C194.035 92.0205 194.004 92.9322 194.035 93.8439C194.066 94.5041 194.255 95.1329 194.224 95.7931C194.004 98.9998 194.067 102.207 193.909 105.445C193.878 105.916 193.532 106.388 193.784 107.017C194.444 105.853 194.821 104.69 195.198 103.527C195.387 102.898 195.607 102.301 195.858 101.704C196.393 100.509 197.398 100.194 198.593 100.194C199.693 100.194 200.196 100.855 200.542 101.766C201.39 103.841 201.296 105.948 200.919 108.086C200.699 109.406 200.416 110.695 200.227 111.984C199.944 113.713 199.441 115.411 199.064 117.14C198.624 119.12 198.027 121.07 197.367 122.987C196.455 125.66 195.512 128.3 193.972 130.69C193.281 131.759 192.935 133.016 192.055 133.959C191.929 134.117 192.055 134.337 192.181 134.525C194.035 136.978 195.041 139.838 196.455 142.511C198.216 145.875 199.536 149.459 201.39 152.791C202.679 155.086 203.748 157.538 204.534 160.053C205.005 161.594 205.414 163.197 205.917 164.738C206.514 166.593 206.985 168.479 207.394 170.365C207.708 171.78 207.865 173.226 208.085 174.672C208.526 177.502 208.431 180.394 208.808 183.255C209.186 186.022 208.651 188.694 208.211 191.398C208.054 192.309 207.96 193.252 207.803 194.164C207.488 196.145 207.331 198.157 206.545 200.012C205.005 203.659 202.585 206.551 198.75 207.934C196.298 208.846 193.752 208.752 191.206 208.437C187.403 207.966 184.417 205.891 181.588 203.596C177.124 199.98 172.755 196.239 169.172 191.712C167.443 189.511 165.966 187.122 164.457 184.795C161.314 179.86 158.422 174.767 155.216 169.894C153.393 167.096 151.758 164.203 150.092 161.311C149.998 161.154 150.061 160.808 149.778 160.839C149.495 160.902 149.432 161.185 149.401 161.468C149.338 162.977 149.086 164.455 148.992 165.964C148.772 168.793 148.489 171.623 148.3 174.452C148.112 176.967 147.955 179.514 147.735 182.029C147.42 185.581 147.546 189.134 147.389 192.687C147.295 194.541 147.106 196.396 147.263 198.251C147.546 201.709 147.326 205.199 147.577 208.657C147.923 213.436 147.735 218.215 147.766 222.993C147.766 223.37 147.64 223.653 147.42 223.905C147.2 224.156 146.949 224.377 146.76 224.659C145.88 225.948 144.497 226.326 143.083 226.451C140.065 226.703 137.142 227.426 134.093 227.552C132.207 227.615 130.289 227.709 128.403 227.866C125.26 228.118 122.117 228.275 118.942 228.464C114.762 228.715 110.613 228.243 106.432 228.401C104.137 228.495 101.843 228.306 99.5482 228.055C96.8765 227.772 94.2047 227.457 91.5643 227.206C90.6528 227.112 89.7412 227.049 88.8611 226.892C86.0322 226.42 83.2346 225.886 80.4371 225.351C78.3626 224.942 76.3194 224.502 74.2763 223.968C71.6988 223.308 69.2156 222.396 66.7639 221.358C65.7266 220.918 64.6893 220.447 63.7149 219.912C62.5833 219.283 61.9547 217.586 62.1747 216.265C62.3004 215.479 62.0804 214.631 61.9861 213.845C61.8604 212.807 62.049 211.833 62.2376 210.827C62.489 209.569 62.7405 208.28 63.0234 207.022C63.1177 206.551 62.9291 206.299 62.4576 206.457C61.3889 206.771 60.2888 206.708 59.1886 206.708C56.1396 206.74 53.1221 206.865 50.0731 206.614C47.087 206.362 44.1323 205.891 41.2719 205.105C36.117 203.659 31.4021 201.395 27.4101 197.78C24.1411 194.824 21.6579 191.303 20.2749 187.028C19.3948 184.387 18.8918 181.714 18.6718 178.948C18.5461 177.533 18.4518 176.118 18.5461 174.735C18.7032 172.472 18.8918 170.239 19.269 167.976C19.6462 165.838 20.1491 163.763 20.6835 161.688C21.0293 160.273 21.5951 158.89 22.0351 157.475C22.3494 156.406 22.9781 155.4 23.1353 154.269C23.1981 154.237 23.3239 154.206 23.3239 154.174C23.7325 152.98 24.2354 151.816 24.7698 150.685C25.7756 148.421 27.0015 146.252 28.1645 144.051C29.3275 141.882 30.5219 139.744 31.9679 137.763C32.4708 137.04 32.9108 136.286 33.1937 135.468C33.3509 134.997 33.8853 134.714 34.1681 134.274C35.2054 132.733 36.1484 131.13 37.4372 129.778C38.0658 129.118 38.7259 128.489 39.2288 127.735C40.4233 125.911 41.932 124.339 43.2836 122.642C44.6352 120.944 46.2069 119.435 47.6842 117.8C48.0614 117.391 48.1243 116.731 48.6586 116.417C48.973 116.228 49.3502 116.071 49.6016 115.788C52.5877 112.487 55.8882 109.532 59.1886 106.545C61.3889 104.564 63.6521 102.647 65.9781 100.823C67.2354 99.8487 68.6184 98.9998 69.6871 97.868C70.7873 96.7048 72.5161 96.5476 73.3648 95.1643C73.3648 95.1329 73.4276 95.1643 73.4276 95.1329C73.962 94.7556 74.4963 94.3784 75.0307 94.0325C77.8282 92.1148 80.6572 90.2913 83.549 88.5308C85.4035 87.399 87.3209 86.2987 89.3012 85.3555C89.9613 85.0411 90.1813 84.5067 90.0241 83.815C89.6469 82.1488 89.5841 80.4825 89.4583 78.7849C89.3955 77.9046 89.5212 76.9929 89.364 76.1126C89.0497 74.2577 88.7668 72.4028 88.7982 70.5165C88.7982 69.3848 88.7982 68.253 88.7668 67.1526C88.7354 65.9265 88.5468 65.8322 87.5409 66.4924C86.4408 67.1841 85.3721 67.9386 84.1776 68.4416C81.5687 69.5419 79.0227 70.8624 76.1937 71.4597C74.7792 71.7741 73.3648 71.7426 71.9817 71.5226C71.3845 71.4283 70.6301 71.1767 70.1586 70.7995C69.4985 70.265 68.7127 69.9506 68.0841 69.4162C67.8012 68.8817 67.4554 68.3787 67.3611 67.7814C67.3926 67.5299 67.3297 67.2784 67.2354 67.0269C66.5124 65.2977 66.1667 63.5372 66.8582 61.7138C67.1097 61.0221 67.3297 60.2676 67.8012 59.7331C68.5556 58.8214 69.2156 57.7839 69.97 56.8722C71.2902 55.3003 72.4218 53.6026 73.7105 52.0307C75.0307 50.4273 76.2252 48.7297 77.5768 47.1577C78.174 46.4346 78.4569 45.7116 78.4569 44.7684C78.4569 43.448 78.1111 42.1905 78.1111 40.87C78.1425 38.7322 78.1425 36.5944 78.4569 34.4566C78.7083 32.696 78.9912 30.9355 79.4627 29.2692C79.9971 27.4458 80.6886 25.6538 81.6001 23.9561C82.3545 22.5414 83.1089 21.0952 84.1462 19.9006C85.5921 18.2343 87.2895 16.851 89.0183 15.4992C90.6528 14.2102 92.3816 13.2356 94.2675 12.3868C96.2792 11.5065 98.3852 10.972 100.491 10.7834C103.226 10.5633 106.055 10.3433 108.821 11.1292C110.267 11.5379 111.65 12.0724 113.127 12.4182C114.699 12.764 116.239 13.3614 117.716 14.053C117.936 14.1473 118.282 14.3674 118.376 13.8644C120.388 15.9393 122.588 17.9199 123.783 20.6551C124.223 21.6611 125.103 21.8183 125.952 21.9755C127.335 22.2585 128.749 22.5414 130.069 23.0444C130.887 23.3274 131.735 23.3274 132.584 23.516C133.81 23.8304 134.753 24.4906 135.539 25.3709C135.853 25.7481 136.136 26.1254 136.576 26.314C137.896 26.9428 138.368 28.1689 138.682 29.4579C138.713 29.6465 138.682 29.8666 138.619 30.0552C138.368 30.7468 138.431 31.4071 138.619 32.1301C139.028 33.6706 139.279 35.2425 138.713 36.783C138.085 38.4493 137.205 40.0212 136.073 41.4045C135.256 42.4105 134.439 43.448 133.433 44.2968C131.83 45.3972 131.578 47.1263 131.264 48.824C130.95 50.4902 130.635 52.125 130.509 53.8227C130.321 56.4007 129.944 58.9786 129.661 61.588C129.629 61.8395 129.567 62.091 129.535 62.3425C129.315 63.4114 129.189 64.4803 128.906 65.5493C128.624 66.681 128.686 67.9071 128.278 68.976C127.838 70.265 127.429 71.6169 126.549 72.7487C125.512 74.1005 124.852 75.7039 123.594 76.8986C123.186 77.2758 122.84 77.716 122.463 78.1247C121.834 78.8163 121.143 79.4136 120.231 79.728C119.382 80.0424 118.596 80.6083 118.659 81.8344C118.691 82.5575 118.785 83.2806 118.785 84.0037C118.848 86.4873 120.074 88.4365 121.551 90.2914C122.368 91.2974 123.311 92.1777 124.192 93.0894C125.606 94.567 127.303 95.6988 128.875 96.9563C131.044 98.654 133.496 99.9744 135.79 101.483C137.959 102.898 140.254 104.093 142.485 105.413C144.56 106.671 146.76 107.708 148.709 109.154C149.683 109.878 150.721 110.569 151.821 111.041C153.55 111.764 155.121 112.738 156.724 113.65C156.819 113.713 156.913 113.807 156.976 113.87C156.976 114.059 157.007 114.059 157.039 114.059ZM109.418 108.211C110.298 108.148 111.147 107.991 111.996 107.645C114.007 106.859 115.579 105.508 117.025 103.967C119.319 101.515 121.048 98.6854 122.4 95.6045C122.557 95.2586 122.463 94.9757 122.243 94.7242C121.897 94.3155 121.645 93.8439 121.331 93.4038C121.111 93.1208 121.017 92.6492 120.545 92.5549C120.2 94.6299 118.722 98.3396 116.993 100.194C114.825 102.489 112.373 104.124 109.072 104.093C108.444 103.936 107.846 104.281 107.249 104.344C105.3 104.533 103.54 103.747 101.686 103.307C100.145 102.93 98.731 102.112 97.6623 101.012C96.5307 99.8801 95.6192 98.4654 94.739 97.0821C93.9532 95.8245 93.2617 94.5355 92.6645 93.1208C92.1615 91.8947 91.7215 90.6057 91.2814 89.3796C90.6213 87.6191 90.9042 87.4304 89.1754 88.5308C88.8611 88.7194 88.8611 88.8452 88.924 89.191C89.0811 90.2599 89.867 91.0459 90.1184 92.0833C90.4642 93.4981 91.2186 94.7871 91.8158 96.076C92.413 97.3021 92.9159 98.5911 93.576 99.7543C94.2361 100.886 95.0219 101.924 95.902 102.93C97.0022 104.219 98.2595 105.319 99.6425 106.136C102.031 107.551 104.672 108.4 107.501 108.18C108.192 108.243 108.821 108.651 109.418 108.211ZM107.658 101.829C108.067 101.892 108.475 101.924 108.884 101.735C109.795 101.263 110.613 100.666 111.398 99.9744C112.844 98.6854 113.693 97.0192 114.479 95.3215C115.17 93.781 115.925 92.2405 116.113 90.5114C116.302 88.5937 116.145 86.6445 116.113 84.7267C116.082 83.6893 115.642 82.6518 115.925 81.6458C116.113 80.9541 115.862 80.8598 115.296 80.8598C114.039 80.8284 112.813 80.8284 111.556 80.5768C109.544 80.1681 107.658 79.5394 105.898 78.5334C105.646 78.4076 105.426 78.3447 105.175 78.3447C104.923 77.7159 104.263 77.5588 103.76 77.2444C103.509 77.0872 103.226 76.9929 103.257 76.647C103.257 76.2698 103.037 76.1755 102.692 76.1755C102 76.2069 101.497 75.9554 100.994 75.4838C99.9254 74.5407 99.0453 73.4089 98.4167 72.2142C97.9766 71.3968 97.4737 70.6423 96.9708 69.8563C96.9393 69.6363 96.8765 69.4476 96.8765 69.2276C96.845 68.8503 96.7507 68.473 97.1594 68.1901C97.568 67.9071 98.008 67.9386 98.4167 68.0958C98.6367 68.1901 98.8567 68.3787 99.0453 68.5674C99.674 69.2276 100.334 69.8249 101.026 70.3908C102.503 71.5854 103.855 73.0002 105.458 74.0376C106.652 74.8236 107.972 75.5153 109.292 76.144C110.235 76.5842 111.147 77.1501 112.184 77.3701C113.033 77.5588 113.882 77.6531 114.699 77.8417C116.899 78.2818 118.754 77.6216 120.482 76.3327C122.526 74.7922 123.751 72.6229 124.883 70.4537C126.203 67.9386 126.895 65.1406 127.366 62.374C127.838 59.6388 128.089 56.8408 128.089 54.0428C128.089 51.8106 128.183 49.6099 128.278 47.3778C128.309 46.2775 128.246 45.1771 127.963 44.1082C127.555 42.5048 127.083 40.9329 126.8 39.2981C126.738 38.8894 126.612 38.7322 126.203 38.9209C124.569 39.6754 122.871 40.2727 121.143 40.7757C118.785 41.4674 116.396 42.2219 113.976 42.442C111.587 42.662 109.23 42.9764 106.841 43.2279C105.866 43.3222 104.766 43.1336 103.917 43.7938C102.88 44.5798 101.843 45.3657 100.868 46.246C100.303 46.749 99.9254 47.4092 99.7997 48.2266C99.5797 49.6728 99.3911 51.119 99.1396 52.5337C98.7624 54.5458 98.2909 56.5578 98.3224 58.6328C98.3538 59.7646 97.7566 60.079 96.7193 60.1733C95.9335 60.2361 95.2105 59.796 94.4247 59.796C94.1732 59.796 94.1104 59.5759 94.0789 59.4502C93.8904 59.0101 93.7018 58.5385 93.6075 58.0669C93.2931 56.212 93.0417 54.3572 92.8845 52.5023C92.7902 51.4648 92.6645 50.333 91.7215 49.5785C91.5643 49.4527 91.5015 49.1384 91.3129 49.0126C90.6842 48.5096 90.527 47.535 89.6155 47.3149C89.7727 46.4975 89.2697 45.9631 88.7039 45.6173C88.2639 45.3343 88.1067 45.0828 88.0439 44.4855C87.761 44.7998 87.4781 44.7998 87.1952 44.7998C86.7865 44.7684 86.6294 44.957 86.6923 45.3657C85.4349 46.6233 84.492 48.0066 84.4291 49.8614C84.3977 50.7103 84.5548 51.5277 84.7749 52.3136C85.1835 53.9484 85.8121 55.4889 87.2266 56.5578C88.0439 57.1866 88.8611 57.8154 89.4898 58.6328C90.0556 59.3873 90.8728 59.9846 91.0614 60.9278C91.3443 62.3425 91.8472 63.6629 92.193 65.0777C92.0358 65.2977 91.9729 65.6121 92.0987 65.8322C92.5073 66.5238 92.4759 67.2784 92.5387 68.0329C92.7902 70.9252 93.1988 73.8176 93.4817 76.7099C93.6389 78.1875 93.8589 79.6651 93.8589 81.1427C93.8589 82.2745 94.1104 83.3749 94.2675 84.4752C94.3933 85.2612 94.299 86.0786 94.5819 86.7702C95.4934 89.2853 95.7134 91.989 97.0022 94.3784C97.4422 95.1958 97.6623 96.1389 98.7624 96.3904C98.8567 96.4219 98.9825 96.5476 99.0453 96.6419C99.5168 97.7737 100.586 98.4339 101.246 99.4714C101.78 100.32 102.723 100.886 103.572 101.232C104.766 101.641 106.181 102.175 107.658 101.829ZM94.0475 44.4226C94.8648 43.7624 95.3677 42.8192 96.1535 42.0961C98.6681 39.7697 101.12 37.4118 103.949 35.4941C104.452 35.1482 104.609 34.8024 104.357 34.2365C104.075 33.6077 103.917 32.979 103.855 32.2873C103.697 30.6525 103.886 29.0806 104.42 27.5401C105.238 25.1822 106.872 23.7361 109.292 23.3588C112.247 22.8872 115.107 23.1073 117.465 25.2137C117.811 25.5281 117.999 25.4337 118.314 25.1822C119.005 24.6478 119.697 24.1133 120.451 23.6732C120.891 23.4217 120.828 23.2645 120.64 22.9187C119.885 21.4411 118.817 20.1835 117.779 18.926C116.396 17.2597 114.793 15.9708 112.719 15.2162C111.178 14.6503 109.607 14.2102 108.067 13.6129C106.495 12.9841 104.766 12.8269 103.1 12.7955C101.78 12.764 100.46 13.047 99.171 13.3299C98.1966 13.4871 97.2536 13.7701 96.3421 14.1159C94.739 14.7132 93.2931 15.5935 91.9729 16.6624C90.7471 17.6684 89.5212 18.6745 88.3896 19.8062C88.1067 20.0892 88.2953 20.6551 87.9496 20.718C86.9123 20.938 86.7865 21.9126 86.3465 22.5728C85.3406 24.0504 84.6177 25.7167 83.9262 27.3829C83.2347 29.0492 82.9518 30.7783 82.5746 32.476C82.0716 34.9282 81.9459 37.4747 82.0716 39.9898C82.1345 41.2159 82.0088 42.4734 82.4488 43.6995C82.6374 44.2654 82.9518 44.2025 83.2661 43.9824C84.1148 43.3537 85.152 43.1336 86.1265 42.8821C86.7237 42.7249 87.4466 42.662 87.981 42.9135C89.4898 43.6052 91.0928 44.234 92.1301 45.6801C92.4444 46.0888 92.9788 46.1831 93.2617 45.7744C93.576 45.3343 94.0161 44.9885 94.0475 44.4226ZM46.9613 147.729C46.8984 147.635 46.867 147.541 46.8041 147.478C45.4211 145.937 43.9752 144.428 42.655 142.857C41.2719 141.222 39.826 139.681 38.4116 138.109C38.0658 137.732 37.7515 137.543 37.3743 138.141C36.4942 139.618 35.5198 141.065 34.7025 142.605C34.0424 143.831 33.2566 144.994 32.7222 146.315C32.2193 147.509 31.3706 148.61 30.8677 149.867C30.4276 150.936 29.9247 152.005 29.4218 153.074C28.6046 155.023 27.8187 156.972 27.1586 158.984C26.4043 161.248 25.7442 163.512 25.2098 165.838C24.644 168.29 24.2354 170.742 24.0782 173.226C23.8268 177.345 24.0468 181.463 25.2412 185.456C25.9642 187.908 26.97 190.234 28.3217 192.404C30.4591 195.862 33.3823 198.534 36.9971 200.389C40.0461 201.961 43.2836 202.935 46.7098 203.407C47.81 203.564 48.9415 203.596 50.0417 203.753C52.9649 204.162 55.8882 203.847 58.78 203.564C61.6404 203.281 64.5007 202.873 67.2982 202.118C69.1528 201.615 71.0387 201.269 72.8618 200.703C75.345 199.949 77.8597 199.226 80.28 198.283C82.7317 197.308 85.2149 196.333 87.6667 195.359C88.0753 195.202 88.2953 194.982 88.0753 194.478C86.8808 191.901 86.5665 189.103 86.2836 186.336C86.1893 185.361 86.095 184.355 86.4094 183.381C86.6294 182.721 86.4722 182.469 85.7493 182.595C85.3092 182.658 84.8377 182.563 84.4291 182.658C81.9459 183.161 79.3999 183.444 76.9481 184.104C74.9993 184.638 72.9561 184.607 70.9759 184.701C68.0212 184.858 65.098 184.764 62.1747 184.167C60.6031 183.852 59.1886 183.255 57.9313 182.28C55.7624 180.614 54.1594 178.539 53.0592 176.056C52.1162 173.886 51.3933 171.623 51.4876 169.233C51.5505 167.913 51.739 166.561 51.9276 165.209C52.3048 162.38 53.185 159.708 54.2851 157.13C54.5366 156.564 54.4423 156.281 54.0651 155.872C51.7076 153.2 49.3502 150.465 46.9613 147.729ZM108.632 110.412C108.538 110.412 108.475 110.412 108.381 110.412C108.035 110.726 107.564 110.601 107.155 110.695C106.621 110.381 106.023 110.318 105.426 110.349C104.263 110.412 103.1 110.223 102.031 109.909C100.648 109.532 99.2968 108.934 97.9452 108.494C95.0848 107.52 93.3246 105.35 91.5958 103.118C90.307 101.452 89.4583 99.5343 88.6725 97.5851C87.8867 95.573 87.1009 93.5924 86.8808 91.4231C86.818 91.0144 86.6608 90.5114 86.095 90.7315C85.6235 90.8887 85.0892 91.0459 84.6806 91.3603C82.9518 92.6807 80.9401 93.5924 79.2741 95.0071C78.8655 95.3529 78.2997 95.5416 78.0168 96.1075C77.8597 96.4219 77.231 96.3904 76.8538 96.7362C76.3509 97.1764 75.7851 97.5536 75.2507 97.9623C74.4963 98.4968 73.6162 98.9369 73.1447 99.7543C72.9561 100.1 72.7675 100.352 72.4532 100.54C71.3531 101.169 70.3472 101.924 69.4042 102.71C67.6126 104.219 65.8209 105.791 64.0607 107.331C63.6521 107.708 63.212 108.086 62.8034 108.4C61.5461 109.375 60.6031 110.601 59.4086 111.607C58.3399 112.487 57.4912 113.587 56.4854 114.499C55.7624 115.159 55.2909 116.071 54.2537 116.48C53.9079 116.637 53.2793 117.14 53.1221 117.674C52.9964 118.146 52.7763 118.492 52.4306 118.837C51.5505 119.718 50.7018 120.661 49.8845 121.604C49.0044 122.61 48.1557 123.616 47.3385 124.622C46.2383 125.974 45.1067 127.294 44.038 128.678C42.655 130.501 41.2091 132.262 39.9832 134.211C39.4174 135.091 39.3231 135.531 39.9832 136.129C41.2091 137.292 42.4978 138.392 43.6923 139.587C44.4781 140.341 45.2639 141.065 45.9869 141.913C46.9927 143.077 47.9986 144.303 49.2559 145.214C49.8531 146.189 50.7646 146.881 51.4562 147.729C52.8706 149.459 54.348 151.125 55.731 152.854C56.0139 153.168 56.1711 153.263 56.4225 152.917C58.057 150.685 60.0059 148.798 62.0804 146.975C63.2434 145.969 64.2807 144.774 65.8523 144.428C66.4496 144.303 67.2982 144.051 67.4554 144.648C67.644 145.372 67.9269 146.095 68.0526 146.849C68.3041 148.484 68.4613 150.15 68.5556 151.816C68.8699 157.475 68.6184 163.166 68.9013 168.825C69.0899 173.006 69.0271 177.25 68.7442 181.432C68.7127 181.714 68.6184 182.029 69.0899 182.029C71.4159 182.06 73.742 182.06 76.0366 181.62C77.8282 181.274 79.6199 180.991 81.4116 180.771C82.606 180.614 83.8004 180.52 84.9949 180.52C86.3465 180.52 87.6667 180.048 89.0183 180.143C90.3384 180.237 91.6586 180.551 92.9788 180.363C93.2303 180.331 93.576 180.363 93.7332 180.488C94.1418 180.834 94.3304 180.551 94.5819 180.331C96.4993 178.633 98.3224 176.81 100.397 175.332C101.811 174.326 103.163 173.289 104.798 172.692C105.426 172.472 105.929 172.629 106.306 173.132C106.841 173.823 106.872 174.641 106.558 175.427C106.149 176.433 105.583 177.407 104.923 178.319C104.515 178.885 104.012 179.388 103.54 180.174C104.263 179.86 104.735 179.671 105.206 179.451C107.124 178.539 109.167 177.91 111.21 177.439C112.687 177.093 114.102 176.621 115.579 176.276C116.679 176.024 117.811 176.087 118.911 175.898C119.759 175.741 120.262 175.993 120.64 176.81C120.985 177.533 120.671 178.068 120.137 178.508C119.98 178.634 119.791 178.728 119.634 178.854C118.659 179.545 117.559 180.08 116.333 180.677C116.836 180.677 117.119 180.74 117.402 180.677C118.942 180.331 120.482 180.174 122.054 180.237C123.091 180.268 124.129 180.426 125.103 180.74C125.92 181.023 126.14 181.714 126.298 182.406C126.392 182.909 126.015 183.286 125.575 183.569C123.909 184.701 121.991 185.141 120.137 185.739C118.817 186.147 117.433 186.462 116.082 186.808C116.365 186.996 116.648 187.059 116.899 187.028C117.968 186.902 119.037 186.965 120.105 186.965C120.891 186.965 121.645 187.028 122.368 187.373C123.217 187.782 123.657 188.631 123.626 189.826C123.594 190.706 122.966 190.926 122.274 191.177C121.363 191.523 120.388 191.555 119.445 191.649C118.031 191.806 116.648 192.089 115.233 192.089C115.076 192.089 114.919 192.152 114.762 192.183C114.636 192.246 114.416 192.246 114.447 192.466C114.479 192.624 114.636 192.624 114.762 192.655C115.768 192.875 116.742 193.252 117.716 193.598C118.502 193.881 119.194 194.73 119.162 195.516C119.131 196.333 118.534 196.774 117.874 197.088C116.428 197.78 114.887 197.937 113.316 197.968C111.964 198 110.581 197.842 109.261 197.811C105.583 197.78 102.031 197.088 98.4795 196.176C97.788 195.988 97.0965 195.893 96.405 195.799C96.1221 195.736 95.8392 195.83 95.9335 196.208C96.0278 196.711 95.7135 196.899 95.3677 197.056C93.5446 198.031 91.6901 198.911 89.7412 199.634C86.4408 200.861 83.1089 202.024 79.7456 203.061C76.2566 204.13 72.7675 204.948 69.1842 205.576C68.367 205.702 67.5183 205.733 66.7325 206.048C66.481 206.142 66.3553 206.237 66.3553 206.519C66.4181 207.871 66.2924 209.223 66.1352 210.575C65.9466 212.493 65.8838 214.442 66.4181 216.328C66.6067 216.957 66.6696 217.743 67.2982 218.026C68.2412 218.466 69.2471 218.718 70.2215 218.969C71.9503 219.441 73.6477 219.975 75.3765 220.384C77.3882 220.824 79.3684 221.233 81.4116 221.516C83.2032 221.767 85.0263 221.956 86.8494 222.207C88.7668 222.459 90.7156 222.867 92.633 223.025C95.1162 223.245 97.6308 223.465 100.114 223.622C103.477 223.811 106.841 223.999 110.173 224.219C113.127 224.408 116.082 224.345 119.037 224.188C123.594 223.936 128.152 223.874 132.71 223.496C134.627 223.339 136.576 223.213 138.493 223.025C139.594 222.93 140.662 222.805 141.762 222.71C142.234 222.679 142.894 222.616 142.674 221.799C142.234 220.415 142.297 218.938 142.234 217.523C142.014 213.027 141.888 208.563 141.542 204.067C141.354 201.741 141.385 199.383 141.228 197.056C141.039 194.227 141.134 191.398 141.354 188.6C141.48 186.902 141.48 185.173 141.668 183.444C141.92 181.117 142.108 178.791 142.36 176.433C142.674 173.415 143.051 170.46 143.617 167.473C144.088 164.958 144.686 162.474 145.566 160.053C145.943 159.047 146.383 158.01 147.452 157.507C147.766 157.35 148.08 157.192 148.332 156.941C149.118 156.186 149.621 156.249 150.312 157.098C152.198 159.425 153.801 161.971 155.593 164.392C155.719 164.581 155.876 164.801 156.033 164.769C156.284 164.738 156.19 164.423 156.221 164.235C156.347 163.134 156.442 162.065 156.63 160.965C157.007 158.827 157.416 156.721 157.825 154.614C158.045 153.451 158.233 152.257 158.516 151.093C158.988 149.176 159.522 147.289 159.962 145.403C160.402 143.422 161.062 141.536 161.691 139.618C162.319 137.732 162.948 135.814 163.734 133.959C164.457 132.23 165.023 130.438 165.871 128.772C166.689 127.137 166.689 127.137 165.243 125.943C165.148 125.88 165.085 125.817 165.023 125.754C162.382 123.396 159.962 120.85 157.259 118.586C153.707 115.599 149.998 112.801 146.037 110.381C142.611 108.306 138.839 106.765 135.664 104.25C132.553 101.735 128.812 100.226 125.575 97.8995C125.292 97.6794 125.197 97.8366 125.103 98.0881C124.82 98.7483 124.537 99.4085 124.192 100.037C122.683 102.835 120.891 105.413 118.345 107.362C115.516 109.657 112.184 110.412 108.632 110.412ZM202.082 180.897C202.082 180.426 202.145 179.608 202.082 178.854C201.83 176.716 201.516 174.578 201.202 172.44C200.982 170.963 200.793 169.485 200.51 168.039C200.164 166.058 199.724 164.109 199.347 162.16C199.096 160.714 198.656 159.299 198.184 157.916C197.524 156.061 196.581 154.3 195.952 152.445C194.852 149.333 193.532 146.315 192.495 143.202C192.243 142.448 192.055 142.699 191.615 142.951C189.54 144.271 187.277 145.34 184.888 145.78C182.122 146.283 179.325 146.126 176.653 145.057C176.181 144.869 176.087 144.994 176.056 145.466C176.024 146.472 176.307 147.447 176.338 148.421C176.401 150.653 176.37 152.917 176.213 155.149C176.056 157.633 176.338 160.085 176.59 162.568C176.81 164.738 177.156 166.844 177.376 169.013C177.627 171.497 178.036 173.981 178.224 176.464C178.382 178.288 178.696 180.048 179.136 181.84C179.419 183.035 179.607 184.23 179.796 185.424C179.89 185.927 179.607 186.21 179.167 186.367C178.759 186.493 178.35 186.493 178.162 185.959C178.036 185.644 177.753 185.393 177.564 185.047C175.867 182.029 175.49 178.696 175.081 175.364C174.861 173.509 174.798 171.623 174.547 169.768C174.264 167.536 173.887 165.335 173.824 163.103C173.824 162.726 173.824 162.317 173.761 161.94C173.415 160.085 173.541 158.167 173.667 156.312C173.792 154.677 173.918 153.043 174.138 151.439C174.295 150.087 173.918 148.798 173.855 147.478C173.792 145.875 173.729 144.24 173.447 142.636C172.975 139.744 172.535 136.852 171.655 134.054C171.121 132.419 170.24 131.004 169.14 129.715C168.92 129.432 168.606 129.307 168.512 129.872C168.355 130.69 168.134 131.476 167.914 132.293C167.129 135.06 166.437 137.826 165.588 140.561C164.583 143.831 163.765 147.132 162.917 150.433C162.131 153.42 161.534 156.469 160.716 159.487C159.962 162.285 159.428 165.146 158.799 167.976C158.705 168.353 158.642 168.762 158.956 169.171C162.162 173.54 165.054 178.099 168.072 182.595C169.675 184.984 171.246 187.405 173.038 189.637C174.955 192.026 177.187 194.164 179.482 196.208C181.996 198.471 184.48 200.766 187.308 202.653C188.629 203.533 189.949 204.445 191.426 204.979C193.375 205.671 195.45 205.765 197.524 205.671C198.121 205.639 198.624 205.451 199.033 204.948C200.384 203.281 201.233 201.364 201.547 199.226C201.736 198.031 201.736 196.836 201.925 195.642C202.145 194.133 202.333 192.655 202.428 191.146C202.679 187.751 202.333 184.481 202.082 180.897ZM190.986 91.3288C190.703 91.989 190.452 92.5235 190.232 93.1208C189.666 94.7556 189.257 96.4533 188.566 98.0252C187.969 99.3456 187.591 100.697 187.466 102.112C187.246 104.753 187.12 107.394 186.837 110.035C186.68 111.449 186.397 112.864 186.46 114.31C186.46 114.562 186.334 114.75 186.271 114.971C186.114 115.442 185.737 115.694 185.328 115.599C184.92 115.505 184.448 115.316 184.511 114.656C184.574 114.059 184.511 113.462 184.542 112.864C184.762 110.098 184.982 107.362 185.202 104.596C185.391 102.458 185.58 100.352 185.768 98.2138C185.925 96.1389 185.485 94.1268 185.108 92.0833C184.951 91.2345 184.637 90.3857 184.039 89.6311C183.662 91.5489 183.851 93.4038 183.819 95.2586C183.819 97.365 183.819 99.5028 182.971 101.483C182.688 102.175 182.656 102.835 182.688 103.527C182.751 104.376 183.034 105.193 183.002 106.073C182.939 107.362 183.034 108.651 182.971 109.909C182.939 110.884 182.971 111.858 182.782 112.864C182.656 113.65 182.153 113.556 181.682 113.587C181.179 113.587 180.896 113.241 180.802 112.77C180.739 112.298 180.582 111.858 180.519 111.387C180.33 108.966 180.142 106.545 179.859 104.156C179.639 102.301 179.293 100.477 178.539 98.7483C177.941 97.3336 177.061 97.0192 175.773 97.7737C173.667 99.0312 172.189 100.823 171.372 103.15C171.246 103.527 171.278 103.81 171.749 104.061C172.504 104.502 173.101 104.722 173.824 104.093C174.012 103.936 174.358 103.904 174.641 103.841C176.024 103.558 177.564 104.344 177.847 105.602C177.973 106.168 178.13 106.797 178.13 107.362C178.162 110.443 178.287 113.524 177.847 116.605C177.753 117.171 177.596 117.737 177.407 118.24C176.967 119.372 176.967 119.341 177.942 120.095C179.545 121.353 181.053 122.704 182.342 124.308C182.814 124.905 183.222 125.597 183.474 126.32C183.725 127.012 183.505 127.326 182.782 127.294C181.808 127.263 181.053 126.791 180.425 126.1C178.507 124.025 176.621 121.95 174.547 120.064C173.604 119.215 172.849 118.209 172.566 116.92C172.315 115.757 172.189 114.562 171.969 113.399C171.655 111.449 171.498 109.469 171.246 107.488C171.152 106.859 171.026 106.199 170.806 105.602C170.712 105.35 170.681 104.847 170.115 104.942C169.643 105.005 169.549 105.382 169.423 105.696C168.826 107.268 168.575 108.903 168.543 110.569C168.449 114.247 168.417 117.926 168.763 121.604C168.826 122.421 169.046 123.207 169.172 123.993C169.266 124.528 169.518 125.062 169.958 125.534C172.001 127.64 173.761 129.967 174.452 132.891C174.704 133.959 175.207 134.62 176.276 134.871C176.307 134.871 176.37 134.934 176.401 134.965C178.79 136.192 181.305 135.909 183.662 135.06C185.643 134.368 187.654 133.519 189.446 132.387C189.634 132.262 189.917 132.356 190.075 132.105C191.018 130.533 191.898 128.929 192.589 127.232C193.564 124.811 194.349 122.296 195.261 119.844C196.047 117.674 196.424 115.411 197.021 113.21C197.367 111.952 197.556 110.663 197.776 109.375C197.996 107.96 198.058 106.576 198.058 105.162C198.058 104.376 197.964 103.59 197.87 102.584C197.273 103.527 197.147 104.439 196.77 105.256C195.952 107.111 195.198 108.997 194.475 110.884C193.658 113.053 192.652 115.159 191.615 117.234C191.3 117.863 190.64 117.894 190.043 117.737C189.634 117.611 189.54 117.234 189.603 116.857C189.792 115.819 189.886 114.75 190.137 113.713C190.86 110.821 191.143 107.865 191.269 104.879C191.426 101.232 191.363 97.5536 191.332 93.8753C191.489 93.1208 191.615 92.1777 190.986 91.3288ZM69.3414 64.1974C69.0271 65.1406 69.6557 66.0837 70.0643 66.9954C70.2844 67.5299 70.6616 68.1587 71.2588 68.473C72.0446 68.8817 72.7675 69.1961 73.7105 69.2276C75.3136 69.2276 76.8224 69.4791 78.394 68.5988C79.6827 67.8757 81.1601 67.4356 82.4803 66.7439C82.826 66.5553 83.0146 66.0837 83.3604 66.0837C84.0519 66.0837 84.4291 65.6121 84.932 65.2977C86.4722 64.3232 87.7924 63.0656 89.0497 61.7452C89.3955 61.3679 89.4583 61.1164 88.8297 61.085C88.6411 61.085 88.3582 61.085 88.2639 60.8964C87.6352 59.796 86.4408 59.3244 85.6235 58.4756C84.6177 57.4696 83.4232 56.6207 82.9203 55.1431C82.5117 53.9484 81.8516 52.7852 81.883 51.4963C81.9145 50.4588 81.6316 49.5785 81.2544 48.6353C81.0344 48.0695 80.3743 47.9751 79.9971 48.4467C79.1484 49.5785 78.174 50.5845 77.1681 51.5591C75.6908 53.0367 74.4021 54.703 73.019 56.2749C71.9817 57.4381 70.9759 58.6013 70.4101 60.079C69.8443 61.3679 69.2156 62.594 69.3414 64.1974ZM65.1923 147.572C64.1864 148.767 63.3692 149.867 62.4262 150.842C59.6915 153.577 58.56 157.13 57.4284 160.651C56.7054 162.82 56.4854 165.115 56.1711 167.379C55.951 169.013 56.0453 170.711 56.5483 172.283C57.5227 175.395 59.1572 178.162 61.7661 180.268C62.9291 181.211 64.1864 181.872 65.7266 181.966C66.1667 181.997 66.261 181.872 66.2295 181.463C66.0724 178.822 66.1038 176.15 66.0095 173.509C65.8523 168.982 65.758 164.486 65.6323 159.959C65.538 156.941 65.538 153.954 65.4123 150.936C65.318 149.899 65.2866 148.861 65.1923 147.572ZM113.913 179.294C113.567 179.105 113.316 179.137 113.096 179.231C111.21 179.954 109.261 180.488 107.406 181.243C105.678 181.935 103.98 182.752 102.22 183.444C101.654 183.664 101.057 183.727 100.554 183.224C99.8626 182.469 99.7997 180.929 100.491 180.174C102.094 178.508 103.634 176.747 105.049 174.924C105.112 174.829 105.332 174.704 105.175 174.547C105.049 174.421 104.923 174.515 104.766 174.609C103.76 175.175 102.88 175.93 101.969 176.621C99.7368 178.319 97.6937 180.3 95.3048 181.777C95.0219 181.966 94.9591 182.249 94.8962 182.626C94.7705 183.852 94.9591 185.078 94.9276 186.273C94.8648 188.568 95.2105 190.8 95.3991 193.064C95.4305 193.441 95.5563 193.818 95.9963 193.85C97.1908 193.975 98.3538 194.29 99.5168 194.447C101.591 194.73 103.666 194.919 105.74 195.17C108.444 195.485 111.178 195.61 113.913 195.485C114.762 195.453 115.516 195.202 116.333 194.95C115.642 194.51 114.887 194.321 114.102 194.258C112.341 194.101 110.581 193.913 108.821 193.598C107.501 193.378 106.966 192.875 106.746 191.649C106.652 191.209 106.809 190.863 107.249 190.737C108.098 190.517 108.978 190.234 109.827 190.203C112.593 190.109 115.327 189.763 118.094 189.511C119.162 189.417 120.231 189.228 121.3 189.103C119.225 188.757 117.182 188.914 115.139 189.103C112.813 189.323 110.487 189.197 108.161 189.04C107.406 188.977 107.029 188.568 106.872 187.625C106.746 186.808 107.312 186.556 107.941 186.367C109.324 185.959 110.738 185.644 112.153 185.33C114.102 184.89 116.019 184.387 117.936 183.852C119.508 183.444 121.08 183.035 122.714 182.438C121.645 182.092 120.765 182.5 119.885 182.626C118.062 182.878 116.27 183.286 114.479 183.789C112.404 184.387 110.298 184.764 108.161 185.11C107.752 185.173 107.312 185.141 106.904 185.141C105.992 185.11 105.803 184.355 105.615 183.695C105.458 183.129 105.772 182.752 106.338 182.532C106.935 182.312 107.438 181.903 108.035 181.652C110.078 180.866 111.964 180.111 113.913 179.294ZM181.808 142.982C183.348 143.108 184.888 142.857 186.397 142.574C188 142.291 189.54 141.568 190.986 140.813C191.426 140.593 191.709 140.373 191.552 139.744C191.426 139.304 191.3 138.864 191.143 138.424C190.735 137.198 190.483 135.94 189.823 134.808C189.572 134.368 189.414 134.431 189.069 134.651C187.371 135.814 185.454 136.632 183.568 137.323C181.022 138.266 178.319 138.518 175.615 137.858C175.333 137.795 175.175 137.826 175.27 138.204C175.458 138.99 175.678 139.776 175.71 140.561C175.741 141.41 176.15 141.788 176.841 142.102C178.444 142.825 180.11 142.888 181.808 142.982ZM90.7156 181.997C89.5212 182.029 89.0497 182.532 89.2069 183.569C89.5212 185.833 89.7727 188.096 90.3699 190.297C90.6528 191.303 90.9671 192.341 91.1243 193.378C91.1871 193.818 91.47 194.07 91.9415 193.881C92.4759 193.661 92.2558 193.19 92.1615 192.875C91.6901 191.335 91.47 189.763 91.25 188.159C90.9985 186.21 90.9042 184.261 91.0928 182.312C91.1243 181.903 90.8728 182.029 90.7156 181.997ZM106.715 32.6646C106.809 32.7903 106.495 33.1362 106.809 33.3248C107.124 33.5134 107.344 33.1362 107.532 33.0104C109.261 31.8786 111.021 30.7468 112.844 29.7722C113.693 29.3321 114.416 28.7348 115.076 28.0431C115.265 27.8231 115.61 27.6659 115.296 27.2572C115.045 26.9428 114.73 27.0057 114.447 27.1314C112.184 28.106 109.984 29.2064 107.972 30.6525C107.438 31.0612 106.526 31.4699 106.715 32.6646ZM175.647 117.36C175.961 116.763 175.993 116.165 176.024 115.662C176.118 112.424 176.15 109.186 175.458 106.011C175.364 105.508 175.113 105.413 174.704 105.759C173.824 106.451 173.698 106.797 174.044 107.865C174.107 108.054 174.201 108.274 174.201 108.463C174.295 110.318 174.735 112.11 174.955 113.965C175.05 115.033 175.175 116.197 175.647 117.36Z" fill="black"/>
<path d="M156.693 113.807C155.058 112.896 153.487 111.921 151.789 111.198C150.689 110.726 149.652 110.035 148.678 109.312C146.729 107.834 144.528 106.797 142.454 105.57C140.254 104.25 137.959 103.024 135.759 101.641C133.433 100.163 130.981 98.8426 128.844 97.1135C127.272 95.856 125.575 94.7242 124.16 93.2466C123.28 92.3349 122.337 91.4546 121.52 90.4486C120.011 88.5937 118.785 86.6759 118.754 84.1609C118.722 83.4378 118.628 82.7147 118.628 81.9916C118.596 80.7655 119.382 80.1996 120.2 79.8852C121.111 79.5708 121.771 78.9735 122.431 78.2819C122.808 77.8732 123.186 77.433 123.563 77.0558C124.82 75.8611 125.48 74.2263 126.518 72.9059C127.398 71.7741 127.775 70.4222 128.246 69.1333C128.624 68.0329 128.592 66.8383 128.875 65.7065C129.126 64.6376 129.284 63.5686 129.504 62.4997C129.567 62.2482 129.598 61.9967 129.629 61.7452C129.912 59.1673 130.258 56.5893 130.478 53.9799C130.604 52.2822 130.918 50.616 131.232 48.9812C131.547 47.2835 131.798 45.5544 133.401 44.454C133.464 44.7684 133.653 44.7684 133.936 44.737C137.896 44.3283 141.857 44.234 145.786 45.0828C147.515 45.4286 149.023 46.3089 150.564 47.032C152.324 47.8808 154.021 48.8869 155.624 50.0187C157.793 51.5591 159.648 53.3826 161.408 55.3946C162.979 57.2181 164.268 59.1987 165.431 61.2422C166.5 63.1285 167.412 65.1406 168.072 67.2784C169.109 70.548 168.763 73.8176 168.732 77.1186C168.7 79.508 168.009 81.7401 167.474 84.0037C166.94 86.2987 166.154 88.5308 165.494 90.7944C164.897 92.7121 164.205 94.6299 163.545 96.5162C163.482 96.7363 163.325 96.9249 163.2 97.1135C162.602 96.8934 162.005 96.7991 161.376 96.862C160.402 96.9563 160.213 97.4279 160.716 98.2453C161.188 98.9684 161.722 99.6286 162.319 100.257C161.879 100.603 161.754 101.106 161.565 101.609C160.245 104.879 159.05 108.211 157.699 111.481C157.29 112.204 156.976 112.99 156.693 113.807Z" fill="#FFD8D8"/>
<path d="M68.0526 69.4791C68.6813 70.0135 69.4671 70.3279 70.1272 70.8624C70.5987 71.2396 71.353 71.4911 71.9503 71.5855C73.3333 71.8055 74.7478 71.837 76.1623 71.5226C78.9912 70.9253 81.5058 69.6048 84.1462 68.5045C85.3406 68.0015 86.4093 67.2469 87.5095 66.5553C88.5468 65.8951 88.7039 66.0209 88.7354 67.2155C88.7668 68.3473 88.7668 69.4791 88.7668 70.5794C88.7353 72.4657 89.0182 74.3206 89.3326 76.1755C89.4897 77.0558 89.364 77.9675 89.4269 78.8478C89.5526 80.514 89.6155 82.2117 89.9927 83.8779C90.1498 84.5695 89.9298 85.104 89.2697 85.4184C87.2894 86.3616 85.4035 87.4619 83.5175 88.5937C80.6257 90.3542 77.7968 92.2091 74.9992 94.0954C74.4649 94.4727 73.9305 94.8499 73.3962 95.1958C73.3647 95.1958 73.3333 95.1958 73.3333 95.2272C72.4846 96.6105 70.7558 96.7677 69.6557 97.9309C68.587 99.0627 67.2039 99.9115 65.9466 100.886C63.6206 102.71 61.3574 104.596 59.1571 106.608C55.8567 109.595 52.5563 112.55 49.5702 115.851C49.2873 116.165 48.9415 116.291 48.6272 116.48C48.0928 116.794 48.03 117.454 47.6528 117.863C46.2069 119.466 44.6038 121.007 43.2522 122.704C41.9006 124.402 40.3918 125.974 39.1974 127.797C38.6944 128.583 38.0343 129.212 37.4057 129.841C36.1169 131.193 35.1425 132.796 34.1367 134.337C33.8538 134.777 33.3194 135.06 33.1623 135.531C32.8794 136.38 32.4393 137.103 31.9364 137.826C30.5219 139.838 29.296 141.945 28.133 144.114C26.97 146.315 25.7756 148.484 24.7383 150.748C24.2354 151.879 23.701 153.043 23.2924 154.237C23.261 154.3 23.1667 154.3 23.1038 154.332C21.6579 153.388 20.4006 152.225 19.2061 150.999C17.9488 149.679 16.7229 148.327 15.7171 146.786C14.6798 145.214 13.894 143.485 13.0453 141.819C12.8253 141.347 12.6681 140.876 12.6367 140.341C12.5738 138.99 11.8823 137.763 11.7566 136.412C11.6308 135.06 11.3479 133.708 11.3479 132.356C11.3479 129.338 11.5365 126.32 12.4481 123.396C12.4795 123.239 12.511 123.082 12.511 122.925C12.4795 121.258 13.2025 119.781 13.7054 118.272C14.2083 116.763 14.9313 115.379 15.6857 113.996C16.3772 112.707 17.0687 111.355 18.1374 110.255C18.7032 109.657 19.0804 108.966 19.5519 108.306C20.4949 106.954 21.595 105.728 22.8523 104.69C24.2039 103.558 25.4612 102.301 26.9386 101.295C29.1074 99.7858 31.4335 98.5911 33.8224 97.5536C35.9598 96.6419 38.2229 96.0132 40.5804 95.573C42.5921 95.1958 44.5723 95.1643 46.5526 95.2901C48.5957 95.4158 50.6074 95.7931 52.4305 96.8306C52.7449 97.0192 53.1849 97.0506 53.5621 97.0821C55.2909 97.2078 57.0197 97.1764 58.7485 97.0821C59.22 97.0506 59.7229 96.9563 60.1001 96.7048C61.2003 95.9188 62.5204 95.4787 63.3063 94.2212C63.7463 93.4666 64.4064 92.8379 65.0665 92.272C65.8523 91.5803 66.2924 90.6686 66.701 89.7569C67.424 87.9963 68.0212 86.2044 68.2412 84.318C68.3355 83.6264 68.6813 82.9348 68.9013 82.2745C69.5614 80.2939 69.5928 78.3133 69.3413 76.3012C69.1528 74.8865 69.1213 73.4403 68.7127 72.057C68.4612 71.1768 67.8954 70.4222 68.0526 69.4791Z" fill="#FFD8D8"/>
<path d="M118.314 13.9273C118.219 14.4303 117.905 14.2417 117.654 14.1159C116.176 13.4242 114.636 12.8269 113.064 12.4811C111.587 12.1353 110.204 11.6008 108.758 11.1921C105.992 10.4376 103.194 10.6262 100.428 10.8463C98.3538 11.0349 96.2164 11.5379 94.2047 12.4497C92.3188 13.2985 90.59 14.2731 88.9555 15.5621C87.2267 16.9139 85.5293 18.2972 84.0834 19.9635C83.0461 21.1896 82.2917 22.6043 81.5373 24.019C80.6258 25.7167 79.9343 27.5087 79.3999 29.3321C78.897 31.0298 78.6141 32.7904 78.394 34.5195C78.1112 36.6259 78.0797 38.7951 78.0483 40.9329C78.0483 42.2533 78.394 43.5109 78.394 44.8313C78.394 45.7745 78.1426 46.4975 77.5139 47.2206C76.1938 48.7925 74.9679 50.4902 73.6477 52.0936C72.359 53.6655 71.2274 55.3946 69.9072 56.9351C69.1214 57.8468 68.4927 58.8843 67.7383 59.796C67.2983 60.3305 67.0468 61.085 66.7954 61.7766C66.1038 63.6001 66.4496 65.3606 67.1726 67.0897C67.2669 67.3413 67.3612 67.5613 67.2983 67.8443C66.5439 67.0898 66.4182 66.0208 65.9781 65.1406C65.098 63.3171 64.1236 61.5566 63.3378 59.7017C62.4576 57.5639 61.6718 55.4261 61.3261 53.0996C60.7603 49.4528 60.2574 45.8059 60.3202 42.1276C60.3831 38.9837 60.7288 35.8399 61.2946 32.7275C61.8604 29.7408 62.8663 26.8799 64.0293 24.0819C65.0351 21.6611 66.261 19.3976 67.7069 17.1969C69.7186 14.1473 71.9818 11.3179 74.5593 8.73991C77.011 6.28771 79.8714 4.43284 82.8889 2.7666C84.7749 1.72913 86.9123 1.22611 88.9869 0.628783C91.9416 -0.188618 94.8962 -0.0314251 97.8509 0.0628904C100.146 0.157206 102.346 0.848853 104.452 1.72913C106.023 2.38934 107.626 2.98667 109.072 3.89839C110.581 4.87298 111.744 6.28771 113.001 7.51381C114.762 9.21149 116.208 11.2236 117.811 13.0784C118.094 13.2985 118.377 13.55 118.314 13.9273Z" fill="#FFD8D8"/>
<path d="M60.383 83.6893C58.6542 83.8779 57.7112 82.4317 56.8625 81.1113C56.2024 80.1367 55.8881 78.9421 55.9195 77.6845C55.9195 76.9614 56.2339 76.4584 56.894 76.2698C58.277 75.8925 59.7229 75.9554 60.6345 77.3387C61.6717 78.9106 62.4261 80.5769 62.489 82.5261C62.5204 83.1548 62.2061 83.5006 61.6089 83.6264C61.2945 83.6893 60.9488 83.6578 60.383 83.6893Z" fill="#FFD8D8"/>
<path d="M52.8078 82.6832C54.3166 82.5575 55.6053 83.2806 56.9569 83.7522C57.837 84.0665 58.6857 84.5067 59.5658 84.9154C60.4145 85.3241 60.7288 85.8585 60.5088 86.7074C60.3202 87.4305 59.6916 87.682 59.0315 87.7134C56.5797 87.7763 54.4109 87.0218 52.3677 85.7013C51.7391 85.2926 51.1104 84.8839 50.6075 84.3181C50.0731 83.7522 50.1674 83.3435 50.8904 82.9976C51.519 82.7147 52.1477 82.6518 52.8078 82.6832Z" fill="#FFD8D8"/>
<path d="M162.257 100.226C161.659 99.5971 161.125 98.9369 160.653 98.2138C160.119 97.3964 160.339 96.9563 161.314 96.8306C161.942 96.7677 162.539 96.862 163.137 97.0821C164.205 97.8051 165.274 98.5282 166.06 99.5971C166.689 100.446 166.437 101.043 165.18 101.2C164.363 101.295 163.608 101.106 162.917 100.635C162.697 100.477 162.477 100.352 162.257 100.226Z" fill="black"/>
<path d="M167.066 98.7483C166.689 98.8112 166.311 98.4339 166.091 97.9624C165.494 96.7363 165.117 95.4158 164.834 94.0954C164.708 93.561 165.18 93.4981 165.494 93.4352C166.217 93.2466 166.94 93.7181 167.286 94.567C167.632 95.4158 167.82 96.2961 167.915 97.1764C167.946 97.3965 167.883 97.6794 167.977 97.868C168.355 98.6226 167.883 98.7169 167.066 98.7483Z" fill="black"/>
<path d="M157.039 114.059C157.007 114.059 156.976 114.027 156.944 113.996C156.976 113.965 157.007 113.965 157.039 113.933C157.039 113.996 157.039 114.027 157.039 114.059Z" fill="#FFD8D8"/>
<path d="M107.155 110.695C106.589 111.575 105.552 111.701 104.703 112.078C103.446 112.644 102.126 113.116 100.774 113.556C98.8566 114.185 96.9078 114.719 95.0218 115.379C93.8274 115.788 92.6958 116.385 91.5328 116.92C89.5525 117.863 87.5408 118.743 85.5606 119.592C81.7887 121.227 78.2682 123.333 74.622 125.188C72.4217 126.32 70.2528 127.546 68.2097 128.898C65.7894 130.501 63.4634 132.262 61.2631 134.18C60.2886 135.028 59.2828 135.814 58.2455 136.569C56.9568 137.512 55.8252 138.675 54.6936 139.807C53.0591 141.41 51.456 143.077 49.8215 144.711C49.6329 144.9 49.5386 145.152 49.2243 145.183C47.967 144.271 46.9612 143.045 45.9553 141.882C45.2324 141.065 44.4465 140.31 43.6607 139.555C42.4348 138.392 41.1775 137.292 39.9517 136.097C39.323 135.5 39.4173 135.028 39.9517 134.18C41.1775 132.23 42.6234 130.47 44.0065 128.646C45.0752 127.263 46.2068 125.943 47.3069 124.591C48.1556 123.585 49.0043 122.547 49.853 121.573C50.6702 120.63 51.5189 119.686 52.399 118.806C52.7448 118.46 52.9334 118.114 53.0905 117.643C53.2477 117.108 53.8449 116.574 54.2221 116.448C55.2594 116.039 55.7309 115.128 56.4539 114.468C57.4597 113.524 58.3084 112.424 59.3771 111.575C60.5715 110.569 61.546 109.343 62.7718 108.368C63.1805 108.054 63.6205 107.645 64.0291 107.3C65.7894 105.759 67.581 104.187 69.3727 102.678C70.3157 101.861 71.353 101.138 72.4217 100.509C72.736 100.32 72.9246 100.069 73.1132 99.7229C73.5847 98.9055 74.4648 98.4654 75.2192 97.9309C75.7536 97.5536 76.3194 97.1449 76.8223 96.7048C77.1995 96.359 77.8281 96.3904 77.9853 96.076C78.2682 95.4787 78.834 95.3215 79.2426 94.9757C80.9085 93.561 82.9202 92.6492 84.649 91.3288C85.0262 91.0459 85.5606 90.8887 86.0635 90.7001C86.6293 90.5114 86.8179 90.983 86.8493 91.3917C87.1008 93.561 87.8552 95.5416 88.641 97.5536C89.4268 99.5028 90.2755 101.421 91.5642 103.087C93.293 105.319 95.0533 107.52 97.9136 108.463C99.2653 108.934 100.617 109.5 102 109.878C103.069 110.16 104.232 110.381 105.395 110.318C106.023 110.318 106.621 110.381 107.155 110.695Z" fill="#FFD8D8"/>
<path d="M92.1301 65.0148C93.0102 64.9519 93.3874 65.675 93.8274 66.178C94.7075 67.1526 95.4934 68.1901 96.2792 69.2276C96.4678 69.4791 96.5935 69.7306 96.9393 69.8249C97.4108 70.6109 97.9451 71.3654 98.3852 72.1828C99.0138 73.3775 99.8939 74.5092 100.963 75.4524C101.497 75.924 102 76.2069 102.66 76.1441C103.006 76.1126 103.226 76.2069 103.226 76.6156C103.226 76.9615 103.477 77.0558 103.729 77.213C104.232 77.5273 104.892 77.6845 105.143 78.3133C105.238 78.9106 105.363 79.508 105.363 80.1053C105.458 82.7776 105.803 85.387 106.275 87.9964C106.715 90.4486 106.998 92.9322 107.029 95.4473C107.029 95.6674 107.029 95.856 107.061 96.0761C107.344 97.9938 107.595 99.8801 107.626 101.829C106.149 102.175 104.766 101.641 103.446 101.138C102.597 100.823 101.654 100.226 101.12 99.3771C100.46 98.3711 99.391 97.7109 98.9195 96.5476C98.8881 96.4533 98.7624 96.3276 98.6366 96.2961C97.5679 96.0446 97.3165 95.07 96.8764 94.2841C95.5877 91.8947 95.3676 89.191 94.4561 86.6759C94.2046 85.9529 94.2675 85.1355 94.1417 84.3809C93.9846 83.2806 93.7017 82.1802 93.7331 81.0485C93.7646 79.5708 93.5131 78.0932 93.3559 76.6156C93.0416 73.7233 92.633 70.8624 92.4129 67.9386C92.3501 67.2155 92.3815 66.4296 91.9729 65.7379C91.8786 65.5493 91.9729 65.2349 92.1301 65.0148Z" fill="#FFD8D8"/>
<path d="M99.1396 13.3299C97.4422 15.059 96.2163 17.1025 95.3048 19.3661C94.5504 21.2839 94.1732 23.2959 93.6703 25.2765C93.0731 27.603 92.9473 29.9923 92.6959 32.3816C92.6016 33.2619 92.413 34.1422 92.5387 35.0225C92.8531 37.6633 92.8845 40.3356 93.5446 42.9135C93.6703 43.4166 93.7017 43.9824 94.0475 44.4226C94.0161 44.9885 93.576 45.3343 93.2617 45.743C92.9473 46.1517 92.413 46.0574 92.1301 45.6487C91.0614 44.234 89.4897 43.5737 87.981 42.8821C87.4466 42.6306 86.7237 42.6935 86.1264 42.8507C85.152 43.1022 84.1148 43.2908 83.2661 43.951C82.9517 44.1711 82.6374 44.234 82.4488 43.6681C82.0088 42.442 82.1345 41.1844 82.0716 39.9583C81.9459 37.4432 82.0716 34.8967 82.5745 32.4445C82.9203 30.7468 83.2032 29.0177 83.9262 27.3515C84.6177 25.6852 85.3406 24.019 86.3465 22.5414C86.7865 21.9126 86.9437 20.9066 87.9495 20.6865C88.3267 20.6237 88.1067 20.0578 88.3896 19.7748C89.4897 18.643 90.7156 17.637 91.9729 16.631C93.2931 15.5621 94.739 14.7132 96.3421 14.0844C97.2536 13.7386 98.1652 13.4871 99.1396 13.3299Z" fill="#FFD8D8"/>
<path d="M69.3414 64.1974C69.2157 62.5941 69.8444 61.368 70.3473 60.1104C70.9445 58.6328 71.9189 57.4696 72.9562 56.3064C74.3707 54.7659 75.6594 53.0996 77.1053 51.5906C78.1112 50.5846 79.0856 49.5785 79.9343 48.4782C80.3115 48.0066 80.9716 48.1009 81.1916 48.6668C81.5688 49.5785 81.8517 50.4902 81.8202 51.5277C81.7888 52.8167 82.4175 53.9799 82.8575 55.1746C83.3604 56.6208 84.5549 57.4696 85.5607 58.5071C86.378 59.3559 87.6039 59.8275 88.2011 60.9278C88.2954 61.1165 88.5783 61.1165 88.7669 61.1165C89.3955 61.1479 89.3641 61.368 88.9869 61.7767C87.7296 63.0971 86.4094 64.3546 84.8692 65.3292C84.3663 65.6436 83.9891 66.1152 83.2976 66.1152C82.9833 66.1152 82.7947 66.5868 82.4175 66.7754C81.0973 67.4985 79.6199 67.9072 78.3312 68.6303C76.791 69.5105 75.2508 69.2905 73.6477 69.259C72.7047 69.259 71.9818 68.9132 71.196 68.5045C70.5673 68.1901 70.2216 67.5613 70.0015 67.0269C69.6558 66.0837 69.0271 65.172 69.3414 64.1974Z" fill="#FFD8D8"/>
<path d="M46.9612 147.729C46.0183 148.39 45.3582 149.333 44.5409 150.119C43.2836 151.313 42.0577 152.602 40.8633 153.891C39.8574 154.992 38.9459 156.218 37.8772 157.287C37.0599 158.104 36.6827 159.173 35.9283 159.99C35.7712 160.179 35.6455 160.525 35.2683 160.148C33.508 158.45 31.8735 156.595 30.4276 154.614C30.0819 154.111 29.9561 153.483 29.4218 153.074C29.8933 152.005 30.3962 150.968 30.8677 149.867C31.3706 148.61 32.2193 147.509 32.7222 146.315C33.288 144.994 34.0738 143.831 34.7025 142.605C35.5197 141.065 36.4941 139.618 37.3743 138.141C37.72 137.543 38.0343 137.732 38.4115 138.109C39.826 139.681 41.3033 141.253 42.655 142.857C44.0066 144.428 45.421 145.937 46.8041 147.478C46.8984 147.541 46.9298 147.635 46.9612 147.729Z" fill="#FFD8D8"/>
<path d="M109.418 108.211C108.821 108.651 108.161 108.211 107.532 108.274C104.703 108.494 102.063 107.645 99.674 106.231C98.2595 105.413 97.0337 104.313 95.9335 103.024C95.0848 102.018 94.2676 100.98 93.6075 99.8487C92.9474 98.654 92.413 97.3965 91.8473 96.1704C91.2186 94.8499 90.4957 93.5924 90.1499 92.1777C89.8984 91.1402 89.1126 90.3542 88.9554 89.2853C88.8926 88.9395 88.8926 88.8138 89.2069 88.6251C90.9357 87.5248 90.6528 87.7134 91.3129 89.474C91.7844 90.7315 92.193 91.989 92.6959 93.2151C93.2617 94.5984 93.9532 95.9189 94.7705 97.1764C95.6506 98.5597 96.5307 99.9744 97.6937 101.106C98.7939 102.207 100.177 103.024 101.717 103.401C103.54 103.841 105.332 104.596 107.281 104.439C107.909 104.376 108.475 104.03 109.104 104.187C109.135 104.313 109.072 104.376 108.947 104.376C108.129 104.281 108.224 104.816 108.318 105.319C108.475 106.136 108.727 106.922 108.821 107.74C108.852 108.148 109.072 108.211 109.418 108.211Z" fill="#FFD8D8"/>
<path d="M89.5525 47.2206C88.9239 47.2521 88.7667 46.6862 88.4524 46.3404C87.9495 45.8059 87.3523 45.4601 86.6293 45.2715C86.5664 44.8942 86.7236 44.6741 87.1322 44.7056C87.4151 44.7056 87.698 44.7056 87.9809 44.3912C88.0123 44.9571 88.2009 45.24 88.641 45.523C89.2068 45.8688 89.7097 46.4032 89.5525 47.2206Z" fill="#FFD8D8"/>
<path d="M108.632 110.412C108.758 110.443 108.695 110.506 108.632 110.538C108.538 110.538 108.381 110.632 108.381 110.443C108.475 110.412 108.569 110.412 108.632 110.412Z" fill="#FFD8D8"/>
<path d="M119.854 48.5096C119.822 52.2508 120.294 55.5832 120.2 58.9472C120.168 59.4502 120.231 59.9218 120.042 60.3933C119.602 61.4937 118.188 61.7452 116.773 61.2107C115.673 60.802 115.202 59.8589 114.919 58.8214C114.825 58.5385 115.045 58.507 115.202 58.4756C115.736 58.3813 116.208 58.3498 116.522 58.9786C116.742 59.4187 117.119 60.1418 117.528 59.9846C118.062 59.8274 117.779 59.0415 117.748 58.5699C117.528 55.1431 117.245 51.7478 117.465 48.321C117.528 47.1263 117.622 45.9316 117.685 44.737C117.716 44.1396 118.094 43.9824 118.565 43.9824C119.037 43.9824 119.477 43.9196 119.602 44.6112C119.917 46.0574 119.791 47.5036 119.854 48.5096Z" fill="black"/>
<path d="M115.422 66.6496C113.662 66.5553 112.153 65.8322 110.738 64.8576C109.23 63.8201 107.784 62.6569 106.463 61.3679C106.181 61.085 105.961 61.085 105.772 61.3365C105.552 61.6195 105.238 61.6823 104.986 61.8081C104.515 61.9967 103.949 61.9967 103.603 61.6195C103.257 61.2422 103.477 60.8021 103.666 60.3934C104.075 59.4502 104.483 58.507 105.08 57.6582C105.489 57.0609 105.961 56.5893 106.778 56.5893C107.878 56.5893 108.255 57.1237 107.878 58.1298C107.689 58.6014 107.249 59.0415 107.375 59.5131C107.501 60.0161 108.098 60.2047 108.507 60.5191C110.864 62.3425 113.19 64.166 115.83 65.5807C115.862 65.6121 115.925 65.6436 115.956 65.675C116.333 65.7693 116.868 65.7379 116.773 66.3038C116.648 66.8697 116.082 66.5867 115.705 66.6496C115.579 66.681 115.516 66.6496 115.422 66.6496Z" fill="black"/>
<path d="M121.74 51.0247C121.771 49.5156 121.991 48.2895 122.714 47.1577C123.091 46.5604 123.657 46.3403 124.254 46.3403C124.883 46.3403 125.26 46.749 125.512 47.3778C126.203 49.0755 126.109 50.7732 125.575 52.4708C125.229 53.5712 124.474 53.9484 123.343 53.7913C122.526 53.6969 121.928 53.0053 121.803 51.9364C121.74 51.5591 121.74 51.1819 121.74 51.0247Z" fill="black"/>
<path d="M85.9065 48.4467C86.6609 48.3524 87.1324 48.5096 87.541 48.9183C88.3897 49.7357 89.4269 50.4588 89.8356 51.622C90.1813 52.5652 90.3385 53.5712 90.3385 54.5772C90.3385 54.8916 90.307 55.206 90.4013 55.5204C90.4642 55.8033 90.6214 56.1492 90.2756 56.2749C89.9927 56.4007 89.647 56.3692 89.3641 56.0863C88.6726 55.4575 88.2011 54.703 87.8553 53.8856C87.6353 53.3826 87.3838 53.1625 86.8495 53.1939C86.5037 53.2254 86.1265 53.1625 85.7493 53.1311C85.4664 53.1311 85.3093 53.0053 85.2778 52.7224C85.2778 52.4708 85.4664 52.3451 85.655 52.2822C85.875 52.2193 86.1265 52.2193 86.3465 52.1879C86.5351 52.1565 86.818 52.3137 86.8809 52.0307C86.9438 51.7792 86.818 51.5277 86.598 51.3391C85.8122 50.7103 85.6865 49.7043 85.2778 48.9183C84.9949 48.321 85.7807 48.4782 85.9065 48.4467Z" fill="black"/>
<path d="M111.996 50.9304C110.204 50.8675 108.475 50.3959 106.841 49.6414C106.463 49.4528 106.18 49.1384 106.401 48.7297C106.589 48.3524 106.526 47.7236 107.281 47.7551C108.507 47.7865 109.67 48.1323 110.864 48.3524C111.933 48.541 112.75 48.9812 113.284 49.9243C113.724 50.6789 113.567 50.9618 112.719 50.9618C112.467 50.9618 112.247 50.9304 111.996 50.9304Z" fill="black"/>
<path d="M101.78 46.8119C102.283 46.7805 102.723 47.032 103.194 47.1577C103.414 47.2206 103.572 47.3778 103.572 47.5979C103.572 47.8808 103.352 48.038 103.132 48.0694C102.314 48.1952 101.56 47.8808 100.868 47.4721C100.554 47.2835 100.648 46.9691 100.994 46.8748C101.246 46.8433 101.528 46.8433 101.78 46.8119Z" fill="black"/>
<path d="M101.686 49.7357C101.56 49.7043 101.434 49.7043 101.308 49.6728C101.088 49.61 100.806 49.7357 100.743 49.3899C100.68 49.0441 100.963 48.8869 101.151 48.824C101.623 48.6354 102.157 48.541 102.66 48.4467C103.006 48.3839 103.352 48.6354 103.446 48.8554C103.572 49.1384 103.194 49.2641 102.974 49.4213C102.534 49.7357 102.094 49.6728 101.686 49.7357Z" fill="black"/>
<path d="M187.748 123.27C186.711 123.239 185.862 122.516 184.92 122.044C183.568 121.384 182.311 120.598 181.273 119.529C181.116 119.341 180.77 119.183 180.865 118.932C180.99 118.649 181.399 118.649 181.713 118.68C182.656 118.775 183.568 119.089 184.448 119.435C185.611 119.906 186.837 120.315 187.937 121.007C188.22 121.195 188.503 121.384 188.691 121.667C188.911 122.013 189.257 122.327 189.069 122.799C188.786 123.302 188.283 123.207 187.748 123.27Z" fill="black"/>
</g>
<g clip-path="url(#clip1)">
<path d="M119.075 145.998C119.078 145.963 119.081 145.935 119.084 145.901C119.084 145.642 118.966 145.421 118.745 145.26C118.699 145.227 118.645 145.194 118.599 145.162C118.437 145.063 114.466 142.6 114.466 142.6C114.119 142.386 113.772 142.171 113.425 141.956L119.16 139.765C119.203 139.748 119.253 139.732 119.305 139.702C119.622 139.543 119.783 139.23 119.723 138.909C119.678 138.695 119.541 138.507 119.31 138.366C118.592 137.927 117.875 137.481 117.166 137.036L113.169 134.586C113.131 134.561 113.084 134.536 113.046 134.511C112.969 134.462 112.891 134.419 112.814 134.37C112.66 134.272 112.494 134.214 112.316 134.197C112.138 134.18 111.964 134.205 111.794 134.28C111.786 134.272 111.778 134.279 111.769 134.278L107.711 135.83C106.728 136.206 105.712 136.592 104.712 136.973C104.339 137.112 104.136 137.359 104.103 137.706C103.942 139.404 103.777 141.138 103.619 142.809L103.474 144.334C103.469 144.39 103.463 144.445 103.459 144.494C103.446 144.632 103.489 144.776 103.582 144.918C103.645 145.022 103.743 145.108 103.874 145.191C104.013 145.281 109.118 148.438 109.118 148.438C108.305 148.746 103.434 150.606 103.434 150.606C103.383 150.622 103.332 150.645 103.272 150.674C103.007 150.796 102.83 151.024 102.805 151.288C102.78 151.551 102.911 151.808 103.156 151.979C103.187 151.996 103.21 152.019 103.241 152.036L109.04 155.623L109.248 155.754C109.41 155.854 109.572 155.953 109.726 156.052C109.88 156.15 110.046 156.208 110.216 156.224C110.394 156.241 110.56 156.215 110.73 156.147L110.763 156.136L117.634 153.515L117.702 153.486C117.778 153.458 117.846 153.43 117.922 153.402C118.203 153.289 118.378 153.075 118.421 152.799C118.423 152.771 118.425 152.75 118.428 152.722L119.075 145.998ZM111.989 147.354C112.12 145.981 112.25 144.608 112.38 143.235C112.45 143.277 116.352 145.69 116.352 145.69C116.234 145.728 111.989 147.354 111.989 147.354ZM115.696 152.512L111.341 154.176C111.472 152.803 111.602 151.431 111.732 150.065C111.879 150.149 115.696 152.512 115.696 152.512ZM112.775 148.792C114.224 148.237 115.673 147.682 117.121 147.134C116.991 148.507 116.861 149.873 116.731 151.246C116.632 151.174 113.824 149.445 112.775 148.792ZM113.021 136.405C114.348 137.223 115.666 138.041 116.993 138.86C115.536 139.414 114.087 139.969 112.63 140.523L113.021 136.405ZM110.161 147.173C109.15 146.559 107.176 145.336 106.188 144.725C107.646 144.171 109.103 143.609 110.56 143.055C110.47 144.089 110.268 146.134 110.161 147.173ZM106.845 137.896C108.302 137.342 109.751 136.787 111.2 136.232C111.07 137.605 110.939 138.977 110.809 140.35C109.49 139.532 108.172 138.715 106.845 137.896ZM105.81 139.162C105.826 139.17 109.774 141.616 109.774 141.616C108.317 142.17 106.868 142.726 105.411 143.28C105.5 142.26 105.703 140.208 105.81 139.162ZM109.52 154.01C108.54 153.407 106.559 152.176 105.557 151.549C105.574 151.544 109.903 149.891 109.903 149.891C109.812 150.939 109.617 152.991 109.52 154.01Z" fill="black"/>
</g>
<defs>
<clipPath id="clip0">
<rect width="197.586" height="228.621" fill="white" transform="translate(11.3793)"/>
</clipPath>
<clipPath id="clip1">
<rect width="15.6882" height="22.1481" fill="white" transform="translate(104.508 133.448) rotate(5.42518)"/>
</clipPath>
</defs>
</svg>
