<svg width="240" height="240" viewBox="0 0 240 240" fill="none" xmlns="http://www.w3.org/2000/svg">
<g clip-path="url(#clip0)">
<path d="M16.5517 226.552C12.8276 226.552 5 167.931 1.55173 138.621H61.0345L80.6897 112.241L98.2759 49.6552L107.586 31.0345H132.931C135 31.0345 156.897 48.2759 167.586 56.8966L206.897 99.3103C211.207 118.793 219.931 158.276 220.345 160.345C220.759 162.414 222.931 176.724 223.966 183.621L206.897 211.552C202.414 213.103 192.517 216.414 188.793 217.241C184.138 218.276 185.172 226.552 185.69 226.552H16.5517Z" fill="white"/>
<path d="M37.005 137.084C36.7477 135.814 35.9025 134.814 35.4248 133.659C34.7634 132.043 33.6242 130.658 33.3302 128.811C33.1464 127.695 32.2645 126.695 31.7868 125.618C30.7211 123.04 29.7657 120.423 28.6265 117.884C27.671 115.767 27.7813 113.459 27.1933 111.304C26.5686 108.996 26.2011 106.61 25.8704 104.263C25.5397 101.877 25.3559 99.4147 25.3927 96.9907C25.4294 94.8745 25.3192 92.7582 25.4662 90.642C25.6499 87.333 26.3114 84.1394 27.2301 80.9458C27.8915 78.5987 29.0307 76.5594 30.0964 74.5201C30.8313 73.1349 31.8603 71.8652 32.8157 70.5954C33.6609 69.4796 34.4694 68.3638 35.3881 67.3249C36.123 66.5169 36.858 65.7473 37.7032 65.0548C39.1731 63.9004 40.6063 62.6692 42.0394 61.4379C44.2443 59.591 46.7431 58.2828 49.3155 57.1285C52.5493 55.7048 56.0403 55.397 59.4579 55.3201C63.5736 55.2046 67.6159 55.9742 71.4744 57.6672C74.157 58.8215 76.8029 60.0143 79.3017 61.5149C80.1469 62.0151 81.1758 62.2459 82.1313 62.4383C83.344 62.7077 84.1524 62.0536 84.8506 61.0147C86.541 58.5137 87.423 55.5894 88.8929 53.0114C89.9586 51.0491 90.8038 49.0098 91.9062 47.0475C92.4942 45.9702 93.3394 45.0082 93.7068 43.777C93.8538 43.1998 94.5153 43.3922 94.8093 43.0459C95.2503 43.2383 95.6912 43.4307 96.0955 43.6615C97.1979 44.3156 98.4106 44.7774 99.6967 44.8928C101.791 45.0852 102.049 45.393 102.049 47.6247C102.049 47.894 102.049 48.1249 102.049 48.3942C101.938 50.5874 102.232 52.7421 102.563 54.8583C102.857 56.7822 103.225 58.6676 103.592 60.5529C103.959 62.3998 104.253 64.3237 104.805 66.0936C105.87 69.5181 107.01 72.9041 108.296 76.2131C110.096 80.7534 112.228 85.1013 115.535 88.6797C116.711 89.9494 117.96 91.0268 117.556 93.066C117.556 93.1045 117.593 93.1815 117.593 93.2584C117.924 95.0668 118.328 96.8368 118.879 98.5683C118.989 98.9145 119.063 99.4917 118.438 99.3378C117.078 98.953 115.756 99.1454 114.396 99.3763C112.448 99.7226 110.574 100.377 108.773 101.185C105.319 102.685 101.902 104.263 98.7046 106.341C96.2057 107.995 93.6701 109.65 91.649 111.958C89.7013 114.113 87.6067 116.075 85.9531 118.538C84.7771 120.269 83.7114 122.078 82.4988 123.809C81.1758 125.733 80.5879 127.965 79.5957 130.042C78.53 132.274 77.3541 134.429 76.9866 136.93C76.8763 137.584 76.4721 137.969 75.6269 137.969C71.2539 137.892 66.8809 137.776 62.5447 137.584C58.0615 137.392 53.5782 137.584 49.0583 137.353C45.0895 137.084 41.0472 137.122 37.005 137.084Z" fill="#D9F1D2"/>
<path d="M128.287 15.2269C129.83 14.8422 131.337 14.265 132.88 13.8033C136.298 12.7259 139.825 12.4951 143.28 11.9179C146.734 11.3792 150.262 11.1484 153.79 11.6871C153.937 11.7255 154.084 11.7255 154.231 11.7255C156.95 11.8794 159.632 12.4951 162.205 13.3801C165.696 14.6113 169.04 16.2658 172.163 18.3436C174.662 19.9981 176.83 22.0374 178.888 24.2306C180.873 26.3853 182.637 28.6939 184.254 31.118C184.988 32.1953 185.723 33.3496 186.238 34.6194C186.532 35.2735 187.046 35.8122 187.377 36.4278C188.443 38.5056 189.398 40.6218 190.17 42.815C190.758 44.5465 191.015 46.3549 191.383 48.1633C192.007 51.0876 191.824 54.1273 192.522 57.09C192.742 57.9365 192.595 58.8599 192.669 59.7834C192.742 60.9377 193.036 61.1685 194.065 60.7838C197.078 59.6679 200.239 59.7834 203.326 60.1297C206.339 60.4375 209.169 61.5533 211.925 62.977C214.57 64.3621 216.922 66.1321 219.201 68.0175C220.891 69.4411 222.287 71.3265 223.61 73.1349C224.823 74.7894 226.036 76.4439 227.138 78.1754C228.057 79.6375 228.792 81.2151 229.564 82.7927C230.152 83.9854 230.886 85.1782 231.291 86.448C231.879 88.3334 233.202 89.9494 233.312 92.0271C234.231 92.9121 234.414 94.2203 234.855 95.3362C235.994 98.2989 236.95 101.3 237.758 104.34C238.199 105.956 238.383 107.61 238.971 109.188C239.155 109.688 239.081 110.265 239.118 110.804C239.412 113.382 240 115.883 240.037 118.499C240.073 120.885 240 123.271 239.596 125.618C239.449 126.58 239.265 127.58 239.081 128.542C238.824 129.889 238.346 131.197 237.832 132.467C236.656 135.429 235.112 138.2 233.496 140.893C232.54 142.471 231.879 144.241 231.107 145.972C229.27 149.974 226.256 152.936 223.243 155.861C222.986 156.091 222.655 156.322 222.288 156.361C221.81 156.245 221.663 155.784 221.626 155.399C221.442 153.898 220.854 152.59 220.377 151.205C219.715 149.127 218.943 147.088 218.172 145.087C217.657 143.74 217.143 142.355 216.518 141.047C215.71 139.392 215.195 137.546 214.276 135.891C212.513 132.736 210.822 129.581 208.875 126.58C207.111 123.886 205.163 121.347 203.142 118.884C201.562 116.96 199.798 115.19 197.85 113.69C196.527 112.689 195.315 111.497 193.955 110.573C192.154 109.38 190.243 108.418 188.369 107.418C188.112 107.264 187.561 107.149 187.781 106.61C187.965 106.225 188.406 106.341 188.7 106.456C190.317 107.072 191.897 106.764 193.477 106.379C194.433 106.148 195.351 105.61 195.792 104.686C196.638 102.916 197.225 101.031 197.299 99.0684C197.446 95.8364 197.483 92.6043 196.564 89.4877C196.123 88.0255 195.719 86.5634 194.91 85.2937C193.771 83.4468 192.595 81.6383 191.456 79.7914C189.802 77.1365 187.855 74.8664 185.099 73.4427C183.114 72.4039 181.056 71.4804 178.815 71.0187C177.455 70.7109 176.059 70.5185 174.699 70.2107C173.339 69.9028 172.016 69.5181 170.62 69.5181C169.297 69.5181 168.048 69.9798 166.798 70.2107C164.814 70.5569 162.977 71.3265 161.066 71.9421C158.677 72.7501 156.472 73.9814 154.341 75.4051C153.9 75.7129 153.716 75.6744 153.606 75.0972C153.018 72.5578 152.32 70.0183 151.915 67.4403C151.732 66.2475 151.401 64.9778 152.136 63.9389C153.606 61.8611 154.635 59.6679 155.112 57.1285C155.48 55.0892 155.774 53.0499 154.892 51.1645C153.643 48.3557 153.79 45.4314 154.047 42.5072C154.304 39.8523 155.076 37.2358 155.149 34.504C155.223 32.1953 154.341 30.6178 152.871 29.1941C151.989 28.3476 151.033 27.732 149.747 27.5396C149.086 27.4242 148.388 27.2703 147.8 26.847C147.248 26.5007 147.212 26.2314 147.726 25.7697C148.351 25.1925 148.902 24.5384 148.792 23.5765C148.608 21.5372 146.697 20.8061 145.154 21.3063C144.676 21.4602 144.162 21.5372 143.684 21.8065C143.316 22.0374 142.912 21.845 142.912 21.2294C142.912 20.2674 142.949 19.3055 142.875 18.3436C142.802 17.1893 142.435 16.1889 141.369 15.5732C140.634 15.15 139.825 15.15 139.09 15.4578C138.392 15.7656 138.466 16.5352 138.466 17.2278C138.466 18.536 138.429 19.8827 138.429 21.1909C138.429 21.4218 138.466 21.6526 138.209 21.768C137.951 21.8835 137.841 21.6911 137.694 21.4987C137.327 21.0755 136.959 20.6522 136.592 20.229C135.048 18.3051 133.137 16.9199 130.896 15.9965C129.977 15.4963 129.058 15.7656 128.287 15.2269Z" fill="#D9F1D2"/>
<path d="M128.287 15.227C129.058 15.8042 129.977 15.5348 130.822 15.8811C133.101 16.8046 134.975 18.1897 136.518 20.1136C136.886 20.5368 137.253 20.9601 137.621 21.3833C137.768 21.5757 137.878 21.7296 138.135 21.6527C138.392 21.5372 138.356 21.3064 138.356 21.0755C138.392 19.7673 138.392 18.4206 138.392 17.1124C138.392 16.4198 138.319 15.6502 139.017 15.3424C139.752 15.0346 140.56 15.0346 141.295 15.4579C142.361 16.0735 142.729 17.0739 142.802 18.2282C142.876 19.1901 142.839 20.1521 142.839 21.114C142.839 21.7296 143.206 21.8835 143.61 21.6911C144.088 21.4218 144.603 21.3448 145.08 21.1909C146.624 20.6907 148.535 21.4218 148.718 23.4611C148.829 24.3845 148.277 25.0771 147.653 25.6543C147.138 26.116 147.212 26.3853 147.726 26.7316C148.314 27.1549 149.049 27.3088 149.674 27.4242C150.923 27.6166 151.915 28.2322 152.797 29.0787C154.267 30.5024 155.149 32.1184 155.076 34.3886C154.966 37.1204 154.194 39.6984 153.973 42.3918C153.716 45.2776 153.569 48.2403 154.819 51.0491C155.664 52.9345 155.407 55.0123 155.039 57.0131C154.561 59.5526 153.532 61.7842 152.062 63.8235C151.328 64.8624 151.658 66.1706 151.842 67.3249C152.246 69.9029 152.944 72.4424 153.532 74.9819C153.643 75.5205 153.826 75.559 154.267 75.2897C156.362 73.866 158.604 72.6348 160.992 71.8267C162.866 71.2111 164.74 70.4416 166.725 70.0953C168.011 69.8644 169.224 69.4027 170.547 69.4027C171.943 69.4027 173.266 69.7875 174.626 70.0953C175.985 70.4031 177.382 70.5955 178.741 70.9033C180.946 71.365 183.004 72.2885 185.025 73.3273C187.745 74.751 189.692 77.0211 191.383 79.6761C192.522 81.523 193.698 83.3314 194.837 85.1783C195.645 86.448 196.05 87.9101 196.491 89.3723C197.409 92.5274 197.373 95.721 197.226 98.9531C197.152 100.954 196.564 102.801 195.719 104.571C195.278 105.494 194.359 106.033 193.404 106.264C191.824 106.648 190.243 106.956 188.627 106.341C188.369 106.225 187.892 106.11 187.708 106.495C187.487 106.995 188.039 107.149 188.296 107.303C190.17 108.303 192.081 109.265 193.881 110.458C195.278 111.381 196.491 112.535 197.777 113.574C199.761 115.075 201.488 116.845 203.068 118.769C205.09 121.231 207.037 123.771 208.801 126.464C210.785 129.465 212.476 132.659 214.203 135.776C215.122 137.43 215.636 139.277 216.445 140.932C217.106 142.24 217.584 143.625 218.098 144.972C218.87 146.972 219.605 149.012 220.303 151.089C220.744 152.475 221.369 153.821 221.553 155.283C221.589 155.668 221.736 156.13 222.214 156.245C222.067 157.708 222.802 158.939 223.059 160.285C223.427 162.132 223.941 163.902 224.345 165.711C224.823 167.75 225.374 169.751 225.742 171.79C226.073 173.714 226.514 175.599 226.55 177.562C226.587 179.062 226.918 180.524 226.808 182.063C226.55 185.603 226.109 189.028 224.823 192.375C222.618 198.031 219.384 202.957 215.158 207.151C212.329 209.959 209.316 212.537 205.604 214.076C203.987 214.769 202.223 215.038 200.606 215.808C199.541 216.347 198.438 216.885 197.373 217.424C196.674 217.77 195.976 217.963 195.241 218.193C194.984 218.116 194.837 218.386 194.653 218.424C192.448 218.655 190.39 219.579 188.149 219.732C187.671 219.771 187.083 219.732 187.01 220.502C186.716 223.118 187.34 225.85 186.128 228.351C185.76 228.582 185.356 228.505 184.952 228.505C172.788 228.467 160.661 228.659 148.498 228.39C135.82 228.082 123.105 228.236 110.427 228.082C104.548 228.005 98.6679 228.082 92.7882 227.928C82.1314 227.659 71.4745 227.967 60.8544 227.659C50.9325 227.389 40.9738 227.505 31.0519 227.274C30.0229 227.236 28.9573 227.236 27.9283 227.274C24.621 227.428 21.3505 226.928 18.0432 226.928C17.3817 226.928 16.6835 226.697 16.0588 226.389C15.1033 225.927 15.2136 224.85 15.0298 224.003C14.4786 221.31 14.0009 218.578 13.5599 215.885C13.1557 213.461 12.7882 210.998 12.3472 208.574C11.943 206.189 11.4285 203.841 10.9876 201.456C10.6936 199.724 10.4731 197.993 10.1424 196.262C9.84839 194.569 9.40742 192.914 9.18693 191.221C8.96644 189.49 8.59897 187.797 8.30498 186.065C7.90076 183.487 7.38629 180.948 6.94531 178.37C6.65133 176.754 6.3941 175.099 6.13686 173.483C5.69589 170.905 5.25491 168.366 4.81394 165.788C4.51996 164.018 4.22597 162.286 3.93199 160.516C3.60126 158.592 3.27053 156.707 2.9398 154.783C2.64582 152.975 2.42533 151.128 2.0946 149.32C1.76387 147.357 1.46989 145.356 1.10241 143.394C0.734932 141.316 0.183714 139.315 -0.110268 137.238C-0.257259 136.16 0.0367231 135.968 0.918671 136.468C1.17591 136.584 1.35964 136.622 1.61688 136.622C9.00319 136.661 16.4263 136.507 23.8126 136.738C28.1488 136.891 32.485 136.776 36.8213 136.968C40.8636 137.007 44.9058 136.968 48.9113 137.161C53.3946 137.392 57.9145 137.199 62.3978 137.392C66.7708 137.584 71.1438 137.661 75.48 137.776C76.3252 137.776 76.7294 137.392 76.8397 136.738C77.2072 134.237 78.3831 132.043 79.4488 129.85C80.441 127.772 81.0657 125.541 82.3518 123.617C83.5278 121.885 84.6302 120.077 85.8061 118.345C87.4598 115.921 89.5544 113.921 91.5021 111.766C93.5599 109.496 96.0588 107.803 98.5576 106.148C101.755 104.071 105.172 102.493 108.627 100.992C110.427 100.223 112.301 99.5302 114.249 99.1839C115.609 98.9531 116.932 98.7222 118.291 99.1454C118.879 99.3378 118.842 98.7222 118.732 98.3759C118.181 96.6444 117.777 94.8745 117.446 93.0661C117.446 92.9891 117.409 92.9506 117.409 92.8737C117.813 90.8729 116.564 89.757 115.388 88.4873C112.081 84.9474 109.949 80.5995 108.149 76.0207C106.826 72.7117 105.723 69.2872 104.658 65.9013C104.107 64.0928 103.813 62.2075 103.445 60.3606C103.078 58.4752 102.71 56.5513 102.416 54.666C102.085 52.5113 101.828 50.3565 101.902 48.2018C101.902 47.9325 101.902 47.7016 101.902 47.4323C101.902 45.2006 101.608 44.8543 99.5498 44.7004C98.2637 44.585 97.051 44.1233 95.9485 43.4692C95.5443 43.2383 95.1033 43.0459 94.6624 42.8535C93.266 41.3144 91.943 39.7369 91.2816 37.6976C90.5099 35.3505 90.8406 33.1958 92.2003 31.195C93.119 29.8483 94.1846 28.7709 95.8383 28.4246C96.9407 28.1553 97.6757 27.3088 98.2637 26.3084C99.4028 24.423 100.138 22.3068 101.203 20.3444C102.453 18.0358 104.364 16.6891 106.716 15.8042C108.075 15.304 109.472 15.0346 110.868 14.8422C111.493 14.7653 112.081 14.9577 112.669 15.0731C114.506 15.4963 116.307 15.9965 118.144 16.4583C118.401 16.5352 118.695 16.5737 118.953 16.4967C120.459 16.035 121.966 15.6502 123.509 15.3424C125.2 15.15 126.743 15.227 128.287 15.227ZM111.677 78.2524C111.566 78.9065 111.897 79.4837 112.191 80.0223C113.073 81.7153 114.065 83.2929 115.057 84.9474C116.086 86.7174 117.556 88.1025 118.953 89.5262C119.21 89.7955 119.467 89.7955 119.798 89.8725C120.974 91.1807 122.591 91.6424 124.134 91.6809C126.633 91.7194 128.764 90.3342 130.785 88.8721C134.387 86.3326 136.665 82.7157 138.503 78.7141C139.789 75.9438 141.001 73.1734 142.251 70.4031C142.545 69.7105 143.133 69.672 143.721 69.8259C144.345 69.9798 144.456 70.4416 144.345 71.0187C144.235 71.6343 144.162 72.2885 143.904 72.8656C142.582 75.8668 141.406 78.9065 140.009 81.8692C137.657 86.7943 134.093 90.1803 129.242 92.2196C128.801 92.412 128.691 92.5659 128.948 93.1045C131.19 97.7987 133.542 102.416 135.416 107.264C136.151 109.188 137.033 111.073 137.51 113.113C137.621 113.536 137.584 114.382 138.172 114.421C138.723 114.459 139.017 113.728 139.274 113.228C140.413 112.574 141.222 111.535 141.847 110.381C142.802 109.226 143.831 108.111 144.676 106.879C148.241 101.762 151.548 96.452 155.847 91.9502C156.031 91.7578 156.141 91.6039 156.031 91.2961C155.002 88.7566 154.157 86.1402 153.496 83.4468C152.687 80.3302 151.291 77.4059 150.556 74.2508C149.894 71.4035 149.049 68.5947 149.233 65.555C149.27 64.9393 149.233 64.3622 149.6 63.7466C151.254 61.0532 152.503 58.1289 152.503 54.8968C152.503 51.9341 152.32 48.9714 149.123 47.5092C148.461 47.2014 147.947 47.3169 147.542 47.6631C146.881 48.2018 146.256 48.8559 145.926 49.7409C145.374 51.0491 145.117 52.3958 144.823 53.7425C144.713 54.3197 144.603 54.8968 144.088 55.2431C142.545 56.2435 141.001 56.9361 139.017 56.5513C136.224 56.0127 134.607 52.973 134.166 50.7413C133.836 48.9329 133.836 47.086 133.505 45.2391C133.101 42.8535 132.366 40.6218 131.557 38.3517C130.675 35.8122 126.78 34.3501 124.832 35.9661C124.097 36.5818 123.068 36.7741 122.076 36.8511C119.394 37.005 117.115 36.0046 115.021 34.3501C113.808 33.3882 112.595 33.619 111.824 34.8888C110.978 36.3124 110.207 37.7745 109.398 39.1982C109.141 39.8523 108.406 40.1601 108.333 40.9297C107.965 41.0066 107.818 41.3144 107.598 41.5838C106.422 42.9305 105.503 44.585 103.555 44.9698C103.261 45.0467 103.261 45.3545 103.335 45.5854C103.813 47.086 103.923 48.6251 104.07 50.1642C104.18 51.2415 104.327 52.3189 104.511 53.3578C104.842 55.2431 105.172 57.09 105.503 58.9754C105.87 61.0147 106.128 63.1309 106.752 65.1317C107.855 68.8255 109.141 72.4424 110.684 75.9438C110.648 76.2516 110.684 76.4825 111.015 76.5594V76.6364C110.942 77.2905 111.162 77.8292 111.677 78.2524ZM172.568 227.351C173.192 227.389 173.854 227.428 174.479 227.428C177.676 227.428 180.91 227.428 184.107 227.428C185.172 227.428 185.54 227.159 185.393 226.043C185.209 224.658 185.393 223.272 185.393 221.849C185.429 219.925 185.172 219.54 183.739 219.54C176.61 219.463 169.481 219.502 162.389 219.386C152.871 219.271 143.316 219.194 133.799 219.001C129.426 218.924 125.053 218.924 120.68 218.886C117.96 218.886 115.278 218.424 112.559 218.501C111.309 218.54 111.346 218.463 111.346 219.732C111.383 221.656 111.971 223.503 112.081 225.389C112.081 225.812 112.081 226.274 112.118 226.697C112.375 227.005 112.742 226.851 113.073 226.851C125.2 226.889 137.363 226.928 149.49 226.966C150.85 226.966 152.246 226.928 153.606 226.928C159.89 227.428 166.21 227.389 172.568 227.351ZM166.137 83.5622C165.659 84.1009 165.255 84.6781 164.74 85.1783C161.249 88.5258 158.42 92.5274 155.296 96.2212C151.842 100.3 149.27 105.109 145.779 109.188C143.574 111.766 141.589 114.575 138.723 116.46C137.988 116.922 137.253 116.883 136.775 116.114C136.298 115.344 135.857 114.575 135.489 113.728C133.799 109.765 132.108 105.763 130.455 101.762C129.499 99.5302 128.507 97.2985 127.699 94.9899C127.221 93.5663 126.67 92.6428 125.053 93.1815C125.016 93.1815 124.943 93.1815 124.869 93.1815C123.509 92.8737 122.113 92.7967 120.79 92.1811C120.239 91.9118 119.908 92.0272 120.092 92.7967C120.276 93.5663 120.312 94.3743 120.57 95.1438C121.746 98.4529 122.811 101.839 124.061 105.148C125.494 108.957 127.037 112.689 129.279 116.075C130.381 117.768 131.557 119.384 133.284 120.423C134.534 121.193 135.93 121.501 137.327 121.193C138.98 120.846 140.524 120 141.994 119.192C146.44 116.845 150.556 113.998 154.708 111.112C158.567 108.418 162.168 105.34 166.284 103.032C168.121 102.031 169.922 100.877 172.09 100.8C173.523 100.761 174.92 100.646 176.353 100.761C178.962 100.954 181.534 101.416 183.996 102.416C185.283 102.916 186.495 103.647 187.781 104.147C188.48 104.417 189.141 104.802 189.986 104.648C191.713 104.301 192.154 103.609 192.485 101.569C192.706 101.569 192.669 101.416 192.742 101.262C193.183 100.338 192.963 99.2993 193.183 98.3759C193.845 95.1823 193.33 92.0272 192.669 88.949C192.485 88.1025 192.265 87.1791 191.86 86.448C190.354 83.6777 188.59 81.0227 186.863 78.4063C185.356 76.0977 183.298 74.4816 180.799 73.4812C178.484 72.5578 176.132 71.9037 173.707 71.4035C172.788 71.2111 171.833 70.8648 170.841 70.9418C170.253 71.0187 169.738 71.2881 169.187 71.365C167.938 71.5574 166.725 71.8652 165.512 72.2115C163.822 72.7502 162.095 73.2504 160.478 73.9814C158.457 74.8664 156.435 75.7514 154.488 76.8288C153.9 77.1366 153.643 78.5217 153.973 79.1759C154.304 79.7915 155.149 79.9839 155.921 79.5991C156.987 79.0989 157.979 78.4063 159.008 77.8292C160.955 76.7903 163.013 75.9438 165.071 75.1742C166.357 74.674 167.68 74.0969 169.113 74.2893C170.62 74.4817 171.245 75.4821 170.62 76.9442C169.922 78.4833 169.077 79.9454 167.938 81.2151C167.35 82.0232 166.615 82.6773 166.137 83.5622ZM218.098 160.17C218.245 159.631 217.878 159.247 217.768 158.823C217.253 156.899 216.739 154.937 216.151 153.052C215.416 150.782 214.57 148.588 213.725 146.357C212.329 142.624 210.932 138.854 209.022 135.352C207.037 131.736 205.053 128.157 202.811 124.694C200.276 120.77 197.52 117.114 194.065 113.959C191.86 111.958 189.472 110.342 187.01 108.803C184.584 107.264 182.196 105.648 179.954 103.801C179.476 103.378 179.072 102.878 178.374 102.762C175.287 102.224 172.421 102.685 169.701 104.301C165.328 106.841 161.36 109.996 157.17 112.843C154.047 114.96 150.887 116.999 147.579 118.73C146.991 119.038 146.293 119.23 145.852 119.846C144.235 120.539 142.618 121.231 141.001 121.924C140.009 122.347 138.943 122.463 137.951 122.655C136.775 122.924 135.636 123.309 134.424 122.886C134.056 122.77 133.762 122.501 133.358 122.386C131.116 121.693 129.205 120.462 127.699 118.499C124.024 113.767 121.819 108.226 120.055 102.493C119.504 100.685 118.769 99.9535 117.262 100.223C115.719 100.531 114.175 100.915 112.706 101.454C109.913 102.531 107.267 103.955 104.584 105.34C98.8884 108.303 94.1846 112.497 90.2526 117.73C87.2393 121.77 84.52 126.002 82.6091 130.735C81.9109 132.428 80.8084 133.89 80.294 135.699C79.8162 135.968 80.147 136.545 79.853 136.93C79.6325 137.161 79.559 137.546 79.7428 137.815C79.9632 138.123 80.294 137.815 80.5512 137.815C81.8741 138.277 83.2338 138.354 84.5935 137.892C84.7772 137.815 85.0712 137.776 85.2182 137.892C86.0634 138.315 86.9453 138.277 87.8273 138.238C91.0243 138.161 94.1846 138.469 97.345 138.623C97.9697 138.661 98.5576 138.854 98.9619 139.354C99.5866 140.123 100.285 140.778 101.02 141.432C101.865 142.24 102.71 142.855 102.967 144.356C103.372 146.703 103.886 149.089 104.254 151.436C104.548 153.283 104.805 155.13 105.099 157.015C105.429 159.17 105.76 161.286 106.091 163.441C106.385 165.364 106.605 167.288 106.936 169.212C107.414 171.944 107.745 174.676 108.222 177.369C108.7 180.063 109.031 182.795 109.435 185.488C109.986 189.105 110.611 192.683 111.162 196.3C111.603 199.109 111.897 201.918 112.412 204.688C112.595 205.688 112.559 206.727 112.889 207.689C113.073 208.189 113.147 208.497 113.734 208.074C114.102 207.805 114.58 207.651 115.057 207.497C117.63 206.65 120.276 206.381 122.958 206.343C123.473 206.343 123.987 206.342 124.502 206.227C126.045 205.881 127.588 205.573 129.169 205.265C131.447 204.842 133.652 203.995 135.82 203.149C137.547 202.456 139.237 201.533 141.148 201.379C141.847 201.302 142.214 201.033 142.471 200.456C143.169 199.07 144.235 198.147 145.448 197.3C147.028 196.146 149.012 195.761 150.335 194.222C150.409 194.145 150.556 194.107 150.666 194.145C151.364 194.222 151.952 193.799 152.54 193.53C154.525 192.568 156.288 191.259 158.346 190.49C160.514 189.682 162.462 188.412 164.006 186.565C165.512 184.795 166.431 182.602 167.607 180.601C169.995 176.484 171.833 172.098 173.339 167.558C174.111 165.211 175.03 162.902 175.765 160.516C176.243 158.977 176.977 157.592 177.345 156.015C178.153 155.36 178.3 154.245 178.631 153.36C179.66 150.705 180.505 147.973 181.387 145.279C181.828 143.856 182.232 142.432 183.041 141.201C183.335 140.778 183.629 140.393 184.033 140.123C184.437 139.854 184.915 139.816 185.319 140.085C185.76 140.393 185.503 140.778 185.466 141.162C185.393 141.586 185.136 141.893 184.989 142.278C184.18 144.356 183.702 146.549 183.078 148.665C182.049 152.051 180.836 155.36 179.587 158.669C179.55 158.9 179.513 159.131 179.44 159.324C178.153 162.556 177.308 165.98 176.169 169.251C175.434 171.405 174.662 173.56 173.744 175.676C172.678 178.023 171.465 180.294 170.253 182.564C168.93 185.142 167.423 187.643 165.108 189.413C163.454 190.682 161.58 191.49 159.669 192.298C157.722 193.106 156.031 194.53 154.047 195.261C151.768 196.108 151.621 196.262 151.438 198.724C151.438 198.801 151.401 198.916 151.401 198.993C151.181 203.611 150.96 208.266 151.511 212.884C151.695 214.384 152.136 215.846 152.026 217.347C151.989 218.04 152.246 218.155 152.834 218.116C154.157 218.04 155.443 218.04 156.766 218.001C156.913 218.463 157.281 218.27 157.538 218.27C165.365 218.309 173.156 218.347 180.983 218.386C181.35 218.386 181.718 218.424 182.085 218.463C183.813 218.771 185.54 218.924 187.304 218.386C188.075 218.155 188.847 217.77 189.692 217.847C189.876 217.847 190.06 217.809 190.096 217.539C190.537 217.385 190.942 217.231 191.383 217.116C192.816 216.731 194.249 216.423 195.498 215.538C196.674 214.73 197.997 214.192 199.357 213.73C201.415 213.037 203.436 212.306 205.237 210.998C209.536 207.843 213.395 204.226 216.261 199.532C217.547 197.416 218.796 195.338 219.752 193.029C220.818 190.451 221.479 187.797 221.773 185.026C221.994 183.025 222.03 181.025 221.883 179.024C221.773 177.523 221.516 176.061 221.332 174.56C221.222 173.752 221.112 172.944 220.928 172.136C220.34 169.712 219.825 167.288 219.237 164.864C218.87 163.21 218.686 161.632 218.098 160.17ZM108.663 224.465C108.921 223.08 108.333 221.772 108.186 220.425C107.965 218.501 107.487 216.654 107.267 214.73C107.12 213.538 106.973 212.306 106.752 211.152C106.238 208.42 105.981 205.611 105.466 202.88C105.025 200.532 104.695 198.147 104.327 195.761C103.923 192.991 103.372 190.259 103.114 187.489C103.041 186.642 102.931 185.796 102.747 184.949C102.343 182.871 102.049 180.755 101.718 178.677C101.461 176.985 101.203 175.292 100.983 173.599C100.689 171.405 100.395 169.212 100.101 167.019C99.8071 164.864 99.4763 162.748 99.1823 160.593C98.8884 158.477 98.6679 156.361 98.3739 154.245C97.9697 151.243 97.5287 148.204 97.2715 145.164C97.2715 144.933 97.2347 144.702 97.198 144.51C96.8305 143.394 96.4998 142.278 96.463 141.124C96.4263 140.316 96.1323 140.162 95.5443 140.2C94.1846 140.354 92.8617 140.239 91.5388 140.2C85.6224 139.97 79.706 140.2 73.7529 139.854C68.5347 139.546 63.3165 139.7 58.0983 139.431C54.0193 139.239 49.9035 139.277 45.8245 139.2C43.5094 139.162 41.1943 138.815 38.8792 139.085C35.2044 138.931 31.5664 138.738 27.8916 138.623C24.4005 138.507 20.9462 138.392 17.4552 138.277C12.4207 138.123 7.38629 137.776 2.35184 137.699C1.76387 137.699 1.80062 138.007 1.91086 138.354C2.24159 139.392 2.42533 140.431 2.68257 141.47C3.41752 144.164 3.93199 146.895 4.44646 149.627C4.85069 151.744 5.25491 153.86 5.65914 156.015C6.10011 158.362 6.57784 160.67 6.98206 163.017C7.27604 164.71 7.57003 166.403 7.86401 168.096C8.30498 170.674 8.78271 173.252 9.26043 175.869C9.51766 177.408 9.81164 178.947 10.0689 180.486C10.4731 182.871 10.9876 185.219 11.3918 187.604C11.8328 190.028 12.1635 192.491 12.6045 194.915C13.1557 198.07 13.7804 201.225 14.3316 204.38C14.8828 207.497 15.3606 210.652 15.9118 213.807C16.5732 217.578 17.3449 221.349 17.9329 225.158C18.0799 226.12 18.3371 226.351 19.2558 226.351C38.4749 226.389 57.6573 226.197 76.8764 226.62C87.4598 226.851 98.0432 226.697 108.627 226.735C109.435 226.735 109.655 226.62 109.251 225.773C108.994 225.312 108.884 224.85 108.663 224.465ZM122.664 217.308C124.208 217.385 125.678 216.962 127.111 216.539C130.198 215.615 133.248 214.538 136.261 213.422C136.922 213.191 137.437 213.114 137.731 213.769C137.988 214.423 137.327 214.654 136.922 214.923C136.812 215 136.702 215.038 136.592 215.115C135.526 215.769 134.203 215.923 133.211 216.731C132.99 216.924 132.513 216.962 132.623 217.308C132.696 217.616 133.137 217.539 133.395 217.693C133.468 217.732 133.578 217.732 133.652 217.732C135.82 217.77 137.988 217.77 140.156 217.809C140.487 217.809 140.707 217.732 140.56 217.308C140.046 215.692 139.972 213.999 139.936 212.345C139.825 209.421 140.45 206.612 141.001 203.765C141.038 203.572 141.406 203.457 141.185 203.187C141.001 202.995 140.707 203.072 140.487 203.187C137.915 204.534 135.158 205.381 132.66 206.843C128.581 209.19 124.502 211.537 120.423 213.922C119.357 214.538 118.328 215.269 117.262 215.962C117.299 216.039 117.336 216.116 117.373 216.193C118.842 215.846 120.202 215.115 121.635 214.538C125.163 213.076 128.397 210.883 131.998 209.536C133.064 209.113 134.056 208.42 135.269 208.497C135.673 208.536 136.04 208.767 136.077 209.113C136.151 209.421 135.71 209.575 135.452 209.69C132.99 210.69 130.602 211.922 128.287 213.23C126.302 214.346 124.355 215.577 122.664 217.308ZM99.6233 142.394C99.7336 145.472 100.322 148.473 100.763 151.474C101.13 154.014 101.644 156.515 102.085 159.054C102.379 160.824 102.6 162.594 102.931 164.326C103.335 166.403 103.629 168.52 103.96 170.597C104.217 172.213 104.474 173.868 104.768 175.484C105.135 177.6 105.613 179.716 105.87 181.871C106.091 183.833 106.348 185.796 106.605 187.758C106.899 189.913 107.304 192.029 107.598 194.184C107.855 196.338 108.112 198.493 108.48 200.609C108.921 203.38 109.251 206.15 109.766 208.882C110.28 211.652 110.574 214.461 110.978 217.27C111.089 218.193 111.75 217.732 112.191 217.809C112.706 217.924 112.779 217.578 112.779 217.116C112.742 216.27 112.412 215.5 112.375 214.692C112.301 213.653 112.118 212.614 111.934 211.575C111.493 208.805 111.015 206.073 110.574 203.303C110.28 201.379 110.023 199.455 109.729 197.57C109.288 194.607 108.81 191.606 108.333 188.643C108.039 186.681 107.781 184.718 107.487 182.795C107.157 180.678 106.826 178.524 106.495 176.407C106.201 174.522 105.907 172.637 105.65 170.751C105.282 168.019 104.731 165.326 104.327 162.594C103.996 160.593 103.776 158.554 103.482 156.553C103.151 154.206 102.784 151.859 102.416 149.473C102.159 147.627 101.902 145.78 101.644 143.894C101.608 143.663 101.497 143.433 101.314 143.356C100.763 143.009 100.395 142.394 99.6233 142.394ZM142.839 213.499C142.839 214.346 142.839 214.923 142.839 215.5C142.839 215.808 142.876 216.116 143.28 216.039C145.117 215.808 146.955 215.577 148.792 215.346C149.453 215.269 149.564 214.807 149.417 214.269C149.012 212.691 149.012 211.075 148.792 209.459C148.755 209.113 148.682 208.882 148.277 209.074C147.138 209.652 145.889 209.921 144.75 210.498C143.463 211.191 142.324 211.922 142.839 213.499ZM148.718 203.303C147.432 203.88 146.293 204.38 145.338 205.188C144.345 205.996 143.169 206.65 143.169 208.266C143.169 209.113 143.39 209.228 144.015 208.92C145.338 208.266 146.734 207.843 148.167 207.689C148.424 207.651 148.682 207.651 148.682 207.304C148.755 205.996 148.718 204.688 148.718 203.303ZM114.984 209.844C115.021 209.921 115.021 210.036 115.057 210.113C115.792 210.113 116.491 210.075 117.226 210.113C120.018 210.306 122.738 210.306 125.053 208.305C125.09 208.266 125.163 208.266 125.237 208.228C125.42 208.151 125.751 208.189 125.641 207.843C125.567 207.535 125.273 207.728 125.09 207.728C122.591 207.728 120.129 208.112 117.703 208.651C116.748 208.882 115.756 209.151 114.984 209.844ZM119.724 211.498C117.74 211.152 115.829 211.345 113.918 210.96C113.404 210.844 113.477 211.268 113.477 211.575C113.44 212.537 113.881 213.422 113.881 214.384C113.881 215.077 113.992 215.346 114.69 214.846C116.344 213.692 118.034 212.614 119.724 211.498ZM144.309 203.534C145.852 202.841 147.028 201.764 148.571 201.648C149.012 201.61 149.012 201.34 149.012 200.994C149.049 200.109 149.086 199.224 149.123 198.301C149.123 198.185 149.343 198.031 149.159 197.916C149.012 197.801 148.865 197.839 148.682 197.954C147.726 198.57 146.808 199.224 146.109 200.109C145.338 201.11 144.639 202.148 144.309 203.534ZM143.316 217.424C143.316 217.501 143.316 217.578 143.316 217.693C143.39 217.732 143.463 217.809 143.537 217.809C145.595 217.847 147.616 217.847 149.674 217.886C149.931 217.886 150.152 217.77 150.152 217.424C150.115 217.078 149.858 217.039 149.637 217.039C147.469 217.039 145.411 217.578 143.316 217.424ZM117.409 217.616C117.409 217.693 117.409 217.732 117.446 217.809C118.071 217.809 118.659 217.809 119.283 217.809C119.541 217.809 119.798 217.77 119.724 217.385C119.688 216.962 119.357 217.078 119.173 217.155C118.548 217.27 117.96 217.462 117.409 217.616Z" fill="black"/>
<path d="M70.4822 27.6551C70.4455 26.0006 70.9232 24.5384 72.3931 23.6919C74.1203 22.73 75.2962 23.538 76.4354 25.231C76.8764 25.8467 77.2806 26.4623 77.8318 26.9625C79.3752 28.4246 80.1102 30.387 80.7716 32.4262C81.2861 34.0808 81.5433 35.7353 81.1391 37.4667C80.6246 39.6215 77.8318 41.1605 76.0679 39.4675C75.4432 38.8519 74.8185 38.3902 74.3408 37.5052C73.9365 36.7741 73.3486 35.9661 72.8709 35.1966C71.8419 33.5421 70.2985 29.5789 70.4822 27.6551Z" fill="#D9F1D2"/>
<path d="M186.201 228.428C187.414 225.927 186.789 223.195 187.083 220.579C187.157 219.809 187.745 219.848 188.222 219.809C190.427 219.656 192.522 218.732 194.727 218.501C194.91 218.463 195.057 218.232 195.315 218.27C195.682 219.348 196.16 220.348 196.27 221.541C196.344 222.349 196.233 223.041 195.829 223.696C195.388 224.35 195.204 225.042 195.057 225.773C194.837 226.889 194.359 227.62 193.073 227.967C191.089 228.505 189.068 228.39 187.083 228.621C186.789 228.621 186.458 228.736 186.201 228.428Z" fill="#D9F1D2"/>
<path d="M217.033 40.4679C217.143 42.084 216.187 43.1998 215.269 44.2002C214.46 45.0467 213.615 45.9702 212.476 46.4319C212.072 46.5858 211.814 46.7012 211.373 46.5858C210.822 46.3934 210.234 46.6243 209.867 47.0475C209.389 47.5862 208.838 47.7786 208.25 47.971C207.074 48.3173 205.641 47.7786 205.31 46.8551C204.906 45.6623 205.09 44.2387 206.339 43.3152C207.662 42.3148 208.948 41.276 209.94 39.7753C210.786 38.4671 212.255 37.5052 213.946 37.3898C215.636 37.2743 217.033 38.698 217.033 40.4679Z" fill="#D9F1D2"/>
<path d="M69.4166 41.6992C71.401 41.7377 73.7896 43.3537 74.1938 44.8928C74.5613 46.1625 73.7528 47.3553 72.5034 47.4708C71.7684 47.5477 71.0702 47.4323 70.372 47.1245C69.3063 46.7012 68.2406 46.3549 67.3587 45.5469C66.5502 44.8158 66.4767 44.0848 67.1382 43.1613C67.7629 42.3148 68.3509 41.4683 69.4166 41.6992Z" fill="#D9F1D2"/>
<path d="M204.391 33.5036C204.171 35.5814 204.171 37.6976 203.473 39.6984C203.252 40.2756 202.922 40.6988 202.297 40.6988C201.672 40.6988 201.341 40.314 201.084 39.6984C200.496 38.3132 200.349 36.8896 200.717 35.4274C200.937 34.4655 201.011 33.5036 201.231 32.5417C201.525 31.195 202.187 30.7332 203.473 30.9641C203.767 31.0411 203.877 31.2334 203.987 31.4258C204.391 32.0799 204.355 32.811 204.391 33.5036Z" fill="#D9F1D2"/>
<path d="M218.098 160.17C217.253 160.247 216.812 161.055 216.151 161.478C214.607 162.479 212.954 163.094 211.263 163.633C208.507 164.518 205.678 164.787 202.775 164.826C200.753 164.864 198.732 165.326 196.674 165.249C192.669 165.134 188.921 164.095 185.503 161.978C183.96 161.017 182.269 160.285 180.799 159.17C180.469 158.9 180.285 158.285 179.697 158.554C180.946 155.245 182.159 151.936 183.188 148.55C183.813 146.434 184.29 144.241 185.099 142.163C185.246 141.778 185.503 141.47 185.577 141.047C185.65 140.624 185.871 140.239 185.43 139.97C185.025 139.7 184.548 139.739 184.143 140.008C183.739 140.277 183.408 140.662 183.151 141.085C182.343 142.317 181.938 143.779 181.498 145.164C180.616 147.857 179.77 150.589 178.741 153.244C178.411 154.129 178.264 155.206 177.455 155.899C175.214 154.283 173.119 152.475 170.804 150.936C169.959 150.358 169.187 149.589 168.415 148.935C166.835 147.588 165.402 146.126 163.895 144.664C161.948 142.778 160.184 140.662 158.53 138.507C157.207 136.814 155.848 135.121 154.598 133.352C152.43 130.235 150.262 127.118 148.351 123.848C147.543 122.501 146.624 121.231 145.962 119.769C146.403 119.153 147.102 118.961 147.69 118.653C150.997 116.922 154.157 114.883 157.281 112.766C161.47 109.919 165.439 106.764 169.812 104.224C172.568 102.608 175.434 102.108 178.484 102.685C179.182 102.801 179.587 103.339 180.064 103.724C182.269 105.61 184.695 107.187 187.12 108.726C189.582 110.304 191.971 111.92 194.176 113.882C197.593 116.999 200.386 120.693 202.922 124.617C205.163 128.08 207.147 131.659 209.132 135.275C211.043 138.777 212.476 142.509 213.836 146.28C214.681 148.511 215.526 150.743 216.261 152.975C216.886 154.86 217.363 156.823 217.878 158.746C217.915 159.247 218.282 159.631 218.098 160.17Z" fill="#D9F1D2"/>
<path d="M108.663 224.465C108.075 224.504 107.598 224.157 107.12 223.888C105.76 223.157 104.511 222.233 103.151 221.464C102.232 220.925 101.461 219.848 100.615 219.04C98.0431 216.5 96.5732 213.268 95.14 209.959C94.1111 207.689 93.3026 205.304 92.3472 202.995C91.943 201.995 91.796 200.84 91.355 199.763C90.1056 196.723 89.1869 193.568 87.9742 190.49C87.3127 188.797 86.688 187.065 86.1001 185.334C85.4754 183.487 84.5199 181.717 83.638 179.986C82.6825 178.062 81.5066 176.215 80.6246 174.291C79.7794 172.406 78.3463 171.944 76.7661 171.328C74.1203 170.289 71.4009 169.405 68.8653 168.135C66.5502 167.019 64.1984 165.942 61.9935 164.595C58.7229 162.594 55.4524 160.555 52.5861 157.861C50.0137 155.437 47.6619 152.859 45.4202 150.128C43.8033 148.165 42.5539 145.857 41.1207 143.74C40.5695 142.932 40.0918 142.124 39.5406 141.355C39.0996 140.739 39.0629 139.854 38.8056 139.046C41.1207 138.777 43.4359 139.123 45.751 139.162C49.83 139.239 53.9457 139.2 58.0247 139.392C63.2429 139.662 68.4979 139.508 73.6793 139.816C79.5957 140.162 85.5121 139.931 91.4652 140.162C92.8249 140.2 94.1478 140.316 95.4708 140.162C96.0587 140.085 96.3527 140.277 96.3895 141.085C96.4262 142.24 96.7569 143.394 97.1244 144.471C97.1979 144.664 97.1979 144.895 97.1979 145.126C97.4551 148.165 97.8961 151.166 98.3003 154.206C98.5943 156.322 98.8148 158.439 99.1088 160.555C99.4028 162.71 99.7335 164.826 100.027 166.98C100.321 169.174 100.615 171.367 100.909 173.56C101.13 175.253 101.387 176.946 101.644 178.639C101.975 180.717 102.269 182.833 102.673 184.911C102.82 185.757 102.967 186.604 103.041 187.45C103.335 190.221 103.886 192.991 104.253 195.723C104.584 198.108 104.915 200.494 105.393 202.841C105.907 205.573 106.164 208.382 106.679 211.114C106.899 212.268 107.046 213.499 107.193 214.692C107.414 216.616 107.892 218.463 108.112 220.387C108.332 221.772 108.92 223.042 108.663 224.465Z" fill="#D9F1D2"/>
<path d="M112.044 225.504C111.934 223.58 111.346 221.772 111.309 219.848C111.272 218.578 111.272 218.655 112.522 218.617C115.241 218.54 117.961 218.963 120.643 219.001C125.016 219.04 129.389 219.04 133.762 219.117C143.28 219.271 152.834 219.386 162.352 219.502C169.481 219.579 176.61 219.579 183.702 219.656C185.136 219.656 185.393 220.04 185.356 221.964C185.356 223.349 185.172 224.734 185.356 226.158C185.503 227.274 185.136 227.582 184.07 227.543C180.873 227.543 177.639 227.543 174.442 227.543C173.817 227.543 173.156 227.505 172.531 227.466C172.127 226.697 171.502 226.389 170.657 226.427C168.856 226.466 167.056 226.466 165.255 226.466C161.801 226.466 158.346 226.427 154.892 226.389C154.341 226.389 153.79 226.389 153.569 227.12C152.209 227.12 150.813 227.159 149.453 227.159C137.327 227.12 125.163 227.082 113.036 227.043C112.706 227.043 112.375 227.197 112.081 226.889C112.485 226.851 112.853 226.851 113.257 226.812C113.477 226.774 113.624 226.504 113.404 226.427C112.889 226.158 112.706 225.427 112.044 225.504Z" fill="#D9F1D2"/>
<path d="M192.485 101.608C189.949 99.5687 188.112 96.8753 186.017 94.4128C184.621 92.7967 183.041 91.3731 181.387 90.0264C178.962 88.0256 176.5 86.0632 173.633 84.6781C171.208 83.5238 168.672 83.5238 166.137 83.5622C166.615 82.6773 167.313 81.9847 167.974 81.2536C169.113 79.9839 169.959 78.5602 170.657 76.9827C171.282 75.5205 170.657 74.5201 169.15 74.3277C167.68 74.1354 166.394 74.7125 165.108 75.2127C163.05 75.9822 160.992 76.8287 159.045 77.8676C158.016 78.4448 157.023 79.1374 155.958 79.6376C155.186 79.9839 154.304 79.83 154.01 79.2143C153.679 78.5602 153.937 77.2135 154.525 76.8672C156.472 75.7899 158.493 74.9049 160.514 74.0199C162.168 73.3273 163.859 72.7887 165.549 72.25C166.762 71.8652 168.011 71.5574 169.224 71.4035C169.812 71.3265 170.326 71.0572 170.877 70.9802C171.87 70.8648 172.788 71.2111 173.744 71.442C176.169 71.9422 178.521 72.5963 180.836 73.5197C183.335 74.5201 185.393 76.1362 186.899 78.4448C188.627 81.0612 190.39 83.7161 191.897 86.4865C192.301 87.2175 192.522 88.141 192.706 88.9875C193.367 92.1041 193.881 95.2208 193.22 98.4144C193.036 99.3763 193.22 100.377 192.779 101.3C192.669 101.454 192.706 101.608 192.485 101.608Z" fill="#D9F1D2"/>
<path d="M115.866 68.9025C116.38 67.5943 116.564 66.4784 116.748 65.3241C116.858 64.6315 117.115 63.9774 117.189 63.2848C117.225 62.9001 117.409 62.7846 117.74 62.7846C118.034 62.7846 118.254 62.9386 118.291 63.2848C118.475 64.747 118.512 66.2476 118.144 67.7097C117.96 68.3638 117.924 69.0564 117.63 69.7105C117.372 70.2492 117.336 70.9033 116.564 70.9418C115.756 70.9803 115.021 70.9803 114.543 70.0568C114.065 69.1334 113.771 68.133 113.587 67.1326C113.11 64.5546 112.779 61.9382 112.301 59.3602C111.603 55.3971 111.53 51.4339 111.677 47.4323C111.713 46.5858 112.081 45.8547 112.117 45.0083C112.117 44.662 112.375 44.4311 112.742 44.4696C113.073 44.4696 113.44 44.5081 113.514 44.9698C113.587 45.47 113.771 45.9317 113.771 46.4704C113.771 49.3562 113.551 52.2419 113.918 55.0892C114.359 58.4752 114.653 61.8997 115.241 65.2857C115.388 66.4015 115.498 67.5558 115.866 68.9025Z" fill="black"/>
<path d="M118.622 77.0596C118.034 77.0596 117.74 76.9827 117.446 76.7518C117.299 76.6364 117.115 76.5594 117.189 76.3285C117.226 76.1362 117.373 76.0207 117.556 75.9823C120.459 75.2897 122.15 73.058 123.73 70.6724C124.943 68.8255 126.045 66.9401 127.258 65.0932C127.552 64.6315 127.919 64.2467 128.287 63.9005C128.654 63.5542 129.058 63.5542 129.463 63.862C129.904 64.2083 129.426 64.4776 129.316 64.7469C128.323 66.7862 127.662 69.0179 126.376 70.9033C124.979 72.9426 123.73 75.1358 121.305 76.1746C120.312 76.5209 119.357 76.8672 118.622 77.0596Z" fill="black"/>
<path d="M145.742 56.6668C146.109 54.666 146.55 52.5882 147.983 50.8952C148.351 50.472 148.755 50.4335 149.233 50.5105C149.711 50.5874 149.858 50.8568 149.747 51.3185C149.49 52.2804 149.306 53.2423 148.976 54.1273C148.755 54.7045 148.976 54.9353 149.306 55.2431C149.931 55.8203 150.629 56.3205 150.703 57.3209C150.74 57.7057 150.703 57.975 150.409 58.1289C150.115 58.2828 149.747 58.2828 149.527 57.8981C149.527 57.8596 149.49 57.8596 149.49 57.8211C149.233 57.3979 148.829 56.7822 148.535 56.8592C148.094 56.9746 148.241 57.7057 148.094 58.1674C147.91 58.6676 148.241 59.3987 147.322 59.3987C146.477 59.3602 146.073 58.86 145.889 58.052C145.779 57.6672 145.779 57.2055 145.742 56.6668Z" fill="black"/>
<path d="M118.107 42.1225C120.57 42.2379 122.921 42.7766 125.09 44.0848C125.604 44.4311 125.751 44.8543 125.273 45.393C124.869 45.8547 124.391 46.0086 123.877 45.8932C121.562 45.3545 119.21 45.1237 116.968 44.3926C116.784 44.3157 116.601 44.2002 116.417 44.0463C116.123 43.8539 115.609 43.7 115.756 43.1998C115.939 42.6611 116.197 42.084 116.931 42.084C117.336 42.1225 117.74 42.1225 118.107 42.1225Z" fill="black"/>
<path d="M120.276 49.7794C121.525 49.8179 121.966 50.1642 122.37 51.4339C122.591 52.165 123.179 52.7806 123.105 53.6271C123.068 54.2043 123.215 54.8968 122.554 55.0892C121.856 55.2816 121.047 55.397 120.533 54.666C119.798 53.5886 119.283 52.3574 119.1 51.0491C118.953 50.0487 119.283 49.7409 120.276 49.7794Z" fill="black"/>
<path d="M107.23 54.666C107.23 54.0119 107.157 53.4347 107.781 53.2808C108.296 53.1269 108.663 53.3578 109.068 53.8195C109.913 54.7814 110.464 55.8203 110.721 57.09C110.831 57.7442 110.684 58.3213 110.648 58.9754C110.648 59.2448 110.39 59.4371 110.06 59.4371C109.398 59.4756 108.774 59.3602 108.406 58.7061C108.112 58.1674 107.855 57.6287 107.708 57.0516C107.524 56.2435 107.12 55.4355 107.23 54.666Z" fill="black"/>
<path d="M109.766 42.8535C110.06 45.1621 108.369 46.1241 107.157 47.3938C106.642 47.9325 105.834 47.7401 105.246 47.4323C104.731 47.1245 104.915 46.4704 105.099 46.0471C105.907 44.3541 107.046 42.9689 108.737 42.1994C109.472 41.8531 109.802 42.1224 109.766 42.8535Z" fill="black"/>
</g>
<g clip-path="url(#clip1)">
<path d="M59.5068 179.627C59.5019 179.592 59.498 179.564 59.4931 179.53C59.4328 179.278 59.2667 179.091 59.0137 178.986C58.9615 178.965 58.9013 178.946 58.8491 178.925C58.6683 178.866 54.2322 177.399 54.2322 177.399C53.8446 177.271 53.4571 177.143 53.0695 177.015L58.1359 173.546C58.1732 173.52 58.2186 173.492 58.262 173.451C58.5334 173.222 58.6162 172.88 58.4837 172.582C58.39 172.385 58.2126 172.234 57.9546 172.151C57.1543 171.892 56.353 171.625 55.5598 171.358L51.1015 169.908C51.0583 169.893 51.0071 169.879 50.9639 169.864C50.8776 169.834 50.7922 169.811 50.7059 169.781C50.5332 169.721 50.3583 169.703 50.1812 169.728C50.0042 169.754 49.841 169.819 49.6928 169.931C49.6838 169.926 49.6767 169.934 49.6686 169.935L46.0843 172.391C45.2162 172.986 44.3179 173.598 43.4347 174.202C43.105 174.425 42.9651 174.712 43.0139 175.057C43.2534 176.746 43.4978 178.47 43.7334 180.132L43.9484 181.649C43.9562 181.704 43.964 181.759 43.9709 181.808C43.9904 181.946 44.0663 182.075 44.1895 182.192C44.2756 182.278 44.391 182.339 44.5376 182.389C44.6932 182.444 50.3945 184.323 50.3945 184.323C49.6757 184.812 45.3725 187.757 45.3725 187.757C45.3271 187.785 45.2827 187.819 45.2313 187.861C45.0023 188.042 44.8836 188.305 44.9208 188.567C44.9579 188.829 45.145 189.048 45.4231 189.157C45.4572 189.166 45.4843 189.183 45.5185 189.192L51.9949 191.327L52.2279 191.407C52.4086 191.466 52.5893 191.525 52.762 191.584C52.9347 191.644 53.1096 191.662 53.2786 191.638C53.4557 191.613 53.6108 191.549 53.76 191.443L53.7902 191.425L59.8599 187.272L59.9194 187.229C59.9869 187.184 60.0464 187.14 60.1139 187.095C60.36 186.92 60.4806 186.671 60.4576 186.393C60.4537 186.365 60.4508 186.344 60.4469 186.317L59.5068 179.627ZM52.9332 182.598C52.7397 181.233 52.5461 179.868 52.3526 178.502C52.4299 178.526 56.7877 179.963 56.7877 179.963C56.6819 180.027 52.9332 182.598 52.9332 182.598ZM57.7415 186.749L53.895 189.384C53.7015 188.018 53.508 186.653 53.3154 185.295C53.4781 185.342 57.7415 186.749 57.7415 186.749ZM54.0333 183.814C55.3127 182.936 56.5922 182.059 57.8726 181.188C58.0662 182.553 58.2588 183.912 58.4523 185.277C58.3389 185.23 55.205 184.204 54.0333 183.814ZM51.3817 171.711C52.8628 172.197 54.3358 172.685 55.8169 173.171C54.5293 174.05 53.2499 174.928 51.9624 175.807L51.3817 171.711ZM51.1134 182.849C49.9867 182.488 47.7817 181.76 46.6792 181.396C47.9667 180.517 49.2533 179.631 50.5408 178.752C50.6945 179.778 50.9748 181.814 51.1134 182.849ZM45.7245 174.602C47.012 173.723 48.2914 172.845 49.5709 171.968C49.7644 173.333 49.958 174.698 50.1515 176.064C48.6785 175.576 47.2055 175.088 45.7245 174.602ZM45.0137 176.074C45.0307 176.079 49.4407 177.536 49.4407 177.536C48.1532 178.415 46.8738 179.293 45.5862 180.172C45.4345 179.159 45.1532 177.117 45.0137 176.074ZM52.0852 189.647C50.9917 189.289 48.7777 188.555 47.6571 188.179C47.6723 188.17 51.4965 185.552 51.4965 185.552C51.6522 186.593 51.9415 188.634 52.0852 189.647Z" fill="black"/>
</g>
<defs>
<clipPath id="clip0">
<rect width="240" height="217.241" fill="white" transform="translate(0 11.3793)"/>
</clipPath>
<clipPath id="clip1">
<rect width="15.6882" height="22.1481" fill="white" transform="translate(42.4138 170.822) rotate(-8.06777)"/>
</clipPath>
</defs>
</svg>
