<svg width="351" height="351" viewBox="0 0 351 351" fill="none" xmlns="http://www.w3.org/2000/svg">
<path d="M103.636 189.116L150.537 155.832L145.241 83.2109L198.95 114.226L242.069 127.842L232.235 155.832L221.644 170.204L248.121 189.116L251.147 280.648L248.121 321.498L111.2 330.575L106.662 310.151C99.8534 310.403 85.4806 310.756 82.4547 310.151C79.4289 309.545 71.1078 300.317 67.3254 295.778L64.2996 271.571L75.6465 239.043L103.636 189.116Z" fill="white"/>
<g clip-path="url(#clip0)">
<path d="M246.932 131.397C248.114 131.34 248.789 130.32 249.802 129.867C253.685 128.054 255.88 128.111 259.875 130.377C259.987 127.148 258.862 124.258 258.524 121.312C258.243 119.103 257.793 116.78 260.494 115.816C263.082 114.91 265.108 116.156 266.346 118.423C267.415 120.349 268.26 122.445 269.329 124.598C269.892 123.238 270.398 121.935 271.017 120.689C272.03 118.706 273.718 117.913 275.913 118.196C278.107 118.479 278.332 120.236 278.67 121.935C279.233 125.335 278.951 128.677 278.895 132.077C278.895 133.436 278.445 135.023 280.752 133.38C283.341 131.567 285.817 132.757 286.211 135.986C286.661 139.952 286.548 143.918 285.479 147.77C283.172 155.702 280.921 163.69 278.558 171.622C278.276 172.642 278.164 173.322 279.064 174.002C279.852 174.625 280.358 175.588 280.133 176.495C279.345 180.574 281.427 183.01 284.523 185.163C286.773 186.693 288.124 189.185 289.475 191.622C296.509 204.369 302.023 217.796 302.474 232.414C302.811 243.121 303.149 254.169 299.829 264.651C295.496 278.305 279.57 289.692 265.502 289.579C261.394 289.522 257.68 288.049 253.685 286.463C253.797 292.185 254.529 297.624 254.135 303.12C253.685 309.125 253.685 315.187 252.672 321.136C252.334 323.289 251.434 324.989 249.858 326.462C245.975 329.974 241.755 332.694 236.522 333.884C229.375 335.47 222.735 338.699 215.757 340.796C203.94 344.365 191.785 345.328 179.517 346.064C169.613 346.631 159.709 346.688 149.805 346.064C140.013 345.441 130.278 343.968 120.712 341.702C115.478 340.456 111.708 337.963 110.245 332.127C109.007 327.028 106.7 322.213 105.631 317C105.18 314.621 104.111 314.111 102.085 314.281C99.1029 314.564 96.1204 314.677 93.1379 314.451C79.5761 313.714 71.304 305.896 65.114 294.621C60.1619 285.613 60.4996 276.265 61.5688 266.577C63.0319 253.546 68.0964 241.932 73.8363 230.431C74.2865 229.581 75.2431 228.788 74.5116 227.598C75.0743 226.918 75.7496 226.351 76.1998 225.445C79.9138 217.513 84.3031 209.921 90.1555 203.463C97.9212 194.908 105.743 186.353 115.422 179.837C123.919 174.172 132.248 168.336 140.407 162.161C146.485 157.515 151.155 151.793 150.086 143.181C149.242 136.156 148.961 129.131 148.961 122.049C148.961 120.915 148.679 120.122 147.667 119.272C144.853 116.78 141.814 114.457 139.788 111.114C138.1 108.338 135.849 106.185 132.079 106.978C130.953 107.205 129.715 106.865 128.534 106.412C123.525 104.599 119.699 101.426 116.829 96.9502C116.716 96.7236 116.604 96.4403 116.491 96.2137C116.21 95.4205 115.872 94.6273 115.703 93.8342C114.972 89.8683 114.522 85.9024 116.322 81.9932C117.617 79.2737 119.811 78.1406 122.681 77.914C123.131 77.8573 124.595 77.8006 123.469 76.3276C121.893 74.1747 120.712 71.7385 119.192 69.5289C114.128 61.9938 116.322 54.232 121.049 49.4162C123.863 46.5268 127.746 45.677 131.629 45.1671C132.417 45.0538 133.261 45.2237 133.148 44.1473C132.473 38.9916 134.217 34.2326 135.624 29.4168C138.719 25.0544 141.702 20.5219 146.372 17.6891C153.181 13.5533 160.103 9.19082 168.319 9.13416C182.781 9.07751 198.312 15.4229 203.996 30.9465C206.359 37.4053 209.792 43.0708 214.012 48.3964C217.051 52.1924 218.627 56.7248 218.852 61.7105C218.964 64.26 218.345 66.5829 216.882 68.6225C216.151 69.6989 215.757 70.3788 217.164 71.2286C219.865 72.9283 220.765 75.8744 221.722 78.7638C221.047 79.9536 221.159 81.3133 221.103 82.6164C221.047 84.0894 221.384 85.7324 220.484 87.0355C216.657 92.701 211.987 97.4601 205.065 99.0465C203.489 99.3864 202.589 100.066 201.914 101.369C199.269 106.468 196.174 111.341 192.066 115.477C191.222 116.326 189.928 117.346 190.096 119.272C190.772 127.204 191.053 135.193 191.785 143.124C192.066 146.127 191.391 149.413 193.642 152.019C195.33 154.002 197.412 155.475 199.607 156.778C208.216 161.991 218.008 164.993 226.505 170.432C226.843 170.716 227.18 171.056 227.574 171.339C234.721 176.211 241.868 181.027 247.382 187.826C247.776 188.336 248.114 188.959 248.902 188.222C249.689 187.542 249.689 186.976 249.127 186.069C247.27 183.18 247.045 179.554 248.283 176.834C249.296 174.568 248.62 173.435 247.832 171.962C246.82 170.036 245.75 168.166 244.569 166.353C243.218 164.257 242.261 162.104 242.149 159.555C241.868 153.492 242.318 147.544 245.188 142.048C245.413 141.595 245.638 141.255 245.413 140.745C244.625 139.045 245.019 137.232 245.019 135.476C245.863 134.966 245.638 134.173 245.694 133.38C246.088 133.21 246.313 132.926 246.313 132.473L246.257 132.53C246.932 132.303 247.213 131.963 246.932 131.397ZM122.119 339.096C122.231 339.209 122.287 339.322 122.4 339.436C122.456 339.379 122.569 339.266 122.512 339.266C122.456 339.153 122.344 339.039 122.287 338.926C120.262 331.901 119.699 331.391 114.522 331.901C114.972 336.433 117.504 338.926 122.119 339.096ZM168.037 126.241C164.155 126.014 160.384 125.448 156.783 123.692C153.463 122.105 152.956 122.672 153.463 126.298C153.575 126.921 153.519 127.601 153.575 128.281C153.969 135.136 154.194 141.991 153.688 148.847C153.519 150.943 154.307 152.303 156.051 153.549C159.484 155.985 163.198 157.685 167.193 158.931C173.552 160.234 179.236 158.251 184.638 155.192C187.058 153.832 189.196 151.963 187.958 148.393C187.395 146.807 187.452 145.051 187.339 143.351C186.72 135.873 185.707 128.394 186.439 120.292C180.53 124.258 174.452 125.675 168.037 126.241ZM158.077 40.0114C154.757 38.0851 151.324 38.765 148.398 40.5213C143.502 43.5241 139.788 47.7732 137.762 53.3255C136.074 57.9146 134.836 62.5603 133.992 67.376C132.642 75.2512 132.923 83.0696 134.949 90.5481C137.537 100.01 143.165 107.998 150.536 114.457C155.545 118.876 161.51 120.689 168.206 120.349C169.5 120.406 170.851 120.689 172.089 120.462C187.283 117.516 195.105 109.244 199.213 95.3639C201.52 87.6021 201.464 79.557 202.251 71.6252C202.702 67.376 200.394 64.0334 196.399 62.3337C194.598 61.5405 192.685 61.0306 190.884 60.2941C188.464 59.2743 186.326 58.7644 184.244 61.2006C183.062 62.5603 180.868 63.2402 179.461 61.8804C178.054 60.5774 179.573 58.991 180.417 57.6879C180.868 56.9514 181.487 56.4415 180.305 55.705C175.69 52.7589 172.145 48.5664 167.812 45.2237C164.886 42.9008 161.904 40.6346 158.077 40.0114ZM245.919 209.468C245.919 206.352 245.919 201.253 245.919 196.211C245.919 195.191 245.919 194.284 245.019 193.435C239.56 187.826 233.539 182.953 227.237 178.364C217.445 171.282 206.247 166.75 196.399 159.895C195.442 159.215 195.105 159.441 194.486 160.348C193.36 162.161 192.347 164.087 190.715 165.56C177.041 178.194 158.415 171.792 150.255 162.217C149.355 161.198 148.961 160.801 147.779 161.877C140.97 168.11 133.261 173.095 125.776 178.421C108.275 190.942 93.5881 206.012 83.9654 225.615C77.2127 239.326 70.2911 252.98 68.209 268.616C66.5208 281.591 68.6029 292.922 77.4378 302.723C81.602 307.312 86.3289 311.051 92.8003 310.995C104.843 310.881 116.379 308.275 126.733 301.76C134.78 296.718 142.321 290.995 149.355 284.593C154.644 279.721 160.159 274.962 163.873 268.56C165.843 265.104 165.449 264.254 161.96 262.554C156.558 259.948 151.268 257.059 147.723 251.903C146.654 250.317 146.147 247.541 144.515 247.427C142.94 247.314 141.195 249.297 139.563 250.317C134.667 253.433 130.166 257.172 124.144 257.965C120.712 258.418 117.786 257.739 115.816 254.623C113.621 251.167 112.721 247.371 113.34 243.291C114.803 233.66 117.729 224.425 122.006 215.644C123.075 213.434 124.313 211.338 125.833 209.411C126.283 208.902 126.733 208.392 127.464 208.618C128.309 208.845 128.14 209.525 128.365 210.148C128.871 211.621 128.309 212.924 127.915 214.284C125.382 223.235 121.893 231.904 120.149 241.082C119.474 244.651 118.517 248.277 120.036 251.903C120.881 253.886 121.837 254.396 123.807 253.206C129.321 249.807 134.893 246.521 140.464 243.235C142.039 242.272 143.615 240.855 145.584 241.422C147.329 241.932 148.004 241.025 149.073 240.005C153.181 236.153 156.67 231.677 161.397 228.561C162.466 227.881 162.523 227.088 162.129 225.955C161.453 223.689 160.778 221.422 160.44 219.1C159.709 213.887 160.159 208.675 164.492 205.106C166.293 203.576 166.462 202.216 166.349 200.347C165.843 194.114 165.73 187.939 166.462 181.707C166.856 178.534 168.15 177.061 171.132 176.665C175.972 176.098 180.868 175.928 185.707 176.665C191.897 177.628 194.373 180.517 194.486 187.032C194.542 190.715 194.486 194.398 194.486 198.08C194.486 199.043 194.542 199.78 195.724 200.233C198.312 201.253 199.438 203.349 198.594 206.069C198.031 207.768 198.65 208.562 199.607 209.638C201.857 212.018 201.857 213.661 199.663 215.983C198.931 216.777 198.368 217.173 199.325 218.136C201.52 220.403 200.676 222.386 198.594 224.085C197.806 224.708 197.356 225.105 197.918 226.295C199.044 228.674 198.087 230.544 196.174 232.187C191.728 236.039 186.495 238.589 181.374 241.252C180.699 241.592 179.967 241.705 179.517 242.725C177.097 248.447 174.565 254.113 172.033 259.778C171.808 260.288 171.414 260.741 171.864 261.308C173.552 263.461 172.595 265.614 171.808 267.71C170.007 272.582 166.631 276.435 163.31 280.287C156.333 288.276 147.779 294.451 139.338 300.683C134.274 304.423 129.096 307.992 122.963 309.862C118.742 311.165 114.578 312.524 110.357 313.771C108.951 314.167 108.219 314.621 108.782 316.264C110.189 320.343 111.539 324.479 112.833 328.615C113.115 329.408 113.453 329.804 114.409 329.861C122.062 330.031 129.659 331.277 137.256 332.127C157.571 334.393 177.773 334.393 197.862 330.031C213.9 326.518 229.656 322.043 244.85 315.81C247.439 314.791 248.226 313.318 248.395 310.711C248.789 303.573 248.845 296.378 249.183 289.239C249.352 285.556 248.508 283.8 245.638 281.874C239.335 277.681 234.89 271.506 230.669 265.33C223.241 254.566 219.077 242.385 216.094 229.807C215.926 229.014 215.532 228.051 216.657 227.654C217.726 227.258 218.402 227.881 218.964 228.788C220.934 231.904 222.285 235.303 223.748 238.702C228.812 250.43 234.608 261.648 243.331 271.109C249.296 277.568 256.105 282.724 264.714 285.047C268.597 286.123 272.368 286.01 275.744 283.573C281.934 279.154 286.605 273.432 289.081 266.18C292.513 256.152 292.682 245.558 293.132 235.19C293.695 221.706 289.756 208.958 284.297 196.721C282.665 193.095 280.752 189.639 278.22 186.579C277.601 185.786 277.038 184.936 275.744 185.05C269.385 185.559 263.026 185.673 256.78 186.863C255.654 187.089 254.867 187.712 254.079 188.675C251.94 191.282 252.672 194.171 252.672 197.061C252.841 207.995 252.278 218.93 253.01 229.864C253.347 234.85 252.109 239.609 251.547 244.425C251.378 245.671 250.984 246.577 249.577 246.747C247.945 246.917 248.17 245.558 248.001 244.651C247.551 242.555 247.045 240.402 246.82 238.306C245.919 229.354 245.469 220.459 245.919 209.468ZM262.07 118.026C264.377 127.034 263.308 136.439 265.727 145.334C265.952 146.127 266.065 146.977 266.177 147.827C266.29 148.79 266.29 149.81 264.996 149.98C263.927 150.093 263.139 149.583 262.857 148.563C262.52 147.317 262.407 145.957 262.013 144.711C260.888 140.688 260.55 136.326 257.793 132.87C255.035 129.47 251.153 130.037 249.408 134.173C248.733 135.759 248.283 137.459 248.902 139.499C249.296 139.159 249.521 138.932 249.802 138.705C253.516 135.816 257.793 137.289 258.806 141.878C259.594 145.504 259.481 149.187 258.862 152.813C258.468 155.362 258.356 157.968 256.273 160.234C259.594 161.028 261.732 163.011 263.251 165.73C263.758 166.58 265.108 167.6 263.758 168.563C262.745 169.299 261.394 169.073 260.438 167.996C259.762 167.26 259.2 166.353 258.524 165.56C257.568 164.314 256.836 162.614 255.148 162.274C251.434 161.594 250.759 158.988 250.646 155.815C250.534 153.946 250.365 152.076 250.252 150.206C250.14 148.79 250.027 147.317 248.902 145.674C248.508 148.79 248.395 151.453 247.72 153.946C246.426 158.761 246.763 163.181 249.689 167.43C250.871 169.129 251.603 171.112 252.391 172.982C252.728 173.888 253.122 174.285 254.135 174.398C260.719 175.305 267.19 174.682 273.549 172.812C274.675 172.472 275.069 171.962 275.35 170.999C277.432 162.387 280.077 153.946 282.497 145.447C283.453 142.105 283.228 138.649 282.778 135.193C281.765 135.363 281.54 135.929 281.315 136.439C279.908 139.612 278.501 142.785 277.094 145.957C276.644 146.92 276.082 147.487 274.956 147.317C273.549 147.09 273.887 145.957 273.999 145.107C274.281 143.068 274.618 141.028 274.9 138.932C275.631 133.096 275.8 127.261 274.618 120.632C272.536 125.958 270.454 130.32 271.411 135.589C272.086 139.159 271.749 142.898 271.805 146.58C271.805 147.26 272.086 148.223 270.904 148.337C269.554 148.45 269.441 147.43 269.385 146.467C269.16 140.632 268.035 134.853 267.078 129.131C266.403 125.108 265.165 121.199 262.07 118.026ZM166.574 209.411C163.648 215.644 165.055 221.706 166.012 227.824C166.012 227.994 166.18 228.108 166.349 228.278C169.894 231.507 173.046 235.076 176.816 238.022C177.547 238.589 178.166 239.099 179.236 238.306C181.993 236.379 185.088 234.906 187.789 232.867C189.815 231.337 192.347 230.261 193.81 227.428C191.785 227.881 190.153 228.278 188.577 228.561C187.845 228.674 186.945 228.391 186.607 227.711C186.157 226.691 187.226 226.521 187.845 226.181C188.802 225.615 189.928 225.275 190.828 224.652C192.91 223.179 195.33 221.989 196.455 218.816C194.035 219.723 192.235 220.459 190.378 221.082C189.252 221.422 187.677 222.046 187.17 220.629C186.776 219.553 188.352 219.213 189.196 218.646C189.646 218.363 190.209 218.193 190.659 217.853C192.629 216.437 194.711 215.134 196.005 212.924C196.455 212.131 196.568 211.224 196.061 210.545C195.386 209.581 194.711 210.545 194.204 210.884C191.616 212.471 188.69 213.207 185.876 214.284C184.75 214.737 183.175 215.134 182.612 213.774C182.162 212.641 183.681 212.244 184.525 211.734C185.313 211.224 186.157 210.884 187.001 210.431C189.421 209.128 192.01 208.052 193.81 205.955C190.997 204.256 188.633 205.842 186.27 206.919C182.274 208.732 178.392 210.828 174.396 212.697C170.513 214.567 168.262 213.661 166.574 209.411ZM171.357 210.148C177.041 207.712 182.331 205.446 187.677 203.236C189.14 202.613 189.759 201.706 189.534 200.007C188.971 195.248 188.971 190.432 188.971 185.616C188.971 184.483 188.69 183.407 188.577 182.273C188.408 180.234 187.395 179.327 185.369 179.157C180.98 178.874 176.591 178.817 172.202 179.044C170.401 179.157 169.669 180.064 169.838 182.047C170.176 186.353 170.063 190.715 170.457 195.021C170.964 199.95 170.176 204.936 171.357 210.148ZM121.95 88.0553C124.482 86.8655 126.226 89.1318 128.309 89.0184C128.702 89.0184 129.04 89.8116 129.434 89.0751C129.603 88.7352 129.659 88.3952 129.378 88.0553C127.915 86.1857 127.521 83.8061 126.508 81.7665C125.945 80.6334 125.27 79.7836 123.807 79.7269C122.287 79.6703 120.881 79.9536 120.318 81.4266C119.699 83.0696 118.855 84.5993 118.911 86.5256C118.967 91.5113 120.487 96.0437 123.694 99.6697C126.283 102.559 129.547 104.882 133.823 104.882C135.118 104.882 136.131 104.429 135.23 103.126C133.486 100.52 132.923 97.4035 131.291 94.7973C130.334 93.211 129.659 93.211 128.646 94.514C128.252 95.0239 127.858 95.5905 127.464 96.0437C127.014 96.5536 126.508 97.1202 125.776 96.7236C125.101 96.327 125.439 95.5338 125.439 94.9106C125.495 93.4942 127.014 92.9277 127.408 91.5679C125.382 90.7181 123.582 89.8116 121.95 88.0553ZM206.078 81.3133C212.887 75.761 212.549 76.7242 214.294 77.4607C214.35 78.0839 213.787 78.1972 213.45 78.4239C211.93 79.557 210.242 80.6901 209.454 82.3331C208.892 83.5795 210.692 84.7126 210.805 86.0723C210.861 86.4689 210.974 86.8089 211.03 87.2055C211.086 87.7154 211.368 88.4519 210.692 88.6785C210.017 88.9618 209.454 88.5652 209.06 87.8853C208.498 86.8655 208.61 85.5625 207.654 84.5427C204.727 88.1686 205.459 92.7577 204.165 96.8936C209.06 94.5707 213.506 91.6813 215.419 86.5256C216.882 82.5597 217.22 78.2539 215.138 74.1747C214.463 72.8716 213.9 72.0218 212.38 73.5515C211.255 74.7413 209.792 75.7044 208.273 76.4976C206.359 77.574 205.853 79.1604 206.078 81.3133ZM164.155 230.997C163.423 231.054 161.003 235.19 161.51 235.7C164.436 239.156 167.418 242.612 171.639 244.481C173.833 245.444 173.721 242.668 174.79 241.762C175.859 240.855 174.846 240.459 174.171 239.949C170.907 237.569 167.756 235.076 165.224 231.904C164.886 231.564 164.717 230.997 164.155 230.997ZM261.394 177.288C259.368 177.174 257.286 177.061 255.261 177.004C253.797 177.004 253.797 178.081 253.741 179.157C253.685 180.347 254.191 180.574 255.204 180.574C261 180.347 266.74 180.234 272.424 178.931C273.774 178.591 274.112 178.081 273.999 176.891C273.831 175.078 272.593 176.041 271.917 176.211C268.428 177.118 264.939 177.571 261.394 177.288ZM164.267 257.739C164.999 257.965 165.618 257.512 165.899 256.549C166.237 255.359 165.111 255.472 164.548 255.246C159.821 253.433 156.051 250.26 152.844 246.351C152.337 245.784 152.112 244.425 150.762 245.388C149.636 246.181 149.636 247.031 150.255 247.994C153.575 252.98 157.739 256.775 164.267 257.739ZM168.994 250.94C163.929 249.524 159.54 246.974 156.051 242.951C155.601 242.442 155.376 241.252 154.419 241.932C153.463 242.612 154.25 243.461 154.701 244.141C157.064 247.711 160.103 250.657 163.817 252.696C167.193 254.566 167.193 254.509 168.994 250.94ZM195.161 336.49C195.161 340.852 195.161 340.852 199.1 340.286C199.663 340.229 200.226 340.116 200.732 340.002C201.464 339.832 201.914 339.492 201.689 338.643C201.182 336.886 201.52 335.073 201.464 333.317C201.464 332.75 201.801 331.787 200.732 331.901C198.988 332.127 197.074 332.297 195.611 333.09C194.486 333.657 195.442 335.47 195.161 336.49ZM140.464 335.187C141.083 337.283 141.589 339.153 142.152 341.022C142.489 342.099 147.779 343.458 148.511 342.665C148.623 342.495 148.623 342.212 148.623 341.929C148.511 336.716 147.441 335.527 142.208 335.187C141.758 335.13 141.308 335.187 140.464 335.187ZM166.912 342.948C166.743 341.589 166.462 340.286 166.462 338.983C166.405 336.943 165.73 336.15 163.479 336.32C159.09 336.716 159.09 336.49 159.878 340.909C160.047 341.929 159.878 343.118 161.453 343.062C163.254 342.948 165.111 343.458 166.912 342.948ZM139.788 341.815C139.451 340.682 139.169 339.719 138.944 338.699C138.719 337.679 138.55 336.66 138.269 335.697C137.988 334.62 132.529 333.317 131.798 334.167C131.685 334.337 131.685 334.677 131.685 334.903C131.741 339.266 134.274 341.759 138.55 341.815C138.944 341.815 139.282 341.815 139.788 341.815ZM172.877 335.923C171.47 336.376 168.881 335.47 169.163 337.17C169.444 338.926 167.981 342.552 171.357 342.609C176.478 342.665 176.422 342.325 176.084 337.226C175.916 334.28 173.89 336.546 172.877 335.923ZM169.613 248.447C170.176 248.504 170.795 248.56 171.02 247.881C171.301 247.144 170.795 246.974 170.232 246.691C166.124 244.821 162.804 241.988 160.047 238.419C159.428 237.626 158.977 237.343 158.021 238.136C157.12 238.872 156.952 239.439 157.683 240.402C159.653 242.895 161.904 244.934 164.605 246.521C166.18 247.484 167.7 248.504 169.613 248.447ZM209.454 334.677C209.398 333.317 209.342 332.297 209.285 331.277C209.285 330.541 209.229 329.918 208.273 330.144C206.809 330.484 205.178 330.541 204.052 331.334C203.152 331.957 204.39 333.374 204.221 334.507C204.165 334.96 204.277 335.413 204.333 335.923C204.559 339.209 205.009 339.379 208.16 338.303C210.523 337.453 209.004 335.64 209.454 334.677ZM130.897 340.682C130.278 338.359 130.278 335.81 128.984 334.167C127.69 332.467 124.988 332.977 122.794 332.977C124.876 340.002 125.157 340.342 130.897 340.682ZM186.945 338.019C186.945 341.815 186.945 341.759 190.378 341.475C192.178 341.305 193.191 340.965 192.404 338.869C192.235 338.359 192.347 337.736 192.347 337.17C192.347 333.26 192.404 333.374 188.521 334.167C185.651 334.847 187.508 336.943 186.945 338.019ZM260.044 182.273C258.356 182.273 256.667 182.33 254.979 182.273C253.516 182.217 253.516 183.01 253.685 184.086C254.023 186.296 255.654 185.163 256.499 184.993C261.451 183.86 266.459 183.407 271.467 183.123C272.086 183.067 272.818 183.01 273.324 182.727C273.831 182.443 274.675 182.16 274.393 181.31C274.112 180.347 273.324 180.857 272.761 180.97C268.597 181.933 264.377 182.443 260.044 182.273ZM150.311 336.15C150.536 337.453 150.705 338.643 150.987 339.832C151.606 343.005 152.619 343.628 155.882 343.062C156.445 342.948 156.895 342.892 157.008 342.099C157.683 337.906 156.22 336.093 152.056 336.036C151.493 335.98 150.987 336.093 150.311 336.15ZM216.826 329.238C216.77 329.011 217.164 328.161 215.813 328.218C212.043 328.388 211.03 329.521 211.705 333.147C211.761 333.487 211.818 333.884 211.93 334.224C212.268 334.96 211.368 336.603 212.887 336.263C214.237 335.923 216.488 336.32 216.601 333.827C216.714 332.411 216.77 330.994 216.826 329.238ZM179.011 338.869C180.023 339.606 177.604 342.212 180.643 342.212C182.612 342.212 184.694 342.325 183.906 339.152C183.681 338.189 183.963 337.113 183.963 336.093C183.963 335.64 184.019 335.3 183.344 335.073C180.642 334.28 178.673 335.866 179.011 338.869ZM226.28 331.901C226.899 331.731 227.462 331.617 227.968 331.447C229.938 330.768 231.288 327.425 230.05 324.705C229.262 323.006 227.574 324.762 226.28 324.875C225.211 324.932 224.986 325.442 225.267 326.575C225.773 328.275 225.942 330.031 226.28 331.901ZM222.059 326.178C221.159 326.688 219.246 326.462 219.133 327.595C218.964 329.634 219.583 331.731 219.865 333.827C219.865 333.884 220.034 333.94 220.09 333.884C221.272 333.43 223.41 333.544 223.466 332.467C223.635 330.371 222.847 328.218 222.453 326.065C222.453 326.122 222.285 326.122 222.059 326.178ZM254.248 152.586C254.81 148.507 255.711 144.428 254.585 140.292C254.191 138.932 253.46 138.875 252.672 140.008C252.053 140.972 251.096 141.935 251.94 143.294C253.629 146.127 254.248 149.243 254.248 152.586ZM248.226 316.49C243.556 317.567 243.106 318.36 243.837 324.195C247.72 322.156 248.677 320.456 248.226 316.49ZM238.66 327.028C243.499 325.725 241.08 321.703 242.937 318.643C241.023 319.436 239.223 319.663 239.11 320.286C238.66 322.382 238.773 324.592 238.66 327.028ZM233.033 329.521C237.535 328.275 235.171 324.309 236.634 321.589C232.357 322.722 232.357 322.722 233.033 329.521Z" fill="black"/>
<path d="M116.885 96.8936C119.755 101.369 123.582 104.542 128.59 106.355C129.772 106.808 131.01 107.148 132.135 106.922C135.962 106.128 138.156 108.281 139.845 111.057C141.87 114.4 144.909 116.723 147.723 119.216C148.736 120.122 149.073 120.915 149.017 121.992C148.961 129.074 149.242 136.099 150.143 143.124C151.212 151.793 146.597 157.458 140.464 162.104C132.36 168.28 123.976 174.115 115.478 179.781C105.743 186.296 97.9774 194.851 90.2118 203.406C84.3594 209.865 79.9138 217.456 76.256 225.388C75.8059 226.295 75.1869 226.861 74.5679 227.541C71.3603 226.465 69.6158 223.689 67.5337 221.309C59.3179 211.904 53.7468 201.083 51.9461 188.506C50.0328 175.305 53.8594 163.634 62.1315 153.606C71.304 142.445 83.2902 136.892 97.8649 137.742C98.8215 137.799 99.7219 137.686 100.679 137.629C103.999 137.459 107.488 138.365 110.47 136.099C114.691 132.813 117.898 128.734 120.036 123.805C123.075 116.78 123.188 109.811 119.417 102.899C118.292 101.029 117.223 99.1031 116.885 96.8936Z" fill="white"/>
<path d="M245.807 133.38C245.807 134.116 246.032 134.966 245.131 135.476C244.625 136.779 244.119 138.082 243.556 139.385C238.829 150.263 235.79 162.047 226.618 170.432C218.064 164.993 208.329 162.047 199.719 156.778C197.524 155.475 195.442 154.002 193.754 152.019C191.56 149.413 192.179 146.07 191.897 143.124C191.166 135.193 190.884 127.204 190.209 119.272C190.04 117.346 191.278 116.383 192.179 115.476C196.286 111.341 199.325 106.525 202.026 101.369C202.702 100.066 203.602 99.3863 205.178 99.0463C212.099 97.4033 216.77 92.7009 220.596 87.0354C221.497 85.7323 221.159 84.0893 221.215 82.6162C221.272 81.3132 221.159 79.9534 221.834 78.7637C228.306 80.9166 232.977 85.3924 236.916 90.718C245.582 102.276 247.439 115.646 246.707 129.64C246.651 130.264 246.257 130.943 246.988 131.453V131.397C246.088 131.397 246.201 131.963 246.369 132.586L246.426 132.53C245.75 132.473 245.919 132.983 245.807 133.38Z" fill="white"/>
<path d="M135.68 29.3604C134.274 34.1761 132.529 38.9351 133.204 44.0908C133.373 45.1672 132.473 44.9973 131.685 45.1106C127.802 45.6205 123.919 46.4703 121.106 49.3598C116.379 54.2321 114.184 61.9373 119.249 69.4725C120.768 71.682 121.95 74.1182 123.525 76.2711C124.595 77.7442 123.188 77.8008 122.738 77.8575C119.868 78.0841 117.673 79.2172 116.379 81.9367C114.578 85.7893 115.028 89.7551 115.76 93.7777C115.929 94.6275 116.266 95.364 116.548 96.1572C112.102 88.7353 111.708 80.4636 111.708 72.1353C111.708 60.1243 115.028 49.0765 122.175 39.3884C125.664 34.686 130.334 31.5133 135.68 29.3604Z" fill="white"/>
<path d="M94.2634 118.989C99.3842 120.292 104.955 119.669 109.57 122.898C110.808 123.748 112.102 124.768 111.708 126.128C111.314 127.658 109.626 127.714 108.163 127.771C103.492 127.997 98.8215 127.601 94.3759 126.015C93.7569 125.788 93.0816 125.618 92.5752 125.278C91.2246 124.258 88.7486 123.408 89.3113 121.595C89.8178 119.782 92.3501 119.499 94.2634 118.989Z" fill="white"/>
<path d="M113.34 120.349C110.301 120.519 108.388 118.65 106.812 116.44C105.799 114.967 105.237 113.041 106.587 111.794C107.994 110.435 110.076 111.228 111.483 112.304C113.171 113.551 114.578 115.25 115.478 117.233C116.829 120.236 116.829 120.236 113.34 120.349Z" fill="white"/>
<path d="M158.077 40.0109C157.458 41.2574 156.276 41.8806 155.263 42.6738C149.692 46.9796 147.835 53.325 146.091 59.6704C143.953 67.3189 142.602 74.9107 143.277 83.0125C144.065 92.3606 147.329 100.179 153.744 106.921C157.233 110.547 160.891 113.776 165.899 115.08C168.713 115.816 168.431 118.196 168.262 120.405C161.622 120.802 155.657 118.932 150.593 114.513C143.221 107.998 137.594 100.066 135.005 90.6043C132.979 83.1258 132.698 75.3073 134.048 67.4322C134.893 62.6165 136.131 57.9707 137.819 53.3816C139.901 47.8294 143.559 43.5802 148.454 40.5775C151.324 38.8212 154.757 38.0847 158.077 40.0109Z" fill="white"/>
<path d="M168.037 126.241C168.319 135.079 169.275 143.861 170.964 152.472C171.47 155.192 170.964 156.722 168.488 157.685C167.925 157.911 167.137 157.968 167.193 158.874C163.198 157.628 159.484 155.928 156.051 153.492C154.307 152.302 153.519 150.943 153.688 148.79C154.194 141.934 153.969 135.079 153.575 128.224C153.519 127.544 153.575 126.921 153.463 126.241C152.956 122.615 153.463 122.048 156.783 123.635C160.384 125.448 164.155 126.071 168.037 126.241Z" fill="white"/>
<path d="M121.95 88.0549C123.582 89.8679 125.439 90.7744 127.408 91.5109C127.014 92.8707 125.439 93.4372 125.439 94.8536C125.439 95.4768 125.101 96.27 125.776 96.6666C126.508 97.0632 127.014 96.4966 127.465 95.9867C127.915 95.5335 128.252 94.9669 128.646 94.457C129.659 93.1539 130.334 93.1539 131.291 94.7403C132.923 97.4031 133.486 100.519 135.23 103.069C136.131 104.372 135.118 104.825 133.823 104.825C129.547 104.825 126.283 102.502 123.694 99.6127C120.487 95.9867 118.967 91.4543 118.911 86.4686C118.855 84.5423 119.699 83.0126 120.318 81.3696C120.881 79.8965 122.287 79.6699 123.807 79.6699C125.27 79.7266 125.945 80.5764 126.508 81.7095C127.577 83.7491 127.915 86.1286 129.378 87.9983C129.659 88.3382 129.603 88.6781 129.434 89.0181C129.04 89.7546 128.703 88.9614 128.309 88.9614C126.17 89.1314 124.482 86.8652 121.95 88.0549Z" fill="white"/>
<path d="M171.751 89.8683C171.076 81.3133 169.557 72.8717 169.951 64.26C170.007 63.0136 170.119 61.8238 170.176 60.5774C170.232 59.501 171.02 59.1044 171.864 59.0477C172.764 58.9344 173.102 59.6709 173.327 60.4641C174.171 63.5802 174.34 66.8095 174.621 69.9822C175.24 76.7242 176.591 83.4096 176.253 90.2649C176.141 92.3045 176.366 94.5141 173.721 95.3639C170.964 96.2137 169.444 94.5707 168.262 92.5878C167.193 90.7748 165.336 88.0553 167.193 86.8656C169.05 85.6758 170.007 88.9618 171.301 90.3216C171.47 90.5482 171.526 91.1147 171.92 90.8315C172.145 90.6048 172.089 90.1516 171.751 89.8683Z" fill="black"/>
<path d="M168.206 107.148C170.401 106.015 172.089 105.165 173.721 104.259C178.167 101.879 181.655 98.3663 184.976 94.6837C185.369 94.2871 185.763 93.8339 185.932 93.324C186.157 92.6441 184.75 91.511 186.439 91.1711C188.071 90.8312 189.309 91.7376 190.547 92.5308C191.109 92.8708 190.997 93.4373 190.49 93.9472C185.763 98.7063 181.205 103.692 174.734 106.298C172.933 107.035 171.02 107.998 168.206 107.148Z" fill="black"/>
<path d="M182.049 74.6849C179.686 74.6283 179.011 73.6085 180.136 72.0221C182.106 69.246 184.582 66.9798 188.014 66.1299C189.14 65.8467 190.153 65.8467 190.94 67.0364C191.841 68.3395 190.659 69.0194 190.096 69.6426C187.789 72.1354 185.201 74.2317 182.049 74.6849Z" fill="black"/>
<path d="M158.583 77.0073C158.527 79.2169 158.302 80.9732 156.107 81.5397C153.8 82.1629 152.731 81.2565 152.225 78.537C151.437 74.1745 152.225 71.625 154.476 71.3984C156.783 71.1718 157.177 73.3247 158.133 74.6844C158.527 75.3643 158.471 76.4407 158.583 77.0073Z" fill="black"/>
<path d="M155.545 61.2568C156.614 61.5968 158.246 61.2002 158.64 62.6166C159.034 64.033 157.683 64.6562 156.614 65.2794C154.701 66.4125 152.675 66.9224 150.536 67.2623C148.736 67.5456 147.554 66.3558 147.048 65.0528C146.429 63.4664 148.004 62.8432 149.186 62.2766C151.155 61.2568 153.406 61.7101 155.545 61.2568Z" fill="black"/>
<path d="M197.356 65.6762C196.118 66.9227 194.767 66.8094 193.248 66.4694C194.655 64.8264 195.048 64.7698 197.356 65.6762Z" fill="black"/>
<path d="M270.51 159.101C267.359 157.968 264.602 156.325 262.182 154.116C261.282 153.323 261.901 152.926 262.857 152.756C264.996 152.359 270.736 155.135 271.748 157.175C271.974 157.628 272.48 158.252 272.03 158.705C271.692 158.988 271.017 158.988 270.51 159.101Z" fill="black"/>
<path d="M175.297 188.108C173.665 187.882 172.033 187.485 172.033 185.219C172.033 183.859 172.595 182.84 174.171 182.726C175.69 182.613 178.392 184.653 178.279 185.956C178.11 187.655 176.816 187.939 175.297 188.108Z" fill="black"/>
</g>
<g clip-path="url(#clip1)">
<path d="M222.926 207.994C222.919 207.954 222.914 207.922 222.907 207.882C222.831 207.589 222.632 207.374 222.334 207.257C222.272 207.234 222.201 207.213 222.14 207.19C221.927 207.126 216.706 205.519 216.706 205.519C216.25 205.379 215.794 205.239 215.338 205.099L221.175 200.921C221.218 200.889 221.27 200.856 221.32 200.806C221.632 200.533 221.72 200.131 221.558 199.786C221.444 199.557 221.233 199.385 220.929 199.295C219.987 199.011 219.044 198.719 218.111 198.426L212.864 196.84C212.814 196.823 212.753 196.808 212.703 196.792C212.601 196.759 212.501 196.734 212.399 196.701C212.196 196.635 211.991 196.619 211.785 196.653C211.578 196.687 211.389 196.767 211.219 196.902C211.208 196.896 211.2 196.905 211.19 196.907L207.061 199.865C206.061 200.581 205.026 201.319 204.008 202.046C203.629 202.315 203.472 202.654 203.538 203.055C203.859 205.024 204.186 207.033 204.502 208.97L204.791 210.738C204.801 210.802 204.812 210.866 204.821 210.923C204.847 211.083 204.939 211.233 205.086 211.366C205.189 211.465 205.325 211.533 205.497 211.588C205.681 211.649 212.39 213.705 212.39 213.705C211.562 214.294 206.604 217.842 206.604 217.842C206.552 217.875 206.501 217.917 206.442 217.967C206.179 218.184 206.046 218.494 206.096 218.799C206.146 219.105 206.37 219.357 206.698 219.477C206.738 219.487 206.77 219.506 206.81 219.516L214.432 221.853L214.706 221.94C214.918 222.005 215.131 222.069 215.334 222.135C215.538 222.201 215.743 222.217 215.94 222.185C216.146 222.151 216.326 222.072 216.497 221.945L216.532 221.923L223.525 216.922L223.593 216.869C223.671 216.815 223.74 216.763 223.818 216.709C224.101 216.498 224.236 216.203 224.202 215.879C224.197 215.847 224.193 215.823 224.188 215.79L222.926 207.994ZM215.315 211.628C215.056 210.037 214.796 208.446 214.537 206.855C214.628 206.881 219.756 208.453 219.756 208.453C219.634 208.531 215.315 211.628 215.315 211.628ZM221.036 216.362L216.605 219.535C216.345 217.944 216.086 216.353 215.828 214.77C216.019 214.821 221.036 216.362 221.036 216.362ZM216.631 213.022C218.105 211.965 219.579 210.908 221.054 209.859C221.313 211.45 221.572 213.033 221.831 214.624C221.697 214.571 218.01 213.449 216.631 213.022ZM213.236 198.941C214.979 199.473 216.712 200.007 218.455 200.54C216.972 201.598 215.498 202.655 214.015 203.714L213.236 198.941ZM213.194 211.966C211.869 211.571 209.274 210.774 207.976 210.375C209.46 209.316 210.942 208.249 212.425 207.191C212.63 208.387 213.007 210.759 213.194 211.966ZM206.694 202.458C208.178 201.399 209.652 200.342 211.126 199.285C211.385 200.876 211.645 202.467 211.904 204.058C210.171 203.524 208.437 202.99 206.694 202.458ZM205.9 204.196C205.92 204.201 211.11 205.797 211.11 205.797C209.626 206.855 208.152 207.912 206.669 208.971C206.467 207.791 206.088 205.411 205.9 204.196ZM214.496 219.887C213.209 219.495 210.604 218.691 209.285 218.279C209.302 218.268 213.708 215.116 213.708 215.116C213.915 216.328 214.303 218.706 214.496 219.887Z" fill="black"/>
</g>
<defs>
<clipPath id="clip0">
<rect width="251.147" height="337.384" fill="white" transform="translate(51.4397 9.07715)"/>
</clipPath>
<clipPath id="clip1">
<rect width="18.3401" height="25.892" fill="white" transform="translate(202.733 198.121) rotate(-9.26433)"/>
</clipPath>
</defs>
</svg>
