<svg width="296" height="342" viewBox="0 0 296 342" fill="none" xmlns="http://www.w3.org/2000/svg">
<g clip-path="url(#clip0)">
<path d="M280.504 263.06L262.709 211.995L207.002 156.289L189.981 23.211L138.916 13.1528L108.741 92.8446L135.047 135.399L62.319 187.237L80.1142 251.455L90.1724 235.207L98.6832 287.819L214.739 263.06V216.638L220.929 227.47L233.308 251.455L220.929 273.118L233.308 307.161L271.994 292.461L280.504 263.06Z" fill="white"/>
<path d="M78.0962 170.613C76.4506 171.46 75.04 172.635 73.5825 173.764C70.8554 175.927 68.2224 178.184 65.7774 180.63C65.6364 180.771 65.5424 181.1 65.2602 181.006C64.8841 180.865 65.0722 180.536 65.0722 180.301C65.2132 176.397 65.2132 172.447 65.0722 168.544C64.9311 164.641 64.0378 160.879 62.2511 157.352C62.2041 157.257 62.11 157.163 62.016 157.069C60.2763 155.894 60.4174 153.966 59.9002 152.273C59.1479 149.78 57.4552 147.946 55.5275 146.347C52.8945 144.09 49.6972 143.338 46.3589 143.479C45.1835 143.526 44.0551 143.996 43.2557 145.078C43.0677 145.36 42.8326 145.83 42.3624 145.595C41.9862 145.407 42.1743 144.936 42.1743 144.654C42.0803 142.256 42.1743 139.858 41.9392 137.506C41.8452 136.284 41.7982 135.014 41.5631 133.791C41.0929 131.346 37.9427 130.405 35.6388 132.004C34.1342 133.039 33.3819 134.591 32.7707 136.236C32.4886 137.036 32.1595 137.835 32.2065 138.964C31.1251 137.788 30.5608 136.566 29.9026 135.484C29.1503 134.214 28.0219 133.744 26.7054 133.791C25.0597 133.838 23.9783 134.873 23.32 136.378C22.7558 137.647 22.8029 139.011 22.7558 140.375C22.7088 141.362 22.4267 142.303 22.4737 143.291C22.8028 148.087 22.7088 152.884 22.9439 157.728C22.9909 158.433 23.5081 159.139 23.132 160.079C22.1446 158.339 21.5804 156.599 21.0162 154.859C20.7341 153.919 20.4049 153.025 20.0288 152.132C19.2295 150.345 17.7249 149.874 15.9382 149.874C14.2926 149.874 13.5403 150.862 13.0231 152.226C11.7536 155.329 11.8946 158.48 12.4589 161.678C12.788 163.653 13.2112 165.581 13.4933 167.509C13.9164 170.096 14.6687 172.635 15.2329 175.222C15.8912 178.184 16.7845 181.1 17.7719 183.969C19.1354 187.966 20.546 191.916 22.8499 195.49C23.8843 197.089 24.4015 198.97 25.718 200.381C25.9061 200.616 25.718 200.945 25.5299 201.227C22.7558 204.896 21.2513 209.175 19.1354 213.172C16.5024 218.204 14.5277 223.565 11.7536 228.55C9.82585 231.983 8.22723 235.651 7.05178 239.413C6.34651 241.717 5.73526 244.116 4.98297 246.42C4.08962 249.195 3.38437 252.016 2.77314 254.838C2.30296 256.954 2.06786 259.117 1.73873 261.281C1.08048 265.513 1.22154 269.839 0.657322 274.119C0.0931038 278.257 0.892395 282.255 1.55065 286.299C1.78574 287.663 1.92679 289.073 2.16188 290.437C2.63206 293.4 2.86715 296.41 4.0426 299.184C6.34649 304.639 9.96691 308.966 15.7031 311.035C19.3705 312.399 23.179 312.258 26.9875 311.787C32.6767 311.082 37.1434 307.978 41.375 304.545C48.0516 299.137 54.5871 293.541 59.9472 286.769C62.5332 283.477 64.743 279.903 66.9999 276.423C71.7017 269.04 76.0274 261.422 80.8233 254.133C83.5503 249.947 85.9953 245.621 88.4872 241.294C88.6283 241.059 88.5342 240.542 88.9574 240.589C89.3806 240.683 89.4746 241.106 89.5216 241.529C89.6156 243.787 89.9918 245.997 90.1329 248.254C90.462 252.487 90.8851 256.719 91.1672 260.951C91.4494 264.714 91.6845 268.523 92.0136 272.285C92.4838 277.599 92.2957 282.913 92.5308 288.227C92.6718 291.002 92.9539 293.776 92.7188 296.551C92.2957 301.724 92.6248 306.944 92.2487 312.117C91.7315 319.265 92.0136 326.413 91.9666 333.561C91.9666 334.125 92.1546 334.548 92.4838 334.924C92.8129 335.301 93.189 335.63 93.4711 336.053C94.7876 337.981 96.8564 338.546 98.9723 338.734C103.486 339.11 107.859 340.191 112.419 340.38C115.241 340.474 118.109 340.615 120.93 340.85C125.632 341.226 130.333 341.461 135.082 341.743C141.336 342.12 147.542 341.414 153.795 341.649C157.228 341.79 160.66 341.508 164.092 341.132C168.089 340.709 172.085 340.239 176.035 339.862C177.399 339.721 178.762 339.627 180.079 339.392C184.31 338.687 188.495 337.887 192.679 337.088C195.783 336.476 198.839 335.818 201.895 335.019C205.75 334.031 209.465 332.667 213.132 331.115C214.684 330.457 216.235 329.752 217.693 328.952C219.386 328.012 220.326 325.472 219.997 323.497C219.809 322.321 220.138 321.052 220.279 319.876C220.467 318.324 220.185 316.866 219.903 315.361C219.527 313.48 219.151 311.552 218.727 309.671C218.586 308.966 218.869 308.59 219.574 308.825C221.172 309.295 222.818 309.201 224.464 309.201C229.024 309.248 233.538 309.436 238.099 309.06C242.566 308.684 246.985 307.978 251.264 306.802C258.975 304.639 266.028 301.253 271.999 295.845C276.889 291.425 280.603 286.158 282.672 279.762C283.989 275.812 284.741 271.815 285.07 267.676C285.258 265.56 285.399 263.444 285.258 261.375C285.023 257.989 284.741 254.65 284.177 251.264C283.612 248.066 282.86 244.962 282.061 241.859C281.544 239.742 280.697 237.673 280.039 235.557C279.569 233.958 278.629 232.453 278.393 230.76C278.299 230.713 278.111 230.666 278.111 230.619C277.5 228.832 276.748 227.092 275.949 225.399C274.444 222.013 272.61 218.768 270.871 215.477C269.131 212.232 267.344 209.034 265.181 206.071C264.429 204.99 263.771 203.861 263.348 202.638C263.113 201.933 262.313 201.51 261.89 200.851C260.339 198.547 258.928 196.149 257 194.126C256.06 193.139 255.072 192.198 254.32 191.07C252.534 188.342 250.277 185.991 248.255 183.451C246.233 180.912 243.882 178.655 241.672 176.209C241.108 175.598 241.014 174.61 240.215 174.14C239.745 173.858 239.18 173.623 238.804 173.2C234.337 168.262 229.401 163.841 224.464 159.374C221.172 156.411 217.787 153.542 214.308 150.815C212.427 149.357 210.358 148.087 208.76 146.394C207.114 144.654 204.528 144.419 203.258 142.35C203.258 142.303 203.164 142.35 203.164 142.303C202.365 141.739 201.566 141.174 200.767 140.657C196.582 137.788 192.35 135.061 188.025 132.427C185.251 130.734 182.382 129.088 179.42 127.678C178.433 127.207 178.104 126.408 178.339 125.373C178.903 122.881 178.997 120.388 179.185 117.849C179.279 116.532 179.091 115.169 179.326 113.852C179.796 111.077 180.22 108.303 180.173 105.481C180.173 103.788 180.173 102.095 180.22 100.449C180.267 98.6151 180.549 98.474 182.053 99.4616C183.699 100.496 185.298 101.625 187.084 102.377C190.987 104.023 194.795 105.998 199.027 106.892C201.143 107.362 203.258 107.315 205.327 106.986C206.221 106.845 207.349 106.469 208.054 105.904C209.042 105.105 210.217 104.635 211.158 103.835C211.581 103.036 212.098 102.283 212.239 101.39C212.192 101.013 212.286 100.637 212.427 100.261C213.508 97.6746 214.026 95.0411 212.991 92.3135C212.615 91.2789 212.286 90.1503 211.581 89.3508C210.452 87.9871 209.465 86.4352 208.336 85.0714C206.362 82.7201 204.669 80.1806 202.741 77.8293C200.767 75.4309 198.98 72.8915 196.958 70.5401C196.065 69.4585 195.642 68.3769 195.642 66.9661C195.642 64.991 196.159 63.1099 196.159 61.1348C196.112 57.937 196.112 54.7391 195.642 51.5413C195.265 48.9078 194.842 46.2743 194.137 43.7819C193.338 41.0544 192.303 38.3738 190.94 35.8344C189.811 33.7182 188.683 31.555 187.131 29.7679C184.968 27.2755 182.429 25.2064 179.843 23.1842C177.399 21.2561 174.813 19.7983 171.991 18.5286C168.982 17.2118 165.832 16.4124 162.682 16.1302C158.591 15.801 154.36 15.4718 150.222 16.6475C148.059 17.2588 145.99 18.0583 143.781 18.5756C141.43 19.0929 139.126 19.9864 136.916 21.021C136.587 21.1621 136.07 21.4912 135.929 20.7388C132.919 23.8426 129.628 26.8053 127.841 30.8966C127.183 32.4014 125.867 32.6366 124.597 32.8717C122.528 33.295 120.413 33.7182 118.438 34.4706C117.215 34.8939 115.946 34.8939 114.676 35.176C112.843 35.6463 111.432 36.6338 110.257 37.9506C109.786 38.5149 109.363 39.0792 108.705 39.3614C106.73 40.3019 106.025 42.136 105.555 44.0641C105.508 44.3462 105.555 44.6754 105.649 44.9576C106.025 45.9922 105.931 46.9797 105.649 48.0613C105.038 50.3657 104.661 52.717 105.508 55.0213C106.448 57.5137 107.765 59.8651 109.457 61.9342C110.68 63.4391 111.902 64.991 113.407 66.2607C115.805 67.9066 116.181 70.4931 116.651 73.0326C117.121 75.525 117.591 77.9704 117.78 80.5098C118.062 84.366 118.626 88.2222 119.049 92.1254C119.096 92.5016 119.19 92.8778 119.237 93.2541C119.566 94.853 119.754 96.4519 120.177 98.0508C120.601 99.7437 120.507 101.578 121.118 103.177C121.776 105.105 122.387 107.127 123.704 108.82C125.255 110.842 126.243 113.24 128.124 115.027C128.735 115.592 129.252 116.25 129.816 116.861C130.757 117.896 131.791 118.79 133.154 119.26C134.424 119.73 135.599 120.577 135.505 122.411C135.458 123.492 135.317 124.574 135.317 125.655C135.223 129.371 133.39 132.286 131.18 135.061C129.957 136.566 128.547 137.882 127.23 139.246C125.114 141.456 122.575 143.149 120.224 145.03C116.98 147.57 113.313 149.545 109.88 151.802C106.636 153.919 103.204 155.706 99.8656 157.681C96.7624 159.562 93.4711 161.114 90.556 163.277C89.0984 164.358 87.5469 165.393 85.9012 166.098C83.3152 167.18 80.9643 168.638 78.5664 170.002C78.4253 170.096 78.2843 170.237 78.1902 170.331C78.1902 170.613 78.1432 170.613 78.0962 170.613ZM149.329 161.866C148.012 161.772 146.743 161.537 145.473 161.02C142.464 159.844 140.113 157.822 137.95 155.517C134.518 151.849 131.932 147.617 129.91 143.008C129.675 142.491 129.816 142.068 130.145 141.692C130.662 141.08 131.039 140.375 131.509 139.716C131.838 139.293 131.979 138.588 132.684 138.447C133.201 141.551 135.411 147.1 137.997 149.874C141.242 153.307 144.909 155.753 149.846 155.706C150.786 155.47 151.68 155.988 152.573 156.082C155.488 156.364 158.121 155.188 160.895 154.53C163.199 153.966 165.315 152.743 166.913 151.097C168.606 149.404 169.97 147.288 171.286 145.219C172.462 143.338 173.496 141.409 174.389 139.293C175.142 137.459 175.8 135.531 176.458 133.697C177.446 131.064 177.022 130.781 179.608 132.427C180.079 132.709 180.079 132.898 179.985 133.415C179.749 135.014 178.574 136.189 178.198 137.741C177.681 139.858 176.552 141.786 175.659 143.714C174.766 145.548 174.013 147.476 173.026 149.216C172.038 150.909 170.863 152.461 169.546 153.966C167.901 155.894 166.02 157.54 163.951 158.762C160.378 160.879 156.428 162.148 152.197 161.819C151.162 161.913 150.222 162.524 149.329 161.866ZM151.962 152.32C151.35 152.414 150.739 152.461 150.128 152.179C148.764 151.473 147.542 150.58 146.367 149.545C144.204 147.617 142.934 145.125 141.759 142.585C140.724 140.281 139.596 137.976 139.314 135.39C139.032 132.521 139.267 129.606 139.314 126.737C139.361 125.185 140.019 123.633 139.596 122.128C139.314 121.094 139.69 120.953 140.536 120.953C142.417 120.906 144.251 120.906 146.131 120.53C149.141 119.918 151.962 118.978 154.595 117.473C154.971 117.285 155.3 117.191 155.676 117.191C156.052 116.25 157.04 116.015 157.792 115.545C158.168 115.31 158.591 115.169 158.544 114.651C158.544 114.087 158.873 113.946 159.391 113.946C160.425 113.993 161.177 113.617 161.93 112.911C163.528 111.5 164.845 109.807 165.785 108.02C166.443 106.798 167.196 105.669 167.948 104.493C167.995 104.164 168.089 103.882 168.089 103.553C168.136 102.989 168.277 102.424 167.666 102.001C167.055 101.578 166.396 101.625 165.785 101.86C165.456 102.001 165.127 102.283 164.845 102.565C163.904 103.553 162.917 104.446 161.883 105.293C159.673 107.08 157.651 109.196 155.253 110.748C153.466 111.924 151.492 112.958 149.517 113.899C148.106 114.557 146.743 115.404 145.191 115.733C143.922 116.015 142.652 116.156 141.43 116.438C138.138 117.097 135.364 116.109 132.778 114.181C129.722 111.877 127.888 108.632 126.196 105.387C124.221 101.625 123.187 97.4394 122.481 93.3011C121.776 89.2097 121.4 85.0244 121.4 80.839C121.4 77.5001 121.259 74.2082 121.118 70.8693C121.071 69.2234 121.165 67.5774 121.588 65.9785C122.199 63.5802 122.904 61.2288 123.328 58.7834C123.422 58.1721 123.61 57.937 124.221 58.2191C126.666 59.3478 129.205 60.2413 131.791 60.9937C135.317 62.0283 138.891 63.1569 142.511 63.4861C146.084 63.8153 149.611 64.2856 153.184 64.6618C154.642 64.8029 156.287 64.5207 157.557 65.5083C159.108 66.6839 160.66 67.8596 162.118 69.1764C162.964 69.9288 163.528 70.9163 163.716 72.139C164.045 74.3023 164.327 76.4655 164.704 78.5817C165.268 81.5914 165.973 84.6011 165.926 87.7049C165.879 89.3979 166.772 89.8681 168.324 90.0092C169.499 90.1033 170.581 89.4449 171.756 89.4449C172.132 89.4449 172.227 89.1157 172.274 88.9276C172.556 88.2692 172.838 87.5638 172.979 86.8584C173.449 84.0838 173.825 81.3093 174.06 78.5347C174.201 76.9828 174.389 75.2898 175.8 74.1612C176.035 73.9731 176.129 73.5028 176.411 73.3147C177.351 72.5623 177.587 71.1045 178.95 70.7753C178.715 69.5526 179.467 68.7531 180.314 68.2358C180.972 67.8126 181.207 67.4364 181.301 66.5429C181.724 67.0131 182.147 67.0131 182.571 67.0131C183.182 66.9661 183.417 67.2483 183.323 67.8596C185.204 69.7407 186.614 71.8099 186.708 74.5844C186.755 75.8542 186.52 77.0768 186.191 78.2525C185.58 80.6979 184.639 83.0022 182.523 84.6011C181.301 85.5417 180.079 86.4822 179.138 87.7049C178.292 88.8335 177.069 89.727 176.787 91.1378C176.364 93.2541 175.612 95.2292 175.095 97.3454C175.33 97.6746 175.424 98.1448 175.236 98.474C174.624 99.5086 174.671 100.637 174.577 101.766C174.201 106.092 173.59 110.419 173.167 114.745C172.932 116.956 172.603 119.166 172.603 121.376C172.603 123.069 172.227 124.715 171.991 126.361C171.803 127.537 171.944 128.759 171.521 129.794C170.158 133.556 169.829 137.6 167.901 141.174C167.243 142.397 166.913 143.808 165.268 144.184C165.127 144.231 164.939 144.419 164.845 144.56C164.139 146.253 162.541 147.241 161.553 148.793C160.754 150.062 159.344 150.909 158.074 151.426C156.287 152.037 154.172 152.837 151.962 152.32ZM172.321 66.4488C171.098 65.4612 170.346 64.0504 169.17 62.9688C165.409 59.4888 161.741 55.9618 157.51 53.0932C156.758 52.5759 156.522 52.0586 156.899 51.2121C157.322 50.2716 157.557 49.3311 157.651 48.2965C157.886 45.8511 157.604 43.4998 156.805 41.1954C155.582 37.6684 153.137 35.5052 149.517 34.9409C145.097 34.2355 140.818 34.5647 137.292 37.7155C136.775 38.1857 136.493 38.0447 136.023 37.6684C134.988 36.869 133.954 36.0695 132.825 35.4112C132.167 35.0349 132.261 34.7998 132.543 34.2825C133.672 32.0723 135.27 30.1912 136.822 28.3101C138.891 25.8177 141.289 23.8896 144.392 22.761C146.696 21.9145 149.047 21.2561 151.35 20.3626C153.701 19.4221 156.287 19.1869 158.779 19.1399C160.754 19.0929 162.729 19.5161 164.657 19.9394C166.114 20.1745 167.525 20.5977 168.888 21.115C171.286 22.0085 173.449 23.3253 175.424 24.9242C177.257 26.429 179.091 27.9339 180.784 29.6269C181.207 30.0501 180.925 30.8966 181.442 30.9906C182.994 31.3198 183.182 32.7777 183.84 33.7652C185.345 35.9755 186.426 38.4679 187.46 40.9603C188.495 43.4527 188.918 46.0392 189.482 48.5786C190.234 52.2467 190.423 56.0559 190.234 59.818C190.14 61.6521 190.329 63.5331 189.67 65.3672C189.388 66.2137 188.918 66.1196 188.448 65.7904C187.178 64.8499 185.627 64.5207 184.169 64.1445C183.276 63.9094 182.194 63.8153 181.395 64.1915C179.138 65.2261 176.74 66.1666 175.189 68.3299C174.718 68.9412 173.919 69.0823 173.496 68.471C173.026 67.8126 172.368 67.2953 172.321 66.4488ZM242.754 220.979C242.848 220.838 242.895 220.697 242.989 220.602C245.058 218.298 247.22 216.041 249.195 213.69C251.264 211.244 253.427 208.94 255.543 206.588C256.06 206.024 256.53 205.742 257.094 206.636C258.411 208.846 259.868 211.009 261.091 213.313C262.078 215.147 263.254 216.887 264.053 218.862C264.805 220.649 266.075 222.295 266.827 224.177C267.485 225.775 268.238 227.374 268.99 228.973C270.212 231.889 271.388 234.805 272.375 237.814C273.504 241.2 274.491 244.586 275.29 248.066C276.137 251.734 276.748 255.402 276.983 259.117C277.359 265.278 277.03 271.438 275.243 277.411C274.162 281.079 272.657 284.559 270.635 287.804C267.438 292.977 263.066 296.974 257.658 299.748C253.098 302.1 248.255 303.558 243.13 304.263C241.484 304.498 239.792 304.545 238.146 304.78C233.773 305.392 229.401 304.921 225.075 304.498C220.796 304.075 216.518 303.464 212.333 302.335C209.559 301.583 206.738 301.065 204.011 300.219C200.296 299.09 196.535 298.008 192.915 296.598C189.247 295.14 185.533 293.682 181.865 292.224C181.254 291.989 180.925 291.66 181.254 290.907C183.041 287.051 183.511 282.866 183.934 278.728C184.075 277.27 184.216 275.765 183.746 274.307C183.417 273.319 183.652 272.943 184.733 273.131C185.392 273.225 186.097 273.084 186.708 273.225C190.423 273.978 194.231 274.401 197.898 275.389C200.814 276.188 203.87 276.141 206.832 276.282C211.252 276.517 215.624 276.376 219.997 275.483C222.348 275.012 224.464 274.119 226.344 272.661C229.589 270.169 231.987 267.065 233.632 263.35C235.043 260.105 236.124 256.719 235.983 253.145C235.889 251.17 235.607 249.148 235.325 247.126C234.761 242.893 233.444 238.896 231.798 235.04C231.422 234.193 231.563 233.77 232.128 233.159C235.654 229.161 239.18 225.07 242.754 220.979ZM150.504 165.158C150.645 165.158 150.739 165.158 150.88 165.158C151.397 165.628 152.103 165.44 152.714 165.581C153.513 165.111 154.407 165.017 155.3 165.064C157.04 165.158 158.779 164.876 160.378 164.406C162.447 163.841 164.469 162.948 166.49 162.289C170.769 160.831 173.402 157.587 175.988 154.248C177.916 151.755 179.185 148.887 180.361 145.971C181.536 142.961 182.712 139.999 183.041 136.754C183.135 136.142 183.37 135.39 184.216 135.719C184.921 135.954 185.721 136.189 186.332 136.66C188.918 138.635 191.927 139.999 194.419 142.115C195.03 142.632 195.877 142.914 196.3 143.761C196.535 144.231 197.475 144.184 198.039 144.701C198.792 145.36 199.638 145.924 200.437 146.535C201.566 147.335 202.882 147.993 203.588 149.216C203.87 149.733 204.152 150.109 204.622 150.392C206.268 151.332 207.772 152.461 209.183 153.636C211.863 155.894 214.543 158.245 217.176 160.549C217.787 161.114 218.445 161.678 219.057 162.148C220.937 163.606 222.348 165.44 224.135 166.945C225.733 168.262 227.003 169.908 228.507 171.271C229.589 172.259 230.294 173.623 231.846 174.234C232.363 174.469 233.303 175.222 233.538 176.021C233.726 176.727 234.055 177.244 234.573 177.761C235.889 179.078 237.159 180.489 238.381 181.899C239.698 183.404 240.967 184.909 242.19 186.414C243.835 188.436 245.528 190.411 247.126 192.48C249.195 195.208 251.358 197.842 253.192 200.757C254.038 202.074 254.179 202.732 253.192 203.626C251.358 205.366 249.43 207.012 247.644 208.799C246.468 209.927 245.293 211.009 244.211 212.279C242.707 214.019 241.202 215.853 239.321 217.217C238.428 218.674 237.065 219.709 236.03 220.979C233.914 223.565 231.704 226.058 229.636 228.644C229.212 229.114 228.977 229.255 228.601 228.738C226.156 225.399 223.241 222.578 220.138 219.85C218.398 218.345 216.847 216.558 214.496 216.041C213.602 215.853 212.333 215.477 212.098 216.37C211.816 217.452 211.393 218.533 211.205 219.662C210.828 222.107 210.593 224.6 210.452 227.092C209.982 235.557 210.358 244.069 209.935 252.534C209.653 258.788 209.747 265.137 210.17 271.391C210.217 271.815 210.358 272.285 209.653 272.285C206.174 272.332 202.694 272.332 199.262 271.674C196.582 271.156 193.902 270.733 191.222 270.404C189.435 270.169 187.648 270.028 185.862 270.028C183.84 270.028 181.865 269.322 179.843 269.463C177.869 269.604 175.894 270.075 173.919 269.792C173.543 269.745 173.026 269.792 172.791 269.981C172.18 270.498 171.897 270.075 171.521 269.745C168.653 267.206 165.926 264.478 162.823 262.268C160.707 260.763 158.685 259.211 156.24 258.318C155.3 257.989 154.548 258.224 153.983 258.976C153.184 260.011 153.137 261.234 153.607 262.409C154.219 263.914 155.065 265.372 156.052 266.736C156.664 267.582 157.416 268.335 158.121 269.51C157.04 269.04 156.334 268.758 155.629 268.429C152.761 267.065 149.705 266.124 146.649 265.419C144.439 264.902 142.323 264.196 140.113 263.679C138.467 263.303 136.775 263.397 135.129 263.115C133.86 262.88 133.107 263.256 132.543 264.478C132.026 265.56 132.496 266.359 133.295 267.018C133.531 267.206 133.813 267.347 134.048 267.535C135.505 268.57 137.151 269.369 138.985 270.263C138.232 270.263 137.809 270.357 137.386 270.263C135.082 269.745 132.778 269.51 130.427 269.604C128.876 269.651 127.324 269.887 125.867 270.357C124.644 270.78 124.315 271.815 124.08 272.849C123.939 273.602 124.503 274.166 125.161 274.589C127.653 276.282 130.521 276.94 133.295 277.834C135.27 278.445 137.339 278.916 139.361 279.433C138.938 279.715 138.515 279.809 138.138 279.762C136.54 279.574 134.941 279.668 133.343 279.668C132.167 279.668 131.039 279.762 129.957 280.279C128.688 280.891 128.029 282.16 128.076 283.947C128.124 285.264 129.064 285.593 130.098 285.97C131.462 286.487 132.919 286.534 134.33 286.675C136.446 286.91 138.515 287.333 140.63 287.333C140.865 287.333 141.101 287.427 141.336 287.474C141.524 287.569 141.853 287.569 141.806 287.898C141.759 288.133 141.524 288.133 141.336 288.18C139.831 288.509 138.373 289.073 136.916 289.591C135.74 290.014 134.706 291.284 134.753 292.459C134.8 293.682 135.693 294.34 136.681 294.811C138.844 295.845 141.148 296.08 143.498 296.127C145.52 296.174 147.589 295.939 149.564 295.892C155.065 295.845 160.378 294.811 165.691 293.447C166.725 293.165 167.76 293.024 168.794 292.883C169.217 292.789 169.641 292.93 169.499 293.494C169.358 294.246 169.829 294.528 170.346 294.764C173.073 296.221 175.847 297.538 178.762 298.62C183.699 300.454 188.683 302.194 193.714 303.746C198.933 305.345 204.152 306.567 209.512 307.508C210.734 307.696 212.004 307.743 213.179 308.213C213.555 308.354 213.744 308.495 213.744 308.919C213.65 310.941 213.838 312.963 214.073 314.985C214.355 317.854 214.449 320.769 213.649 323.591C213.367 324.532 213.273 325.707 212.333 326.13C210.922 326.789 209.418 327.165 207.96 327.541C205.374 328.247 202.835 329.046 200.249 329.657C197.24 330.316 194.278 330.927 191.222 331.35C188.542 331.727 185.815 332.009 183.088 332.385C180.22 332.761 177.304 333.373 174.436 333.608C170.722 333.937 166.96 334.266 163.246 334.501C158.215 334.783 153.184 335.066 148.2 335.395C143.781 335.677 139.361 335.583 134.941 335.348C128.124 334.971 121.306 334.877 114.488 334.313C111.62 334.078 108.705 333.89 105.837 333.608C104.191 333.467 102.593 333.279 100.947 333.137C100.242 333.09 99.2544 332.996 99.5835 331.774C100.242 329.705 100.148 327.494 100.242 325.378C100.571 318.653 100.759 311.975 101.276 305.251C101.558 301.771 101.511 298.244 101.746 294.764C102.028 290.531 101.887 286.299 101.558 282.113C101.37 279.574 101.37 276.988 101.088 274.401C100.712 270.921 100.43 267.441 100.054 263.914C99.5835 259.4 99.0193 254.979 98.1729 250.511C97.4677 246.749 96.5743 243.034 95.2578 239.413C94.6936 237.908 94.0354 236.356 92.4367 235.604C91.9666 235.369 91.4964 235.134 91.1202 234.758C89.9448 233.629 89.1925 233.723 88.1581 234.993C85.337 238.473 82.9391 242.282 80.259 245.903C80.071 246.185 79.8359 246.514 79.6008 246.467C79.2246 246.42 79.3657 245.95 79.3187 245.668C79.1306 244.022 78.9895 242.423 78.7074 240.777C78.1432 237.579 77.532 234.428 76.9208 231.278C76.5916 229.538 76.3095 227.751 75.8863 226.011C75.1811 223.142 74.3818 220.32 73.7235 217.499C73.0653 214.536 72.0779 211.714 71.1375 208.846C70.1971 206.024 69.2568 203.156 68.0813 200.381C66.9999 197.795 66.1536 195.114 64.8841 192.622C63.6616 190.176 63.6616 190.176 65.8245 188.389C65.9655 188.295 66.0596 188.201 66.1536 188.107C70.1031 184.58 73.7235 180.771 77.7671 177.385C83.0801 172.917 88.6283 168.732 94.5526 165.111C99.6775 162.007 105.32 159.703 110.069 155.941C114.723 152.179 120.318 149.921 125.161 146.441C125.585 146.112 125.726 146.347 125.867 146.723C126.29 147.711 126.713 148.699 127.23 149.639C129.487 153.825 132.167 157.681 135.976 160.596C140.207 164.029 145.191 165.158 150.504 165.158ZM10.7192 270.592C10.7192 269.887 10.6252 268.664 10.7192 267.535C11.0953 264.337 11.5655 261.14 12.0357 257.942C12.3648 255.731 12.6469 253.521 13.0701 251.358C13.5873 248.395 14.2456 245.48 14.8098 242.564C15.1859 240.401 15.8442 238.285 16.5494 236.215C17.5368 233.441 18.9474 230.807 19.8877 228.033C21.5334 223.377 23.5081 218.862 25.0597 214.207C25.4359 213.078 25.718 213.454 26.3762 213.831C29.4794 215.806 32.8647 217.405 36.4381 218.063C40.5757 218.815 44.7603 218.58 48.7569 216.981C49.4622 216.699 49.6032 216.887 49.6502 217.593C49.6972 219.098 49.2741 220.555 49.2271 222.013C49.133 225.352 49.18 228.738 49.4151 232.077C49.6502 235.792 49.2271 239.46 48.8509 243.175C48.5218 246.42 48.0046 249.571 47.6755 252.816C47.2993 256.531 46.6881 260.246 46.406 263.961C46.1709 266.689 45.7007 269.322 45.0424 272.003C44.6193 273.79 44.3372 275.577 44.0551 277.364C43.914 278.116 44.3372 278.539 44.9954 278.775C45.6067 278.963 46.2179 278.963 46.5 278.163C46.6881 277.693 47.1112 277.317 47.3934 276.799C49.9323 272.285 50.4966 267.3 51.1078 262.315C51.4369 259.541 51.531 256.719 51.9071 253.944C52.3303 250.606 52.8945 247.314 52.9885 243.975C52.9885 243.41 52.9885 242.799 53.0826 242.235C53.5998 239.46 53.4117 236.592 53.2236 233.817C53.0355 231.372 52.8475 228.926 52.5183 226.528C52.2832 224.506 52.8474 222.578 52.9415 220.602C53.0355 218.204 53.1296 215.759 53.5527 213.36C54.258 209.034 54.9163 204.707 56.2328 200.522C57.0321 198.077 58.3486 195.96 59.9942 194.032C60.3233 193.609 60.7935 193.421 60.9346 194.267C61.1697 195.49 61.4988 196.666 61.8279 197.889C63.0034 202.027 64.0378 206.165 65.3073 210.257C66.8118 215.147 68.0343 220.085 69.3038 225.023C70.4793 229.491 71.3726 234.052 72.5951 238.567C73.7235 242.752 74.5228 247.031 75.4632 251.264C75.6042 251.828 75.6983 252.44 75.2281 253.051C70.4322 259.588 66.1066 266.407 61.5928 273.131C59.1949 276.705 56.844 280.326 54.164 283.665C51.2959 287.239 47.9576 290.437 44.5252 293.494C40.7638 296.88 37.0493 300.313 32.8177 303.134C30.843 304.451 28.8682 305.815 26.6583 306.614C23.7432 307.649 20.64 307.79 17.5368 307.649C16.6435 307.602 15.8912 307.32 15.28 306.567C13.2582 304.075 11.9887 301.206 11.5185 298.008C11.2364 296.221 11.2364 294.434 10.9543 292.647C10.6252 290.39 10.3431 288.18 10.202 285.923C9.82585 280.844 10.343 275.953 10.7192 270.592ZM27.3166 136.613C27.7397 137.6 28.1159 138.4 28.445 139.293C29.2914 141.739 29.9026 144.278 30.937 146.629C31.8303 148.605 32.3945 150.627 32.5826 152.743C32.9117 156.693 33.0998 160.643 33.523 164.594C33.7581 166.71 34.1812 168.826 34.0872 170.989C34.0872 171.365 34.2753 171.648 34.3693 171.977C34.6044 172.682 35.1686 173.058 35.7798 172.917C36.3911 172.776 37.0964 172.494 37.0023 171.507C36.9083 170.613 37.0023 169.72 36.9553 168.826C36.6262 164.688 36.2971 160.596 35.9679 156.458C35.6858 153.26 35.4037 150.109 35.1216 146.912C34.8865 143.808 35.5448 140.798 36.109 137.741C36.3441 136.472 36.8143 135.202 37.7076 134.073C38.2718 136.942 37.9897 139.716 38.0367 142.491C38.0367 145.642 38.0367 148.84 39.3062 151.802C39.7294 152.837 39.7764 153.824 39.7294 154.859C39.6353 156.129 39.2122 157.351 39.2592 158.668C39.3532 160.596 39.2122 162.524 39.3062 164.406C39.3532 165.863 39.3062 167.321 39.5883 168.826C39.7764 170.002 40.5287 169.861 41.234 169.908C41.9863 169.908 42.4094 169.39 42.5505 168.685C42.6445 167.98 42.8796 167.321 42.9736 166.616C43.2558 162.995 43.5379 159.374 43.961 155.8C44.2901 153.025 44.8074 150.297 45.9358 147.711C46.8291 145.595 48.1456 145.125 50.0734 146.253C53.2236 148.134 55.4335 150.815 56.6559 154.295C56.844 154.859 56.797 155.282 56.0917 155.659C54.9633 156.317 54.0699 156.646 52.9885 155.706C52.7064 155.47 52.1892 155.423 51.766 155.329C49.6972 154.906 47.3934 156.082 46.9702 157.963C46.7821 158.809 46.547 159.75 46.547 160.596C46.5 165.205 46.312 169.814 46.9702 174.422C47.1113 175.269 47.3463 176.115 47.6284 176.868C48.2867 178.561 48.2867 178.514 46.8291 179.642C44.4312 181.523 42.1743 183.545 40.2466 185.944C39.5413 186.837 38.9301 187.872 38.5539 188.953C38.1778 189.988 38.5069 190.458 39.5883 190.411C41.0459 190.364 42.1743 189.659 43.1147 188.624C45.9828 185.521 48.8039 182.417 51.9071 179.595C53.3177 178.325 54.4461 176.821 54.8692 174.892C55.2454 173.152 55.4335 171.365 55.7626 169.625C56.2328 166.71 56.4679 163.747 56.844 160.784C56.9851 159.844 57.1731 158.856 57.5023 157.963C57.6433 157.587 57.6903 156.834 58.5367 156.975C59.2419 157.069 59.383 157.634 59.5711 158.104C60.4644 160.455 60.8405 162.901 60.8876 165.393C61.0286 170.895 61.0756 176.397 60.5584 181.899C60.4644 183.122 60.1353 184.298 59.9472 185.473C59.8061 186.273 59.43 187.072 58.7717 187.778C55.7156 190.929 53.0826 194.409 52.0482 198.782C51.672 200.381 50.9197 201.369 49.3211 201.745C49.2741 201.745 49.18 201.839 49.133 201.886C45.5596 203.72 41.7982 203.297 38.2718 202.027C35.3097 200.992 32.3005 199.723 29.6205 198.03C29.3384 197.842 28.9152 197.983 28.6801 197.606C27.2696 195.255 25.9531 192.857 24.9187 190.317C23.4611 186.696 22.2857 182.934 20.9221 179.266C19.7467 176.021 19.1825 172.635 18.2891 169.343C17.7719 167.462 17.4898 165.534 17.1607 163.606C16.8316 161.49 16.7375 159.421 16.7375 157.304C16.7375 156.129 16.8786 154.953 17.0196 153.448C17.913 154.859 18.101 156.223 18.6653 157.446C19.8877 160.22 21.0162 163.042 22.0976 165.863C23.3201 169.108 24.8246 172.259 26.3762 175.363C26.8464 176.303 27.8338 176.35 28.7271 176.115C29.3384 175.927 29.4794 175.363 29.3854 174.798C29.1033 173.247 28.9622 171.648 28.5861 170.096C27.5047 165.769 27.0815 161.349 26.8934 156.881C26.6583 151.426 26.7524 145.924 26.7994 140.422C26.5643 139.293 26.3762 137.882 27.3166 136.613ZM209.277 96.0286C209.747 97.4394 208.807 98.8502 208.195 100.214C207.866 101.013 207.302 101.954 206.409 102.424C205.233 103.036 204.152 103.506 202.741 103.553C200.343 103.553 198.086 103.929 195.736 102.612C193.808 101.531 191.598 100.872 189.623 99.8378C189.106 99.5556 188.824 98.8502 188.307 98.8502C187.272 98.8502 186.708 98.1448 185.956 97.6746C183.652 96.2167 181.677 94.3357 179.796 92.3605C179.279 91.7962 179.185 91.42 180.126 91.373C180.408 91.373 180.831 91.373 180.972 91.0908C181.912 89.4449 183.699 88.7395 184.921 87.4698C186.426 85.9649 188.213 84.6952 188.965 82.4849C189.576 80.6979 190.564 78.9579 190.517 77.0298C190.47 75.4779 190.893 74.1612 191.457 72.7504C191.786 71.9039 192.773 71.7628 193.338 72.4682C194.607 74.1612 196.065 75.6661 197.569 77.1239C199.779 79.3341 201.707 81.8266 203.776 84.1779C205.327 85.9179 206.832 87.6579 207.678 89.8681C208.525 91.7962 209.465 93.6303 209.277 96.0286ZM215.483 220.744C216.988 222.531 218.21 224.176 219.621 225.634C223.711 229.726 225.404 235.04 227.097 240.307C228.178 243.552 228.507 246.984 228.977 250.37C229.307 252.816 229.165 255.355 228.413 257.707C226.956 262.362 224.511 266.501 220.608 269.651C218.869 271.062 216.988 272.05 214.684 272.191C214.026 272.238 213.885 272.05 213.932 271.438C214.167 267.488 214.12 263.491 214.261 259.541C214.496 252.769 214.637 246.044 214.825 239.272C214.966 234.758 214.966 230.29 215.154 225.775C215.295 224.224 215.342 222.672 215.483 220.744ZM142.605 268.194C143.122 267.911 143.498 267.958 143.828 268.099C146.649 269.181 149.564 269.981 152.338 271.109C154.924 272.144 157.463 273.366 160.096 274.401C160.942 274.73 161.836 274.824 162.588 274.072C163.622 272.943 163.716 270.639 162.682 269.51C160.284 267.018 157.98 264.384 155.864 261.657C155.77 261.516 155.441 261.328 155.676 261.092C155.864 260.904 156.052 261.045 156.287 261.187C157.792 262.033 159.108 263.162 160.472 264.196C163.81 266.736 166.866 269.698 170.44 271.909C170.863 272.191 170.957 272.614 171.051 273.178C171.239 275.012 170.957 276.846 171.004 278.633C171.098 282.066 170.581 285.405 170.299 288.791C170.252 289.356 170.064 289.92 169.405 289.967C167.619 290.155 165.879 290.625 164.139 290.86C161.036 291.284 157.933 291.566 154.83 291.942C150.786 292.412 146.696 292.6 142.605 292.412C141.336 292.365 140.207 291.989 138.985 291.613C140.019 290.954 141.148 290.672 142.323 290.578C144.956 290.343 147.589 290.061 150.222 289.591C152.197 289.262 152.996 288.509 153.325 286.675C153.466 286.017 153.231 285.499 152.573 285.311C151.303 284.982 149.987 284.559 148.717 284.512C144.58 284.371 140.489 283.853 136.352 283.477C134.753 283.336 133.154 283.054 131.556 282.866C134.659 282.349 137.715 282.584 140.771 282.866C144.251 283.195 147.73 283.007 151.209 282.772C152.338 282.678 152.902 282.066 153.137 280.656C153.325 279.433 152.479 279.057 151.539 278.775C149.47 278.163 147.354 277.693 145.238 277.223C142.323 276.564 139.455 275.812 136.587 275.012C134.236 274.401 131.885 273.79 129.44 272.896C131.039 272.379 132.355 272.99 133.672 273.178C136.399 273.555 139.079 274.166 141.759 274.918C144.862 275.812 148.012 276.376 151.209 276.893C151.821 276.988 152.479 276.941 153.09 276.941C154.454 276.893 154.736 275.765 155.018 274.777C155.253 273.931 154.783 273.366 153.936 273.037C153.043 272.708 152.291 272.097 151.397 271.721C148.341 270.545 145.52 269.416 142.605 268.194ZM41.0459 213.878C38.742 214.066 36.4381 213.69 34.1813 213.266C31.7833 212.843 29.4794 211.761 27.3166 210.633C26.6583 210.304 26.2352 209.974 26.4703 209.034C26.6583 208.376 26.8464 207.717 27.0815 207.059C27.6927 205.225 28.0689 203.344 29.0563 201.651C29.4324 200.992 29.6675 201.086 30.1847 201.416C32.7237 203.156 35.5918 204.378 38.4129 205.413C42.2214 206.824 46.2649 207.2 50.3085 206.212C50.7316 206.118 50.9667 206.165 50.8257 206.73C50.5436 207.905 50.2145 209.081 50.1674 210.257C50.1204 211.526 49.5092 212.091 48.4748 212.561C46.0768 213.643 43.5849 213.737 41.0459 213.878ZM177.304 272.238C179.091 272.285 179.796 273.037 179.561 274.589C179.091 277.975 178.715 281.361 177.822 284.653C177.399 286.158 176.928 287.71 176.693 289.261C176.599 289.92 176.176 290.296 175.471 290.014C174.671 289.685 175.001 288.979 175.142 288.509C175.847 286.205 176.176 283.853 176.505 281.455C176.881 278.539 177.022 275.624 176.74 272.708C176.693 272.097 177.069 272.285 177.304 272.238ZM153.372 48.8608C153.231 49.0489 153.701 49.5662 153.231 49.8484C152.761 50.1305 152.432 49.5662 152.15 49.3781C149.564 47.6851 146.931 45.9922 144.204 44.5343C142.934 43.876 141.853 42.9825 140.865 41.9479C140.583 41.6187 140.066 41.3836 140.536 40.7722C140.912 40.3019 141.383 40.396 141.806 40.5841C145.191 42.0419 148.482 43.6879 151.492 45.8511C152.291 46.4624 153.654 47.0738 153.372 48.8608ZM50.2615 175.551C49.7913 174.657 49.7443 173.764 49.6973 173.011C49.5562 168.168 49.5092 163.324 50.5436 158.574C50.6846 157.822 51.0608 157.681 51.672 158.198C52.9885 159.233 53.1766 159.75 52.6594 161.349C52.5654 161.631 52.4243 161.96 52.4243 162.242C52.2832 165.017 51.625 167.697 51.2959 170.472C51.1548 172.071 50.9667 173.811 50.2615 175.551Z" fill="black"/>
<path d="M78.6134 170.237C81.0584 168.873 83.4092 167.415 85.9482 166.334C87.5939 165.628 89.1455 164.594 90.603 163.512C93.5182 161.302 96.8094 159.75 99.9126 157.916C103.204 155.941 106.636 154.107 109.927 152.038C113.407 149.827 117.074 147.852 120.271 145.266C122.622 143.385 125.161 141.692 127.277 139.482C128.594 138.118 130.004 136.801 131.227 135.296C133.484 132.522 135.317 129.653 135.364 125.891C135.411 124.809 135.552 123.728 135.552 122.646C135.599 120.812 134.424 119.965 133.201 119.495C131.838 119.025 130.851 118.131 129.863 117.097C129.299 116.485 128.735 115.827 128.171 115.263C126.29 113.476 125.302 111.03 123.751 109.055C122.434 107.362 121.87 105.34 121.165 103.412C120.601 101.766 120.648 99.9791 120.224 98.2861C119.848 96.6872 119.613 95.0883 119.284 93.4894C119.19 93.1132 119.143 92.7369 119.096 92.3607C118.673 88.5045 118.156 84.6483 117.827 80.7451C117.638 78.2057 117.168 75.7133 116.698 73.2679C116.228 70.7284 115.852 68.142 113.454 66.496C113.36 66.9663 113.078 66.9663 112.655 66.9193C106.73 66.3079 100.806 66.1668 94.9287 67.4366C92.3427 67.9538 90.0858 69.2706 87.7819 70.3522C85.1489 71.6219 82.6099 73.1268 80.212 74.8198C76.9678 77.1241 74.1937 79.8516 71.5607 82.8613C69.2098 85.5889 67.282 88.5516 65.5424 91.6083C63.9437 94.4299 62.5802 97.4396 61.5928 100.637C60.0412 105.528 60.5584 110.419 60.6055 115.357C60.6525 118.931 61.6869 122.27 62.4862 125.656C63.2855 129.089 64.461 132.427 65.4483 135.813C66.3417 138.682 67.3761 141.551 68.3634 144.372C68.4575 144.701 68.6926 144.984 68.8807 145.266C69.774 144.937 70.6673 144.796 71.6077 144.89C73.0653 145.031 73.3474 145.736 72.5951 146.959C71.8898 148.04 71.0905 149.028 70.1972 149.968C70.8554 150.486 71.0435 151.238 71.3256 151.991C73.3004 156.881 75.087 161.866 77.1088 166.757C77.7201 167.839 78.1902 169.014 78.6134 170.237Z" fill="#FFD8D8"/>
<path d="M211.205 103.929C210.264 104.729 209.089 105.199 208.101 105.998C207.396 106.563 206.268 106.939 205.374 107.08C203.306 107.409 201.19 107.456 199.074 106.986C194.842 106.093 191.081 104.117 187.131 102.471C185.345 101.719 183.746 100.59 182.1 99.5558C180.549 98.5683 180.314 98.7564 180.267 100.543C180.22 102.236 180.22 103.929 180.22 105.575C180.267 108.397 179.844 111.171 179.373 113.946C179.138 115.263 179.326 116.627 179.232 117.943C179.044 120.436 178.95 122.975 178.386 125.468C178.151 126.502 178.48 127.302 179.467 127.772C182.43 129.183 185.251 130.829 188.072 132.522C192.397 135.155 196.629 137.93 200.814 140.751C201.613 141.316 202.412 141.88 203.212 142.397C203.259 142.397 203.306 142.397 203.306 142.444C204.575 144.513 207.161 144.749 208.807 146.488C210.405 148.181 212.474 149.451 214.355 150.909C217.834 153.637 221.219 156.458 224.511 159.468C229.448 163.935 234.385 168.356 238.851 173.294C239.274 173.764 239.792 173.952 240.262 174.234C241.061 174.705 241.155 175.692 241.719 176.303C243.882 178.702 246.28 181.006 248.302 183.546C250.324 186.085 252.581 188.436 254.367 191.164C255.12 192.34 256.107 193.28 257.047 194.221C258.975 196.243 260.433 198.641 261.937 200.945C262.36 201.604 263.16 202.027 263.395 202.732C263.818 204.002 264.476 205.084 265.228 206.165C267.344 209.175 269.178 212.326 270.918 215.571C272.657 218.863 274.444 222.107 275.996 225.493C276.748 227.186 277.547 228.926 278.158 230.713C278.205 230.807 278.347 230.807 278.441 230.854C280.603 229.444 282.484 227.704 284.271 225.87C286.152 223.894 287.985 221.872 289.49 219.568C291.041 217.217 292.217 214.63 293.486 212.138C293.815 211.432 294.051 210.727 294.098 209.928C294.192 207.905 295.226 206.071 295.414 204.049C295.602 202.027 296.025 200.005 296.025 197.983C296.025 193.468 295.743 188.954 294.38 184.58C294.333 184.345 294.286 184.11 294.286 183.875C294.333 181.382 293.251 179.172 292.499 176.915C291.747 174.658 290.665 172.588 289.537 170.519C288.502 168.591 287.468 166.569 285.869 164.923C285.023 164.029 284.459 162.995 283.754 162.007C282.343 159.985 280.697 158.151 278.817 156.599C276.795 154.906 274.914 153.025 272.704 151.52C269.46 149.263 265.981 147.476 262.407 145.924C259.21 144.56 255.825 143.62 252.298 142.961C249.289 142.397 246.327 142.35 243.365 142.538C240.309 142.726 237.3 143.291 234.573 144.843C234.102 145.125 233.444 145.172 232.88 145.219C230.294 145.407 227.708 145.36 225.122 145.219C224.417 145.172 223.664 145.031 223.1 144.654C221.455 143.479 219.48 142.82 218.304 140.939C217.646 139.811 216.659 138.87 215.671 138.024C214.496 136.989 213.838 135.625 213.226 134.262C212.145 131.628 211.252 128.948 210.923 126.126C210.781 125.091 210.264 124.057 209.935 123.069C208.948 120.107 208.901 117.144 209.277 114.134C209.559 112.018 209.606 109.855 210.217 107.785C210.593 106.469 211.44 105.34 211.205 103.929Z" fill="#FFD8D8"/>
<path d="M136.022 20.833C136.164 21.5854 136.634 21.3032 137.01 21.1151C139.22 20.0805 141.524 19.187 143.875 18.6697C146.084 18.1524 148.153 17.353 150.316 16.7416C154.454 15.613 158.638 15.8951 162.776 16.2243C165.879 16.5065 169.076 17.2589 172.085 18.6227C174.906 19.8924 177.492 21.3503 179.937 23.2783C182.523 25.3005 185.062 27.3697 187.225 29.8621C188.777 31.6961 189.905 33.8123 191.034 35.9285C192.397 38.468 193.432 41.1485 194.231 43.8761C194.983 46.4155 195.406 49.049 195.736 51.6355C196.159 54.7863 196.206 58.0311 196.253 61.2289C196.253 63.204 195.736 65.0851 195.736 67.0602C195.736 68.471 196.112 69.5527 197.052 70.6343C199.027 72.9856 200.861 75.5251 202.835 77.9234C204.763 80.2748 206.456 82.8612 208.43 85.1655C209.606 86.5293 210.546 88.0812 211.675 89.445C212.333 90.2444 212.709 91.3731 213.085 92.4077C214.12 95.1352 213.602 97.7687 212.521 100.355C212.38 100.731 212.239 101.061 212.333 101.484C213.461 100.355 213.649 98.7563 214.308 97.4395C215.624 94.712 217.082 92.0785 218.257 89.3039C219.574 86.1061 220.749 82.9082 221.266 79.4283C222.113 73.9732 222.865 68.5181 222.771 63.0159C222.677 58.3133 222.16 53.6106 221.313 48.9549C220.467 44.4874 218.962 40.208 217.223 36.0226C215.718 32.4015 213.885 29.0156 211.722 25.7237C208.713 21.1621 205.327 16.9297 201.472 13.0735C197.804 9.40546 193.526 6.63088 189.012 4.13846C186.191 2.58658 182.994 1.83415 179.89 0.940645C175.471 -0.282051 171.051 -0.0469169 166.631 0.0941633C163.199 0.235244 159.908 1.26983 156.757 2.58658C154.407 3.57414 152.009 4.46765 149.846 5.83143C147.589 7.28925 145.849 9.40546 143.969 11.2395C141.336 13.7789 139.173 16.7887 136.775 19.5632C136.352 19.8924 135.928 20.2686 136.022 20.833Z" fill="#FFD8D8"/>
<path d="M222.677 125.185C225.263 125.467 226.674 123.304 227.943 121.329C228.931 119.871 229.401 118.084 229.354 116.203C229.354 115.122 228.883 114.369 227.896 114.087C225.827 113.523 223.664 113.617 222.301 115.686C220.749 118.037 219.621 120.53 219.527 123.445C219.48 124.386 219.95 124.903 220.843 125.091C221.314 125.185 221.831 125.138 222.677 125.185Z" fill="#FFD8D8"/>
<path d="M234.008 123.68C231.751 123.492 229.824 124.574 227.802 125.279C226.485 125.749 225.216 126.408 223.899 127.019C222.63 127.631 222.16 128.43 222.489 129.7C222.771 130.781 223.711 131.158 224.699 131.205C228.366 131.299 231.61 130.17 234.667 128.195C235.607 127.584 236.547 126.972 237.3 126.126C238.099 125.279 237.958 124.668 236.876 124.151C235.936 123.727 234.996 123.633 234.008 123.68Z" fill="#FFD8D8"/>
<path d="M70.2913 149.921C71.1847 148.981 71.984 147.993 72.6893 146.912C73.4886 145.689 73.1594 145.031 71.7019 144.843C70.7615 144.749 69.8682 144.89 68.9748 145.219C67.3762 146.3 65.7776 147.382 64.6021 148.981C63.6618 150.251 64.0379 151.144 65.9186 151.379C67.1411 151.52 68.2695 151.238 69.3039 150.533C69.6331 150.298 69.9622 150.11 70.2913 149.921Z" fill="black"/>
<path d="M63.0974 147.711C63.6616 147.805 64.2258 147.241 64.5549 146.535C65.4483 144.701 66.0125 142.726 66.4356 140.751C66.6237 139.952 65.9184 139.857 65.4483 139.763C64.3669 139.481 63.2854 140.187 62.7682 141.456C62.251 142.726 61.9689 144.043 61.8279 145.36C61.7809 145.689 61.8749 146.112 61.7338 146.394C61.1696 147.523 61.8749 147.664 63.0974 147.711Z" fill="black"/>
<path d="M78.0963 170.613C78.1433 170.613 78.1903 170.566 78.2373 170.519C78.1903 170.472 78.1433 170.472 78.0963 170.425C78.0963 170.519 78.0963 170.566 78.0963 170.613Z" fill="#FFD8D8"/>
<path d="M152.714 165.581C153.56 166.898 155.112 167.086 156.382 167.651C158.262 168.497 160.237 169.203 162.259 169.861C165.127 170.801 168.042 171.601 170.863 172.588C172.65 173.2 174.342 174.093 176.082 174.893C179.044 176.304 182.053 177.62 185.016 178.89C190.658 181.335 195.924 184.486 201.378 187.261C204.669 188.954 207.913 190.788 210.97 192.81C214.59 195.208 218.069 197.842 221.361 200.71C222.818 201.98 224.323 203.156 225.874 204.284C227.802 205.695 229.495 207.435 231.187 209.128C233.632 211.527 236.03 214.019 238.475 216.464C238.757 216.747 238.898 217.123 239.369 217.17C241.249 215.806 242.754 213.972 244.258 212.232C245.34 211.009 246.515 209.881 247.691 208.752C249.524 207.012 251.405 205.366 253.239 203.579C254.179 202.686 254.038 201.98 253.239 200.71C251.405 197.795 249.242 195.161 247.174 192.434C245.575 190.365 243.882 188.389 242.237 186.367C240.967 184.862 239.698 183.311 238.428 181.853C237.206 180.442 235.936 179.031 234.62 177.714C234.103 177.197 233.82 176.68 233.585 175.974C233.35 175.175 232.457 174.375 231.893 174.187C230.341 173.576 229.636 172.212 228.554 171.225C227.05 169.814 225.78 168.168 224.182 166.898C222.395 165.393 220.937 163.559 219.104 162.101C218.492 161.631 217.834 161.02 217.223 160.503C214.59 158.198 211.91 155.847 209.23 153.59C207.819 152.367 206.268 151.285 204.669 150.345C204.199 150.063 203.917 149.686 203.635 149.169C202.929 147.946 201.613 147.288 200.485 146.489C199.685 145.924 198.839 145.313 198.087 144.655C197.522 144.137 196.582 144.184 196.347 143.714C195.924 142.821 195.077 142.585 194.466 142.068C191.974 139.952 188.965 138.588 186.379 136.613C185.815 136.19 185.016 135.955 184.263 135.672C183.417 135.39 183.135 136.096 183.088 136.707C182.712 139.952 181.583 142.915 180.408 145.924C179.232 148.84 177.963 151.709 176.035 154.201C173.449 157.54 170.816 160.832 166.537 162.243C164.516 162.948 162.494 163.794 160.425 164.359C158.826 164.782 157.087 165.111 155.347 165.017C154.407 165.017 153.513 165.111 152.714 165.581Z" fill="#FFD8D8"/>
<path d="M175.189 97.2513C173.872 97.1573 173.308 98.2389 172.65 98.9913C171.333 100.449 170.158 102.001 168.982 103.553C168.7 103.929 168.512 104.305 167.995 104.446C167.29 105.622 166.49 106.751 165.832 107.973C164.892 109.76 163.575 111.453 161.977 112.864C161.177 113.57 160.425 113.993 159.438 113.899C158.92 113.852 158.591 113.993 158.591 114.604C158.591 115.122 158.215 115.263 157.839 115.498C157.087 115.968 156.099 116.203 155.723 117.144C155.582 118.037 155.394 118.931 155.394 119.824C155.253 123.821 154.736 127.725 154.031 131.628C153.372 135.296 152.949 139.011 152.902 142.773C152.902 143.102 152.902 143.385 152.855 143.714C152.432 146.582 152.056 149.404 152.009 152.32C154.219 152.837 156.287 152.038 158.262 151.285C159.532 150.815 160.942 149.921 161.742 148.652C162.729 147.147 164.328 146.159 165.033 144.419C165.08 144.278 165.268 144.09 165.456 144.043C167.055 143.667 167.431 142.209 168.089 141.033C170.017 137.459 170.346 133.415 171.709 129.653C172.086 128.571 171.991 127.348 172.18 126.22C172.415 124.574 172.838 122.928 172.791 121.235C172.744 119.025 173.12 116.814 173.355 114.604C173.825 110.278 174.436 105.998 174.766 101.625C174.86 100.543 174.813 99.3676 175.424 98.333C175.565 98.0508 175.424 97.5805 175.189 97.2513Z" fill="#FFD8D8"/>
<path d="M164.704 19.9395C167.243 22.5259 169.076 25.5827 170.44 28.9686C171.568 31.8372 172.133 34.8469 172.885 37.8096C173.778 41.2896 173.966 44.8636 174.342 48.4377C174.483 49.7544 174.766 51.0712 174.577 52.3879C174.107 56.3382 174.06 60.3354 173.073 64.1916C172.885 64.944 172.838 65.7905 172.321 66.4489C172.368 67.2954 173.026 67.8127 173.496 68.424C173.966 69.0354 174.766 68.8943 175.189 68.2829C176.787 66.1667 179.138 65.1792 181.395 64.1446C182.194 63.7684 183.276 63.8624 184.169 64.0976C185.627 64.4738 187.178 64.7559 188.448 65.7435C188.918 66.0727 189.388 66.1667 189.67 65.3203C190.329 63.4862 190.14 61.6051 190.235 59.7711C190.423 56.009 190.235 52.1998 189.482 48.5317C188.965 45.9923 188.542 43.4058 187.46 40.9134C186.426 38.421 185.345 35.9285 183.84 33.7183C183.182 32.7778 182.947 31.2729 181.442 30.9437C180.878 30.8497 181.207 30.0032 180.784 29.5799C179.138 27.887 177.305 26.3821 175.424 24.8773C173.449 23.2784 171.286 22.0086 168.888 21.0681C167.525 20.5508 166.161 20.1746 164.704 19.9395Z" fill="#FFD8D8"/>
<path d="M209.277 96.0285C209.465 93.6301 208.524 91.7961 207.772 89.915C206.879 87.7048 205.421 85.9648 203.87 84.2248C201.754 81.9205 199.826 79.4281 197.663 77.1708C196.159 75.6659 194.701 74.1611 193.432 72.5151C192.867 71.8097 191.88 71.9508 191.551 72.7973C190.987 74.1611 190.563 75.5248 190.61 77.0767C190.658 79.0048 189.717 80.7448 189.059 82.5318C188.307 84.6951 186.52 85.9648 185.015 87.5167C183.793 88.7864 181.959 89.4918 181.066 91.1377C180.925 91.4199 180.502 91.4199 180.219 91.4199C179.279 91.4669 179.326 91.7961 179.89 92.4074C181.771 94.3826 183.746 96.2636 186.05 97.7215C186.802 98.1917 187.366 98.8971 188.401 98.8971C188.871 98.8971 189.153 99.6025 189.717 99.8847C191.692 100.966 193.902 101.578 195.83 102.659C198.133 103.976 200.437 103.647 202.835 103.6C204.246 103.6 205.327 103.083 206.503 102.471C207.443 102.001 207.96 101.06 208.289 100.261C208.807 98.8501 209.747 97.4863 209.277 96.0285Z" fill="#FFD8D8"/>
<path d="M242.754 220.979C244.164 221.966 245.152 223.377 246.374 224.553C248.255 226.34 250.089 228.268 251.875 230.196C253.38 231.842 254.743 233.676 256.342 235.275C257.564 236.498 258.129 238.097 259.257 239.319C259.492 239.601 259.68 240.119 260.244 239.554C262.878 237.015 265.322 234.24 267.485 231.278C268.002 230.525 268.191 229.585 268.99 228.973C268.285 227.374 267.532 225.823 266.827 224.177C266.075 222.296 264.805 220.65 264.053 218.863C263.207 216.888 262.031 215.148 261.091 213.314C259.868 211.009 258.411 208.846 257.094 206.636C256.577 205.742 256.107 206.024 255.543 206.589C253.427 208.94 251.217 211.291 249.195 213.69C247.173 216.041 245.058 218.298 242.989 220.603C242.848 220.697 242.801 220.838 242.754 220.979Z" fill="#FFD8D8"/>
<path d="M149.329 161.866C150.222 162.524 151.209 161.866 152.15 161.96C156.381 162.289 160.331 161.02 163.904 158.903C166.02 157.681 167.854 156.035 169.499 154.107C170.769 152.602 171.991 151.05 172.979 149.357C173.966 147.57 174.765 145.689 175.612 143.855C176.552 141.88 177.634 139.999 178.151 137.882C178.527 136.331 179.702 135.155 179.937 133.556C180.031 133.039 180.031 132.851 179.561 132.568C176.975 130.922 177.398 131.205 176.411 133.838C175.706 135.719 175.095 137.6 174.342 139.434C173.496 141.504 172.462 143.479 171.239 145.36C169.923 147.429 168.606 149.545 166.866 151.238C165.221 152.884 163.152 154.107 160.848 154.671C158.121 155.329 155.441 156.458 152.526 156.223C151.586 156.129 150.739 155.612 149.799 155.847C149.752 156.035 149.846 156.129 150.034 156.129C151.256 155.988 151.115 156.787 150.974 157.54C150.739 158.762 150.363 159.938 150.222 161.161C150.175 161.772 149.846 161.866 149.329 161.866Z" fill="#FFD8D8"/>
<path d="M179.044 70.6343C179.985 70.6813 180.22 69.8348 180.69 69.3175C181.442 68.5181 182.336 68.0008 183.417 67.7186C183.511 67.1543 183.276 66.8251 182.665 66.8721C182.242 66.8721 181.818 66.8721 181.395 66.4019C181.348 67.2483 181.066 67.6716 180.408 68.0948C179.562 68.6121 178.809 69.4116 179.044 70.6343Z" fill="#FFD8D8"/>
<path d="M150.504 165.158C150.316 165.205 150.41 165.299 150.504 165.346C150.645 165.346 150.88 165.487 150.88 165.205C150.739 165.158 150.598 165.158 150.504 165.158Z" fill="#FFD8D8"/>
<path d="M133.719 72.5622C133.766 78.1584 133.06 83.1432 133.201 88.175C133.248 88.9275 133.154 89.6329 133.436 90.3383C134.095 91.9842 136.211 92.3604 138.326 91.561C139.972 90.9496 140.677 89.5388 141.1 87.9869C141.241 87.5637 140.912 87.5167 140.677 87.4696C139.878 87.3286 139.173 87.2815 138.703 88.2221C138.373 88.8805 137.809 89.9621 137.198 89.7269C136.399 89.4918 136.822 88.3161 136.869 87.6107C137.198 82.4848 137.621 77.4059 137.292 72.28C137.198 70.493 137.057 68.706 136.963 66.919C136.916 66.0255 136.352 65.7903 135.646 65.7903C134.941 65.7903 134.283 65.6963 134.095 66.7308C133.625 68.8941 133.813 71.0573 133.719 72.5622Z" fill="black"/>
<path d="M140.348 99.697C142.981 99.5559 145.238 98.4743 147.354 97.0165C149.611 95.4646 151.774 93.7246 153.748 91.7965C154.172 91.3733 154.501 91.3733 154.783 91.7495C155.112 92.1727 155.582 92.2668 155.958 92.4549C156.664 92.737 157.51 92.737 158.027 92.1727C158.544 91.6084 158.215 90.95 157.933 90.3387C157.322 88.9279 156.711 87.5171 155.817 86.2473C155.206 85.3538 154.501 84.6484 153.278 84.6484C151.633 84.6484 151.068 85.4479 151.633 86.9527C151.915 87.6581 152.573 88.3165 152.385 89.0219C152.197 89.7744 151.303 90.0565 150.692 90.5268C147.166 93.2543 143.687 95.9819 139.737 98.0981C139.69 98.1451 139.596 98.1921 139.549 98.2392C138.985 98.3802 138.185 98.3332 138.326 99.1797C138.515 100.026 139.361 99.6029 139.925 99.697C140.113 99.744 140.207 99.697 140.348 99.697Z" fill="black"/>
<path d="M130.898 76.3244C130.851 74.0671 130.521 72.233 129.44 70.5401C128.876 69.6466 128.029 69.3174 127.136 69.3174C126.196 69.3174 125.632 69.9287 125.255 70.8693C124.221 73.4087 124.362 75.9482 125.161 78.4876C125.679 80.1335 126.807 80.6979 128.5 80.4627C129.722 80.3216 130.615 79.287 130.804 77.6881C130.898 77.1238 130.898 76.5595 130.898 76.3244Z" fill="black"/>
<path d="M184.498 72.4684C183.37 72.3273 182.664 72.5624 182.053 73.1738C180.784 74.3965 179.232 75.4781 178.621 77.2181C178.104 78.6289 177.869 80.1337 177.869 81.6386C177.869 82.1089 177.916 82.5791 177.775 83.0494C177.681 83.4726 177.445 83.9899 177.963 84.178C178.386 84.3661 178.903 84.3191 179.326 83.8959C180.361 82.9553 181.066 81.8267 181.583 80.604C181.912 79.8516 182.288 79.5224 183.088 79.5694C183.605 79.6164 184.169 79.5224 184.733 79.4754C185.156 79.4754 185.392 79.2873 185.439 78.864C185.439 78.4878 185.156 78.2997 184.874 78.2056C184.545 78.1116 184.169 78.1116 183.84 78.0646C183.558 78.0175 183.135 78.2527 183.041 77.8294C182.947 77.4532 183.135 77.077 183.464 76.7948C184.639 75.8543 184.827 74.3495 185.439 73.1738C185.862 72.2803 184.686 72.5154 184.498 72.4684Z" fill="black"/>
<path d="M145.473 76.1835C148.153 76.0895 150.739 75.3841 153.184 74.2554C153.749 73.9733 154.172 73.503 153.843 72.8917C153.56 72.3273 153.654 71.3868 152.526 71.4338C150.692 71.4809 148.953 71.9982 147.166 72.3273C145.567 72.6095 144.345 73.2679 143.546 74.6787C142.887 75.8073 143.122 76.2306 144.392 76.2306C144.768 76.2306 145.097 76.1835 145.473 76.1835Z" fill="black"/>
<path d="M160.754 70.0231C160.002 69.976 159.344 70.3523 158.638 70.5404C158.309 70.6344 158.074 70.8696 158.074 71.1987C158.074 71.622 158.403 71.8571 158.732 71.9042C159.955 72.0923 161.083 71.622 162.118 71.0106C162.588 70.7285 162.447 70.2582 161.93 70.1171C161.553 70.0701 161.13 70.0701 160.754 70.0231Z" fill="black"/>
<path d="M160.895 74.3964C161.083 74.3494 161.271 74.3494 161.459 74.3023C161.789 74.2083 162.212 74.3964 162.306 73.8791C162.4 73.3618 161.977 73.1267 161.694 73.0326C160.989 72.7504 160.19 72.6094 159.438 72.4683C158.92 72.3742 158.403 72.7504 158.262 73.0796C158.074 73.5029 158.638 73.691 158.967 73.9261C159.626 74.3964 160.284 74.3023 160.895 74.3964Z" fill="black"/>
<path d="M32.1596 184.392C33.7112 184.345 34.9807 183.263 36.3913 182.558C38.4131 181.57 40.2938 180.395 41.8454 178.796C42.0805 178.514 42.5977 178.278 42.4566 177.902C42.2685 177.479 41.6573 177.479 41.1871 177.526C39.7766 177.667 38.4131 178.137 37.0966 178.655C35.3569 179.36 33.5232 179.971 31.8775 181.006C31.4544 181.288 31.0312 181.57 30.7491 181.993C30.42 182.511 29.9028 182.981 30.1849 183.686C30.608 184.439 31.3603 184.298 32.1596 184.392Z" fill="black"/>
</g>
<defs>
<clipPath id="clip0">
<rect width="295.556" height="341.978" fill="white" transform="matrix(-1 0 0 1 295.978 0)"/>
</clipPath>
</defs>
</svg>
