<svg width="249" height="60" viewBox="0 0 249 60" fill="none" xmlns="http://www.w3.org/2000/svg">
<g clip-path="url(#clip0)">
<path d="M32.4067 0.587769C33.3645 0.764999 34.3045 0.942229 35.2622 1.10174C38.7562 1.6866 42.0373 2.90949 45.0879 4.68179C47.2162 5.9224 49.1494 7.41114 50.9052 9.11255C52.3595 10.5304 53.6365 12.1077 54.7893 13.8092C56.6339 16.5385 57.9818 19.4983 58.7976 22.6884C59.6844 26.1089 59.915 29.5827 59.578 33.0918C59.2056 37.0263 58.0882 40.7127 56.1905 44.151C52.3595 51.0807 46.6309 55.7773 39.1109 58.2763C35.2622 59.5523 31.3071 59.7473 27.2988 59.4637C23.4324 59.1801 19.832 58.0459 16.4268 56.2736C14.2275 55.1216 12.2234 53.686 10.3611 52.02C6.17546 48.2627 3.32 43.6902 1.70604 38.3201C1.1917 36.601 0.907924 34.8287 0.695094 33.0387C0.659622 32.7551 0.570943 32.4715 0.5 32.188C0.5 30.841 0.5 29.4763 0.5 28.1294C0.570943 27.8458 0.659622 27.5622 0.695094 27.2787C1.15623 22.3162 2.80566 17.7614 5.60792 13.6496C8.58753 9.3075 12.4717 5.94013 17.2249 3.60069C19.7611 2.36007 22.4037 1.49164 25.206 1.08401C26.1283 0.942229 27.0505 0.764999 27.9728 0.587769C29.4449 0.587769 30.9169 0.587769 32.4067 0.587769ZM31.5909 53.5088C33.5241 53.5442 36.2022 52.8885 38.6852 51.9314C41.2569 50.9212 43.598 49.5034 45.6731 47.6602C47.6241 45.9233 49.3267 43.9915 50.6037 41.6875C51.2777 40.4646 51.0648 39.6848 49.7878 39.1354C48.9365 38.7632 47.9965 38.5328 47.092 38.3556C45.1056 37.9834 43.1901 38.3024 41.452 39.2949C40.3524 39.9152 39.3769 40.7305 38.3305 41.4571C35.0139 43.7965 31.3426 44.5586 27.4052 43.7965C24.5143 43.2294 22.0845 41.7938 20.0449 39.6493C15.9656 35.3781 15.0434 28.5902 18.0053 23.5214C21.0203 18.3463 25.5785 15.9536 31.5732 16.3436C33.5418 16.4676 35.4041 17.0525 37.089 18.0981C38.0822 18.7184 39.0399 19.4274 39.9799 20.1363C42.7467 22.2099 45.7618 22.653 49.0252 21.5364C49.5928 21.3414 50.1248 20.9693 50.586 20.5794C51.0826 20.154 51.1535 19.5691 50.8165 18.9666C50.586 18.5589 50.3909 18.1159 50.1426 17.7259C48.1916 14.6776 45.6731 12.1786 42.5871 10.2823C37.2132 6.98579 31.4135 5.9933 25.2415 7.28708C21.712 8.01372 18.5551 9.55563 15.7173 11.7533C11.9041 14.713 9.27923 18.5412 7.84263 23.1315C6.77848 26.5343 6.45924 30.0257 7.02678 33.5881C7.96678 39.4898 10.7513 44.3637 15.3094 48.1564C19.5305 51.7187 24.532 53.4556 31.5909 53.5088ZM53.8671 30.203C54.009 27.1546 51.4018 24.6911 48.4222 24.6557C45.4603 24.6202 42.8886 27.1369 42.8709 30.0612C42.8531 33.1982 45.4603 35.5908 48.3158 35.6439C51.2422 35.6794 54.009 33.145 53.8671 30.203Z" fill="#1576EF"/>
<path d="M68.0912 29.5649C68.1444 24.1948 71.1595 19.764 76.232 18.1158C80.932 16.5916 85.224 17.4246 88.7535 21.0401C89.4629 21.7667 90.0127 22.6706 90.5093 23.5567C90.9527 24.3366 90.6689 24.9746 89.7999 25.2936C88.6825 25.719 87.2459 25.6658 86.3237 24.3543C85.6142 23.3441 84.7097 22.5643 83.5923 22.0326C79.8146 20.2248 75.292 21.6427 73.4474 25.3999C71.8157 28.7142 71.9576 32.0284 74.2988 35.0413C77.2961 38.9049 83.2554 38.8517 86.1818 34.9349C86.9622 33.907 87.9021 33.4639 89.1614 33.6589C89.3387 33.6766 89.5161 33.7298 89.6757 33.8007C90.5803 34.1374 90.8818 34.8463 90.4384 35.697C89.8708 36.8313 89.0727 37.8238 88.1505 38.7099C86.2172 40.5 83.9471 41.4747 81.3044 41.6697C78.6086 41.8646 76.0546 41.4038 73.7667 39.9683C70.6984 38.0542 68.8539 35.2894 68.3218 31.6916C68.2331 30.965 68.1622 30.2738 68.0912 29.5649Z" fill="#231F20"/>
<path d="M145.81 30.841C145.81 31.16 145.81 31.479 145.81 31.798C145.827 34.5097 145.827 37.2213 145.845 39.9152C145.845 40.9431 145.579 41.2799 144.568 41.2799C143.947 41.2799 143.344 41.1913 142.724 41.0849C141.996 40.9431 141.624 40.4292 141.571 39.7025C141.535 39.3481 141.553 38.9936 141.553 38.6391C141.553 32.9323 141.571 27.2078 141.535 21.501C141.535 20.5971 141.411 19.6932 141.287 18.7893C141.181 18.0095 141.358 17.6728 142.121 17.5133C143.061 17.3006 143.947 17.5133 144.745 18.0095C145.49 18.4703 145.703 19.2324 145.703 20.0831C145.703 22.4757 145.703 24.8506 145.703 27.2432C145.703 27.5622 145.703 27.8813 145.703 28.3952C146.005 28.1471 146.2 28.0408 146.342 27.8813C148.771 25.0278 151.184 22.1744 153.596 19.3033C154.447 18.2931 155.493 17.7259 156.824 17.7437C157.409 17.7437 158.012 17.7259 158.579 17.8323C159.377 17.9918 159.502 18.5058 158.987 19.1083C156.185 22.3694 153.365 25.6127 150.563 28.8737C150.385 29.0687 150.244 29.2814 150.066 29.5295C150.226 29.7422 150.368 29.9371 150.51 30.0966C153.152 32.95 155.777 35.8212 158.437 38.6746C158.863 39.1177 159.377 39.4898 159.803 39.9329C159.98 40.1279 160.211 40.4823 160.158 40.6596C160.069 40.9077 159.732 41.209 159.484 41.2444C157.533 41.528 155.742 41.2799 154.323 39.6848C151.787 36.8668 149.179 34.0843 146.59 31.3018C146.413 31.1246 146.217 30.9473 146.04 30.7878C145.934 30.7701 145.863 30.8056 145.81 30.841Z" fill="#231F20"/>
<path d="M202.937 25.9672C204.019 24.9038 205.154 24.1062 206.555 23.8404C209.304 23.291 211.627 24.0708 213.489 26.1621C214.678 27.5091 215.228 29.1396 215.44 30.9119C215.777 33.4817 215.494 35.9807 214.128 38.2315C212.479 40.9254 209.907 42.0065 206.803 41.5812C205.615 41.4217 204.604 40.7482 203.699 39.9861C203.486 39.8089 203.274 39.5962 202.954 39.3126C202.919 39.6848 202.883 39.9329 202.883 40.181C202.883 42.9458 202.883 45.7106 202.883 48.4754C202.883 48.7058 202.883 48.9539 202.883 49.1843C202.866 49.6274 202.635 49.9287 202.174 49.9287C201.5 49.9464 200.808 49.9464 200.152 49.8578C199.46 49.7515 199.088 49.2907 199.017 48.5818C198.982 48.2273 198.999 47.8728 198.999 47.5184C198.999 40.9786 198.999 34.4565 198.999 27.9167C198.999 26.9774 198.946 26.0381 198.645 25.1342C198.379 24.3012 198.574 23.9645 199.46 23.8936C200.117 23.8227 200.808 23.8936 201.465 24.0354C202.032 24.1594 202.422 24.5848 202.653 25.1342C202.706 25.3469 202.795 25.595 202.937 25.9672ZM211.609 32.3829C211.556 32.0107 211.539 31.3372 211.361 30.7347C210.865 29.0155 209.871 27.7217 208.027 27.3318C206.324 26.9774 204.834 27.4913 203.504 28.5902C203.079 28.9446 202.866 29.37 202.866 29.9726C202.901 31.6385 202.954 33.3222 202.848 34.9882C202.795 36.0516 203.238 36.7073 204.072 37.2213C204.356 37.3985 204.622 37.558 204.923 37.6998C207.105 38.7455 209.517 38.0897 210.723 36.1047C211.361 35.0414 211.556 33.8716 211.609 32.3829Z" fill="#231F20"/>
<path d="M183.356 34.1552C183.551 35.4667 184.101 36.477 185.059 37.2213C186.708 38.5151 188.553 38.6923 190.504 38.0366C190.947 37.8948 191.373 37.6821 191.799 37.4872C192.632 37.0973 193.448 37.0973 194.246 37.5935C195.257 38.2315 195.293 38.9759 194.37 39.6848C193.483 40.376 192.473 40.89 191.391 41.1913C188.872 41.8648 186.354 41.9002 183.959 40.7305C181.618 39.5962 180.146 37.6998 179.543 35.1832C178.692 31.6563 179.366 28.4839 182.026 25.9317C186.141 21.9618 193.945 22.972 195.86 29.7954C196.073 30.5752 196.215 31.4082 196.303 32.2234C196.463 33.5527 195.966 34.1021 194.619 34.1021C191.249 34.1198 187.879 34.1021 184.527 34.1021C184.172 34.1021 183.817 34.1375 183.356 34.1552ZM192.331 31.0537C192.136 28.3775 189.99 26.8002 187.063 27.0837C185.148 27.261 183.285 29.2991 183.48 31.0537C186.407 31.0537 189.333 31.0537 192.331 31.0537Z" fill="#231F20"/>
<path d="M164.255 34.1552C164.574 35.9453 165.461 37.1682 167.004 37.8771C168.866 38.7278 170.693 38.4797 172.467 37.5935C173.158 37.2568 173.85 37.0441 174.595 37.3454C174.914 37.4695 175.233 37.6467 175.499 37.8771C176.031 38.3556 176.067 38.9405 175.517 39.4013C174.985 39.8621 174.4 40.2697 173.761 40.571C171.349 41.7584 168.813 41.9534 166.259 41.2622C163.279 40.4292 161.293 38.4265 160.495 35.449C159.644 32.2412 160.034 29.1573 162.286 26.5698C164.645 23.8582 167.696 23.0252 171.101 23.9468C174.293 24.8152 176.102 27.1369 176.847 30.2916C177.042 31.0892 177.113 31.9221 177.149 32.7374C177.184 33.5704 176.759 33.978 175.925 34.0666C175.624 34.1021 175.34 34.0844 175.038 34.0844C171.81 34.0844 168.6 34.0844 165.372 34.0844C165.053 34.1021 164.716 34.1375 164.255 34.1552ZM164.237 31.036C167.217 31.036 170.143 31.036 173.052 31.036C173.265 29.2105 171.473 27.261 169.505 27.066C166.631 26.8002 164.468 28.413 164.237 31.036Z" fill="#231F20"/>
<path d="M221.825 34.102C221.985 35.5552 222.606 36.5655 223.599 37.3098C225.248 38.5327 227.075 38.6745 228.973 38.0365C229.416 37.8947 229.842 37.6643 230.268 37.4693C231.243 37.0263 232.254 37.168 232.981 37.8415C233.566 38.3909 233.62 38.9935 232.981 39.5075C232.396 39.986 231.74 40.4291 231.048 40.7304C228.583 41.776 226.029 42.0064 223.457 41.1557C220.672 40.2519 218.899 38.32 218.065 35.5375C217.179 32.5778 217.586 29.7598 219.325 27.19C221.151 24.4961 224.663 23.1846 227.873 23.7694C231.811 24.4961 234.276 27.828 234.613 31.603C234.648 32.0461 234.666 32.4892 234.648 32.9322C234.613 33.6057 234.294 33.9602 233.62 34.0665C233.265 34.1197 232.91 34.1197 232.555 34.1197C229.363 34.1197 226.188 34.1197 222.996 34.1197C222.659 34.102 222.322 34.102 221.825 34.102ZM230.675 31.0536C230.746 28.6433 228.654 26.9419 225.887 27.0482C223.688 27.1368 221.683 29.1218 221.896 31.0536C224.805 31.0536 227.714 31.0536 230.675 31.0536Z" fill="#231F20"/>
<path d="M101.931 41.6344C96.9119 41.7939 92.9746 37.8062 92.9923 32.6311C93.01 27.9168 96.4331 23.5923 102.002 23.6278C107.323 23.6632 110.87 27.5446 110.87 32.6311C110.87 38.2847 106.613 41.8116 101.931 41.6344ZM106.986 32.6488C106.755 31.7981 106.649 30.912 106.294 30.1321C104.822 26.8002 100.353 26.2685 98.1712 29.1396C96.5927 31.1955 96.6636 34.5452 98.3308 36.5302C100.122 38.6569 103.368 38.7987 105.301 36.796C106.401 35.644 106.862 34.2439 106.986 32.6488Z" fill="#231F20"/>
<path d="M125.945 25.7899C126.956 25.2405 127.843 24.6733 128.819 24.2657C130.468 23.5568 132.206 23.5214 133.944 23.9999C136.037 24.5847 137.279 26.2153 137.509 28.661C137.545 29.0687 137.562 29.4763 137.562 29.9016C137.562 33.2867 137.58 36.6718 137.58 40.0569C137.58 41.0672 137.35 41.3507 136.356 41.333C135.771 41.333 135.186 41.2267 134.618 41.0849C133.962 40.9254 133.661 40.4469 133.643 39.7734C133.643 39.1531 133.643 38.5328 133.643 37.9125C133.643 35.5198 133.643 33.145 133.643 30.7523C133.643 30.3979 133.661 30.0434 133.607 29.689C133.448 28.2711 132.543 27.4027 131.124 27.2609C129.422 27.0837 127.932 27.5799 126.584 28.6433C126.123 28.9978 125.928 29.4231 125.945 30.008C125.963 33.269 125.963 36.5478 125.963 39.8088C125.963 40.0215 125.963 40.2165 125.963 40.4291C125.963 40.9254 125.679 41.1912 125.218 41.2798C124.385 41.4216 123.569 41.333 122.789 40.9785C122.381 40.8013 122.168 40.4468 122.115 40.0038C122.079 39.6493 122.079 39.2949 122.079 38.9404C122.079 35.2008 122.097 31.4613 122.044 27.7217C122.026 26.8533 121.849 25.9849 121.671 25.1164C121.494 24.2834 121.636 23.9113 122.487 23.8404C123.143 23.7695 123.853 23.8049 124.491 23.9822C125.342 24.2125 125.715 24.9569 125.945 25.7899Z" fill="#231F20"/>
<path d="M241.441 25.8431C241.672 25.6659 241.92 25.4709 242.168 25.2937C243.747 24.124 245.467 23.4505 247.454 23.8758C248.482 24.0885 248.766 24.7266 248.181 25.6127C247.791 26.1976 247.329 26.7824 246.78 27.1901C246.389 27.4736 245.804 27.5622 245.29 27.5977C244.013 27.704 242.878 28.1117 241.885 28.9269C241.423 29.2991 241.193 29.7599 241.193 30.3802C241.228 33.6767 241.246 36.9732 241.264 40.2697C241.264 41.1381 241.033 41.4748 240.146 41.5103C239.561 41.528 238.958 41.4571 238.391 41.3153C237.628 41.1204 237.38 40.6773 237.38 39.7734C237.38 35.9098 237.362 32.0639 237.38 28.2003C237.38 27.1014 237.291 26.0381 236.83 25.0101C236.511 24.3189 236.723 23.9999 237.486 23.805C239.1 23.415 240.554 24.1417 241.211 25.6836C241.264 25.719 241.317 25.7368 241.441 25.8431Z" fill="#231F20"/>
<path d="M118.035 33.3044C118.035 35.5375 118.035 37.7706 118.035 40.0037C118.035 41.0317 117.769 41.333 116.741 41.3507C116.528 41.3507 116.333 41.3507 116.12 41.3152C114.329 41.0848 114.098 40.5177 114.116 39.1353C114.133 35.2185 114.116 31.3017 114.133 27.4027C114.133 26.6229 114.062 25.8962 113.779 25.1518C113.459 24.3543 113.672 23.9467 114.524 23.8758C115.215 23.8049 115.942 23.8581 116.616 24.0176C117.273 24.1771 117.734 24.6733 117.858 25.3822C117.947 25.843 118.018 26.3038 118.018 26.7824C118.035 28.9623 118.018 31.1422 118.018 33.3222C118.018 33.3044 118.035 33.3044 118.035 33.3044Z" fill="#231F20"/>
<path d="M118.39 18.9843C118.372 20.3844 117.29 21.4478 115.889 21.4123C114.541 21.3769 113.389 20.2072 113.442 18.8957C113.477 17.5487 114.648 16.4322 115.996 16.4676C117.379 16.4853 118.408 17.5664 118.39 18.9843Z" fill="#231F20"/>
</g>
<defs>
<clipPath id="clip0">
<rect width="248" height="59" fill="white" transform="translate(0.5 0.587769)"/>
</clipPath>
</defs>
</svg>
