<svg width="263" height="53" viewBox="0 0 263 53" fill="none" xmlns="http://www.w3.org/2000/svg">
<g clip-path="url(#clip0)">
<path d="M0.5 0.635101C5.35768 0.635101 10.0804 0.635101 15.2979 0.635101C14.3534 0.994031 13.7687 1.1735 13.2289 1.39783C10.6651 2.29515 9.49571 3.82061 9.45073 6.55745C9.40575 9.69809 9.45073 12.7939 9.45073 15.9345C9.45073 16.6075 9.45073 17.2805 9.40575 17.9535C9.13588 20.1519 8.68609 20.7352 5.89742 22.3504C6.12232 22.5298 6.30223 22.7542 6.52712 22.8439C8.73107 23.6964 9.45073 25.491 9.45073 27.6446C9.49571 30.8301 9.45073 34.0156 9.49571 37.246C9.49571 38.1433 9.67562 38.9958 9.85554 39.8482C10.3053 41.7326 11.6097 42.8094 13.4088 43.1683C15.208 43.5721 17.0521 43.6618 18.9412 43.7067C16.0176 42.5851 15.2979 40.3417 15.2979 37.6049C15.2979 34.6886 15.3429 31.8172 15.2979 28.9008C15.253 24.9078 14.3984 23.7861 10.3953 22.485C10.98 22.1709 11.3848 21.9466 11.8346 21.7671C14.1735 20.9595 15.2979 19.3443 15.253 16.8767C15.253 13.9604 15.253 11.0889 15.2979 8.17263C15.2979 7.8137 15.2979 7.40991 15.2979 7.05098C15.3429 2.65408 17.277 0.545368 21.6849 0.545368C31.4902 0.500502 41.2955 0.500502 51.0559 0.545368C51.5057 0.545368 51.9105 0.635101 52.3153 0.724834C52.7651 2.78868 52.7201 50.661 52.2703 52.5454C35.0885 52.5454 17.8167 52.5454 0.5 52.5454C0.5 35.1373 0.5 17.9535 0.5 0.635101Z" fill="#A1162C"/>
<path d="M99.8577 35.3159C99.5878 36.7067 99.4979 38.0976 99.0481 39.3987C97.8786 42.6739 94.7751 44.5135 91.0419 44.1545C87.3087 43.7956 85.2846 41.4626 84.43 38.1425C83.7554 35.3607 84.0252 32.579 85.4196 29.9768C88.1183 24.9966 95.7646 25.6248 98.1035 29.3935C99.228 31.2331 99.8127 33.1174 99.8577 35.3159ZM88.2082 35.3607C88.5681 36.7067 88.793 38.0079 89.2877 39.2641C89.7375 40.4306 90.6821 41.2382 92.0764 41.0588C93.3808 40.9242 94.2803 40.2063 94.7301 38.95C95.5397 36.4824 95.6297 34.0596 94.7301 31.592C94.2354 30.246 93.2458 29.573 91.8515 29.4833C90.5471 29.4384 89.6925 30.246 89.2877 31.2779C88.8379 32.579 88.5681 33.9699 88.2082 35.3607Z" fill="#66839D"/>
<path d="M73.9949 33.3421C76.6936 33.4318 77.0534 33.2075 77.7281 31.2334C78.043 30.336 78.3128 29.3939 78.6277 28.4965C79.0325 27.33 79.7522 26.6121 81.1015 26.7019C81.7762 26.7467 82.4509 26.7019 83.1255 26.7019C82.181 30.7847 81.1915 33.1178 79.6622 34.7329C81.3714 35.5854 81.9561 37.2006 82.5408 38.8158C83.0806 40.3412 83.5753 41.9115 84.1151 43.5267C83.9801 43.5716 83.8452 43.7511 83.6653 43.7511C79.7971 43.9754 79.6622 43.8408 78.6277 40.072C78.5377 39.7131 78.4028 39.3542 78.3128 38.9952C77.5032 36.4827 77.2334 36.3033 74.1298 36.7519C74.1298 38.9504 74.1298 41.2385 74.1298 43.6165C72.6905 43.6165 71.5661 43.6165 70.3966 43.6165C69.9468 41.9115 69.9019 29.2593 70.3067 26.8365C71.4311 26.8365 72.6006 26.8365 74.0399 26.8365C73.9949 29.0349 73.9949 31.1436 73.9949 33.3421Z" fill="#66839D"/>
<path d="M140.428 37.5145C141.643 37.694 142.767 37.8734 144.071 38.0978C143.442 41.059 142.002 43.2125 139.079 43.9304C136.02 44.6931 133.322 43.9304 131.208 41.4628C128.464 38.1875 128.644 31.7716 131.612 28.6759C133.726 26.4325 136.335 25.9839 139.214 26.6569C142.137 27.3747 143.442 29.4386 144.071 32.1306C142.452 33.0279 142.452 33.0279 140.428 32.8484C140.158 32.1754 139.933 31.5024 139.529 30.8743C138.314 28.9002 135.616 28.9002 134.626 30.964C133.277 33.7906 133.322 36.7069 134.626 39.5784C135.076 40.6103 136.065 41.059 137.19 41.059C138.314 41.059 139.214 40.5654 139.709 39.4886C139.978 38.9054 140.158 38.2772 140.428 37.5145Z" fill="#66839D"/>
<path d="M105.525 37.4249C105.525 38.7709 105.525 39.7131 105.525 40.7001C105.525 41.6423 105.525 42.5845 105.525 43.6613C104.086 43.6613 102.961 43.6613 101.477 43.6613C101.477 38.053 101.477 32.5345 101.477 26.7467C104.76 26.7467 107.819 26.5224 110.832 26.9262C113.351 27.2402 114.88 29.2144 114.925 31.7269C114.97 34.4188 113.576 36.4378 111.102 37.0211C110.113 37.2903 109.033 37.3351 107.999 37.4249C107.279 37.4697 106.559 37.4249 105.525 37.4249ZM105.615 34.2394C107.054 34.374 108.359 34.5983 109.618 33.9253C110.383 33.5215 110.877 32.8934 110.832 31.9512C110.832 31.1436 110.517 30.3809 109.753 30.1565C108.448 29.7528 107.099 29.1246 105.57 29.9771C105.615 31.3231 105.615 32.7139 105.615 34.2394Z" fill="#66839D"/>
<path d="M116.815 43.8406C116.815 42.8535 116.815 41.9562 116.815 40.9243C118.389 41.1486 119.828 41.014 120.773 39.2642C118.884 35.316 116.949 31.278 114.925 27.1055C116.32 26.4325 117.669 26.926 119.108 26.7017C120.323 29.259 121.537 31.7715 122.932 34.7776C124.146 31.8613 125.181 29.3936 126.26 26.8811C127.384 26.8811 128.419 26.8811 129.633 26.8811C129.319 28.4066 128.689 29.618 128.149 30.8742C126.755 34.1495 125.405 37.4247 123.876 40.6551C122.392 43.8406 120.593 44.6482 116.815 43.8406Z" fill="#66839D"/>
<path d="M209.201 30.0668C212.034 30.0668 214.553 30.0668 217.207 30.0668C217.207 34.5983 217.207 39.0401 217.207 43.6164C216.847 43.6613 216.397 43.8408 216.217 43.7062C215.902 43.4819 215.632 43.0332 215.632 42.6743C215.587 39.9374 215.587 37.2006 215.587 34.4189C215.587 33.6113 215.587 32.8037 215.587 31.8615C214.013 31.8615 212.664 31.8615 211.135 31.8615C210.955 33.6561 210.82 35.4059 210.595 37.1557C210.415 38.6363 210.19 40.072 209.74 41.5077C209.111 43.5267 208.211 44.0202 206.052 43.8856C205.467 43.8408 204.883 43.7959 204.073 43.751C203.848 43.0332 203.578 42.2705 203.308 41.5077C202.724 39.9374 202.634 39.8925 200.879 39.8477C200.79 39.8477 200.745 39.8477 200.655 39.8477C198.001 39.8028 198.001 39.8028 197.056 42.3602C196.741 43.2127 196.562 44.1548 194.987 43.6613C196.427 39.1747 197.866 34.6881 199.305 30.2014C200.025 30.1566 200.565 30.1117 201.329 30.022C203.128 34.2843 204.163 38.7709 205.692 42.9883C209.29 41.8218 208.751 38.6363 209.111 35.9443C209.38 34.0151 209.201 32.1307 209.201 30.0668ZM202.094 38.2774C201.509 36.3032 201.239 34.5086 200.16 32.4896C199.485 34.6432 198.9 36.3481 198.316 38.2774C199.62 38.2774 200.7 38.2774 202.094 38.2774Z" fill="#66839D"/>
<path d="M232.274 39.6684C232.544 39.2646 232.859 38.8159 233.129 38.4121C234.928 35.765 236.727 33.1179 238.481 30.4708C238.931 29.7978 239.426 29.8875 240.191 30.2913C240.191 31.3233 240.191 32.4 240.191 33.5217C240.191 36.4829 240.191 39.4889 240.191 42.4501C240.191 43.4371 239.921 44.0653 238.526 43.5269C238.526 40.5208 238.526 37.4251 238.526 33.8358C237.897 34.4639 237.582 34.6882 237.402 34.9574C235.513 37.6943 233.624 40.476 231.69 43.2128C231.42 43.6166 231.42 43.6166 230.026 43.482C230.026 39.0851 230.026 34.6434 230.026 30.2016C231.555 29.9324 231.645 29.9324 231.69 31.0092C231.735 32.9384 231.69 34.8677 231.69 36.7969C231.69 37.6045 231.69 38.4121 231.69 39.2197C231.915 39.4441 232.095 39.5338 232.274 39.6684Z" fill="#66839D"/>
<path d="M170.834 37.021C170.474 38.367 170.249 39.7129 169.709 41.0141C168.9 43.1228 167.19 44.065 164.987 44.1098C162.648 44.1547 160.893 43.033 159.949 41.0141C158.69 38.3221 158.69 35.5404 159.949 32.8035C160.893 30.65 162.603 29.7526 164.987 29.7975C167.37 29.8424 169.035 30.9192 169.889 33.0279C170.339 34.2393 170.474 35.6301 170.834 37.021ZM160.849 37.1556C161.163 38.2772 161.343 39.6232 161.928 40.7897C163.052 42.9882 165.976 43.1228 167.505 41.1935C169.08 39.1745 169.125 35.0468 167.595 32.983C165.886 30.65 162.873 30.8743 161.703 33.5214C161.253 34.5533 161.163 35.7647 160.849 37.1556Z" fill="#66839D"/>
<path d="M148.12 30.022C148.794 30.022 149.154 30.022 149.784 30.022C149.829 31.8615 149.919 33.701 149.964 35.5854C150.548 35.6751 150.998 35.72 151.403 35.7649C153.427 35.8097 153.877 35.4508 154.417 33.5664C154.642 32.714 154.821 31.8166 155.226 31.0539C155.811 29.8425 156.396 29.7528 158.015 30.4707C157.79 30.7847 157.7 31.1437 157.43 31.2783C156.666 31.7718 156.396 32.4448 156.171 33.2972C155.901 34.3292 155.451 35.3611 155.046 36.4379C155.496 37.2903 156.171 38.3223 156.621 39.4439C157.07 40.6104 157.025 41.9116 158.24 42.7191C158.42 42.8537 158.51 43.5267 158.33 43.7062C158.06 43.9754 157.565 44.1997 157.205 44.11C156.261 43.9305 155.676 43.2127 155.406 42.3154C155.181 41.5975 155.046 40.8796 154.866 40.1618C154.282 37.8736 153.652 37.4249 151.223 37.5147C150.863 37.5147 150.503 37.6044 149.964 37.6941C149.964 39.6682 149.964 41.5526 149.964 43.5716C149.424 43.6613 148.974 43.8857 148.794 43.7511C148.479 43.5267 148.21 43.0781 148.21 42.7191C148.12 38.5466 148.12 34.374 148.12 30.022Z" fill="#66839D"/>
<path d="M172.003 30.0668C172.678 30.0668 173.083 30.0668 173.712 30.0668C173.712 31.8614 173.712 33.6112 173.712 35.4507C176.006 35.9443 178.03 35.6302 180.324 35.7199C180.324 33.8356 180.324 32.0858 180.324 30.2014C180.999 30.1116 181.494 30.0668 182.078 29.9771C182.078 34.5534 182.078 38.9952 182.078 43.5715C181.629 43.6164 181.179 43.6613 180.459 43.7061C180.459 41.5526 180.459 39.5784 180.459 37.4249C178.39 36.8416 176.456 37.0659 174.567 37.2005C173.847 37.2454 173.757 37.9632 173.757 38.5914C173.757 39.9374 173.757 41.2834 173.757 42.5845C173.757 43.5715 173.263 43.9305 172.048 43.4818C171.868 41.3731 172.003 39.1746 172.003 36.9762C172.003 34.8226 172.003 32.5793 172.003 30.0668Z" fill="#66839D"/>
<path d="M252.11 43.6163C251.075 43.9752 250.536 43.706 250.536 42.6741C250.536 41.6422 250.536 40.6103 250.536 39.5784C250.536 38.8605 250.491 38.1426 250.446 37.2902C248.377 37.2902 246.488 37.2902 244.284 37.2902C244.194 39.4438 244.149 41.5076 244.059 43.5715C242.979 43.9752 242.395 43.8406 242.395 42.7639C242.395 38.6362 242.395 34.4636 242.395 30.2013C242.979 30.1564 243.474 30.1116 244.149 30.0667C244.149 31.9511 244.149 33.7009 244.149 35.5404C246.353 35.8993 248.287 35.8096 250.491 35.6301C250.491 33.7906 250.491 32.0408 250.491 30.3359C250.895 30.2013 251.075 30.0667 251.3 30.0218C251.525 29.977 251.75 30.0667 251.975 30.0667C252.425 31.5473 252.56 40.6103 252.11 43.6163Z" fill="#66839D"/>
<path d="M194.582 34.1497C193.773 34.5086 193.188 34.4637 192.738 33.7459C192.603 33.5664 192.558 33.3421 192.423 33.1626C191.614 31.9961 190.624 31.0988 189.095 31.368C187.656 31.5923 186.576 32.4896 186.171 33.8356C185.542 36.0789 185.452 38.3671 186.441 40.5656C187.026 41.8218 188.016 42.4499 189.455 42.4948C190.849 42.5397 191.749 41.9564 192.333 40.7899C192.423 40.6104 192.558 40.3861 192.648 40.2066C192.918 39.6234 193.323 39.1298 194.043 39.4888C194.717 39.8926 194.402 40.5207 194.178 41.0591C192.828 44.3343 188.6 45.2317 185.991 42.8089C183.428 40.431 182.753 34.7778 185.407 31.5474C186.981 29.6182 189.23 29.5733 191.344 30.1117C193.323 30.5604 194.268 32.1307 194.582 34.1497Z" fill="#66839D"/>
<path d="M222.739 43.482C222.739 39.6683 222.739 35.8547 222.739 31.7719C221.66 31.727 220.805 31.727 219.95 31.6373C219.006 31.5475 218.916 30.9643 219.276 30.1118C222.199 30.1118 225.168 30.1118 228.316 30.1118C228.361 30.5156 228.361 30.9643 228.406 31.5475C227.102 31.6373 225.932 31.727 224.538 31.8167C224.538 32.8487 224.538 33.7011 224.538 34.5984C224.538 37.2904 224.583 39.9375 224.538 42.6295C224.493 43.7063 224.403 43.7063 222.739 43.482Z" fill="#66839D"/>
<path d="M262.5 30.0668C262.5 30.6052 262.5 31.009 262.5 31.5922C260.476 31.5922 258.587 31.5922 256.518 31.5922C256.428 32.355 256.293 32.9382 256.293 33.4766C256.293 36.1237 256.293 38.8157 256.293 41.4628C256.293 42.0012 256.338 42.5396 256.203 42.9883C256.113 43.2575 255.708 43.6613 255.528 43.6164C255.168 43.5715 254.809 43.2575 254.584 42.9434C254.449 42.7639 254.494 42.3601 254.494 42.0909C254.494 38.367 254.494 34.688 254.494 30.9641C254.494 30.6949 254.584 30.3808 254.674 29.9771C257.282 30.0668 259.846 30.0668 262.5 30.0668Z" fill="#66839D"/>
</g>
<defs>
<clipPath id="clip0">
<rect width="262" height="52" fill="white" transform="translate(0.5 0.5)"/>
</clipPath>
</defs>
</svg>
