<svg width="268" height="58" viewBox="0 0 268 58" fill="none" xmlns="http://www.w3.org/2000/svg">
<g clip-path="url(#clip0)">
<path d="M0.0781815 26.1359C3.1958 26.1247 6.30229 26.1135 9.41992 26.1135C10.9008 26.1135 12.3817 26.1135 13.8403 26.1135C13.8848 26.147 13.8959 26.1582 13.9071 26.1694C13.9182 26.1805 13.9405 26.1917 13.9405 26.214C13.9516 26.3368 13.9739 26.4708 13.9739 26.5936C13.9739 32.3436 13.9739 38.1048 13.9739 43.8437C13.5174 44.0111 11.58 44.0223 11.0233 43.8437C11.0233 43.2854 11.0233 42.6937 11.0233 42.1131C11.0233 38.3281 11.0233 34.532 11.0233 30.747C11.0233 30.2446 11.0789 29.7422 11.0789 29.2509C11.0901 28.4917 10.9565 28.3465 10.2216 28.3465C8.2174 28.3354 6.21322 28.3354 4.20903 28.3465C3.36282 28.3465 3.28488 28.4359 3.28488 29.2732C3.28488 33.9737 3.28488 38.6742 3.28488 43.3747C3.28488 43.5534 3.27375 43.732 3.26261 43.9888C2.17144 43.9888 1.12481 43.9888 0.0670471 43.9888C0.0670471 43.5757 0.0670471 43.1738 0.0670471 42.7607C0.401078 42.6155 0.267466 42.3141 0.267466 42.0796C0.2786 37.3679 0.2786 32.6563 0.2786 27.9558C0.2786 27.8106 0.300869 27.6543 0.267466 27.5092C0.245197 27.4198 0.144988 27.3417 0.0781815 27.2635C0.0781815 27.1184 0.0781815 26.9621 0.0781815 26.8169C0.111585 26.8058 0.144988 26.7946 0.167256 26.7834C0.133853 26.7611 0.10045 26.7276 0.0781815 26.7053C0.0781815 26.5043 0.0781815 26.3145 0.0781815 26.1359Z" fill="#2F56A4"/>
<path d="M120.374 22.0158C120.452 21.6139 120.474 21.3012 120.563 21.011C120.83 20.0619 121.12 19.1352 121.387 18.1862C121.643 17.293 121.899 16.4109 122.133 15.5066C122.233 15.1046 122.512 14.926 122.857 14.8143C124.783 14.1556 126.698 13.4857 128.636 12.8381C130.495 12.224 132.377 11.6435 134.236 11.0294C134.96 10.7949 135.65 10.4823 136.363 10.2367C137.165 9.95753 137.977 9.7119 138.79 9.44394C140.405 8.90801 142.019 8.36092 143.634 7.825C144.703 7.46772 145.783 7.13276 146.851 6.76432C147.642 6.49636 148.41 6.1949 149.201 5.92694C150.092 5.62548 150.993 5.34635 151.884 5.05606C153.031 4.68761 154.167 4.308 155.314 3.92839C156.282 3.6046 157.251 3.30314 158.208 2.96819C158.877 2.74489 159.522 2.46576 160.19 2.24246C161.025 1.95217 161.872 1.68421 162.718 1.40508C163.186 1.24877 163.664 1.10362 164.232 0.913818C164.199 1.19295 164.188 1.38275 164.143 1.56139C163.709 3.20266 163.275 4.85509 162.818 6.49636C162.618 7.23325 162.373 7.94782 162.161 8.67355C161.972 9.33228 161.783 9.99102 161.604 10.6498C161.226 12.0677 160.87 13.4857 160.491 14.8925C159.934 16.9692 159.366 19.0459 158.787 21.1114C158.298 22.842 157.774 24.5503 157.295 26.2809C156.917 27.643 156.583 29.0051 156.215 30.3673C155.803 31.8857 155.369 33.4042 154.957 34.9226C154.723 35.76 154.523 36.6086 154.289 37.4459C154 38.4955 153.677 39.545 153.387 40.5945C153.098 41.6105 152.831 42.6265 152.552 43.6537C152.252 44.7479 151.951 45.8309 151.65 46.9251C151.494 47.4945 151.361 48.0751 151.205 48.6445C151.082 49.1246 150.971 49.627 150.793 50.0848C150.726 50.2523 150.504 50.4309 150.325 50.4868C149.334 50.777 148.321 51.0227 147.319 51.2906C146.25 51.5809 145.181 51.8712 144.112 52.1615C142.743 52.5411 141.362 52.9319 139.993 53.3115C139.035 53.5795 138.066 53.8363 137.098 54.0931C136.463 54.2605 135.828 54.4392 135.127 54.629C135.149 54.4392 135.149 54.3164 135.183 54.1936C135.461 53.1775 135.75 52.1615 136.029 51.1455C136.318 50.0848 136.574 49.0241 136.864 47.9746C137.131 46.9921 137.398 46.0096 137.677 45.027C138.055 43.6426 138.445 42.2469 138.835 40.8625C139.124 39.8241 139.436 38.7969 139.725 37.7697C140.004 36.7537 140.26 35.7265 140.538 34.6993C140.928 33.2479 141.34 31.8076 141.741 30.3673C142.13 28.9717 142.52 27.5872 142.899 26.1915C143.411 24.3493 143.912 22.5071 144.413 20.676C144.658 19.7828 144.881 18.8784 145.126 17.9852C145.504 16.6231 145.894 15.2721 146.261 13.9211C146.306 13.7648 146.306 13.5415 146.217 13.4187C146.161 13.3405 145.905 13.3517 145.76 13.4075C145.181 13.6085 144.625 13.843 144.046 14.0439C143.3 14.3119 142.542 14.5575 141.785 14.8143C140.961 15.0823 140.126 15.3391 139.302 15.6182C138.412 15.9085 137.51 16.21 136.619 16.5114C135.773 16.7906 134.938 17.0808 134.091 17.36C132.544 17.8847 131.007 18.3983 129.46 18.9231C128.324 19.3139 127.188 19.7158 126.052 20.0954C125.34 20.341 124.605 20.5644 123.892 20.81C122.946 21.1338 122.011 21.4687 121.064 21.7925C120.875 21.8707 120.686 21.9265 120.374 22.0158Z" fill="#2F56A4"/>
<path d="M124.315 57.4761C124.505 56.7392 124.694 56.0135 124.883 55.2766C125.061 54.629 125.24 53.9926 125.418 53.345C125.707 52.3513 126.008 51.3576 126.297 50.3639C126.442 49.8839 126.553 49.3926 126.676 48.9125C127.177 46.9921 127.689 45.0717 128.201 43.1625C128.624 41.5659 129.059 39.9804 129.504 38.395C129.994 36.6644 130.506 34.945 130.985 33.2144C131.386 31.7629 131.742 30.3115 132.132 28.86C132.521 27.4086 132.933 25.9683 133.334 24.5168C133.735 23.0877 134.147 21.6697 134.526 20.2294C134.592 19.9615 134.737 19.8051 134.982 19.7158C135.505 19.526 136.029 19.3362 136.552 19.1576C138 18.6551 139.458 18.1527 140.906 17.6614C141.373 17.5051 141.852 17.3712 142.387 17.2148C142.364 17.3823 142.364 17.494 142.342 17.5833C141.919 19.1017 141.507 20.609 141.084 22.1275C140.694 23.5231 140.293 24.9076 139.915 26.3032C139.536 27.6765 139.191 29.061 138.824 30.4455C138.467 31.7853 138.111 33.1362 137.732 34.476C137.298 36.028 136.842 37.5688 136.407 39.1207C135.895 40.9406 135.383 42.7605 134.893 44.5804C134.503 46.0096 134.158 47.4499 133.769 48.879C133.535 49.7387 133.256 50.5872 133 51.4358C132.833 51.9829 132.688 52.5411 132.533 53.0994C132.366 53.7135 132.21 54.3164 132.054 54.9305C131.942 55.3659 131.72 55.5892 131.241 55.7009C130.272 55.9242 129.326 56.2703 128.368 56.5382C127.355 56.8174 126.331 57.0742 125.306 57.3421C125.006 57.4203 124.705 57.4984 124.416 57.5766C124.393 57.5431 124.349 57.5096 124.315 57.4761Z" fill="#2F56A4"/>
<path d="M98.8957 30.1217C98.4169 30.2445 98.2944 30.4789 98.1942 30.7134C97.6041 32.0309 96.9917 33.3372 96.2457 34.5765C95.0543 36.5639 93.9186 38.5848 92.7495 40.5833C92.1483 41.6105 91.5359 42.6265 90.9124 43.6314C90.8233 43.7654 90.634 43.9329 90.5004 43.9329C89.4649 43.9552 88.4294 43.944 87.3828 43.944C87.3494 43.8212 87.3048 43.743 87.3048 43.6537C87.3048 38.0935 87.316 32.5445 87.3271 26.9843C87.3271 26.0911 87.316 26.0911 88.2178 26.0911C88.6855 26.0911 89.142 26.1022 89.6096 26.0911C89.9103 26.0911 90.0327 26.2027 90.0327 26.5265C90.0105 29.7197 90.0216 32.9129 89.9882 36.1173C89.9771 37.178 89.8657 38.2275 89.8323 39.2882C89.8212 39.6343 89.6987 40.0251 90.055 40.4047C90.1886 40.226 90.3334 40.0921 90.4113 39.9246C91.1128 38.5736 91.7697 37.2003 92.4934 35.8717C93.117 34.7217 93.8184 33.594 94.4865 32.4663C95.2325 31.1823 95.9785 29.8984 96.7356 28.6255C97.1699 27.8886 97.6264 27.1741 98.0495 26.4372C98.172 26.2139 98.339 26.1022 98.5839 26.1134C99.4524 26.1134 100.332 26.1134 101.2 26.1246C101.267 26.1246 101.334 26.1692 101.434 26.2027C101.434 32.0979 101.434 37.9819 101.434 43.9217C100.544 44.0333 99.664 43.9552 98.6953 43.9663C98.7509 39.3328 98.5171 34.7663 98.8957 30.1217Z" fill="#2F56A4"/>
<path d="M48.9135 35.1572C48.9135 32.779 48.9135 30.4009 48.9135 28.0227C48.9135 27.5761 48.869 27.1295 48.8801 26.6829C48.8801 26.2251 48.9358 26.1693 49.3812 26.1358C50.5614 26.0353 51.7417 25.8679 52.933 25.8567C54.0242 25.8455 55.1154 25.9907 56.1954 26.0912C57.4981 26.2251 58.6004 26.8057 59.5246 27.7213C60.0702 28.2572 60.3931 28.9159 60.4153 29.6975C60.4265 30.0324 60.4265 30.3674 60.4265 30.7023C60.4153 31.5062 60.0702 32.1761 59.5246 32.7344C59.0458 33.2256 58.5782 33.7281 57.8878 33.9514C57.7876 33.9849 57.6429 34.13 57.6429 34.2082C57.654 34.331 57.7542 34.4873 57.8656 34.5431C58.2998 34.7887 58.7786 34.9562 59.2017 35.2242C60.4042 35.9499 61.0055 37.0441 61.0834 38.4397C61.1391 39.4446 61.0055 40.3936 60.4933 41.2868C59.9477 42.2359 59.1126 42.8164 58.1662 43.2742C57.0305 43.8325 55.7946 43.9218 54.5587 44.0669C52.7772 44.2679 51.0068 44.0446 49.2253 43.9664C48.9581 43.9553 48.8913 43.8213 48.8913 43.5645C48.9024 40.7621 48.8913 37.9596 48.8913 35.146C48.8913 35.1572 48.9024 35.1572 48.9135 35.1572ZM53.4786 35.5815C53.1223 35.5815 52.7772 35.5703 52.4209 35.5815C51.9087 35.5926 51.7973 35.6931 51.7973 36.2179C51.7862 37.9261 51.7862 39.6344 51.7973 41.3315C51.7973 41.8339 51.9309 41.9232 52.432 41.9791C53.345 42.0795 54.2358 42.0349 55.1376 41.8674C56.5406 41.5994 57.487 40.8402 57.8656 39.4334C58.1885 38.2053 57.6095 36.7985 56.4849 36.1955C55.5496 35.7154 54.5364 35.5256 53.4786 35.5815ZM51.7639 30.6018C51.7751 30.6018 51.7862 30.6018 51.7862 30.6018C51.7862 31.3611 51.7639 32.1203 51.7973 32.8795C51.8085 33.315 51.9532 33.4489 52.3763 33.4713C53.4675 33.5159 54.5698 33.5048 55.6164 33.1363C56.3513 32.8795 56.9191 32.4218 57.2198 31.696C57.6206 30.747 57.5649 29.0946 56.1397 28.447C55.7723 28.2795 55.3715 28.1902 54.9818 28.0785C54.091 27.8217 53.178 27.8999 52.2761 28.0227C51.9309 28.0674 51.7528 28.3018 51.7528 28.6368C51.7528 29.2955 51.7639 29.9431 51.7639 30.6018Z" fill="#2F56A4"/>
<path d="M220.238 43.9216C219.214 43.9216 218.267 43.9216 217.276 43.9216C217.265 43.7095 217.243 43.5309 217.243 43.3522C217.243 37.792 217.243 32.243 217.243 26.6828C217.243 26.1245 217.243 26.1133 217.8 26.1133C218.59 26.1022 219.392 26.1133 220.182 26.1133C220.227 26.2362 220.26 26.3031 220.26 26.3701C220.249 28.4357 220.238 30.49 220.238 32.5556C220.238 33.2255 220.372 33.3706 221.062 33.3706C223.144 33.3706 225.215 33.3706 227.297 33.3706C227.375 33.3706 227.442 33.3706 227.52 33.3706C228.166 33.326 228.277 33.2032 228.277 32.5444C228.277 30.5794 228.277 28.6032 228.277 26.6381C228.277 26.5041 228.277 26.3813 228.277 26.1915C229.268 26.0352 230.237 26.1357 231.239 26.1245C231.239 32.0755 231.239 37.9707 231.239 43.9216C230.259 44.0221 229.301 43.9663 228.277 43.944C228.277 43.6983 228.277 43.4974 228.277 43.3076C228.277 41.1527 228.277 38.9978 228.277 36.843C228.277 36.6978 228.277 36.5415 228.277 36.3964C228.266 36.0726 228.099 35.9274 227.787 35.9163C227.698 35.9163 227.598 35.9163 227.509 35.9163C225.36 35.9163 223.211 35.9163 221.051 35.9163C220.917 35.9163 220.795 35.9163 220.661 35.9274C220.427 35.9498 220.294 36.0838 220.26 36.3182C220.238 36.4857 220.249 36.6532 220.249 36.8206C220.249 38.9978 220.249 41.1639 220.249 43.3411C220.238 43.5197 220.238 43.6983 220.238 43.9216Z" fill="#2F56A4"/>
<path d="M267.047 26.1469C267.025 26.5154 266.98 26.8057 266.98 27.096C266.98 32.4775 266.98 37.8703 266.98 43.2518C266.98 43.4528 266.98 43.6538 266.98 43.9329C265.978 43.9776 265.021 43.9441 264.007 43.9552C263.996 43.6873 263.963 43.4751 263.963 43.263C263.963 38.6183 263.963 33.9737 263.963 29.329C263.963 28.3911 263.896 28.3241 262.95 28.313C261.803 28.313 260.645 28.313 259.498 28.3241C258.73 28.3353 258.618 28.4581 258.618 29.2508C258.618 31.2159 258.652 33.1921 258.607 35.1572C258.585 36.2513 258.507 37.3455 258.329 38.4285C258.128 39.6567 257.817 40.8625 257.104 41.912C256.391 42.9504 255.423 43.6203 254.22 43.9329C253.83 44.0334 253.418 44.1004 253.018 44.1674C252.75 44.212 252.583 44.1004 252.539 43.8324C252.45 43.2965 252.372 42.7717 252.283 42.2358C252.238 41.9679 252.35 41.8227 252.606 41.7446C254.198 41.2756 254.933 40.0698 255.278 38.5625C255.645 37.0106 255.645 35.4363 255.645 33.8508C255.645 31.4727 255.645 29.0945 255.645 26.7164C255.645 26.0911 255.645 26.0911 256.247 26.08C259.654 26.08 263.072 26.08 266.479 26.08C266.68 26.1023 266.858 26.1358 267.047 26.1469Z" fill="#2F56A4"/>
<path d="M213.78 43.9663C213.257 43.9663 212.878 43.9663 212.489 43.9663C211.987 43.9663 211.486 43.944 210.985 43.9663C210.662 43.9775 210.507 43.8435 210.418 43.5644C210.284 43.1178 210.139 42.6824 209.994 42.2358C209.705 41.2979 209.427 40.36 209.137 39.4222C208.959 38.8527 208.825 38.7969 208.213 38.7969C206.676 38.8081 205.14 38.8081 203.592 38.7969C202.835 38.7969 202.802 38.8304 202.601 39.545C202.245 40.7955 201.866 42.0348 201.499 43.2741C201.454 43.4304 201.399 43.5979 201.31 43.743C201.265 43.8324 201.154 43.9329 201.065 43.9329C200.129 43.944 199.194 43.944 198.159 43.944C198.314 43.4974 198.437 43.1625 198.548 42.8163C198.893 41.7557 199.227 40.695 199.573 39.6455C199.996 38.3392 200.43 37.044 200.842 35.7377C201.477 33.728 202.089 31.7071 202.735 29.6974C203.08 28.6255 203.47 27.5649 203.815 26.4818C203.904 26.2027 204.038 26.0911 204.327 26.0911C205.407 26.1022 206.476 26.1022 207.556 26.0911C207.89 26.0911 208.079 26.225 208.168 26.5265C208.525 27.6988 208.881 28.8712 209.248 30.0323C209.493 30.8251 209.761 31.6178 210.017 32.4105C210.418 33.6387 210.818 34.878 211.219 36.1061C211.631 37.3566 212.065 38.5959 212.477 39.8464C212.767 40.7396 213.034 41.6552 213.312 42.5484C213.446 42.995 213.591 43.4081 213.78 43.9663ZM205.964 28.4134C205.44 28.7484 205.429 29.1726 205.329 29.5634C205.162 30.2445 205.051 30.9479 204.861 31.6178C204.438 33.0581 203.982 34.4872 203.537 35.9163C203.381 36.4076 203.514 36.5974 204.049 36.5862C204.383 36.5862 204.717 36.5416 205.051 36.5416C205.908 36.5416 206.754 36.5751 207.601 36.5862C208.324 36.5862 208.424 36.4634 208.213 35.76C207.979 35.0008 207.69 34.2527 207.445 33.5047C207.322 33.1586 207.222 32.8013 207.122 32.444C206.81 31.3386 206.521 30.2333 206.209 29.128C206.153 28.9047 206.064 28.6925 205.964 28.4134Z" fill="#2F56A4"/>
<path d="M250.178 43.9664C249.722 43.9664 249.366 43.9664 248.998 43.9664C248.464 43.9664 247.918 43.9552 247.384 43.9664C247.128 43.9664 246.983 43.8994 246.905 43.6203C246.638 42.7159 246.337 41.8227 246.048 40.9184C245.881 40.3936 245.725 39.8577 245.558 39.3329C245.424 38.9198 245.201 38.7858 244.767 38.7858C243.153 38.797 241.538 38.8082 239.935 38.797C239.367 38.797 239.2 38.931 239.044 39.4892C238.732 40.5611 238.409 41.6106 238.098 42.6824C238.008 42.9616 237.953 43.263 237.875 43.5421C237.808 43.7654 237.708 43.9664 237.43 43.9552C236.561 43.9441 235.693 43.9441 234.813 43.9329C234.768 43.9329 234.724 43.8883 234.657 43.8436C235.18 42.2358 235.693 40.6392 236.205 39.0426C236.906 36.8431 237.608 34.6324 238.32 32.4329C238.955 30.4567 239.59 28.4805 240.202 26.5042C240.302 26.1916 240.458 26.1023 240.759 26.1023C241.816 26.1135 242.874 26.1023 243.932 26.1023C244.422 26.1023 244.489 26.1916 244.633 26.6494C245.134 28.2348 245.658 29.8203 246.159 31.4169C246.437 32.2989 246.704 33.1921 246.983 34.0742C247.25 34.9004 247.528 35.7266 247.796 36.5528C247.929 36.9547 248.052 37.3679 248.185 37.7698C248.809 39.6902 249.443 41.5994 250.078 43.5198C250.1 43.6203 250.112 43.7319 250.178 43.9664ZM242.306 28.38C241.906 28.8489 241.85 29.3067 241.761 29.7309C241.36 31.5955 240.803 33.4266 240.135 35.213C240.024 35.5033 239.946 35.8159 239.857 36.1174C239.779 36.363 239.89 36.5193 240.135 36.564C240.258 36.5863 240.391 36.5975 240.525 36.5863C241.393 36.5751 242.262 36.5528 243.141 36.5416C243.498 36.5416 243.843 36.5863 244.199 36.5751C244.689 36.5528 244.8 36.4077 244.667 35.9387C244.522 35.4251 244.344 34.9115 244.188 34.3979C243.899 33.4601 243.587 32.5334 243.308 31.5843C243.052 30.7135 242.852 29.8314 242.618 28.9494C242.562 28.7931 242.44 28.6368 242.306 28.38Z" fill="#2F56A4"/>
<path d="M185.933 43.9329C185.02 43.9329 184.14 43.9329 183.272 43.9329C183.138 43.5198 183.105 26.828 183.227 26.1246C184.118 26.1246 185.009 26.1246 185.944 26.1246C185.955 26.2586 185.978 26.3814 185.978 26.5042C185.989 28.7373 186.011 30.9591 186.022 33.1921C186.022 33.4489 186.011 33.7392 186.334 33.8285C186.646 33.9178 186.868 33.7727 187.058 33.5382C187.069 33.5271 187.08 33.5159 187.091 33.4936C187.436 33.0358 187.781 32.578 188.115 32.1091C189.418 30.2892 190.754 28.4805 192.012 26.6382C192.313 26.1916 192.625 26.08 193.104 26.1023C193.85 26.1246 194.584 26.1135 195.33 26.1135C195.509 26.1135 195.676 26.1358 195.932 26.147C195.843 26.3033 195.809 26.3814 195.754 26.4484C194.328 28.2125 192.914 29.9654 191.489 31.7183C191.01 32.3101 190.52 32.8907 190.042 33.4712C189.953 33.5829 189.863 33.7057 189.808 33.8397C189.685 34.1523 189.752 34.2751 190.075 34.3756C190.431 34.4873 190.799 34.5543 191.133 34.6994C192.291 35.1795 193.081 36.0615 193.56 37.1892C194.061 38.3839 194.451 39.6232 194.918 40.829C195.297 41.8339 195.709 42.8164 196.132 43.8771C195.987 43.8994 195.854 43.9441 195.72 43.9552C194.941 43.9664 194.161 43.9552 193.382 43.9664C193.081 43.9664 192.903 43.8883 192.803 43.5868C192.502 42.6713 192.168 41.7669 191.845 40.8625C191.433 39.7125 191.01 38.5737 190.309 37.5465C189.607 36.5193 188.605 36.1174 187.447 35.9722C187.158 35.9387 186.857 35.9499 186.557 35.9611C186.189 35.9834 186.067 36.095 186.022 36.4746C185.989 36.7873 185.966 37.0999 185.966 37.4237C185.966 39.5227 185.978 41.6217 185.989 43.7208C185.989 43.7654 185.966 43.8213 185.933 43.9329Z" fill="#2F56A4"/>
<path d="M64.9582 26.0687C66.0048 26.1692 66.9512 26.0129 67.9422 26.1915C67.9199 26.4818 67.8754 26.7163 67.8754 26.9508C67.8754 28.6814 67.8865 30.4008 67.8865 32.1314C67.8865 32.3658 68.009 32.4775 68.2205 32.4998C68.3653 32.5221 68.5212 32.4998 68.6659 32.4998C69.501 32.4998 70.336 32.444 71.1711 32.4886C72.8524 32.578 74.3333 33.1251 75.5803 34.3197C76.6158 35.3134 77.128 36.4634 77.1057 37.8814C77.1057 38.1828 77.1057 38.4731 77.0946 38.7746C77.0278 40.6726 76.0591 42.0236 74.4669 42.9503C73.1085 43.743 71.5831 43.944 70.0466 44.1003C68.4655 44.2678 66.9067 44.0333 65.3256 43.9775C65.0806 43.9663 64.947 43.877 64.947 43.6091C64.947 43.4751 64.947 43.3523 64.947 43.2183C64.947 37.7027 64.947 32.1872 64.947 26.6605C64.9582 26.5042 64.9582 26.3367 64.9582 26.0687ZM67.8642 38.3726C67.8642 38.3726 67.8754 38.3726 67.8642 38.3726C67.8642 39.2993 67.8642 40.226 67.8642 41.1639C67.8642 41.7557 68.0201 41.9231 68.6102 41.9566C69.1113 41.979 69.6123 41.9901 70.1134 41.9678C70.8816 41.9231 71.6388 41.778 72.2734 41.3426C73.4314 40.5498 74.0883 39.478 73.9881 38.0042C73.9213 37.0105 73.5316 36.1843 72.7299 35.6372C71.4606 34.7886 70.0466 34.5319 68.5323 34.7886C67.9644 34.8891 67.8754 34.9673 67.8754 35.5479C67.8642 36.4857 67.8642 37.4348 67.8642 38.3726Z" fill="#2F56A4"/>
<path d="M28.9941 26.1023C28.9941 26.7834 29.0052 27.4198 28.983 28.045C28.983 28.1455 28.816 28.2795 28.7046 28.313C28.5487 28.3576 28.3706 28.3353 28.2036 28.3353C26.4555 28.3353 24.7185 28.3353 22.9704 28.3353C22.77 28.3353 22.5584 28.3353 22.358 28.3465C21.7902 28.3688 21.6677 28.4916 21.6566 29.0499C21.6454 29.6974 21.6566 30.345 21.6566 31.0038C21.6566 31.5843 21.6566 32.1538 21.6566 32.7343C21.6566 33.3596 21.779 33.4936 22.4026 33.4936C24.1507 33.5047 25.8876 33.4936 27.6357 33.4936C27.9252 33.4936 28.2258 33.4936 28.571 33.4936C28.571 33.862 28.571 34.1635 28.571 34.4761C28.571 34.8111 28.5599 35.146 28.571 35.481C28.571 35.7378 28.4485 35.8494 28.1924 35.8494C27.7248 35.8494 27.2683 35.8606 26.8006 35.8606C25.3309 35.8606 23.8723 35.8606 22.4026 35.8606C21.8013 35.8606 21.6677 35.9834 21.6566 36.564C21.6454 38.0266 21.6454 39.5004 21.6566 40.963C21.6566 41.5324 21.779 41.6441 22.358 41.6441C24.6072 41.6441 26.8452 41.6329 29.0943 41.6217C29.15 41.6217 29.1945 41.6441 29.3059 41.6776C29.3949 42.4145 29.3281 43.1625 29.3504 43.9441C25.7651 43.9441 22.2467 43.9441 18.706 43.9441C18.6837 43.7654 18.6614 43.6203 18.6614 43.4863C18.6614 37.8926 18.6614 32.2989 18.6614 26.7052C18.6614 26.1358 18.6726 26.1246 19.2738 26.1246C22.2021 26.1246 25.1305 26.1246 28.07 26.1246C28.3372 26.1023 28.6155 26.1023 28.9941 26.1023Z" fill="#2F56A4"/>
<path d="M36.0533 43.9328C35.0958 43.9328 34.1827 43.9328 33.2252 43.9328C33.2252 43.6201 33.2252 43.3522 33.2252 43.073C33.2252 37.7473 33.2252 32.4216 33.2252 27.0847C33.2252 26.1803 33.2252 26.1803 34.1159 26.1133C35.0178 26.0463 35.9308 25.9905 36.8327 25.89C38.2134 25.7337 39.5829 25.89 40.919 26.1803C42.4222 26.5041 43.7472 27.1963 44.4932 28.6589C44.6713 29.0051 44.8495 29.3623 44.9163 29.742C45.139 30.9143 45.1501 32.0866 44.8161 33.259C44.2928 35.1012 42.9455 36.0279 41.2753 36.6196C40.173 37.0104 39.0151 37.1779 37.846 37.2226C37.5008 37.2337 37.1445 37.1667 36.7993 37.1109C36.2649 37.0216 36.1424 37.0997 36.1313 37.6133C36.109 39.6119 36.109 41.6216 36.0867 43.6201C36.0756 43.7095 36.0645 43.7764 36.0533 43.9328ZM36.109 31.4725C36.109 32.3769 36.0979 33.2924 36.109 34.1968C36.1201 34.7104 36.2203 34.8444 36.7325 34.8556C37.5787 34.8779 38.4361 34.9114 39.2712 34.7997C40.0172 34.6992 40.7298 34.3755 41.2419 33.7614C42.0882 32.7342 42.2774 31.5619 41.9323 30.3114C41.7096 29.5187 41.2419 28.8822 40.4625 28.525C39.1932 27.9667 37.8794 27.9555 36.5432 28.2012C36.2092 28.2682 36.0979 28.4915 36.109 28.8041C36.1201 29.6861 36.109 30.5793 36.109 31.4725Z" fill="#2F56A4"/>
<path d="M79.366 26.1134C80.2679 26.1134 81.103 26.1022 81.9269 26.1134C82.3055 26.1245 82.3278 26.1692 82.3278 26.6716C82.3278 30.3114 82.3278 33.9512 82.3278 37.591C82.3278 39.5003 82.3278 41.4207 82.3278 43.3299C82.3278 43.5085 82.3278 43.6872 82.3278 43.9216C81.3145 43.9216 80.357 43.9216 79.366 43.9216C79.366 37.9818 79.366 32.0643 79.366 26.1134Z" fill="#2F56A4"/>
<path d="M90.8456 21.9265C91.4023 21.9265 91.9256 21.9042 92.4378 21.9377C92.5603 21.9489 92.6939 22.1052 92.7718 22.228C92.8386 22.3285 92.8386 22.4736 92.8832 22.5964C93.117 23.2552 93.618 23.6459 94.2416 23.6459C94.9653 23.6571 95.4775 23.311 95.7447 22.6299C96.0231 21.9154 96.0231 21.9154 96.7802 21.9154C96.9806 21.9154 97.1922 21.9042 97.3926 21.9154C97.7711 21.9265 97.8491 22.0047 97.8157 22.3843C97.7377 23.1547 97.3703 23.7799 96.7022 24.1484C95.5777 24.7625 94.364 24.8964 93.1059 24.6396C92.538 24.5168 92.0592 24.3047 91.6361 23.9251C91.1351 23.4896 90.9347 22.8979 90.801 22.2726C90.7676 22.1945 90.8122 22.1052 90.8456 21.9265Z" fill="#2F56A4"/>
</g>
<defs>
<clipPath id="clip0">
<rect width="266.969" height="56.6628" fill="white" transform="translate(0.078125 0.925049)"/>
</clipPath>
</defs>
</svg>
