<svg width="169" height="54" viewBox="0 0 169 54" fill="none" xmlns="http://www.w3.org/2000/svg">
<g clip-path="url(#clip0)">
<path fill-rule="evenodd" clip-rule="evenodd" d="M45.2799 37.2346H50.5822C50.7505 36.742 50.8347 36.545 50.9188 36.348L50.9188 36.348V2.85355C50.9188 2.33758 50.8547 1.89667 50.7824 1.39978L50.782 1.39713L50.7812 1.39127C50.7711 1.32168 50.7608 1.25099 50.7505 1.17882C50.7505 1.08031 50.7505 1.08031 50.6664 0.981799L50.4139 0.68626C50.1045 0.669019 49.7927 0.645744 49.4777 0.622243C47.9932 0.511458 46.4413 0.395651 44.7749 0.883286V8.76433V17.335C44.1858 16.3498 43.8491 15.8573 43.5125 15.3647C41.745 12.5078 39.2201 11.0301 36.1903 10.8331C35.8504 10.8331 35.5201 10.8219 35.1929 10.8109C34.5477 10.7891 33.9147 10.7677 33.2445 10.8331C27.6898 11.1286 23.4816 15.2662 22.5558 21.571C21.5458 28.3684 23.9024 34.0822 28.9522 36.742C34.4228 39.6974 40.3143 37.8257 43.765 32.1119C43.8746 31.9194 44.02 31.7269 44.2476 31.4255C44.3694 31.2641 44.5147 31.0716 44.6908 30.8312C44.9432 33.1956 45.1116 35.1658 45.2799 37.2346ZM41.2401 31.4223C39.7251 32.4074 38.0419 32.506 36.1061 32.506C33.3287 32.6045 30.8038 31.5208 29.373 28.2699C27.5214 24.1324 28.6997 17.335 34.3387 16.3498C36.5269 15.9558 38.7993 15.9558 40.9034 17.0394C43.6808 18.4186 44.8591 20.9799 44.9432 24.3294C45.0274 27.5803 43.5966 29.8461 41.2401 31.4223ZM90.4756 16.0051C90.3073 15.7834 90.1389 15.5618 89.9706 15.3647C90.5857 15.4727 91.2008 15.5676 91.8241 15.6637C92.9066 15.8306 94.0138 16.0013 95.1887 16.2513C95.2082 15.7726 95.2412 15.3149 95.2731 14.8722C95.3791 13.4021 95.4732 12.0975 95.0204 10.7346H89.9706C89.0978 10.7346 88.2344 10.7456 87.3741 10.7566H87.374C85.6627 10.7785 83.9638 10.8002 82.2276 10.7346C79.366 10.6361 76.6728 10.9316 74.0637 12.3108C70.4447 14.2811 68.6773 17.6305 68.5931 22.1621C68.509 26.6937 70.4447 29.9447 73.8954 31.9149C74.1618 32.0396 74.4282 32.2038 74.7586 32.4075C74.9501 32.5256 75.1632 32.6569 75.4103 32.8015C73.4746 32.9986 72.0438 33.3926 70.7814 34.5748C68.7614 36.545 68.9298 39.796 71.2022 41.3722C71.8755 41.8647 72.7171 42.2588 73.5588 42.3573C75.242 42.5543 76.9253 42.7513 78.6086 42.7513C80.0814 42.8006 81.5543 42.8006 83.0272 42.8006C84.5 42.8006 85.9729 42.8006 87.4457 42.8499C88.2032 42.8499 88.9606 43.0469 89.7181 43.2439C90.5598 43.4409 91.0647 44.1305 91.1489 45.1157C91.2331 46.1993 90.7281 46.9874 89.8865 47.3815C89.129 47.7755 88.2873 47.9725 87.4457 48.071C85.7624 48.1696 84.0792 48.1696 82.3959 48.1696C82.0593 48.1696 81.7436 48.1942 81.428 48.2188L81.4279 48.2188C81.1123 48.2435 80.7968 48.2681 80.4602 48.2681C80.2077 50.1398 80.1235 51.716 80.5443 53.4893C80.8502 53.4893 81.1562 53.5158 81.4503 53.5414C81.7226 53.565 81.9848 53.5878 82.2276 53.5878C83.6584 53.5878 85.1733 53.5878 86.6041 53.3907C87.8665 53.1937 89.2131 52.7997 90.3914 52.2086C93.1688 50.8294 94.4313 47.874 94.1788 44.229C93.9263 40.9781 92.243 38.9093 89.2973 38.0227C88.119 37.7272 86.8566 37.5302 85.5941 37.4316C84.5421 37.3824 83.469 37.3824 82.3854 37.3824C81.3018 37.3824 80.2077 37.3824 79.1135 37.3331C78.2719 37.2346 77.4303 37.1361 76.6728 36.8406C76.252 36.6435 75.6628 36.0525 75.6628 35.5599C75.6628 35.0673 76.1678 34.3777 76.5886 34.1807C77.5144 33.7867 78.6086 33.5896 79.6185 33.4911C80.3174 33.4132 81.0164 33.3661 81.7101 33.3194C82.7706 33.2479 83.819 33.1772 84.8366 32.9986C87.0249 32.6045 88.9606 31.7179 90.6439 29.9447C94.0105 26.2012 94.1788 20.4874 90.9806 16.6454C90.8122 16.4484 90.6439 16.2267 90.4756 16.0051ZM83.0692 16.4484C85.5941 16.8424 87.3615 19.4038 87.3615 22.9502C87.2774 24.7235 86.3516 26.5952 84.3317 27.5803C82.0593 28.7625 79.6185 28.664 77.2619 27.5803C75.242 26.5952 74.1479 24.1324 74.4004 21.4725C74.6529 19.1082 76.5045 16.8424 78.6927 16.4484C80.1235 16.2513 81.6384 16.2513 83.0692 16.4484ZM157.133 11.4242C157.554 13.7885 157.554 34.8703 157.133 37.0375C155.51 37.5123 153.888 37.3464 152.039 37.1574L151.831 37.1361C151.765 36.3309 151.687 35.5258 151.606 34.6917V34.6915V34.6913L151.606 34.6908L151.606 34.6902L151.606 34.6897L151.606 34.6891L151.606 34.6887L151.606 34.6882L151.605 34.6876L151.605 34.6869L151.605 34.6862C151.478 33.3786 151.344 31.9995 151.242 30.4372C150.821 31.1268 150.652 31.4223 150.484 31.7178C147.707 36.8405 143.667 38.5152 138.785 37.6286C134.241 36.742 130.874 33.8851 129.527 28.5654C128.181 23.1472 128.938 18.0245 132.726 14.084C133.904 12.8033 135.503 11.9167 137.102 11.3256C139.038 10.5375 141.058 10.439 143.078 10.6361C146.36 11.0301 148.885 12.8033 150.652 16.0543C150.694 16.1528 150.758 16.2513 150.821 16.3498C150.884 16.4483 150.947 16.5468 150.989 16.6453C150.989 16.6946 151.01 16.6946 151.063 16.6946C151.115 16.6946 151.199 16.6946 151.326 16.7439C151.41 14.9706 151.494 13.1974 151.578 11.3256C153.43 11.4242 155.281 11.4242 157.133 11.4242ZM143.078 32.8015C143.583 32.6373 144.106 32.5059 144.63 32.3746C145.677 32.1119 146.725 31.8492 147.623 31.3238C150.147 29.9446 151.41 27.3833 151.242 24.0338C151.157 20.6844 149.811 18.4186 147.118 17.0394C145.266 16.1528 143.33 16.1528 141.31 16.2513C135.587 16.5468 133.231 23.9353 135.84 28.6639C137.691 31.7178 140.132 32.6045 143.078 32.8015ZM127.339 14.6751V11.4242C126.127 11.3651 125.006 11.306 123.885 11.2469C123.138 11.2075 122.39 11.1681 121.616 11.1287C121.566 9.65096 121.515 8.27966 121.465 6.90835L121.465 6.90721C121.431 5.9934 121.397 5.07957 121.364 4.13424C120.405 4.40341 119.517 4.63172 118.643 4.85639L118.643 4.85645C117.597 5.12511 116.572 5.38857 115.472 5.71045V11.1287C113.957 11.2026 112.584 11.2764 111.211 11.3503C110.754 11.375 110.296 11.3996 109.833 11.4242C109.818 11.7419 109.798 12.0501 109.778 12.3522C109.686 13.7364 109.602 14.9928 110.086 16.4484H115.472C115.472 20.0169 115.493 23.5106 115.515 26.9797V26.9807V26.9817V26.9828V26.9839V26.9849V26.986V26.9871V26.9882C115.536 30.4116 115.556 33.8109 115.556 37.2346C117.66 37.5302 119.512 37.6287 121.532 37.2346V34.3777V19.2067C121.532 18.46 121.592 17.7133 121.661 16.8489L121.661 16.8424L121.663 16.8261L121.664 16.8129C121.676 16.6623 121.688 16.5082 121.7 16.3499H127.171C127.191 16.1882 127.21 16.0374 127.229 15.8949L127.229 15.8947C127.29 15.4293 127.339 15.0522 127.339 14.6751ZM168.748 37.3331H163.361C162.94 35.4613 162.856 6.20298 163.193 2.65651C164.708 1.76989 166.643 1.17881 168.748 1.0803C169.084 2.85353 169.168 34.4762 168.748 37.3331ZM5.80727 37.1361C6.14393 34.3777 6.14393 10.5376 5.72311 8.56733C5.49348 8.61407 5.26503 8.65943 5.03777 8.70455C3.34924 9.03981 1.7261 9.36209 0.16833 10.1435C-0.168324 13.69 3.1339e-06 35.2644 0.336657 37.2346C2.18825 37.4316 4.03984 37.6287 5.80727 37.1361ZM57.5678 9.9465C58.5777 9.65096 59.5246 9.40467 60.4714 9.15839C61.4183 8.91211 62.3651 8.66583 63.3751 8.37029C63.6275 10.2913 63.596 12.046 63.5644 13.8008C63.5539 14.3857 63.5434 14.9707 63.5434 15.5617V22.8517V29.9446V37.0376C61.5708 37.5186 59.839 37.342 57.9561 37.1499L57.8203 37.1361C57.5142 35.4882 57.5643 33.8404 57.6144 32.1925C57.6332 31.5746 57.6519 30.9566 57.6519 30.3387C57.5958 28.8282 57.6145 27.3176 57.6332 25.8071C57.6426 25.0518 57.6519 24.2966 57.6519 23.5413V16.9409C57.5678 14.7736 57.5678 12.5078 57.5678 9.9465ZM100.239 37.2346H105.541C105.962 35.1658 106.046 10.8331 105.541 8.46878C105.015 8.60868 104.482 8.71679 103.95 8.82472C102.61 9.09677 101.275 9.36764 100.07 10.1435C99.6494 14.084 99.8177 35.2643 100.239 37.2346ZM19.5259 25.5116H9.00547V21.0785C11.5805 20.3249 14.1556 19.6291 16.8436 18.9026L16.8452 18.9022C17.6709 18.6791 18.5073 18.453 19.3576 18.2216C19.5716 19.7877 19.5475 21.314 19.5232 22.8511V22.8511C19.5092 23.7312 19.4952 24.6149 19.5259 25.5116ZM0.420868 6.10448H5.72316C6.14398 3.44463 6.14397 2.55801 5.55483 0.784774C5.35612 0.773144 5.15623 0.760141 4.95517 0.747062C3.45309 0.649352 1.88555 0.547384 0.252541 0.9818C5.09666e-05 2.75503 -0.168276 4.33124 0.420868 6.10448ZM63.375 0.7848V5.90748C61.4393 6.40004 59.6718 6.30153 57.7361 6.00599V0.981826C59.5427 0.597335 61.2693 0.681796 63.2284 0.777635L63.375 0.7848ZM101.417 0.686285L100.154 0.981824C99.8177 2.65654 99.7335 4.33127 100.239 6.00599L100.309 6.01347C102.135 6.20789 103.881 6.3938 105.709 5.90747C105.962 4.13424 106.13 2.55803 105.541 0.686285H101.417Z" fill="#0076CE"/>
</g>
<defs>
<clipPath id="clip0">
<rect width="169" height="53" fill="white" transform="translate(0 0.587769)"/>
</clipPath>
</defs>
</svg>
