<svg width="119" height="47" viewBox="0 0 119 47" fill="none" xmlns="http://www.w3.org/2000/svg">
<path d="M118.358 10.9531C118.24 11.3052 118.121 11.6748 118.02 12.0269C117.342 14.4211 115.09 17.0617 111.635 17.0969C109.349 17.1145 107.08 17.3081 104.794 17.4138C103.896 17.449 103.862 17.4666 103.794 18.4172C103.777 18.6461 103.794 18.8749 103.794 19.139C104.438 19.139 105.048 19.1566 105.657 19.139C106.809 19.1038 107.977 18.9453 109.112 19.0333C111.822 19.2622 113.447 21.6211 112.973 24.4026C112.601 26.5679 110.873 28.786 108.333 28.874C106.809 28.9268 105.302 29.0501 103.777 29.1381C103.523 29.1557 103.269 29.1557 102.897 29.1733C102.829 29.719 102.778 30.2471 102.711 30.8105C102.948 30.8457 103.1 30.9161 103.252 30.9161C105.505 30.8105 107.757 30.7048 109.993 30.5464C113.058 30.3352 115.412 32.2716 115.886 35.4403C116.428 38.9964 113.837 42.7988 110.416 43.3094C108.926 43.5382 107.385 43.503 105.86 43.591C101.644 43.8023 97.4268 43.9959 93.1931 44.2248C91.8552 44.2952 90.5513 44.2952 89.2811 43.7318C88.5529 43.415 87.8925 43.0101 87.2997 42.2003C88.3497 42.1475 89.2473 42.0771 90.1618 42.0419C95.0898 41.8658 100.018 41.6722 104.946 41.4961C106.47 41.4433 107.994 41.4081 109.501 41.3201C112.33 41.1617 114.514 38.0985 113.82 35.2995C113.413 33.6623 112.126 32.5885 110.484 32.6413C108.011 32.7117 105.539 32.8525 103.049 32.9582C102.236 32.9934 101.44 32.9582 100.526 32.9582C100.695 31.0393 100.848 29.1381 101.017 27.1664C101.305 27.1312 101.542 27.1136 101.779 27.096C103.896 26.9904 105.996 26.9024 108.113 26.7615C109.637 26.6559 110.839 25.4236 111.059 23.8745C111.28 22.2901 109.976 20.9522 108.672 21.0402C106.487 21.1986 104.286 21.2515 102.084 21.3571C101.948 21.3571 101.813 21.3571 101.559 21.3571C101.728 19.3678 101.898 17.4314 102.05 15.4597C102.49 15.4245 102.812 15.3893 103.151 15.3717C105.996 15.2485 108.841 15.1076 111.686 14.9844C114.311 14.8788 116.496 12.3438 116.292 9.63277C116.157 7.69632 114.514 6.18238 112.634 6.2704C109.264 6.42883 105.877 6.58727 102.507 6.74571C101.644 6.78091 100.763 6.85133 99.8994 6.88654C99.7131 6.90414 99.5268 6.86893 99.2728 6.85133C99.1711 6.19998 99.0865 5.56623 98.9679 4.86207C100.035 4.79165 101 4.72124 101.982 4.66843C105.437 4.50999 108.909 4.43957 112.363 4.21072C114.7 4.05228 117.258 5.28457 118.071 8.36528C118.121 8.57653 118.24 8.78778 118.325 8.99903C118.358 9.66798 118.358 10.3017 118.358 10.9531Z" fill="#393939"/>
<path d="M47.8413 46.3721C47.6889 46.3017 47.5365 46.2137 47.3841 46.1785C43.9632 45.3335 41.9141 42.4288 42.3036 38.7847C42.6084 35.9153 43.0487 33.0634 43.4382 30.194C43.4551 30.0531 43.489 29.9123 43.5398 29.6834C44.1495 29.6306 44.7422 29.5778 45.4873 29.525C45.3857 30.3172 45.318 31.0038 45.2164 31.6727C44.8946 34.1373 44.6237 36.6018 44.2511 39.0488C43.8954 41.3197 45.6228 43.9779 48.3324 44.2068C50.0598 44.3476 51.6347 43.9075 52.9557 42.7105C53.904 41.8479 54.5137 40.7916 54.6492 39.4889C54.8693 37.3764 55.0556 35.2463 55.2588 33.1338C55.2757 32.905 55.3096 32.6937 55.3604 32.3065C55.6822 32.6409 55.9023 32.8698 56.1225 33.1338C58.5273 35.8801 60.932 38.6263 63.3368 41.3902C64.5053 42.7281 65.9786 43.2914 67.6721 43.0097C70.9237 42.4816 72.2785 38.4679 70.1446 35.704C69.4503 34.8238 68.6882 33.9964 67.96 33.1514C67.1641 32.2184 66.3512 31.2854 65.5045 30.2996C65.8093 30.0355 66.0464 29.8419 66.2835 29.6482C68.8407 27.5181 70.6866 24.8951 71.4317 21.5328C72.0075 18.9802 71.8551 16.4628 70.7035 14.1038C69.0777 10.7239 66.3851 8.92825 62.761 8.78741C61.186 8.717 59.6111 8.89304 58.0361 8.94585C57.5112 8.96345 56.9692 8.99866 56.3765 9.01627C56.3088 8.32971 56.241 7.69596 56.1564 6.9918C57.0031 6.92138 57.816 6.83336 58.6119 6.81576C60.3054 6.76295 61.9989 6.62211 63.6755 6.76295C68.7729 7.22065 72.8373 11.3576 73.5316 16.6212C74.209 21.6736 72.6002 25.9338 69.3318 29.613C69.0777 29.8947 68.8237 30.1588 68.5697 30.4228C68.5528 30.4404 68.5528 30.4756 68.485 30.5989C68.8915 31.0742 69.3487 31.5847 69.789 32.1128C70.5511 33.0458 71.3809 33.9436 72.0414 34.9471C73.6671 37.482 73.4131 40.8972 71.5502 43.0977C69.1624 45.8792 64.573 45.8616 62.0497 43.0097C60.5595 41.3373 59.103 39.6297 57.6297 37.9222C57.4434 37.7109 57.2571 37.4997 56.9523 37.1652C56.8846 37.6053 56.8338 37.9045 56.783 38.2038C56.7152 38.7495 56.6644 39.3129 56.5628 39.8586C55.9701 43.2914 53.9209 45.2983 50.7202 46.1256C50.4832 46.1961 50.2461 46.2841 50.0259 46.3721C49.2977 46.3721 48.5695 46.3721 47.8413 46.3721Z" fill="#393939"/>
<path d="M12.244 16.9212C13.0907 17.6958 13.8697 18.4 14.8012 19.245C14.8858 19.0865 14.9874 18.8753 15.1229 18.7168C17.1382 16.2523 20.4066 15.3369 23.2348 16.3931C26.1645 17.4846 27.9935 20.2836 28.0782 23.6284C28.1628 27.114 26.4016 29.8426 23.692 31.0749C20.8808 32.3424 17.3922 31.5326 15.3092 29.1913C15.1399 28.9976 14.9874 28.804 14.6996 28.4695C14.6149 28.9272 14.5471 29.2617 14.5133 29.5786C14.2762 31.8495 14.1068 34.1204 13.802 36.3737C13.6496 37.518 13.3278 38.6447 13.0061 39.7713C12.1085 42.8872 9.12795 44.6828 6.07966 44.5244C2.08301 44.278 -0.541908 40.7747 0.10162 36.6554C0.677409 32.8177 1.15159 28.98 1.67657 25.1247C1.76125 24.4558 1.84592 23.7868 1.9306 23.1355C2.28623 20.6181 3.55635 18.6992 5.58855 17.3085C5.7579 17.2029 5.91031 17.0797 6.06273 16.9564C6.07966 16.9388 6.07966 16.9036 6.1474 16.6924C6.0966 16.6748 5.94418 16.6396 5.84257 16.5339C3.20072 14.2454 2.77734 9.35148 6.21514 6.46441C7.70542 5.21452 9.41585 4.6688 11.3464 4.95046C13.6665 5.30255 15.36 7.01014 15.6648 9.4395C16.0374 12.2914 15.0552 14.5975 12.9214 16.3931C12.7182 16.5691 12.498 16.7276 12.244 16.9212ZM1.99834 37.5532C1.91366 40.0178 3.387 41.9894 5.47 42.3415C8.14573 42.7992 10.3134 41.5845 11.2956 38.7679C11.6174 37.8173 11.7698 36.7962 11.8714 35.7752C12.3795 31.339 12.8367 26.9027 13.3109 22.4665C13.4633 21.0054 12.8706 19.9139 11.6682 19.1746C9.60213 17.9071 6.94334 18.3472 5.36839 20.2308C4.52164 21.2518 4.03053 22.4313 3.84425 23.7692C3.47168 26.5154 3.08217 29.2441 2.7096 31.9903C2.43864 33.9796 2.20156 35.9512 1.99834 37.5532ZM20.7453 18.0831C17.8156 18.0655 15.4108 20.6357 15.377 23.8044C15.3431 26.9027 17.8325 29.5786 20.7792 29.6138C23.6751 29.649 26.1984 26.9908 26.1815 23.8044C26.1645 20.5829 23.7936 18.1007 20.7453 18.0831ZM9.21263 15.5305C11.6343 15.5305 13.9714 12.9779 13.8528 10.4781C13.7173 7.55587 11.0416 6.14754 8.9078 7.09816C6.99415 7.96076 5.94418 9.47471 5.7579 11.5872C5.57161 13.7877 7.14656 15.5481 9.21263 15.5305Z" fill="#393939"/>
<path d="M82.8628 14.1395C82.8289 14.7204 82.7781 15.2133 82.7442 15.7767C83.3031 15.7767 83.7942 15.7943 84.3023 15.7767C85.5893 15.7415 86.8933 15.6182 88.1804 15.6711C90.5174 15.7767 92.6173 17.9244 91.9061 21.3572C91.4319 23.6985 89.7384 25.2477 87.4352 25.4589C86.0127 25.5997 84.5732 25.5997 83.1337 25.6702C82.7781 25.6878 82.4055 25.723 81.9991 25.7582C81.8806 26.3039 81.762 26.7968 81.6265 27.4482C81.9991 27.4482 82.3039 27.4658 82.5918 27.4482C84.8442 27.3778 87.0965 27.3425 89.3489 27.2017C92.2617 27.0081 94.6495 29.2262 94.9543 32.4125C95.31 36.0214 92.448 39.7006 89.0102 39.9823C87.8078 40.0703 86.5885 40.1407 85.3861 40.1935C82.1007 40.3696 78.7984 40.528 75.513 40.6864C75.3437 40.6864 75.1912 40.6864 74.9711 40.6864C74.8187 39.9471 75.0896 39.2957 75.1743 38.5916C75.4114 38.5563 75.6316 38.5211 75.8517 38.5211C79.2048 38.3803 82.558 38.2395 85.8941 38.0986C86.7748 38.0634 87.6384 38.0106 88.5021 37.9402C90.8391 37.7642 92.8375 35.6869 93.0238 33.2575C93.1931 31.0218 91.4827 29.1558 89.2981 29.2438C86.7409 29.3494 84.1837 29.4902 81.6096 29.6135C80.9999 29.6487 80.3733 29.6135 79.6621 29.6135C79.6113 27.7122 79.95 25.8462 80.0346 23.8745C80.3564 23.8393 80.6443 23.7865 80.9322 23.7689C82.9644 23.6457 84.9797 23.5401 87.0118 23.4168C88.6207 23.3112 89.8569 22.1141 90.094 20.4594C90.3142 18.9982 89.1965 17.6779 87.7231 17.6955C86.4361 17.7131 85.1321 17.8187 83.845 17.854C82.812 17.8892 81.7789 17.854 80.6274 17.854C80.7798 15.9879 80.9153 14.1395 81.0677 12.2207C81.5419 12.1678 81.9991 12.0622 82.4733 12.0446C85.1151 11.9038 87.757 11.7806 90.3988 11.6397C93.0238 11.4989 94.8866 9.8265 95.293 7.2035C95.6656 4.84455 93.8197 2.74967 91.5504 2.9081C89.4166 3.04894 87.2659 3.10175 85.1321 3.20737C81.8467 3.36581 78.5444 3.54185 75.259 3.71789C74.9542 3.73549 74.6493 3.80591 74.3445 3.87633C72.7187 4.22841 71.9059 5.10861 71.6857 6.83381C71.618 7.29152 71.5672 7.74922 71.4994 8.34776C70.9067 7.85485 70.3648 7.48516 69.9245 7.02746C69.7551 6.85141 69.7043 6.44652 69.7551 6.16486C70.1616 3.73549 72.2107 1.85186 74.6493 1.71103C78.5613 1.48217 82.4733 1.32374 86.3853 1.11249C88.1634 1.02447 89.9247 0.883636 91.7028 0.813219C94.6156 0.725199 96.868 2.82008 97.2575 5.81277C97.7486 9.50963 94.9713 13.629 90.8053 13.717C88.4175 13.7698 86.0296 13.9282 83.6249 14.0515C83.3878 14.0691 83.1676 14.1043 82.8628 14.1395Z" fill="#393939"/>
<path d="M27.2822 16.745C26.7234 16.3049 26.2153 15.9528 25.7581 15.5303C25.6226 15.4071 25.5549 15.1078 25.5887 14.9142C25.9105 12.6257 26.2153 10.3547 26.5879 8.06622C26.8588 6.41144 27.8411 5.30238 29.2297 4.5102C30.4491 3.80604 31.8039 3.68281 33.1587 3.61239C38.0867 3.38354 42.9979 3.13708 47.9259 2.92583C48.6203 2.89063 49.3485 2.85542 50.0259 2.96104C52.3629 3.36593 54.0395 5.31999 54.3951 7.90778C54.8354 11.2526 52.5322 14.8086 49.3654 15.5303C48.163 15.7944 46.9098 15.7944 45.6736 15.8824C43.9801 15.988 42.3035 16.0585 40.61 16.1641C40.2544 16.1817 39.8818 16.2345 39.4585 16.2697C39.3907 16.8154 39.323 17.326 39.2383 17.9421C40.0681 18.0653 40.8471 17.9245 41.6261 17.8893C42.8116 17.8189 43.997 17.678 45.1655 17.7837C48.0783 18.0301 49.6702 20.3539 49.0606 23.3113C48.5356 25.8111 46.8252 27.4131 44.3696 27.6067C42.5406 27.7476 40.7116 27.818 38.8827 27.9236C37.9512 27.9764 37.9682 27.9764 37.8496 28.8918C37.5279 31.5324 37.223 34.173 36.8505 36.7961C36.3763 40.1584 34.2764 42.2885 31.0418 42.8343C29.9749 43.0103 28.908 43.0279 27.858 42.7814C25.0637 42.1301 22.6759 40.1584 22.7437 35.9687C22.7606 35.2645 22.8791 34.5779 22.9469 33.8738C22.9807 33.5041 23.1501 33.3105 23.4888 33.1872C23.963 33.0288 24.4371 32.8351 25.0468 32.5887C24.996 33.1344 24.9621 33.5569 24.9283 33.9794C24.8605 34.6836 24.725 35.3701 24.7081 36.0567C24.6573 38.486 25.9613 40.1936 28.2306 40.7042C29.433 40.9682 30.6353 40.9154 31.8039 40.4577C33.5143 39.7887 34.6489 38.6093 34.903 36.6552C35.2247 34.1378 35.5465 31.6205 35.8513 29.1031C35.9699 28.2405 36.1053 27.3779 36.19 26.4977C36.2408 25.9872 36.4779 25.8815 36.9013 25.8639C38.3407 25.8287 39.7802 25.7759 41.2028 25.7055C42.3035 25.6527 43.4043 25.5999 44.4881 25.4942C46.2155 25.3182 47.5195 23.3289 47.0961 21.5861C46.8421 20.5299 46.1816 19.8785 45.1317 19.8962C43.0995 19.9138 41.0842 20.0546 39.052 20.125C38.4085 20.1426 37.765 20.125 37.0029 20.125C37.223 18.1886 37.4432 16.2697 37.6803 14.2629C38.6286 14.21 39.4923 14.1572 40.356 14.1044C43.0487 13.946 45.7583 13.8756 48.4509 13.5763C51.1266 13.277 53.0403 10.1259 52.2782 7.52049C51.821 5.97134 50.5 4.89749 48.9251 4.9503C45.8091 5.07353 42.6761 5.24957 39.5601 5.3904C37.6972 5.47842 35.8513 5.53123 33.9885 5.65446C33.0401 5.70728 32.0748 5.76009 31.1434 5.98894C29.5007 6.39383 28.5523 7.45008 28.3491 9.2809C28.0951 11.6046 27.7225 13.9108 27.3838 16.2169C27.35 16.3753 27.3161 16.4986 27.2822 16.745Z" fill="#393939"/>
<path d="M55.9023 26.5329C56.004 25.1598 56.0717 23.9451 56.1733 22.7304C56.3765 20.4067 56.5967 18.0829 56.7999 15.7592C56.8846 14.791 56.9692 14.6677 57.9176 14.6325C58.5103 14.6149 59.1031 14.5973 59.6788 14.6854C62.0497 15.0902 63.6416 17.0091 63.6247 19.6145C63.6078 23.0297 61.3554 25.4238 59.1708 26.0752C58.6797 26.216 58.1886 26.304 57.6805 26.3745C57.1555 26.4449 56.5967 26.4625 55.9023 26.5329ZM58.7644 16.6922C58.4765 17.8189 58.07 23.4698 58.2055 24.2092C59.7974 23.7867 61.203 22.2551 61.6094 20.5651C62.0328 18.7343 61.1691 16.8683 58.7644 16.6922Z" fill="#393939"/>
</svg>
