<svg width="178" height="52" viewBox="0 0 178 52" fill="none" xmlns="http://www.w3.org/2000/svg">
<g clip-path="url(#clip0)">
<path fill-rule="evenodd" clip-rule="evenodd" d="M36.3661 46.047L27.2425 51.0942C26.4025 51.5757 25.4431 51.8327 24.4642 51.8383C23.4853 51.844 22.5227 51.5982 21.6766 51.1265L12.4919 46.047L3.65778 41.164C2.72722 40.732 1.94233 40.0579 1.39281 39.2188C0.843292 38.3797 0.551469 37.4094 0.55043 36.4188V16.1009H0.558092C0.558211 15.1779 0.811216 14.2712 1.29209 13.4713C1.77296 12.6715 2.46472 12.0067 3.29807 11.5434L12.4828 6.46395L21.6064 1.4167C22.4464 0.935366 23.4058 0.678499 24.3846 0.672826C25.3635 0.667152 26.3262 0.912874 27.1723 1.38444L36.357 6.46395L45.1911 11.3484C46.1216 11.7804 46.9065 12.4545 47.4561 13.2936C48.0056 14.1327 48.2974 15.103 48.2984 16.0936V36.4115H48.2893C48.2893 37.3345 48.0364 38.2413 47.5555 39.0412C47.0746 39.841 46.3828 40.5058 45.5493 40.969L36.3661 46.047Z" fill="#1B7ABE"/>
<path fill-rule="evenodd" clip-rule="evenodd" d="M35.7812 20.7657L27.5332 7.08445C27.2259 6.5606 26.7795 6.12392 26.2392 5.81865C25.6989 5.51339 25.0838 5.35044 24.4565 5.34627C23.8293 5.3421 23.212 5.49688 22.6673 5.79494C22.1226 6.09299 21.6699 6.52366 21.355 7.04337L13.0887 20.7657H13.0964L13.0887 20.7744L4.98634 34.2108C4.55572 34.7886 4.32647 35.4818 4.3312 36.1917C4.33241 37.0975 4.70863 37.966 5.37726 38.6064C6.04589 39.2469 6.95227 39.6072 7.89785 39.6084H40.9721V39.5923C41.5943 39.5912 42.2053 39.4337 42.7441 39.1356C43.2829 38.8374 43.7307 38.4092 44.0426 37.8934C44.3545 37.3776 44.5196 36.7925 44.5215 36.1964C44.5234 35.6003 44.362 35.0142 44.0534 34.4966L35.8913 20.9548L35.7812 20.7657Z" fill="#93D5F6"/>
<path fill-rule="evenodd" clip-rule="evenodd" d="M37.1007 39.6083C33.7059 42.7666 29.1597 44.5336 24.4272 44.5336C19.6948 44.5336 15.1486 42.7666 11.7538 39.6083H37.1007Z" fill="#1CBBEE"/>
<path fill-rule="evenodd" clip-rule="evenodd" d="M13.0887 20.773L6.75588 31.2736C6.40199 29.9055 6.22467 28.5011 6.2278 27.0917C6.2282 23.3145 7.50892 19.6396 9.87724 16.6196C12.2456 13.5997 15.5734 11.398 19.3604 10.3457L13.0842 20.7656H13.0933L13.0842 20.773H13.0887Z" fill="#1CBBEE"/>
<path fill-rule="evenodd" clip-rule="evenodd" d="M42.0973 31.259L35.8837 20.9534L35.7813 20.7656L29.505 10.3545C34.0096 11.6193 37.8319 14.4984 40.1778 18.3932C42.5238 22.288 43.2131 26.8989 42.1018 31.2677L42.0973 31.259Z" fill="#1CBBEE"/>
<path fill-rule="evenodd" clip-rule="evenodd" d="M35.882 20.952L42.0954 31.2577C41.2799 34.4336 39.5455 37.3246 37.0914 39.5983H11.7447C9.29482 37.329 7.56294 34.4437 6.74818 31.2738L13.081 20.7731L13.0901 20.7658H13.081L19.3573 10.3459C22.6722 9.43289 26.1884 9.43289 29.5033 10.3459L35.7794 20.757L35.882 20.9446V20.952Z" fill="#FEFEFE"/>
<path d="M134.953 37.6024C134.503 37.6024 134.011 37.6846 133.304 37.6846C130.417 37.6846 129.057 36.5438 129.057 34.0187V23.518H134.044C134.421 23.518 134.782 23.3746 135.048 23.1192C135.315 22.8639 135.465 22.5175 135.465 22.1564C135.465 21.7953 135.315 21.4491 135.048 21.1937C134.782 20.9384 134.421 20.7949 134.044 20.7949H129.057V16.7257C129.066 16.5204 129.032 16.3156 128.957 16.1232C128.881 15.9309 128.766 15.7551 128.617 15.6066C128.469 15.4581 128.291 15.3399 128.094 15.2592C127.897 15.1785 127.684 15.1369 127.469 15.1369C127.255 15.1369 127.043 15.1785 126.846 15.2592C126.648 15.3399 126.469 15.4581 126.321 15.6066C126.173 15.7551 126.057 15.9309 125.982 16.1232C125.906 16.3156 125.872 16.5204 125.881 16.7257V20.7949H123.822C123.631 20.7889 123.44 20.8198 123.262 20.8855C123.085 20.9512 122.923 21.0506 122.786 21.1776C122.649 21.3046 122.54 21.4568 122.466 21.6249C122.391 21.7931 122.352 21.9737 122.352 22.1564C122.352 22.339 122.391 22.5198 122.466 22.688C122.54 22.8562 122.649 23.0083 122.786 23.1353C122.923 23.2624 123.085 23.3617 123.262 23.4275C123.44 23.4932 123.631 23.524 123.822 23.518H125.881V34.2151C125.881 38.2417 128.274 40.4516 132.64 40.4516C133.517 40.4834 134.394 40.39 135.243 40.1745C135.589 40.1278 135.903 39.9539 136.119 39.6894C136.334 39.4249 136.433 39.0906 136.395 38.7572C136.358 38.4238 136.187 38.1173 135.918 37.9026C135.649 37.688 135.303 37.5818 134.954 37.6067L134.953 37.6024ZM65.9702 36.9337C69.9104 37.293 73.358 35.7841 73.358 31.4876V13.7447C73.358 13.3169 73.5356 12.9066 73.8513 12.6041C74.1671 12.3016 74.5947 12.1317 75.0413 12.1317C75.4879 12.1317 75.9169 12.3016 76.2327 12.6041C76.5485 12.9066 76.726 13.3169 76.726 13.7447V31.4876C76.726 37.4308 71.3974 40.8475 65.4993 40.0073C65.2721 39.9967 65.0493 39.9406 64.846 39.8428C64.6427 39.745 64.4629 39.6076 64.3183 39.4393C64.1738 39.2711 64.067 39.0759 64.0059 38.866C63.9448 38.6561 63.9297 38.4362 63.9625 38.2205C63.9953 38.0049 64.0761 37.7982 64.1972 37.6137C64.3184 37.4293 64.478 37.2711 64.6666 37.1494C64.8553 37.0277 65.069 36.9452 65.293 36.907C65.517 36.8689 65.7463 36.876 65.9672 36.928L65.9702 36.9337ZM99.9897 21.0516V31.7884C99.9897 37.1039 96.5942 39.9339 91.3253 39.9339C85.8451 39.9339 82.7535 36.8693 82.7535 31.7884V21.0516C82.7664 20.6482 82.9429 20.2654 83.2453 19.9844C83.5478 19.7034 83.9527 19.5464 84.374 19.5464C84.7953 19.5464 85.2002 19.7034 85.5026 19.9844C85.8051 20.2654 85.9815 20.6482 85.9944 21.0516V31.7884C85.9944 35.1317 87.8059 36.9734 91.3283 36.9734C94.794 36.9734 96.7413 35.2446 96.7413 31.7884V21.0516C96.7413 20.6398 96.9127 20.2447 97.2167 19.9534C97.5207 19.6622 97.9333 19.4986 98.3633 19.4986C98.7932 19.4986 99.2059 19.6622 99.5099 19.9534C99.8139 20.2447 99.9838 20.6398 99.9838 21.0516H99.9897ZM106.709 34.504C107.396 35.3746 108.276 36.0874 109.287 36.5906C111.593 37.6918 116.903 37.7315 116.903 34.3486C116.929 33.9417 116.839 33.5358 116.643 33.1742C116.447 32.8125 116.152 32.5088 115.789 32.2956C112.81 30.4861 107.134 30.5829 105.404 27.1018C104.996 26.2392 104.826 25.2905 104.911 24.3468C104.996 23.4031 105.333 22.496 105.889 21.7128C109.168 17.2785 115.574 18.4194 119.006 21.6879C119.283 21.9481 119.441 22.3025 119.446 22.6737C119.451 23.0449 119.302 23.4028 119.032 23.6691C118.73 23.942 118.327 24.0905 117.912 24.0828C117.497 24.0751 117.101 23.9118 116.81 23.6279C114.785 21.6879 109.832 20.5707 108.316 23.433C108.002 23.9881 107.925 24.6391 108.104 25.247C108.283 25.8549 108.705 26.3717 109.276 26.6869C113.151 28.9451 120.002 28.0241 120.002 34.2356C120.026 35.0695 119.833 35.896 119.443 36.6416C119.052 37.3871 118.476 38.0286 117.764 38.5087C116.302 39.4099 114.624 39.9415 112.889 40.054C111.154 40.1666 109.417 39.8564 107.841 39.1524C106.462 38.5224 105.257 37.5924 104.32 36.4366C104.172 36.2909 104.057 36.1172 103.983 35.9265C103.908 35.7357 103.876 35.5321 103.888 35.3288C103.901 35.1254 103.956 34.9268 104.053 34.7454C104.15 34.564 104.284 34.4038 104.449 34.2752C104.785 34.0234 105.21 33.9071 105.635 33.9512C106.059 33.9953 106.448 34.1963 106.72 34.5113L106.709 34.504ZM164.6 31.976H152.252L149.425 38.6612C149.364 38.8553 149.263 39.0355 149.127 39.1912C148.992 39.347 148.825 39.4751 148.637 39.5679C148.449 39.6606 148.243 39.7162 148.031 39.7313C147.82 39.7464 147.609 39.7206 147.408 39.6556C147.208 39.5905 147.024 39.4877 146.865 39.3529C146.707 39.2181 146.579 39.0542 146.489 38.871C146.398 38.6878 146.347 38.489 146.338 38.2864C146.329 38.0838 146.362 37.8817 146.436 37.6919L156.931 13.0863C157.053 12.7848 157.267 12.5256 157.545 12.3422C157.823 12.1588 158.154 12.0599 158.491 12.0581C158.829 12.0564 159.159 12.1519 159.439 12.3324C159.719 12.5128 159.937 12.77 160.062 13.0702L170.542 37.6112C170.664 37.9932 170.63 38.4055 170.446 38.764C170.262 39.1225 169.943 39.4002 169.552 39.5405C169.162 39.6808 168.729 39.6729 168.344 39.5188C167.959 39.3647 167.65 39.0758 167.48 38.711C166.485 36.5012 165.549 34.202 164.595 31.9657L164.6 31.976ZM153.509 28.8966H163.288L158.361 17.3682L153.509 28.8966ZM178.031 38.101C178.029 38.3128 177.983 38.5222 177.897 38.7171C177.81 38.912 177.684 39.0886 177.526 39.2369C177.368 39.3852 177.181 39.5022 176.976 39.5813C176.771 39.6604 176.551 39.6999 176.33 39.6978C176.109 39.6957 175.891 39.652 175.687 39.5689C175.484 39.4859 175.299 39.3653 175.145 39.214C174.99 39.0627 174.867 38.8837 174.784 38.6872C174.702 38.4907 174.661 38.2806 174.663 38.0687V13.7638C174.663 13.336 174.841 12.9257 175.157 12.6232C175.472 12.3207 175.9 12.1507 176.346 12.1507C176.793 12.1507 177.222 12.3207 177.538 12.6232C177.854 12.9257 178.031 13.336 178.031 13.7638V38.1054V38.101Z" fill="#363644"/>
</g>
<defs>
<clipPath id="clip0">
<rect width="177.375" height="51.1659" fill="white" transform="translate(0.546875 0.673462)"/>
</clipPath>
</defs>
</svg>
