<svg width="236" height="60" viewBox="0 0 236 60" fill="none" xmlns="http://www.w3.org/2000/svg">
<g clip-path="url(#clip0)">
<path d="M63.55 20.5H67.05V37.2H77.05V40.2H63.55V20.5Z" fill="black"/>
<path d="M90.9501 37.0998C90.9501 37.3998 90.9501 37.6998 91.1501 37.8998C91.2501 38.0998 91.5501 38.1998 91.7501 38.0998H92.0501C92.2501 38.0998 92.3501 38.0998 92.4501 37.9998V40.1998L92.0501 40.2998L91.5501 40.3998L90.9501 40.4998H90.4501C89.8501 40.4998 89.3501 40.3998 88.8501 40.0998C88.3501 39.7998 88.0501 39.2998 88.0501 38.6998C87.4501 39.2998 86.6501 39.7998 85.7501 39.9998C84.8501 40.2998 84.0501 40.3998 83.1501 40.3998C82.5501 40.3998 81.8501 40.2998 81.2501 40.0998C80.6501 39.8998 80.1501 39.6998 79.6501 39.2998C79.2501 38.9998 78.8501 38.5998 78.5501 38.0998C78.2501 37.4998 78.1501 36.8998 78.1501 36.2998C78.1501 35.4998 78.2501 34.7998 78.6501 34.0998C78.9501 33.5998 79.3501 33.0998 79.9501 32.7998C80.4501 32.4998 81.0501 32.1998 81.7501 32.0998C82.4501 31.9998 83.0501 31.8998 83.7501 31.7998C84.2501 31.6998 84.8501 31.5998 85.3501 31.5998C85.8501 31.5998 86.2501 31.4998 86.7501 31.3998C87.1501 31.2998 87.4501 31.0998 87.6501 30.8998C87.8501 30.5998 88.0501 30.2998 87.9501 29.8998C87.9501 29.4998 87.8501 29.1998 87.6501 28.8998C87.4501 28.5998 87.2501 28.3998 86.9501 28.2998C86.6501 28.1998 86.2501 28.0998 85.9501 27.9998C85.6501 27.9998 85.2501 27.8998 84.9501 27.8998C84.1501 27.8998 83.4501 28.0998 82.7501 28.3998C82.1501 28.7998 81.7501 29.3998 81.7501 30.0998H78.7501C78.7501 29.2998 78.9501 28.4998 79.4501 27.7998C79.8501 27.1998 80.3501 26.6998 80.9501 26.2998C81.5501 25.8998 82.2501 25.6998 82.9501 25.4998C83.7501 25.3998 84.4501 25.2998 85.2501 25.2998C85.9501 25.2998 86.6501 25.3998 87.3501 25.4998C87.9501 25.5998 88.6501 25.8998 89.1501 26.1998C89.6501 26.4998 90.1501 26.8998 90.4501 27.3998C90.7501 27.9998 90.9501 28.5998 90.9501 29.2998V37.0998ZM87.7501 33.0998C87.2501 33.3998 86.6501 33.5998 85.9501 33.6998C85.2501 33.7998 84.5501 33.8998 83.8501 33.9998C83.5501 33.9998 83.1501 34.0998 82.8501 34.1998C82.5501 34.2998 82.2501 34.3998 82.0501 34.5998C81.8501 34.7998 81.6501 34.9998 81.4501 35.2998C81.3501 35.5998 81.2501 35.9998 81.2501 36.2998C81.2501 36.5998 81.3501 36.8998 81.5501 37.1998C81.7501 37.3998 81.9501 37.5998 82.2501 37.7998C82.5501 37.8998 82.8501 37.9998 83.1501 38.0998C83.4501 38.0998 83.7501 38.1998 84.0501 38.1998C84.4501 38.1998 84.8501 38.1998 85.2501 38.0998C85.6501 37.9998 86.0501 37.8998 86.4501 37.5998C86.8501 37.3998 87.1501 37.0998 87.3501 36.7998C87.5501 36.3998 87.7501 35.9998 87.7501 35.4998V33.0998Z" fill="black"/>
<path d="M96.6501 35.6999C96.6501 36.4999 97.0501 37.1999 97.6501 37.5999C98.3501 37.9999 99.0501 38.1999 99.8501 38.0999C100.15 38.0999 100.55 38.0999 100.85 37.9999C101.25 37.9999 101.55 37.8999 101.95 37.6999C102.25 37.5999 102.55 37.3999 102.75 37.0999C102.95 36.7999 103.05 36.4999 103.05 36.0999C103.05 35.6999 102.85 35.3999 102.65 35.0999C102.35 34.7999 101.95 34.5999 101.55 34.4999C101.05 34.2999 100.55 34.1999 100.05 34.0999L98.3501 33.7999C97.7501 33.6999 97.2501 33.4999 96.6501 33.2999C96.1501 33.0999 95.6501 32.8999 95.1501 32.5999C94.7501 32.2999 94.3501 31.8999 94.1501 31.3999C93.8501 30.7999 93.7501 30.1999 93.7501 29.5999C93.7501 28.8999 93.9501 28.1999 94.2501 27.5999C94.6501 27.0999 95.1501 26.5999 95.6501 26.2999C96.2501 25.9999 96.9501 25.6999 97.5501 25.5999C98.2501 25.4999 98.8501 25.3999 99.5501 25.3999C100.25 25.3999 100.95 25.4999 101.65 25.5999C102.25 25.6999 102.95 25.9999 103.45 26.3999C103.95 26.7999 104.45 27.1999 104.75 27.7999C105.15 28.3999 105.35 29.0999 105.45 29.7999H102.15C102.05 29.1999 101.75 28.5999 101.15 28.2999C100.55 27.9999 99.9501 27.8999 99.2501 27.8999C99.0501 27.8999 98.7501 27.8999 98.4501 27.8999C98.1501 27.8999 97.8501 27.9999 97.5501 28.0999C97.2501 28.1999 97.0501 28.2999 96.8501 28.4999C96.6501 28.6999 96.5501 28.9999 96.5501 29.2999C96.5501 29.6999 96.6501 29.9999 96.9501 30.1999C97.2501 30.4999 97.5501 30.6999 97.9501 30.7999C98.4501 30.9999 98.9501 31.0999 99.4501 31.1999L101.15 31.5999C101.75 31.6999 102.25 31.8999 102.85 32.0999C103.35 32.2999 103.85 32.4999 104.35 32.7999C104.75 33.0999 105.15 33.4999 105.35 33.9999C105.65 34.4999 105.75 35.1999 105.75 35.7999C105.75 36.5999 105.55 37.2999 105.15 37.9999C104.75 38.5999 104.25 39.0999 103.65 39.3999C103.05 39.7999 102.35 39.9999 101.55 40.1999C100.85 40.3999 100.05 40.3999 99.3501 40.3999C98.5501 40.3999 97.7501 40.2999 96.9501 40.1999C96.2501 39.9999 95.5501 39.6999 94.9501 39.2999C94.3501 38.8999 93.9501 38.3999 93.6501 37.7999C93.3501 37.0999 93.1501 36.3999 93.1501 35.5999L96.6501 35.6999Z" fill="black"/>
<path d="M107.25 26H109.65V21.7H112.85V26H115.65V28.4H112.75V36C112.75 36.3 112.75 36.5999 112.85 36.7999C112.85 36.9999 112.95 37.2 113.05 37.4C113.15 37.6 113.35 37.6999 113.45 37.7999C113.75 37.9 113.95 37.9 114.25 37.9H114.95C115.15 37.9 115.35 37.9 115.65 37.7999V40.2L114.65 40.2999C114.35 40.2999 113.95 40.4 113.65 40.4C112.95 40.4 112.35 40.3 111.65 40.2C111.15 40.1 110.75 39.7999 110.45 39.5C110.15 39.2 109.95 38.7999 109.85 38.2999C109.75 37.7999 109.65 37.3 109.65 36.7V28.2999H107.25V26Z" fill="black"/>
<path d="M118.15 36.5H121.95V40.2H118.15V36.5Z" fill="black"/>
<path d="M125.95 20.5H135.55C137.05 20.4 138.55 20.9 139.75 21.7C140.85 22.6 141.45 24 141.35 25.4C141.35 26.3 141.15 27.2 140.65 27.9C140.15 28.6 139.45 29.2 138.55 29.5C139.65 29.7 140.65 30.3 141.35 31.2C142.05 32.2 142.35 33.4 142.25 34.6C142.25 35.3 142.15 36.1 141.85 36.8C141.55 37.5 141.15 38.1 140.55 38.5C139.85 39 139.15 39.5 138.35 39.7C137.25 40 136.15 40.2 135.05 40.1H125.95V20.5ZM129.45 28.8H135.05C135.85 28.8 136.55 28.6 137.15 28.1C137.75 27.6 138.05 26.9 137.95 26.1C138.05 25.3 137.75 24.6 137.15 24C136.55 23.6 135.75 23.3 135.05 23.4H129.45V28.8ZM129.45 37.4H135.55C136.45 37.5 137.35 37.2 137.95 36.6C138.55 36 138.85 35.2 138.85 34.3C138.95 33.5 138.55 32.6 137.95 32C137.25 31.4 136.35 31.2 135.55 31.2H129.45V37.4Z" fill="black"/>
<path d="M156.95 37.0999C156.95 37.3999 156.95 37.7 157.05 37.9C157.15 38.1 157.45 38.1999 157.65 38.0999H157.95C158.05 38.0999 158.25 38.1 158.35 38V40.2L157.95 40.2999L157.45 40.4L156.85 40.5H156.35C155.75 40.5 155.25 40.3999 154.75 40.0999C154.25 39.7999 153.95 39.3 153.95 38.7C153.25 39.3 152.55 39.8 151.65 40C150.75 40.3 149.95 40.4 149.05 40.4C148.45 40.4 147.75 40.2999 147.15 40.0999C146.55 39.8999 146.05 39.6999 145.55 39.2999C145.05 38.9999 144.75 38.5 144.45 38C144.15 37.4 144.05 36.8 144.05 36.2C144.05 35.5 144.15 34.7 144.55 34C144.85 33.5 145.25 33 145.85 32.7C146.35 32.4 146.95 32.1 147.65 32C148.25 31.9 148.95 31.8 149.65 31.7C150.15 31.6 150.75 31.5 151.25 31.5C151.75 31.5 152.15 31.3999 152.65 31.2999C153.05 31.1999 153.35 30.9999 153.55 30.7999C153.75 30.4999 153.95 30.1999 153.85 29.7999C153.85 29.3999 153.75 29.0999 153.55 28.7999C153.35 28.4999 153.15 28.3 152.85 28.2C152.55 28.1 152.15 28 151.85 27.9C151.55 27.9 151.15 27.7999 150.85 27.7999C150.05 27.7999 149.35 27.9999 148.65 28.2999C148.05 28.6999 147.65 29.3 147.65 30H144.75C144.75 29.2 145.05 28.4 145.45 27.7C145.85 27.1 146.35 26.6 146.95 26.2C147.55 25.8 148.25 25.6 148.95 25.4C149.75 25.3 150.45 25.2 151.25 25.2C151.95 25.2 152.65 25.3 153.35 25.4C153.95 25.5 154.65 25.7999 155.15 26.0999C155.65 26.3999 156.15 26.9 156.45 27.4C156.75 28 156.95 28.5999 156.95 29.2999V37.0999ZM153.85 33.0999C153.35 33.3999 152.75 33.6 152.05 33.7C151.35 33.8 150.65 33.9 149.95 34C149.65 34 149.25 34.1 148.95 34.2C148.65 34.3 148.35 34.3999 148.15 34.5999C147.95 34.7999 147.75 34.9999 147.55 35.2999C147.45 35.5999 147.35 35.9999 147.35 36.2999C147.35 36.5999 147.45 36.9 147.65 37.2C147.85 37.4 148.05 37.5999 148.35 37.7999C148.65 37.9 148.95 37.9999 149.25 38.0999C149.55 38.0999 149.85 38.2 150.15 38.2C150.55 38.2 150.95 38.0999 151.25 38.0999C151.65 37.9999 152.05 37.8999 152.35 37.5999C152.75 37.3999 153.05 37.0999 153.25 36.7999C153.45 36.4 153.65 36 153.65 35.5L153.85 33.0999Z" fill="black"/>
<path d="M170.05 30.7C169.95 29.9 169.55 29.2 168.95 28.7C168.35 28.2 167.55 28 166.75 28C166.35 28 165.85 28.1 165.45 28.2C164.95 28.3 164.55 28.6 164.15 29C163.75 29.4 163.35 29.9999 163.15 30.5999C162.65 31.9999 162.65 33.5 162.95 35C163.05 35.6 163.25 36.0999 163.65 36.5999C163.95 37.0999 164.35 37.4 164.85 37.7C165.35 38 165.95 38.1999 166.65 38.0999C167.45 38.0999 168.35 37.8 168.95 37.2C169.55 36.6 169.95 35.6999 170.05 34.7999H173.15C172.95 36.4 172.25 37.8999 171.05 39.0999C169.85 40.0999 168.25 40.6999 166.65 40.5999C165.65 40.5999 164.55 40.4 163.65 40C162.85 39.6 162.05 39.1 161.45 38.5C160.85 37.8 160.35 37 160.15 36.2C159.85 35.3 159.65 34.2999 159.75 33.2999C159.75 32.2999 159.85 31.2999 160.15 30.2999C160.45 29.3999 160.85 28.6 161.45 27.9C162.05 27.2 162.75 26.5999 163.65 26.2999C164.65 25.8999 165.65 25.7 166.75 25.7C167.55 25.7 168.35 25.8 169.15 26C169.85 26.2 170.55 26.5 171.15 27C171.75 27.4 172.25 27.9999 172.55 28.5999C172.95 29.2999 173.15 30.1 173.25 30.9L170.05 30.7Z" fill="black"/>
<path d="M175.85 20.5H178.95V31.7L184.65 25.9H188.55L183.05 31.1L189.05 40.1H185.25L180.85 33.2L178.95 35V40.1H175.85V20.5Z" fill="black"/>
<path d="M193.05 33.8999C193.05 34.3999 193.15 34.9999 193.25 35.4999C193.35 35.9999 193.65 36.4999 193.95 36.8999C194.25 37.2999 194.65 37.5999 195.15 37.7999C195.65 37.9999 196.25 38.1999 196.85 38.0999C197.65 38.0999 198.45 37.8999 199.05 37.4999C199.65 37.0999 200.15 36.3999 200.35 35.6999H203.35C203.25 36.3999 202.95 37.0999 202.45 37.7999C202.05 38.3999 201.55 38.8999 200.95 39.2999C200.35 39.6999 199.75 39.9999 199.05 40.1999C198.35 40.3999 197.55 40.4999 196.85 40.4999C195.85 40.4999 194.85 40.2999 193.85 39.8999C193.05 39.5999 192.25 38.9999 191.65 38.3999C191.05 37.6999 190.65 36.8999 190.35 36.0999C190.05 35.0999 189.85 34.0999 189.85 33.0999C189.85 32.0999 190.05 31.0999 190.35 30.1999C190.65 29.2999 191.15 28.4999 191.75 27.7999C192.35 27.0999 193.05 26.5999 193.95 26.1999C194.85 25.7999 195.85 25.5999 196.85 25.5999C197.85 25.5999 198.95 25.7999 199.85 26.2999C200.75 26.7999 201.45 27.3999 202.05 28.1999C202.65 28.9999 203.15 29.8999 203.35 30.7999C203.65 31.7999 203.65 32.8999 203.55 33.8999H193.05ZM200.45 31.7999C200.45 31.2999 200.35 30.7999 200.15 30.3999C199.95 29.9999 199.75 29.5999 199.45 29.1999C199.15 28.8999 198.75 28.5999 198.35 28.3999C197.85 28.1999 197.45 28.0999 196.95 28.0999C196.45 28.0999 195.95 28.1999 195.45 28.3999C195.05 28.5999 194.65 28.8999 194.25 29.1999C193.95 29.5999 193.65 29.9999 193.55 30.3999C193.35 30.8999 193.25 31.3999 193.25 31.8999H200.45V31.7999Z" fill="black"/>
<path d="M205.95 26H208.95V28.1H209.05C209.55 27.3 210.15 26.7 210.95 26.2C211.75 25.7 212.65 25.5 213.55 25.5C214.85 25.4 216.25 25.9 217.25 26.7C218.25 27.7 218.75 29 218.65 30.4V40.2H215.55V31.2C215.55 30.3 215.35 29.5 214.85 28.7C214.35 28.2 213.55 27.9 212.75 27.9C212.25 27.9 211.75 28 211.35 28.2C210.95 28.4 210.55 28.7 210.25 29C209.95 29.4 209.75 29.8 209.55 30.2C209.35 30.7 209.25 31.2 209.35 31.7V40.1H206.25L205.95 26Z" fill="black"/>
<path d="M235.25 40.1999H232.25V38.2999H232.15C231.75 39.0999 231.15 39.6999 230.35 40.0999C229.55 40.4999 228.65 40.5999 227.75 40.5999C226.75 40.5999 225.75 40.3999 224.85 39.9999C224.05 39.5999 223.35 39.0999 222.75 38.3999C222.15 37.6999 221.75 36.8999 221.55 35.9999C221.25 34.9999 221.15 33.9999 221.15 32.9999C221.15 31.8999 221.35 30.6999 221.65 29.6999C221.95 28.7999 222.45 28.0999 223.05 27.3999C223.65 26.7999 224.25 26.3999 225.05 26.0999C225.75 25.7999 226.55 25.6999 227.35 25.6999C227.85 25.6999 228.25 25.6999 228.75 25.7999C229.25 25.8999 229.65 25.9999 230.05 26.1999C230.45 26.3999 230.85 26.5999 231.25 26.8999C231.65 27.1999 231.95 27.4999 232.15 27.8999V20.5999H235.35L235.25 40.1999ZM224.25 33.1999C224.25 33.7999 224.35 34.3999 224.45 34.9999C224.55 35.5999 224.85 36.0999 225.15 36.5999C225.45 37.0999 225.85 37.3999 226.35 37.6999C227.45 38.2999 228.85 38.2999 229.95 37.6999C230.45 37.3999 230.85 36.9999 231.15 36.4999C231.45 35.9999 231.75 35.4999 231.85 34.8999C232.05 34.2999 232.05 33.6999 232.05 33.0999C232.15 31.7999 231.75 30.4999 230.95 29.3999C229.75 27.9999 227.75 27.6999 226.15 28.4999C225.65 28.7999 225.25 29.1999 224.95 29.6999C224.65 30.1999 224.35 30.7999 224.25 31.3999C224.35 31.9999 224.25 32.5999 224.25 33.1999Z" fill="black"/>
<path d="M50.3501 12.9999L30.8501 1.7999C28.7501 0.599902 26.0501 0.599902 23.9501 1.7999L4.3501 12.9999C2.2501 14.1999 0.850098 16.4999 0.850098 18.9999V41.4999C0.850098 43.9999 2.1501 46.2999 4.3501 47.4999L23.8501 58.7999C24.9501 59.3999 26.1501 59.6999 27.3501 59.6999C28.5501 59.6999 29.7501 59.3999 30.8501 58.7999L50.3501 47.4999C52.4501 46.2999 53.8501 43.9999 53.8501 41.4999V19.0999C53.8501 16.5999 52.5501 14.2999 50.3501 12.9999ZM25.9501 55.2999L6.4501 44.0999C5.5501 43.5999 5.0501 42.5999 5.0501 41.5999V19.0999C5.0501 18.0999 5.5501 17.0999 6.4501 16.5999L25.9501 5.2999C26.3501 4.9999 26.8501 4.8999 27.3501 4.8999C27.8501 4.8999 28.3501 4.9999 28.7501 5.2999L48.2501 16.5999C49.1501 17.0999 49.6501 18.0999 49.6501 19.0999V41.5999C49.6501 42.5999 49.1501 43.5999 48.2501 44.0999L28.8501 55.2999C27.9501 55.7999 26.8501 55.7999 25.9501 55.2999Z" fill="black"/>
<path d="M14.0501 20.7H16.5501C16.7501 20.7 16.9501 20.9 16.9501 21.1V37.0999C16.9501 37.2999 17.1501 37.5 17.3501 37.5H25.9501C26.1501 37.5 26.3501 37.7 26.3501 37.9V40.0999C26.3501 40.2999 26.1501 40.5 25.9501 40.5H14.0501C13.8501 40.5 13.6501 40.2999 13.6501 40.0999V21.1C13.6501 20.9 13.8501 20.7 14.0501 20.7Z" fill="black"/>
<path d="M28.4502 21.0998C28.4502 20.8998 28.6502 20.6998 28.8502 20.6998H37.4502C38.8502 20.5998 40.3502 20.9998 41.4502 21.8998C42.4502 22.7998 43.0502 24.1998 42.9502 25.5998C42.9502 26.4998 42.7502 27.3998 42.2502 28.1998C41.7502 28.8998 41.1502 29.4998 40.3502 29.7998V29.8998C41.4502 30.0998 42.3502 30.6998 42.9502 31.5998C43.5502 32.5998 43.8502 33.7998 43.8502 34.9998C43.8502 35.6998 43.7502 36.4998 43.4502 37.1998C43.1502 37.8998 42.7502 38.4998 42.2502 38.8998C41.6502 39.3998 40.9502 39.7998 40.1502 40.0998C39.1502 40.3998 38.1502 40.5998 37.0502 40.4998H28.9502C28.7502 40.4998 28.5502 40.2998 28.5502 40.0998V21.0998H28.4502ZM31.6502 28.5998C31.6502 28.7998 31.8502 28.9998 32.0502 28.9998H36.9502C37.6502 28.9998 38.3502 28.7998 38.8502 28.2998C39.3502 27.7998 39.6502 26.9998 39.6502 26.2998C39.7502 25.4998 39.4502 24.7998 38.9502 24.1998C38.3502 23.7998 37.6502 23.4998 36.9502 23.5998H32.0502C31.8502 23.5998 31.6502 23.7998 31.6502 23.9998V28.5998ZM31.6502 37.1998C31.6502 37.3998 31.8502 37.5998 32.0502 37.5998H37.3502C38.1502 37.6998 39.0502 37.3998 39.6502 36.7998C40.2502 36.1998 40.5502 35.2998 40.4502 34.4998C40.5502 33.6998 40.2502 32.8998 39.6502 32.2998C39.0502 31.6998 38.1502 31.4998 37.3502 31.4998H32.0502C31.8502 31.4998 31.6502 31.6998 31.6502 31.8998V37.1998Z" fill="black"/>
</g>
<defs>
<clipPath id="clip0">
<rect width="235" height="60" fill="white" transform="translate(0.75)"/>
</clipPath>
</defs>
</svg>
