<svg xmlns="http://www.w3.org/2000/svg" viewBox="0 0 272 64" id="logo" width="100%" height="100%"><path d="M58.191 0L42.788 17.246 27.403.022 0 30.701l11.744 13.148L27.22 26.524l15.415 17.258 15.483-17.335 6.213 6.974-15.474 17.326L60.695 64 106 13.278 94.162.025 76.188 20.147 58.192 0zM153.626 23l-5.953 8.923L141.438 23H137l8.73 12.44V43h3.783v-7.562L158 23h-4.374zM174.113 31.99v3.513h6.437v3.89c-1.409.425-3.114.668-4.724.668-4.947 0-7.9-2.498-7.9-6.682 0-3.996 3.175-6.681 7.9-6.681 2.253 0 4.601.497 6.789 1.439l.348.15 1.164-3.33-.314-.131c-2.686-1.128-5.461-1.7-8.247-1.7-6.913 0-11.557 4.191-11.557 10.43 0 6.31 4.363 10.077 11.672 10.077 2.883 0 6.195-.694 8.437-1.767l.204-.098V31.99h-10.209zM242.373 39.826v-4.91h9.526v-3.514h-9.526v-4.616h10.508v-3.513H238.6V43.34h14.454v-3.514h-10.681zM264.362 31.479c-2.941-.423-4.726-.801-4.726-2.473 0-1.467 1.48-2.308 4.06-2.308 2.712 0 5.052 1.04 5.932 1.488l.321.164 1.487-3.098-.286-.17c-2.075-1.225-4.938-1.956-7.656-1.956-4.868 0-7.775 2.264-7.775 6.056 0 1.827.614 3.171 1.878 4.109 1.551 1.149 3.81 1.471 5.803 1.755 2.827.404 4.559.73 4.559 2.295 0 2.455-3.405 2.72-4.869 2.72-2.191 0-4.217-.565-6.022-1.68l-.314-.193-1.73 3.116.279.185c1.465.978 4 2.144 7.758 2.144 5.355 0 8.815-2.527 8.815-6.438 0-4.634-4.166-5.234-7.514-5.716M116.152 43.34l3.833-11.09 6.473 11.02 6.473-11.02 3.833 11.09h3.942l-6.891-20.196-7.357 12.568-7.357-12.568-6.891 20.195h3.942zM196.525 31.265l2.923 5.328h-5.838l2.915-5.328zM189.9 43.34l2.029-3.686 9.194-.006 2.026 3.691h4.27l-10.895-20.195-10.896 20.196h4.272zM212.262 43.34l3.834-11.413 6.472 11.342 6.474-11.342 3.833 11.412h3.942l-6.891-20.195-7.358 12.568-7.356-12.568-6.891 20.195h3.941zM161.184 40.205l-3.371 3.428-3.371-3.428 3.371-3.427 3.371 3.427zM90.249 41.57a.988.988 0 01-.352.047h-.335v-.774h.316c.206 0 .355.026.448.08.094.052.14.157.14.312 0 .165-.072.276-.217.334m.549 1.015a2.654 2.654 0 01-.006-.158v-.157a.595.595 0 00-.114-.33.509.509 0 00-.36-.21.78.78 0 00.303-.103c.137-.09.205-.231.205-.422 0-.27-.108-.45-.325-.542-.123-.05-.314-.076-.574-.076h-.736v2.136h.37v-.84h.293c.196 0 .333.023.412.069.132.079.198.242.198.488v.17l.008.068.005.024a.437.437 0 00.005.021h.347l-.013-.026a.344.344 0 01-.018-.112m-.835.76c-.91 0-1.65-.752-1.65-1.677s.74-1.678 1.65-1.678c.91 0 1.65.753 1.65 1.678 0 .925-.74 1.678-1.65 1.678m0-3.626c-1.058 0-1.916.872-1.916 1.948s.858 1.948 1.916 1.948c1.058 0 1.916-.872 1.916-1.948s-.858-1.948-1.916-1.948"></path></svg>