<svg width="260" height="47" viewBox="0 0 260 47" fill="none" xmlns="http://www.w3.org/2000/svg">
<g clip-path="url(#clip0)">
<path d="M40.7176 38.6524C37.77 41.8085 34.195 43.995 30.1446 45.3829C26.8358 46.5047 23.3368 46.5808 19.9899 46.0674C14.133 45.1928 9.24582 42.3599 5.4616 37.7397C3.04655 34.7927 1.54428 31.4655 0.764613 27.7579C-0.585533 21.2935 0.78363 15.3805 4.41571 10.0189C7.11601 6.04516 10.8622 3.23124 15.388 1.53909C17.0995 0.892649 18.83 0.379299 20.6935 0.32226C21.4732 0.303248 22.2529 -0.0389855 23.0896 -0.000959639C25.4286 0.0941051 27.7295 0.417325 29.9924 1.08278C33.9668 2.24257 37.3327 4.33399 40.1851 7.30001C40.3943 7.52817 40.5844 7.79435 40.7746 8.0225C40.109 8.93513 39.4054 9.82873 38.7779 10.7604C36.515 14.1637 35.2599 17.9473 35.0317 22.016C34.9366 23.6511 34.9937 25.2863 35.2979 26.9594C35.6783 29.0698 36.2107 31.1042 37.0855 33.0435C37.9792 35.0209 39.1012 36.8842 40.6605 38.4432C40.6985 38.5193 40.6985 38.5763 40.7176 38.6524ZM21.9486 36.5039C21.8725 37.2834 21.8535 38.082 22.1958 38.8235C22.5571 39.584 23.1276 39.9452 23.9453 39.7741C24.7059 39.622 25.0482 39.0136 25.0863 38.3291C25.1433 37.0363 25.2384 35.7244 25.0673 34.4505C24.6299 31.2563 24.6299 28.0431 24.3637 24.849C24.2686 23.7272 24.2496 22.5864 24.0594 21.4647C23.8122 20.1338 24.0404 19.012 25.3715 18.2134C26.3984 17.605 27.2161 16.6734 27.1781 15.3805C27.121 12.9659 26.7407 10.6083 25.4286 8.51684C24.0974 6.38739 21.8345 6.46344 20.6555 8.68796C19.7047 10.4942 19.4004 12.4525 19.3624 14.5059C19.3244 16.0079 19.9139 17.1107 21.0358 17.8902C22.2339 18.7268 22.6142 19.6965 22.5191 21.1605C22.2529 26.2939 22.1388 31.3894 21.9486 36.5039Z" fill="#63C7F0"/>
<path d="M75.6681 8.15645C75.9723 8.15645 76.1815 8.02336 76.3907 7.7952C79.2621 4.73412 82.7801 2.75677 86.7735 1.57797C89.5119 0.779428 92.3643 0.437195 95.1787 0.817454C100.294 1.48291 104.877 3.46025 108.718 7.03469C112.103 10.1908 114.309 13.9934 115.469 18.4044C116.039 20.5529 116.096 22.7964 116.039 25.0399C115.887 29.8122 114.252 34.0331 111.437 37.7976C109.251 40.7256 106.474 43.0452 103.127 44.6233C101.188 45.5549 99.153 46.1443 97.0422 46.6196C94.7413 47.133 92.4403 47.0189 90.1964 46.8478C88.1427 46.6957 86.0889 46.1253 84.1303 45.2507C81.3349 44.0149 78.8438 42.3607 76.6189 40.2883C76.2386 39.9461 75.9533 39.5468 75.7061 39.1095C76.1245 38.1779 76.9232 37.5315 77.4556 36.6949C79.148 34.0141 80.5362 31.2192 81.1067 28.025C81.411 26.3138 81.6011 24.6026 81.5251 22.8915C81.449 20.9522 81.2969 18.9938 80.7074 17.0735C79.9277 14.5828 78.9008 12.2632 77.3986 10.1528C76.9232 9.50637 76.6569 8.59375 75.7061 8.34658C75.6871 8.28954 75.6681 8.2325 75.6681 8.15645ZM97.7268 16.5221C97.8029 14.5828 97.4606 12.8526 96.9091 11.1795C96.2816 9.2592 95.3118 7.60507 93.1439 7.0537C92.041 6.76851 92.003 6.74949 92.022 7.89027C92.1171 11.2936 92.2312 14.6969 92.3453 18.1002C92.5354 23.5569 91.7748 28.9946 92.022 34.4514C92.098 36.0484 92.2502 37.6455 92.7446 39.1856C92.9348 39.775 93.2961 40.1362 93.9806 40.1362C95.1216 40.1552 95.7301 39.6419 95.7682 38.311C95.8823 34.7936 95.9964 31.2382 95.2928 27.7588C94.8364 25.5153 95.0075 23.4999 96.2626 21.5226C97.2514 19.9825 97.9931 18.3094 97.7268 16.5221Z" fill="#FEBB5F"/>
<path d="M75.668 8.1568C75.668 8.21384 75.668 8.28989 75.687 8.34693C75.3067 8.76521 74.8883 9.16448 74.565 9.62079C72.0549 13.0241 70.4766 16.7316 69.849 20.9525C69.4877 23.4242 69.6209 25.8008 70.0202 28.1584C70.5717 31.4096 71.8648 34.4327 73.8044 37.1706C74.2608 37.817 75.0595 38.2733 75.0785 39.2049C73.1959 41.4675 70.7618 42.9695 68.1566 44.3004C66.5402 45.137 64.8288 45.7644 63.0793 46.0876C60.4361 46.582 57.7738 46.8481 55.0545 46.2778C53.4001 45.9355 51.7457 45.6503 50.1673 45.0609C47.7333 44.1293 45.4704 42.8934 43.4927 41.1823C42.5419 40.3647 41.6291 39.5091 40.6783 38.6536C40.6593 38.5775 40.6403 38.5205 40.6403 38.4444C41.9714 37.855 42.5799 36.6002 43.2645 35.4784C44.9379 32.7786 45.8887 29.8125 46.4592 26.6564C47.1628 22.7968 46.6303 19.0892 45.4894 15.4578C44.6146 12.6629 42.9983 10.1912 41.0396 7.96667C42.9602 5.64709 45.4323 4.05 48.0566 2.64304C49.6159 1.80647 51.3083 1.27411 53.0007 0.798788C54.8453 0.266426 56.785 0.399517 58.7056 0.361491C62.8511 0.266426 66.5783 1.52128 70.0963 3.57468C72.2641 4.81052 73.9946 6.44563 75.668 8.1568ZM57.0512 11.7312C57.0512 11.7312 57.0322 11.7312 57.0512 11.7312C57.0322 10.4003 57.0322 9.08843 57.0322 7.75753C57.0322 7.51036 57.0702 7.20615 56.6899 7.22516C56.4046 7.22516 56.3476 7.47233 56.3286 7.70049C56.1955 8.99337 55.7771 10.2482 55.5679 11.5221C55.2827 13.3473 55.0545 15.1726 55.0735 17.0358C55.0925 18.785 55.7391 20.1159 57.1082 21.0476C57.8879 21.5989 58.04 22.2074 57.964 23.0439C57.8118 24.6981 57.7548 26.3712 57.5646 28.0253C57.3554 29.8316 57.4886 31.6568 57.1653 33.482C56.9181 34.946 57.0322 36.5051 57.0702 38.0071C57.0892 39.1099 58.002 39.8894 59.0669 39.8704C60.0938 39.8514 60.8924 39.0148 60.8544 37.893C60.7593 35.5735 60.7783 33.2539 60.5882 30.9343C60.36 28.2155 60.1698 25.4776 60.0557 22.7397C60.0177 21.8461 60.341 21.3138 61.0446 20.8765C62.2236 20.173 62.7941 19.0322 62.9082 17.7393C63.0603 16.1042 62.9652 14.4691 62.6419 12.853C62.2996 11.1989 61.9573 9.54474 61.6341 7.8716C61.577 7.58641 61.7292 7.14911 61.2347 7.16813C60.7593 7.18714 60.8924 7.62444 60.8924 7.90963C60.8734 9.71586 60.8734 11.5031 60.8734 13.3093C60.8734 14.1269 60.8734 14.9444 60.8544 15.762C60.8544 15.9901 60.8164 16.2183 60.5311 16.2373C60.2649 16.2563 60.1318 16.1042 60.0748 15.857C59.9607 15.4388 59.7515 15.0015 59.7705 14.5832C59.8846 12.3396 59.4472 10.1341 59.3521 7.92864C59.3331 7.66246 59.4853 7.24418 59.1049 7.20615C58.6866 7.16813 58.8007 7.58641 58.7817 7.85259C58.5915 10.4003 58.4013 12.929 58.2302 15.4768C58.2112 15.8951 58.1541 16.2373 57.6217 16.2563C57.0512 16.2753 57.0702 15.857 57.0702 15.4768C57.0512 14.26 57.0512 12.9861 57.0512 11.7312Z" fill="#FEAA61"/>
<path d="M193.492 24.4889C193.492 28.1394 193.473 31.8089 193.511 35.4594C193.511 36.1819 193.321 36.391 192.598 36.353C191.648 36.296 190.697 36.296 189.746 36.353C189.061 36.391 188.909 36.1248 188.909 35.4784C188.928 29.3182 188.909 23.177 188.947 17.0168C188.947 16.3324 188.719 16.2373 188.13 16.2373C184.992 16.2563 181.854 16.2753 178.736 16.2373C177.937 16.2183 177.709 16.5035 177.709 17.264C177.728 21.9031 177.728 26.5423 177.709 31.1815C177.709 32.2462 177.595 33.3109 177.119 34.2996C176.53 35.5164 175.56 36.2389 174.191 36.315C173.05 36.372 171.909 36.353 170.768 36.315C169.836 36.296 169.494 35.9157 169.494 34.9841C169.494 34.2616 169.494 33.5391 169.494 32.8166C169.494 32.3032 169.57 32.018 170.216 32.3032C172.004 33.0637 173.297 32.2082 173.297 30.2498C173.316 24.66 173.316 19.0892 173.278 13.4994C173.278 12.6629 173.468 12.4347 174.324 12.4537C180.409 12.4917 186.475 12.4917 192.56 12.4537C193.34 12.4537 193.511 12.6629 193.492 13.4044C193.473 17.1119 193.492 20.8004 193.492 24.4889Z" fill="#333333"/>
<path d="M75.0976 39.1856C75.0786 38.273 74.2609 37.7977 73.8235 37.1513C71.8839 34.4134 70.5908 31.4094 70.0393 28.1391C69.64 25.7815 69.5068 23.4049 69.8681 20.9332C70.4767 16.7123 72.055 12.9858 74.5651 9.6015C74.9074 9.14519 75.3258 8.74592 75.6871 8.32764C76.6379 8.5748 76.9041 9.48743 77.3795 10.1339C78.8818 12.2443 79.9087 14.5639 80.6884 17.0546C81.2779 18.9749 81.449 20.9142 81.5061 22.8725C81.5631 24.5647 81.392 26.2949 81.0877 28.006C80.5172 31.2002 79.129 33.9951 77.4366 36.6759C76.9041 37.5125 76.0864 38.1589 75.6871 39.0906C75.4779 39.1476 75.2878 39.1666 75.0976 39.1856Z" fill="#FE970C"/>
<path d="M41.0966 7.96631C43.0553 10.1908 44.6526 12.6625 45.5464 15.4574C46.6874 19.0699 47.2008 22.7964 46.5162 26.656C45.9457 29.8122 44.9949 32.7782 43.3215 35.478C42.6179 36.5998 42.0284 37.8547 40.6973 38.4441C39.138 36.885 38.016 35.0407 37.1223 33.0444C36.2475 31.1051 35.696 29.0707 35.3347 26.9602C35.0305 25.2871 34.9734 23.652 35.0685 22.0169C35.2967 17.9481 36.5328 14.1645 38.8147 10.7612C39.4422 9.82958 40.1458 8.93597 40.8114 8.02335C40.8875 8.00433 40.9825 7.98532 41.0966 7.96631Z" fill="#E4925A"/>
<path d="M161.032 34.6224C158.75 37.1321 154.091 36.9039 151.276 34.6604C147.036 31.2761 147.131 23.0245 151.676 19.9634C154.11 18.3283 156.658 17.929 159.415 18.9557C159.643 19.0318 159.891 19.1458 160.081 19.317C160.708 19.8303 161.412 20.6289 161.184 18.8987C161.146 18.6135 161.412 18.5564 161.659 18.5564C162.857 18.5564 164.055 18.5564 165.272 18.5564C165.691 18.5564 165.805 18.7466 165.805 19.1458C165.786 24.6596 165.786 30.1924 165.805 35.7061C165.805 36.2765 165.557 36.3906 165.063 36.3716C164.074 36.3526 163.104 36.3145 162.116 36.3716C161.355 36.4096 161.051 36.1814 161.222 35.4019C161.26 35.1547 161.298 34.8505 161.032 34.6224ZM152.779 27.7587C152.645 28.7854 153.064 29.9832 153.92 31.0289C155.08 32.4359 156.601 32.8922 158.312 32.4929C159.948 32.1127 160.86 30.9529 161.26 29.2988C161.583 27.9679 161.583 26.713 161.222 25.4011C160.499 22.6823 158.236 21.7506 155.821 22.5301C153.729 23.2336 152.779 24.9448 152.779 27.7587Z" fill="#333333"/>
<path d="M209.694 34.5275C208.344 36.0485 206.727 36.4098 204.902 36.4288C200.186 36.4668 196.82 32.1319 196.858 28.1201C196.877 25.9717 197.029 23.8993 198.303 22.074C200.585 18.8418 203.78 17.9102 207.298 18.6327C208.04 18.7848 208.781 19.165 209.314 19.7735C209.428 19.9066 209.542 20.1537 209.751 19.9826C209.846 19.9066 209.884 19.6974 209.846 19.5643C209.637 18.6707 210.055 18.4806 210.873 18.5376C211.824 18.5947 212.775 18.5756 213.725 18.5376C214.22 18.5186 214.467 18.6137 214.467 19.2031C214.448 24.6978 214.448 30.1735 214.467 35.6683C214.467 36.2387 214.258 36.3718 213.744 36.3527C212.755 36.3337 211.786 36.2957 210.797 36.3527C210.055 36.3908 209.694 36.2006 209.884 35.4021C209.922 35.1549 209.884 34.8697 209.694 34.5275ZM205.682 22.3592C205.415 22.4163 204.959 22.3212 204.483 22.4923C200.68 23.8042 200.566 29.5841 203.114 31.6185C205.548 33.5769 209.104 32.5502 209.827 29.6412C210.15 28.3293 210.245 27.0364 209.941 25.6485C209.523 23.8803 208.001 22.1121 205.682 22.3592Z" fill="#333333"/>
<path d="M126.745 27.4546C126.745 24.7738 126.764 22.093 126.726 19.4121C126.707 18.7277 126.917 18.5185 127.563 18.5375C128.552 18.5756 129.522 18.5756 130.511 18.5375C131.043 18.5185 131.214 18.6896 131.214 19.241C131.176 21.0092 131.233 22.7774 131.195 24.5456C131.176 25.154 131.347 25.3822 131.975 25.3822C133.896 25.3632 135.835 25.3632 137.756 25.3822C138.383 25.3822 138.554 25.135 138.554 24.5266C138.516 22.7964 138.574 21.0663 138.535 19.3171C138.516 18.7277 138.726 18.5375 139.277 18.5565C140.323 18.5756 141.369 18.5756 142.415 18.5565C142.947 18.5565 143.194 18.6516 143.194 19.2981C143.175 24.7167 143.175 30.1544 143.194 35.5731C143.194 36.2196 142.966 36.4097 142.358 36.3717C141.407 36.3337 140.456 36.3337 139.505 36.3717C138.783 36.4097 138.497 36.2006 138.516 35.421C138.574 33.7289 138.516 32.0177 138.554 30.3066C138.574 29.6031 138.326 29.3559 137.623 29.3749C135.797 29.4129 133.953 29.3939 132.108 29.3749C131.423 29.3749 131.157 29.5841 131.176 30.3066C131.214 32.0748 131.176 33.843 131.195 35.6112C131.214 36.1816 131.024 36.3907 130.454 36.3717C129.503 36.3337 128.552 36.3337 127.601 36.3717C126.936 36.3907 126.726 36.1816 126.726 35.4971C126.764 32.8163 126.745 30.1354 126.745 27.4546Z" fill="#333333"/>
<path d="M219.868 27.3594C219.868 24.7166 219.906 22.0548 219.849 19.412C219.83 18.7275 220.058 18.5184 220.704 18.5374C221.693 18.5754 222.663 18.5754 223.652 18.5374C224.203 18.5184 224.355 18.7085 224.336 19.2409C224.298 21.0281 224.355 22.8343 224.317 24.6406C224.317 25.1729 224.469 25.3631 225.002 25.3631C226.999 25.3441 228.995 25.3631 230.973 25.3631C231.505 25.3631 231.677 25.1159 231.658 24.6025C231.639 22.8343 231.677 21.0661 231.639 19.2979C231.639 18.7846 231.734 18.5374 232.304 18.5374C233.407 18.5564 234.51 18.5564 235.632 18.5374C236.183 18.5374 236.317 18.7466 236.298 19.2789C236.279 24.6976 236.279 30.1353 236.298 35.554C236.298 36.2004 236.05 36.3716 235.461 36.3525C234.472 36.3145 233.502 36.3145 232.513 36.3525C231.867 36.3716 231.62 36.1814 231.639 35.497C231.677 33.7668 231.639 32.0366 231.658 30.2874C231.677 29.5839 231.41 29.3368 230.726 29.3558C228.9 29.3938 227.056 29.3748 225.211 29.3558C224.527 29.3368 224.279 29.5839 224.298 30.3064C224.336 32.0746 224.298 33.8428 224.317 35.611C224.336 36.2004 224.146 36.3906 223.557 36.3716C222.606 36.3335 221.655 36.3335 220.704 36.3716C220.039 36.4096 219.83 36.1624 219.83 35.497C219.887 32.7781 219.868 30.0593 219.868 27.3594Z" fill="#333333"/>
<path d="M254.458 28.6524C253.811 29.6221 253.089 30.4396 252.119 30.991C250.522 31.9226 248.81 31.7325 247.175 31.2191C244.056 30.2305 242.059 27.4736 242.136 23.9562C242.174 22.3781 242.155 20.8 242.136 19.222C242.117 18.6706 242.307 18.4995 242.839 18.5185C243.923 18.5565 244.988 18.5565 246.072 18.5185C246.585 18.4995 246.718 18.7086 246.718 19.1839C246.699 20.8 246.756 22.3971 246.699 24.0132C246.566 27.5306 249.476 28.5003 252.043 27.0553C253.697 26.1237 254.743 24.6407 254.705 22.6063C254.686 21.4655 254.724 20.3437 254.686 19.203C254.667 18.7276 254.819 18.5185 255.333 18.5375C256.417 18.5755 257.482 18.5755 258.566 18.5375C259.098 18.5185 259.288 18.6706 259.269 19.222C259.25 24.7167 259.25 30.1924 259.269 35.6872C259.269 36.1815 259.136 36.3717 258.623 36.3526C257.577 36.3146 256.531 36.3146 255.485 36.3526C254.857 36.3717 254.667 36.1625 254.686 35.5351C254.743 33.4627 254.724 31.3712 254.743 29.2988C254.705 29.0897 254.762 28.8615 254.458 28.6524Z" fill="#333333"/>
</g>
<defs>
<clipPath id="clip0">
<rect width="259" height="47" fill="white" transform="translate(0.25)"/>
</clipPath>
</defs>
</svg>
