<svg width="190" height="52" viewBox="0 0 190 52" fill="none" xmlns="http://www.w3.org/2000/svg">
<g clip-path="url(#clip0)">
<path d="M0.25 18.8196C0.304506 18.6172 0.359012 18.426 0.399892 18.2236C0.754182 16.6042 1.53089 15.1422 2.87992 13.9277C4.48785 12.477 6.5182 11.7347 8.91647 11.746C10.0747 11.746 11.0558 12.1283 11.7099 12.9268C12.1732 13.4891 12.6638 14.0851 12.9227 14.7261C13.6585 16.6042 14.3126 18.516 14.9394 20.4278C15.2801 21.4399 15.1302 22.452 14.7214 23.4642C14.408 24.2176 14.1218 25.0049 13.9855 25.7921C13.5904 28.1087 14.3535 30.1667 16.2067 31.9211C16.6972 32.3821 17.2695 32.7982 17.8691 33.1581C18.2915 33.4168 18.823 33.5967 19.3408 33.7092C20.2129 33.9003 20.9896 33.5067 21.2349 32.787C21.3439 32.4496 21.3711 32.0897 21.3711 31.7299C21.3575 30.8864 21.6437 30.1105 22.0116 29.3345C22.0525 29.2445 22.107 29.1658 22.1615 29.0871C22.5158 28.6035 22.8837 28.5698 23.2516 29.0196C23.9193 29.8631 24.5597 30.729 24.8186 31.7411C24.9549 32.2809 24.8731 32.7645 24.4098 33.2031C24.2872 33.3268 24.2054 33.5405 24.2327 33.6979C24.2736 33.9341 24.5597 33.9791 24.8186 33.9903C26.1949 34.024 27.2714 34.5189 28.198 35.351C29.0156 36.082 29.9286 36.7343 31.1005 37.0717C31.1686 37.0942 31.2367 37.1054 31.2776 37.1504C31.5093 37.3078 31.9044 37.4653 31.9317 37.6452C31.9726 37.9938 31.5093 38.1063 31.1686 38.1738C28.7295 38.6911 26.3993 38.6911 24.3826 37.2066C24.1237 37.0154 23.8512 36.8467 23.6059 36.6556C22.2296 35.531 20.5672 34.935 18.6458 34.755C17.2287 34.6201 15.8115 34.4289 14.4216 34.204C12.5684 33.9003 10.9196 33.1918 9.35252 32.3596C9.28439 32.3259 9.22988 32.2584 9.1345 32.191C9.72044 31.6062 10.4018 31.0776 10.4699 30.2792C10.4835 30.2454 10.4972 30.2229 10.5108 30.1892C10.4972 30.2229 10.4972 30.2567 10.4835 30.2904C9.65231 31.37 8.42592 32.0448 7.10415 32.6408C6.10941 33.0794 5.29182 33.6867 4.7195 34.5189C4.54236 34.7775 4.29708 35.0137 4.03818 35.2049C3.64301 35.4972 3.20696 35.4748 2.93443 35.1036C2.70278 34.7775 2.512 34.3951 2.47112 34.0128C2.28035 32.5621 2.68915 31.1901 3.46586 29.8856C4.31071 28.4573 5.45534 27.209 7.03601 26.2756C7.10415 26.2307 7.17228 26.1857 7.24041 26.1294C7.25404 26.1182 7.25404 26.0957 7.28129 26.0282C5.90501 26.4218 4.89665 27.1753 3.90191 28.0075C2.96168 26.9729 2.2531 25.8933 1.65353 24.7574C1.02671 23.5541 0.549784 22.3058 0.386265 20.9901C0.372639 20.9001 0.304506 20.8214 0.263627 20.7314C0.25 20.0904 0.25 19.4606 0.25 18.8196Z" fill="#3476BC"/>
<path d="M70.2769 29.1096C70.5085 29.0983 70.6856 29.0646 70.8628 29.0646C72.7024 29.0646 74.542 29.0646 76.3815 29.0646C77.0356 29.0646 77.0492 29.0871 77.1583 29.6156C77.7987 32.8544 78.4391 36.1045 79.0796 39.3433C79.1068 39.4558 79.175 39.5682 79.2976 39.8044C79.6655 38.3087 79.9926 36.9367 80.3332 35.5647C80.8238 33.5742 81.3143 31.5724 81.7776 29.5819C81.9003 29.0421 82.0229 29.0646 82.5135 29.0646C83.7126 29.0646 84.9254 29.0646 86.1245 29.0646C86.7105 29.0646 86.7105 29.0758 86.8331 29.5482C87.6507 32.8657 88.4683 36.172 89.2859 39.4895C89.2995 39.557 89.3267 39.6132 89.3949 39.7707C89.4903 39.5795 89.5584 39.4895 89.572 39.3883C89.9944 37.2291 90.4032 35.0699 90.8257 32.9219C91.0573 31.7636 91.289 30.6053 91.507 29.4357C91.5479 29.1883 91.6705 29.0646 91.9839 29.0646C94.0688 29.0758 96.1536 29.0758 98.2385 29.0871C98.2521 29.0871 98.2794 29.1096 98.3611 29.1433C98.2794 29.4807 98.1976 29.8406 98.0886 30.2004C96.9985 34.0578 95.8947 37.9151 94.791 41.7612C94.2732 43.5943 93.7417 45.4386 93.2376 47.2717C93.1558 47.5416 93.0877 47.7777 92.6652 47.7665C90.6894 47.7552 88.7136 47.7552 86.7377 47.7552C86.6968 47.7552 86.6559 47.7327 86.5061 47.699C85.8111 44.4602 85.1161 41.1764 84.4212 37.8926C84.3667 37.8926 84.3258 37.8926 84.2713 37.8813C84.1759 38.2525 84.0805 38.6236 83.9988 38.9947C83.3992 41.7724 82.7996 44.5502 82.2273 47.3279C82.1592 47.654 81.9957 47.7665 81.6005 47.7665C79.7609 47.7552 77.9213 47.7552 76.0818 47.7665C75.6457 47.7665 75.5094 47.5865 75.4277 47.2717C74.0787 42.4922 72.7024 37.7127 71.3397 32.9219C70.9991 31.7411 70.6584 30.5603 70.3177 29.3795C70.3041 29.3232 70.3041 29.2558 70.2769 29.1096Z" fill="#5E9CD4"/>
<path d="M44.6589 12.2631C44.6181 12.9829 44.4818 13.6576 44.8088 14.3099C44.8497 14.2874 44.9042 14.2649 44.9042 14.2537C44.8088 13.264 45.1904 12.3756 45.6673 11.4984C45.899 11.0711 46.1034 10.6325 46.2941 10.1939C46.553 9.64286 46.5803 9.06932 46.553 8.48454C46.5394 8.16965 46.5122 7.84352 46.5667 7.52864C46.6484 7.02258 47.1117 6.76392 47.684 6.94385C48.052 7.05631 48.4062 7.26998 48.6788 7.4949C49.7961 8.42831 50.4093 9.58663 50.7636 10.8462C51.2542 12.5893 51.2678 14.3324 50.6137 16.053C50.6001 16.1092 50.5729 16.1542 50.5592 16.2104C50.5592 16.2217 50.5729 16.2442 50.6137 16.3004C51.3632 15.3333 51.6494 14.2762 51.8401 13.1516C52.0036 13.1741 52.1127 13.1853 52.2217 13.2078C54.947 14.0063 57.427 15.1533 59.471 16.8627C61.7875 18.797 62.973 21.1136 62.755 23.8576C62.6051 25.8144 61.5013 27.3888 59.689 28.6146C58.5853 29.3569 57.318 29.4918 55.969 29.0982C54.838 28.7721 53.8296 28.2773 52.903 27.6812C51.4858 26.7703 50.0959 25.8481 48.6924 24.9372C47.4933 24.1613 46.6757 23.1829 46.2805 21.9571C45.7627 20.3489 44.8633 18.9207 43.3508 17.7961C41.4431 16.3791 39.2083 15.6819 36.6329 15.7943C36.1287 15.8168 35.5973 15.9518 35.1476 16.1317C34.3982 16.4466 34.1529 17.0651 34.4799 17.7061C34.6434 18.0323 34.8887 18.3359 35.134 18.6171C35.7472 19.3143 36.0879 20.1015 36.3195 20.9225C36.3468 20.9899 36.3468 21.0687 36.3468 21.1474C36.3876 21.6872 36.1015 21.9009 35.4747 21.7209C34.3164 21.3835 33.199 20.9787 32.2724 20.2814C31.7819 19.9216 31.4957 19.483 31.5502 18.8982C31.6047 18.3472 31.2368 18.156 30.6781 18.4709C29.479 19.1231 28.2117 19.2243 26.8354 18.9882C25.7044 18.797 24.5462 18.707 23.4016 19.0219C23.1699 19.0894 22.911 19.0781 22.6657 19.0781C22.2433 19.0556 22.1207 18.887 22.2569 18.5496C22.2978 18.4484 22.3659 18.3359 22.4341 18.2459C23.7422 16.8515 25.2956 15.7719 27.5168 15.6144C28.4297 15.5469 29.37 15.6369 30.2966 15.7269C31.5775 15.8506 32.7902 15.7269 33.9485 15.277C35.134 14.8047 36.2923 14.2986 37.4505 13.7926C39.658 12.8029 42.029 12.3081 44.6589 12.2631Z" fill="#EB252B"/>
<path d="M49.8096 34.3052C51.2813 33.8554 52.7939 33.9903 54.3064 34.1478C55.2057 34.2377 56.0642 34.1365 56.9091 33.8779C57.2634 33.7654 57.6176 33.6305 57.9992 33.563C58.844 33.3943 59.3482 33.7992 59.1711 34.4852C59.1029 34.7663 58.953 35.0587 58.7759 35.3061C57.7267 36.7793 56.1187 37.7352 54.2928 38.4325C52.6712 39.0622 50.9406 39.3321 49.1556 39.3546C49.1283 39.3434 49.0874 39.3209 49.0738 39.3209C49.0874 39.3209 49.1283 39.3321 49.1692 39.3434C49.6052 39.4221 50.0413 39.557 50.4773 39.5683C51.4039 39.5795 52.3305 39.5233 53.3117 39.5008C53.3253 39.557 53.3662 39.6583 53.3662 39.7595C53.2435 42.3685 52.6167 44.8763 50.9543 47.148C49.3872 49.3072 47.1116 50.7129 44.141 51.2977C41.9744 51.7138 39.944 51.3202 38.0636 50.4093C36.4011 49.5996 35.9651 48.2951 36.2921 46.8219C36.4829 45.9672 36.7827 45.1125 37.1097 44.2803C37.5321 43.2344 38.0772 42.2223 38.486 41.1764C39.0992 39.647 40.1348 38.4212 41.8245 37.5553C43.446 36.7231 44.6316 35.5535 45.3946 34.114C46.3621 32.3147 46.4575 30.4591 45.7217 28.5923C45.5582 28.165 45.2584 27.7376 44.8905 27.389C44.1955 26.7143 43.2144 26.7255 42.4513 27.3553C42.1924 27.5689 41.988 27.8164 41.77 28.0525C41.1704 28.7048 40.421 29.2108 39.5761 29.6157C39.4398 29.6832 39.29 29.7394 39.1401 29.7731C38.6904 29.8856 38.3906 29.7506 38.4042 29.357C38.4315 28.2325 38.5269 27.1079 39.1809 26.0845C39.4262 25.6909 39.7805 25.3872 40.3528 25.3085C40.6254 25.2748 40.9524 25.1961 40.9388 24.9374C40.9251 24.7462 40.748 24.5213 40.5708 24.3864C39.5625 23.7116 39.0447 22.8344 38.9084 21.7773C38.8539 21.3162 38.7313 20.8552 38.5677 20.4053C38.4042 19.978 38.159 19.5731 37.9409 19.1683C37.8455 18.9996 37.7093 18.8422 37.6139 18.6735C37.4913 18.4598 37.2596 18.1899 37.5321 18.01C37.6957 17.8975 38.0636 17.875 38.2952 17.9312C40.4073 18.5273 42.206 19.4494 43.0236 21.2825C43.3098 21.9235 43.5006 22.6095 43.6641 23.2843C43.9775 24.5213 44.6724 25.5559 45.7626 26.4219C46.7028 27.1753 47.643 27.9401 48.5833 28.7048C50.1639 29.9868 51.2132 31.55 52.0171 33.2369C52.0444 33.3043 52.058 33.3718 52.0853 33.473C51.2813 33.7204 50.3956 33.7204 49.8096 34.3052C49.7279 34.3502 49.6325 34.3839 49.5371 34.4177L49.5235 34.4064C49.6325 34.3727 49.7143 34.339 49.8096 34.3052Z" fill="#85489C"/>
<path d="M28.1707 43.9542C29.1245 44.7864 29.5606 45.821 29.8059 46.9231C30.0511 48.0364 30.4872 49.0936 31.4819 49.937C31.8498 50.2519 32.1905 50.6455 31.918 51.0953C31.6318 51.5901 31.005 51.5114 30.4599 51.4777C29.5878 51.4327 28.7703 51.174 28.0208 50.8142C25.35 49.5659 23.4832 47.7553 22.5293 45.3262C22.4884 45.225 22.4475 45.1125 22.3658 45.0226C22.3249 45.6073 22.4339 46.1809 22.6928 46.7319C22.9517 47.2942 23.2379 47.834 23.524 48.4188C23.4695 48.4525 23.4014 48.52 23.3333 48.5313C20.1174 49.3185 16.8743 49.5546 13.6039 48.8799C10.8377 48.3064 8.67112 47.0018 7.1722 45.0113C5.94581 43.3807 5.71416 41.6151 6.28647 39.7707C6.62714 38.6574 7.48561 37.8702 8.86189 37.589C9.76124 37.3979 10.6878 37.2404 11.6008 37.2404C13.8901 37.2517 16.1793 37.3529 18.4686 37.4541C19.6541 37.5103 20.7033 37.9039 21.6436 38.4999C22.5974 39.1072 23.5649 39.692 24.7095 40.0519C27.83 41.0303 30.8006 40.7829 33.594 39.2647C34.0165 39.0285 34.4116 38.7249 34.7387 38.3987C35.6244 37.4766 35.3246 36.5544 34.0028 36.1046C33.7712 36.0259 33.5395 35.9471 33.2943 35.8909C32.3131 35.6547 31.4956 35.1824 30.7325 34.6539C30.7188 34.6426 30.7052 34.6314 30.678 34.6201C30.0103 34.0691 30.092 33.698 31.0186 33.5518C31.9861 33.3831 32.9808 33.2594 33.9756 33.2144C34.7932 33.1694 35.529 33.3831 35.9923 34.0466C36.2785 34.4627 36.6873 34.4177 36.9734 33.9904C37.0279 33.9116 37.0688 33.8217 37.1097 33.7317C37.5049 32.8658 38.2407 32.2585 39.2218 31.8424C39.726 31.6287 40.2302 31.4038 40.7207 31.1789C41.3612 30.8865 41.9199 30.5154 42.3832 30.0318C42.4377 29.9756 42.4922 29.9081 42.5603 29.8631C42.8192 29.6719 43.0509 29.3346 43.446 29.4695C43.8139 29.6045 43.8003 29.9868 43.7867 30.268C43.6913 31.3363 43.4597 32.3822 42.8328 33.3381C42.3968 34.0128 41.7972 34.5639 41.0205 34.98C40.5299 35.2386 40.0258 35.5085 39.508 35.7447C37.9545 36.442 36.8372 37.4541 36.0877 38.7586C35.529 39.737 34.9294 40.7041 34.3299 41.6713C33.4033 43.1445 32.0406 44.3028 30.5281 45.3712C30.4463 45.4274 30.3509 45.4836 30.2555 45.5399C30.2147 45.5624 30.1738 45.5624 30.092 45.5961C29.5333 44.9888 29.1245 44.2578 28.1707 43.9542L28.1434 43.9317L28.1707 43.9542Z" fill="#55B948"/>
<path d="M24.6141 8.4959C24.5051 8.33846 24.4234 8.16977 24.2735 8.03482C23.6194 7.42754 22.8018 6.97771 21.9433 6.60659C21.7389 6.51663 21.5482 6.4379 21.262 6.3142C21.589 5.97682 21.8752 5.65069 22.1886 5.34706C24.0691 3.55896 26.2084 2.05202 28.9201 1.18609C31.9316 0.218941 34.9158 0.252679 37.8046 1.47848C39.4262 2.17572 40.5572 3.30031 41.3066 4.66106C42.0288 5.95433 41.7972 7.15764 40.6526 8.25973C39.9576 8.93449 39.1537 9.50803 38.2679 10.0028C36.8371 10.8013 35.3927 11.5773 33.9756 12.3757C32.681 13.0955 31.2639 13.4666 29.6832 13.4328C28.7839 13.4103 27.8572 13.4103 26.9715 13.5565C23.3605 14.1301 20.9077 15.8844 19.6541 18.7296C19.4497 19.1907 19.4088 19.7193 19.436 20.2141C19.4769 21.0013 20.1446 21.4736 21.1121 21.4286C21.4937 21.4174 21.8752 21.3387 22.2295 21.2375C23.2651 20.9338 24.328 20.9563 25.3908 20.9901C25.4862 20.9901 25.568 21.0125 25.6634 21.0238C26.2766 21.1587 26.4265 21.4286 26.0177 21.8335C25.4862 22.362 24.8867 22.8569 24.2871 23.3404C24.0146 23.5541 23.6875 23.734 23.3469 23.8915C22.7882 24.1614 22.2022 24.2289 21.589 23.9927C21.3438 23.9027 21.0712 23.8465 20.9077 24.0377C20.7851 24.1839 20.7033 24.4313 20.7578 24.5887C21.1257 25.6796 20.9077 26.6917 20.2536 27.6701C19.6268 28.5923 19.1499 29.5594 19.1363 30.639C19.1363 30.6727 19.1363 30.7177 19.1226 30.7515C19.0272 30.9539 19.0545 31.2688 18.7138 31.2688C18.4822 31.2688 18.1824 31.1226 18.0461 30.9651C16.6562 29.312 15.934 27.5351 16.8334 25.5334C17.0378 25.0835 17.2558 24.6225 17.5147 24.1839C18.2778 22.8681 18.3595 21.4961 18.0461 20.0791C17.7736 18.8646 17.5011 17.65 17.3376 16.4355C17.1332 14.9173 17.4602 13.4216 17.9507 11.9484C17.9644 11.9034 18.0189 11.8584 18.087 11.7909C18.9319 12.1058 19.7903 12.3757 20.7714 12.1733C20.6352 12.1508 20.5125 12.1171 20.3763 12.0946C19.4497 11.9484 18.6866 11.566 17.9916 11.0712C17.4329 10.6888 16.9015 10.284 16.3428 9.90163C15.7024 9.47429 14.9802 9.17065 14.1626 9.02445C13.8355 8.96822 13.4949 8.8895 13.1951 8.77704C12.5683 8.54088 12.4184 8.03482 12.9089 7.64121C13.2496 7.36007 13.6993 7.13515 14.1489 6.98895C15.389 6.57285 16.6971 6.44915 18.0189 6.52787C20.0084 6.65158 21.9024 7.06767 23.6194 7.9561C23.9601 8.10229 24.2871 8.30472 24.6141 8.4959L24.655 8.51839L24.6141 8.4959Z" fill="#FDB415"/>
<path d="M118.092 47.7328C116.007 47.7328 113.95 47.7328 111.811 47.7328C111.811 45.3262 111.811 42.9421 111.811 40.5804C111.197 40.423 106.796 40.4005 106.033 40.5467C106.033 42.9083 106.033 45.2924 106.033 47.7103C105.747 47.7328 105.556 47.7665 105.352 47.7665C103.689 47.7665 102.04 47.7665 100.378 47.7665C99.642 47.7665 99.6284 47.7553 99.6284 47.1255C99.6284 44.494 99.6284 41.8512 99.6284 39.2197C99.6284 36.0821 99.6284 32.9332 99.6284 29.7956C99.6284 29.582 99.6557 29.357 99.6693 29.0984C101.781 29.0984 103.839 29.0984 105.965 29.0984C105.978 29.3008 106.006 29.5032 106.006 29.6944C106.006 31.55 106.006 33.3943 106.006 35.2499C106.006 35.8684 106.019 35.8796 106.769 35.8796C108.2 35.8796 109.63 35.8796 111.061 35.8796C111.265 35.8796 111.456 35.8572 111.742 35.8459C111.838 34.7101 111.77 33.5967 111.783 32.4834C111.797 31.3701 111.783 30.2455 111.783 29.0984C113.923 29.0984 115.98 29.0984 118.024 29.0984C118.188 29.5145 118.242 46.7544 118.092 47.7328Z" fill="#5E9CD4"/>
<path d="M140.344 47.7326C140.085 47.7551 139.881 47.7776 139.69 47.7776C137.823 47.7776 135.97 47.7776 134.103 47.7776C133.463 47.7776 133.449 47.7663 133.299 47.2265C133.163 46.7542 133.013 46.2819 132.918 45.8096C132.85 45.5172 132.7 45.3935 132.332 45.3935C130.656 45.4047 128.98 45.4047 127.29 45.3935C126.922 45.3935 126.772 45.5284 126.704 45.8096C126.581 46.3269 126.432 46.8329 126.309 47.339C126.241 47.6089 126.105 47.7663 125.723 47.7663C123.679 47.7551 121.635 47.7663 119.605 47.7551C119.523 47.7551 119.441 47.7214 119.305 47.6876C119.55 46.9904 119.782 46.3156 120.027 45.6296C121.935 40.2878 123.829 34.9461 125.737 29.6043C125.941 29.0532 125.941 29.0532 126.691 29.0532C128.775 29.0532 130.86 29.0532 132.945 29.0532C133.695 29.0532 133.708 29.0532 133.913 29.6605C135.193 33.2479 136.461 36.8241 137.742 40.4115C138.518 42.582 139.295 44.7525 140.058 46.9117C140.154 47.1703 140.235 47.429 140.344 47.7326ZM129.92 34.7436C129.865 34.7436 129.797 34.7436 129.743 34.7436C129.198 36.7229 128.653 38.7134 128.08 40.7939C129.266 40.8276 130.356 40.8389 131.542 40.7714C130.996 38.7247 130.451 36.7342 129.92 34.7436Z" fill="#5E9CD4"/>
<path d="M170.677 29.1096C170.677 30.6166 170.677 32.0786 170.677 33.5967C170.377 33.608 170.105 33.6305 169.846 33.6305C167.761 33.6305 165.676 33.6305 163.578 33.6305C162.814 33.6305 162.814 33.6417 162.814 34.249C162.814 34.8001 162.814 35.3623 162.814 35.9921C165.39 35.9921 167.87 35.9921 170.459 35.9921C170.473 37.5328 170.473 39.006 170.473 40.5242C170.146 40.5467 169.887 40.5692 169.628 40.5804C167.611 40.5804 165.594 40.5804 163.564 40.5804C162.842 40.5804 162.828 40.6029 162.828 41.1652C162.828 41.795 162.828 42.436 162.828 43.122C164.163 43.2457 165.458 43.167 166.739 43.1782C168.033 43.1895 169.314 43.1782 170.582 43.1782C170.772 43.6281 170.8 47.0693 170.622 47.7103C165.949 47.7103 161.275 47.7103 156.587 47.7103C156.424 47.3054 156.369 29.7844 156.546 29.0872C161.22 29.1096 165.894 29.1096 170.677 29.1096Z" fill="#5E9CD4"/>
<path d="M176.727 13.4441C176.727 17.0315 176.727 20.6302 176.727 24.3076C175.201 24.3188 173.77 24.3188 172.285 24.3076C172.285 18.0549 172.285 11.8696 172.285 5.65068C172.476 5.62819 172.653 5.6057 172.83 5.6057C173.961 5.6057 175.106 5.61694 176.237 5.59445C176.659 5.5832 176.904 5.70691 177.109 5.9993C178.689 8.29346 180.297 10.5764 181.892 12.8593C182.6 13.8827 183.322 14.906 184.031 15.9182C184.085 15.9969 184.154 16.0644 184.29 16.1206C184.399 12.6344 184.344 9.15939 184.372 5.63943C185.884 5.63943 187.315 5.63943 188.814 5.63943C188.814 11.8472 188.814 18.0211 188.814 24.2176C188.719 24.2401 188.637 24.2851 188.555 24.2851C187.356 24.2963 186.143 24.2851 184.944 24.2963C184.535 24.2963 184.413 24.0602 184.249 23.8465C183.527 22.8231 182.818 21.811 182.11 20.7876C180.488 18.471 178.867 16.1543 177.245 13.8489C177.136 13.6915 177.013 13.5453 176.904 13.3991C176.823 13.4216 176.768 13.4328 176.727 13.4441Z" fill="#5E9CD4"/>
<path d="M188.828 30.9652C187.901 32.2135 186.947 33.4842 185.98 34.7775C185.748 34.6426 185.585 34.5526 185.421 34.4626C184.181 33.7429 182.791 33.383 181.292 33.2931C180.87 33.2706 180.434 33.338 180.025 33.4393C179.616 33.5405 179.33 33.7879 179.289 34.1702C179.235 34.5638 179.398 34.89 179.821 35.0699C180.488 35.3398 181.17 35.5985 181.878 35.8009C183.309 36.2282 184.767 36.5881 186.075 37.2516C188.174 38.32 189.277 39.8382 189.264 41.8962C189.25 43.9991 188.364 45.731 186.211 46.9456C185.04 47.6091 183.718 47.9577 182.328 48.0589C180.107 48.2163 177.886 48.1489 175.746 47.5078C174.602 47.1705 173.566 46.6869 172.612 46.0684C172.435 45.9559 172.258 45.8322 172.04 45.6973C173.062 44.3253 174.016 43.032 175.01 41.6825C175.256 41.8512 175.433 41.9749 175.596 42.0873C177.095 43.0995 178.812 43.6168 180.734 43.6168C181.224 43.6168 181.769 43.4706 182.205 43.2682C182.982 42.9083 183.009 42.1773 182.273 41.7612C181.892 41.5363 181.442 41.3788 180.992 41.2439C179.848 40.8953 178.662 40.6141 177.531 40.243C175.964 39.7369 174.574 39.0172 173.661 37.7914C173.13 37.0717 172.844 36.2957 172.776 35.4635C172.707 34.3839 172.776 33.338 173.362 32.3372C174.275 30.7627 175.76 29.6831 177.763 29.2108C181.551 28.3224 185.121 28.7497 188.405 30.6053C188.501 30.6615 188.596 30.7178 188.678 30.774C188.719 30.819 188.746 30.8752 188.828 30.9652Z" fill="#5E9CD4"/>
<path d="M156.723 24.6563C154.461 24.7238 152.499 24.1502 150.837 22.9357C149.638 22.0697 148.793 20.9901 148.234 19.7643C147.348 17.8075 147.062 15.7945 147.294 13.7141C147.485 11.9372 148.002 10.2503 149.161 8.74338C150.823 6.59542 153.194 5.42585 156.328 5.35837C158.522 5.30214 160.512 5.72949 162.229 6.87657C163.796 7.92243 164.79 9.28318 165.403 10.8464C165.853 11.9709 166.071 13.1293 166.126 14.3101C166.207 15.8733 166.058 17.4027 165.513 18.8984C164.831 20.7765 163.659 22.3846 161.643 23.5092C160.171 24.3302 158.508 24.7238 156.723 24.6563ZM151.791 15.2322C151.9 15.8508 152.009 16.7055 152.186 17.5489C152.377 18.4261 152.785 19.2358 153.412 19.9555C154.979 21.7661 157.786 21.9235 159.626 20.2929C160.348 19.6519 160.784 18.8647 161.07 18.0325C161.67 16.2894 161.697 14.535 161.302 12.7694C161.084 11.791 160.675 10.8576 159.953 10.0367C158.386 8.27105 155.592 8.12486 153.766 9.69928C153.221 10.1716 152.853 10.7227 152.581 11.3187C152.009 12.4995 151.9 13.7478 151.791 15.2322Z" fill="#5E9CD4"/>
<path d="M83.985 5.76318C84.0259 6.42669 84.0259 7.07895 84.094 7.71996C84.1758 8.40596 83.9033 8.99075 83.5081 9.57553C81.5868 12.4207 79.6927 15.2659 77.7986 18.1224C77.2399 18.9546 76.6812 19.798 76.1362 20.6302C76.0408 20.7764 75.959 20.9226 75.8364 21.1588C76.5995 21.2375 77.2808 21.1925 77.9757 21.2038C78.6571 21.215 79.3384 21.2038 80.0197 21.2038C80.7283 21.2038 81.4232 21.2038 82.1318 21.2038C82.8131 21.2038 83.4808 21.2038 84.2167 21.2038C84.3257 22.2946 84.2576 23.3292 84.2712 24.3976C83.9578 24.4201 83.7261 24.4426 83.5081 24.4426C79.3793 24.4426 75.2504 24.4538 71.1216 24.4538C71.0126 24.4538 70.8899 24.4538 70.7809 24.4538C70.5084 24.4538 70.3585 24.3414 70.3585 24.1164C70.3585 23.2393 70.3449 22.3621 70.3721 21.4849C70.3721 21.305 70.4948 21.125 70.6038 20.9676C73.0974 17.2115 75.5911 13.4666 78.0847 9.71048C78.2074 9.53055 78.3028 9.35061 78.4663 9.06947C78.1392 9.03573 77.894 8.99075 77.6487 8.99075C75.2232 8.9795 72.7977 8.99075 70.3176 8.99075C70.3176 7.94488 70.3176 6.89902 70.3176 5.79692C74.8553 5.76318 79.3793 5.76318 83.985 5.76318Z" fill="#5E9CD4"/>
<path d="M147.812 43.1895C150.183 43.1895 152.431 43.1895 154.707 43.1895C154.748 43.3807 154.802 43.5156 154.802 43.6506C154.816 44.8426 154.816 46.0459 154.802 47.238C154.802 47.7216 154.761 47.7665 154.189 47.7665C150.128 47.7665 146.068 47.7665 142.007 47.7665C141.857 47.7665 141.707 47.7328 141.489 47.7103C141.489 41.5026 141.489 35.3174 141.489 29.0872C143.588 29.0872 145.645 29.0872 147.784 29.0872C147.812 33.7767 147.812 38.4325 147.812 43.1895Z" fill="#5E9CD4"/>
<path d="M106.292 21.17C108.867 21.17 111.347 21.17 113.882 21.17C113.882 22.2721 113.882 23.2843 113.882 24.3076C113.405 24.4313 102.803 24.4763 101.904 24.3526C101.877 24.2402 101.836 24.1165 101.822 24.004C101.809 23.9478 101.822 23.8915 101.822 23.8353C101.795 17.965 101.768 12.1059 101.74 6.23553C101.74 6.08933 101.754 5.94313 101.768 5.75195C103.226 5.75195 104.67 5.75195 106.183 5.75195C106.224 6.20179 106.292 6.61789 106.292 7.04523C106.305 11.4761 106.305 15.907 106.305 20.3266C106.292 20.574 106.292 20.8102 106.292 21.17Z" fill="#5E9CD4"/>
<path d="M131.324 21.17C131.324 22.2946 131.324 23.3067 131.324 24.3751C127.317 24.3751 123.338 24.3751 119.305 24.3751C119.305 18.1674 119.305 11.9934 119.305 5.81942C119.782 5.67323 122.78 5.63949 123.72 5.77444C123.72 5.98811 123.72 6.22427 123.72 6.46044C123.72 11.0937 123.734 15.727 123.734 20.3603C123.734 21.1588 123.734 21.1588 124.715 21.1588C126.636 21.1588 128.571 21.1588 130.492 21.1588C130.751 21.17 130.996 21.17 131.324 21.17Z" fill="#5E9CD4"/>
<path d="M94.8182 24.3864C93.3329 24.3864 91.9157 24.3864 90.4304 24.3864C90.3759 23.8353 90.2941 23.3068 90.2941 22.767C90.2805 17.2565 90.2805 11.746 90.2805 6.23553C90.2805 6.08933 90.3078 5.94313 90.3214 5.75195C91.7658 5.75195 93.183 5.75195 94.6546 5.75195C94.6819 5.85317 94.7228 5.97687 94.7636 6.10057C94.7773 6.1568 94.7636 6.21303 94.7636 6.26926C94.7909 12.1396 94.8318 17.9987 94.859 23.869C94.859 24.0152 94.8454 24.1614 94.8182 24.3864Z" fill="#5E9CD4"/>
<path d="M141.121 5.72949C141.121 11.9597 141.121 18.1337 141.121 24.3526C139.663 24.3526 138.246 24.3526 136.829 24.3526C136.665 23.959 136.611 6.34801 136.788 5.72949C138.205 5.72949 139.622 5.72949 141.121 5.72949Z" fill="#5E9CD4"/>
</g>
<defs>
<clipPath id="clip0">
<rect width="189" height="51" fill="white" transform="translate(0.25 0.5)"/>
</clipPath>
</defs>
</svg>
