<svg width="241" height="132" viewBox="0 0 241 132" fill="none" xmlns="http://www.w3.org/2000/svg">
<path d="M115.5 130C154.506 130 186.5 101.542 186.5 66C186.5 30.4579 154.506 2 115.5 2C76.4944 2 44.5 30.4579 44.5 66C44.5 101.542 76.4944 130 115.5 130Z" stroke="#80BC70" stroke-width="4"/>
<mask id="path-2-outside-1" maskUnits="userSpaceOnUse" x="44.5" y="0" width="75" height="72" fill="black">
<rect fill="white" x="44.5" width="75" height="72"/>
<path d="M115.5 4C100.918 4 86.7103 8.15123 74.9169 15.8579C63.1236 23.5645 54.3507 34.4303 49.8573 46.8957L115.5 66L115.5 4Z"/>
</mask>
<path d="M115.5 4C100.918 4 86.7103 8.15123 74.9169 15.8579C63.1236 23.5645 54.3507 34.4303 49.8573 46.8957L115.5 66L115.5 4Z" stroke="#F7F7F7" stroke-width="8" mask="url(#path-2-outside-1)"/>
<ellipse cx="115.5" cy="66" rx="69" ry="62" fill="white"/>
<path d="M85.4301 84.75C87.6967 84.75 89.6967 84.3083 91.4301 83.425C93.1634 82.525 94.5217 81.2583 95.5051 79.625C96.4884 77.9917 96.9801 76.0833 96.9801 73.9C96.9801 71.95 96.5551 70.1833 95.7051 68.6C94.8551 67 93.5884 65.7167 91.9051 64.75C93.3051 63.9167 94.3467 62.8167 95.0301 61.45C95.7301 60.0667 96.0801 58.5583 96.0801 56.925C96.0801 54.925 95.6217 53.2 94.7051 51.75C93.7884 50.3 92.5301 49.1917 90.9301 48.425C89.3301 47.6417 87.4967 47.25 85.4301 47.25C83.3634 47.25 81.5301 47.6417 79.9301 48.425C78.3301 49.1917 77.0717 50.3 76.1551 51.75C75.2551 53.2 74.8051 54.925 74.8051 56.925C74.8051 58.5417 75.1551 60.0417 75.8551 61.425C76.5717 62.8083 77.6217 63.9083 79.0051 64.725C77.2884 65.7083 76.0134 66.9917 75.1801 68.575C74.3634 70.1583 73.9551 71.9333 73.9551 73.9C73.9551 76.0833 74.4384 77.9917 75.4051 79.625C76.3884 81.2583 77.7384 82.525 79.4551 83.425C81.1884 84.3083 83.1801 84.75 85.4301 84.75ZM85.4301 63.025C83.4301 63.025 81.8051 62.5167 80.5551 61.5C79.3217 60.4667 78.7051 58.9417 78.7051 56.925C78.7051 54.9083 79.3217 53.4 80.5551 52.4C81.8051 51.3833 83.4301 50.875 85.4301 50.875C87.4301 50.875 89.0551 51.3833 90.3051 52.4C91.5551 53.4 92.1801 54.9083 92.1801 56.925C92.1801 58.9417 91.5551 60.4667 90.3051 61.5C89.0551 62.5167 87.4301 63.025 85.4301 63.025ZM85.4301 81.225C83.1634 81.225 81.3301 80.6 79.9301 79.35C78.5301 78.0833 77.8301 76.2667 77.8301 73.9C77.8301 71.5167 78.5217 69.7 79.9051 68.45C81.2884 67.2 83.1301 66.575 85.4301 66.575C87.7301 66.575 89.5801 67.2 90.9801 68.45C92.3801 69.7 93.0801 71.5167 93.0801 73.9C93.0801 76.2667 92.3717 78.0833 90.9551 79.35C89.5551 80.6 87.7134 81.225 85.4301 81.225ZM112.459 84.75C114.692 84.75 116.692 84.2333 118.459 83.2C120.226 82.1667 121.626 80.7667 122.659 79C123.692 77.2167 124.209 75.2167 124.209 73V59C124.209 56.7667 123.692 54.7667 122.659 53C121.626 51.2333 120.226 49.8333 118.459 48.8C116.692 47.7667 114.692 47.25 112.459 47.25C110.242 47.25 108.242 47.7667 106.459 48.8C104.692 49.8333 103.292 51.2333 102.259 53C101.226 54.7667 100.709 56.7667 100.709 59V73C100.709 75.2167 101.226 77.2167 102.259 79C103.292 80.7667 104.692 82.1667 106.459 83.2C108.242 84.2333 110.242 84.75 112.459 84.75ZM112.459 81.2C110.992 81.2 109.651 80.8417 108.434 80.125C107.217 79.3917 106.242 78.4167 105.509 77.2C104.792 75.9833 104.434 74.6417 104.434 73.175V58.825C104.434 57.3417 104.792 55.9917 105.509 54.775C106.242 53.5583 107.217 52.5917 108.434 51.875C109.651 51.1417 110.992 50.775 112.459 50.775C113.942 50.775 115.284 51.1417 116.484 51.875C117.701 52.5917 118.667 53.5583 119.384 54.775C120.117 55.9917 120.484 57.3417 120.484 58.825V73.175C120.484 74.6417 120.117 75.9833 119.384 77.2C118.667 78.4167 117.701 79.3917 116.484 80.125C115.284 80.8417 113.942 81.2 112.459 81.2ZM136.977 65.25C138.627 65.25 140.127 64.85 141.477 64.05C142.843 63.2333 143.935 62.15 144.752 60.8C145.568 59.4333 145.977 57.9167 145.977 56.25C145.977 54.5833 145.568 53.075 144.752 51.725C143.935 50.3583 142.843 49.275 141.477 48.475C140.127 47.6583 138.627 47.25 136.977 47.25C135.377 47.25 133.893 47.6583 132.527 48.475C131.16 49.2917 130.06 50.3833 129.227 51.75C128.393 53.1167 127.977 54.6167 127.977 56.25C127.977 57.9167 128.385 59.4333 129.202 60.8C130.018 62.15 131.102 63.2333 132.452 64.05C133.818 64.85 135.327 65.25 136.977 65.25ZM131.977 84L165.552 50.475L163.052 48L129.477 81.5L131.977 84ZM136.977 61.925C135.96 61.925 135.018 61.6667 134.152 61.15C133.285 60.6333 132.593 59.9417 132.077 59.075C131.56 58.2083 131.302 57.2667 131.302 56.25C131.302 55.2167 131.56 54.275 132.077 53.425C132.593 52.5583 133.285 51.8667 134.152 51.35C135.018 50.8333 135.96 50.575 136.977 50.575C138.01 50.575 138.952 50.8333 139.802 51.35C140.668 51.8667 141.36 52.5583 141.877 53.425C142.393 54.275 142.652 55.2167 142.652 56.25C142.652 57.2667 142.393 58.2083 141.877 59.075C141.36 59.9417 140.668 60.6333 139.802 61.15C138.952 61.6667 138.01 61.925 136.977 61.925ZM158.052 84.75C159.702 84.75 161.202 84.35 162.552 83.55C163.918 82.7333 165.01 81.65 165.827 80.3C166.643 78.9333 167.052 77.4167 167.052 75.75C167.052 74.0833 166.643 72.575 165.827 71.225C165.01 69.8583 163.918 68.775 162.552 67.975C161.202 67.1583 159.702 66.75 158.052 66.75C156.452 66.75 154.968 67.1583 153.602 67.975C152.235 68.7917 151.135 69.8833 150.302 71.25C149.468 72.6167 149.052 74.1167 149.052 75.75C149.052 77.4167 149.452 78.9333 150.252 80.3C151.068 81.65 152.16 82.7333 153.527 83.55C154.893 84.35 156.402 84.75 158.052 84.75ZM158.052 81.425C157.035 81.425 156.093 81.1667 155.227 80.65C154.36 80.1333 153.668 79.4417 153.152 78.575C152.635 77.7083 152.377 76.7667 152.377 75.75C152.377 74.7167 152.635 73.775 153.152 72.925C153.668 72.0583 154.36 71.3667 155.227 70.85C156.093 70.3333 157.035 70.075 158.052 70.075C159.085 70.075 160.027 70.3333 160.877 70.85C161.743 71.3667 162.435 72.0583 162.952 72.925C163.468 73.775 163.727 74.7167 163.727 75.75C163.727 76.7667 163.468 77.7083 162.952 78.575C162.435 79.4417 161.743 80.1333 160.877 80.65C160.027 81.1667 159.085 81.425 158.052 81.425Z" fill="#59574E"/>
</svg>
