<svg width="240" height="132" viewBox="0 0 240 132" fill="none" xmlns="http://www.w3.org/2000/svg">
<path d="M115 130C154.006 130 186 101.542 186 66C186 30.4579 154.006 2 115 2C75.9944 2 44 30.4579 44 66C44 101.542 75.9944 130 115 130Z" stroke="#72B8F3" stroke-width="4"/>
<mask id="path-2-outside-1" maskUnits="userSpaceOnUse" x="42" y="0" width="77" height="108" fill="black">
<rect fill="white" x="42" width="77" height="108"/>
<path d="M115 4C102.286 4 89.8202 7.15619 78.9768 13.1202C68.1335 19.0843 59.3347 27.6243 53.5517 37.7978C47.7686 47.9712 45.2261 59.3826 46.2047 70.7724C47.1833 82.1622 51.645 93.0877 59.0974 102.343L115 66L115 4Z"/>
</mask>
<path d="M115 4C102.286 4 89.8202 7.15619 78.9768 13.1202C68.1335 19.0843 59.3347 27.6243 53.5517 37.7978C47.7686 47.9712 45.2261 59.3826 46.2047 70.7724C47.1833 82.1622 51.645 93.0877 59.0974 102.343L115 66L115 4Z" stroke="#F7F7F7" stroke-width="8" mask="url(#path-2-outside-1)"/>
<ellipse cx="115" cy="66" rx="69" ry="62" fill="white"/>
<path d="M85.9592 84.75C88.1925 84.75 90.2258 84.2083 92.0592 83.125C93.9092 82.0417 95.3842 80.5917 96.4842 78.775C97.6008 76.9583 98.1592 74.9417 98.1592 72.725C98.1592 70.4917 97.6342 68.475 96.5842 66.675C95.5342 64.875 94.1175 63.45 92.3342 62.4C90.5508 61.3333 88.5425 60.8 86.3092 60.8C84.5592 60.8 82.9175 61.1833 81.3842 61.95C79.8675 62.7167 78.5758 63.75 77.5092 65.05V59.525C77.5092 57.975 77.8842 56.5333 78.6342 55.2C79.3842 53.8667 80.4175 52.8 81.7342 52C83.0508 51.1833 84.5508 50.775 86.2342 50.775C87.7175 50.775 89.0925 51.1417 90.3592 51.875C91.6425 52.5917 92.6675 53.5417 93.4342 54.725L96.2592 52.4C95.1425 50.7833 93.7008 49.525 91.9342 48.625C90.1842 47.725 88.2842 47.275 86.2342 47.275C83.8675 47.275 81.7425 47.825 79.8592 48.925C77.9758 50.0083 76.4925 51.5 75.4092 53.4C74.3258 55.2833 73.7842 57.4333 73.7842 59.85V72.325C73.7842 74.6583 74.3258 76.7667 75.4092 78.65C76.5092 80.5333 77.9758 82.025 79.8092 83.125C81.6425 84.2083 83.6925 84.75 85.9592 84.75ZM85.9592 81.175C84.3925 81.175 82.9675 80.7917 81.6842 80.025C80.4175 79.2583 79.4008 78.2417 78.6342 76.975C77.8842 75.6917 77.5092 74.275 77.5092 72.725C77.5092 71.1583 77.8842 69.7333 78.6342 68.45C79.4008 67.1667 80.4258 66.1417 81.7092 65.375C82.9925 64.6083 84.4175 64.225 85.9842 64.225C87.5508 64.225 88.9758 64.6083 90.2592 65.375C91.5425 66.1417 92.5592 67.1667 93.3092 68.45C94.0758 69.7333 94.4592 71.1583 94.4592 72.725C94.4592 74.2917 94.0758 75.7167 93.3092 77C92.5425 78.2667 91.5175 79.2833 90.2342 80.05C88.9508 80.8 87.5258 81.175 85.9592 81.175ZM112.665 84.75C114.898 84.75 116.94 84.2083 118.79 83.125C120.64 82.025 122.123 80.5583 123.24 78.725C124.357 76.8917 124.915 74.875 124.915 72.675C124.915 70.4583 124.39 68.45 123.34 66.65C122.29 64.85 120.873 63.425 119.09 62.375C117.307 61.3083 115.307 60.775 113.09 60.775C111.74 60.775 110.432 61.0167 109.165 61.5C107.898 61.9667 106.773 62.6333 105.79 63.5L106.515 51.525H122.39V48H103.165L102.065 66.725L105.415 68.125C106.148 66.9917 107.132 66.0583 108.365 65.325C109.598 64.5917 111.065 64.225 112.765 64.225C114.282 64.225 115.682 64.6 116.965 65.35C118.248 66.1 119.282 67.1167 120.065 68.4C120.848 69.6667 121.24 71.0917 121.24 72.675C121.24 74.2083 120.865 75.6167 120.115 76.9C119.365 78.1833 118.348 79.2167 117.065 80C115.798 80.7667 114.365 81.15 112.765 81.15C110.915 81.15 109.207 80.5833 107.64 79.45C106.073 78.3167 105.048 76.775 104.565 74.825L101.04 75.775C101.523 77.525 102.323 79.075 103.44 80.425C104.557 81.775 105.907 82.8333 107.49 83.6C109.073 84.3667 110.798 84.75 112.665 84.75ZM136.647 65.25C138.297 65.25 139.797 64.85 141.147 64.05C142.514 63.2333 143.606 62.15 144.422 60.8C145.239 59.4333 145.647 57.9167 145.647 56.25C145.647 54.5833 145.239 53.075 144.422 51.725C143.606 50.3583 142.514 49.275 141.147 48.475C139.797 47.6583 138.297 47.25 136.647 47.25C135.047 47.25 133.564 47.6583 132.197 48.475C130.831 49.2917 129.731 50.3833 128.897 51.75C128.064 53.1167 127.647 54.6167 127.647 56.25C127.647 57.9167 128.056 59.4333 128.872 60.8C129.689 62.15 130.772 63.2333 132.122 64.05C133.489 64.85 134.997 65.25 136.647 65.25ZM131.647 84L165.222 50.475L162.722 48L129.147 81.5L131.647 84ZM136.647 61.925C135.631 61.925 134.689 61.6667 133.822 61.15C132.956 60.6333 132.264 59.9417 131.747 59.075C131.231 58.2083 130.972 57.2667 130.972 56.25C130.972 55.2167 131.231 54.275 131.747 53.425C132.264 52.5583 132.956 51.8667 133.822 51.35C134.689 50.8333 135.631 50.575 136.647 50.575C137.681 50.575 138.622 50.8333 139.472 51.35C140.339 51.8667 141.031 52.5583 141.547 53.425C142.064 54.275 142.322 55.2167 142.322 56.25C142.322 57.2667 142.064 58.2083 141.547 59.075C141.031 59.9417 140.339 60.6333 139.472 61.15C138.622 61.6667 137.681 61.925 136.647 61.925ZM157.722 84.75C159.372 84.75 160.872 84.35 162.222 83.55C163.589 82.7333 164.681 81.65 165.497 80.3C166.314 78.9333 166.722 77.4167 166.722 75.75C166.722 74.0833 166.314 72.575 165.497 71.225C164.681 69.8583 163.589 68.775 162.222 67.975C160.872 67.1583 159.372 66.75 157.722 66.75C156.122 66.75 154.639 67.1583 153.272 67.975C151.906 68.7917 150.806 69.8833 149.972 71.25C149.139 72.6167 148.722 74.1167 148.722 75.75C148.722 77.4167 149.122 78.9333 149.922 80.3C150.739 81.65 151.831 82.7333 153.197 83.55C154.564 84.35 156.072 84.75 157.722 84.75ZM157.722 81.425C156.706 81.425 155.764 81.1667 154.897 80.65C154.031 80.1333 153.339 79.4417 152.822 78.575C152.306 77.7083 152.047 76.7667 152.047 75.75C152.047 74.7167 152.306 73.775 152.822 72.925C153.339 72.0583 154.031 71.3667 154.897 70.85C155.764 70.3333 156.706 70.075 157.722 70.075C158.756 70.075 159.697 70.3333 160.547 70.85C161.414 71.3667 162.106 72.0583 162.622 72.925C163.139 73.775 163.397 74.7167 163.397 75.75C163.397 76.7667 163.139 77.7083 162.622 78.575C162.106 79.4417 161.414 80.1333 160.547 80.65C159.697 81.1667 158.756 81.425 157.722 81.425Z" fill="#59574E"/>
</svg>
