<svg width="60" height="60" viewBox="0 0 60 60" fill="none" xmlns="http://www.w3.org/2000/svg">
<g clip-path="url(#clip0)">
<path d="M45.7258 49.3546C53.7984 47.7835 58.7903 43.7266 58.7903 29.9998C58.7903 18.3868 42.5806 0.725488 27.5806 0.725586C8.42686 0.725711 21.5322 14.5159 13.0645 19.5965C5.71216 24.0079 -2.28882e-05 24.911 -2.28882e-05 37.0161C-2.28882e-05 50.3705 5.85675 54.2877 13.0645 51.7739C20.2722 49.2602 19.4415 59.032 29.2742 59.032C40.3633 59.032 37.6531 50.9257 45.7258 49.3546Z" fill="#F1F8FE"/>
<g clip-path="url(#clip1)">
<g clip-path="url(#clip2)">
<path d="M42.0652 30.6106C42.7726 30.9019 43.3021 31.094 43.8329 31.3212C45.6019 32.067 47.4353 32.6695 48.7777 34.1353C50.482 35.9754 51.4982 38.052 51.7335 40.6854C52.0743 44.3013 49.0285 49.6258 45.5389 51.3733C42.8702 52.7035 40.043 53.511 37.1399 54.1452C35.2045 54.568 33.2563 54.639 31.263 54.4298C30.0402 54.3334 28.8535 54.271 27.6333 54.245C26.9362 54.2352 26.243 54.3309 25.5124 54.3575C25.3873 54.7495 25.2945 55.07 25.1669 55.3916C24.9142 56.1054 24.6615 56.8191 24.338 57.5002C23.8855 58.4678 23.2128 59.1264 22.0223 58.9584C21.637 58.902 21.2259 59.0931 20.8458 59.1774C19.6346 59.3977 18.453 59.4759 17.2251 59.2389C15.9624 59.0031 14.7036 58.8728 13.4731 58.5654C11.9978 58.2316 11.556 57.5784 11.64 56.0606C11.6891 55.4952 11.8413 54.8908 11.8903 54.3254C11.9458 53.9359 11.9652 53.5125 11.9834 53.0539C11.5981 52.9974 11.2451 52.8694 10.932 52.8808C9.53653 52.826 8.14493 52.8767 6.78172 52.7502C5.76768 52.6463 4.74724 52.3664 3.7268 52.0865C3.05938 51.9347 2.65875 51.4562 2.49395 50.7576C2.03308 48.6256 1.78094 46.486 2.12023 44.3248C2.26086 43.4038 2.72613 42.788 3.58946 42.5804C4.38322 42.3754 5.18211 42.311 5.97843 42.1763C6.42942 42.1247 6.88168 42.1082 7.26309 42.0591C7.69229 41.4094 7.49655 40.8176 7.47604 40.2548C7.38632 37.7922 7.2966 35.3296 7.20815 32.9022C7.14663 31.2136 7.11861 29.4885 7.05709 27.7999C7.00838 26.4631 6.95839 25.091 6.90969 23.7542C6.76338 20.6949 6.86189 17.6618 7.13563 14.6576C7.16273 14.4452 7.11897 14.2002 7.10615 13.8484C6.44514 13.8725 5.82021 13.9305 5.19271 13.9182C4.42605 13.9109 3.69418 13.9023 2.95975 13.8234C2.05008 13.7156 1.47166 13.1378 1.30045 12.2634C1.1254 11.2835 1.05472 10.2997 0.984045 9.31593C0.95841 8.61234 1.03714 7.90494 1.0463 7.20008C1.07871 6.17733 1.64706 5.52255 2.57998 5.31243C3.47811 5.10357 4.41231 4.92863 5.31813 4.93085C6.81666 4.94671 8.32031 5.10328 9.82269 5.22467C10.0327 5.25225 10.275 5.20819 10.5881 5.19679C10.5417 4.88144 10.5676 4.63391 10.4916 4.46055C10.3409 4.149 10.1219 3.87517 10.0047 3.52717C9.61834 2.48446 10.0411 1.65885 11.0733 1.3042C11.3826 1.18726 11.7627 1.10295 12.0771 1.12672C14.2688 1.04687 16.4555 0.826294 18.6588 1.06306C19.5336 1.17209 20.4034 1.1404 21.2435 1.25069C23.0641 1.5014 23.5755 2.15207 23.5055 4.05684C23.5094 4.16238 23.548 4.26665 23.5918 4.51164C23.9397 4.49897 24.3249 4.55538 24.7063 4.50626C26.1985 4.34622 27.6893 4.15099 29.1814 3.99095C30.5692 3.83471 31.9556 3.64329 33.3124 3.59385C36.3765 3.55267 39.291 4.18624 41.8973 5.92305C42.4693 6.32492 43.0426 6.76198 43.4793 7.27446C45.2635 9.3935 46.5709 11.8117 47.0896 14.5757C47.5569 16.8836 47.7111 19.2029 47.3782 21.54C46.9653 24.5493 45.5887 26.9244 43.4339 28.9756C43.1748 29.5134 42.7045 29.9885 42.0652 30.6106ZM7.70603 50.3916C8.09128 50.448 8.47653 50.5044 8.8605 50.5257C10.3642 50.6822 11.8678 50.8388 13.338 51.0318C14.0376 51.112 14.6418 51.4423 15.2783 51.7009C16.4456 52.1868 16.7908 53.0548 16.9014 54.1781C16.9554 54.7045 16.9398 55.2335 16.9938 55.7599C17.0427 56.1456 17.263 56.4546 17.6135 56.5123C18.6301 56.6866 19.5873 57.1449 20.6697 57.2111C20.7251 56.8216 20.7845 56.5377 20.809 56.2549C21.182 53.1062 21.9023 52.7982 24.6057 52.4178C27.0668 52.0816 29.5691 51.92 32.0417 51.9003C34.584 51.8782 36.9627 51.1926 39.2976 50.2621C40.6365 49.7202 41.7216 48.9057 42.549 47.7131C43.9384 45.6897 44.8678 43.4719 44.7073 40.9766C44.5236 37.8482 43.3477 35.2138 40.5339 33.5198C39.4298 32.8555 38.4854 32.749 37.2857 33.2859C35.2638 34.205 33.1391 34.2119 30.9938 33.656C30.3612 33.5029 29.7943 33.2418 29.5612 32.581C29.81 31.7617 30.4969 31.4901 31.1128 31.1858C32.9285 30.3447 34.7506 29.6795 36.7645 29.5004C37.3199 29.4449 37.91 29.3882 38.3456 28.9144C39.82 27.3107 41.1166 25.6078 41.7355 23.4717C42.7502 19.7712 42.3399 16.1578 41.0263 12.6126C40.4455 11.0133 39.5554 9.53102 38.329 8.378C36.9582 7.08934 35.3607 6.26689 33.4794 6.26498C31.5622 6.22915 29.65 6.33405 27.7803 6.64875C25.5988 7.01005 23.4032 6.98436 21.2076 6.95868C20.1961 6.92508 19.1345 6.47059 18.9479 5.17401C18.8952 4.68276 18.5989 4.20039 18.4057 3.67903C17.0103 3.62419 15.6949 2.89714 14.1859 3.55097C14.3146 4.21558 14.4073 4.84628 14.5347 5.47571C14.7123 6.52603 14.5164 6.88543 13.5886 7.23627C13.1762 7.3922 12.6879 7.37477 12.2356 7.39125C10.3879 7.35289 8.57501 7.31326 6.62165 7.24353C6.43324 8.76513 6.52058 10.2062 6.75093 11.7478C7.59229 11.8933 8.3628 12.0061 9.13715 12.2245C9.55975 12.35 10.088 12.5069 10.3444 12.8498C10.8235 13.5721 11.304 14.3296 11.5435 15.1663C12.0688 17.155 12.2476 19.1917 12.1479 21.2384C12.0419 23.1093 11.9011 24.9814 11.9691 26.8459C12.097 31.315 11.7006 35.7328 11.0246 40.1255C10.8569 41.2588 10.6544 42.3935 10.4867 43.5268C9.71468 44.3299 8.5397 43.633 7.65823 44.2992C7.60019 44.6183 7.43778 44.9413 7.45059 45.2931C7.43613 46.8083 7.42167 48.3236 7.44199 49.8376C7.48319 50.0122 7.62748 50.1479 7.70603 50.3916Z" fill="black"/>
<path d="M53.7869 35.8552C55.2624 35.2378 56.6642 35.4686 57.9152 36.3389C59.0953 37.1765 59.5576 38.3926 59.3679 39.879C59.0931 41.897 58.464 43.7516 56.9123 45.1468C55.8324 46.102 54.6649 46.5673 53.249 45.9496C53.0712 45.8504 52.8908 45.6808 52.6744 45.4773C54.038 43.7016 54.0332 41.6586 53.9576 39.583C53.8805 38.4233 53.8382 37.2624 53.7869 35.8552Z" fill="black"/>
<path d="M52.4098 21.0041C52.5118 19.9788 52.6525 19.0578 52.6887 18.1406C52.725 17.2234 52.6221 16.3113 52.59 15.4318C53.0243 14.9228 53.5114 14.905 54.0345 14.9212C54.9429 14.9938 55.2676 15.299 55.3357 16.2124C55.4166 17.4776 55.464 18.7792 54.8801 19.963C54.2962 21.1467 54.0913 21.2599 52.4098 21.0041Z" fill="black"/>
<path d="M23.5544 24.5218C22.7363 24.0584 21.7428 24.5173 20.672 24.7677C20.5548 24.4197 20.3719 24.1798 20.3268 23.8996C20.1637 21.3341 19.757 18.7773 20.2561 16.2229C20.3155 15.9389 20.3748 15.6549 20.3993 15.3722C20.5348 14.3105 21.205 13.5815 22.6004 13.6364C23.5423 13.6725 24.4082 13.5353 25.345 13.4307C28.3279 13.0754 30.9357 13.8963 32.9402 16.3243C34.2155 17.8631 33.9872 19.2452 32.8788 20.3776C32.0721 21.182 31.1944 21.9537 30.0927 22.3109C28.6817 22.785 27.2346 23.2252 25.8236 23.6994C25.1007 23.9371 24.4139 24.2087 23.5544 24.5218ZM24.7378 21.6253C25.8447 21.4089 26.8009 20.8809 27.757 20.3529C28.1668 20.1266 28.5032 19.7973 28.8047 19.4693C29.5432 18.7026 29.6567 17.9939 29.032 17.1008C28.5554 16.4489 28.0092 15.7995 27.365 15.3298C26.543 14.7609 25.5922 14.4785 24.6115 15.2892C24.6499 16.3446 24.6536 17.4012 24.7255 18.4202C24.8696 19.5069 24.3154 20.5487 24.7378 21.6253Z" fill="black"/>
<path d="M19.5774 41.5752C19.7155 40.5838 19.8162 39.5233 19.9878 38.4955C20.1606 37.5029 20.8372 36.9498 21.7739 36.8452C23.0921 36.6915 24.4412 36.431 25.7349 36.56C28.3221 36.818 30.1566 38.4068 31.5259 40.6114C31.9329 41.2659 31.8877 41.9368 31.6338 42.6154C31.1903 43.8293 30.3874 44.7392 29.2946 45.3426C27.3487 46.4351 25.287 47.2147 23.0064 46.7694C22.6199 46.6778 22.2063 46.7986 21.7875 46.7786C20.8804 46.7412 20.49 46.5441 20.2827 45.6357C19.9918 44.3429 19.8026 42.976 19.5774 41.5752ZM24.4976 44.672C24.6381 44.7021 24.8171 44.8364 24.9202 44.7975C25.8467 44.4114 26.589 43.7503 27.151 42.9196C27.6137 42.2335 27.6203 41.4582 27.1424 40.7711C26.6297 40.0853 26.0152 39.4736 25.3994 38.8267C25.2551 38.6911 25.0451 38.6635 24.6212 38.5028C25.1555 40.7378 24.6333 42.6591 24.4976 44.672Z" fill="black"/>
</g>
</g>
</g>
<defs>
<clipPath id="clip0">
<rect width="60" height="60" fill="white"/>
</clipPath>
<clipPath id="clip1">
<rect width="60" height="61.9355" fill="white" transform="translate(0.483887 -1.93555)"/>
</clipPath>
<clipPath id="clip2">
<rect width="57.5806" height="58.5075" fill="white" transform="translate(0.422363 1.55127) rotate(-2.08662)"/>
</clipPath>
</defs>
</svg>
