<svg width="23" height="24" viewBox="0 0 23 24" fill="none" xmlns="http://www.w3.org/2000/svg">
<g clip-path="url(#clip0)">
<path d="M23 12C23 15.05 21.7884 17.9751 19.6317 20.1317C17.4751 22.2884 14.55 23.5 11.5 23.5C8.45001 23.5 5.52494 22.2884 3.36827 20.1317C1.2116 17.9751 0 15.05 0 12C0 8.95001 1.2116 6.02494 3.36827 3.86827C5.52494 1.7116 8.45001 0.5 11.5 0.5C14.55 0.5 17.4751 1.7116 19.6317 3.86827C21.7884 6.02494 23 8.95001 23 12ZM17.2931 7.64437C17.1904 7.54205 17.0682 7.46149 16.9337 7.4075C16.7991 7.35351 16.6551 7.3272 16.5102 7.33015C16.3652 7.33311 16.2224 7.36526 16.0902 7.42468C15.9579 7.4841 15.8391 7.56958 15.7406 7.676L10.7482 14.0369L7.7395 11.0268C7.53512 10.8364 7.26481 10.7327 6.9855 10.7376C6.70619 10.7426 6.4397 10.8557 6.24217 11.0532C6.04464 11.2508 5.93149 11.5173 5.92656 11.7966C5.92163 12.0759 6.02531 12.3462 6.21575 12.5506L10.0194 16.3556C10.1218 16.4579 10.2439 16.5385 10.3782 16.5926C10.5124 16.6467 10.6563 16.6732 10.801 16.6705C10.9458 16.6678 11.0885 16.636 11.2207 16.577C11.3529 16.5179 11.4718 16.4329 11.5704 16.3269L17.3089 9.15375C17.5046 8.95034 17.6126 8.67833 17.61 8.39613C17.6073 8.11392 17.494 7.84402 17.2946 7.64437H17.2931Z" fill="#80BC70"/>
</g>
<defs>
<clipPath id="clip0">
<rect width="23" height="23" fill="white" transform="translate(0 0.5)"/>
</clipPath>
</defs>
</svg>
