<svg width="97" height="57" viewBox="0 0 97 57" fill="none" xmlns="http://www.w3.org/2000/svg">
<g clip-path="url(#clip0)">
<path d="M96.9997 10.6379C96.9997 20.7121 96.9997 30.784 96.9997 40.8582C96.9827 40.8944 96.9585 40.9282 96.9512 40.9669C96.9245 41.0828 96.859 41.1697 96.7766 41.2518C96.5631 41.4667 96.3036 41.5368 96.0052 41.5368C92.1242 41.5343 88.2457 41.5343 84.3647 41.5392C84.1561 41.5392 83.9839 41.4836 83.8238 41.3677C83.5982 41.2035 83.4454 40.9959 83.4624 40.6964C83.4697 40.5854 83.4745 40.467 83.4527 40.3608C83.4139 40.1773 83.4163 39.9937 83.4163 39.8078C83.4163 34.7876 83.4163 29.7674 83.4139 24.7472C83.4139 24.6337 83.409 24.5226 83.4018 24.4091C83.3921 24.257 83.3678 24.1048 83.3678 23.9527C83.3654 20.9995 83.3654 18.0463 83.3654 15.0955C83.3654 14.8057 83.3654 14.5184 83.3266 14.2286C83.2878 13.9388 83.2344 13.6563 83.1131 13.3931C82.9506 13.0406 82.6983 12.7677 82.3248 12.6156C82.0143 12.49 81.6917 12.4296 81.357 12.4224C81.3012 12.42 81.243 12.42 81.1872 12.4103C80.867 12.3451 80.542 12.3813 80.2194 12.3837C80.1248 12.3837 80.0277 12.4151 79.9331 12.432C79.8677 12.4441 79.8337 12.4852 79.8313 12.5479C79.8264 12.6445 79.824 12.7411 79.824 12.8377C79.824 22.033 79.824 31.2283 79.824 40.426C79.824 40.5153 79.824 40.6023 79.824 40.6916C79.8216 41.0538 79.6396 41.2977 79.3195 41.4474C79.1691 41.5174 79.0114 41.5368 78.8489 41.5368C74.8636 41.5343 70.8784 41.5343 66.8931 41.5392C66.7063 41.5392 66.5511 41.4909 66.3983 41.3846C66.1508 41.2084 66.0199 40.9741 66.0029 40.6747C65.998 40.595 66.0029 40.5129 66.0029 40.4332C66.0029 31.7933 66.0029 23.151 66.0053 14.5111C66.0053 14.2769 65.9883 14.0451 65.9495 13.8157C65.8355 13.1637 65.479 12.7218 64.8289 12.5262C64.5087 12.4296 64.1788 12.4055 63.8489 12.3837C63.4875 12.362 63.1213 12.3765 62.7574 12.3813C62.6847 12.3813 62.6143 12.3958 62.544 12.4127C62.4639 12.432 62.4203 12.4852 62.4178 12.5673C62.4154 12.6639 62.4154 12.7604 62.4154 12.857C62.4154 22.0765 62.4154 31.2959 62.4154 40.5177C62.4154 40.6071 62.4178 40.694 62.413 40.7834C62.4106 40.8389 62.4033 40.8993 62.3815 40.9476C62.2044 41.3218 61.9157 41.5343 61.4913 41.5368C61.3942 41.5368 61.2972 41.5368 61.2002 41.5368C46.2148 41.5368 31.2294 41.5368 16.2416 41.5368C14.973 41.5368 13.7044 41.5368 12.4334 41.5368C12.3436 41.5368 12.2563 41.5392 12.1666 41.5295C11.8949 41.5029 11.6208 41.4764 11.3491 41.4402C11.0532 41.4039 10.7573 41.3677 10.4638 41.3146C10.0587 41.2397 9.65605 41.1552 9.26553 41.02C8.89198 40.8896 8.50874 40.7858 8.14247 40.6361C7.5579 40.3994 6.99516 40.1169 6.4494 39.8006C5.6732 39.349 4.9625 38.8057 4.29546 38.2093C3.80306 37.7698 3.35675 37.2796 2.9444 36.7628C2.44957 36.1447 2.01296 35.4879 1.63214 34.7973C1.27558 34.1477 0.979654 33.4692 0.734668 32.7689C0.528492 32.1821 0.368402 31.5857 0.254398 30.9772C0.150097 30.4242 0.0482217 29.8712 0.0433705 29.3062C0.0433705 29.2579 0.033668 29.2096 0.0288168 29.1637C0.0166888 29.043 -0.00271606 28.9246 -0.00271606 28.8039C-0.000290458 23.6098 -0.000290458 18.4206 -0.000290458 13.2313C-0.000290458 13.1589 -0.000290458 13.0864 0.00456076 13.014C0.033668 12.7025 0.0603497 12.391 0.0943082 12.0795C0.128267 11.7776 0.164651 11.4734 0.218014 11.174C0.31989 10.6113 0.465426 10.0608 0.637644 9.51505C0.826841 8.9162 1.05485 8.33183 1.3435 7.77162C1.50359 7.45529 1.6661 7.14137 1.84074 6.8347C2.00569 6.54976 2.18033 6.26724 2.36953 5.99921C2.59268 5.68529 2.81099 5.36413 3.07295 5.07919C3.28641 4.84979 3.48531 4.60591 3.69876 4.37651C3.8637 4.20023 4.03592 4.02879 4.21299 3.86459C4.39491 3.69314 4.57925 3.52411 4.77573 3.36957C5.05467 3.14983 5.34575 2.94699 5.62712 2.73449C6.02006 2.43507 6.45182 2.19601 6.88116 1.95695C7.29593 1.72514 7.73254 1.53196 8.17643 1.3581C8.85317 1.09006 9.5469 0.877567 10.2625 0.737513C10.5778 0.67473 10.898 0.631265 11.2181 0.582971C11.5213 0.534676 11.8245 0.498455 12.1326 0.498455C23.2225 0.50087 34.3123 0.50087 45.4022 0.50087C45.4677 0.50087 45.5308 0.498455 45.5963 0.50087C45.8946 0.515358 46.1153 0.650583 46.2609 0.913788C46.3409 1.06109 46.3676 1.2108 46.3676 1.37742C46.3652 2.70552 46.3652 4.0312 46.3652 5.3593C46.3652 7.37802 46.3579 9.39914 46.37 11.4179C46.3725 11.8018 46.1347 12.2123 45.6423 12.3089C45.5259 12.333 45.4022 12.3258 45.2809 12.3258C36.2116 12.3258 27.1422 12.3282 18.0729 12.3258C17.6048 12.3258 17.139 12.3499 16.6733 12.4151C16.2464 12.4755 15.8341 12.5842 15.4435 12.7653C15.1743 12.8908 14.922 13.0502 14.6989 13.2579C14.3836 13.5525 14.1798 13.9147 14.0246 14.3059C13.7844 14.9096 13.6801 15.5495 13.6777 16.1918C13.668 19.1522 13.6753 22.1127 13.6704 25.0731C13.6704 25.5319 13.6995 25.9883 13.7723 26.4399C13.8499 26.9277 13.9906 27.3961 14.2356 27.8283C14.4321 28.1761 14.6843 28.4755 15.0288 28.6904C15.2762 28.8449 15.5333 28.9802 15.8098 29.0695C16.1106 29.1685 16.4114 29.2506 16.7267 29.2844C17.0469 29.3182 17.3646 29.3665 17.6897 29.3665C23.0963 29.3641 28.5054 29.3641 33.9121 29.3641C38.5766 29.3641 43.241 29.3641 47.903 29.3641C47.9928 29.3641 48.0801 29.3641 48.1698 29.3569C48.2523 29.3496 48.2863 29.3158 48.2935 29.2337C48.3008 29.1371 48.3008 29.0405 48.3008 28.944C48.3008 19.8936 48.3008 10.8431 48.3008 1.79033C48.3008 1.58991 48.3081 1.38949 48.3445 1.19148C48.4172 0.780978 48.7229 0.505699 49.1449 0.493626C49.2007 0.491211 49.2589 0.493626 49.3147 0.493626C61.2463 0.493626 73.1754 0.493626 85.107 0.491211C85.6333 0.491211 86.1548 0.517773 86.6763 0.580556C87.1251 0.63368 87.5714 0.696463 88.0153 0.783393C89.068 0.988645 90.077 1.32429 91.0448 1.78068C91.6973 2.08735 92.3062 2.46646 92.881 2.89869C93.2667 3.18846 93.6403 3.49755 93.9823 3.84044C94.2272 4.08433 94.448 4.35236 94.6711 4.61557C95.0689 5.08644 95.4085 5.59353 95.702 6.13202C96.2114 7.06169 96.5874 8.04448 96.7887 9.08764C96.8736 9.52954 96.9658 9.97143 96.9512 10.4254C96.9512 10.5003 96.9827 10.5679 96.9997 10.6379Z" fill="#BCBEC0"/>
<path d="M67.0268 56.5C66.9444 56.4686 66.8643 56.43 66.7794 56.4107C66.5175 56.3503 66.2676 56.2658 66.0275 56.1499C65.3968 55.8456 64.9238 55.3796 64.5624 54.788C64.2738 54.3123 64.1209 53.7907 64.0215 53.2498C63.9366 52.7862 63.9463 52.3177 63.9803 51.8541C64.0336 51.149 64.2471 50.4825 64.6158 49.874C64.7322 49.6832 64.8777 49.507 65.0306 49.3428C65.227 49.1303 65.4332 48.9299 65.6782 48.7657C66.173 48.4348 66.7164 48.2513 67.3033 48.1909C67.4804 48.1716 67.6575 48.1427 67.8321 48.1523C68.5186 48.1909 69.1759 48.3431 69.7508 48.7391C70.202 49.0482 70.5706 49.4369 70.8302 49.9247C71.0582 50.3545 71.228 50.8037 71.308 51.2842C71.3978 51.8251 71.4245 52.366 71.3565 52.9142C71.3226 53.187 71.2741 53.4526 71.2062 53.7183C71.0121 54.4692 70.6386 55.1188 70.054 55.6331C69.6538 55.9857 69.188 56.2175 68.6738 56.36C68.5283 56.401 68.3682 56.4059 68.2396 56.5C67.8346 56.5 67.4319 56.5 67.0268 56.5ZM65.1179 52.3394C65.1397 52.5616 65.1518 52.7862 65.1834 53.0083C65.2707 53.6386 65.4647 54.2302 65.8771 54.73C66.0784 54.9739 66.3113 55.1816 66.5902 55.3385C67.0875 55.6211 67.6235 55.6404 68.1644 55.5534C68.5792 55.4883 68.9358 55.2806 69.2438 54.9908C69.45 54.7952 69.6125 54.5682 69.7508 54.3219C70.0564 53.7835 70.185 53.1991 70.2214 52.593C70.2408 52.2887 70.2238 51.9845 70.185 51.6802C70.1049 51.0234 69.8696 50.4342 69.4767 49.9102C69.2269 49.577 68.8945 49.3355 68.4967 49.1906C68.1863 49.0772 67.8685 49.0602 67.5435 49.0651C67.0002 49.0747 66.5393 49.2776 66.1415 49.635C65.7655 49.973 65.5278 50.398 65.3701 50.8689C65.21 51.3446 65.1203 51.8348 65.1179 52.3394Z" fill="#F68B31"/>
<path d="M8.43869 56.4999C8.40231 56.4855 8.36592 56.4613 8.32711 56.4565C7.92931 56.4275 7.54607 56.3333 7.17253 56.2005C6.70924 56.0363 6.29446 55.7972 5.9476 55.4447C5.79478 55.2902 5.63954 55.1404 5.51099 54.9617C5.15685 54.474 4.96523 53.9258 4.85122 53.3439C4.82212 53.1942 4.81484 53.042 4.80029 52.8899C4.79301 52.8271 4.78573 52.7619 4.78088 52.6991C4.77118 52.6122 4.75177 52.5229 4.75663 52.4359C4.79058 51.6584 4.90944 50.9002 5.29753 50.2096C5.62499 49.6228 6.07373 49.1519 6.65102 48.7945C7.18465 48.4637 7.77165 48.3092 8.38048 48.2053C8.44354 48.1957 8.50903 48.1981 8.57452 48.1981C8.85832 48.1981 9.14212 48.186 9.42349 48.2005C9.89163 48.2271 10.3549 48.2923 10.7891 48.4878C10.8182 48.4999 10.8449 48.5192 10.8813 48.5386C10.8788 48.5844 10.8837 48.6327 10.8716 48.6762C10.8206 48.8549 10.7697 49.0312 10.7115 49.2074C10.6654 49.3402 10.6242 49.3571 10.4932 49.3185C10.3379 49.275 10.1827 49.2268 10.0275 49.1833C9.60298 49.0601 9.16637 49.0384 8.72976 49.0722C8.23737 49.1108 7.7571 49.2219 7.32291 49.4755C7.09006 49.6107 6.88873 49.7797 6.71166 49.9802C6.63647 50.0647 6.55885 50.1468 6.49336 50.2385C6.12709 50.7408 5.9573 51.3131 5.91849 51.9264C5.91606 51.982 5.90394 52.0375 5.89908 52.093C5.88938 52.1969 5.86513 52.3007 5.87483 52.4045C5.91606 52.902 5.967 53.3946 6.16105 53.863C6.29203 54.1794 6.47638 54.4547 6.71166 54.7058C7.1604 55.1887 7.71829 55.4423 8.3635 55.5389C8.77342 55.5992 9.18335 55.6017 9.59328 55.5389C9.71213 55.5196 9.83341 55.5123 9.95227 55.4833C10.1318 55.4399 10.3113 55.3867 10.4883 55.3336C10.549 55.3143 10.6072 55.2805 10.6897 55.324C10.7042 55.3626 10.7309 55.4133 10.7454 55.464C10.7818 55.5968 10.8158 55.7272 10.8473 55.8624C10.891 56.0532 10.8667 56.0991 10.6824 56.1764C10.646 56.1933 10.6072 56.2053 10.5684 56.2174C10.2991 56.3092 10.025 56.372 9.74367 56.4009C9.59085 56.4154 9.43804 56.4323 9.28765 56.4516C9.24884 56.4565 9.21246 56.4806 9.17607 56.4951C8.92381 56.4999 8.68125 56.4999 8.43869 56.4999Z" fill="#BCBEC0"/>
<path d="M26.5288 21.0177C26.5288 18.9097 26.5288 16.8016 26.5288 14.6935C26.5288 14.6139 26.5264 14.5318 26.5337 14.4521C26.5409 14.3458 26.5749 14.3144 26.6865 14.3048C26.752 14.2999 26.815 14.3024 26.8805 14.3024C29.539 14.3024 32.1999 14.3024 34.8583 14.3024C34.9238 14.3024 34.9869 14.2999 35.0524 14.3048C35.164 14.3144 35.1979 14.3458 35.2076 14.4497C35.2149 14.5293 35.2125 14.6114 35.2125 14.6911C35.2125 16.3718 35.2125 18.0549 35.2125 19.7355C35.2125 22.2686 35.2125 24.804 35.2125 27.3371C35.2125 27.4168 35.2149 27.4989 35.2076 27.5785C35.1979 27.6848 35.164 27.7162 35.0524 27.7258C34.9869 27.7307 34.9238 27.7283 34.8583 27.7283C32.1999 27.7283 29.539 27.7283 26.8805 27.7283C26.815 27.7283 26.752 27.7307 26.6865 27.7258C26.5749 27.7162 26.5409 27.6848 26.5312 27.581C26.524 27.5013 26.5264 27.4192 26.5264 27.3395C26.5288 25.2338 26.5288 23.1258 26.5288 21.0177Z" fill="#F68B31"/>
<path d="M45.7834 21.0302C45.7834 23.1383 45.7834 25.2463 45.7834 27.3544C45.7834 27.4341 45.7858 27.5162 45.7785 27.5959C45.7688 27.6876 45.7324 27.719 45.6378 27.7287C45.5893 27.7335 45.5408 27.7335 45.4923 27.7335C42.8411 27.7335 40.1899 27.7335 37.5387 27.7335C37.5072 27.7335 37.4733 27.7335 37.4417 27.7335C37.2865 27.7239 37.2574 27.6997 37.2501 27.55C37.2453 27.4848 37.2477 27.422 37.2477 27.3568C37.2477 23.1335 37.2477 18.9101 37.2477 14.6867C37.2477 14.607 37.2453 14.5249 37.2525 14.4453C37.2598 14.3535 37.2962 14.3221 37.3932 14.3124C37.4417 14.3076 37.4902 14.3076 37.5387 14.3076C40.1899 14.3076 42.8411 14.3076 45.4923 14.3076C45.5238 14.3076 45.5578 14.3076 45.5893 14.3076C45.7446 14.3173 45.7737 14.3414 45.7834 14.4911C45.7882 14.5636 45.7858 14.636 45.7858 14.7085C45.7834 16.8165 45.7834 18.9222 45.7834 21.0302Z" fill="#F68B31"/>
<path d="M24.4477 21.035C24.4477 23.1262 24.4477 25.2173 24.4477 27.3085C24.4477 27.3737 24.4502 27.4365 24.4477 27.5017C24.4429 27.7093 24.4211 27.7287 24.2027 27.7335C24.1785 27.7335 24.1542 27.7335 24.13 27.7335C22.369 27.7335 20.608 27.7383 18.8446 27.7311C18.2139 27.7286 17.6124 27.5765 17.0521 27.2868C16.6276 27.067 16.2856 26.7531 16.0551 26.3305C15.9387 26.118 15.8659 25.8862 15.815 25.6496C15.7689 25.4371 15.7592 25.2198 15.7592 25.0024C15.7616 22.5104 15.7592 20.016 15.7616 17.524C15.7616 16.9638 15.8562 16.4181 16.0648 15.8989C16.2589 15.4208 16.5572 15.0103 16.9938 14.7229C17.251 14.5539 17.5323 14.4308 17.8404 14.3728C18.0393 14.3342 18.2382 14.3076 18.4419 14.3076C20.3315 14.31 22.2235 14.31 24.113 14.31C24.4453 14.31 24.4477 14.31 24.4477 14.6457C24.4477 16.7706 24.4477 18.9028 24.4477 21.035Z" fill="#F68B31"/>
<path d="M61.4843 49.524C61.4479 49.5989 61.4334 49.6254 61.4237 49.6544C61.2029 50.4199 60.9386 51.1708 60.6742 51.9218C60.3976 52.7114 60.0969 53.4914 59.8107 54.2786C59.5923 54.875 59.3765 55.4739 59.1606 56.0703C59.146 56.109 59.1339 56.1452 59.1194 56.1838C59.0902 56.2587 59.0369 56.3046 58.9568 56.3046C58.7458 56.307 58.5372 56.307 58.3262 56.3046C58.2631 56.3046 58.2195 56.2708 58.1952 56.2128C58.1734 56.1597 58.154 56.1066 58.137 56.0534C58.0351 55.7492 57.9332 55.4425 57.8289 55.1382C57.4045 53.8874 56.9775 52.6414 56.5603 51.3882C56.4124 50.9463 56.2935 50.4947 56.1625 50.0456C56.1262 49.9224 56.0922 49.7993 56.0291 49.6761C56.0243 49.7172 56.017 49.7582 56.017 49.7993C56.0146 50.2895 55.9418 50.7772 55.9661 51.2674C55.9054 51.5765 55.9321 51.8928 55.9151 52.2043C55.8957 52.5714 55.8593 52.9408 55.8302 53.3079C55.8254 53.3634 55.8254 53.4214 55.823 53.4769C55.8181 53.6773 55.8327 53.8802 55.7817 54.0758C55.7793 54.083 55.7793 54.0927 55.7793 54.0999C55.7623 54.4525 55.7453 54.805 55.7235 55.1576C55.7162 55.3025 55.6992 55.4449 55.6895 55.5898C55.6823 55.6767 55.6798 55.7661 55.6774 55.8554C55.675 55.9593 55.6798 56.0655 55.6726 56.1693C55.6629 56.3021 55.6216 56.3504 55.4955 56.3529C55.2457 56.3601 54.9934 56.3577 54.7436 56.3529C54.6514 56.3504 54.6126 56.3094 54.6102 56.2152C54.6053 56.1041 54.6126 55.9906 54.6199 55.8772C54.6271 55.7492 54.6441 55.6212 54.6538 55.4932C54.6659 55.3411 54.6781 55.189 54.6926 55.0368C54.6951 55.0199 54.6975 55.0054 54.6975 54.9885C54.7169 54.6601 54.7314 54.3317 54.7533 54.0033C54.7775 53.6604 54.8066 53.3151 54.8357 52.9722C54.8382 52.9481 54.843 52.9239 54.843 52.8998C54.8624 52.5641 54.8745 52.2261 54.8988 51.8904C54.9231 51.5548 54.9546 51.2191 54.9837 50.8835C54.9861 50.8666 54.9885 50.8521 54.9885 50.8352C55.008 50.5068 55.0225 50.1784 55.0443 49.85C55.0686 49.4974 55.1026 49.1473 55.1292 48.7948C55.1389 48.6837 55.1341 48.5702 55.1414 48.4567C55.1486 48.3311 55.1802 48.2925 55.3014 48.2901C55.6653 48.2852 56.0291 48.2877 56.393 48.2877C56.4973 48.2877 56.5555 48.3432 56.5894 48.435C56.638 48.5702 56.6937 48.7054 56.7398 48.843C56.8805 49.2463 57.0188 49.6496 57.1619 50.0504C57.4045 50.7314 57.6567 51.4123 57.892 52.0957C58.0691 52.6124 58.2292 53.1364 58.3917 53.658C58.4984 54.0033 58.5954 54.351 58.6973 54.6988C58.7846 54.6891 58.7798 54.6215 58.7943 54.5732C58.8841 54.281 58.9641 53.9864 59.0563 53.6942C59.1921 53.2741 59.3328 52.8539 59.4783 52.4362C59.6239 52.0184 59.7767 51.6031 59.9319 51.1878C60.1333 50.6444 60.3346 50.1011 60.5359 49.5578C60.6645 49.2101 60.793 48.8648 60.9216 48.5171C60.9361 48.4784 60.9483 48.4422 60.9628 48.4036C60.9919 48.3263 61.0501 48.2901 61.1302 48.2877C61.2029 48.2852 61.2757 48.2828 61.3485 48.2828C61.6226 48.2828 61.8991 48.2804 62.1732 48.2852C62.3721 48.2877 62.4085 48.3263 62.4158 48.5291C62.4206 48.6257 62.4133 48.7223 62.4182 48.8189C62.4255 48.9469 62.44 49.0749 62.4521 49.2028C62.4546 49.227 62.4594 49.2511 62.4618 49.2753C62.4812 49.6278 62.4958 49.9804 62.5152 50.3329C62.5225 50.4778 62.5395 50.6203 62.5516 50.7652C62.554 50.7821 62.5564 50.7966 62.5564 50.8135C62.5734 51.1419 62.5904 51.4703 62.6098 51.7987C62.6195 51.9749 62.6365 52.1512 62.6486 52.3275C62.651 52.3444 62.6535 52.3589 62.6535 52.3758C62.6704 52.7525 62.6874 53.1292 62.7068 53.5059C62.7117 53.6097 62.7238 53.7136 62.7359 53.8174C62.7384 53.8488 62.7481 53.8802 62.7505 53.9116C62.7699 54.281 62.7844 54.6481 62.8063 55.0175C62.8136 55.1382 62.8281 55.2566 62.8378 55.3773C62.8427 55.4498 62.8475 55.5222 62.8524 55.5946C62.8645 55.7878 62.8742 55.9786 62.8912 56.1718C62.9009 56.3021 62.8669 56.3504 62.7311 56.3529C62.4812 56.3577 62.229 56.3577 61.9791 56.3529C61.8409 56.3504 61.7996 56.3021 61.7899 56.1573C61.7851 56.0776 61.7899 55.9955 61.7851 55.9158C61.7754 55.7468 61.7608 55.5801 61.7463 55.4111C61.7439 55.3942 61.7414 55.3797 61.7414 55.3628C61.7511 55.0006 61.7099 54.6408 61.6905 54.281C61.6808 54.0878 61.6953 53.8947 61.6493 53.7039C61.6371 53.6508 61.642 53.5928 61.642 53.5349C61.6371 53.2934 61.6517 53.0519 61.6007 52.8129C61.5813 52.7211 61.5983 52.6197 61.591 52.5231C61.5813 52.3396 61.5619 52.1561 61.5522 51.9701C61.545 51.7938 61.5498 51.6152 61.5401 51.4389C61.5328 51.2626 61.5159 51.0863 61.5037 50.9101C61.4989 50.8376 61.4964 50.7652 61.4964 50.6927C61.494 50.3788 61.494 50.0649 61.494 49.751C61.4964 49.7003 61.4916 49.6399 61.4843 49.524Z" fill="#F68B31"/>
<path d="M76.2369 52.0278C76.4091 52.1051 76.5619 52.1751 76.7147 52.2451C77.0252 52.3876 77.2532 52.6267 77.4642 52.8826C77.5637 53.0033 77.634 53.1579 77.6898 53.3076C77.8159 53.6408 77.879 53.9837 77.8184 54.3459C77.7747 54.6188 77.6995 54.8796 77.5685 55.1211C77.3648 55.4978 77.081 55.7924 76.6953 55.9928C76.3242 56.186 75.9312 56.2898 75.5237 56.3598C75.3151 56.396 75.1041 56.3864 74.8979 56.4178C74.6165 56.4588 74.3328 56.4709 74.0538 56.4467C73.6536 56.4154 73.2485 56.4226 72.8483 56.355C72.7367 56.3357 72.7124 56.3115 72.7027 56.2004C72.6979 56.1377 72.7003 56.0725 72.7003 56.0073C72.7003 53.5877 72.7003 51.1682 72.7003 48.7486C72.7003 48.7244 72.7003 48.7003 72.7003 48.6762C72.7003 48.4129 72.693 48.396 72.9987 48.3453C73.7263 48.227 74.4613 48.2174 75.1938 48.2487C75.5965 48.2657 75.9943 48.3598 76.3654 48.524C76.6929 48.6689 76.9815 48.8742 77.195 49.1688C77.3672 49.4078 77.4715 49.671 77.5103 49.9656C77.537 50.1685 77.5394 50.364 77.5006 50.5621C77.4109 51.004 77.2047 51.3758 76.8384 51.6463C76.6832 51.7598 76.5134 51.8539 76.3509 51.9578C76.3169 51.9795 76.2829 51.9988 76.2369 52.0278ZM73.7724 54.0393C73.7724 54.119 73.7724 54.2011 73.7724 54.2807C73.7724 54.6333 73.77 54.9883 73.7749 55.3408C73.7773 55.4978 73.8161 55.5388 73.9665 55.5678C73.9907 55.5726 74.015 55.575 74.0393 55.575C74.4662 55.5775 74.8931 55.6064 75.3176 55.5219C75.5747 55.4712 75.8172 55.3843 76.0355 55.2442C76.2272 55.1235 76.4018 54.9689 76.5012 54.7661C76.7487 54.2638 76.7414 53.7592 76.4552 53.269C76.3654 53.1144 76.2441 52.9889 76.0889 52.8899C75.7396 52.6701 75.3588 52.5518 74.9464 52.5421C74.6481 52.5349 74.3497 52.5373 74.0514 52.5397C73.787 52.5397 73.7749 52.5518 73.7749 52.8078C73.77 53.2183 73.7724 53.6288 73.7724 54.0393ZM73.7724 50.4027C73.7724 50.7238 73.7724 51.045 73.7724 51.3662C73.7724 51.4217 73.77 51.4797 73.7773 51.5352C73.787 51.627 73.8185 51.6583 73.918 51.668C73.9738 51.6728 74.032 51.6704 74.0878 51.6728C74.3206 51.6728 74.5559 51.6656 74.7888 51.6752C75.0871 51.6873 75.3661 51.6173 75.6353 51.5086C75.8779 51.4096 76.084 51.2599 76.2223 51.0281C76.3921 50.7407 76.46 50.4437 76.3945 50.1081C76.3121 49.6903 76.0743 49.4151 75.6959 49.2533C75.5043 49.1712 75.2981 49.135 75.0895 49.1011C74.6917 49.0408 74.3012 49.0842 73.9107 49.1277C73.8258 49.1374 73.7894 49.1808 73.7797 49.275C73.7724 49.3378 73.7749 49.403 73.7749 49.4682C73.7724 49.7773 73.7724 50.0912 73.7724 50.4027Z" fill="#F68B31"/>
<path d="M17.4061 56.3311C17.3722 56.3384 17.3431 56.3504 17.3115 56.3504C17.052 56.3528 16.7949 56.348 16.5353 56.3529C16.3995 56.3553 16.3267 56.2949 16.2904 56.1693C16.2467 56.0148 16.1885 55.8651 16.1473 55.7081C16.0381 55.2783 15.9386 54.8485 15.8319 54.4187C15.7616 54.1361 15.6718 53.8633 15.5457 53.6001C15.3662 53.2306 15.063 53.0278 14.6749 52.9336C14.4954 52.8902 14.3111 52.8684 14.1219 52.8733C13.8866 52.8805 13.6537 52.8733 13.4184 52.8781C13.2753 52.8805 13.2462 52.9143 13.2389 53.0471C13.2341 53.1123 13.2365 53.1751 13.2365 53.2403C13.2365 54.1724 13.2365 55.1069 13.2365 56.0389C13.2365 56.348 13.2341 56.3504 12.9285 56.3504C12.7344 56.3504 12.5404 56.3529 12.3463 56.348C12.2081 56.3432 12.1814 56.3118 12.1717 56.1717C12.1668 56.1066 12.1693 56.0438 12.1693 55.9786C12.1693 53.5832 12.1693 51.1854 12.1693 48.79C12.1693 48.7827 12.1693 48.7731 12.1693 48.7658C12.162 48.3481 12.1959 48.4109 12.5404 48.3505C12.7999 48.307 13.0716 48.307 13.3335 48.2781C13.7144 48.237 14.0928 48.2322 14.4687 48.2467C14.9199 48.2636 15.3686 48.3167 15.8004 48.4712C16.0842 48.5751 16.3462 48.7224 16.5645 48.9276C16.8337 49.1812 17.0108 49.4975 17.0981 49.8573C17.2169 50.3547 17.1975 50.8425 16.9865 51.3206C16.8774 51.5693 16.7148 51.7746 16.5232 51.9605C16.3195 52.1585 16.089 52.3203 15.8198 52.4169C15.7786 52.4314 15.7422 52.4652 15.6912 52.499C15.7325 52.5328 15.7543 52.5569 15.781 52.569C16.2637 52.7912 16.5305 53.192 16.6954 53.6701C16.7609 53.8585 16.807 54.0565 16.858 54.2496C17.0374 54.9161 17.1612 55.5995 17.4037 56.2514C17.4134 56.2756 17.4061 56.3021 17.4061 56.3311ZM13.2414 50.5962C13.2414 50.9753 13.2414 51.352 13.2414 51.7311C13.2414 51.7963 13.2389 51.8591 13.2462 51.9243C13.2559 52.016 13.2899 52.045 13.3869 52.0571C13.4112 52.0595 13.4354 52.0595 13.4597 52.0595C13.8235 52.0595 14.1874 52.074 14.5512 52.0571C15.0751 52.0329 15.5287 51.8398 15.8513 51.4099C16.0017 51.2095 16.1084 50.9825 16.1036 50.7193C16.1012 50.5986 16.1109 50.4779 16.1012 50.3571C16.0793 50.0505 15.975 49.78 15.7519 49.5579C15.5578 49.3671 15.3322 49.2319 15.0654 49.1691C14.7986 49.1063 14.5294 49.0629 14.2504 49.0629C13.9836 49.0629 13.7192 49.0822 13.4548 49.1136C13.2826 49.1353 13.2511 49.1643 13.2438 49.3405C13.2414 49.3961 13.2438 49.454 13.2438 49.5096C13.2414 49.8718 13.2414 50.234 13.2414 50.5962Z" fill="#BCBEC0"/>
<path d="M30.6161 56.319C30.5749 56.3286 30.5312 56.3504 30.4852 56.3504C30.2256 56.3528 29.9685 56.3504 29.709 56.3528C29.5974 56.3528 29.527 56.3045 29.4931 56.1982C29.4664 56.1137 29.4373 56.0316 29.4082 55.9471C29.2166 55.3748 29.0298 54.8001 28.8309 54.2302C28.6684 53.7642 28.7047 53.8463 28.2924 53.8439C27.5647 53.8391 26.837 53.8415 26.1093 53.8439C25.8255 53.8439 25.8255 53.8439 25.7358 54.1119C25.566 54.6166 25.3962 55.1189 25.2288 55.6235C25.1633 55.8215 25.1027 56.022 25.0421 56.2224C25.0154 56.3117 24.9572 56.3552 24.8626 56.3528C24.5885 56.3504 24.3119 56.3528 24.0378 56.3504C24.0087 56.3504 23.9772 56.3335 23.9529 56.3238C23.9214 56.2296 23.9651 56.1572 23.9918 56.0823C24.2925 55.2082 24.5982 54.3341 24.8965 53.4575C25.1561 52.6969 25.4083 51.9314 25.6679 51.1708C25.9468 50.3474 26.2282 49.5264 26.512 48.703C26.5435 48.6112 26.5848 48.5243 26.6163 48.4325C26.6502 48.3335 26.7182 48.2925 26.8176 48.2925C27.0602 48.2925 27.3027 48.29 27.5453 48.29C27.6108 48.29 27.6739 48.2925 27.7393 48.2925C27.8509 48.2925 27.9213 48.348 27.9577 48.4494C27.9722 48.488 27.9843 48.5243 27.9989 48.5629C28.2827 49.3936 28.5641 50.2242 28.8503 51.0525C29.1147 51.8204 29.3839 52.5882 29.6483 53.3561C29.7769 53.728 29.9006 54.1023 30.0291 54.4765C30.2086 55.0029 30.393 55.5269 30.5725 56.0509C30.6016 56.1354 30.6525 56.2151 30.6161 56.319ZM28.4573 52.9987C28.4258 52.8877 28.4064 52.8104 28.3797 52.7355C28.2827 52.4554 28.176 52.1753 28.0838 51.8928C27.817 51.0839 27.5162 50.2846 27.3149 49.4539C27.3052 49.4153 27.3124 49.3525 27.2251 49.3573C27.2081 49.4153 27.1912 49.4757 27.1717 49.536C27.0432 49.9683 26.9219 50.4005 26.7836 50.8303C26.5872 51.4437 26.3761 52.0522 26.1724 52.6607C26.1506 52.7283 26.1239 52.7983 26.1093 52.8683C26.0899 52.9553 26.1287 53.0036 26.2209 53.0156C26.2597 53.0205 26.301 53.0205 26.3422 53.0205C26.9728 53.0205 27.6035 53.0205 28.2317 53.0205C28.2972 53.0229 28.3579 53.0108 28.4573 52.9987Z" fill="#BCBEC0"/>
<path d="M87.6857 52.3131C87.6857 51.0816 87.6857 49.8525 87.6857 48.621C87.6857 48.2926 87.6857 48.2926 88.0253 48.2926C89.2697 48.2926 90.514 48.2926 91.7584 48.2926C91.8141 48.2926 91.8724 48.2902 91.9282 48.295C92.0567 48.3047 92.0931 48.3312 92.0979 48.452C92.1028 48.6524 92.1028 48.8552 92.0979 49.0557C92.0955 49.1764 92.0567 49.2054 91.9306 49.2126C91.8651 49.2174 91.802 49.215 91.7365 49.215C90.8633 49.215 89.9901 49.215 89.1193 49.215C88.8039 49.215 88.8039 49.2174 88.8039 49.5193C88.8039 50.1544 88.8039 50.7894 88.8039 51.4245C88.8039 51.7143 88.8088 51.7167 89.1047 51.7191C89.9294 51.7191 90.7541 51.7191 91.5764 51.7191C91.9087 51.7191 91.9088 51.7191 91.9088 52.0548C91.9088 52.1924 91.9087 52.3276 91.9015 52.4653C91.8966 52.5474 91.8602 52.5812 91.7802 52.5884C91.7074 52.5957 91.6347 52.5957 91.5619 52.5957C90.7469 52.5957 89.9294 52.5957 89.1144 52.5957C88.8039 52.5957 88.8015 52.5981 88.8015 52.9023C88.8015 53.6412 88.8015 54.3826 88.8015 55.1215C88.8015 55.1384 88.8015 55.1529 88.8015 55.1698C88.8064 55.4257 88.8161 55.4378 89.0805 55.4378C90.0265 55.4378 90.9725 55.4378 91.916 55.4378C91.9961 55.4378 92.0785 55.4402 92.1586 55.4475C92.2314 55.4547 92.2823 55.503 92.2823 55.573C92.2871 55.7976 92.2871 56.0222 92.2823 56.2468C92.2799 56.3095 92.2314 56.3458 92.1683 56.3506C92.1028 56.3554 92.0397 56.3578 91.9742 56.3578C90.6498 56.3578 89.323 56.3578 87.9986 56.3578C87.6881 56.3578 87.6833 56.3554 87.6833 56.0512C87.6857 54.8052 87.6857 53.5591 87.6857 52.3131Z" fill="#F68B31"/>
<path d="M18.6239 52.3082C18.6239 51.0864 18.6239 49.8621 18.6239 48.6402C18.6239 48.5605 18.6263 48.4784 18.6336 48.3988C18.6385 48.3456 18.6748 48.3118 18.7282 48.3046C18.784 48.2973 18.8398 48.2949 18.898 48.2949C20.1666 48.2949 21.4352 48.2949 22.7062 48.2949C22.9803 48.2949 22.9876 48.3046 22.99 48.5847C22.99 48.7465 22.9924 48.9059 22.9851 49.0676C22.9803 49.1642 22.9439 49.198 22.8517 49.2077C22.779 49.2149 22.7062 49.2125 22.6334 49.2125C21.7602 49.2125 20.887 49.2125 20.0138 49.2125C19.6912 49.2125 19.6912 49.2125 19.6912 49.5337C19.6912 50.1688 19.6912 50.8038 19.6912 51.4413C19.6912 51.7142 19.7009 51.7214 19.9822 51.7214C20.8239 51.7214 21.6632 51.7214 22.5049 51.7214C22.842 51.7214 22.8445 51.7214 22.8445 52.0523C22.8445 52.1899 22.8445 52.3251 22.8372 52.4628C22.8323 52.5449 22.7959 52.5763 22.7135 52.5859C22.6407 52.5932 22.5679 52.5908 22.4952 52.5932C21.6705 52.5932 20.8458 52.5932 20.0211 52.5932C19.6912 52.5932 19.6912 52.5932 19.6912 52.9312C19.6912 53.6798 19.6912 54.4284 19.6912 55.177C19.6912 55.4885 19.6936 55.4885 19.9992 55.4909C20.9452 55.4909 21.8912 55.4909 22.8372 55.4909C22.9099 55.4909 22.9827 55.4909 23.0555 55.4981C23.138 55.5054 23.1719 55.5392 23.1792 55.6213C23.1865 55.7323 23.184 55.8458 23.1865 55.9593C23.1865 56.0487 23.1889 56.1356 23.1816 56.225C23.1743 56.3167 23.138 56.3481 23.0409 56.3578C22.9924 56.3626 22.9439 56.3626 22.8954 56.3626C21.5686 56.3626 20.2442 56.3626 18.9174 56.3626C18.8859 56.3626 18.8519 56.3626 18.8204 56.3626C18.6651 56.3529 18.636 56.3288 18.6288 56.1791C18.6239 56.1066 18.6263 56.0342 18.6263 55.9617C18.6239 54.7375 18.6239 53.5229 18.6239 52.3082Z" fill="#BCBEC0"/>
<path d="M46.414 52.3248C46.414 51.1029 46.414 49.881 46.414 48.6592C46.414 48.5867 46.4116 48.5143 46.4189 48.4418C46.4286 48.3356 46.4601 48.3042 46.5717 48.297C46.6275 48.2921 46.6857 48.2945 46.7415 48.2945C47.9785 48.2945 49.2132 48.2945 50.4502 48.2945C50.7801 48.2945 50.7801 48.2945 50.7801 48.6326C50.7801 48.7775 50.7825 48.9224 50.7752 49.0673C50.7704 49.1614 50.734 49.1977 50.6418 49.2073C50.5691 49.2146 50.4963 49.2122 50.4235 49.2122C49.5503 49.2122 48.6795 49.2122 47.8063 49.2122C47.4837 49.2122 47.4813 49.2122 47.4813 49.5333C47.4813 50.1684 47.4813 50.8035 47.4813 51.4386C47.4813 51.7138 47.491 51.7211 47.7699 51.7235C48.5946 51.7235 49.4169 51.7235 50.2416 51.7235C50.3144 51.7235 50.3871 51.7235 50.4599 51.7307C50.54 51.738 50.5788 51.7718 50.5812 51.8563C50.586 52.0567 50.5885 52.2572 50.5812 52.46C50.5788 52.5518 50.5375 52.5831 50.4405 52.5904C50.3677 52.5952 50.295 52.5952 50.2222 52.5952C49.4145 52.5952 48.6068 52.5952 47.799 52.5952C47.4861 52.5952 47.4837 52.5976 47.4837 52.8995C47.4837 53.6625 47.4837 54.428 47.4837 55.1911C47.4837 55.4833 47.491 55.4905 47.7796 55.4905C48.7329 55.4905 49.6861 55.4905 50.6394 55.4905C50.9741 55.4905 50.9741 55.4905 50.9741 55.8237C50.9741 55.9445 50.9766 56.0652 50.9717 56.186C50.9644 56.3212 50.9353 56.3502 50.7922 56.3574C50.7437 56.3598 50.6952 56.3598 50.6467 56.3598C49.3466 56.3598 48.0464 56.3598 46.7439 56.3598C46.414 56.3598 46.414 56.3598 46.414 56.0217C46.414 54.7854 46.414 53.5563 46.414 52.3248Z" fill="#BCBEC0"/>
<path d="M42.1547 55.1749C42.1886 55.0614 42.225 54.9455 42.259 54.832C42.4361 54.2476 42.5986 53.6584 42.7902 53.0789C43.0449 52.3086 43.319 51.5431 43.5858 50.7752C43.7071 50.4251 43.8211 50.0725 43.9399 49.7224C44.0806 49.3119 44.2237 48.9013 44.3693 48.4933C44.4323 48.3121 44.4542 48.2952 44.6482 48.2928C44.8835 48.2904 45.1164 48.2904 45.3517 48.2928C45.3977 48.2928 45.4463 48.3049 45.4802 48.3097C45.536 48.387 45.4972 48.4474 45.4778 48.5053C45.3492 48.8772 45.2207 49.2491 45.0873 49.6209C44.9757 49.93 44.8593 50.2391 44.7477 50.5482C44.476 51.304 44.2068 52.0623 43.9375 52.8205C43.7047 53.4725 43.4694 54.122 43.2365 54.7716C43.0716 55.2328 42.9066 55.694 42.7393 56.1577C42.6762 56.3315 42.6568 56.3484 42.4797 56.3508C42.2202 56.3557 41.9631 56.3484 41.7035 56.3533C41.575 56.3557 41.4925 56.3098 41.4513 56.1794C41.347 55.8413 41.233 55.5057 41.1238 55.17C41.0995 55.0928 41.0777 55.0155 41.051 54.9406C40.8521 54.3466 40.6508 53.7502 40.4543 53.1561C40.1948 52.3689 39.9377 51.5817 39.6806 50.7945C39.4428 50.0677 39.2051 49.3432 38.9674 48.6164C38.9383 48.5271 38.8801 48.4401 38.9359 48.3266C38.9747 48.317 39.0184 48.2952 39.0645 48.2952C39.324 48.2928 39.5811 48.2952 39.8406 48.2928C39.9668 48.2904 40.0298 48.358 40.0662 48.4691C40.1608 48.7758 40.2579 49.0824 40.3525 49.3915C40.3816 49.4833 40.4058 49.5775 40.4374 49.6692C40.7042 50.5047 40.9758 51.3378 41.2402 52.1733C41.4246 52.7553 41.6041 53.3397 41.7787 53.9264C41.8782 54.2645 41.9631 54.6098 42.0528 54.9503C42.0722 55.0276 42.094 55.1048 42.1135 55.1797C42.1232 55.1797 42.1401 55.1773 42.1547 55.1749Z" fill="#BCBEC0"/>
<path d="M32.4474 52.7835C32.4474 51.7066 32.4474 50.6272 32.4474 49.5502C32.4474 49.2121 32.4474 49.2121 32.1175 49.2121C31.5184 49.2121 30.9217 49.2121 30.3226 49.2121C30.0291 49.2121 30.0218 49.2049 30.0218 48.9175C30.0218 48.7654 30.0194 48.6109 30.0242 48.4587C30.0291 48.338 30.063 48.3066 30.1892 48.297C30.2449 48.2921 30.3032 48.2945 30.3589 48.2945C32.1199 48.2945 33.8834 48.2945 35.6444 48.2945C35.7099 48.2945 35.7729 48.2921 35.8384 48.2994C35.9451 48.309 35.9815 48.3404 35.9839 48.4515C35.9888 48.6519 35.9888 48.8548 35.9839 49.0552C35.9815 49.1663 35.9451 49.2001 35.8384 49.2073C35.7753 49.2121 35.7099 49.2121 35.6444 49.2121C35.0307 49.2121 34.417 49.2121 33.8009 49.2121C33.5219 49.2121 33.5147 49.2218 33.5147 49.4971C33.5147 51.6607 33.5147 53.8243 33.5147 55.9879C33.5147 56.0675 33.5147 56.1497 33.5074 56.2293C33.5001 56.3114 33.4662 56.3501 33.3837 56.3501C33.1169 56.3549 32.8501 56.3549 32.5832 56.3501C32.4911 56.3477 32.4595 56.3066 32.4498 56.21C32.445 56.1376 32.445 56.0651 32.445 55.9927C32.4474 54.923 32.4474 53.8532 32.4474 52.7835Z" fill="#BCBEC0"/>
<path d="M82.0146 52.3248C82.0146 51.1029 82.0146 49.8811 82.0146 48.6568C82.0146 48.5844 82.0122 48.512 82.0195 48.4395C82.0292 48.3333 82.0632 48.2971 82.1747 48.2946C82.4415 48.2898 82.7084 48.2898 82.9752 48.2946C83.094 48.2971 83.1231 48.3357 83.1328 48.4637C83.1377 48.5434 83.1353 48.6255 83.1353 48.7051C83.1353 50.7407 83.1353 52.7739 83.1353 54.8095C83.1353 54.8578 83.1353 54.9061 83.1353 54.9544C83.1401 55.4905 83.077 55.4374 83.6082 55.4374C84.4815 55.4398 85.3547 55.4374 86.2255 55.4374C86.2982 55.4374 86.371 55.435 86.4438 55.4422C86.5262 55.4494 86.5675 55.4832 86.5699 55.5605C86.5747 55.7851 86.5747 56.0097 86.5699 56.2342C86.5675 56.3115 86.5262 56.3429 86.4413 56.3501C86.3783 56.3574 86.3128 56.355 86.2473 56.355C84.9472 56.355 83.6446 56.355 82.3445 56.355C82.0195 56.355 82.0171 56.355 82.0171 56.0362C82.0122 54.7999 82.0146 53.5611 82.0146 52.3248Z" fill="#F68B31"/>
<path d="M80.2706 52.3416C80.2706 53.5562 80.2706 54.7709 80.2706 55.9855C80.2706 56.0579 80.273 56.1304 80.2682 56.2028C80.2585 56.3139 80.2269 56.3477 80.1202 56.3525C79.9917 56.3598 79.8607 56.3574 79.7321 56.3574C79.5939 56.3574 79.458 56.3598 79.3198 56.3549C79.1985 56.3501 79.167 56.3139 79.1573 56.1907C79.1524 56.1352 79.1548 56.0772 79.1548 56.0217C79.1548 53.5514 79.1548 51.0835 79.1548 48.6132C79.1548 48.2921 79.1548 48.2921 79.4774 48.2897C79.6788 48.2897 79.8825 48.2873 80.0838 48.2921C80.2342 48.2969 80.2633 48.3283 80.2706 48.4804C80.273 48.5456 80.273 48.6084 80.273 48.6736C80.2706 49.8979 80.2706 51.1198 80.2706 52.3416Z" fill="#F68B31"/>
<path d="M36.8595 52.2982C36.8595 51.0933 36.8595 49.8859 36.8595 48.681C36.8595 48.6158 36.8571 48.553 36.8619 48.4878C36.8692 48.3309 36.8959 48.2971 37.0438 48.2946C37.2791 48.2898 37.512 48.2898 37.7473 48.2946C37.888 48.2971 37.9171 48.3309 37.9268 48.4661C37.9316 48.5313 37.9292 48.5941 37.9292 48.6593C37.9292 51.103 37.9292 53.5466 37.9292 55.9903C37.9292 56.0459 37.9316 56.1038 37.9292 56.1594C37.9219 56.3163 37.8952 56.3501 37.7473 56.3526C37.512 56.3574 37.2791 56.3574 37.0438 56.3526C36.9032 56.3501 36.874 56.3163 36.8643 56.1811C36.8595 56.1087 36.8619 56.0362 36.8619 55.9638C36.8595 54.7419 36.8595 53.5201 36.8595 52.2982Z" fill="#BCBEC0"/>
</g>
<defs>
<clipPath id="clip0">
<rect width="97" height="56" fill="white" transform="translate(0 0.5)"/>
</clipPath>
</defs>
</svg>
