<svg width="113" height="51" viewBox="0 0 113 51" fill="none" xmlns="http://www.w3.org/2000/svg">
<g clip-path="url(#clip0)">
<path d="M111.517 22.3249C111.517 24.4743 111.517 26.5749 111.517 28.7243C104.24 59.1582 77.8872 49.0461 56.1067 50.6094C31.7695 50.0232 3.99078 56.5691 0.5 26.0375C3.00746 -7.81593 36.932 1.61224 58.9091 0.24442C83.2463 0.879478 104.633 -5.71535 111.517 22.3249Z" fill="#D9D9D9"/>
<path d="M112.5 26.6724C112.254 26.7701 112.156 26.9655 112.156 27.2098C112.156 27.6983 112.058 28.1868 112.058 28.6753C111.959 30.727 111.32 32.6322 110.681 34.5374C109.698 37.3219 108.173 39.8621 106.207 42.0604C104.338 44.1121 102.323 45.9684 99.8644 47.3362C97.5536 48.6063 95.1936 49.5345 92.637 50.1696C90.6212 50.6581 88.6054 50.8535 86.5896 50.8535C82.0171 50.8535 77.7397 49.8765 73.8064 47.4339C69.9223 45.0403 66.8249 41.9627 64.6124 38.0058C61.0724 31.6552 60.4825 25.0115 62.4983 18.1236C63.4816 14.8506 65.1532 11.9684 67.3657 9.33048C68.8898 7.52301 70.6598 5.95979 72.5773 4.64083C75.5764 2.63796 78.8213 1.27014 82.4596 0.683932C84.8196 0.293128 87.2287 0.341978 89.5887 0.48853C90.8178 0.586231 92.1453 0.781634 93.4236 1.22129C94.4561 1.56324 95.5378 1.85635 96.5703 2.24715C98.0452 2.78451 99.3727 3.56612 100.7 4.34773C104.486 6.69255 107.387 9.86784 109.452 13.7759C110.435 15.6322 111.271 17.5374 111.664 19.638C111.812 20.4684 112.156 21.2989 112.058 22.1782C112.058 22.4713 112.205 22.6667 112.549 22.7155C112.5 24.0345 112.5 25.3535 112.5 26.6724Z" fill="#0BEE81"/>
<path d="M87.3762 35.6121C85.4095 35.5633 83.6396 35.2213 82.2138 33.9512C81.6238 33.4139 81.1321 32.8277 80.6896 32.1926C80.2963 31.6553 80.4929 31.1667 81.0829 30.8736C82.0663 30.3363 82.3121 30.3363 82.9021 31.2644C84.1312 33.1696 86.737 33.5604 88.6545 33.0719C89.392 32.8765 90.0803 32.5346 90.572 31.9484C91.2111 31.1667 91.0636 29.2616 90.3261 28.4311C89.7361 27.7961 88.9987 27.3076 88.212 26.9656C86.9337 26.3305 85.7045 25.6955 84.4262 25.1093C81.8204 23.8392 81.2304 20.8104 82.2138 18.4167C83.1971 16.0719 86.3437 15.2415 88.212 15.7788C89.5887 16.1696 90.9161 16.6581 91.8011 17.8305C92.0961 18.2213 92.1945 18.7587 91.9978 19.1495C91.752 19.5892 90.9653 20.0777 90.572 19.9311C90.3261 19.8334 90.0803 19.638 89.8837 19.4426C88.8512 18.319 87.5237 18.0259 86.0979 18.2213C85.2129 18.319 84.4754 18.8076 84.2296 19.6869C83.9837 20.615 84.0821 21.5432 84.8196 22.3248C85.557 23.1064 86.5895 23.4972 87.5237 23.9857C88.7037 24.6208 89.8837 25.207 91.0145 25.8909C93.8661 27.6984 93.8661 31.9484 91.8503 34.0978C90.9653 35.0748 89.7853 35.4656 88.507 35.6121C88.1628 35.5633 87.7203 35.6121 87.3762 35.6121Z" fill="black"/>
<path d="M17.5114 25.5978C17.5114 22.6668 17.5114 19.7358 17.5114 16.7559C17.5114 15.9743 17.6589 15.7789 18.2981 15.7789C20.8055 15.7789 23.2638 15.73 25.7713 15.9254C28.3279 16.072 30.4421 17.3909 32.0154 19.345C34.0803 21.934 34.7195 24.8651 33.8837 28.0892C33.1954 30.8248 31.4254 32.8277 29.0162 34.2444C27.9346 34.8794 26.6563 35.2702 25.378 35.3191C23.0672 35.3679 20.7072 35.3679 18.3964 35.3679C17.6097 35.3679 17.5606 35.2702 17.5606 34.4886C17.5114 31.5576 17.5114 28.5777 17.5114 25.5978ZM19.773 18.0748C19.5272 19.1007 19.5764 32.6323 19.8714 33.3651C21.543 33.3162 23.2638 33.2674 24.9846 33.1697C26.0663 33.1208 27.0496 32.7789 27.9838 32.2904C30.1962 31.1179 31.4254 29.2616 31.8679 26.8679C32.6054 22.9599 30.4912 19.5892 26.7546 18.4168C24.493 17.7329 22.133 18.2214 19.773 18.0748Z" fill="black"/>
</g>
<defs>
<clipPath id="clip0">
<rect width="112" height="51" fill="white" transform="translate(0.5)"/>
</clipPath>
</defs>
</svg>
