<svg width="1089" height="802" viewBox="0 0 1089 802" fill="none" xmlns="http://www.w3.org/2000/svg">
<path d="M1034 1.5C1034 0.947715 1033.55 0.5 1033 0.5C1032.45 0.5 1032 0.947715 1032 1.5H1034ZM67.7071 794.707C68.0976 794.317 68.0976 793.683 67.7071 793.293L61.3431 786.929C60.9526 786.538 60.3195 786.538 59.9289 786.929C59.5384 787.319 59.5384 787.953 59.9289 788.343L65.5858 794L59.9289 799.657C59.5384 800.047 59.5384 800.681 59.9289 801.071C60.3195 801.462 60.9526 801.462 61.3431 801.071L67.7071 794.707ZM64.91 792.98C64.3578 792.969 63.9014 793.408 63.8905 793.96C63.8797 794.512 64.3185 794.968 64.8707 794.979L64.91 792.98ZM56.4533 794.453C57.0023 794.513 57.4958 794.116 57.5554 793.567C57.6151 793.018 57.2183 792.525 56.6693 792.465L56.4533 794.453ZM52.5836 791.916C52.0384 791.828 51.5251 792.199 51.4372 792.744C51.3493 793.289 51.72 793.802 52.2652 793.89L52.5836 791.916ZM44.0028 792.059C44.5336 792.212 45.0876 791.906 45.2403 791.375C45.3929 790.844 45.0864 790.29 44.5556 790.137L44.0028 792.059ZM40.6543 788.871C40.1353 788.682 39.5615 788.949 39.3727 789.468C39.1838 789.987 39.4515 790.561 39.9705 790.75L40.6543 788.871ZM32.2318 787.254C32.7157 787.52 33.3238 787.344 33.59 786.86C33.8562 786.376 33.6797 785.768 33.1959 785.502L32.2318 787.254ZM29.6949 783.382C29.2349 783.077 28.6142 783.202 28.3087 783.662C28.0031 784.122 28.1283 784.743 28.5884 785.048L29.6949 783.382ZM21.9278 779.754C22.3293 780.133 22.9622 780.115 23.3415 779.714C23.7208 779.312 23.7028 778.679 23.3014 778.3L21.9278 779.754ZM20.4493 775.369C20.0809 774.957 19.4487 774.922 19.0373 775.291C18.6258 775.659 18.5908 776.291 18.9592 776.703L20.4493 775.369ZM13.8119 769.947C14.1123 770.41 14.7315 770.542 15.1949 770.242C15.6584 769.942 15.7905 769.322 15.4901 768.859L13.8119 769.947ZM13.3788 765.336C13.1113 764.853 12.5027 764.678 12.0195 764.946C11.5364 765.213 11.3616 765.822 11.6291 766.305L13.3788 765.336ZM7.99755 758.656C8.20481 759.167 8.78781 759.414 9.29974 759.207C9.81166 759 10.0586 758.417 9.85138 757.905L7.99755 758.656ZM8.40677 754.047C8.22632 753.525 7.6569 753.248 7.13492 753.429C6.61295 753.609 6.33609 754.179 6.51653 754.701L8.40677 754.047ZM4.1296 746.612C4.26313 747.148 4.80581 747.475 5.34171 747.341C5.87761 747.207 6.20379 746.665 6.07026 746.129L4.1296 746.612ZM5.14736 742.096C5.03415 741.556 4.50417 741.209 3.96361 741.323C3.42306 741.436 3.07662 741.966 3.18983 742.506L5.14736 742.096ZM1.74145 734.217C1.81946 734.764 2.32593 735.144 2.87268 735.066C3.41942 734.988 3.79941 734.482 3.7214 733.935L1.74145 734.217ZM3.19339 729.82C3.1306 729.271 2.63488 728.877 2.08618 728.94C1.53748 729.003 1.14357 729.498 1.20636 730.047L3.19339 729.82ZM0.458252 721.673C0.494554 722.224 0.970729 722.642 1.52182 722.605C2.07291 722.569 2.49023 722.093 2.45393 721.542L0.458252 721.673ZM2.22493 717.395C2.20014 716.844 1.73279 716.416 1.18106 716.441C0.629334 716.466 0.202158 716.933 0.226939 717.485L2.22493 717.395ZM0.00869144 709.112C0.0132684 709.665 0.464679 710.109 1.01694 710.104C1.56921 710.099 2.0132 709.648 2.00862 709.096L0.00869144 709.112ZM2 704.983C2 704.43 1.55228 703.983 1 703.983C0.447715 703.983 1.32715e-07 704.43 1.04324e-07 704.983L2 704.983ZM5.02511e-07 697.046C4.755e-07 697.598 0.447716 698.046 1 698.046C1.55229 698.046 2 697.598 2 697.046L5.02511e-07 697.046ZM2 693.137C2 692.585 1.55229 692.137 1 692.137C0.447716 692.137 7.17483e-07 692.585 6.91183e-07 693.137L2 693.137ZM1.05995e-06 685.166C1.03516e-06 685.718 0.447716 686.166 1 686.166C1.55229 686.166 2 685.718 2 685.166L1.05995e-06 685.166ZM2 681.259C2 680.707 1.55229 680.259 1 680.259C0.447717 680.259 1.25657e-06 680.707 1.23256e-06 681.259L2 681.259ZM1.56706e-06 673.293C1.5447e-06 673.846 0.447717 674.293 1 674.293C1.55229 674.293 2 673.846 2 673.293L1.56706e-06 673.293ZM2 669.376C2 668.824 1.55229 668.376 1 668.376C0.447717 668.376 1.74416e-06 668.824 1.72264e-06 669.376L2 669.376ZM2.01971e-06 661.423C1.99998e-06 661.976 0.447717 662.423 1 662.423C1.55229 662.423 2 661.976 2 661.423L2.01971e-06 661.423ZM2 657.503C2 656.951 1.55229 656.503 1 656.503C0.447717 656.503 2.17536e-06 656.951 2.15654e-06 657.503L2 657.503ZM2.41366e-06 649.555C2.39676e-06 650.107 0.447718 650.555 1 650.555C1.55229 650.555 2 650.107 2 649.555L2.41366e-06 649.555ZM2 645.636C2 645.084 1.55229 644.636 1 644.636C0.447718 644.636 2.54608e-06 645.084 2.53015e-06 645.636L2 645.636ZM2.7448e-06 637.689C2.73091e-06 638.241 0.447718 638.689 1 638.689C1.55229 638.689 2 638.241 2 637.689L2.7448e-06 637.689ZM2 633.767C2 633.214 1.55229 632.767 1 632.767C0.447718 632.767 2.8527e-06 633.214 2.83984e-06 633.767L2 633.767ZM3.00959e-06 625.826C2.99885e-06 626.379 0.447718 626.826 1 626.826C1.55229 626.826 2 626.379 2 625.826L3.00959e-06 625.826ZM2 621.879C2 621.327 1.55229 620.879 1 620.879C0.447718 620.879 3.09218e-06 621.327 3.08251e-06 621.879L2 621.879ZM3.20544e-06 613.968C3.19795e-06 614.52 0.447718 614.968 1 614.968C1.55229 614.968 2 614.52 2 613.968L3.20544e-06 613.968ZM2 609.998C2 609.446 1.55229 608.998 1 608.998C0.447719 608.998 3.26176e-06 609.446 3.25536e-06 609.998L2 609.998ZM3.33129e-06 602.098C3.32706e-06 602.651 0.447719 603.098 1 603.098C1.55229 603.098 2 602.651 2 602.098L3.33129e-06 602.098ZM2 598.124C2 597.572 1.55229 597.124 1 597.124C0.447719 597.124 3.36091e-06 597.572 3.35777e-06 598.124L2 598.124ZM3.38749e-06 590.217C3.38647e-06 590.769 0.447719 591.217 1 591.217C1.55229 591.217 2 590.769 2 590.217L3.38749e-06 590.217ZM2 586.257C2 585.705 1.55229 585.257 1 585.257C0.447719 585.257 3.39111e-06 585.705 3.39111e-06 586.257L2 586.257ZM3.37663e-06 578.344C3.37862e-06 578.897 0.447719 579.344 1 579.344C1.55229 579.344 2 578.897 2 578.344L3.37663e-06 578.344ZM2 574.392C2 573.84 1.55229 573.392 1 573.392C0.447719 573.392 3.356e-06 573.84 3.35894e-06 574.392L2 574.392ZM3.30379e-06 566.476C3.30852e-06 567.029 0.447719 567.476 1 567.476C1.55229 567.476 2 567.029 2 566.476L3.30379e-06 566.476ZM2 562.521C2 561.969 1.55229 561.521 1 561.521C0.447719 561.521 3.26137e-06 561.969 3.26693e-06 562.521L2 562.521ZM3.17609e-06 554.605C3.18317e-06 555.157 0.447718 555.605 1 555.605C1.55229 555.605 2 555.157 2 554.605L3.17609e-06 554.605ZM2 550.653C2 550.101 1.55229 549.653 1 549.653C0.447718 549.653 3.11513e-06 550.101 3.1229e-06 550.653L2 550.653ZM3.00247e-06 542.737C3.01146e-06 543.289 0.447718 543.737 1 543.737C1.55229 543.737 2 543.289 2 542.737L3.00247e-06 542.737ZM2 538.785C2 538.233 1.55229 537.785 1 537.785C0.447718 537.785 2.92663e-06 538.233 2.93616e-06 538.785L2 538.785ZM2.79293e-06 530.873C2.80337e-06 531.425 0.447718 531.873 1 531.873C1.55229 531.873 2 531.425 2 530.873L2.79293e-06 530.873ZM2 526.91C2 526.358 1.55229 525.91 1 525.91C0.447718 525.91 2.70592e-06 526.358 2.71672e-06 526.91L2 526.91ZM2.5576e-06 519.005C2.569e-06 519.557 0.447718 520.005 1 520.005C1.55229 520.005 2 519.557 2 519.005L2.5576e-06 519.005ZM2 515.026C2 514.473 1.55229 514.026 1 514.026C0.447718 514.026 2.46307e-06 514.473 2.47468e-06 515.026L2 515.026ZM2.30628e-06 507.13C2.31819e-06 507.683 0.447718 508.13 1 508.13C1.55229 508.13 2 507.683 2 507.13L2.30628e-06 507.13ZM2 503.159C2 502.607 1.55229 502.159 1 502.159C0.447717 502.159 2.20828e-06 502.607 2.22028e-06 503.159L2 503.159ZM2.04792e-06 495.249C2.05996e-06 495.802 0.447717 496.249 1 496.249C1.55229 496.249 2 495.802 2 495.249L2.04792e-06 495.249ZM2 491.3C2 490.748 1.55229 490.3 1 490.3C0.447717 490.3 1.94986e-06 490.748 1.96188e-06 491.3L2 491.3ZM1.7903e-06 483.365C1.80215e-06 483.917 0.447717 484.365 1 484.365C1.55229 484.365 2 483.917 2 483.365L1.7903e-06 483.365ZM2 479.436C2 478.884 1.55229 478.436 1 478.436C0.447717 478.436 1.69472e-06 478.884 1.70644e-06 479.436L2 479.436ZM1.53985e-06 471.482C1.55124e-06 472.034 0.447717 472.482 1 472.482C1.55229 472.482 2 472.034 2 471.482L1.53985e-06 471.482ZM2 467.57C2 467.017 1.55229 466.57 1 466.57C0.447717 466.57 1.44864e-06 467.017 1.45984e-06 467.57L2 467.57ZM1.30161e-06 459.604C1.31235e-06 460.157 0.447717 460.604 1 460.604C1.55229 460.604 2 460.157 2 459.604L1.30161e-06 459.604ZM2 455.7C2 455.147 1.55229 454.7 1 454.7C0.447716 454.7 1.21611e-06 455.147 1.22659e-06 455.7L2 455.7ZM1.07934e-06 447.736C1.08928e-06 448.288 0.447716 448.736 1 448.736C1.55229 448.736 2 448.288 2 447.736L1.07934e-06 447.736ZM2 443.826C2 443.273 1.55229 442.826 1 442.826C0.447716 442.826 1.0004e-06 443.273 1.01004e-06 443.826L2 443.826ZM8.75674e-07 435.878C8.847e-07 436.43 0.447716 436.878 1 436.878C1.55229 436.878 2 436.43 2 435.878L8.75674e-07 435.878ZM2 431.944C2 431.392 1.55229 430.944 1 430.944C0.447716 430.944 8.03794e-07 431.392 8.12504e-07 431.944L2 431.944ZM6.92296e-07 424.026C7.00353e-07 424.579 0.447716 425.026 1 425.026C1.55229 425.026 2 424.579 2 424.026L6.92296e-07 424.026ZM2 420.048C2 419.496 1.55229 419.048 1 419.048C0.447716 419.048 6.2775e-07 419.496 6.35471e-07 420.048L2 420.048ZM5.30193e-07 412.176C5.37241e-07 412.728 0.447716 413.176 1 413.176C1.55229 413.176 2 412.728 2 412.176L5.30193e-07 412.176ZM2 408.161C2 407.609 1.55229 407.161 1 407.161C0.447716 407.161 4.73516e-07 407.609 4.80219e-07 408.161L2 408.161ZM3.89819e-07 400.315C3.95842e-07 400.867 0.447716 401.315 1 401.315C1.55229 401.315 2 400.867 2 400.315L3.89819e-07 400.315ZM2 396.333C2 395.78 1.55229 395.333 1 395.333C0.447716 395.333 3.41954e-07 395.78 3.47632e-07 396.333L2 396.333ZM2.71276e-07 388.43C2.76271e-07 388.982 0.447716 389.43 1 389.43C1.55229 389.43 2 388.982 2 388.43L2.71276e-07 388.43ZM2 384.487C2 383.934 1.55228 383.487 1 383.487C0.447715 383.487 2.32163e-07 383.934 2.3682e-07 384.487L2 384.487ZM1.74456e-07 376.504C1.7843e-07 377.056 0.447715 377.504 1 377.504C1.55228 377.504 2 377.056 2 376.504L1.74456e-07 376.504ZM2 372.605C2 372.053 1.55228 371.605 1 371.605C0.447715 371.605 1.43914e-07 372.053 1.47559e-07 372.605L2 372.605ZM9.99416e-08 364.665C1.02923e-07 365.217 0.447715 365.665 1 365.665C1.55228 365.665 2 365.217 2 364.665L9.99416e-08 364.665ZM2 360.667C2 360.114 1.55228 359.667 1 359.667C0.447715 359.667 7.6907e-08 360.114 7.95577e-08 360.667L2 360.667ZM4.6498e-08 352.833C4.85106e-08 353.385 0.447715 353.833 1 353.833C1.55228 353.833 2 353.385 2 352.833L4.6498e-08 352.833ZM2 348.847C2 348.295 1.55228 347.847 1 347.847C0.447715 347.847 3.14382e-08 348.295 3.31309e-08 348.847L2 348.847ZM1.33628e-08 340.928C1.44298e-08 341.481 0.447715 341.928 1 341.928C1.55228 341.928 2 341.481 2 340.928L1.33628e-08 340.928ZM2 337.004C2 336.451 1.55228 336.004 1 336.004C0.447715 336.004 6.10483e-09 336.451 6.86675e-09 337.004L2 337.004ZM2.78937e-10 329.023C4.31189e-10 329.575 0.447715 330.023 1 330.023C1.55228 330.023 2 329.575 2 329.023L2.78937e-10 329.023ZM2.01255 324.897C2.01918 324.344 1.57687 323.891 1.02463 323.885C0.47238 323.878 0.0193245 324.32 0.0126967 324.873L2.01255 324.897ZM0.314994 316.632C0.280557 317.183 0.699484 317.658 1.25069 317.692C1.8019 317.726 2.27667 317.308 2.3111 316.756L0.314994 316.632ZM2.60709 312.848C2.65621 312.298 2.25009 311.812 1.7 311.763C1.1499 311.714 0.664141 312.12 0.615019 312.67L2.60709 312.848ZM1.58138 304.559C1.49919 305.105 1.87529 305.614 2.42143 305.696C2.96756 305.778 3.47692 305.402 3.55911 304.856L1.58138 304.559ZM4.22227 300.892C4.32251 300.349 3.9635 299.828 3.42039 299.727C2.87728 299.627 2.35573 299.986 2.25549 300.529L4.22227 300.892ZM3.98625 292.698C3.84752 293.232 4.16841 293.778 4.70299 293.917C5.23756 294.056 5.78339 293.735 5.92212 293.2L3.98625 292.698ZM7.02554 289.273C7.18578 288.745 6.88723 288.187 6.3587 288.026C5.83018 287.866 5.27182 288.165 5.11157 288.693L7.02554 289.273ZM7.75957 281.113C7.55509 281.626 7.80522 282.208 8.31826 282.412C8.83129 282.617 9.41296 282.367 9.61744 281.854L7.75957 281.113ZM11.2086 278.119C11.4372 277.616 11.2148 277.023 10.712 276.795C10.2092 276.566 9.6164 276.788 9.38787 277.291L11.2086 278.119ZM13.1053 270.068C12.8284 270.545 12.9913 271.157 13.4692 271.434C13.947 271.711 14.5589 271.548 14.8358 271.07L13.1053 270.068ZM16.9246 267.672C17.2261 267.209 17.0953 266.59 16.6325 266.288C16.1697 265.987 15.5502 266.118 15.2488 266.58L16.9246 267.672ZM20.0639 259.986C19.7146 260.414 19.7784 261.044 20.2062 261.393C20.6341 261.742 21.264 261.678 21.6132 261.251L20.0639 259.986ZM24.2058 258.245C24.5777 257.836 24.5482 257.204 24.1399 256.832C23.7316 256.46 23.0991 256.49 22.7272 256.898L24.2058 258.245ZM28.5504 251.161C28.1368 251.527 28.0981 252.159 28.4641 252.572C28.83 252.986 29.462 253.025 29.8757 252.659L28.5504 251.161ZM32.9168 250.107C33.349 249.763 33.4206 249.134 33.0767 248.702C32.7329 248.27 32.1037 248.198 31.6716 248.542L32.9168 250.107ZM38.3129 243.786C37.8486 244.085 37.7146 244.704 38.0136 245.168C38.3127 245.632 38.9315 245.766 39.3958 245.467L38.3129 243.786ZM42.7906 243.393C43.2684 243.116 43.4312 242.504 43.1543 242.026C42.8773 241.548 42.2654 241.385 41.7876 241.662L42.7906 243.393ZM49.0148 237.89C48.5148 238.125 48.2993 238.72 48.5337 239.22C48.768 239.72 49.3634 239.936 49.8635 239.701L49.0148 237.89ZM53.518 238.078C54.0271 237.864 54.2662 237.278 54.052 236.769C53.8379 236.26 53.2516 236.021 52.7425 236.235L53.518 238.078ZM60.3404 233.366C59.817 233.543 59.5359 234.11 59.7123 234.634C59.8888 235.157 60.4561 235.438 60.9795 235.262L60.3404 233.366ZM64.8261 234.036C65.355 233.878 65.655 233.32 65.4961 232.791C65.3373 232.262 64.7797 231.962 64.2508 232.121L64.8261 234.036ZM72.0523 230.036C71.5148 230.163 71.182 230.701 71.309 231.239C71.4359 231.776 71.9745 232.109 72.512 231.982L72.0523 230.036ZM76.4799 231.103C77.0207 230.991 77.3683 230.462 77.2563 229.921C77.1442 229.38 76.615 229.033 76.0742 229.145L76.4799 231.103ZM83.9961 227.71C83.4505 227.795 83.0773 228.307 83.1627 228.852C83.2481 229.398 83.7596 229.771 84.3053 229.686L83.9961 227.71ZM88.3065 229.106C88.8539 229.033 89.2385 228.53 89.1655 227.983C89.0925 227.435 88.5895 227.051 88.042 227.124L88.3065 229.106ZM96.0776 226.221C95.5276 226.272 95.1229 226.759 95.1736 227.309C95.2244 227.859 95.7113 228.264 96.2613 228.213L96.0776 226.221ZM100.263 227.882C100.813 227.841 101.227 227.362 101.186 226.811C101.146 226.26 100.667 225.846 100.116 225.887L100.263 227.882ZM108.239 225.431C107.688 225.453 107.258 225.918 107.28 226.469C107.301 227.021 107.766 227.451 108.318 227.429L108.239 225.431ZM112.302 227.303C112.854 227.29 113.291 226.831 113.278 226.279C113.264 225.727 112.806 225.29 112.254 225.304L112.302 227.303ZM120.411 225.225C119.859 225.223 119.409 225.669 119.407 226.221C119.404 226.773 119.85 227.223 120.402 227.225L120.411 225.225ZM124.394 227.269C124.946 227.279 125.402 226.839 125.411 226.286C125.421 225.734 124.981 225.279 124.429 225.269L124.394 227.269ZM132.503 225.507C131.951 225.484 131.486 225.913 131.463 226.465C131.44 227.017 131.869 227.483 132.421 227.505L132.503 225.507ZM136.486 227.696C137.037 227.724 137.508 227.301 137.537 226.749C137.565 226.198 137.142 225.727 136.59 225.698L136.486 227.696ZM144.615 226.201C144.064 226.161 143.585 226.575 143.545 227.126C143.505 227.677 143.919 228.156 144.47 228.196L144.615 226.201ZM148.49 228.506C149.041 228.552 149.524 228.142 149.569 227.592C149.614 227.041 149.204 226.558 148.654 226.513L148.49 228.506ZM156.732 227.248C156.183 227.193 155.693 227.594 155.638 228.144C155.583 228.693 155.984 229.183 156.534 229.238L156.732 227.248ZM160.517 229.651C161.066 229.71 161.559 229.312 161.618 228.763C161.677 228.214 161.28 227.721 160.731 227.662L160.517 229.651ZM168.787 228.591C168.239 228.524 167.74 228.914 167.673 229.462C167.605 230.01 167.995 230.509 168.543 230.576L168.787 228.591ZM172.548 231.082C173.095 231.153 173.597 230.767 173.668 230.219C173.739 229.671 173.353 229.17 172.805 229.098L172.548 231.082ZM180.787 230.187C180.24 230.109 179.733 230.489 179.655 231.035C179.577 231.582 179.957 232.089 180.504 232.167L180.787 230.187ZM184.504 232.75C185.05 232.831 185.559 232.454 185.64 231.908C185.721 231.362 185.344 230.853 184.798 230.772L184.504 232.75ZM192.786 232.006C192.241 231.919 191.728 232.29 191.641 232.836C191.554 233.381 191.925 233.894 192.47 233.981L192.786 232.006ZM196.44 234.627C196.985 234.717 197.5 234.349 197.59 233.804C197.68 233.259 197.311 232.744 196.766 232.654L196.44 234.627ZM204.751 234.013C204.207 233.918 203.689 234.282 203.594 234.826C203.498 235.37 203.862 235.888 204.406 235.983L204.751 234.013ZM208.372 236.687C208.916 236.784 209.435 236.423 209.533 235.879C209.631 235.335 209.269 234.816 208.725 234.718L208.372 236.687ZM216.663 236.176C216.12 236.074 215.597 236.432 215.495 236.975C215.393 237.517 215.751 238.04 216.293 238.142L216.663 236.176ZM220.26 238.894C220.802 238.998 221.326 238.643 221.43 238.1C221.534 237.558 221.179 237.034 220.636 236.93L220.26 238.894ZM228.566 238.478C228.025 238.371 227.498 238.722 227.391 239.264C227.283 239.806 227.635 240.332 228.177 240.44L228.566 238.478ZM232.129 241.231C232.671 241.341 233.198 240.99 233.308 240.449C233.417 239.908 233.066 239.38 232.525 239.271L232.129 241.231ZM240.437 240.891C239.897 240.779 239.367 241.126 239.255 241.667C239.143 242.208 239.49 242.737 240.031 242.85L240.437 240.891ZM243.982 243.675C244.523 243.789 245.053 243.443 245.166 242.902C245.28 242.362 244.934 241.832 244.394 241.718L243.982 243.675ZM252.295 243.398C251.755 243.282 251.223 243.626 251.107 244.166C250.991 244.706 251.334 245.238 251.874 245.354L252.295 243.398ZM255.812 246.204C256.351 246.321 256.884 245.979 257.001 245.439C257.118 244.899 256.775 244.367 256.236 244.25L255.812 246.204ZM264.133 245.978C263.594 245.859 263.06 246.199 262.941 246.739C262.822 247.278 263.163 247.812 263.703 247.931L264.133 245.978ZM267.645 248.803C268.184 248.923 268.718 248.583 268.838 248.043C268.957 247.504 268.617 246.97 268.078 246.85L267.645 248.803ZM275.934 248.604C275.395 248.483 274.86 248.822 274.739 249.361C274.618 249.9 274.957 250.435 275.496 250.556L275.934 248.604ZM279.451 251.445C279.989 251.567 280.524 251.228 280.646 250.689C280.767 250.151 280.429 249.615 279.89 249.494L279.451 251.445ZM287.772 251.275C287.234 251.153 286.698 251.491 286.576 252.03C286.454 252.568 286.792 253.104 287.33 253.226L287.772 251.275ZM291.245 254.114C291.784 254.236 292.32 253.898 292.442 253.36C292.564 252.821 292.227 252.286 291.688 252.163L291.245 254.114ZM299.586 253.956C299.047 253.834 298.512 254.171 298.39 254.71C298.267 255.248 298.605 255.784 299.144 255.906L299.586 253.956ZM303.082 256.799C303.621 256.921 304.156 256.584 304.278 256.045C304.4 255.506 304.063 254.971 303.524 254.849L303.082 256.799ZM311.355 256.618C310.816 256.497 310.281 256.835 310.16 257.374C310.038 257.913 310.377 258.448 310.916 258.569L311.355 256.618ZM314.893 259.463C315.432 259.584 315.966 259.245 316.087 258.706C316.208 258.167 315.869 257.632 315.33 257.511L314.893 259.463ZM323.195 259.263C322.656 259.144 322.122 259.484 322.003 260.024C321.883 260.563 322.224 261.097 322.763 261.216L323.195 259.263ZM326.663 262.075C327.203 262.194 327.736 261.852 327.854 261.313C327.973 260.774 327.631 260.24 327.092 260.122L326.663 262.075ZM335.045 261.849C334.505 261.733 333.974 262.077 333.858 262.617C333.742 263.157 334.086 263.688 334.626 263.804L335.045 261.849ZM338.552 264.642C339.092 264.756 339.623 264.411 339.738 263.871C339.852 263.33 339.507 262.8 338.967 262.685L338.552 264.642ZM346.873 264.334C346.332 264.223 345.804 264.572 345.693 265.113C345.582 265.654 345.931 266.182 346.472 266.293L346.873 264.334ZM350.448 267.1C350.99 267.209 351.517 266.858 351.626 266.316C351.734 265.775 351.384 265.248 350.842 265.139L350.448 267.1ZM358.681 266.677C358.139 266.574 357.615 266.929 357.511 267.472C357.408 268.014 357.763 268.538 358.306 268.642L358.681 266.677ZM362.345 269.403C362.888 269.504 363.41 269.145 363.511 268.602C363.612 268.059 363.253 267.537 362.71 267.437L362.345 269.403ZM370.589 268.849C370.045 268.755 369.528 269.12 369.434 269.664C369.34 270.209 369.705 270.726 370.249 270.82L370.589 268.849ZM374.257 271.495C374.802 271.585 375.317 271.216 375.406 270.671C375.496 270.126 375.127 269.612 374.582 269.522L374.257 271.495ZM382.558 270.765C382.012 270.685 381.504 271.063 381.424 271.609C381.344 272.156 381.722 272.664 382.268 272.744L382.558 270.765ZM386.211 273.3C386.758 273.374 387.262 272.991 387.336 272.444C387.411 271.896 387.027 271.393 386.48 271.318L386.211 273.3ZM394.549 272.313C394 272.253 393.506 272.649 393.446 273.198C393.385 273.747 393.782 274.241 394.331 274.301L394.549 272.313ZM398.247 274.703C398.796 274.755 399.284 274.352 399.337 273.802C399.389 273.252 398.985 272.764 398.436 272.712L398.247 274.703ZM406.561 273.335C406.01 273.304 405.537 273.726 405.506 274.277C405.475 274.828 405.896 275.301 406.448 275.332L406.561 273.335ZM410.404 275.513C410.956 275.532 411.419 275.1 411.438 274.548C411.457 273.996 411.025 273.534 410.473 273.515L410.404 275.513ZM418.549 273.565C417.997 273.579 417.561 274.038 417.575 274.59C417.588 275.142 418.047 275.578 418.599 275.564L418.549 273.565ZM422.553 275.405C423.104 275.377 423.528 274.906 423.5 274.355C423.472 273.803 423.002 273.379 422.45 273.407L422.553 275.405ZM430.432 272.86C429.882 272.907 429.474 273.391 429.521 273.942C429.568 274.492 430.052 274.9 430.602 274.853L430.432 272.86ZM434.609 274.478C435.159 274.422 435.559 273.932 435.503 273.382C435.447 272.833 434.957 272.433 434.407 272.488L434.609 274.478ZM442.355 271.558C441.808 271.63 441.423 272.133 441.495 272.68C441.568 273.228 442.07 273.613 442.618 273.54L442.355 271.558ZM446.606 272.984C447.153 272.903 447.531 272.395 447.451 271.849C447.37 271.303 446.862 270.925 446.316 271.005L446.606 272.984ZM454.218 269.735C453.674 269.83 453.31 270.348 453.405 270.892C453.5 271.436 454.018 271.8 454.562 271.705L454.218 269.735ZM458.528 270.988C459.071 270.887 459.428 270.364 459.327 269.821C459.225 269.279 458.703 268.921 458.16 269.023L458.528 270.988ZM466.01 267.456C465.47 267.57 465.125 268.101 465.239 268.641C465.353 269.181 465.884 269.527 466.424 269.412L466.01 267.456ZM470.365 268.556C470.904 268.435 471.243 267.901 471.123 267.362C471.003 266.823 470.468 266.483 469.929 266.604L470.365 268.556ZM477.725 264.779C477.188 264.911 476.86 265.452 476.991 265.988C477.122 266.525 477.664 266.853 478.2 266.722L477.725 264.779ZM482.107 265.747C482.642 265.61 482.965 265.066 482.829 264.531C482.693 263.996 482.148 263.672 481.613 263.808L482.107 265.747ZM489.362 261.761C488.829 261.907 488.515 262.457 488.661 262.99C488.806 263.522 489.356 263.836 489.889 263.691L489.362 261.761ZM493.764 262.614C494.295 262.464 494.605 261.912 494.455 261.38C494.305 260.849 493.752 260.539 493.221 260.689L493.764 262.614ZM500.921 258.454C500.392 258.612 500.091 259.169 500.249 259.698C500.406 260.227 500.963 260.528 501.493 260.371L500.921 258.454ZM505.342 259.209C505.87 259.047 506.167 258.488 506.006 257.96C505.845 257.432 505.286 257.134 504.757 257.296L505.342 259.209ZM512.412 254.904C511.886 255.072 511.596 255.635 511.764 256.161C511.932 256.687 512.494 256.977 513.02 256.81L512.412 254.904ZM516.848 255.577C517.373 255.406 517.66 254.842 517.489 254.317C517.319 253.791 516.755 253.504 516.229 253.675L516.848 255.577ZM523.846 251.156C523.322 251.332 523.041 251.899 523.217 252.422C523.393 252.946 523.96 253.228 524.483 253.052L523.846 251.156ZM528.29 251.763C528.813 251.585 529.092 251.017 528.914 250.494C528.736 249.971 528.168 249.692 527.645 249.87L528.29 251.763ZM535.231 247.252C534.71 247.434 534.435 248.004 534.617 248.525C534.799 249.047 535.369 249.322 535.891 249.14L535.231 247.252ZM539.679 247.81C540.2 247.626 540.473 247.055 540.289 246.534C540.106 246.013 539.535 245.74 539.014 245.924L539.679 247.81ZM546.579 243.232C546.059 243.419 545.789 243.991 545.975 244.511C546.161 245.031 546.734 245.302 547.254 245.115L546.579 243.232ZM551.033 243.756C551.553 243.568 551.822 242.995 551.634 242.476C551.447 241.956 550.874 241.687 550.354 241.874L551.033 243.756ZM557.9 239.139C557.381 239.328 557.114 239.902 557.303 240.421C557.491 240.94 558.065 241.208 558.584 241.019L557.9 239.139ZM562.364 239.642C562.883 239.453 563.15 238.879 562.961 238.36C562.771 237.841 562.197 237.574 561.678 237.763L562.364 239.642ZM569.218 235.01C568.699 235.2 568.432 235.774 568.621 236.293C568.811 236.812 569.385 237.079 569.904 236.889L569.218 235.01ZM573.683 235.51C574.202 235.321 574.469 234.747 574.28 234.228C574.091 233.709 573.517 233.442 572.998 233.631L573.683 235.51ZM580.547 230.888C580.028 231.076 579.759 231.649 579.947 232.168C580.135 232.688 580.709 232.956 581.228 232.768L580.547 230.888ZM585.003 231.406C585.522 231.219 585.792 230.646 585.605 230.126C585.418 229.607 584.845 229.337 584.326 229.524L585.003 231.406ZM591.898 226.819C591.377 227.004 591.104 227.575 591.289 228.096C591.473 228.617 592.044 228.889 592.565 228.705L591.898 226.819ZM596.337 227.376C596.858 227.193 597.133 226.623 596.95 226.102C596.768 225.58 596.197 225.306 595.676 225.489L596.337 227.376ZM603.282 222.858C602.76 223.036 602.48 223.604 602.659 224.127C602.837 224.65 603.405 224.929 603.928 224.751L603.282 222.858ZM607.725 223.466C608.248 223.291 608.53 222.724 608.355 222.2C608.179 221.677 607.612 221.394 607.089 221.57L607.725 223.466ZM614.718 219.06C614.193 219.229 613.904 219.793 614.073 220.318C614.242 220.844 614.806 221.133 615.332 220.964L614.718 219.06ZM619.171 219.741C619.698 219.576 619.991 219.014 619.825 218.488C619.66 217.961 619.098 217.668 618.571 217.833L619.171 219.741ZM626.265 215.481C625.736 215.638 625.434 216.195 625.591 216.724C625.748 217.254 626.304 217.556 626.834 217.399L626.265 215.481ZM630.677 216.278C631.208 216.126 631.515 215.573 631.363 215.042C631.211 214.511 630.657 214.204 630.126 214.356L630.677 216.278ZM637.895 212.219C637.361 212.359 637.042 212.906 637.183 213.44C637.323 213.974 637.87 214.293 638.404 214.153L637.895 212.219ZM642.267 213.161C642.803 213.027 643.129 212.484 642.995 211.948C642.861 211.412 642.318 211.087 641.782 211.221L642.267 213.161ZM649.618 209.373C649.078 209.492 648.738 210.026 648.857 210.565C648.976 211.104 649.509 211.445 650.049 211.326L649.618 209.373ZM653.987 210.49C654.528 210.379 654.877 209.851 654.767 209.31C654.656 208.769 654.128 208.42 653.587 208.53L653.987 210.49ZM661.518 207.056C660.973 207.147 660.605 207.662 660.696 208.207C660.786 208.752 661.302 209.12 661.846 209.029L661.518 207.056ZM665.774 208.414C666.321 208.335 666.699 207.827 666.619 207.28C666.539 206.734 666.032 206.356 665.485 206.435L665.774 208.414ZM673.502 205.448C672.952 205.502 672.551 205.992 672.605 206.542C672.66 207.091 673.15 207.493 673.699 207.438L673.502 205.448ZM677.691 207.094C678.242 207.054 678.656 206.575 678.616 206.024C678.576 205.473 678.097 205.059 677.546 205.099L677.691 207.094ZM685.625 204.741C685.073 204.749 684.632 205.203 684.64 205.755C684.647 206.308 685.101 206.749 685.654 206.741L685.625 204.741ZM689.614 206.748C690.166 206.759 690.622 206.319 690.632 205.767C690.642 205.215 690.203 204.759 689.651 204.749L689.614 206.748ZM697.745 205.188C697.195 205.137 696.708 205.542 696.658 206.092C696.607 206.642 697.012 207.129 697.562 207.179L697.745 205.188ZM701.524 207.624C702.072 207.697 702.575 207.313 702.648 206.765C702.72 206.218 702.336 205.715 701.788 205.642L701.524 207.624ZM709.775 207.063C709.236 206.941 708.701 207.28 708.58 207.819C708.458 208.358 708.797 208.893 709.336 209.014L709.775 207.063ZM713.111 209.945C713.645 210.085 714.191 209.765 714.331 209.231C714.471 208.697 714.152 208.15 713.618 208.01L713.111 209.945ZM721.234 210.17C720.705 210.01 720.147 210.308 719.987 210.837C719.826 211.366 720.125 211.924 720.654 212.084L721.234 210.17ZM724.416 213.255C724.943 213.423 725.505 213.133 725.673 212.607C725.841 212.081 725.551 211.518 725.025 211.35L724.416 213.255ZM732.522 213.844C732 213.664 731.43 213.942 731.25 214.464C731.07 214.986 731.348 215.555 731.87 215.735L732.522 213.844ZM735.581 217.034C736.101 217.219 736.673 216.947 736.857 216.426C737.042 215.906 736.77 215.334 736.25 215.149L735.581 217.034ZM743.683 217.851C743.166 217.658 742.59 217.923 742.398 218.44C742.206 218.958 742.47 219.534 742.988 219.726L743.683 217.851ZM746.653 221.096C747.169 221.291 747.746 221.03 747.941 220.513C748.136 219.996 747.875 219.42 747.358 219.225L746.653 221.096ZM754.731 222.04C754.216 221.841 753.637 222.097 753.438 222.613C753.24 223.128 753.496 223.707 754.011 223.906L754.731 222.04ZM757.701 225.336C758.216 225.536 758.795 225.281 758.995 224.766C759.196 224.252 758.941 223.672 758.426 223.472L757.701 225.336ZM765.757 226.341C765.243 226.139 764.662 226.392 764.46 226.906C764.258 227.42 764.511 228 765.025 228.202L765.757 226.341ZM768.717 229.655C769.231 229.857 769.811 229.605 770.014 229.091C770.216 228.577 769.964 227.997 769.45 227.794L768.717 229.655ZM776.772 230.68C776.258 230.478 775.677 230.73 775.475 231.244C775.272 231.758 775.525 232.339 776.039 232.541L776.772 230.68ZM779.703 233.983C780.217 234.185 780.798 233.932 781 233.418C781.202 232.904 780.949 232.324 780.435 232.122L779.703 233.983ZM787.79 235.002C787.275 234.801 786.695 235.056 786.495 235.57C786.294 236.085 786.549 236.665 787.063 236.865L787.79 235.002ZM790.716 238.285C791.231 238.484 791.81 238.228 792.01 237.713C792.209 237.198 791.954 236.619 791.439 236.42L790.716 238.285ZM798.805 239.252C798.289 239.055 797.711 239.314 797.514 239.83C797.317 240.346 797.576 240.924 798.092 241.12L798.805 239.252ZM801.766 242.514C802.283 242.71 802.86 242.449 803.055 241.932C803.25 241.415 802.989 240.838 802.473 240.643L801.766 242.514ZM809.859 243.401C809.34 243.21 808.765 243.475 808.574 243.993C808.383 244.511 808.648 245.086 809.166 245.278L809.859 243.401ZM812.864 246.633C813.383 246.822 813.957 246.555 814.146 246.036C814.335 245.517 814.067 244.943 813.548 244.754L812.864 246.633ZM820.963 247.414C820.442 247.23 819.871 247.503 819.687 248.024C819.503 248.545 819.776 249.116 820.297 249.3L820.963 247.414ZM824.019 250.604C824.541 250.786 825.111 250.509 825.292 249.988C825.473 249.466 825.197 248.896 824.676 248.715L824.019 250.604ZM832.127 251.256C831.603 251.08 831.037 251.363 830.862 251.887C830.686 252.411 830.969 252.977 831.493 253.152L832.127 251.256ZM835.241 254.393C835.766 254.564 836.331 254.278 836.502 253.753C836.674 253.228 836.388 252.664 835.863 252.492L835.241 254.393ZM843.358 254.89C842.831 254.725 842.27 255.019 842.105 255.546C841.94 256.073 842.234 256.634 842.761 256.799L843.358 254.89ZM846.536 257.963C847.065 258.124 847.623 257.826 847.784 257.297C847.945 256.769 847.647 256.21 847.119 256.049L846.536 257.963ZM854.661 258.281C854.13 258.129 853.576 258.435 853.424 258.966C853.271 259.497 853.578 260.051 854.109 260.204L854.661 258.281ZM857.911 261.279C858.443 261.427 858.995 261.115 859.143 260.583C859.291 260.051 858.979 259.5 858.447 259.352L857.911 261.279ZM866.041 261.393C865.507 261.255 864.961 261.576 864.822 262.111C864.684 262.645 865.005 263.191 865.539 263.329L866.041 261.393ZM869.37 264.303C869.906 264.437 870.448 264.11 870.582 263.574C870.715 263.039 870.389 262.496 869.853 262.362L869.37 264.303ZM877.5 264.187C876.961 264.065 876.425 264.402 876.303 264.94C876.18 265.479 876.517 266.015 877.055 266.137L877.5 264.187ZM880.913 266.996C881.453 267.113 881.986 266.77 882.103 266.23C882.22 265.691 881.877 265.158 881.337 265.041L880.913 266.996ZM889.036 266.622C888.494 266.517 887.969 266.872 887.864 267.414C887.759 267.956 888.114 268.481 888.656 268.586L889.036 266.622ZM892.541 269.314C893.084 269.413 893.605 269.052 893.703 268.509C893.802 267.965 893.441 267.445 892.898 267.346L892.541 269.314ZM900.646 268.654C900.1 268.569 899.589 268.942 899.504 269.488C899.419 270.034 899.792 270.545 900.338 270.63L900.646 268.654ZM904.248 271.214C904.794 271.291 905.301 270.911 905.379 270.365C905.457 269.818 905.077 269.311 904.53 269.234L904.248 271.214ZM912.321 270.237C911.772 270.174 911.276 270.567 911.214 271.116C911.151 271.665 911.544 272.161 912.093 272.224L912.321 270.237ZM916.024 272.646C916.574 272.701 917.064 272.3 917.119 271.751C917.174 271.201 916.773 270.711 916.223 270.656L916.024 272.646ZM924.048 271.322C923.497 271.283 923.019 271.699 922.981 272.25C922.942 272.801 923.358 273.279 923.909 273.317L924.048 271.322ZM927.856 273.562C928.408 273.591 928.879 273.168 928.908 272.617C928.938 272.065 928.515 271.594 927.964 271.564L927.856 273.562ZM935.808 271.86C935.256 271.848 934.799 272.286 934.787 272.839C934.775 273.391 935.214 273.848 935.766 273.859L935.808 271.86ZM939.722 273.909C940.275 273.911 940.724 273.465 940.726 272.913C940.729 272.361 940.283 271.911 939.73 271.909L939.722 273.909ZM947.575 271.801C947.023 271.818 946.59 272.28 946.608 272.832C946.625 273.384 947.087 273.817 947.639 273.8L947.575 271.801ZM951.594 273.637C952.146 273.61 952.571 273.14 952.543 272.588C952.515 272.037 952.045 271.612 951.494 271.64L951.594 273.637ZM959.317 271.096C958.767 271.145 958.361 271.631 958.41 272.181C958.459 272.731 958.944 273.137 959.494 273.088L959.317 271.096ZM963.435 272.699C963.984 272.639 964.381 272.145 964.321 271.596C964.261 271.047 963.768 270.651 963.219 270.71L963.435 272.699ZM970.994 269.703C970.448 269.785 970.071 270.294 970.154 270.841C970.236 271.387 970.745 271.763 971.291 271.68L970.994 269.703ZM975.201 271.05C975.745 270.956 976.11 270.439 976.017 269.895C975.923 269.35 975.406 268.985 974.862 269.079L975.201 271.05ZM982.557 267.584C982.018 267.701 981.675 268.233 981.792 268.773C981.909 269.313 982.441 269.655 982.981 269.538L982.557 267.584ZM986.84 268.657C987.377 268.528 987.708 267.989 987.579 267.451C987.45 266.914 986.91 266.584 986.373 266.712L986.84 268.657ZM993.955 264.713C993.424 264.866 993.118 265.42 993.271 265.951C993.423 266.482 993.978 266.788 994.508 266.635L993.955 264.713ZM998.297 265.499C998.824 265.334 999.118 264.773 998.953 264.246C998.788 263.719 998.227 263.425 997.7 263.59L998.297 265.499ZM1005.13 261.08C1004.61 261.268 1004.34 261.842 1004.53 262.361C1004.72 262.88 1005.3 263.148 1005.81 262.959L1005.13 261.08ZM1009.51 261.566C1010.03 261.366 1010.28 260.786 1010.08 260.272C1009.88 259.757 1009.3 259.502 1008.79 259.703L1009.51 261.566ZM1016.03 256.685C1015.52 256.909 1015.3 257.5 1015.52 258.005C1015.74 258.51 1016.34 258.737 1016.84 258.513L1016.03 256.685ZM1020.43 256.869C1020.93 256.634 1021.14 256.038 1020.91 255.538C1020.67 255.039 1020.08 254.825 1019.58 255.06L1020.43 256.869ZM1026.59 251.55C1026.11 251.809 1025.92 252.414 1026.18 252.902C1026.44 253.39 1027.04 253.576 1027.53 253.318L1026.59 251.55ZM1031 251.431C1031.48 251.162 1031.66 250.552 1031.39 250.07C1031.12 249.588 1030.51 249.415 1030.03 249.685L1031 251.431ZM1036.78 245.708C1036.31 245.999 1036.17 246.615 1036.46 247.085C1036.75 247.555 1037.37 247.7 1037.84 247.409L1036.78 245.708ZM1041.27 245.232C1041.73 244.931 1041.86 244.311 1041.56 243.848C1041.26 243.385 1040.64 243.254 1040.18 243.556L1041.27 245.232ZM1046.66 239.111C1046.22 239.434 1046.12 240.059 1046.44 240.507C1046.76 240.955 1047.39 241.056 1047.84 240.733L1046.66 239.111ZM1051.02 238.368C1051.46 238.033 1051.54 237.406 1051.21 236.967C1050.87 236.528 1050.25 236.443 1049.81 236.778L1051.02 238.368ZM1055.9 231.844C1055.48 232.204 1055.44 232.836 1055.8 233.254C1056.16 233.673 1056.79 233.72 1057.21 233.36L1055.9 231.844ZM1060.2 230.696C1060.61 230.323 1060.63 229.69 1060.26 229.283C1059.89 228.877 1059.25 228.85 1058.85 229.224L1060.2 230.696ZM1064.38 223.77C1064 224.172 1064.02 224.805 1064.42 225.184C1064.82 225.563 1065.46 225.545 1065.83 225.143L1064.38 223.77ZM1068.57 222.128C1068.93 221.712 1068.89 221.08 1068.47 220.717C1068.06 220.355 1067.42 220.398 1067.06 220.814L1068.57 222.128ZM1071.93 214.728C1071.61 215.174 1071.7 215.8 1072.15 216.126C1072.59 216.452 1073.22 216.355 1073.55 215.909L1071.93 214.728ZM1075.84 212.623C1076.14 212.163 1076.02 211.542 1075.56 211.237C1075.1 210.932 1074.48 211.057 1074.17 211.518L1075.84 212.623ZM1078.16 204.814C1077.9 205.302 1078.09 205.907 1078.58 206.166C1079.07 206.425 1079.67 206.239 1079.93 205.751L1078.16 204.814ZM1081.7 202.199C1081.93 201.699 1081.72 201.104 1081.22 200.87C1080.72 200.637 1080.12 200.853 1079.89 201.353L1081.7 202.199ZM1082.81 194.126C1082.63 194.648 1082.91 195.217 1083.43 195.397C1083.95 195.576 1084.52 195.299 1084.7 194.776L1082.81 194.126ZM1085.91 190.935C1086.06 190.404 1085.75 189.851 1085.22 189.699C1084.69 189.547 1084.14 189.855 1083.99 190.386L1085.91 190.935ZM1085.73 182.792C1085.63 183.335 1086 183.854 1086.54 183.949C1087.09 184.045 1087.6 183.682 1087.7 183.138L1085.73 182.792ZM1088.29 179.184C1088.36 178.636 1087.97 178.136 1087.42 178.068C1086.87 178 1086.37 178.389 1086.31 178.937L1088.29 179.184ZM1086.9 171.147C1086.88 171.699 1087.32 172.16 1087.87 172.176C1088.42 172.192 1088.88 171.757 1088.9 171.205L1086.9 171.147ZM1088.92 167.215C1088.92 166.663 1088.46 166.222 1087.91 166.23C1087.36 166.238 1086.92 166.692 1086.92 167.244L1088.92 167.215ZM1086.49 159.434C1086.54 159.983 1087.03 160.387 1087.58 160.334C1088.13 160.282 1088.53 159.794 1088.48 159.244L1086.49 159.434ZM1088.03 155.268C1087.95 154.721 1087.45 154.336 1086.9 154.408C1086.36 154.48 1085.97 154.983 1086.04 155.53L1088.03 155.268ZM1084.76 147.796C1084.87 148.338 1085.39 148.689 1085.93 148.582C1086.48 148.474 1086.83 147.948 1086.72 147.406L1084.76 147.796ZM1085.89 143.522C1085.77 142.983 1085.23 142.647 1084.69 142.77C1084.15 142.893 1083.82 143.43 1083.94 143.968L1085.89 143.522ZM1081.99 136.356C1082.14 136.888 1082.69 137.196 1083.22 137.046C1083.75 136.896 1084.06 136.343 1083.91 135.811L1081.99 136.356ZM1082.78 131.994C1082.62 131.466 1082.06 131.169 1081.53 131.332C1081.01 131.494 1080.71 132.054 1080.87 132.582L1082.78 131.994ZM1078.41 125.109C1078.59 125.631 1079.16 125.905 1079.68 125.722C1080.2 125.539 1080.48 124.969 1080.3 124.448L1078.41 125.109ZM1078.95 120.708C1078.76 120.19 1078.18 119.925 1077.66 120.117C1077.15 120.308 1076.88 120.884 1077.07 121.402L1078.95 120.708ZM1074.23 114.05C1074.43 114.562 1075.02 114.81 1075.53 114.603C1076.04 114.397 1076.29 113.814 1076.08 113.302L1074.23 114.05ZM1074.58 109.637C1074.37 109.128 1073.78 108.887 1073.27 109.1C1072.76 109.312 1072.52 109.898 1072.73 110.408L1074.58 109.637ZM1069.62 103.158C1069.84 103.663 1070.43 103.892 1070.94 103.669C1071.44 103.446 1071.67 102.856 1071.45 102.35L1069.62 103.158ZM1069.83 98.7297C1069.6 98.2263 1069.01 98.0023 1068.51 98.2295C1068.01 98.4567 1067.78 99.0489 1068.01 99.5523L1069.83 98.7297ZM1064.71 92.3768C1064.95 92.8773 1065.54 93.0937 1066.04 92.8601C1066.54 92.6266 1066.76 92.0315 1066.52 91.5311L1064.71 92.3768ZM1064.84 87.9456C1064.6 87.4461 1064.01 87.2325 1063.51 87.4683C1063.01 87.7041 1062.8 88.3001 1063.03 88.7995L1064.84 87.9456ZM1059.63 81.6636C1059.87 82.1617 1060.47 82.3721 1060.97 82.1336C1061.47 81.895 1061.68 81.2979 1061.44 80.7998L1059.63 81.6636ZM1059.73 77.2293C1059.49 76.7314 1058.89 76.5216 1058.39 76.7606C1057.89 76.9996 1057.68 77.597 1057.92 78.0949L1059.73 77.2293ZM1054.5 70.9582C1054.74 71.4565 1055.34 71.6675 1055.84 71.4294C1056.33 71.1914 1056.54 70.5944 1056.31 70.0961L1054.5 70.9582ZM1054.61 66.5388C1054.38 66.0398 1053.78 65.8271 1053.28 66.0637C1052.78 66.3004 1052.57 66.8968 1052.81 67.3958L1054.61 66.5388ZM1049.44 60.2214C1049.67 60.7228 1050.27 60.9414 1050.77 60.7098C1051.27 60.4781 1051.49 59.8839 1051.26 59.3826L1049.44 60.2214ZM1049.61 55.7831C1049.38 55.2801 1048.79 55.0571 1048.29 55.2851C1047.78 55.5131 1047.56 56.1057 1047.79 56.6087L1049.61 55.7831ZM1044.58 49.3568C1044.8 49.8642 1045.39 50.0988 1045.9 49.8808C1046.4 49.6628 1046.64 49.0747 1046.42 48.5672L1044.58 49.3568ZM1044.89 44.9396C1044.68 44.4295 1044.09 44.1874 1043.58 44.3989C1043.07 44.6105 1042.83 45.1956 1043.04 45.7057L1044.89 44.9396ZM1040.11 38.3228C1040.31 38.8396 1040.88 39.1004 1041.4 38.9054C1041.92 38.7104 1042.18 38.1334 1041.98 37.6167L1040.11 38.3228ZM1040.63 33.9188C1040.44 33.3983 1039.87 33.1259 1039.35 33.3105C1038.83 33.4951 1038.56 34.0667 1038.74 34.5872L1040.63 33.9188ZM1036.26 27.0234C1036.42 27.5525 1036.98 27.8528 1037.51 27.6943C1038.03 27.5357 1038.34 26.9783 1038.18 26.4493L1036.26 27.0234ZM1037.11 22.6857C1036.97 22.1521 1036.42 21.835 1035.89 21.9775C1035.35 22.1199 1035.03 22.668 1035.18 23.2016L1037.11 22.6857ZM1033.4 15.4329C1033.5 15.9756 1034.02 16.3325 1034.56 16.2301C1035.11 16.1277 1035.46 15.6047 1035.36 15.062L1033.4 15.4329ZM1034.72 11.1802C1034.64 10.6334 1034.13 10.253 1033.59 10.3306C1033.04 10.4082 1032.66 10.9143 1032.74 11.4611L1034.72 11.1802ZM1032.03 3.48587C1032.05 4.03788 1032.51 4.47133 1033.06 4.45401C1033.61 4.43669 1034.05 3.97516 1034.03 3.42314L1032.03 3.48587ZM67 793C66.2966 793 65.5999 792.993 64.91 792.98L64.8707 794.979C65.574 794.993 66.2837 795 67 795V793ZM56.6693 792.465C55.2761 792.314 53.9144 792.13 52.5836 791.916L52.2652 793.89C53.6311 794.111 55.027 794.298 56.4533 794.453L56.6693 792.465ZM44.5556 790.137C43.2185 789.753 41.9183 789.33 40.6543 788.871L39.9705 790.75C41.2788 791.226 42.6228 791.663 44.0028 792.059L44.5556 790.137ZM33.1959 785.502C31.9891 784.838 30.8224 784.131 29.6949 783.382L28.5884 785.048C29.7626 785.828 30.9768 786.563 32.2318 787.254L33.1959 785.502ZM23.3014 778.3C22.3127 777.366 21.3623 776.389 20.4493 775.369L18.9592 776.703C19.9088 777.764 20.8981 778.781 21.9278 779.754L23.3014 778.3ZM15.4901 768.859C14.7538 767.723 14.0503 766.549 13.3788 765.336L11.6291 766.305C12.3223 767.557 13.0496 768.771 13.8119 769.947L15.4901 768.859ZM9.85138 757.905C9.34369 756.651 8.86231 755.365 8.40677 754.047L6.51653 754.701C6.98294 756.05 7.4764 757.368 7.99755 758.656L9.85138 757.905ZM6.07026 746.129C5.74179 744.811 5.43429 743.466 5.14736 742.096L3.18983 742.506C3.48172 743.9 3.79481 745.269 4.1296 746.612L6.07026 746.129ZM3.7214 733.935C3.52869 732.584 3.3528 731.213 3.19339 729.82L1.20636 730.047C1.36779 731.458 1.54604 732.848 1.74145 734.217L3.7214 733.935ZM2.45393 721.542C2.36404 720.177 2.28779 718.795 2.22493 717.395L0.226939 717.485C0.290411 718.898 0.367421 720.294 0.458252 721.673L2.45393 721.542ZM2.00862 709.096C2.00287 708.401 2 707.702 2 707L0 707C-3.68199e-08 707.708 0.00288727 708.412 0.00869144 709.112L2.00862 709.096ZM2 707C2 706.325 2 705.653 2 704.983L1.04324e-07 704.983C6.98706e-08 705.653 3.50969e-08 706.325 0 707L2 707ZM2 697.046C2 695.735 2 694.432 2 693.137L6.91183e-07 693.137C6.29539e-07 694.432 5.66654e-07 695.735 5.02511e-07 697.046L2 697.046ZM2 685.166C2 683.855 2 682.553 2 681.259L1.23256e-06 681.259C1.17631e-06 682.553 1.11878e-06 683.855 1.05995e-06 685.166L2 685.166ZM2 673.293C2 671.979 2 670.674 2 669.376L1.72264e-06 669.376C1.67211e-06 670.674 1.62026e-06 671.979 1.56706e-06 673.293L2 673.293ZM2 661.423C2 660.108 2 658.802 2 657.503L2.15654e-06 657.503C2.1123e-06 658.802 2.0667e-06 660.108 2.01971e-06 661.423L2 661.423ZM2 649.555C2 648.241 2 646.935 2 645.636L2.53015e-06 645.636C2.49271e-06 646.935 2.45389e-06 648.241 2.41366e-06 649.555L2 649.555ZM2 637.689C2 636.374 2 635.067 2 633.767L2.83984e-06 633.767C2.80955e-06 635.067 2.77789e-06 636.374 2.7448e-06 637.689L2 637.689ZM2 625.826C2 624.504 2 623.188 2 621.879L3.08251e-06 621.879C3.0596e-06 623.188 3.03531e-06 624.504 3.00959e-06 625.826L2 625.826ZM2 613.968C2 612.638 2 611.315 2 609.998L3.25536e-06 609.998C3.2401e-06 611.315 3.22348e-06 612.638 3.20544e-06 613.968L2 613.968ZM2 602.098C2 600.769 2 599.444 2 598.124L3.35777e-06 598.124C3.35027e-06 599.444 3.34145e-06 600.769 3.33129e-06 602.098L2 602.098ZM2 590.217C2 588.893 2 587.574 2 586.257L3.39111e-06 586.257C3.39114e-06 587.574 3.38994e-06 588.893 3.38749e-06 590.217L2 590.217ZM2 578.344C2 577.025 2 575.708 2 574.392L3.35894e-06 574.392C3.36595e-06 575.708 3.37186e-06 577.025 3.37663e-06 578.344L2 578.344ZM2 566.476C2 565.158 2 563.84 2 562.521L3.26693e-06 562.521C3.2802e-06 563.84 3.2925e-06 565.158 3.30379e-06 566.476L2 566.476ZM2 554.605C2 553.289 2 551.972 2 550.653L3.1229e-06 550.653C3.14146e-06 551.972 3.15921e-06 553.289 3.17609e-06 554.605L2 554.605ZM2 542.737C2 541.422 2 540.105 2 538.785L2.93616e-06 538.785C2.95894e-06 540.105 2.98106e-06 541.422 3.00247e-06 542.737L2 542.737ZM2 530.873C2 529.556 2 528.236 2 526.91L2.71672e-06 526.91C2.74265e-06 528.236 2.76807e-06 529.556 2.79293e-06 530.873L2 530.873ZM2 519.005C2 517.684 2 516.358 2 515.026L2.47468e-06 515.026C2.5027e-06 516.358 2.53035e-06 517.684 2.5576e-06 519.005L2 519.005ZM2 507.13C2 505.813 2 504.49 2 503.159L2.22028e-06 503.159C2.24919e-06 504.49 2.27787e-06 505.813 2.30628e-06 507.13L2 507.13ZM2 495.249C2 493.94 2 492.624 2 491.3L1.96188e-06 491.3C1.99067e-06 492.624 2.01937e-06 493.94 2.04792e-06 495.249L2 495.249ZM2 483.365C2 482.063 2 480.754 2 479.436L1.70644e-06 479.436C1.73441e-06 480.754 1.76237e-06 482.063 1.7903e-06 483.365L2 483.365ZM2 471.482C2 470.186 2 468.882 2 467.57L1.45984e-06 467.57C1.48644e-06 468.882 1.51312e-06 470.186 1.53985e-06 471.482L2 471.482ZM2 459.604C2 458.311 2 457.01 2 455.7L1.22659e-06 455.7C1.25146e-06 457.01 1.27648e-06 458.311 1.30161e-06 459.604L2 459.604ZM2 447.736C2 446.441 2 445.138 2 443.826L1.01004e-06 443.826C1.03295e-06 445.138 1.05606e-06 446.441 1.07934e-06 447.736L2 447.736ZM2 435.878C2 434.575 2 433.264 2 431.944L8.12504e-07 431.944C8.3332e-07 433.264 8.54383e-07 434.575 8.75674e-07 435.878L2 435.878ZM2 424.026C2 422.709 2 421.383 2 420.048L6.35471e-07 420.048C6.54133e-07 421.383 6.7308e-07 422.709 6.92296e-07 424.026L2 424.026ZM2 412.176C2 410.846 2 409.508 2 408.161L4.80219e-07 408.161C4.96564e-07 409.508 5.13228e-07 410.846 5.30193e-07 412.176L2 412.176ZM2 400.315C2 398.996 2 397.669 2 396.333L3.47632e-07 396.333C3.61367e-07 397.669 3.75434e-07 398.996 3.89819e-07 400.315L2 400.315ZM2 388.43C2 387.124 2 385.809 2 384.487L2.3682e-07 384.487C2.47971e-07 385.809 2.5946e-07 387.124 2.71276e-07 388.43L2 388.43ZM2 376.504C2 375.212 2 373.912 2 372.605L1.47559e-07 372.605C1.56189e-07 373.912 1.65158e-07 375.212 1.74456e-07 376.504L2 376.504ZM2 364.665C2 363.34 2 362.007 2 360.667L7.95577e-08 360.667C8.59928e-08 362.007 9.27908e-08 363.34 9.99416e-08 364.665L2 364.665ZM2 352.833C2 351.512 2 350.183 2 348.847L3.31309e-08 348.847C3.72261e-08 350.183 4.16848e-08 351.512 4.6498e-08 352.833L2 352.833ZM2 340.928C2 339.627 2 338.319 2 337.004L6.86675e-09 337.004C8.68152e-09 338.319 1.08495e-08 339.627 1.33628e-08 340.928L2 340.928ZM2 329.023C2 328.351 2 327.676 2 327H0C0 327.676 0 328.351 2.78937e-10 329.023L2 329.023ZM2 327C2 326.294 2.00419 325.593 2.01255 324.897L0.0126967 324.873C0.00424035 325.577 0 326.286 0 327H2ZM2.3111 316.756C2.39361 315.436 2.49235 314.133 2.60709 312.848L0.615019 312.67C0.498662 313.973 0.398589 315.294 0.314994 316.632L2.3111 316.756ZM3.55911 304.856C3.76114 303.514 3.98229 302.192 4.22227 300.892L2.25549 300.529C2.01143 301.852 1.78663 303.195 1.58138 304.559L3.55911 304.856ZM5.92212 293.2C6.26814 291.867 6.63608 290.558 7.02554 289.273L5.11157 288.693C4.71416 290.004 4.33893 291.339 3.98625 292.698L5.92212 293.2ZM9.61744 281.854C10.1243 280.582 10.6548 279.337 11.2086 278.119L9.38787 277.291C8.82084 278.539 8.27793 279.813 7.75957 281.113L9.61744 281.854ZM14.8358 271.07C15.508 269.91 16.2044 268.778 16.9246 267.672L15.2488 266.58C14.5095 267.715 13.7948 268.878 13.1053 270.068L14.8358 271.07ZM21.6132 261.251C22.4533 260.221 23.3177 259.22 24.2058 258.245L22.7272 256.898C21.8149 257.899 20.9269 258.929 20.0639 259.986L21.6132 261.251ZM29.8757 252.659C30.8664 251.782 31.8803 250.932 32.9168 250.107L31.6716 248.542C30.6081 249.388 29.5675 250.261 28.5504 251.161L29.8757 252.659ZM39.3958 245.467C40.5065 244.752 41.6382 244.06 42.7906 243.393L41.7876 241.662C40.6088 242.345 39.4504 243.053 38.3129 243.786L39.3958 245.467ZM49.8635 239.701C51.0633 239.139 52.2816 238.598 53.518 238.078L52.7425 236.235C51.4821 236.765 50.2394 237.317 49.0148 237.89L49.8635 239.701ZM60.9795 235.262C62.2457 234.835 63.5281 234.426 64.8261 234.036L64.2508 232.121C62.9319 232.517 61.6283 232.932 60.3404 233.366L60.9795 235.262ZM72.512 231.982C73.8211 231.673 75.1438 231.38 76.4799 231.103L76.0742 229.145C74.7205 229.425 73.3798 229.722 72.0523 230.036L72.512 231.982ZM84.3053 229.686C85.6278 229.479 86.9616 229.286 88.3065 229.106L88.042 227.124C86.6826 227.305 85.3338 227.5 83.9961 227.71L84.3053 229.686ZM96.2613 228.213C97.5857 228.091 98.9196 227.98 100.263 227.882L100.116 225.887C98.7609 225.987 97.4147 226.098 96.0776 226.221L96.2613 228.213ZM108.318 227.429C109.639 227.377 110.967 227.335 112.302 227.303L112.254 225.304C110.908 225.336 109.57 225.378 108.239 225.431L108.318 227.429ZM120.402 227.225C121.726 227.231 123.057 227.246 124.394 227.269L124.429 225.269C123.083 225.246 121.744 225.231 120.411 225.225L120.402 227.225ZM132.421 227.505C133.77 227.561 135.125 227.624 136.486 227.696L136.59 225.698C135.223 225.627 133.86 225.563 132.503 225.507L132.421 227.505ZM144.47 228.196C145.806 228.292 147.146 228.396 148.49 228.506L148.654 226.513C147.303 226.402 145.957 226.298 144.615 226.201L144.47 228.196ZM156.534 229.238C157.858 229.37 159.186 229.507 160.517 229.651L160.731 227.662C159.394 227.518 158.062 227.38 156.732 227.248L156.534 229.238ZM168.543 230.576C169.875 230.74 171.21 230.908 172.548 231.082L172.805 229.098C171.463 228.924 170.123 228.755 168.787 228.591L168.543 230.576ZM180.504 232.167C181.835 232.357 183.168 232.551 184.504 232.75L184.798 230.772C183.459 230.572 182.122 230.377 180.787 230.187L180.504 232.167ZM192.47 233.981C193.792 234.193 195.115 234.408 196.44 234.627L196.766 232.654C195.438 232.434 194.112 232.219 192.786 232.006L192.47 233.981ZM204.406 235.983C205.727 236.215 207.049 236.449 208.372 236.687L208.725 234.718C207.4 234.48 206.075 234.245 204.751 234.013L204.406 235.983ZM216.293 238.142C217.615 238.39 218.937 238.641 220.26 238.894L220.636 236.93C219.311 236.676 217.987 236.425 216.663 236.176L216.293 238.142ZM228.177 240.44C229.494 240.702 230.812 240.965 232.129 241.231L232.525 239.271C231.206 239.005 229.886 238.74 228.566 238.478L228.177 240.44ZM240.031 242.85C241.348 243.123 242.666 243.399 243.982 243.675L244.394 241.718C243.076 241.441 241.757 241.165 240.437 240.891L240.031 242.85ZM251.874 245.354C253.188 245.636 254.5 245.92 255.812 246.204L256.236 244.25C254.923 243.965 253.61 243.681 252.295 243.398L251.874 245.354ZM263.703 247.931C265.018 248.221 266.332 248.512 267.645 248.803L268.078 246.85C266.765 246.559 265.45 246.268 264.133 245.978L263.703 247.931ZM275.496 250.556C276.816 250.852 278.135 251.149 279.451 251.445L279.89 249.494C278.574 249.197 277.255 248.901 275.934 248.604L275.496 250.556ZM287.33 253.226C288.638 253.522 289.943 253.818 291.245 254.114L291.688 252.163C290.386 251.868 289.08 251.572 287.772 251.275L287.33 253.226ZM299.144 255.906C300.46 256.205 301.773 256.503 303.082 256.799L303.524 254.849C302.215 254.552 300.902 254.254 299.586 253.956L299.144 255.906ZM310.916 258.569C312.246 258.869 313.572 259.167 314.893 259.463L315.33 257.511C314.01 257.215 312.685 256.917 311.355 256.618L310.916 258.569ZM322.763 261.216C324.068 261.505 325.368 261.791 326.663 262.075L327.092 260.122C325.798 259.838 324.499 259.552 323.195 259.263L322.763 261.216ZM334.626 263.804C335.941 264.087 337.25 264.366 338.552 264.642L338.967 262.685C337.666 262.41 336.359 262.131 335.045 261.849L334.626 263.804ZM346.472 266.293C347.805 266.566 349.131 266.835 350.448 267.1L350.842 265.139C349.527 264.875 348.204 264.606 346.873 264.334L346.472 266.293ZM358.306 268.642C359.662 268.901 361.008 269.155 362.345 269.403L362.71 267.437C361.377 267.189 360.034 266.936 358.681 266.677L358.306 268.642ZM370.249 270.82C371.597 271.052 372.933 271.277 374.257 271.495L374.582 269.522C373.263 269.305 371.932 269.08 370.589 268.849L370.249 270.82ZM382.268 272.744C383.596 272.938 384.91 273.124 386.211 273.3L386.48 271.318C385.186 271.143 383.879 270.958 382.558 270.765L382.268 272.744ZM394.331 274.301C395.652 274.447 396.958 274.58 398.247 274.703L398.436 272.712C397.157 272.59 395.862 272.457 394.549 272.313L394.331 274.301ZM406.448 275.332C407.789 275.408 409.108 275.469 410.404 275.513L410.473 273.515C409.192 273.471 407.888 273.411 406.561 273.335L406.448 275.332ZM418.599 275.564C419.254 275.548 419.902 275.526 420.542 275.499L420.458 273.501C419.829 273.528 419.193 273.549 418.549 273.565L418.599 275.564ZM420.542 275.499C421.212 275.471 421.882 275.439 422.553 275.405L422.45 273.407C421.786 273.442 421.121 273.473 420.458 273.501L420.542 275.499ZM430.602 274.853C431.938 274.739 433.273 274.614 434.609 274.478L434.407 272.488C433.082 272.623 431.756 272.747 430.432 272.86L430.602 274.853ZM442.618 273.54C443.947 273.365 445.277 273.179 446.606 272.984L446.316 271.005C444.995 271.199 443.675 271.383 442.355 271.558L442.618 273.54ZM454.562 271.705C455.884 271.475 457.206 271.236 458.528 270.988L458.16 269.023C456.846 269.269 455.532 269.506 454.218 269.735L454.562 271.705ZM466.424 269.412C467.738 269.134 469.051 268.849 470.365 268.556L469.929 266.604C468.623 266.895 467.317 267.179 466.01 267.456L466.424 269.412ZM478.2 266.722C479.503 266.403 480.805 266.078 482.107 265.747L481.613 263.808C480.317 264.138 479.021 264.462 477.725 264.779L478.2 266.722ZM489.889 263.691C491.181 263.337 492.473 262.978 493.764 262.614L493.221 260.689C491.935 261.052 490.649 261.409 489.362 261.761L489.889 263.691ZM501.493 260.371C502.777 259.988 504.06 259.6 505.342 259.209L504.757 257.296C503.479 257.686 502.201 258.072 500.921 258.454L501.493 260.371ZM513.02 256.81C514.297 256.402 515.573 255.991 516.848 255.577L516.229 253.675C514.958 254.088 513.686 254.498 512.412 254.904L513.02 256.81ZM524.483 253.052C525.753 252.625 527.022 252.195 528.29 251.763L527.645 249.87C526.38 250.301 525.114 250.73 523.846 251.156L524.483 253.052ZM535.891 249.14C537.155 248.698 538.418 248.255 539.679 247.81L539.014 245.924C537.754 246.368 536.494 246.811 535.231 247.252L535.891 249.14ZM547.254 245.115C548.515 244.663 549.775 244.21 551.033 243.756L550.354 241.874C549.098 242.328 547.839 242.781 546.579 243.232L547.254 245.115ZM558.584 241.019C559.846 240.56 561.106 240.101 562.364 239.642L561.678 237.763C560.421 238.222 559.162 238.68 557.9 239.139L558.584 241.019ZM569.904 236.889C571.166 236.428 572.425 235.969 573.683 235.51L572.998 233.631C571.74 234.09 570.48 234.55 569.218 235.01L569.904 236.889ZM581.228 232.768C582.489 232.312 583.747 231.858 585.003 231.406L584.326 229.524C583.069 229.976 581.809 230.431 580.547 230.888L581.228 232.768ZM592.565 228.705C593.825 228.259 595.083 227.815 596.337 227.376L595.676 225.489C594.419 225.929 593.16 226.373 591.898 226.819L592.565 228.705ZM603.928 224.751C605.197 224.318 606.463 223.89 607.725 223.466L607.089 221.57C605.823 221.995 604.554 222.424 603.282 222.858L603.928 224.751ZM615.332 220.964C616.615 220.55 617.895 220.142 619.171 219.741L618.571 217.833C617.291 218.236 616.006 218.645 614.718 219.06L615.332 220.964ZM626.834 217.399C628.119 217.018 629.4 216.644 630.677 216.278L630.126 214.356C628.843 214.723 627.556 215.098 626.265 215.481L626.834 217.399ZM638.404 214.153C639.697 213.813 640.985 213.482 642.267 213.161L641.782 211.221C640.491 211.544 639.196 211.876 637.895 212.219L638.404 214.153ZM650.049 211.326C651.367 211.035 652.68 210.756 653.987 210.49L653.587 208.53C652.27 208.799 650.946 209.08 649.618 209.373L650.049 211.326ZM661.846 209.029C663.162 208.81 664.472 208.605 665.774 208.414L665.485 206.435C664.169 206.628 662.846 206.835 661.518 207.056L661.846 209.029ZM673.699 207.438C675.038 207.305 676.369 207.19 677.691 207.094L677.546 205.099C676.205 205.197 674.857 205.313 673.502 205.448L673.699 207.438ZM685.654 206.741C686.983 206.722 688.303 206.724 689.614 206.748L689.651 204.749C688.317 204.724 686.975 204.722 685.625 204.741L685.654 206.741ZM697.562 207.179C698.893 207.302 700.214 207.45 701.524 207.624L701.788 205.642C700.451 205.464 699.103 205.313 697.745 205.188L697.562 207.179ZM709.336 209.014C709.979 209.159 710.62 209.311 711.257 209.47L711.743 207.53C711.089 207.367 710.433 207.211 709.775 207.063L709.336 209.014ZM711.257 209.47C711.87 209.623 712.488 209.782 713.111 209.945L713.618 208.01C712.988 207.845 712.363 207.685 711.743 207.53L711.257 209.47ZM720.654 212.084C721.892 212.459 723.147 212.85 724.416 213.255L725.025 211.35C723.746 210.942 722.482 210.548 721.234 210.17L720.654 212.084ZM731.87 215.735C733.094 216.157 734.331 216.591 735.581 217.034L736.25 215.149C734.995 214.704 733.753 214.269 732.522 213.844L731.87 215.735ZM742.988 219.726C744.199 220.175 745.421 220.632 746.653 221.096L747.358 219.225C746.123 218.759 744.899 218.301 743.683 217.851L742.988 219.726ZM754.011 223.906C755.233 224.377 756.462 224.854 757.701 225.336L758.426 223.472C757.186 222.989 755.955 222.512 754.731 222.04L754.011 223.906ZM765.025 228.202C766.248 228.683 767.479 229.167 768.717 229.655L769.45 227.794C768.212 227.306 766.981 226.822 765.757 226.341L765.025 228.202ZM776.039 232.541C777.254 233.02 778.475 233.501 779.703 233.983L780.435 232.122C779.208 231.639 777.986 231.159 776.772 230.68L776.039 232.541ZM787.063 236.865C788.275 237.338 789.493 237.811 790.716 238.285L791.439 236.42C790.217 235.946 789.001 235.474 787.79 235.002L787.063 236.865ZM798.092 241.12C799.312 241.585 800.537 242.05 801.766 242.514L802.473 240.643C801.245 240.18 800.023 239.716 798.805 239.252L798.092 241.12ZM809.166 245.278C810.395 245.731 811.627 246.183 812.864 246.633L813.548 244.754C812.314 244.305 811.084 243.854 809.859 243.401L809.166 245.278ZM820.297 249.3C821.534 249.737 822.775 250.172 824.019 250.604L824.676 248.715C823.434 248.284 822.197 247.85 820.963 247.414L820.297 249.3ZM831.493 253.152C832.739 253.569 833.988 253.982 835.241 254.393L835.863 252.492C834.615 252.083 833.369 251.671 832.127 251.256L831.493 253.152ZM842.761 256.799C844.017 257.191 845.275 257.579 846.536 257.963L847.119 256.049C845.862 255.667 844.609 255.28 843.358 254.89L842.761 256.799ZM854.109 260.204C855.374 260.567 856.641 260.925 857.911 261.279L858.447 259.352C857.183 259 855.921 258.643 854.661 258.281L854.109 260.204ZM865.539 263.329C866.814 263.66 868.091 263.984 869.37 264.303L869.853 262.362C868.581 262.045 867.31 261.722 866.041 261.393L865.539 263.329ZM877.055 266.137C878.34 266.43 879.626 266.716 880.913 266.996L881.337 265.041C880.057 264.763 878.777 264.479 877.5 264.187L877.055 266.137ZM888.656 268.586C889.95 268.836 891.245 269.079 892.541 269.314L892.898 267.346C891.609 267.113 890.322 266.871 889.036 266.622L888.656 268.586ZM900.338 270.63C901.64 270.833 902.943 271.028 904.248 271.214L904.53 269.234C903.234 269.049 901.94 268.856 900.646 268.654L900.338 270.63ZM912.093 272.224C913.403 272.374 914.713 272.515 916.024 272.646L916.223 270.656C914.922 270.526 913.621 270.386 912.321 270.237L912.093 272.224ZM923.909 273.317C925.224 273.409 926.54 273.49 927.856 273.562L927.964 271.564C926.658 271.494 925.353 271.413 924.048 271.322L923.909 273.317ZM935.766 273.859C937.085 273.887 938.404 273.904 939.722 273.909L939.73 271.909C938.423 271.904 937.115 271.887 935.808 271.86L935.766 273.859ZM947.639 273.8C948.958 273.758 950.276 273.704 951.594 273.637L951.494 271.64C950.188 271.706 948.882 271.759 947.575 271.801L947.639 273.8ZM959.494 273.088C960.809 272.972 962.122 272.842 963.435 272.699L963.219 270.71C961.919 270.852 960.618 270.981 959.317 271.096L959.494 273.088ZM971.291 271.68C972.596 271.484 973.899 271.274 975.201 271.05L974.862 269.079C973.573 269.301 972.284 269.508 970.994 269.703L971.291 271.68ZM982.981 269.538C984.269 269.259 985.555 268.966 986.84 268.657L986.373 266.712C985.103 267.017 983.831 267.308 982.557 267.584L982.981 269.538ZM994.508 266.635C995.773 266.271 997.036 265.893 998.297 265.499L997.7 263.59C996.453 263.979 995.205 264.354 993.955 264.713L994.508 266.635ZM1005.81 262.959C1007.05 262.51 1008.28 262.046 1009.51 261.566L1008.79 259.703C1007.57 260.177 1006.35 260.636 1005.13 261.08L1005.81 262.959ZM1016.84 258.513C1018.04 257.981 1019.24 257.433 1020.43 256.869L1019.58 255.06C1018.4 255.618 1017.21 256.159 1016.03 256.685L1016.84 258.513ZM1027.53 253.318C1028.69 252.705 1029.85 252.076 1031 251.431L1030.03 249.685C1028.88 250.322 1027.74 250.944 1026.59 251.55L1027.53 253.318ZM1037.84 247.409C1038.4 247.058 1038.97 246.703 1039.54 246.344L1038.46 244.656C1037.9 245.01 1037.34 245.361 1036.78 245.708L1037.84 247.409ZM1039.54 246.344C1040.12 245.974 1040.7 245.604 1041.27 245.232L1040.18 243.556C1039.61 243.923 1039.04 244.29 1038.46 244.656L1039.54 246.344ZM1047.84 240.733C1048.92 239.948 1049.98 239.16 1051.02 238.368L1049.81 236.778C1048.79 237.559 1047.74 238.337 1046.66 239.111L1047.84 240.733ZM1057.21 233.36C1058.23 232.476 1059.23 231.588 1060.2 230.696L1058.85 229.224C1057.89 230.101 1056.91 230.974 1055.9 231.844L1057.21 233.36ZM1065.83 225.143C1066.78 224.143 1067.69 223.138 1068.57 222.128L1067.06 220.814C1066.2 221.803 1065.31 222.789 1064.38 223.77L1065.83 225.143ZM1073.55 215.909C1074.34 214.818 1075.11 213.723 1075.84 212.623L1074.17 211.518C1073.46 212.592 1072.71 213.662 1071.93 214.728L1073.55 215.909ZM1079.93 205.751C1080.56 204.571 1081.14 203.387 1081.7 202.199L1079.89 201.353C1079.35 202.511 1078.77 203.664 1078.16 204.814L1079.93 205.751ZM1084.7 194.776C1085.14 193.5 1085.54 192.219 1085.91 190.935L1083.99 190.386C1083.63 191.636 1083.24 192.883 1082.81 194.126L1084.7 194.776ZM1087.7 183.138C1087.93 181.823 1088.13 180.505 1088.29 179.184L1086.31 178.937C1086.15 180.225 1085.95 181.51 1085.73 182.792L1087.7 183.138ZM1088.9 171.205C1088.94 169.877 1088.94 168.547 1088.92 167.215L1086.92 167.244C1086.94 168.548 1086.94 169.849 1086.9 171.147L1088.9 171.205ZM1088.48 159.244C1088.35 157.92 1088.2 156.595 1088.03 155.268L1086.04 155.53C1086.22 156.834 1086.36 158.135 1086.49 159.434L1088.48 159.244ZM1086.72 147.406C1086.46 146.112 1086.19 144.817 1085.89 143.522L1083.94 143.968C1084.23 145.245 1084.51 146.521 1084.76 147.796L1086.72 147.406ZM1083.91 135.811C1083.55 134.539 1083.17 133.266 1082.78 131.994L1080.87 132.582C1081.26 133.84 1081.63 135.099 1081.99 136.356L1083.91 135.811ZM1080.3 124.448C1079.86 123.201 1079.41 121.954 1078.95 120.708L1077.07 121.402C1077.53 122.637 1077.98 123.873 1078.41 125.109L1080.3 124.448ZM1076.08 113.302C1075.59 112.08 1075.09 110.858 1074.58 109.637L1072.73 110.408C1073.24 111.621 1073.74 112.835 1074.23 114.05L1076.08 113.302ZM1071.45 102.35C1070.91 101.142 1070.38 99.935 1069.83 98.7297L1068.01 99.5523C1068.55 100.753 1069.09 101.955 1069.62 103.158L1071.45 102.35ZM1066.52 91.5311C1065.97 90.3339 1065.4 89.1387 1064.84 87.9456L1063.03 88.7995C1063.59 89.9903 1064.15 91.1828 1064.71 92.3768L1066.52 91.5311ZM1061.44 80.7998C1060.87 79.6071 1060.3 78.4169 1059.73 77.2293L1057.92 78.0949C1058.49 79.2823 1059.06 80.4719 1059.63 81.6636L1061.44 80.7998ZM1056.31 70.0961C1055.74 68.9072 1055.17 67.7214 1054.61 66.5388L1052.81 67.3958C1053.37 68.5804 1053.93 69.768 1054.5 70.9582L1056.31 70.0961ZM1051.26 59.3826C1050.7 58.1788 1050.15 56.9789 1049.61 55.7831L1047.79 56.6087C1048.33 57.8094 1048.89 59.0137 1049.44 60.2214L1051.26 59.3826ZM1046.42 48.5672C1045.9 47.3532 1045.39 46.1439 1044.89 44.9396L1043.04 45.7057C1043.54 46.9184 1044.06 48.1355 1044.58 49.3568L1046.42 48.5672ZM1041.98 37.6167C1041.52 36.3779 1041.06 35.1452 1040.63 33.9188L1038.74 34.5872C1039.18 35.827 1039.64 37.0723 1040.11 38.3228L1041.98 37.6167ZM1038.18 26.4493C1037.8 25.1869 1037.44 23.9323 1037.11 22.6857L1035.18 23.2016C1035.52 24.4688 1035.88 25.7429 1036.26 27.0234L1038.18 26.4493ZM1035.36 15.062C1035.12 13.7578 1034.9 12.4637 1034.72 11.1802L1032.74 11.4611C1032.92 12.7764 1033.14 14.1004 1033.4 15.4329L1035.36 15.062ZM1034.03 3.42314C1034.01 2.77901 1034 2.13795 1034 1.5H1032C1032 2.15934 1032.01 2.82132 1032.03 3.48587L1034.03 3.42314Z" fill="#A5BDD0"/>
</svg>
