<svg width="60" height="60" viewBox="0 0 60 60" fill="none" xmlns="http://www.w3.org/2000/svg">
<path d="M45.7258 49.3546C53.7984 47.7835 58.7903 43.7266 58.7903 29.9998C58.7903 18.3868 42.5806 0.725488 27.5806 0.725586C8.42686 0.725711 21.5322 14.5159 13.0645 19.5965C5.71216 24.0079 -2.28882e-05 24.911 -2.28882e-05 37.0161C-2.28882e-05 50.3705 5.85675 54.2877 13.0645 51.7739C20.2722 49.2602 19.4415 59.032 29.2742 59.032C40.3633 59.032 37.6531 50.9257 45.7258 49.3546Z" fill="#F1F8FE"/>
<g clip-path="url(#clip0)">
<path d="M43.8512 13.6872C44.0037 13.7382 44.0799 13.7891 44.1562 13.7891C44.9441 13.8656 45.7574 13.9421 46.5453 14.0185C47.7398 14.1205 48.9344 14.197 50.1289 14.2734C50.4339 14.2989 50.7135 14.2989 51.0185 14.2989C51.8826 14.2734 52.7214 14.5538 53.5347 14.8087C53.738 14.8852 53.9667 14.9616 54.1701 14.9871C54.9325 15.0891 55.1613 15.293 55.1613 16.0831C55.1359 18.785 55.1105 21.4613 55.1105 24.1631C55.1105 25.9983 55.1105 27.859 55.1105 29.6942C55.1105 30.051 55.0088 30.4079 54.958 30.7392C54.9326 30.9177 54.9071 31.0706 54.9071 31.249C54.9071 31.5549 54.9071 31.8353 54.9071 32.1411C54.8563 34.2057 54.8055 36.2448 54.7546 38.3094C54.7292 39.2525 54.8055 40.2466 54.6021 41.1642C54.3988 42.0818 54.4751 42.9739 54.3988 43.866C54.348 44.3758 54.3226 44.8856 54.3226 45.3954C54.2717 47.358 54.3226 49.3461 54.1192 51.3088C53.9667 52.6342 54.0176 53.9596 53.9667 55.285C53.9667 55.5909 53.9159 55.8713 54.2972 56.1007C54.5005 56.2281 54.5767 56.636 54.653 56.9418C54.7546 57.3242 54.3988 57.4261 54.1701 57.579C54.043 57.6555 53.9667 57.8339 53.8905 57.9614C53.5855 58.5731 53.1534 58.7006 52.5435 58.3692C52.3655 58.2672 52.1114 58.2418 51.9081 58.2672C51.1202 58.3437 50.3323 58.4712 49.5444 58.5476C49.214 58.5731 48.8581 58.5731 48.5277 58.5986C48.0702 58.5986 47.6128 58.5476 47.1553 58.777C47.0028 58.8535 46.774 58.8025 46.5961 58.828C46.0878 58.879 45.5541 58.9554 45.0458 59.0064C44.9695 59.0064 44.8678 59.0319 44.7916 59.0319C43.8004 59.0574 42.8091 59.0829 41.8179 59.1084C41.1063 59.1339 40.3946 58.9809 39.683 59.2868C39.5305 59.3633 39.3017 59.3123 39.1238 59.3123C38.031 59.3123 36.9127 59.2613 35.8198 59.3123C31.372 59.5927 26.9242 59.3888 22.5018 59.4397C22.2731 59.4397 22.0443 59.3888 21.8156 59.3633C21.6377 59.3378 21.4089 59.2613 21.2564 59.3378C20.3415 59.7711 19.4773 59.3378 18.5878 59.1848C18.4098 59.1594 18.2065 59.1084 18.0286 59.1084C16.4274 59.0829 14.8008 59.1084 13.1996 59.0319C12.3354 58.9809 11.4713 58.777 10.6072 58.6496C10.3276 58.5986 10.0226 58.6241 9.7176 58.5731C8.39597 58.3692 7.09976 58.2418 5.75271 58.3182C5.37147 58.3437 5.04107 58.2418 4.76149 57.9359C4.83774 57.8339 4.86315 57.681 4.96482 57.63C5.52397 57.3242 5.54938 56.8399 5.49855 56.2791C5.44772 55.4125 5.5748 54.4949 5.37147 53.6792C5.11731 52.6597 5.34606 51.6401 5.06648 50.6716C5.04107 50.5951 5.04107 50.4931 5.04107 50.4167C4.99023 48.5305 4.96482 46.6443 4.91399 44.7581C4.91399 44.4268 4.78691 44.0954 4.73607 43.7641C4.71066 43.5856 4.71066 43.3817 4.68524 43.2033C4.65983 41.674 4.78691 40.1192 4.58358 38.6153C4.27859 36.2958 4.50733 33.9763 4.40567 31.6314C4.38025 31.3 4.50733 30.9686 4.55816 30.6373C4.58358 30.4079 4.60899 30.1785 4.60899 29.9491C4.63441 27.3237 4.63441 24.6984 4.68524 22.0475C4.71066 21.0535 4.88857 20.0849 4.99023 19.0908C5.06648 18.4536 5.0919 17.8164 5.16815 17.2046C5.24439 16.4655 5.34606 15.7518 5.47314 15.0126C5.60022 14.2734 6.46436 13.5342 7.53183 13.8911C7.65891 13.993 7.83682 13.993 8.04015 13.993C8.5993 13.993 9.13303 13.9676 9.69218 13.993C9.94634 13.993 10.2259 14.044 10.4801 14.146C11.0646 14.3244 11.2934 14.197 11.3188 13.5342C11.3188 13.2539 11.3188 12.9735 11.3188 12.7186C11.3188 11.8775 11.4713 11.0618 11.6238 10.2207C11.9034 8.84429 12.5134 7.64632 13.1996 6.47383C13.9112 5.22487 14.9533 4.30727 16.1224 3.49163C17.3932 2.59952 18.8165 2.1662 20.2906 1.83485C21.4343 1.57996 22.6289 1.40154 23.798 1.57996C24.8909 1.73289 25.9838 2.01327 26.9496 2.59952C27.0513 2.67598 27.1783 2.72696 27.28 2.80343C27.6358 3.03283 27.9154 2.93087 28.2458 2.70147C29.3641 1.86034 30.6095 1.27409 32.0074 1.0192C32.3886 0.942738 32.7953 0.866271 33.1765 0.738827C34.0407 0.458449 34.9302 0.534916 35.8198 0.534916C35.9468 0.534916 36.0739 0.534916 36.201 0.560405C37.421 0.89176 38.6664 1.09567 39.8355 1.57996C41.2079 2.14072 42.4787 2.98185 43.0887 4.4602C43.3683 5.12292 43.5462 5.81112 43.775 6.47383C44.3341 8.30903 44.3341 10.1697 44.207 12.0559C44.1054 12.5657 43.9529 13.0754 43.8512 13.6872ZM39.5305 23.373C39.7846 23.4749 39.9626 23.5514 40.1405 23.6024C40.9792 23.8827 41.8179 24.1121 42.6567 24.4435C42.9871 24.5709 43.3683 24.7748 43.5716 25.0552C43.8258 25.3866 43.9783 25.8199 44.0545 26.2532C44.2324 27.1453 44.3849 28.0374 44.4358 28.9295C44.512 31.402 44.5374 33.8999 44.5883 36.3723C44.5883 36.7291 44.6645 37.086 44.6899 37.4428C44.7153 38.0291 44.7153 38.6408 44.7153 39.227C44.7153 39.329 44.6391 39.4819 44.5628 39.5584C44.0037 40.0937 43.47 40.5015 42.6058 40.527C40.6742 40.578 38.7934 40.2211 36.8618 40.3231C35.6164 40.374 34.3456 40.2211 33.1003 40.0427C31.3466 39.7878 31.0162 38.8957 30.8382 37.6467C30.7366 36.7801 30.7366 35.8625 30.762 34.9704C30.7874 31.9372 30.6095 28.904 31.0416 25.8964C31.1432 25.1062 31.372 24.367 32.2615 24.0866C32.1853 23.5514 32.3632 23.1945 32.9223 23.0926C33.2273 23.0416 33.5323 22.9142 33.8373 22.9142C34.7777 22.8887 35.6927 22.9142 36.6331 22.9142C36.7856 22.9142 36.9635 22.8887 37.1922 22.8632C37.1414 22.4554 37.0906 22.073 37.0397 21.7162C36.9127 20.9005 36.7602 20.1104 36.6331 19.2947C36.6077 19.0908 36.6839 18.8359 36.6077 18.6575C36.3535 18.0968 36.4552 17.536 36.4297 16.9752C36.4297 16.5929 36.4043 16.2361 36.4043 15.8282C31.9565 15.8282 27.6104 15.8282 23.2389 15.8282C23.2135 16.1341 23.2135 16.3635 23.2135 16.6184C23.1626 18.5046 23.1372 20.3908 23.061 22.2769C23.0355 23.0416 22.9593 23.8063 22.9339 24.5454C22.9339 24.6219 22.9085 24.7239 22.9085 24.8003C22.8576 25.1572 22.756 25.5395 22.7306 25.8964C22.6797 26.9414 22.6797 27.9864 22.6543 29.006C22.6543 29.108 22.6289 29.2099 22.6289 29.3119C22.5018 30.255 22.3239 31.1726 22.2477 32.1156C22.0443 34.4861 22.3239 36.8566 21.9935 39.2016C21.8156 40.527 21.8664 41.8524 21.841 43.2033C21.7902 45.2934 21.7393 47.409 21.6885 49.4991C21.6885 49.5755 21.6885 49.6775 21.6631 49.754C21.3835 50.3147 21.4852 50.9264 21.4598 51.5127C21.4598 52.3283 21.4343 53.1185 21.4598 53.9341C21.4598 54.2655 21.5868 54.5968 21.6123 54.9282C21.6631 55.4125 21.7139 55.8968 21.7393 56.3811C21.7648 56.6105 21.6377 56.7634 21.4343 56.8908C21.3327 56.9418 21.2564 57.0948 21.1039 57.2987C21.7393 57.3751 22.2731 57.5026 22.7814 57.5026C25.1451 57.4771 27.5088 57.5026 29.8724 57.3496C33.5069 57.0948 37.1922 57.5536 40.8267 57.1202C42.0213 56.9928 43.2158 57.1202 44.4104 56.8399C45.0712 56.6869 45.7828 56.7124 46.4945 56.6869C47.994 56.636 49.4935 56.5595 50.9931 56.5595C51.5268 56.5595 51.9843 56.432 52.4164 56.2026C52.4418 56.0497 52.4672 55.9223 52.4672 55.7948C52.2385 54.0616 52.5689 52.3028 52.2385 50.5441C52.0351 49.5246 52.213 48.4285 52.1876 47.358C52.1622 46.313 52.0605 45.2424 52.0351 44.1974C52.0097 40.9603 52.0351 37.7487 52.0351 34.5116C52.0351 34.3332 52.0097 34.1293 52.0605 33.9508C52.3655 32.9568 52.1368 31.9117 52.3655 30.8667C52.5943 29.7962 52.4672 28.6746 52.4672 27.5786C52.4672 24.4945 52.4672 21.4103 52.4672 18.3516C52.4672 17.6889 52.5435 17.0262 52.5689 16.338C52.0351 16.287 51.5014 16.1851 50.9677 16.1851C49.0615 16.1086 47.1807 16.0831 45.2745 16.0322C45.0966 16.0322 44.8933 16.0067 44.7153 15.9812C44.4104 15.9302 44.1054 15.8537 43.8004 15.8282C43.47 15.8028 43.1141 15.8028 42.7837 15.8028C41.7925 15.8028 40.8013 15.8028 39.8101 15.8282C39.3526 15.8282 39.1747 16.0322 39.2509 16.389C39.3526 16.8478 39.5051 17.3066 39.5813 17.7909C39.7338 18.7085 40.0134 19.6006 39.9117 20.5437C39.8863 20.926 39.9117 21.3084 39.9117 21.6907C39.9117 21.8691 39.8863 22.022 39.8609 22.2005C39.7084 22.5573 39.6322 22.9651 39.5305 23.373ZM19.1977 51.4617C19.2486 51.3598 19.2994 51.3088 19.2994 51.2833C19.2994 51.0029 19.3248 50.7225 19.3248 50.4676C19.4011 45.8032 19.1977 41.1387 19.579 36.4742C19.8077 33.645 19.5281 30.7902 19.7823 27.961C19.9602 26.0748 19.8586 24.1886 19.884 22.3024C19.884 22.175 19.884 22.0475 19.9094 21.9201C19.9602 21.4613 20.0619 21.0025 20.0873 20.5437C20.1635 19.3712 20.189 18.2242 20.2398 17.0517C20.2652 16.7204 20.316 16.4145 20.3669 16.0576C20.189 16.0322 20.0873 16.0067 19.9856 16.0067C18.7148 16.0067 17.444 16.0322 16.1732 15.9812C15.3345 15.9557 14.4958 15.8282 13.6571 15.7773C13.1742 15.7518 12.6913 15.8282 12.2084 15.7518C11.3696 15.6498 10.5309 15.8282 9.7176 15.5224C9.38719 15.4204 9.00595 15.5224 8.67554 15.5224C8.67554 16.3635 8.67554 17.1027 8.67554 17.8419C8.65013 23.22 8.62471 28.5727 8.5993 33.9508C8.5993 34.0783 8.57388 34.2057 8.57388 34.3332C8.52305 34.843 8.39597 35.3782 8.39597 35.888C8.37055 38.8192 8.39597 41.7504 8.37055 44.6817C8.37055 45.6502 8.24347 46.6188 8.21806 47.5874C8.16723 49.2187 8.16723 50.85 8.11639 52.4813C8.11639 52.8891 8.11639 53.2969 8.11639 53.7047C8.39597 53.6028 8.52305 53.4498 8.67554 53.3224C9.33636 52.7871 9.97176 52.1754 10.658 51.6911C11.9288 50.8245 13.3775 50.3657 14.8262 49.9579C15.0549 49.8814 15.3599 49.8814 15.5887 49.9579C16.6561 50.3657 17.7236 50.8245 18.7911 51.2578C18.9182 51.3343 19.0707 51.4107 19.1977 51.4617ZM13.3267 14.2479C13.5808 14.2734 13.8096 14.2734 14.0383 14.2734C16.0462 14.2479 18.054 14.2479 20.0619 14.197C21.5868 14.1715 23.1372 14.0695 24.6622 13.993C25.1197 13.9676 25.1959 13.7891 25.0942 13.3303C24.9672 12.7696 24.7892 12.1833 24.8401 11.5971C24.8909 10.5266 25.0688 9.45603 25.2213 8.41098C25.2976 7.87572 25.4246 7.34045 25.6026 6.83067C25.8313 6.19345 26.1109 5.6072 26.3905 4.96998C26.5684 4.56216 26.5175 4.30727 26.1363 4.05238C25.8059 3.82298 25.3992 3.72103 25.0942 3.46614C24.2555 2.82892 23.3405 2.65049 22.3493 2.77794C21.7393 2.8544 21.1294 3.00734 20.5194 3.16027C20.2906 3.21125 20.0619 3.28772 19.8586 3.38967C18.359 4.12885 17.1391 5.17389 16.2495 6.60127C15.4616 7.85023 14.8262 9.20114 14.2925 10.603C14.0637 11.1893 13.9112 11.801 13.7333 12.4127C13.5808 12.9735 13.4792 13.5597 13.3267 14.2479ZM41.6654 13.6872C41.5638 13.3303 41.4875 13.1009 41.4621 12.8715C41.3604 11.5971 41.2079 10.3481 41.2079 9.07369C41.2079 8.02865 41.0046 7.03458 40.6488 6.066C40.4201 5.42878 40.1913 4.76607 39.7846 4.28178C38.5393 2.75245 36.811 2.1662 34.9048 2.01327C34.8794 2.01327 34.854 2.01327 34.854 2.01327C34.4727 2.08974 34.0661 2.14072 33.6848 2.26816C32.414 2.72696 31.1941 3.28772 30.457 4.53667C30.1774 4.99547 30.1774 5.04645 30.4824 5.47976C31.2449 6.55029 32.0328 7.59534 32.3886 8.92076C32.6428 9.94031 33.0494 10.9089 33.024 11.9794C32.9986 12.4382 33.024 12.897 33.0494 13.3813C33.0494 13.5088 33.1003 13.6107 33.1511 13.7127C35.9723 13.6872 38.768 13.6872 41.6654 13.6872ZM34.0407 24.7239C34.1423 25.0042 34.2694 25.2082 34.2694 25.4121C34.3711 26.61 34.4981 27.808 34.549 29.006C34.5998 29.7452 34.549 30.4844 34.549 31.2235C34.549 33.5685 34.5998 35.939 34.2948 38.2585C34.244 38.7173 34.3202 38.8702 34.7777 38.8957C35.5656 38.9467 36.3535 38.9722 37.116 38.8702C38.158 38.7428 39.1747 38.9212 40.1913 39.0231C40.8521 39.0996 41.4875 39.3035 42.1992 39.4564C42.1737 39.227 42.1992 39.0486 42.1229 38.9212C41.7925 38.233 41.64 37.5193 41.6654 36.7801C41.6654 36.6017 41.6654 36.4233 41.6146 36.2703C41.4367 35.888 41.5129 35.5312 41.5384 35.1488C41.5892 34.5116 41.6146 33.8744 41.6146 33.2626C41.6146 32.8548 41.4875 32.4725 41.4621 32.0647C41.4113 30.2295 41.4367 28.3943 41.6654 26.5846C41.7417 25.9728 41.5129 25.7434 40.903 25.7179C40.6488 25.6924 40.3946 25.6924 40.1405 25.667C39.6067 25.5905 39.4288 25.7179 39.3526 26.2787C39.2763 26.7885 39.2001 27.3237 39.073 27.808C38.9713 28.2413 38.5901 28.4707 38.1326 28.4707C37.5226 28.4452 37.2431 28.2158 37.0651 27.7825C36.811 27.1453 36.8618 26.5081 36.8618 25.8454C36.8618 25.6415 36.8364 25.4376 36.8364 25.1827C35.896 25.0552 35.0827 24.469 34.0407 24.7239ZM9.36177 56.534C9.61593 56.585 9.79385 56.6614 9.97176 56.6614C11.0392 56.7124 12.1067 56.7634 13.1996 56.8144C13.3012 56.8144 13.4029 56.8399 13.5046 56.8399C13.9621 56.8908 14.4195 56.9928 14.877 57.0183C16.0208 57.0693 17.1645 57.0693 18.3082 57.0948C18.4861 57.0948 18.6894 57.1457 18.8673 57.1967C19.2232 57.2732 19.3248 57.2222 19.3502 56.8399C19.3757 56.5085 19.3248 56.1517 19.3502 55.8203C19.4011 55.336 19.2486 54.9537 18.8673 54.6478C18.3844 54.24 17.8507 53.8322 17.4186 53.3734C16.7324 52.6087 15.8937 52.0734 15.0295 51.5637C14.6991 51.3598 14.4704 51.4107 14.2162 51.6911C13.2758 52.6087 12.31 53.5008 11.3696 54.4439C10.658 55.0811 10.048 55.7693 9.36177 56.534ZM30.8637 13.6872C30.8891 11.5206 30.1774 9.68543 29.3895 7.79925C29.0845 8.15609 28.9829 8.48745 28.9829 8.86978C28.9829 9.37956 28.932 9.88934 28.8812 10.3736C28.8304 10.8579 28.7287 11.3167 28.7033 11.801C28.6525 12.4127 28.6525 13.05 28.6525 13.6617C29.3895 13.6872 30.152 13.6872 30.8637 13.6872Z" fill="black"/>
</g>
<defs>
<clipPath id="clip0">
<rect width="50.8065" height="59.0323" fill="white" transform="translate(4.35486 0.483887)"/>
</clipPath>
</defs>
</svg>
