<svg width="197" height="49" viewBox="0 0 197 49" fill="none" xmlns="http://www.w3.org/2000/svg">
<path d="M32.6755 12.5692C33.3874 14.7955 33.2886 17.002 32.3195 19.1298C32.0427 19.7208 32.0031 20.3119 32.0822 20.9423C32.4777 23.7597 31.8251 26.2026 29.3927 27.9364C28.7599 28.3895 27.9688 28.6653 27.2371 28.9609C26.6834 29.1973 26.5054 29.414 26.9207 29.9656C27.7908 31.128 27.692 32.8617 26.7032 33.9059C25.6748 34.9895 24.6069 36.0534 23.4995 37.0779C22.8864 37.6492 22.5304 38.2403 22.6095 39.1268C22.7084 40.171 22.6491 41.2152 22.6293 42.2594C22.5898 44.6235 21.1857 46.0618 19.4058 47.3818C19.1685 47.5591 18.9114 47.7364 18.6346 47.8546C17.5864 48.288 15.9055 48.091 14.976 47.4803C13.9872 46.8301 12.8995 46.2982 12.326 45.2343C11.7723 44.2295 11.6141 43.0671 11.5548 41.9441C11.4757 40.171 11.8514 38.3782 11.3372 36.6247C11.1988 36.1519 10.8824 35.8367 11.0999 35.1865C11.2779 34.6349 11.6141 33.8665 11.2384 33.177C9.7156 32.2116 8.19285 31.2265 7.5798 29.3943C7.46114 29.0594 7.10517 28.9806 6.80853 28.8426C5.20668 28.1728 3.72348 27.3847 2.77424 25.7889C1.84477 24.1931 2.12163 22.5185 2.10185 20.8438C2.04253 19.2874 1.38992 17.9871 0.5 16.7656C0.5 15.8594 0.5 14.9334 0.5 14.0271C0.895519 13.771 1.13283 13.4164 1.21193 12.9435C1.37014 11.86 2.02275 11.0325 2.87312 10.3823C3.78281 9.69278 4.37609 8.86532 4.39587 7.68323C4.41564 6.20562 5.26601 5.10233 6.35369 4.19607C7.83688 2.97457 9.51784 2.22592 11.4954 2.50174C12.1876 2.60024 12.3854 2.0486 12.7809 1.73338C14.2641 0.531587 15.9055 -0.138264 17.8633 0.157258C17.7446 0.472482 17.982 0.610393 18.1797 0.649796C19.2278 0.807408 20.2166 1.35905 21.1263 1.87129C21.3043 1.9698 21.5021 2.08801 21.6405 2.24562C21.7196 2.34413 21.7987 2.46233 21.8778 2.54114C22.1349 2.77756 22.5107 2.77756 22.8468 2.79726C25.7935 2.89577 29.5905 4.72801 29.5707 8.11666C29.5509 9.25935 30.1046 9.9095 30.9945 10.4217C31.0736 10.5005 31.1528 10.5597 31.2319 10.6385C31.7065 11.2689 32.1811 11.9191 32.6755 12.5692ZM3.82236 21.691C3.80259 24.3113 5.04847 25.848 7.69845 26.6755C8.39061 26.8922 8.82568 27.2468 9.1421 27.8773C10.7835 31.1674 12.6622 31.857 16.0241 30.34C16.5779 30.1035 17.0525 30.0444 17.626 30.3203C18.1402 30.5961 18.7137 30.7537 19.2872 30.931C20.3946 31.2856 21.2648 31.0295 22.0954 30.1035C23.0446 29.0397 24.4883 28.4092 25.1409 27.0104C25.22 26.8331 25.5957 26.774 25.833 26.6952C29.274 25.5722 30.2826 23.937 29.6102 20.4104C29.452 19.6026 29.5311 18.8737 30.0651 18.2038C31.9438 15.8002 31.4494 13.4361 29.1356 11.6432C28.1073 10.8552 27.7513 9.9095 27.5733 8.74711C27.2173 6.18592 25.6155 4.76741 23.0446 4.86592C21.7394 4.90532 20.7308 4.6098 19.7816 3.64442C18.1995 2.0092 15.51 1.9698 13.9279 3.62472C12.9589 4.6492 11.9503 4.90532 10.6055 4.86592C8.13352 4.76741 6.15593 6.57995 6.07682 9.04263C6.03727 10.2247 5.62198 11.0128 4.63318 11.6038C2.6358 12.7859 2.16118 15.3668 3.01155 16.9429C3.94102 18.6176 4.71228 20.1543 3.82236 21.691ZM13.3346 38.1812C13.3939 39.6194 13.1764 41.294 13.6312 42.9292C14.0465 44.3674 15.154 45.3525 16.5383 45.4313C18.1599 45.5298 19.6036 44.7418 20.0189 43.2641C20.5331 41.491 20.276 39.6391 20.1771 37.8068C20.1573 37.5507 19.92 37.2749 19.7025 37.0779C18.7928 36.2504 18.4961 35.2456 18.8323 34.0635C18.9905 33.4922 18.7137 33.2952 18.2193 33.0588C16.8349 32.3692 15.6286 33.0982 14.3432 33.374C13.6312 33.5316 13.2951 33.965 13.2951 34.694C13.3346 35.817 13.3346 36.8809 13.3346 38.1812ZM24.6662 29.9262C24.0532 29.808 23.5588 30.1035 23.1237 30.5567C22.1349 31.6009 21.1263 32.6253 20.1375 33.6892C19.4849 34.3985 19.4849 35.4623 20.0782 36.0928C20.6715 36.7429 21.7987 36.8809 22.4909 36.2504C23.7368 35.088 24.9431 33.8862 26.0703 32.6253C26.4658 32.1919 26.7229 31.5812 26.3274 30.9113C25.9517 30.2612 25.5166 29.7883 24.6662 29.9262Z" fill="#8C2527"/>
<path d="M108.813 31.9751C108.813 30.7339 108.793 29.4927 108.813 28.2515C108.853 25.0205 106.835 21.9471 103.454 21.0802C100.25 20.2724 96.5914 21.9077 95.2664 24.922C94.7325 26.1238 94.5347 27.3256 94.5545 28.6259C94.594 31.3053 94.594 33.9847 94.5545 36.6641C94.5347 38.319 93.4273 39.0677 91.7859 38.7327C90.6388 38.4963 90.4411 37.728 90.4411 36.7823C90.4411 34.0635 90.4806 31.3447 90.4213 28.6456C90.362 26.1632 89.6303 23.8975 87.534 22.3608C84.8643 20.43 82.9064 20.1345 79.9005 21.6712C76.9341 23.1883 76.1035 25.7692 76.1035 28.8229C76.1035 31.3447 76.1233 33.8665 76.1035 36.3686C76.1035 37.8659 75.2334 38.8312 73.9875 38.7918C72.5834 38.7524 71.6737 37.7871 71.6737 36.3095C71.6737 33.5315 71.6539 30.7536 71.733 27.9757C71.7726 26.045 71.1397 24.4097 69.8741 22.9715C68.6875 21.6121 69.0039 19.9769 70.6256 19.1889C71.6935 18.6766 72.4252 19.4056 73.0185 20.0557C73.7502 20.8635 74.1852 20.765 74.9169 20.036C78.3975 16.5686 82.5109 15.7214 87.1781 17.2581C88.9974 17.8491 90.3818 18.9721 91.7265 20.2133C92.2803 20.7256 92.6164 20.765 93.1702 20.1739C94.4556 18.8145 95.9981 17.9083 97.7977 17.199C99.7951 16.4109 101.812 16.3912 103.75 16.7262C107.369 17.3172 110.098 19.3465 111.858 22.5972C112.689 24.1142 112.907 25.7495 112.946 27.4241C113.005 30.399 113.005 33.3739 112.966 36.3489C112.946 38.4175 111.957 39.1859 110.118 38.6736C109.268 38.4372 108.754 37.925 108.773 36.9793C108.813 35.3047 108.813 33.63 108.813 31.9751Z" fill="#FE730B"/>
<path d="M57.3757 29.9262C54.9037 29.9262 52.4317 29.9065 49.9795 29.9262C48.8325 29.9459 48.7534 30.1232 49.3664 31.0689C50.9287 33.4725 53.0843 34.7728 56.0309 34.6151C57.6723 34.5166 59.0171 33.6892 60.2432 32.6844C61.588 31.5811 63.8029 32.054 64.2973 33.6695C64.5939 34.6151 63.9018 35.3441 63.3085 35.876C61.766 37.3143 59.9268 38.3387 57.8108 38.6343C55.8727 38.9101 53.8754 39.0086 52.0362 38.3978C49.406 37.531 47.1515 36.014 45.6486 33.5316C44.106 31.0098 43.5919 28.3107 44.1654 25.4934C44.7982 22.282 46.6967 19.8981 49.4653 18.0462C51.9175 16.411 54.5477 16.4504 57.2966 16.5686C59.472 16.6671 61.1331 17.7704 62.6954 19.0313C64.2973 20.3119 65.5432 21.8683 66.1958 23.8975C66.6309 25.2175 66.9868 26.5178 66.8484 27.9166C66.7297 29.0002 65.8596 29.8474 64.7719 29.8671C62.2999 29.9065 59.8477 29.8868 57.3757 29.8868C57.3757 29.8868 57.3757 29.9065 57.3757 29.9262ZM60.4805 25.5919C61.0145 25.5328 61.6869 25.5919 61.9637 25.0796C62.2208 24.6265 61.6275 24.3507 61.3902 24.0551C60.9354 23.4641 60.4608 22.8534 59.8675 22.4002C58.2458 21.1787 56.4858 20.2922 54.35 20.765C52.0164 21.2575 50.4146 22.7351 49.0302 24.528C48.6941 24.9614 48.8127 25.2569 49.2873 25.4145C49.6631 25.5328 50.0586 25.6707 50.4343 25.651C53.7765 25.3751 57.1186 25.5919 60.4805 25.5919Z" fill="#FE730B"/>
<path d="M118.187 24.6266C118.187 20.706 118.187 16.7854 118.187 12.8648C118.187 11.2887 118.859 10.4218 120.085 10.4021C121.489 10.4021 122.28 11.2099 122.3 12.8057C122.32 14.2439 122.3 15.6821 122.32 17.1203C122.32 17.534 122.142 18.1054 122.557 18.3024C122.992 18.5191 123.526 18.2039 123.922 17.9675C126.868 16.2337 129.934 16.1352 133.157 17.1203C136.42 18.1251 138.655 20.2528 140 23.2869C140.751 25.0009 141.068 26.8528 140.85 28.7442C140.415 32.4875 138.497 35.3048 135.313 37.3143C132.861 38.8511 130.191 38.8708 127.442 38.6343C125.998 38.5161 124.752 37.8857 123.526 37.1961C122.933 36.8612 122.498 36.8415 122.182 37.5508C121.727 38.5949 120.936 38.8708 119.591 38.6737C118.444 38.4964 118.187 37.7478 118.187 36.7824C118.167 32.7239 118.167 28.6851 118.187 24.6266ZM136.48 27.6212C136.42 23.3854 133.019 20.5878 129.499 20.6863C125.207 20.8242 122.359 23.5627 122.379 27.9561C122.399 31.5024 125.267 34.6349 129.558 34.6349C133.098 34.6546 136.539 31.4039 136.48 27.6212Z" fill="#FE730B"/>
<path d="M196.48 27.6015C196.48 30.6355 196.46 33.6892 196.5 36.7233C196.519 37.8462 195.728 38.26 194.957 38.5949C194.127 38.9692 193.118 38.851 192.624 38.1221C191.912 37.0976 191.516 36.7233 190.231 37.5704C187.937 39.048 185.208 39.0086 182.617 38.5555C178.543 37.8265 175.676 35.5018 174.271 31.5615C172.373 26.2421 174.153 21.4349 178.503 18.3812C181.549 16.2534 184.99 15.9776 188.51 17.0809C189.321 17.337 190.112 17.5537 190.824 18.1053C191.358 18.5191 191.852 18.1447 192.208 17.6128C193.217 16.1155 195.452 16.1155 196.361 17.6128C196.519 17.8689 196.46 18.2433 196.46 18.5585C196.48 21.5925 196.48 24.6068 196.48 27.6015ZM191.892 27.5818C192.129 23.4839 188.293 20.7256 185.089 20.6271C181.391 20.5089 177.396 24.2719 177.772 27.7C178.187 31.5024 180.461 34.5955 185.208 34.6546C188.352 34.694 192.248 31.4236 191.892 27.5818Z" fill="#FE730B"/>
<path d="M145.853 31.9555C145.853 30.7537 145.814 29.5322 145.853 28.3305C145.913 26.3406 145.181 24.6463 143.975 23.1096C142.828 21.6516 142.907 20.6469 144.074 19.5239C145.181 18.4797 146.15 19.0904 147.178 20.1543C147.831 20.8242 148.128 20.6666 148.662 20.1346C150.956 17.869 153.645 16.4307 156.987 16.5096C158.411 16.549 159.222 17.1597 159.301 18.3615C159.4 19.7012 158.787 20.4302 157.304 20.6272C155.524 20.8636 153.902 21.3758 152.498 22.617C150.738 24.1734 150.046 26.1436 149.967 28.3502C149.888 31.0493 149.987 33.7681 149.947 36.4672C149.927 38.4373 148.523 39.2451 146.684 38.4373C145.932 38.1024 145.893 37.4522 145.853 36.8021C145.814 35.9943 145.853 35.1669 145.853 34.3591C145.873 33.5908 145.873 32.783 145.853 31.9555C145.873 31.9555 145.873 31.9555 145.853 31.9555Z" fill="#FE730B"/>
<path d="M164.028 30.793C164.028 29.0002 164.126 27.1877 163.988 25.4145C163.889 23.9369 164.898 22.9124 166.242 22.5775C167.172 22.3411 168.853 23.6808 168.853 24.7053C168.873 28.7244 168.892 32.7435 168.833 36.7429C168.813 37.8659 167.904 38.4372 166.915 38.8312C166.005 39.1859 165.432 38.6539 164.838 38.1614C164.166 37.59 163.968 36.8808 164.008 35.9942C164.087 34.2408 164.028 32.5071 164.028 30.793Z" fill="#FE730B"/>
<path d="M166.42 16.5095C167.686 16.5095 168.833 17.4552 168.853 18.5388C168.873 19.5633 167.646 20.7256 166.539 20.7453C165.352 20.765 164.047 19.6421 164.047 18.6176C164.067 17.4749 165.155 16.5095 166.42 16.5095Z" fill="#FE730B"/>
<path d="M3.82234 21.691C4.71226 20.1543 3.941 18.6176 3.01153 16.9233C2.16116 15.3668 2.63578 12.7662 4.63316 11.5842C5.62196 10.9931 6.03725 10.205 6.0768 9.02296C6.15591 6.56027 8.1335 4.74773 10.6055 4.84624C11.9305 4.90534 12.9588 4.62952 13.9279 3.60504C15.4902 1.95012 18.1797 1.96982 19.7816 3.62475C20.7308 4.59012 21.7394 4.90534 23.0446 4.84624C25.6155 4.74773 27.2173 6.16624 27.5733 8.72744C27.7315 9.88982 28.1072 10.8355 29.1356 11.6236C31.4494 13.4164 31.9438 15.8003 30.0651 18.1842C29.5311 18.8737 29.452 19.583 29.6102 20.3907C30.2628 23.9173 29.2542 25.5722 25.833 26.6755C25.5957 26.7543 25.2199 26.8134 25.1408 26.9907C24.4882 28.3895 23.0644 29.0003 22.0953 30.0839C21.2845 31.0098 20.4144 31.266 19.2872 30.9113C18.7334 30.734 18.1401 30.5567 17.626 30.3006C17.0722 30.0051 16.5778 30.0642 16.0241 30.3203C12.6622 31.8176 10.7835 31.1477 9.14208 27.8576C8.82566 27.2271 8.39059 26.8725 7.69843 26.6558C5.04845 25.848 3.80257 24.3113 3.82234 21.691Z" fill="#66BC00"/>
<path d="M13.3346 38.1811C13.3346 36.8808 13.3544 35.7973 13.3346 34.7137C13.3148 33.9847 13.651 33.5513 14.3827 33.3937C15.6484 33.1179 16.8745 32.3889 18.2588 33.0785C18.7532 33.3346 19.0103 33.5316 18.8719 34.0832C18.5357 35.2653 18.8323 36.2701 19.742 37.0976C19.9596 37.2946 20.1969 37.5704 20.2167 37.8265C20.3155 39.6391 20.5726 41.491 20.0585 43.2838C19.6432 44.7417 18.1995 45.5495 16.5779 45.451C15.1936 45.3722 14.0663 44.3871 13.6708 42.9489C13.1566 41.294 13.394 39.6194 13.3346 38.1811Z" fill="#FE730B"/>
<path d="M24.6662 29.9263C25.5364 29.7884 25.9714 30.2612 26.3472 30.9114C26.7427 31.5812 26.4856 32.1919 26.0901 32.6254C24.9431 33.8863 23.7565 35.0881 22.5106 36.2505C21.8185 36.8809 20.711 36.743 20.098 36.0928C19.5047 35.4624 19.5047 34.3985 20.1573 33.6893C21.1263 32.6254 22.1547 31.6009 23.1435 30.5567C23.5588 30.1036 24.0532 29.8081 24.6662 29.9263Z" fill="#FE730B"/>
<path d="M11.2977 36.605C10.7637 36.4671 10.2496 36.3489 9.71561 36.211C9.12233 36.0533 8.66748 35.5411 8.76636 35.0289C8.86524 34.4378 9.12233 33.6695 10.0518 33.7286C10.5264 33.7483 11.0604 33.8271 11.1988 33.1572C11.5745 33.8468 11.2581 34.6151 11.0604 35.1668C10.8428 35.8169 11.1593 36.1519 11.2977 36.605Z" fill="#FE730B"/>
</svg>
