<svg width="240" height="132" viewBox="0 0 240 132" fill="none" xmlns="http://www.w3.org/2000/svg">
<path d="M115 130C154.006 130 186 101.542 186 66C186 30.4579 154.006 2 115 2C75.9944 2 44 30.4579 44 66C44 101.542 75.9944 130 115 130Z" stroke="#EBE298" stroke-width="4"/>
<mask id="path-2-outside-1" maskUnits="userSpaceOnUse" x="42" y="0" width="104" height="132" fill="black">
<rect fill="white" x="42" width="104" height="132"/>
<path d="M115 4C104.836 4 94.7972 6.01773 85.6018 9.90895C76.4063 13.8002 68.2812 19.4688 61.8072 26.5095C55.3332 33.5502 50.6703 41.7892 48.1518 50.6374C45.6332 59.4855 45.3213 68.7244 47.2383 77.6935C49.1554 86.6626 53.2539 95.1404 59.2411 102.521C65.2282 109.901 72.956 116.002 81.8721 120.387C90.7881 124.772 100.672 127.332 110.818 127.886C120.963 128.44 131.119 126.972 140.56 123.589L115 66L115 4Z"/>
</mask>
<path d="M115 4C104.836 4 94.7972 6.01773 85.6018 9.90895C76.4063 13.8002 68.2812 19.4688 61.8072 26.5095C55.3332 33.5502 50.6703 41.7892 48.1518 50.6374C45.6332 59.4855 45.3213 68.7244 47.2383 77.6935C49.1554 86.6626 53.2539 95.1404 59.2411 102.521C65.2282 109.901 72.956 116.002 81.8721 120.387C90.7881 124.772 100.672 127.332 110.818 127.886C120.963 128.44 131.119 126.972 140.56 123.589L115 66L115 4Z" stroke="#F7F7F7" stroke-width="8" mask="url(#path-2-outside-1)"/>
<ellipse cx="115" cy="66" rx="69" ry="62" fill="white"/>
<path d="M89.8295 84H93.5295V77.025H97.4545V73.525H93.5295V63.025H89.8295V73.525H77.1045L89.1545 48H85.0295L72.9795 73.525V77.025H89.8295V84ZM117.06 84H120.76V77.025H124.685V73.525H120.76V63.025H117.06V73.525H104.335L116.385 48H112.26L100.21 73.525V77.025H117.06V84ZM136.452 65.25C138.102 65.25 139.602 64.85 140.952 64.05C142.319 63.2333 143.41 62.15 144.227 60.8C145.044 59.4333 145.452 57.9167 145.452 56.25C145.452 54.5833 145.044 53.075 144.227 51.725C143.41 50.3583 142.319 49.275 140.952 48.475C139.602 47.6583 138.102 47.25 136.452 47.25C134.852 47.25 133.369 47.6583 132.002 48.475C130.635 49.2917 129.535 50.3833 128.702 51.75C127.869 53.1167 127.452 54.6167 127.452 56.25C127.452 57.9167 127.86 59.4333 128.677 60.8C129.494 62.15 130.577 63.2333 131.927 64.05C133.294 64.85 134.802 65.25 136.452 65.25ZM131.452 84L165.027 50.475L162.527 48L128.952 81.5L131.452 84ZM136.452 61.925C135.435 61.925 134.494 61.6667 133.627 61.15C132.76 60.6333 132.069 59.9417 131.552 59.075C131.035 58.2083 130.777 57.2667 130.777 56.25C130.777 55.2167 131.035 54.275 131.552 53.425C132.069 52.5583 132.76 51.8667 133.627 51.35C134.494 50.8333 135.435 50.575 136.452 50.575C137.485 50.575 138.427 50.8333 139.277 51.35C140.144 51.8667 140.835 52.5583 141.352 53.425C141.869 54.275 142.127 55.2167 142.127 56.25C142.127 57.2667 141.869 58.2083 141.352 59.075C140.835 59.9417 140.144 60.6333 139.277 61.15C138.427 61.6667 137.485 61.925 136.452 61.925ZM157.527 84.75C159.177 84.75 160.677 84.35 162.027 83.55C163.394 82.7333 164.485 81.65 165.302 80.3C166.119 78.9333 166.527 77.4167 166.527 75.75C166.527 74.0833 166.119 72.575 165.302 71.225C164.485 69.8583 163.394 68.775 162.027 67.975C160.677 67.1583 159.177 66.75 157.527 66.75C155.927 66.75 154.444 67.1583 153.077 67.975C151.71 68.7917 150.61 69.8833 149.777 71.25C148.944 72.6167 148.527 74.1167 148.527 75.75C148.527 77.4167 148.927 78.9333 149.727 80.3C150.544 81.65 151.635 82.7333 153.002 83.55C154.369 84.35 155.877 84.75 157.527 84.75ZM157.527 81.425C156.51 81.425 155.569 81.1667 154.702 80.65C153.835 80.1333 153.144 79.4417 152.627 78.575C152.11 77.7083 151.852 76.7667 151.852 75.75C151.852 74.7167 152.11 73.775 152.627 72.925C153.144 72.0583 153.835 71.3667 154.702 70.85C155.569 70.3333 156.51 70.075 157.527 70.075C158.56 70.075 159.502 70.3333 160.352 70.85C161.219 71.3667 161.91 72.0583 162.427 72.925C162.944 73.775 163.202 74.7167 163.202 75.75C163.202 76.7667 162.944 77.7083 162.427 78.575C161.91 79.4417 161.219 80.1333 160.352 80.65C159.502 81.1667 158.56 81.425 157.527 81.425Z" fill="#59574E"/>
</svg>
