<svg width="61" height="60" viewBox="0 0 61 60" fill="none" xmlns="http://www.w3.org/2000/svg">
<g clip-path="url(#clip0)">
<path d="M34.7968 50.3307C33.3532 52.2869 31.3845 53.7121 28.9894 54.7182C28.1035 55.0815 27.1848 55.3609 26.1676 55.2771C26.2661 54.83 26.3645 54.3828 26.4629 53.9357C26.5942 53.3488 26.2661 53.1532 25.6099 53.1532C25.0849 53.1812 24.8224 53.4047 24.6255 53.7401C24.363 54.2152 24.1006 54.6902 23.8381 55.1653C23.5756 55.1374 23.3131 55.1653 23.0834 55.0256C23.3131 54.7741 23.5756 54.5226 23.8053 54.2711C23.9693 54.0754 24.3302 53.9078 24.0349 53.6283C23.8053 53.3768 23.4443 53.4327 23.1162 53.5165C22.46 53.7121 22.0007 54.1593 21.4429 54.4946C18.129 52.9017 17.0791 50.1351 16.2588 47.2566C15.6026 45.0209 16.4557 42.9529 17.0463 40.857C17.5712 39.0684 18.2275 37.2799 18.2275 35.4075C18.2275 33.0601 17.2431 31.1038 15.4385 29.3432C13.7324 27.6665 11.6981 26.2412 10.0904 24.4527C9.10609 23.3349 8.08896 22.1891 7.92491 20.7638C7.76085 19.0312 8.77798 17.6898 10.156 16.4881C11.895 14.979 14.0277 14.3921 16.4229 14.3921C17.0791 14.3921 17.7025 14.1406 18.3587 14.3083C18.3587 14.476 18.1618 14.5878 18.0634 14.6996C16.7838 16.1248 15.537 17.578 15.3401 19.4504C15.1433 21.3786 15.7338 22.8877 18.1618 23.5305C20.4258 24.1173 22.3944 23.6143 24.199 22.4126C24.9865 21.9096 25.6755 21.2948 26.3973 20.7359C26.2989 20.9874 26.1348 21.211 25.9708 21.4066C25.5114 21.9096 25.3146 22.4126 25.3146 23.0833C25.413 29.0079 25.2161 34.9604 25.8395 40.8849C26.0036 42.3102 25.7739 43.7354 26.0364 45.1607C26.3317 46.6697 26.2989 48.2068 26.2989 49.7438C26.2989 50.3586 26.5942 50.5822 27.2832 50.5542C29.8096 50.5263 32.3032 50.5542 34.7968 50.3307Z" fill="#C5E2FB"/>
<path d="M34.7967 50.3307C32.3031 50.5822 29.8094 50.5263 27.3158 50.6101C26.6596 50.6381 26.3643 50.4145 26.3315 49.7997C26.2987 48.2627 26.3643 46.7256 26.069 45.2166C25.7737 43.7634 26.0034 42.3661 25.8722 40.9408C25.2488 35.0163 25.4456 29.0917 25.3472 23.1393C25.3472 22.4406 25.5441 21.9376 26.0034 21.4625C26.2003 21.2669 26.3643 21.0712 26.43 20.7918C25.7081 21.3507 25.0191 21.9655 24.2316 22.4685C22.427 23.6702 20.4584 24.1733 18.1945 23.5864C15.7665 22.9436 15.2087 21.4066 15.3728 19.5063C15.5696 17.6339 16.8164 16.1807 18.096 14.7555C18.1945 14.6157 18.3913 14.5319 18.3913 14.3642C20.2615 12.8272 22.3942 11.6814 24.8222 10.8989C28.1033 10.2003 31.3844 10.0605 34.731 10.5356C35.092 10.5915 35.3545 10.4797 35.5841 10.2562C35.9779 9.78108 36.4044 9.36189 36.7653 8.85886C37.159 8.32789 37.684 8.2161 38.373 8.35583C39.2589 8.5794 40.0464 8.97064 40.9651 9.11037C41.49 9.30599 42.015 9.58545 42.6384 9.6134C43.0321 9.64135 43.1634 10.0046 43.3603 10.2282C44.2461 11.2622 44.7383 12.4639 45.4601 13.5817C46.5101 15.2026 47.396 16.8794 48.3803 18.5282C49.0693 19.674 49.1677 20.9036 49.5287 22.1052C49.7255 22.776 49.6927 23.4187 49.7583 24.0894C49.8568 25.0955 50.1521 26.1015 50.2177 27.1355C50.2833 28.7005 50.4145 30.2655 50.5458 31.8304C50.7426 34.3176 51.0708 36.8048 51.1364 39.292C51.202 40.8291 51.5629 42.3381 51.5957 43.8752C51.6285 44.9651 51.7598 46.0549 51.891 47.1448C51.9566 47.564 51.727 47.6758 51.3661 47.7317C48.2819 48.2068 45.1648 48.6539 42.0806 49.1849C39.6198 49.5761 37.1918 49.9394 34.7967 50.3307ZM38.4058 13.2184C36.9294 11.9888 35.1248 11.3181 33.0905 11.1784C32.0078 11.1225 30.925 11.1504 29.8094 11.2343C24.166 11.5976 20.1959 14.0009 17.8007 18.3605C17.2102 19.4504 17.0789 20.5962 17.6695 21.714C18.2929 22.8877 19.6053 23.3069 20.9506 22.7201C22.2302 22.1611 23.3129 21.3787 24.2973 20.5123C26.3315 18.7238 28.3986 16.9632 31.0891 15.9012C32.1718 15.4821 33.2546 15.0349 34.3373 14.6157C34.4686 14.5598 34.6982 14.5319 34.6326 14.3642C34.5998 14.2804 34.4358 14.2245 34.3373 14.1686C34.1405 14.0568 33.9436 14.0848 33.7139 14.1686C30.1376 15.5659 26.4956 16.9352 23.8051 19.5342C23.0176 20.2888 22.0005 20.8756 20.8849 21.2669C20.1303 21.5184 19.4741 21.2948 18.9163 20.9036C18.4241 20.5682 18.2929 20.0652 18.4898 19.5063C19.5069 16.8235 21.6724 14.9231 24.3629 13.4979C27.5783 11.7932 31.0891 12.1285 34.5342 12.9949C35.8138 13.3023 36.7653 14.1406 37.9465 14.6157C38.2746 14.8393 38.6027 14.8114 38.898 14.5878C39.1933 14.3642 39.0621 14.0848 38.898 13.8332C38.8324 13.5538 38.7339 13.3023 38.4058 13.2184ZM40.3745 10.2003C39.8823 9.75313 39.0949 9.86491 38.6027 9.47367C38.5371 9.41778 38.4058 9.47367 38.3074 9.52956C37.9137 9.92081 37.4871 10.312 37.0934 10.7033C36.9622 10.843 36.8966 11.0386 37.159 11.1504C37.8152 11.4299 38.2746 11.9329 38.898 12.2403C39.1933 12.6316 39.3902 13.1625 39.7839 13.3582C40.7682 13.8053 40.4729 14.4201 40.2104 15.007C39.7511 16.2086 38.7011 16.6837 37.2575 16.5999C36.0435 15.3423 35.3873 15.1746 33.7467 15.8174C32.828 16.1807 31.7781 16.4043 31.1547 17.1868C29.9407 18.6958 28.5626 20.1211 27.2174 21.5463C26.6596 22.1332 26.3315 22.6362 26.6596 23.4187C26.8237 23.8379 26.8893 24.313 26.9221 24.7601C27.0534 26.5766 27.2174 28.3931 27.4471 30.2375C27.6768 31.8304 27.7096 33.4234 27.808 35.0163C28.0049 38.0624 28.0377 41.1365 28.2017 44.1826C28.3002 45.8034 28.333 47.4243 28.333 49.0452C28.333 49.4364 28.4642 49.632 28.9892 49.6041C31.1875 49.5761 33.4186 49.7438 35.5185 49.0731C37.5528 48.8216 39.6198 48.5421 41.6213 48.1509C43.8196 47.7317 46.0835 47.4802 48.3147 47.1728C49.2334 47.0331 49.3318 46.8933 49.1677 46.1388C48.8724 44.7974 48.8396 43.428 48.5443 42.0587C48.2162 40.6055 48.2162 39.1243 48.0522 37.6432C47.7241 35.0163 47.6256 32.3335 47.5272 29.6786C47.4288 26.9678 47.4288 24.2571 47.396 21.5463C47.396 21.2669 47.3303 21.0154 47.1335 20.7638C46.5429 19.9814 45.8867 19.2268 45.4601 18.3884C44.2133 15.8454 42.6712 13.442 41.4572 10.8989C41.2604 10.4797 41.0307 10.1444 40.3745 10.2003ZM32.2374 13.6097C29.8094 12.9949 27.7752 13.3302 25.905 14.4201C24.2644 15.3703 22.8864 16.544 21.8036 17.9413C21.3115 18.5561 20.7537 19.1709 20.6225 20.0372C21.6068 19.7019 22.3286 19.1709 23.0833 18.6958C24.691 17.6898 25.9378 16.3484 27.6768 15.4541C29.022 14.7555 30.4985 14.1686 32.2374 13.6097Z" fill="black"/>
<path d="M40.9322 9.05449C40.0135 8.91476 39.2261 8.52351 38.3402 8.29995C37.6512 8.13227 37.159 8.272 36.7325 8.80297C36.3716 9.27806 35.945 9.72519 35.5513 10.2003C35.3216 10.4518 35.0591 10.5356 34.6982 10.4797C31.3843 10.0047 28.0705 10.1444 24.7894 10.843C25.0519 10.2841 25.544 9.83698 25.9378 9.33395C27.0533 7.93665 27.5127 6.31578 28.0377 4.69492C28.8251 2.17978 31.1875 0.195616 34.5014 0.0279403C37.684 -0.139736 40.2432 1.034 41.6213 3.49324C42.1462 4.41546 41.9494 5.39357 41.7197 6.34373C41.5228 7.238 41.0307 8.13227 40.9322 9.05449Z" fill="#C5E2FB"/>
<path d="M52.8754 7.82484C53.2035 7.7969 53.5972 7.82484 53.8269 8.16019C54.0565 8.49555 53.7941 8.77501 53.5316 9.02652C52.0879 10.5635 50.6442 12.1285 49.1678 13.6656C48.8725 14.0009 48.4459 14.0568 47.9866 14.0009C47.4616 13.945 47.2319 13.6656 47.4944 13.2743C48.7084 11.4299 49.9224 9.55749 51.727 8.07636C52.0223 7.82484 52.416 7.82484 52.8754 7.82484Z" fill="black"/>
<path d="M23.8379 55.1654C24.1004 54.6903 24.3629 54.2152 24.6254 53.7401C24.8222 53.3768 25.0847 53.1532 25.6097 53.1532C26.2659 53.1253 26.594 53.3489 26.4628 53.9357C26.3643 54.3829 26.2659 54.83 26.1675 55.2771C25.7081 56.3111 25.4128 57.3731 24.855 58.4071C24.5926 58.8822 24.3301 59.3852 23.8707 59.7485C23.477 60.0559 23.0176 60.1118 22.5255 59.9441C22.0333 59.7764 22.1974 59.3852 22.1974 59.1057C22.2958 58.1835 22.8536 57.401 23.2145 56.5627C23.4442 56.0876 23.7723 55.6684 23.8379 55.1654Z" fill="black"/>
<path d="M50.4473 15.3982C49.9224 15.3982 49.4958 15.3703 49.3974 15.0629C49.299 14.7555 49.7255 14.6437 49.988 14.476C50.8083 14.0568 51.6285 13.6376 52.6457 13.8333C52.9082 13.8892 53.2034 13.945 53.2691 14.1966C53.3019 14.476 53.0394 14.6158 52.7769 14.6716C51.9238 14.979 51.1364 15.3144 50.4473 15.3982Z" fill="black"/>
<path d="M21.4427 54.4946C21.9677 54.1593 22.4598 53.7121 23.1161 53.5165C23.4442 53.4327 23.8051 53.3768 24.0347 53.6283C24.2972 53.9077 23.9691 54.0754 23.8051 54.271C23.5754 54.5226 23.3457 54.7741 23.0832 55.0256C22.6895 55.1374 22.2958 55.305 21.8692 55.2771C21.6068 55.2492 21.3115 55.2771 21.1474 55.0535C20.9505 54.802 21.3115 54.6902 21.4427 54.4946Z" fill="black"/>
<path d="M18.4897 57.2613C18.6866 57.4849 18.8507 57.6805 19.0475 57.904C18.2929 57.8202 18.2929 57.8202 18.4897 57.2613Z" fill="#C5E2FB"/>
<path d="M35.5841 49.0731C33.4514 49.7438 31.2531 49.6041 29.0548 49.6041C28.5298 49.6041 28.3986 49.4364 28.3986 49.0452C28.3986 47.4243 28.3658 45.8034 28.2673 44.1826C28.1033 41.1365 28.0705 38.0624 27.8736 35.0163C27.7752 33.4234 27.7095 31.8304 27.5127 30.2375C27.2502 28.421 27.119 26.6046 26.9877 24.7601C26.9549 24.313 26.9221 23.8379 26.7252 23.4187C26.3971 22.6362 26.7252 22.1611 27.283 21.5463C28.6282 20.1211 30.0063 18.6958 31.2203 17.1868C31.8437 16.4322 32.8936 16.1807 33.8123 15.8174C35.4529 15.1746 36.1091 15.3423 37.3231 16.5999C37.1262 18.0531 37.4215 19.4224 38.6355 20.4844C40.276 21.9376 41.9822 23.3069 43.7868 24.5924C45.7554 26.0177 46.5429 27.4988 45.8538 29.1756C45.0992 31.1318 43.9508 32.8644 41.8509 34.0102C41.2604 33.7587 40.6698 33.5352 40.0464 33.3954C39.2261 33.1998 38.4386 33.0042 37.7168 32.585C37.3887 32.4173 37.159 32.1937 37.1918 31.8584C37.2246 31.4951 37.4871 31.2715 37.8809 31.1597C38.6683 30.8803 39.4558 30.8803 40.276 31.1039C40.801 31.2436 41.3916 31.6069 41.7853 31.4951C42.3759 31.3274 42.0806 30.6288 42.2447 30.1816C42.6712 28.8402 42.3759 28.3093 40.8666 28.2254C39.9151 28.1695 39.8167 27.8342 39.8495 27.2194C39.8823 26.912 39.8823 26.4928 39.3573 26.4928C38.6027 26.4928 37.9137 26.2133 37.0934 26.4369C36.2403 26.6325 35.781 26.8002 35.945 27.6106C36.0106 28.0019 35.8794 28.2254 35.4201 28.4769C34.6654 28.8961 33.9436 29.3433 33.2874 29.9301C31.9749 31.1039 31.8109 34.0661 33.9436 34.8766C34.5014 35.0722 34.9935 35.4355 35.5513 35.6032C36.5356 35.9106 37.3887 36.3856 38.3074 36.8048C38.7667 37.0284 38.8652 37.5873 38.5043 38.0065C38.1433 38.4257 37.6184 38.5375 37.0606 38.5375C36.0106 38.5375 34.9279 38.6213 33.9108 38.286C33.6811 38.2021 33.4842 38.1742 33.353 38.3978C32.8936 39.2361 33.0905 40.1025 33.0577 40.9688C33.0577 41.1085 33.1889 41.1644 33.3202 41.1923C34.1076 41.36 34.731 41.8351 35.6169 41.7513C36.3059 41.6954 36.7981 41.9748 36.7653 42.6735C36.7653 43.0368 36.8637 43.3721 37.0278 43.6795C36.2403 45.496 36.47 47.3964 35.5841 49.0731Z" fill="#C5E2FB"/>
<path d="M38.0121 14.5878C36.8309 14.1127 35.8794 13.3023 34.5998 12.9669C31.1547 12.1006 27.6439 11.7652 24.4285 13.4699C21.738 14.8952 19.5397 16.7955 18.5554 19.4783C18.3585 20.0372 18.4898 20.5403 18.9819 20.8756C19.5397 21.2669 20.1959 21.4904 20.9506 21.2389C22.0661 20.8477 23.0833 20.2608 23.8707 19.5063C26.594 16.9073 30.2032 15.5659 33.7795 14.1406C33.9764 14.0568 34.1733 14.0289 34.4029 14.1406C34.5014 14.1965 34.6982 14.2524 34.6982 14.3363C34.7639 14.5039 34.5342 14.5598 34.4029 14.5878C33.3202 15.007 32.2374 15.4541 31.1547 15.8733C28.4642 16.9352 26.3971 18.6958 24.3629 20.4844C23.3786 21.3507 22.2958 22.1332 21.0162 22.6921C19.6709 23.279 18.3257 22.8598 17.7351 21.6861C17.1445 20.5403 17.2758 19.3945 17.8664 18.3325C20.2287 14.0009 24.2316 11.5976 29.8751 11.2063C30.9578 11.1225 32.0734 11.0945 33.1561 11.1504C35.1904 11.2622 36.995 11.9608 38.4715 13.1905C38.2746 13.6656 38.1434 14.1127 38.0121 14.5878Z" fill="#C5E2FB"/>
<path d="M32.2374 13.6097C30.4985 14.1965 29.0548 14.7834 27.6439 15.51C25.9378 16.4043 24.6582 17.7457 23.0504 18.7517C22.2958 19.2268 21.574 19.7578 20.5896 20.0931C20.7209 19.1989 21.2787 18.612 21.7708 17.9972C22.8864 16.5999 24.2316 15.3982 25.8721 14.476C27.7752 13.3302 29.7766 12.9949 32.2374 13.6097Z" fill="#C5E2FB"/>
<path d="M40.3745 10.2003C39.8823 10.8989 39.3901 11.5696 38.898 12.2683C38.2746 11.9329 37.8152 11.4299 37.159 11.1784C36.8637 11.0666 36.9293 10.871 37.0934 10.7312C37.4871 10.34 37.9137 9.94875 38.3074 9.55751C38.373 9.47367 38.5043 9.41778 38.6027 9.50162C39.0948 9.86491 39.9151 9.75313 40.3745 10.2003Z" fill="#C5E2FB"/>
<path d="M41.8509 34.094C42.3759 34.5971 42.9665 35.0722 43.5243 35.5472C45.132 36.8886 44.8039 39.0964 43.2618 40.3819C42.7368 40.829 42.2447 41.36 41.6541 41.7233C41.0963 42.0866 41.0963 42.5058 41.2275 42.925C41.3588 43.428 41.1619 43.5677 40.6369 43.6795C39.751 43.9031 38.7995 43.7913 37.9137 44.0149C37.5855 44.0987 37.2903 43.9031 36.995 43.7913C36.8309 43.4839 36.6997 43.1485 36.7325 42.7852C36.7653 42.0866 36.2731 41.8071 35.5841 41.863C34.6982 41.9469 34.042 41.4718 33.2874 41.3041C33.1561 41.2762 33.0249 41.1923 33.0249 41.0805C33.0249 40.2142 32.828 39.3479 33.3202 38.5095C33.4514 38.2859 33.6483 38.3139 33.8779 38.3977C34.8951 38.7331 35.9778 38.6492 37.0278 38.6492C37.5855 38.6492 38.1105 38.5095 38.4714 38.1183C38.8324 37.6991 38.7667 37.1402 38.2746 36.9166C37.3887 36.4695 36.5028 36.0223 35.5185 35.7149C34.9279 35.5193 34.4357 35.1839 33.9108 34.9883C31.7781 34.1779 31.9421 31.2156 33.2545 30.0419C33.9108 29.455 34.6326 29.0079 35.3872 28.5887C35.8466 28.3372 36.0106 28.1136 35.9122 27.7224C35.7482 26.9119 36.2075 26.7443 37.0606 26.5486C37.8808 26.353 38.5699 26.6325 39.3245 26.6045C39.8495 26.6045 39.8495 27.0237 39.8167 27.3311C39.7839 27.9459 39.8823 28.2813 40.8338 28.3372C42.3759 28.3931 42.6712 28.952 42.2118 30.2934C42.0806 30.7405 42.3431 31.4392 41.7525 31.6069C41.3588 31.7186 40.7682 31.3553 40.2432 31.2156C39.4558 30.992 38.6355 30.992 37.848 31.2715C37.4543 31.4112 37.1918 31.6069 37.159 31.9702C37.1262 32.3055 37.3887 32.5291 37.684 32.6967C38.4058 33.1159 39.1933 33.3116 40.0135 33.5072C40.6697 33.619 41.2603 33.8146 41.8509 34.094Z" fill="black"/>
</g>
<defs>
<clipPath id="clip0">
<rect width="45.9677" height="60" fill="white" transform="translate(7.92471)"/>
</clipPath>
</defs>
</svg>
