<svg width="60" height="60" viewBox="0 0 60 60" fill="none" xmlns="http://www.w3.org/2000/svg">
<g clip-path="url(#clip0)">
<path d="M45.7258 49.3546C53.7984 47.7835 58.7903 43.7266 58.7903 29.9998C58.7903 18.3868 42.5806 0.725488 27.5806 0.725586C8.42686 0.725711 21.5322 14.5159 13.0645 19.5965C5.71216 24.0079 -2.28882e-05 24.911 -2.28882e-05 37.0161C-2.28882e-05 50.3705 5.85675 54.2877 13.0645 51.7739C20.2722 49.2602 19.4415 59.032 29.2742 59.032C40.3633 59.032 37.6531 50.9257 45.7258 49.3546Z" fill="#F2F8F1"/>
<g clip-path="url(#clip1)">
<path d="M39.3027 47.1629C39.2023 48.0002 39.2653 48.8567 39.2429 49.7166C39.2354 50.1336 39.4212 50.4665 39.6924 50.7962C40.662 52.0257 41.6243 53.281 42.5605 54.5289C42.7054 54.7103 42.7351 54.9983 42.8316 55.2497C42.0178 55.63 41.375 55.4169 40.7323 55.0081C39.1049 54.0082 37.7711 52.6738 36.3147 51.4717C35.0255 50.3736 34.5054 49.0501 34.5725 47.4486C34.5874 47.0058 34.6024 46.563 34.6396 46.0428C34.2308 46.0927 33.8741 46.1575 33.5248 46.1966C32.8709 46.3156 32.2094 46.4603 31.5369 46.546C30.6339 46.6491 29.7644 46.7339 28.9061 46.2909C28.6349 46.1569 28.2262 46.2068 27.8918 46.1943C27.8546 46.3233 27.8137 46.3674 27.8248 46.4265C27.8583 46.6038 27.8917 46.7811 27.9585 46.9401C28.5789 48.2087 28.3001 49.4697 28.0138 50.7565C27.9357 51.1252 27.7127 51.5081 27.434 51.791C26.4826 52.7465 25.5127 53.6686 24.5168 54.5832C24.2529 54.8146 23.9185 54.9977 23.5803 55.0959C22.7182 55.3505 21.9082 55.2288 21.2395 54.4214C22.0497 53.1737 22.8079 51.9111 23.6366 50.6968C23.9265 50.2774 24.0789 49.8462 24.2128 49.3818C24.7109 47.653 24.0868 46.1039 23.4888 44.5623C23.3922 44.3109 23.0987 44.0587 22.8275 43.9246C21.828 43.3851 21.0069 42.6176 20.1859 41.85C19.9444 41.6128 19.636 41.4122 19.335 41.1857C19.1455 41.3547 18.9783 41.4462 18.8817 41.586C17.789 43.2273 16.1762 44.3275 14.6786 45.5168C13.8685 46.1776 13.0362 46.1333 12.1556 45.7678C11.4311 45.4473 11.2454 44.9187 11.6876 44.2637C12.0816 43.6786 12.535 43.0827 13.0366 42.6124C14.1143 41.6096 15.2366 40.6475 16.3589 39.6854C16.5819 39.4982 16.7863 39.2776 17.065 38.9946C16.4966 38.3279 15.9319 37.746 15.4415 37.1017C14.7802 36.2684 14.0594 35.6415 12.915 35.5074C12.0715 35.4041 11.2689 35.061 10.4366 34.8212C9.37025 34.5139 8.38928 34.5945 7.56056 35.4176C7.35617 35.6382 7.05517 35.803 6.82477 36.016C5.78795 36.9748 4.42793 37.3933 3.17936 38.0116C3.01957 38.0773 2.83378 38.1356 2.65542 38.168C2.03487 38.2686 1.49611 38.0855 0.961081 37.7916C0.715858 37.665 0.574698 37.3728 0.359214 37.1431C0.51159 36.9075 0.608217 36.7677 0.730854 36.6354C2.13558 35.2796 3.67034 34.157 5.37599 33.2233C6.07831 32.8388 6.8289 32.7756 7.60177 32.8307C8.92457 32.9324 10.1693 33.2072 11.3769 33.8067C11.7261 33.9632 12.1311 34.024 12.5993 34.1589C12.5213 33.5496 12.213 33.1534 11.9566 32.7721C10.5746 30.7252 10.6046 28.6659 11.8497 26.5935C12.0578 26.2622 12.2734 25.9051 12.4369 25.5331C12.5298 25.3084 12.5522 25.0354 12.6228 24.6924C11.9726 24.7007 11.4412 24.6873 10.921 24.733C9.46812 24.7894 8.00785 24.6761 6.62936 24.2788C4.39999 23.6085 2.50885 22.2532 0.911296 20.5633C0.524912 20.1446 0.287174 19.601 0.0271318 19.1349C0.421077 18.5498 0.926419 18.5556 1.42803 18.6722C1.81817 18.7847 2.20087 18.9229 2.52783 19.1568C3.75392 19.9852 4.98001 20.8135 6.15035 21.7376C6.87856 22.3386 7.64768 22.7 8.58033 22.6893C10.2041 22.6262 11.8205 22.589 13.4256 22.8838C13.8567 22.9521 14.2097 22.8023 14.4847 22.4345C15.2354 21.3933 16.0121 20.3596 16.7554 19.3442C16.6811 19.211 16.6849 19.1003 16.6143 19.052C16.3059 18.8514 16.0309 18.6324 15.7151 18.4576C13.3781 17.0856 11.2343 15.4339 9.34325 13.4918C8.90485 13.058 8.41443 12.6093 8.41824 11.9118C8.79358 11.489 9.23574 11.6164 9.6779 11.7438C11.4168 12.1611 12.8881 13.116 14.2963 14.1924C15.7304 15.2763 17.1311 16.3785 18.6098 17.5032C19.8547 16.4088 21.0328 15.351 22.2368 14.3007C22.2108 14.0976 22.1885 13.9794 22.1477 13.8279C21.5794 11.7919 20.8849 9.80331 20.7068 7.68409C20.6622 7.25209 20.4356 6.96323 20.157 6.65939C19.3768 5.84774 18.6635 4.99947 17.9501 4.1512C17.8238 4.00303 17.7681 3.70753 17.8388 3.56021C17.9094 3.41289 18.2141 3.33302 18.4184 3.30808C18.6228 3.28313 18.8643 3.32478 19.091 3.41803C20.5512 3.92263 21.9408 4.57454 22.903 5.82986C23.0851 6.07793 23.3266 6.31518 23.5904 6.47503C24.5044 7.01784 24.8573 7.84609 24.9686 8.82829C25.0651 9.66649 25.1876 10.5122 25.3101 11.3579C25.3361 11.561 25.4215 11.7533 25.5032 12.0563C25.9231 11.8699 26.2241 11.7051 26.5437 11.5736C27.09 11.3398 27.5991 11.0394 28.1676 10.9237C28.9888 10.7133 29.8583 10.6285 30.6348 11.1596C31.586 11.769 32.5037 12.3967 33.4548 13.0061C33.622 13.1102 33.845 13.1186 34.053 13.1785C34.3803 11.4564 34.5142 9.81832 34.2023 8.16354C33.9684 6.92246 34.3327 5.85375 35.2097 4.96073C36.1611 4.00529 37.1496 3.11645 38.1455 2.20181C38.335 2.03286 38.584 1.8531 38.8293 1.78405C39.2194 1.70086 39.6356 1.62516 40.0072 1.70429C40.7243 1.85503 40.9732 2.45769 40.5532 3.0353C40.0366 3.75273 39.3974 4.40689 38.8103 5.07604C38.394 5.54294 37.9072 5.96156 37.543 6.44346C37.0822 7.06518 36.874 7.78764 37.1749 8.6009C37.3495 9.07037 37.4311 9.56897 37.5797 10.0309C37.9214 10.9957 37.9287 11.9479 37.5942 12.9134C37.4195 13.422 37.2968 13.9455 37.1481 14.4616C37.0403 14.9335 37.1703 15.3622 37.5678 15.6444C38.1326 16.0307 38.6639 16.4353 39.2361 16.7958C40.098 17.3236 40.3953 17.2695 41.1348 16.5604C41.2166 16.4722 41.3318 16.3657 41.395 16.2442C42.5768 14.4889 44.1413 13.0674 45.7058 11.6459C46.2744 11.1391 46.8244 10.5989 47.4116 10.1254C47.9653 9.67015 48.5747 9.51041 49.2881 9.77186C50.2095 10.0933 50.3024 10.4554 49.6595 11.2202C49.5368 11.3526 49.4142 11.4849 49.2916 11.6172C47.2327 13.8743 44.8693 15.8201 42.621 17.855C42.4314 18.0239 42.2605 18.2261 42.0561 18.4467C42.8474 19.3174 43.8098 19.7903 44.7572 20.3148C44.9058 20.3856 45.0953 20.4123 45.2923 20.4131C47.1799 20.3143 49.086 20.4444 50.8994 19.8212C51.4977 19.6023 52.0699 19.376 52.5382 18.9241C53.9429 17.5684 55.6671 16.668 57.3839 15.7933C57.6849 15.6286 58.0862 15.6045 58.4206 15.617C59.0226 15.6787 59.2083 16.2073 58.8701 16.6966C58.7177 16.9322 58.5728 17.1419 58.3758 17.3367C57.3316 18.3212 56.2873 19.3058 55.1985 20.2496C54.6299 20.7564 53.9424 21.0893 53.1993 21.3222C51.6386 21.8506 50.0631 22.0393 48.3984 21.9509C47.9525 21.9342 47.5178 21.781 47.0347 22.0889C47.1016 22.2479 47.161 22.4327 47.2688 22.5476C48.3536 23.6706 48.9963 25.0573 49.7467 26.3634C50.2928 27.3032 50.497 28.2563 50.3557 29.3334C50.2627 30.1449 50.0211 30.8857 49.5639 31.5923C49.4115 31.8278 49.0957 32.0442 49.3632 32.4846C50.3553 32.4631 51.3808 32.4232 52.4175 32.4425C55.1412 32.4728 57.2478 33.6667 58.7338 35.9392C58.9642 36.313 59.1202 36.7491 59.2167 37.1961C59.3058 37.6689 59.0197 37.9777 58.5403 37.9793C57.7377 38.0275 57.1581 37.6928 56.7272 37.0377C56.0139 35.9938 55.0442 35.1555 54.0187 34.4129C53.6026 34.0974 53.1753 33.9184 52.6365 33.9308C51.2766 33.9581 49.9352 34.0187 48.5826 34.0202C47.9064 34.0209 47.3787 34.2881 46.9476 34.8066C45.881 36.0641 44.8144 37.3217 43.7404 38.6051C43.5695 38.8073 43.5026 39.0395 43.3279 39.3525C44.1081 39.9685 44.8289 40.5954 45.572 41.1448C46.3856 41.7426 47.0098 42.5093 47.5931 43.3201C48.1392 44.0643 49.1387 44.4081 49.4469 45.3912C48.8487 45.8056 48.2876 45.6999 47.7303 45.4834C45.8911 44.7299 44.1002 43.9064 42.707 42.3872C42.3206 41.9685 41.9082 41.5423 41.2988 41.3108C40.9347 41.5971 40.6039 41.8651 40.2732 42.133C39.8272 42.5075 39.4073 42.8895 38.8796 43.3523C39.4294 44.5726 39.4515 45.8644 39.3027 47.1629ZM28.2191 14.6552C26.4353 16.3489 24.7147 18.1166 22.8864 19.7694C20.9837 21.4847 19.2853 23.3706 17.6241 25.3232C16.8511 26.2462 16.1933 27.2582 15.6061 28.3186C14.8591 29.6403 14.9332 30.9471 15.8025 32.2315C16.6644 33.5418 17.6006 34.7896 18.8676 35.7695C19.54 36.2706 20.1159 36.9116 20.7252 37.5343C22.1519 39.0352 23.5785 40.5362 24.9717 42.0554C25.8708 43.041 26.9297 43.7653 28.1112 44.3573C28.4531 44.5396 28.8766 44.6337 29.2668 44.7461C29.6569 44.8585 30.1028 44.8752 30.4372 45.0834C31.7042 45.8676 32.7335 45.3259 33.5697 44.477C34.5693 43.4516 35.4352 42.3039 36.3012 41.1562C38.5236 38.1358 40.8872 35.212 43.5703 32.5479C44.3581 31.769 45.0382 30.8751 45.7443 29.9887C46.2721 29.3304 46.4691 28.5488 46.5101 27.7223C46.5324 27.2536 46.4322 26.7218 46.2427 26.3039C45.2472 24.0888 43.7723 22.2666 41.6619 20.9879C39.9565 19.9655 38.2771 18.9506 36.62 17.8584C34.4428 16.4206 32.1615 15.1485 30.2109 13.4128C30.1403 13.3645 30.0549 13.3678 29.8728 13.3153C29.2559 13.6965 28.7543 14.1667 28.2191 14.6552Z" fill="black"/>
<path d="M28.5399 34.1689C27.4103 33.5919 26.515 32.6912 25.6121 31.8162C25.3707 31.579 25.1032 31.3342 24.8728 31.1561C24.1036 31.1859 23.5945 31.4864 23.208 32.0457C22.9739 32.3694 22.6692 32.6449 22.3904 32.9279C22.0783 33.2291 21.6807 33.3381 21.2645 33.2182C20.7183 33.0608 19.9901 33.0466 19.8824 32.3449C19.7747 31.6432 20.4064 31.4061 20.9787 31.1797C21.4841 30.99 21.982 30.8261 22.4762 30.5773C23.0373 30.2919 23.0671 29.7974 22.5953 29.382C21.9191 28.796 21.2095 28.2282 20.5333 27.6421C20.3475 27.5048 20.1692 27.3416 20.329 27.0803C21.4697 26.9339 21.8747 26.9947 22.7999 27.401C23.1231 27.5501 23.439 27.7249 23.7697 27.8481C24.5202 28.1762 24.5536 28.1579 25.126 27.3447C25.0257 26.8128 24.5427 26.7295 24.1563 26.5064C23.7959 26.2908 23.3277 26.1559 23.2423 25.5724C24.3868 24.9241 25.3157 25.8065 26.4341 25.9332C27.7051 24.4551 28.9909 22.9253 30.3028 21.4031C30.4329 21.245 30.5183 21.0461 30.6298 20.8546C30.2732 20.3327 29.7604 20.157 29.2477 19.9813C28.6569 19.7831 28.081 19.5333 27.7467 18.934C28.2632 18.6078 28.7388 18.7169 29.2367 18.7486C31.1169 18.8712 32.7888 19.7162 34.4422 20.528C35.7464 21.1832 36.7792 22.0956 37.6374 23.3209C38.6405 24.7278 39.0528 26.132 38.759 27.8358C38.4578 29.5654 37.0865 30.9029 35.2992 30.9468C34.8459 30.9559 34.4 30.9392 33.9616 30.8967C32.1966 30.6676 30.5915 29.9815 29.0496 29.1739C28.5851 28.9283 28.1504 28.5795 27.489 28.5286C27.1843 28.8041 26.8796 29.0796 26.4931 29.4433C27.3662 30.2258 28.2505 30.8718 28.9601 31.6352C29.6883 32.4319 30.2418 33.3459 30.9959 34.3456C30.0224 34.7916 29.283 34.5227 28.5399 34.1689ZM28.786 27.2536C30.1718 28.2118 31.4462 29.1659 33.0254 29.6488C34.3704 30.0644 35.8308 29.0041 35.7679 27.5608C35.716 26.1766 35.4338 24.8098 34.4195 23.7351C33.8994 23.194 33.5353 22.5022 32.7477 22.1076C31.4098 23.8179 30.1053 25.51 28.786 27.2536Z" fill="black"/>
</g>
</g>
<defs>
<clipPath id="clip0">
<rect width="60" height="60" fill="white"/>
</clipPath>
<clipPath id="clip1">
<rect width="61.8493" height="56.3627" fill="white" transform="translate(7.77783 -7.6665) rotate(16.0741)"/>
</clipPath>
</defs>
</svg>
