<svg width="316" height="319" viewBox="0 0 316 319" fill="none" xmlns="http://www.w3.org/2000/svg">
<g clip-path="url(#clip0)">
<path d="M279.224 241.312C281.267 223.438 264.922 172.562 232.914 139.562H107.603L71.5087 214.5L78.319 261.938L188.647 272.938C218.158 268.354 277.59 255.613 279.224 241.312Z" fill="white"/>
<path d="M150.099 30.4762C148.923 30.4367 147.905 29.8825 147.082 29.091C146.298 28.3389 145.201 27.9827 144.379 27.2307C143.125 26.0829 141.793 25.0934 140.461 24.0248C139.011 22.7978 137.679 21.4125 136.112 20.3439C135.563 19.9481 135.368 19.2753 134.858 18.8795C133.252 17.6129 131.959 15.9902 130.627 14.5257C129.491 13.2988 128.159 12.2301 127.179 10.8844C126.984 10.6074 126.748 10.4095 126.474 10.2907C125.691 9.9345 125.181 9.22207 124.515 8.7867C122.674 7.55974 121.185 5.93698 119.305 4.67044C117.542 3.48305 115.661 2.8102 113.82 1.8603C112.723 1.30618 111.469 0.989548 110.294 0.83123C107.786 0.514595 105.279 -0.0790971 102.732 0.0396412C100.068 0.1188 97.4433 0.475015 94.8184 1.02913C92.7028 1.50408 90.8614 2.6123 88.9025 3.44347C87.7663 3.95801 86.6694 4.90791 85.6899 5.77866C83.6527 7.63889 81.4979 9.30123 79.9307 11.676C79.4998 12.3093 78.9513 12.903 78.677 13.655C78.3244 14.6445 77.4233 15.2777 76.914 16.1881C75.9346 17.89 74.3675 19.1565 73.5839 21.0563C72.4869 23.6686 71.5075 26.3204 70.4888 28.9722C69.9404 30.3971 69.2743 31.7428 68.8434 33.2072C68.6475 33.9196 68.4908 34.6717 68.3341 35.3841C67.8247 37.561 67.0804 39.6982 66.9628 41.9939C66.8453 43.9728 66.8061 45.9518 66.9236 47.8912C67.002 49.5931 67.2371 51.295 67.1979 52.9969C67.1195 55.4113 67.8247 57.7069 68.4908 59.9629C68.8042 61.0316 69.0001 62.1398 69.4702 63.1293C70.2929 64.7916 70.9982 66.5727 71.8601 68.235C73.4664 71.3618 75.3861 74.2907 76.8749 77.4175C77.1099 77.8924 77.4233 78.3278 77.6584 78.7632C78.2069 79.7526 78.8337 80.7421 78.8729 81.9295C78.8729 82.3649 79.0688 82.8398 79.3431 83.1169C80.6359 84.4626 80.9102 86.3624 81.8505 87.906C82.7516 89.41 83.3784 91.0328 84.2403 92.5368C85.1806 94.12 85.8074 95.8615 86.6694 97.4842C87.688 99.384 88.2365 101.521 89.1376 103.461C90.6655 106.667 91.1356 109.991 91.4882 113.474C91.645 114.978 91.7625 116.482 91.88 117.986C91.9976 119.728 91.8408 121.469 91.6058 123.171C91.4099 124.715 91.2924 126.219 91.0965 127.763C90.8222 129.623 90.4304 131.483 89.6469 133.106C88.5891 135.283 87.6096 137.499 86.2384 139.518C85.3765 140.784 84.5146 142.09 83.4959 143.238C82.2422 144.663 81.0669 146.167 79.4606 147.236C78.7554 147.711 78.2461 148.383 77.5409 148.858C75.8954 150.006 74.054 150.719 72.2519 151.431C70.0187 152.341 67.7072 153.212 65.3173 153.727C63.3584 154.122 61.3604 154.32 59.3623 154.597C57.2075 154.914 55.0527 155.191 52.9371 155.626C50.9782 155.983 48.9409 156.062 46.9429 156.299C45.2582 156.497 43.6127 156.537 41.9281 156.893C40.6744 157.17 39.3423 157.17 38.0494 157.17C35.2286 157.13 32.9955 158.476 30.8799 160.178C30.0963 160.811 29.1561 161.326 28.3725 161.959C26.9229 163.147 25.2774 164.096 23.867 165.403C22.6525 166.55 21.9865 167.975 20.8111 169.123C19.9884 169.954 19.7533 171.221 19.4007 172.289C18.9698 173.675 18.1862 174.941 17.9511 176.406C17.6769 178.108 17.2068 179.77 16.8933 181.472C16.5407 183.53 16.1881 185.628 16.2273 187.686C16.2665 189.902 16.815 192.04 17.5202 194.177C18.1862 196.235 19.3224 198.056 20.4193 199.837C21.3988 201.38 22.4174 202.963 23.8278 204.309C24.964 205.378 26.3744 206.169 27.3147 207.515C27.7065 208.109 28.5684 208.346 29.2344 208.782C32.4078 210.761 35.7771 212.463 39.264 213.848C40.8703 214.521 42.3982 215.352 43.9261 216.143C45.4933 216.935 46.8253 218.162 47.5697 220.022C47.9223 220.853 48.5883 221.605 48.8234 222.516C49.176 223.861 49.5286 225.207 49.842 226.553C50.1163 227.74 50.3122 228.928 50.704 230.075C51.0957 231.184 51.1349 232.331 51.2916 233.44C51.6834 236.012 52.3494 238.466 53.133 240.92C53.7598 242.899 54.3083 244.918 55.1702 246.817C56.4239 249.667 57.9519 252.319 59.6757 254.813C60.616 256.158 61.5563 257.662 63.0842 258.573C63.5543 258.85 63.7502 258.691 63.9069 258.296C64.1812 257.544 64.3771 256.792 64.6905 256.079C64.8472 255.683 64.808 255.01 65.5524 255.09C65.8658 255.05 65.7483 254.813 65.7091 254.654C65.4741 253.783 65.4741 252.913 65.5132 252.002C65.5524 249.628 65.5132 247.213 65.9442 244.838C66.5319 241.712 66.1009 238.427 67.0412 235.3C67.5897 233.4 67.7072 231.421 68.2165 229.482C68.8825 226.79 69.5094 224.099 70.3321 221.487C71.3116 218.36 72.3694 215.233 73.5839 212.185C74.6417 209.613 75.817 207.08 77.0316 204.586C78.0502 202.449 78.8338 200.232 80.0091 198.174C80.6751 196.947 81.3411 195.72 82.0072 194.493C83.2609 192.079 84.6713 189.784 86.16 187.488C88.2757 184.163 90.4696 180.878 92.8987 177.751C94.7792 175.337 96.6206 172.883 98.6186 170.627C100.225 168.846 101.831 167.065 103.516 165.363C105.122 163.74 106.768 162.078 108.452 160.534C111.077 158.08 113.859 155.824 116.719 153.687C120.167 151.154 123.771 148.858 127.61 146.998C130.549 145.573 133.605 144.307 136.739 143.357C139.442 142.526 142.263 142.09 145.084 141.813C147.983 141.536 150.96 141.655 153.86 142.169C155.192 142.407 155.309 142.407 155.583 141.14C156.249 137.816 157.582 134.689 158.953 131.641C159.109 131.285 159.188 131.127 158.718 131.048C157.699 130.889 156.68 130.691 155.662 130.573C155.152 130.493 154.486 130.533 154.251 131.048C153.86 131.958 153.311 132.789 152.88 133.739C151.626 136.589 149.707 138.766 146.729 139.874C145.711 140.27 144.653 140.547 143.556 140.705C141.401 141.061 139.285 141.536 137.052 141.061C133.448 140.27 130.588 138.37 128.002 135.876C126.984 134.887 126.161 133.66 125.926 132.195C125.534 129.979 125.456 127.802 125.769 125.546C126.161 123.013 126.944 120.638 128.08 118.382C129.726 115.137 130.862 111.733 131.254 108.131C131.567 105.361 131.019 102.63 130.431 99.9382C129.922 97.7217 129.177 95.5844 128.59 93.4076C128.198 92.0619 128.041 90.637 127.767 89.2913C127.219 86.7978 126.866 84.2647 126.748 81.7316C126.474 77.2987 126.748 72.8658 127.101 68.4725C127.219 66.6518 127.65 64.9103 128.12 63.2084C128.629 61.3482 129.217 59.488 129.804 57.6277C130.627 54.8968 131.763 52.2845 132.899 49.6723C134.075 46.9413 135.485 44.4082 137.405 42.0334C139.403 39.5399 141.244 36.9673 143.713 34.9487C145.045 33.8801 146.377 32.8114 147.905 32.0594C148.61 31.4657 149.55 31.2678 150.099 30.4762Z" fill="#C5E2FB"/>
<path d="M150.099 30.4762C149.55 31.2678 148.61 31.4261 147.826 31.8219C146.298 32.6135 144.927 33.6426 143.634 34.7112C141.166 36.7298 139.325 39.3024 137.327 41.7959C135.407 44.1707 134.036 46.7434 132.821 49.4348C131.685 52.047 130.549 54.6593 129.726 57.3902C129.178 59.2505 128.59 61.1107 128.042 62.9709C127.571 64.7124 127.18 66.4539 127.023 68.235C126.709 72.6679 126.435 77.1008 126.67 81.4941C126.827 84.0272 127.14 86.5603 127.689 89.0538C128.002 90.4391 128.159 91.8243 128.512 93.1701C129.138 95.3469 129.883 97.4842 130.353 99.7007C130.941 102.392 131.489 105.123 131.176 107.894C130.784 111.495 129.609 114.899 128.002 118.145C126.866 120.401 126.083 122.736 125.691 125.309C125.338 127.565 125.456 129.741 125.848 131.958C126.083 133.383 126.905 134.61 127.924 135.639C130.51 138.132 133.409 140.032 136.974 140.824C139.246 141.338 141.323 140.824 143.478 140.467C144.575 140.309 145.632 140.032 146.651 139.636C149.629 138.528 151.548 136.312 152.802 133.501C153.194 132.591 153.742 131.76 154.173 130.81C154.408 130.296 155.074 130.296 155.584 130.335C156.602 130.454 157.621 130.652 158.64 130.81C159.07 130.889 159.031 131.048 158.875 131.404C157.503 134.491 156.171 137.578 155.505 140.903C155.27 142.169 155.114 142.169 153.781 141.932C150.882 141.417 147.944 141.299 145.006 141.576C142.185 141.853 139.364 142.288 136.661 143.119C133.526 144.069 130.471 145.336 127.532 146.761C123.693 148.621 120.088 150.916 116.641 153.45C113.781 155.587 110.999 157.843 108.374 160.297C106.69 161.88 105.083 163.503 103.438 165.125C101.753 166.827 100.147 168.608 98.5405 170.39C96.5032 172.646 94.6618 175.099 92.8205 177.514C90.3914 180.641 88.1975 183.926 86.0819 187.25C84.6323 189.546 83.2219 191.842 81.929 194.256C81.263 195.483 80.6361 196.71 79.9309 197.937C78.7556 199.995 77.972 202.211 76.9534 204.349C75.7389 206.842 74.5635 209.375 73.5057 211.948C72.252 214.996 71.2334 218.122 70.2539 221.249C69.4312 223.861 68.8044 226.592 68.1384 229.244C67.6682 231.184 67.5115 233.163 66.963 235.062C66.0619 238.189 66.4537 241.474 65.866 244.601C65.435 246.976 65.4742 249.351 65.4351 251.765C65.3959 252.675 65.3959 253.546 65.6309 254.417C65.6701 254.575 65.8268 254.813 65.4742 254.852C65.4742 255.169 65.5134 255.485 65.5134 255.802C65.9836 256.317 65.6701 256.91 65.7093 257.464C66.0619 261.897 67.0022 266.251 68.6085 270.407C71.155 276.898 75.0728 282.32 81.2238 285.843C83.7704 287.307 86.5128 288.297 89.3728 289.009C93.0164 289.88 96.6599 289.88 100.343 289.682C102.615 289.563 104.848 289.049 107.003 288.415C110.96 287.268 114.76 285.684 118.404 283.745C118.952 283.428 119.54 283.191 120.088 282.795C120.559 282.439 120.715 282.479 120.637 283.072C120.402 284.774 120.167 286.516 119.932 288.218C119.775 289.247 119.657 290.315 119.501 291.344C119.031 295.025 118.56 298.706 118.521 302.427C118.521 303.574 118.521 304.366 119.344 305.316C120.049 306.107 120.833 305.989 121.616 306.107C122.517 306.266 123.419 306.266 124.359 306.305C124.986 306.345 125.338 306.662 125.299 307.295C125.26 308.086 125.495 308.878 125.26 309.67C125.142 310.145 125.377 310.263 125.808 310.342C127.924 310.699 130.04 310.897 132.194 311.094C135.094 311.372 137.993 311.728 140.892 312.044C143.203 312.282 145.476 312.48 147.787 312.678C150.882 312.994 153.977 313.351 157.072 313.628C159.188 313.825 161.264 313.984 163.38 314.182C166.828 314.538 170.275 314.894 173.723 315.25C175.721 315.448 177.719 315.607 179.756 315.804C183.322 316.161 186.848 316.596 190.413 316.873C193.077 317.071 195.702 317.506 198.366 317.348C199.816 317.269 200.952 316.517 201.618 315.171C203.067 312.163 203.773 308.918 204.36 305.633C204.791 303.179 205.34 300.764 205.771 298.31C206.123 296.371 206.398 294.432 206.672 292.492C207.024 289.999 207.377 287.505 207.377 284.972C207.377 284.18 207.886 284.458 208.239 284.655C210.198 285.803 212.235 286.872 214.272 287.822C217.132 289.167 220.11 290.315 223.127 291.265C226.261 292.255 229.473 293.007 232.725 293.521C236.996 294.154 241.344 294.273 245.654 293.719C249.728 293.205 253.646 292.136 257.368 290.394C260.15 289.128 262.696 287.386 265.125 285.447C270.062 281.41 273.392 276.225 275.86 270.407C277.192 267.32 278.093 264.035 278.759 260.71C279.269 258.058 279.66 255.446 279.974 252.754C280.366 249.271 280.17 245.788 280.209 242.305C280.209 242.226 280.131 242.107 280.131 242.028C279.66 241.316 280.131 240.564 280.052 239.812C279.7 236.408 279.308 233.044 278.681 229.68C278.289 227.621 277.937 225.563 277.349 223.584C276.526 220.853 275.86 218.083 274.841 215.391C273.549 211.948 272.608 208.425 271.08 205.101C270.14 203.003 269.435 200.826 268.103 198.887C267.515 197.976 267.084 196.947 266.497 195.997C265.321 194.137 264.538 192.04 263.206 190.219C262.069 188.636 261.521 186.696 260.15 185.232C259.092 184.084 258.23 182.738 257.368 181.472C255.801 179.137 254.038 176.96 252.353 174.704C250.786 172.606 248.945 170.706 247.103 168.846C242.716 164.334 238.171 160.059 233.156 156.299C229.748 153.727 226.182 151.391 222.5 149.254C219.17 147.315 215.604 145.811 212 144.425C210.55 143.871 209.022 143.396 207.495 142.961C205.849 142.486 204.204 142.051 202.519 141.734C200.56 141.378 198.601 141.18 196.642 140.903C196.29 140.863 196.172 140.705 196.055 140.388C195.545 139.201 195.389 137.934 195.114 136.707C194.762 135.164 194.252 133.699 193.743 132.235C193.508 131.523 193.586 131.127 194.487 130.968C196.172 130.691 197.778 130.098 199.267 129.227C200.442 128.514 201.735 127.921 203.028 127.525C204.83 127.01 206.358 127.96 207.847 128.871C210.59 130.573 213.489 131.562 216.78 131.443C219.405 131.364 221.52 130.533 223.127 128.396C224.341 126.813 225.203 125.032 225.36 123.092C225.751 118.857 225.477 114.622 224.576 110.466C224.028 107.933 223.362 105.44 222.97 102.907C222.813 101.798 222.108 100.769 222.421 99.5028C223.009 99.7798 223.518 100.017 223.949 100.492C224.85 101.442 226.182 101.798 227.319 101.68C229.003 101.521 230.531 100.651 231.589 99.2653C232.294 98.3154 232.96 97.2863 232.02 96.0989C231.707 95.7031 231.276 95.3469 230.923 94.9907C230.296 94.4366 229.552 93.9616 229.042 93.2888C227.319 90.9536 225.085 89.0934 223.087 86.9957C222.147 86.0062 221.168 85.1354 221.794 83.3544C222.265 82.0482 222.696 80.6234 222.696 79.0798C222.656 74.5677 222.461 70.1348 221.638 65.6623C221.207 63.2084 220.423 60.9128 219.405 58.7359C217.681 55.1738 215.213 52.1262 211.843 49.8701C210.394 48.8807 208.827 48.2078 207.064 47.8912C206.515 47.812 205.653 47.7329 205.536 47.2975C205.379 46.6642 206.202 46.3476 206.672 45.9914C208.082 44.9623 209.218 43.6957 209.688 42.0334C210.315 39.817 209.532 38.5108 207.064 38.3525C205.261 38.2338 203.851 38.9858 202.636 40.2128C202.48 40.3711 202.323 40.7273 202.049 40.6085C201.735 40.4898 201.696 40.1732 201.657 39.8565C201.5 38.3921 200.717 37.3235 199.345 36.7298C198.209 36.2152 197.23 36.5714 196.485 37.5609C196.015 38.1546 196.211 38.8671 195.937 39.5399C194.84 38.8275 194.174 37.838 193.43 36.9277C190.06 33.7613 186.221 31.2282 182.303 28.8139C179.992 27.389 177.523 26.3995 174.742 26.1225C171.137 25.7663 167.611 26.2412 164.085 26.4787C162.401 26.5974 160.755 26.9536 159.07 26.9932C157.974 26.9932 156.837 27.5078 155.74 27.864C154.017 28.8535 152.018 29.5263 150.099 30.4762ZM91.7235 188.24C91.7627 188.2 91.7627 188.161 91.8019 188.121C91.841 187.844 91.7627 187.527 92.1545 187.488C92.1936 187.448 92.2328 187.409 92.2328 187.369C92.3503 186.973 92.5071 186.578 92.8988 186.34C92.938 186.261 92.9772 186.182 93.0164 186.142C93.0556 185.905 92.9772 185.667 93.3298 185.667C93.369 185.588 93.4473 185.509 93.4865 185.43C93.6432 184.836 93.8783 184.322 94.466 184.044C94.5051 183.965 94.5443 183.886 94.5835 183.807C94.5835 183.569 94.5443 183.332 94.8969 183.292C95.6413 182.224 96.3857 181.116 97.1692 180.047C101.048 174.664 105.397 169.677 110.098 165.007C113.076 162.038 116.21 159.268 119.579 156.735C122.87 154.241 126.279 151.946 129.922 149.927C133.213 148.106 136.621 146.602 140.187 145.415C142.733 144.584 145.358 143.99 147.983 143.673C149.864 143.436 151.744 143.555 153.664 143.634C154.918 143.713 154.996 143.713 154.878 144.98C154.643 147.156 154.369 149.373 154.408 151.55C154.447 154.518 154.722 157.487 155.192 160.455C155.544 162.672 155.584 164.928 155.975 167.184C156.485 170.033 157.425 172.685 158.483 175.337C158.992 176.604 160.011 177.078 161.225 176.722C163.576 176.049 165.613 174.704 167.337 173.121C168.826 171.735 170.471 170.627 172.038 169.242C172.078 169.519 172.117 169.677 172.078 169.835C171.568 171.617 171.255 173.477 170.824 175.258C170.119 178.187 169.609 181.116 168.983 184.044C168.865 184.599 168.63 184.757 168.121 184.638C165.339 184.005 162.44 183.728 159.619 183.688C153.781 183.649 147.983 183.134 142.146 183.569C141.284 183.649 140.383 183.569 139.521 183.649C136.621 183.965 133.722 184.401 130.823 184.678C129.413 184.796 128.002 184.757 126.631 184.757C124.359 184.796 123.81 185.351 123.849 187.567C123.889 189.981 124.045 192.356 124.28 194.731C124.672 199.085 124.476 203.478 124.633 207.832C124.946 216.658 124.868 225.484 124.986 234.271C124.986 234.746 124.829 234.864 124.398 234.983C122.909 235.419 121.46 235.854 119.971 236.329C117.855 237.002 115.74 237.635 113.702 238.427C113.115 238.664 112.801 238.466 112.997 237.793C113.35 236.566 113.624 235.339 113.859 234.073C114.29 231.975 114.799 229.877 115.309 227.78C115.74 225.84 116.171 223.901 116.641 221.962C117.228 219.666 117.816 217.37 118.404 215.075C118.991 212.819 119.579 210.523 120.167 208.267C120.637 206.486 121.107 204.744 121.499 202.963C121.577 202.686 121.851 202.132 121.225 202.014C120.754 201.895 120.245 201.776 119.971 202.409C119.736 202.924 119.462 203.359 119.226 203.874C118.09 206.209 117.385 208.702 116.562 211.156C115.818 213.373 115.074 215.589 114.447 217.845C114.016 219.389 113.585 220.893 113.232 222.437C112.762 224.415 112.214 226.355 111.822 228.294C111.508 229.719 111.156 231.144 110.921 232.608C110.568 234.825 109.824 236.962 109.863 239.258C109.863 239.535 109.863 239.812 109.471 239.97C107.826 240.564 106.259 241.395 104.613 242.068C99.8333 244.126 95.2103 246.54 90.7441 249.192C89.4904 249.944 88.8635 250.815 88.8635 252.24C88.8635 252.636 89.0202 253.031 89.3336 252.873C89.843 252.636 90.4306 252.715 90.9399 252.438C94.466 250.577 97.992 248.717 101.557 246.897C105.867 244.68 110.176 242.503 114.682 240.722C118.717 239.139 122.752 237.635 126.905 236.329C129.687 235.458 132.469 234.667 135.25 233.994C136.073 233.796 137.052 233.756 137.954 234.35C140.578 236.091 143.047 237.952 145.045 240.406C147.395 243.295 149.198 246.501 150.138 250.182C150.295 250.815 150.216 251.409 149.707 251.844C149.119 252.359 148.649 252.952 148.14 253.546C145.75 256.396 143.36 259.245 140.814 261.976C135.329 267.755 129.452 273.059 122.831 277.492C119.148 279.945 115.309 282.162 111.195 283.864C107.982 285.21 104.691 286.239 101.205 286.832C97.3651 287.505 93.604 287.703 89.8038 286.753C86.9046 286.041 84.358 284.735 82.0465 282.835C77.1885 278.877 74.446 273.534 72.683 267.636C71.7035 264.391 71.155 261.066 70.8416 257.741C70.489 253.783 70.489 249.825 70.8025 245.907C71.0767 242.385 71.5076 238.902 72.2128 235.419C72.8397 232.292 73.4666 229.165 74.3285 226.117C75.543 221.922 76.875 217.766 78.4813 213.689C80.0876 209.573 81.8506 205.536 83.8487 201.657C85.3767 198.689 86.5912 195.602 88.8635 193.029C89.9997 191.762 90.6265 190.061 91.4884 188.557C91.4493 188.359 91.4884 188.24 91.7235 188.24ZM197.622 151.075C197.582 150.956 197.622 150.837 197.7 150.758C197.504 150.679 197.504 150.481 197.543 150.323C197.661 148.146 197.152 146.009 197.034 143.832C196.995 142.842 197.269 142.644 198.17 142.644C199.698 142.644 201.187 143.238 202.676 143.396C205.065 143.634 207.259 144.465 209.493 145.217C213.802 146.681 217.916 148.621 221.834 150.877C224.576 152.42 227.162 154.202 229.748 156.062C232.568 158.08 235.193 160.257 237.74 162.553C240.091 164.651 242.363 166.827 244.479 169.123C247.064 171.933 249.611 174.822 251.962 177.83C253.254 179.453 254.391 181.195 255.644 182.857C256.702 184.242 257.603 185.826 258.504 187.33C260.228 190.179 262.03 192.989 263.558 195.918C264.969 198.689 266.379 201.499 267.672 204.349C268.338 205.813 268.886 207.357 269.435 208.861C270.101 210.681 270.845 212.502 271.433 214.323C272.373 217.252 273.157 220.18 274.058 223.109C274.841 225.682 275.155 228.373 275.703 230.986C275.978 232.411 276.134 233.915 276.291 235.379C276.683 238.506 277.075 241.633 276.879 244.799C276.879 245.076 276.918 245.313 276.918 245.59C276.605 248.401 276.683 251.211 276.33 254.021C276.056 256.079 275.821 258.177 275.351 260.235C274.489 264.074 273.196 267.795 271.472 271.396C269.2 276.146 266.105 280.302 262.226 283.864C256.741 288.851 250.159 291.503 242.833 292.136C239.072 292.453 235.311 292.255 231.55 291.542C228.024 290.869 224.615 289.88 221.285 288.574C216.231 286.555 211.451 283.983 206.868 280.975C199.776 276.304 193.586 270.605 187.631 264.589C187.239 264.193 187.2 263.876 187.435 263.48C188.336 261.937 188.689 260.156 189.198 258.454C189.904 256.119 190.452 253.744 190.922 251.33C191.314 249.153 191.823 246.976 192.019 244.759C192.137 243.295 192.842 242.662 194.292 242.701C194.527 242.701 194.762 242.701 194.958 242.701C198.366 242.701 201.775 242.622 205.183 243.018C207.808 243.334 210.472 243.532 213.136 243.889C214.703 244.086 216.27 244.482 217.759 244.918C220.11 245.63 222.539 246.184 224.85 247.055C227.436 248.005 230.139 248.717 232.686 249.707C235.938 250.973 239.15 252.359 242.285 253.823C245.027 255.129 247.887 256.158 250.551 257.662C251.296 258.098 251.726 259.008 252.706 259.008C252.941 259.008 253.254 259.127 253.411 258.81C253.529 258.533 253.333 258.335 253.098 258.137C252.236 257.385 251.296 256.673 250.277 256.158C247.064 254.535 243.852 252.913 240.6 251.409C238.132 250.261 235.703 249.073 233.117 248.203C232.608 248.044 232.686 247.807 232.843 247.372C233.626 245.274 234.253 243.137 234.762 240.96C235.546 237.793 236.055 234.627 236.525 231.421C237.152 227.305 237.27 223.109 237.387 218.954C237.505 215.391 237.191 211.829 236.917 208.307C236.839 207.357 236.604 206.446 236.369 205.536C236.094 204.626 235.468 204.547 234.762 204.626C234.057 204.705 234.018 205.299 233.94 205.892C233.705 208.425 233.783 210.998 233.587 213.571C233.313 216.895 233.352 220.26 233.156 223.624C233.039 225.603 232.764 227.621 232.568 229.6C232.49 230.55 232.373 231.54 232.177 232.529C231.707 234.983 231.276 237.477 230.727 239.931C230.257 242.108 229.669 244.205 229.16 246.382C229.082 246.738 228.847 246.699 228.651 246.62C225.791 245.551 222.891 244.641 219.953 243.73C217.407 242.939 214.821 242.305 212.157 241.949C211.53 241.87 210.825 241.87 210.433 241.435C210.119 241.078 210.55 240.524 210.707 240.049C210.707 240.01 210.707 239.97 210.707 239.97C210.942 237.437 211.334 234.944 211.334 232.411C211.334 227.819 211.412 223.189 211.216 218.597C211.021 213.848 210.511 209.098 210.276 204.349C210.276 204.072 210.237 203.755 210.237 203.478C209.924 200.707 209.375 197.937 209.14 195.127C209.101 194.454 208.827 193.821 208.121 193.781C206.672 193.702 205.379 193.029 203.929 192.95C203.694 192.95 203.42 192.91 203.381 192.633C203.224 191.723 202.636 190.813 202.832 189.863C203.028 189.071 202.597 188.834 202.127 188.636C201.539 188.359 200.913 188.161 200.247 188.2C198.562 188.279 196.956 187.805 195.31 187.646C194.37 187.567 193.43 187.488 192.489 187.29C189.669 186.657 186.848 186.182 183.988 185.865C182.146 185.667 180.344 185.351 178.464 185.351C177.288 185.351 177.171 185.113 177.523 183.965C178.111 182.065 178.268 180.047 178.542 178.108C178.934 175.337 179.169 172.527 179.443 169.717C179.521 168.965 179.756 169.123 180.148 169.479C180.814 170.073 181.48 170.667 182.107 171.3C183.988 173.081 185.633 175.1 187.788 176.604C188.572 177.158 189.433 177.395 190.256 176.999C192.176 176.089 193.547 174.625 194.331 172.606C194.918 171.062 195.31 169.44 195.78 167.856C196.29 166.115 196.799 164.373 197.152 162.553C197.387 161.405 197.465 160.297 197.622 159.149C197.896 157.328 198.013 155.468 197.622 153.647C197.465 152.895 197.622 151.985 197.622 151.075ZM206.202 100.334C205.222 101.205 204.008 101.086 202.832 101.244C202.205 101.323 202.205 101.086 202.362 100.571C202.754 99.384 203.185 98.1571 203.381 96.9301C203.655 95.1094 204.439 93.5658 205.575 92.1806C205.888 91.8243 206.123 91.7056 206.633 92.0222C207.69 92.7347 208.67 93.5658 209.649 94.397C210.119 94.7928 210.629 95.0303 211.256 94.8324C211.334 94.7137 211.412 94.5949 211.491 94.4762C210.668 92.8534 209.414 91.666 207.886 90.7557C207.651 90.637 207.142 90.7161 207.22 90.3995C207.299 90.0829 207.377 89.6079 207.769 89.41C208.905 88.8955 209.571 87.4706 211.099 87.6289C211.295 87.6289 211.765 87.431 211.647 86.9561C211.569 86.5999 211.256 86.5603 210.942 86.5207C209.924 86.402 208.944 86.679 208.004 87.0352C206.75 87.5102 205.692 88.3018 204.635 89.3308C204.635 88.1039 204.752 86.9957 204.595 85.9666C204.282 83.7106 205.81 82.6023 207.181 81.4545C207.651 81.0587 208.396 80.7421 209.062 81.0587C211.06 81.9691 212.666 83.3939 213.41 85.5312C214.194 87.7477 214.468 90.0433 214.311 92.3785C214.311 92.5764 214.351 92.7743 214.311 92.9722C213.645 95.5448 212.431 97.6821 210.002 98.9882C208.827 99.7007 207.612 100.294 206.202 100.334ZM206.162 73.0241C206.202 73.0637 206.202 73.1033 206.241 73.1429C206.515 73.0637 206.672 73.1824 206.828 73.3408C208.513 74.9239 210.394 76.3092 212.039 78.0111C215.134 81.2171 218.268 84.3438 221.285 87.5894C224.067 90.637 226.927 93.5658 229.865 96.4551C230.57 97.128 230.57 97.7217 229.865 98.3945C229.552 98.7112 229.16 98.9487 228.807 99.2257C228.572 99.8194 228.337 100.176 227.593 99.7402C226.457 99.107 225.634 98.1966 224.772 97.2467C223.127 95.4657 221.011 94.2387 219.326 92.4972C218.66 91.7848 217.681 91.1119 217.563 90.162C217.407 88.8163 217.328 87.5102 217.054 86.1645C216.701 86.0853 216.701 85.8083 216.741 85.5312C216.78 84.898 216.545 84.3438 216.192 83.9085C215.33 82.7607 214.351 81.692 213.136 80.9004C212.588 80.5442 211.922 80.3859 211.491 79.8318C211.334 79.8318 211.138 79.8318 211.021 79.7526C209.375 79.1194 207.73 79.1985 206.123 79.7526C205.575 79.9505 205.144 79.9109 204.674 79.3964C203.538 78.209 202.323 77.1008 200.991 76.1509C200.56 75.8343 200.482 75.478 200.795 75.0822C201.422 74.2907 201.931 73.3803 202.636 72.5887C204.399 70.5306 204.204 70.4515 205.927 72.6679C206.123 72.7075 206.202 72.8262 206.162 73.0241ZM142.302 77.5758C143.791 76.8237 145.241 77.1404 146.69 77.7341C147.356 78.0111 147.474 78.4465 147.317 79.0402C146.886 80.9796 146.729 82.919 146.612 84.8979C146.612 85.0958 146.69 85.3729 146.377 85.4916C146.103 85.3729 145.946 85.1354 145.789 84.8584C145.006 83.7106 144.026 82.7211 142.812 82.0086C142.381 81.7712 141.832 81.5733 141.44 82.0086C141.049 82.444 141.519 82.8398 141.832 83.1565C142.341 83.7501 142.851 84.3834 143.399 84.9771C144.026 85.6895 144.065 86.3228 143.282 86.9561C142.851 87.3123 142.459 87.7477 142.106 88.2226C141.636 88.8955 141.911 89.41 142.772 89.4892C143.634 89.5683 144.222 89.0934 144.692 88.4205C144.849 88.183 145.006 87.5893 145.437 88.2226C146.298 89.4892 146.925 90.8349 147.004 92.418C147.082 94.0012 147.356 95.5448 147.552 97.0884C147.591 97.2467 147.866 97.4446 147.631 97.603C147.435 97.7217 147.239 97.6425 147.004 97.5238C145.632 96.8114 144.418 95.8615 143.164 94.9907C140.853 93.3284 138.855 91.5077 138.345 88.4205C137.797 85.175 138.306 82.2065 140.069 79.4756C140.461 78.3673 141.127 77.6549 142.302 77.5758ZM192.489 62.1398C193.43 63.248 194.056 64.5541 195.153 65.504C195.545 65.8207 195.937 66.1769 196.172 66.6518C195.819 66.9685 195.428 66.8101 195.036 66.8101C194.487 66.8101 194.017 67.0476 193.704 67.5226C193.547 67.7601 193.586 67.9579 193.743 68.1558C194.644 69.5015 195.349 70.9264 195.976 72.4304C196.877 74.5677 198.248 76.2696 200.09 77.6549C201.735 78.8819 203.733 80.1484 202.95 82.8794C202.832 83.2752 202.832 83.7106 202.754 84.1459C202.715 84.4626 202.676 84.8188 202.323 84.9771C201.97 85.0958 201.814 84.8188 201.579 84.6209C200.442 83.7106 199.385 82.7211 198.013 82.167C197.152 81.8108 196.055 81.5337 195.584 80.8608C194.683 79.5943 193.625 78.6048 192.489 77.6153C191.157 76.4675 189.669 75.6364 187.827 74.8843C188.297 74.7656 188.493 74.7656 188.689 74.6865C189.238 74.5281 189.904 74.6073 190.139 73.9344C190.374 73.2616 189.982 72.7471 189.551 72.2721C188.65 71.2826 187.553 70.491 186.495 69.6599C185.32 68.7495 184.066 68.235 182.538 68.4725C181.48 68.6308 181.167 69.3036 181.794 70.214C182.381 71.0847 183.087 71.8763 183.949 72.5492C184.771 73.1429 185.555 73.7761 186.691 74.449C186.025 74.449 185.672 74.449 185.32 74.449C182.029 74.2511 179.365 75.3593 177.641 78.3278C177.21 79.0402 176.661 78.8819 176.113 78.6444C175.251 78.2882 174.35 78.1694 173.488 78.0903C171.568 77.932 171.451 78.4069 171.255 75.8738C171.255 75.6364 171.255 75.3989 171.216 75.201C170.902 73.8157 170.824 72.3513 169.844 71.2035C169.531 70.8077 169.1 70.4515 168.591 70.6493C168.042 70.8868 168.081 71.4014 168.395 71.8763C168.512 72.0742 168.434 72.3117 168.473 72.5492C168.591 74.0136 168.512 75.5176 168.826 76.9821C168.904 77.2987 169.022 77.7736 168.669 77.9715C168.199 78.2486 167.964 77.7341 167.729 77.5362C165.809 75.7551 163.537 74.9635 160.951 75.0822C158.64 75.201 156.563 76.1509 155.074 77.8924C154.056 79.0798 152.92 79.3568 151.548 79.1985C151.47 79.1985 151.431 79.1985 151.352 79.1985C150.726 79.2777 150.412 79.0006 150.53 78.3278C150.804 76.6258 151.078 74.8843 151.431 73.1824C151.587 72.3117 152.136 71.718 152.92 71.2826C154.252 70.491 155.662 69.9765 157.112 69.462C157.699 69.2641 158.326 68.8287 159.07 69.1058C158.796 69.462 158.561 69.7786 158.287 70.0161C157.934 70.2931 157.856 70.7285 157.66 71.0847C157.112 72.1929 157.621 73.5387 158.561 73.6574C159.345 73.7761 160.089 73.697 160.755 73.1033C162.009 71.995 162.949 70.7285 163.067 69.0266C163.106 68.5516 163.341 68.5912 163.654 68.5516C165.457 68.4329 167.18 68.1954 168.943 67.7996C172.117 67.0872 175.329 66.6122 178.424 65.4249C181.402 64.2771 184.066 62.7335 186.299 60.3983C187.592 59.0526 188.963 57.7465 190.295 56.2424C191.118 58.1818 191.823 60.1608 192.489 62.1398ZM163.027 129.464C163.38 129.069 163.889 128.712 164.046 128.237C164.516 126.892 165.182 125.586 165.026 124.121C164.986 123.567 165.261 123.527 165.652 123.725C167.494 124.557 169.492 124.834 171.372 125.388C171.96 125.388 172.548 125.348 173.135 125.388C175.995 125.506 178.816 125.348 181.559 124.319C182.068 124.121 181.99 124.398 181.911 124.794C181.324 128.04 182.812 131.206 187.044 131.681C187.827 131.76 187.827 132.235 187.827 132.749C187.749 136.193 188.141 139.715 186.887 143.08C186.495 144.109 186.495 145.257 185.868 146.207C185.712 146.84 185.476 147.394 185.202 147.988C184.223 150.046 183.282 152.104 182.381 154.202C181.01 157.21 179.874 160.336 177.171 162.474C176.505 162.988 176.113 163.067 175.604 162.355C174.624 160.97 173.762 159.545 173.096 158.001C171.647 154.677 170.119 151.391 168.277 148.265C166.632 145.454 165.496 142.446 164.986 139.201C164.516 139.122 164.751 138.805 164.712 138.568C164.673 138.37 164.634 138.132 164.595 137.934C164.36 137.974 164.36 137.776 164.281 137.657C163.537 136.272 163.38 134.689 162.91 133.224C162.557 132.116 162.792 130.85 162.753 129.662C162.792 129.544 162.832 129.425 163.027 129.464ZM172.234 123.527C170.51 123.29 168.865 122.696 167.337 121.944C162.401 119.49 158.796 115.572 156.093 110.822C154.761 108.487 153.703 105.994 152.841 103.382C152.097 101.086 151.548 98.7508 151.039 96.4156C150.726 94.9511 150.608 93.4471 150.451 91.9431C150.06 88.6976 150.255 85.4521 150.255 82.167C150.255 81.5337 150.569 81.0983 151.313 80.8608C152.371 80.5046 153.233 80.94 154.173 81.1379C155.388 81.415 156.602 81.1379 157.347 80.1088C158.13 79.0402 159.031 78.0903 160.089 77.2987C160.834 76.7446 161.695 76.3092 162.636 76.705C163.733 77.1404 164.83 77.7341 165.496 78.7631C166.162 79.8714 167.141 79.9901 168.16 79.7526C168.943 79.5547 169.022 79.7922 169.022 80.4651C169.022 84.1064 169.022 87.7872 169.1 91.4286C169.139 93.368 169.413 95.2282 170.354 96.9697C170.981 97.6425 171.607 98.2758 172.665 98.1175C173.096 98.0383 173.566 98.1175 173.997 98.1175C174.898 97.88 175.329 97.1676 175.8 96.4156C176.74 94.9116 176.661 93.1701 177.132 91.5473C177.171 91.3494 176.975 91.3098 176.818 91.2702C176.23 91.1119 175.917 91.389 175.721 91.9431C175.29 93.1701 174.859 94.397 174.193 95.5052C173.88 96.0198 173.684 96.9697 173.018 96.8509C172.352 96.7322 172.352 95.8219 172.195 95.149C171.607 92.9326 171.999 90.7161 171.96 88.4601C171.96 85.7291 171.882 82.9981 171.803 80.2672C171.764 79.5151 172.038 79.3568 172.704 79.436C174.076 79.6735 175.408 79.9901 176.701 80.5442C178.385 81.2962 179.874 80.8213 180.853 79.2777C181.324 78.5257 181.833 77.7736 182.381 77.0612C183.126 76.1509 184.771 75.5176 186.025 76.0717C188.101 76.9821 189.943 78.1299 191.627 79.6339C192.293 80.2276 192.803 80.94 192.999 81.8108C195.467 82.8398 197.857 84.0272 199.933 85.7687C201.539 87.1144 202.597 88.3018 201.696 90.5182C201.657 90.637 201.657 90.7557 201.618 90.914C201.422 92.9722 200.873 94.9511 200.286 96.8905C199.424 99.7007 198.562 102.511 197.23 105.163C195.702 108.25 194.135 111.297 191.823 113.91C190.844 115.018 189.825 116.007 188.807 117.036C187.435 118.422 186.025 119.767 184.34 120.757C181.089 122.578 177.719 124.002 173.88 123.607C173.253 123.686 172.665 123.963 172.234 123.527ZM148.414 271.475C148.414 271.436 148.414 271.396 148.414 271.357C145.397 271.357 142.42 271.396 139.403 271.357C138.659 271.357 137.993 271.555 137.327 271.752C136.974 271.832 136.817 272.03 136.817 272.386C136.817 272.742 137.052 272.9 137.366 272.94C138.149 273.019 138.894 273.217 139.677 273.217C146.612 273.375 153.546 273.217 160.481 273.613C165.378 273.89 170.315 273.85 175.212 274.009C179.247 274.127 183.243 274.523 187.279 274.958C189.629 275.235 191.902 275.79 194.252 274.958C194.448 274.879 194.605 274.958 194.762 275.117C196.603 276.779 198.601 278.244 200.56 279.708C200.834 279.906 201.148 280.104 200.991 280.579C200.168 282.993 199.737 285.487 199.385 288.02C198.875 291.542 198.327 295.065 197.857 298.587C197.622 300.408 197.347 302.229 196.995 304.01C196.564 306.107 195.976 308.205 195.624 310.303C195.467 311.292 195.075 311.53 194.174 311.53C192.019 311.49 189.943 311.094 187.788 310.936C183.753 310.58 179.717 310.145 175.682 309.749C171.647 309.353 167.611 308.957 163.576 308.561C159.501 308.166 155.427 307.77 151.352 307.374C148.297 307.097 145.28 306.859 142.224 306.543C139.481 306.266 136.739 306.068 133.997 305.751C131.489 305.474 128.982 304.999 126.474 304.762C125.064 304.643 123.654 304.287 122.243 304.089C121.891 304.049 121.734 303.891 121.812 303.495C122.204 300.527 122.4 297.558 122.635 294.59C123.027 290.236 123.458 285.882 123.497 281.529C123.497 281.212 123.575 280.935 123.889 280.737C126.396 279.035 128.864 277.254 131.254 275.354C135.368 271.99 139.246 268.428 142.772 264.43C143.987 263.045 145.162 261.66 146.416 260.314C146.612 260.116 146.886 259.8 147.239 259.918C148.845 260.433 150.53 260.552 152.175 260.749C155.27 261.106 158.365 261.422 161.46 261.739C163.341 261.937 165.221 262.016 167.102 262.293C170.08 262.728 173.057 263.164 176.035 263.678C178.229 264.035 180.462 264.391 182.656 264.747C183.753 264.905 184.928 265.459 185.829 266.528C188.062 269.18 190.57 271.594 193.312 273.731C193.508 273.85 193.704 274.009 193.625 274.286C193.547 274.602 193.234 274.523 193.038 274.483C191.941 274.325 190.844 274.206 189.786 273.969C187.004 273.296 184.184 272.979 181.402 272.584C179.6 272.346 177.758 272.267 175.956 272.227C169.844 272.069 163.733 271.753 157.621 271.475C154.565 271.357 151.47 271.475 148.414 271.475ZM180.579 220.339C182.029 220.339 183.165 220.458 184.301 220.616C187.475 221.091 190.648 221.17 193.861 221.13C194.37 221.13 195.114 221.21 195.153 220.576C195.153 220.101 194.409 219.983 193.9 219.983C191.001 219.943 188.141 219.587 185.241 219.231C183.087 218.954 180.893 219.033 178.738 218.795C178.464 218.756 178.111 218.914 177.954 218.558C177.837 218.281 178.033 218.004 178.229 217.766C178.503 217.45 178.738 217.093 178.973 216.737C179.639 215.748 180.227 214.719 180.423 213.492C180.54 212.66 180.109 212.304 179.482 212.146C178.855 211.988 178.189 211.948 177.563 212.185C174.781 213.175 172.352 214.837 170.001 216.618C169.844 216.737 169.727 217.172 169.413 216.856C169.139 216.579 169.492 216.42 169.609 216.223C170.315 215.273 171.059 214.323 171.529 213.215C171.882 212.462 172.234 211.513 171.451 210.998C170.824 210.563 169.923 210.325 169.022 210.642C167.455 211.196 166.005 211.869 164.712 212.898C164.516 213.056 164.203 213.373 163.968 213.215C163.693 213.056 163.889 212.74 163.968 212.423C164.124 211.908 164.164 211.354 164.242 210.8C164.32 210.286 164.007 209.89 163.576 209.732C162.479 209.336 161.421 209.415 160.324 209.89C157.817 210.998 155.623 212.502 153.938 214.758C153.781 214.996 153.546 215.352 153.155 215.193C152.293 214.877 151.352 214.996 150.451 214.758C148.297 214.244 146.142 213.848 143.948 213.571C142.772 213.412 141.519 213.412 140.383 213.135C138.58 212.7 136.739 212.977 134.937 212.779C134.545 212.74 134.036 212.898 133.997 213.294C133.918 213.729 134.467 213.808 134.819 214.006C134.898 214.046 135.015 214.046 135.094 214.046C136.386 214.046 137.64 214.402 138.972 214.521C140.187 214.6 141.44 214.758 142.655 214.956C145.711 215.431 148.688 216.42 151.823 216.46C152.528 216.46 152.332 216.816 152.097 217.093C150.334 219.349 148.884 221.803 147.2 224.099C146.808 224.653 146.416 224.772 145.828 224.732C143.752 224.574 141.675 224.257 139.599 224.297C138.855 224.297 138.11 224.178 137.366 224.059C136.582 223.901 135.76 223.703 135.015 224.218C134.858 224.336 134.584 224.336 134.663 224.613C134.702 224.851 134.858 225.049 135.094 225.088C135.72 225.168 136.269 225.445 136.896 225.524C139.521 225.761 142.146 225.92 144.81 225.959C145.045 225.959 145.358 225.84 145.515 226.157C145.672 226.513 145.358 226.672 145.201 226.909C143.83 228.888 142.498 230.907 141.049 232.846C140.578 233.519 140.187 233.598 139.56 233.242C138.58 232.688 137.562 232.292 136.386 232.133C135.564 232.015 134.976 232.49 134.271 232.648C132.429 233.083 130.627 233.479 128.786 233.915C128.512 233.994 128.277 234.39 128.002 234.073C127.767 233.796 128.002 233.479 128.159 233.163C129.021 231.223 129.413 229.205 129.491 227.107C129.569 224.455 129.295 221.803 129.374 219.112C129.452 216.341 129.295 213.571 129.06 210.84C128.708 207.001 128.747 203.122 128.355 199.283C128.081 196.789 127.846 194.256 127.611 191.762C127.454 190.258 127.101 188.794 127.101 187.29C127.101 186.736 127.18 186.419 127.806 186.419C131.411 186.3 134.937 185.628 138.541 185.311C141.205 185.113 143.909 184.955 146.573 184.876C147.905 184.836 149.237 185.074 150.569 185.113C155.701 185.271 160.834 185.074 165.927 185.905C169.139 186.419 172.469 186.498 175.721 186.696C178.189 186.855 180.658 187.092 183.087 187.369C185.907 187.725 188.689 188.24 191.51 188.675C194.213 189.111 196.916 189.309 199.659 189.586C200.403 189.665 200.638 189.981 200.678 190.694C200.795 192.237 200.952 193.781 201.226 195.285C201.696 197.739 201.892 200.193 202.205 202.647C202.48 204.982 202.519 207.357 202.793 209.732C203.224 213.215 203.538 216.697 203.773 220.18C203.968 223.109 204.125 226.038 204.36 228.928C204.674 232.767 204.87 236.566 204.556 240.406C204.478 241.197 204.086 241.237 203.616 241.118C202.832 240.92 202.049 240.92 201.265 240.96C199.776 241.039 198.366 240.366 196.916 240.683C195.663 240.999 194.37 240.881 193.116 240.999C192.764 241.039 192.568 240.96 192.411 240.564C191.275 237.991 190.099 235.458 188.924 232.925C188.454 231.856 188.493 231.817 189.708 231.817C191.04 231.817 192.333 232.371 193.665 232.213C194.056 232.173 194.448 232.054 194.448 231.659C194.448 231.342 194.096 231.184 193.743 231.104C191.98 230.629 190.178 230.471 188.336 230.867C188.023 230.946 187.866 230.867 187.71 230.59C187.475 230.115 187.2 229.64 186.965 229.165C185.359 225.88 183.557 222.832 180.579 220.339ZM154.722 224.376C155.114 224.257 155.27 224.415 155.466 224.534C159.697 227.067 163.341 230.352 167.376 233.163C169.531 234.706 171.607 236.408 173.723 237.991C174.507 238.585 175.408 238.981 176.426 238.862C176.818 238.822 177.171 238.664 177.327 238.387C177.563 238.031 177.288 237.714 177.014 237.437C176.544 236.883 176.191 236.21 175.721 235.656C172.548 232.133 169.218 228.73 166.24 225.009C164.751 223.149 163.223 221.368 162.048 219.27C161.93 219.033 161.735 218.756 162.009 218.597C162.205 218.479 162.44 218.518 162.714 218.716C163.654 219.547 164.634 220.299 165.574 221.091C167.886 223.109 170.158 225.168 172.156 227.542C174.507 230.352 176.779 233.202 179.326 235.854C180.148 236.685 181.089 237.002 182.186 236.962C182.93 236.923 183.243 236.606 183.047 235.894C182.773 234.944 182.46 234.033 182.068 233.163C180.54 229.521 178.973 225.92 178.033 222.041C177.954 221.724 177.758 221.328 178.072 221.13C178.424 220.893 178.659 221.328 178.855 221.526C181.049 223.584 182.46 226.197 183.753 228.848C185.594 232.608 187.435 236.368 189.316 240.089C189.825 241.078 190.413 241.791 189.786 243.176C188.885 245.116 188.611 247.332 188.141 249.469C187.514 252.359 186.769 255.208 185.868 258.018C185.672 258.612 185.633 259.483 185.241 259.681C184.732 259.958 184.105 259.285 183.557 259.008C181.167 257.821 178.581 257.227 176.191 256.158C172.587 254.496 168.787 253.427 165.143 251.963C162.832 251.013 160.598 249.865 158.6 248.361C158.404 248.203 158.013 248.044 158.13 247.728C158.209 247.49 158.561 247.49 158.835 247.49C161.029 247.49 163.223 247.886 165.378 248.242C166.828 248.48 168.316 248.915 169.805 248.757C170.275 248.717 170.863 248.599 171.059 248.044C171.255 247.451 170.746 247.134 170.393 246.857C168.708 245.709 167.102 244.482 165.3 243.572C161.617 241.712 157.895 239.891 154.252 238.031C153.194 237.477 152.254 236.725 151.509 235.814C151.313 235.577 151.235 235.339 151.313 235.102C151.392 234.864 151.627 234.983 151.823 235.023C154.33 235.894 156.798 236.883 159.227 237.952C162.871 239.535 166.436 241.395 170.158 242.701C171.059 243.018 172.038 243.414 173.096 243.018C173.801 242.741 173.958 242.305 173.566 241.751C172.94 240.92 172.273 240.01 171.49 239.337C166.984 235.498 162.244 231.936 158.013 227.74C156.916 226.672 155.584 225.761 154.722 224.376ZM196.133 314.419C197.543 314.419 197.778 314.142 197.543 313.153C197.504 313.034 197.582 312.915 197.622 312.757C198.758 309.432 199.228 305.949 199.816 302.506C200.364 299.26 200.638 295.936 201.03 292.65C201.422 289.247 201.618 285.803 202.205 282.439C202.441 280.935 202.401 280.935 203.655 281.766C203.812 281.885 203.968 282.004 204.125 282.122C205.026 282.716 205.731 283.112 205.496 284.616C204.948 288.099 204.556 291.621 203.89 295.065C203.263 298.31 202.558 301.516 201.931 304.722C201.265 308.205 200.325 311.649 199.424 315.092C199.267 315.765 198.954 316.319 198.248 316.636C197.7 316.873 197.308 316.477 196.838 316.438C193.665 316.081 190.452 315.646 187.279 315.329C183.87 314.973 180.501 314.696 177.092 314.38C173.606 314.023 170.119 313.628 166.671 313.271C164.712 313.073 162.714 312.915 160.755 312.717C157.778 312.401 154.761 312.044 151.783 311.728C149.824 311.53 147.826 311.411 145.867 311.213C142.655 310.897 139.442 310.461 136.191 310.184C133.879 309.986 131.528 309.67 129.217 309.551C128.002 309.472 128.042 308.799 127.846 307.968C127.611 306.978 127.963 306.899 128.747 306.978C131.724 307.295 134.702 307.493 137.679 307.849C139.286 308.047 140.892 308.126 142.537 308.324C145.867 308.68 149.198 309.036 152.528 309.274C154.252 309.393 155.936 309.67 157.66 309.907C160.794 310.303 163.929 310.897 167.063 311.292C169.884 311.649 172.744 311.846 175.564 312.242C176.661 312.401 177.758 312.519 178.855 312.638C181.794 313.034 184.654 313.707 187.631 313.746C188.336 313.746 189.081 313.667 189.786 313.865C191.941 314.34 194.252 313.628 196.133 314.419ZM161.852 210.998C162.087 211.671 161.774 212.225 161.539 212.74C160.951 214.125 160.873 215.827 159.188 216.539C158.914 216.658 158.757 216.975 158.796 217.37C158.835 217.647 158.718 217.845 158.522 218.043C157.464 219.112 156.641 220.378 155.819 221.645C155.349 222.397 154.957 222.714 154.095 222.357C153.742 222.199 153.233 222.278 152.841 222.318C151.666 222.437 151.235 223.268 151.783 224.336C152.449 225.642 153.625 226.513 154.604 227.503C158.13 230.986 161.813 234.231 165.692 237.318C166.789 238.189 167.964 239.06 168.983 240.247C167.964 240.01 167.298 239.337 166.475 239.02C164.634 238.308 162.871 237.437 161.108 236.646C158.013 235.26 154.878 233.954 151.548 233.123C150.491 232.846 149.472 232.965 148.492 233.36C147.709 233.677 147.435 234.587 147.748 235.379C148.375 237.081 149.746 238.031 151.157 238.862C154.878 241.078 158.796 243.018 162.675 244.957C163.302 245.274 164.124 245.432 164.477 246.303C163.067 245.868 161.695 245.868 160.403 245.709C158.718 245.511 156.955 245.393 155.27 245.986C154.643 246.224 154.017 246.461 154.095 247.411C154.212 248.44 153.194 247.886 152.763 248.242C152.449 248.519 152.293 248.044 152.175 247.688C151.783 246.699 151.392 245.709 150.921 244.759C149.041 241.118 146.494 238.031 143.164 235.656C142.459 235.142 142.302 234.785 142.929 234.112C144.183 232.727 145.319 231.223 146.377 229.68C149.394 225.405 152.371 221.091 155.427 216.856C157.072 214.481 158.914 212.146 161.852 210.998ZM152.606 250.855C152.606 250.38 152.528 250.023 152.88 249.746C153.742 249.073 155.153 249.113 156.015 249.746C158.718 251.804 161.813 253.111 164.908 254.377C166.945 255.208 169.061 255.683 171.059 256.554C173.175 257.504 175.369 258.335 177.602 259.048C179.913 259.8 182.146 260.789 184.301 261.858C184.575 261.976 184.654 262.135 184.536 262.372C184.223 263.124 183.87 263.757 182.852 263.48C182.303 263.362 181.794 263.203 181.245 263.124C177.327 262.451 173.41 261.699 169.492 261.145C165.809 260.631 162.087 260.274 158.365 259.958C155.153 259.681 151.94 259.404 148.767 259.048C148.061 258.968 147.866 258.612 148.336 258.098C149.472 256.752 150.451 255.287 151.509 253.902C152.254 252.913 152.88 252.002 152.606 250.855ZM208.748 225.563C208.787 225.563 208.866 225.563 208.905 225.563C208.905 225.642 208.905 225.682 208.905 225.761C208.866 230.709 209.101 235.656 208.474 240.564C208.435 240.92 208.552 241.435 208.043 241.553C206.985 241.791 206.319 240.999 206.633 239.931C207.064 238.545 207.22 237.12 207.259 235.696C207.416 231.342 207.377 227.028 207.064 222.674C206.946 221.012 207.064 219.31 206.828 217.647C206.398 214.639 206.162 211.592 205.849 208.584C205.536 205.734 205.261 202.884 204.87 200.074C204.713 198.966 204.674 197.779 204.282 196.71C204.086 196.156 203.773 195.325 204.204 194.929C204.987 194.216 205.888 195.285 206.789 195.087C207.064 195.008 207.299 195.127 207.299 195.483C207.299 195.562 207.299 195.602 207.338 195.681C207.886 197.462 207.769 199.322 207.925 201.143C208.356 205.378 208.552 209.613 208.67 213.848C208.866 217.687 208.748 221.645 208.748 225.563ZM173.057 184.994C172.979 184.994 172.626 184.955 172.273 184.994C171.372 185.113 171.216 184.717 171.49 183.926C172.391 181.393 172.704 178.741 173.175 176.129C173.645 173.358 174.232 170.587 174.35 167.777C174.389 167.342 174.624 167.184 174.938 167.184C175.682 167.184 176.426 167.184 177.171 167.263C177.837 167.342 178.072 167.738 177.758 168.371C177.445 169.083 177.21 169.796 177.092 170.587C176.779 172.369 176.505 174.11 176.23 175.891C175.799 178.582 175.682 181.353 175.251 184.044C175.133 184.836 174.977 185.153 174.193 185.034C173.919 185.034 173.645 185.034 173.057 184.994ZM178.307 213.215C178.464 213.769 178.346 214.204 178.15 214.6C176.857 217.093 174.859 219.033 172.979 221.012C172.352 221.645 171.764 222.714 171.059 222.793C170.354 222.872 169.688 221.764 168.983 221.17C167.807 220.141 167.807 220.101 169.061 219.231C172.038 217.212 174.977 214.996 178.307 213.215ZM169.296 212.225C169.609 212.185 169.57 212.462 169.531 212.621C169.335 213.056 169.139 213.492 168.826 213.887C167.886 215.154 166.867 216.381 166.044 217.766C165.731 218.32 165.417 218.558 164.79 218.004C164.32 217.568 163.693 217.37 163.106 217.093C162.636 216.856 162.636 216.658 163.067 216.341C164.399 215.391 165.692 214.323 167.063 213.412C167.807 212.937 168.395 212.265 169.296 212.225ZM157.347 223.505C157.386 223.466 157.425 223.386 157.464 223.347C158.209 222.516 158.953 221.645 159.737 220.853C159.815 220.774 160.128 220.735 160.167 220.814C160.638 221.447 161.108 222.12 161.539 222.793C161.656 222.991 161.421 223.109 161.264 223.228C160.638 223.663 160.011 224.138 159.384 224.574C159.188 224.693 158.992 224.732 158.757 224.574C158.404 224.297 158.013 224.099 157.621 223.901C157.464 223.743 157.268 223.743 157.347 223.505ZM164.36 228.453C164.124 228.294 163.85 228.176 163.615 228.017C163.145 227.661 162.714 227.305 162.244 226.988C160.755 225.92 160.794 225.959 162.166 224.653C162.597 224.257 162.792 224.257 163.145 224.693C163.772 225.563 164.477 226.355 165.065 227.226C165.182 227.424 165.692 227.463 165.378 227.898C165.065 228.176 164.712 228.255 164.36 228.453ZM197.935 71.4805C198.013 71.3618 198.013 71.2826 198.092 71.2035C198.679 70.6493 199.071 69.9369 199.581 69.3828C200.168 68.7495 200.795 69.5411 201.344 69.8182C201.892 70.0952 201.5 70.5306 201.304 70.7681C200.717 71.5597 200.09 72.3117 199.502 73.1033C199.385 73.2616 199.267 73.4199 199.15 73.2616C198.719 72.6679 198.366 72.0742 197.935 71.4805ZM175.408 224.574C175.76 224.613 175.917 224.732 175.995 225.049C176.152 225.682 176.348 226.355 176.622 226.949C176.896 227.503 176.583 227.661 176.27 227.978C175.839 228.373 175.682 228.017 175.447 227.74C174.938 227.146 174.389 226.513 173.88 225.92C173.762 225.761 173.488 225.642 173.723 225.484C174.272 225.128 174.82 224.732 175.408 224.574ZM174.742 221.724C175.094 221.764 175.133 222.12 175.173 222.278C175.251 222.674 175.525 223.268 175.016 223.426C174.232 223.624 173.527 223.98 172.822 224.336C172.587 224.455 172.43 224.336 172.313 224.218C172.156 224.02 172.43 223.941 172.509 223.861C173.018 223.307 173.527 222.714 174.154 222.239C174.35 222.08 174.546 221.882 174.742 221.724ZM168.904 231.738C167.925 231.223 167.024 230.629 166.162 229.917C165.887 229.68 165.692 229.482 165.887 229.205C166.083 228.888 166.475 228.848 166.749 229.086C167.533 229.877 168.356 230.669 168.904 231.738ZM178.189 230.907C177.798 230.511 177.367 230.115 177.014 229.719C176.857 229.561 176.779 229.284 177.014 229.125C177.21 229.007 177.445 229.007 177.602 229.244C177.915 229.719 178.111 230.234 178.189 230.907Z" fill="black"/>
<path d="M193.704 37.2048C194.448 38.1151 195.114 39.1046 196.211 39.817C196.485 39.1442 196.29 38.4317 196.76 37.838C197.504 36.8486 198.483 36.4923 199.62 37.0069C200.991 37.6006 201.735 38.6692 201.931 40.1337C201.97 40.4503 202.01 40.7669 202.323 40.8857C202.636 41.0044 202.754 40.6482 202.911 40.4899C204.164 39.2629 205.536 38.5109 207.338 38.6296C209.806 38.788 210.589 40.1337 209.963 42.3105C209.493 44.0124 208.356 45.2394 206.946 46.2685C206.476 46.6247 205.653 46.9413 205.81 47.5746C205.927 48.01 206.789 48.0891 207.338 48.1683C209.062 48.4453 210.629 49.1578 212.117 50.1472C215.487 52.3637 217.955 55.4113 219.679 59.013C220.737 61.1899 221.481 63.4855 221.912 65.9394C222.735 70.4119 222.931 74.8448 222.97 79.3569C222.97 80.8609 222.539 82.2858 222.069 83.6315C221.442 85.4125 222.421 86.2833 223.362 87.2728C225.36 89.3705 227.593 91.2307 229.317 93.5659C229.826 94.2387 230.57 94.6741 231.197 95.2678C231.589 95.624 231.981 95.9407 232.294 96.376C233.234 97.5634 232.608 98.5925 231.863 99.5424C230.805 100.967 229.277 101.798 227.593 101.957C226.417 102.075 225.125 101.719 224.223 100.769C223.792 100.294 223.244 100.057 222.695 99.7799C222.382 101.046 223.048 102.075 223.244 103.184C223.636 105.717 224.341 108.21 224.85 110.743C225.751 114.899 226.026 119.134 225.634 123.369C225.438 125.309 224.576 127.09 223.401 128.673C221.794 130.81 219.64 131.602 217.054 131.72C213.763 131.839 210.864 130.85 208.121 129.148C206.672 128.237 205.144 127.288 203.302 127.802C201.97 128.198 200.717 128.792 199.541 129.504C198.053 130.414 196.446 130.968 194.762 131.246C193.86 131.404 193.782 131.839 194.017 132.512C194.527 133.976 195.075 135.481 195.388 136.985C195.663 138.211 195.78 139.478 196.329 140.665C196.485 140.982 196.603 141.14 196.916 141.18C198.875 141.417 200.834 141.655 202.793 142.011C204.478 142.328 206.123 142.763 207.769 143.238C209.297 143.673 210.785 144.148 212.274 144.703C215.879 146.088 219.444 147.592 222.774 149.531C226.457 151.668 230.022 154.004 233.43 156.576C238.445 160.376 242.99 164.651 247.378 169.123C249.219 171.023 251.06 172.883 252.627 174.981C254.312 177.237 256.075 179.414 257.642 181.749C258.504 183.015 259.366 184.361 260.424 185.509C261.795 186.973 262.344 188.913 263.48 190.496C264.812 192.277 265.595 194.414 266.771 196.275C267.358 197.224 267.789 198.254 268.377 199.164C269.67 201.103 270.375 203.32 271.355 205.378C272.883 208.702 273.823 212.265 275.116 215.668C276.134 218.36 276.8 221.13 277.623 223.861C278.211 225.84 278.563 227.898 278.955 229.957C279.582 233.321 279.974 236.685 280.326 240.089C280.405 240.841 279.935 241.593 280.405 242.305C280.326 240.881 281.345 239.97 282.129 239.06C283.735 237.041 284.871 234.746 286.281 232.608C286.987 231.5 287.065 229.996 287.731 228.848C289.102 226.474 289.063 223.822 289.651 221.289C290.16 219.072 290.121 216.895 290.121 214.719C290.121 211.79 290.238 208.861 289.886 205.932C289.651 204.072 289.533 202.211 289.181 200.391C288.632 197.541 288.24 194.652 287.3 191.881C286.712 190.179 286.438 188.359 286.125 186.578C285.89 185.192 285.184 184.005 284.832 182.659C284.44 181.234 284.127 179.809 283.461 178.503C282.246 176.089 281.502 173.437 279.935 171.181C279.269 170.192 279.033 168.925 278.367 167.856C276.957 165.6 275.703 163.186 274.215 160.97C273.196 159.386 271.981 157.962 271.002 156.339C270.532 155.547 269.944 154.716 269.239 154.043C268.024 152.895 267.241 151.391 266.261 150.125C265.556 149.215 264.694 148.304 263.832 147.513C263.127 146.84 262.657 146.048 262.03 145.336C261.795 145.059 261.521 144.623 261.207 144.544C260.189 144.307 259.719 143.515 259.249 142.763C258.857 142.169 258.152 142.051 257.76 141.576C256.624 140.111 255.174 138.963 253.881 137.657C252.902 136.668 251.844 135.678 250.747 134.768C249.337 133.581 248.357 131.998 247.809 130.216C246.633 126.338 246.281 122.38 246.633 118.343C246.829 116.126 247.182 113.949 247.965 111.812C248.788 109.516 249.454 107.181 250.512 105.004C251.687 102.511 252.51 99.859 253.803 97.4051C254.547 96.0198 254.743 94.4366 255.448 93.0118C256.428 91.0328 257.133 88.9747 257.721 86.877C258.191 85.2146 259.249 83.7502 259.444 82.0087C259.601 80.4651 259.993 79.0007 260.267 77.4966C260.698 75.201 260.933 72.9054 261.325 70.6098C261.638 68.7892 261.364 67.0477 260.972 65.3458C260.698 64.1584 260.816 63.0106 260.502 61.8628C259.954 59.8838 259.405 57.9048 258.347 56.1633C257.76 55.1343 257.407 54.026 256.78 53.0365C255.997 51.8096 255.292 50.543 254.586 49.2765C253.881 48.0495 252.941 47.0601 252.157 45.8727C251.139 44.2895 250.316 42.548 249.101 41.1627C247.299 39.065 245.458 36.9673 243.225 35.2654C242.128 34.4342 241.109 33.4051 239.816 32.851C237.779 31.9407 236.055 30.5158 233.94 29.6847C232.764 29.2493 231.667 28.4181 230.531 27.7453C228.455 26.5579 226.417 26.4787 224.184 26.9933C221.207 27.6661 218.308 28.4577 215.565 29.8034C214.625 30.2388 213.528 30.3575 212.509 30.7533C211.06 31.3074 209.767 32.1782 208.239 32.5344C207.259 32.7719 206.358 33.2468 205.418 33.5635C204.047 34.0384 202.754 34.6321 201.343 34.9883C200.168 35.305 198.954 35.4633 197.817 35.9382C196.485 36.4923 195.075 36.809 193.704 37.2048Z" fill="#C5E2FB"/>
<path d="M73.1138 105.083C70.9198 105.123 69.4703 107.498 70.293 109.516C70.8807 110.902 71.6251 112.208 72.1736 113.593C72.3303 113.989 72.6829 114.187 72.8788 114.503C73.6623 115.612 74.0541 116.918 74.6418 118.105C75.3078 119.451 75.6996 121.034 76.7966 122.063C77.776 123.013 79.2256 123.369 80.4793 122.696C81.733 122.063 82.2031 120.242 81.9681 119.134C81.6155 117.393 81.067 115.73 80.4401 114.068C79.8525 112.564 79.0689 111.179 78.4029 109.714C77.5018 107.775 76.2089 106.073 74.1325 105.242C73.7407 105.083 73.7015 105.083 73.1138 105.083Z" fill="#C5E2FB"/>
<path d="M268.847 126.931C269.631 127.129 270.336 126.773 271.002 126.496C271.981 126.061 272.138 125.032 272.177 124.082C272.217 123.25 272.099 122.34 271.355 121.746C270.297 120.915 269.239 120.163 267.946 119.53C265.909 118.58 263.676 118.897 261.638 117.986C259.915 117.195 257.133 118.303 256.467 120.005C255.879 121.509 256.545 124.2 258.504 124.319C259.68 124.398 260.502 125.111 261.482 125.467C262.892 126.021 264.381 126.179 265.831 126.456C266.771 126.694 267.75 127.09 268.847 126.931Z" fill="#C5E2FB"/>
<path d="M266.967 108.725C267.437 106.35 264.577 104.886 262.892 106.033C261.952 106.667 260.698 106.865 259.758 107.577C258.387 108.606 256.741 109.318 255.801 110.902C254.704 112.801 255.762 114.741 257.642 115.097C259.719 115.532 261.403 114.78 262.892 113.197C263.519 112.524 264.538 112.049 265.4 111.614C266.81 110.981 267.006 109.912 266.967 108.725Z" fill="#C5E2FB"/>
<path d="M71.7817 132.552C74.3675 132.947 75.5037 129.702 74.3675 127.762C73.388 126.1 71.8993 125.071 69.9012 124.992C68.765 124.952 67.0804 126.298 66.7669 127.446C66.3752 128.752 67.002 130.256 68.2165 130.968C68.6083 131.206 68.8042 131.602 69.2352 131.839C70.4105 132.472 70.4889 132.552 71.7817 132.552Z" fill="#C5E2FB"/>
<path d="M65.9052 257.702C65.866 257.148 66.1794 256.514 65.7093 256.04C65.7093 256.594 65.4742 257.187 65.9052 257.702Z" fill="#C5E2FB"/>
<path d="M197.935 151.075C198.679 150.798 199.267 151.352 199.816 151.629C203.381 153.37 206.907 155.072 210.433 156.893C214.115 158.793 217.641 160.89 221.128 163.107C223.087 164.334 225.125 165.442 227.083 166.669C228.964 167.856 230.923 168.886 232.568 170.429C232.803 170.667 233.195 170.785 233.469 170.983C235.938 172.566 238.21 174.427 240.521 176.247C241.736 177.197 242.794 178.345 243.93 179.374C244.988 180.364 245.967 181.551 246.947 182.659C248.67 184.559 250.003 186.736 251.687 188.636C252.118 189.111 252.236 189.744 252.588 190.219C253.646 191.644 254.469 193.187 255.331 194.691C256.349 196.512 257.133 198.412 257.995 200.312C258.504 201.459 259.092 202.607 259.523 203.834C259.954 204.982 260.11 206.249 260.62 207.357C261.129 208.425 261.443 209.494 261.795 210.602C262.304 212.106 262.5 213.65 262.814 215.154C263.049 216.262 263.597 217.212 263.793 218.32C264.067 219.903 264.498 221.487 264.851 223.07C265.125 224.455 265.4 225.88 265.83 227.265C266.301 228.69 266.496 230.194 266.771 231.659C267.202 233.875 267.554 236.091 267.868 238.308C268.299 241.553 269.161 244.72 269.082 248.044C269.082 248.638 268.573 249.43 269.161 249.825C269.787 250.221 270.023 249.271 270.493 249.034C271.903 248.321 273.235 247.569 274.41 246.422C275.076 245.749 275.938 245.313 276.879 245.036C277.035 241.87 276.683 238.743 276.291 235.616C276.095 234.152 275.978 232.688 275.703 231.223C275.155 228.611 274.881 225.92 274.058 223.347C273.157 220.418 272.373 217.449 271.433 214.56C270.845 212.7 270.101 210.919 269.435 209.098C268.886 207.594 268.338 206.051 267.672 204.586C266.379 201.736 264.969 198.926 263.558 196.156C262.03 193.187 260.228 190.417 258.504 187.567C257.603 186.023 256.702 184.48 255.644 183.095C254.39 181.432 253.215 179.73 251.961 178.068C249.611 175.06 247.064 172.171 244.478 169.36C242.363 167.065 240.051 164.888 237.74 162.79C235.193 160.495 232.568 158.278 229.748 156.299C227.162 154.479 224.576 152.698 221.834 151.114C217.877 148.858 213.763 146.919 209.492 145.454C207.299 144.702 205.065 143.871 202.675 143.634C201.187 143.476 199.737 142.921 198.17 142.882C197.308 142.882 196.995 143.08 197.034 144.069C197.151 146.246 197.622 148.383 197.543 150.56C197.543 150.719 197.543 150.877 197.7 150.996C197.896 150.798 197.974 150.916 197.935 151.075Z" fill="#C5E2FB"/>
<path d="M192.881 81.8899C192.45 86.2436 191.941 90.5578 190.687 94.7532C189.551 98.5528 188.415 102.352 186.613 105.875C185.672 107.735 184.379 109.358 183.282 111.1C180.893 114.899 177.915 118.184 175.055 121.588C174.35 122.419 173.605 123.448 172.273 123.488C172.744 123.963 173.292 123.646 173.801 123.686C177.641 124.042 181.01 122.657 184.262 120.836C185.986 119.886 187.357 118.501 188.728 117.116C189.747 116.087 190.805 115.057 191.745 113.989C194.056 111.377 195.584 108.329 197.151 105.242C198.444 102.59 199.345 99.7798 200.207 96.9697C200.795 95.0303 201.344 93.0117 201.539 90.9932C201.539 90.8744 201.539 90.7161 201.618 90.5974C202.519 88.3809 201.461 87.1935 199.855 85.8478C197.7 84.1063 195.349 82.919 192.881 81.8899Z" fill="#C5E2FB"/>
<path d="M171.412 125.388C171.451 125.744 171.607 125.981 171.647 126.377C171.725 128.237 172.038 130.058 172.43 131.879C172.9 134.135 173.527 136.312 174.076 138.528C174.232 139.24 174.467 139.913 174.624 140.586C175.016 141.971 176.348 142.011 177.327 142.328C179.756 143.119 182.107 144.03 184.458 144.98C185.085 145.217 185.947 145.257 185.868 146.246C186.495 145.296 186.495 144.148 186.887 143.119C188.141 139.755 187.749 136.272 187.827 132.789C187.827 132.235 187.827 131.8 187.044 131.72C182.812 131.245 181.324 128.04 181.911 124.834C181.99 124.398 182.068 124.161 181.559 124.359C178.816 125.348 175.995 125.546 173.135 125.427C172.587 125.348 171.999 125.388 171.412 125.388Z" fill="#C5E2FB"/>
<path d="M192.489 62.1398C192.411 63.5646 192.489 64.9895 192.763 66.4144C192.881 66.9685 192.842 67.5226 192.842 68.0767C192.959 70.4119 193.077 72.7866 193.155 75.1218C193.155 75.953 193.155 76.8633 192.568 77.5362C193.704 78.5257 194.762 79.5151 195.663 80.7817C196.133 81.4545 197.23 81.7316 198.092 82.0878C199.463 82.6815 200.56 83.6314 201.657 84.5417C201.892 84.7396 202.049 85.0167 202.401 84.8979C202.754 84.7792 202.793 84.423 202.832 84.0668C202.871 83.6314 202.911 83.196 203.028 82.8002C203.772 80.1088 201.814 78.8423 200.168 77.5757C198.288 76.1509 196.916 74.4886 196.054 72.3513C195.428 70.8868 194.722 69.4224 193.821 68.0767C193.665 67.8788 193.665 67.6413 193.782 67.4434C194.096 66.9685 194.566 66.731 195.114 66.731C195.506 66.731 195.898 66.9289 196.25 66.5727C196.015 66.0977 195.623 65.7415 195.232 65.4249C194.056 64.5541 193.43 63.248 192.489 62.1398Z" fill="#C5E2FB"/>
<path d="M211.491 79.911C211.922 80.4651 212.588 80.6234 213.136 80.9796C214.39 81.7712 215.33 82.8398 216.192 83.9876C216.545 84.4626 216.78 84.9771 216.74 85.6104C216.74 85.8479 216.701 86.1645 217.054 86.2437C217.955 86.3624 218.347 87.1936 218.856 87.7081C222.186 91.1119 225.36 94.7137 228.102 98.632C228.259 98.8695 228.376 99.2653 228.768 99.2653C229.121 98.9883 229.512 98.7508 229.826 98.4341C230.531 97.7613 230.492 97.2072 229.826 96.4948C226.888 93.6055 224.028 90.6766 221.246 87.6289C218.229 84.3439 215.056 81.2567 212 78.0507C210.354 76.3488 208.513 74.9635 206.789 73.3803C206.633 73.222 206.437 73.0637 206.202 73.1824C206.123 73.3803 206.241 73.4595 206.358 73.6178C208.004 75.5572 209.649 77.4966 211.334 79.436C211.53 79.5547 211.726 79.6735 211.491 79.911Z" fill="#C5E2FB"/>
<path d="M206.162 99.2653C206.202 99.6215 206.045 99.9777 206.241 100.334C207.651 100.294 208.866 99.7007 210.08 99.0278C212.509 97.7217 213.724 95.5844 214.39 93.0117C214.429 92.8138 214.39 92.616 214.39 92.4181C213.293 91.7452 213.293 91.7056 212.627 92.9722C212.313 93.5659 211.961 94.0804 211.491 94.5158C211.412 94.6345 211.334 94.7532 211.256 94.872C210.394 96.4552 209.101 97.5634 207.377 98.0779C207.299 98.8299 206.907 99.2653 206.162 99.2653Z" fill="#C5E2FB"/>
<path d="M164.594 137.934C164.594 136.153 163.889 134.491 163.654 132.789C163.497 131.681 162.988 130.612 163.027 129.464C162.831 129.425 162.792 129.544 162.792 129.662C162.831 130.85 162.596 132.116 162.949 133.224C163.419 134.689 163.537 136.272 164.32 137.657C164.359 137.816 164.359 137.974 164.594 137.934Z" fill="#C5E2FB"/>
<path d="M140.069 79.436C141.715 79.911 141.871 78.5653 142.302 77.5758C141.127 77.655 140.461 78.3674 140.069 79.436Z" fill="#C5E2FB"/>
<path d="M170.236 97.0093C170.785 98.3946 172.508 98.9882 173.88 98.1571C173.449 98.1571 172.979 98.0779 172.548 98.1571C171.49 98.355 170.863 97.6821 170.236 97.0093Z" fill="#C5E2FB"/>
<path d="M178.189 230.907C178.15 230.273 177.915 229.719 177.602 229.244C177.445 229.007 177.21 229.007 177.014 229.125C176.74 229.284 176.857 229.521 177.014 229.719C177.366 230.115 177.758 230.471 178.189 230.907Z" fill="#C5E2FB"/>
<path d="M197.7 153.766C198.092 152.895 197.661 151.946 197.935 151.075C197.817 151.075 197.739 151.075 197.622 151.075C197.622 151.985 197.465 152.895 197.7 153.766Z" fill="#C5E2FB"/>
<path d="M93.4864 185.39C94.074 185.113 94.2307 184.519 94.4658 184.005C93.8781 184.282 93.6431 184.797 93.4864 185.39Z" fill="#C5E2FB"/>
<path d="M92.2327 187.369C92.6636 187.171 92.8595 186.815 92.8987 186.34C92.5069 186.578 92.3502 186.973 92.2327 187.369Z" fill="#C5E2FB"/>
<path d="M164.986 139.24C164.986 139.003 165.143 138.647 164.712 138.568C164.751 138.805 164.516 139.161 164.986 139.24Z" fill="#C5E2FB"/>
<path d="M91.8018 188.121C92.2327 188.082 92.1936 187.765 92.1544 187.488C91.7234 187.527 91.841 187.884 91.8018 188.121Z" fill="#C5E2FB"/>
<path d="M93.0164 186.103C93.3691 186.103 93.3691 185.865 93.3299 185.628C92.9772 185.628 93.0164 185.905 93.0164 186.103Z" fill="#C5E2FB"/>
<path d="M94.5835 183.767C94.9361 183.728 94.9361 183.49 94.8969 183.253C94.5444 183.253 94.5835 183.53 94.5835 183.767Z" fill="#C5E2FB"/>
<path d="M91.4883 188.557C91.7234 188.557 91.8018 188.438 91.7626 188.24C91.4883 188.24 91.4491 188.359 91.4883 188.557Z" fill="#C5E2FB"/>
<path d="M205.888 72.7866C205.771 73.1033 205.966 73.1033 206.162 73.0241C206.202 72.8262 206.123 72.7075 205.888 72.7866Z" fill="#C5E2FB"/>
<path d="M185.006 292.888C185.946 293.205 186.926 292.927 187.827 292.571C188.062 292.492 188.571 292.452 188.532 291.938C188.493 291.423 188.062 291.305 187.709 291.226C186.848 291.028 185.986 290.909 185.124 290.83C180.07 290.394 174.977 290.513 169.883 290.276C167.102 290.157 164.32 290.038 161.539 289.722C158.522 289.365 155.505 289.286 152.488 289.167C147.474 288.93 142.459 288.772 137.483 288.574C136.269 288.534 135.015 288.613 133.801 288.376C133.448 288.297 133.095 288.415 132.743 288.415C132.233 288.455 131.842 288.772 131.802 289.247C131.802 289.682 132.194 289.88 132.625 289.999C133.37 290.236 134.153 290.315 134.937 290.315C137.718 290.355 140.461 290.315 143.242 290.474C147.474 290.711 151.666 290.869 155.897 291.107C158.639 291.265 161.421 291.384 164.163 291.621C167.572 291.938 170.98 291.898 174.389 291.898C177.366 291.898 180.383 292.255 183.361 292.017C184.183 291.938 185.006 292.334 185.868 292.255C185.986 292.255 186.142 292.255 186.181 292.413C186.26 292.611 186.103 292.69 185.946 292.769C185.672 293.086 185.32 292.809 185.006 292.888Z" fill="black"/>
<path d="M140.382 282.004C145.75 282.439 151.274 282.201 156.759 282.518C159.932 282.716 163.145 282.558 166.318 282.914C169.374 283.27 172.469 283.389 175.525 283.824C177.014 284.062 178.542 284.101 180.07 284.339C182.734 284.695 185.398 284.893 188.062 285.447C188.767 285.605 189.472 285.645 190.217 285.566C190.53 285.526 190.844 285.486 190.844 285.091C190.844 284.734 190.53 284.655 190.256 284.537C188.885 284.062 187.474 283.785 186.025 283.508C182.89 282.914 179.756 282.558 176.622 282.122C174.232 281.806 171.842 281.647 169.452 281.449C163.811 280.974 158.13 280.935 152.488 280.658C148.022 280.46 143.556 280.539 139.129 280.302C138.032 280.222 136.974 279.906 135.838 279.945C135.25 279.985 134.427 280.025 134.349 280.579C134.192 281.291 135.132 281.331 135.563 281.37C137.091 281.726 138.659 282.162 140.382 282.004Z" fill="black"/>
<path d="M194.331 211.908C194.84 211.908 195.389 211.908 195.898 211.908C196.133 211.908 196.329 211.71 196.368 211.473C196.407 211.196 196.172 211.196 196.015 211.117C195.624 210.879 195.153 210.84 194.683 210.8C191.98 210.563 189.316 209.89 186.652 209.375C185.046 209.059 183.4 208.782 181.755 208.465C179.09 207.99 176.387 207.515 173.723 207C172.665 206.803 171.607 206.723 170.55 206.565C167.337 206.09 164.164 205.576 160.951 205.022C158.796 204.626 156.641 204.467 154.487 204.111C150.099 203.359 145.632 203.32 141.205 202.845C139.599 202.686 137.993 202.686 136.386 202.291C135.72 202.132 134.819 202.449 134.114 202.845C133.957 202.924 133.683 202.963 133.762 203.24C133.84 203.399 133.997 203.597 134.153 203.636C134.506 203.715 134.858 203.715 135.211 203.755C138.502 204.111 141.754 204.507 145.045 204.824C146.808 204.982 148.61 205.022 150.373 205.259C152.802 205.615 155.231 205.971 157.66 206.367C159.541 206.684 161.46 206.921 163.341 207.238C165.731 207.634 168.121 208.03 170.51 208.386C172.587 208.702 174.703 208.94 176.779 209.296C178.66 209.613 180.54 210.009 182.381 210.325C184.027 210.602 185.633 210.879 187.279 211.117C189.708 211.433 192.019 211.869 194.331 211.908Z" fill="black"/>
<path d="M189.551 201.736C191.079 201.736 192.098 201.736 193.155 201.736C193.469 201.736 193.782 201.736 194.056 201.459C194.331 201.222 194.644 201.024 194.017 200.826C193.547 200.707 193.116 200.51 192.607 200.549C190.335 200.668 188.062 200.43 185.79 200.074C183.557 199.718 181.284 199.599 179.051 199.283C175.408 198.768 171.764 198.412 168.16 197.897C165.417 197.501 162.597 197.185 159.815 196.908C157.268 196.631 154.722 196.354 152.214 195.918C150.412 195.602 148.61 195.523 146.769 195.404C144.144 195.245 141.519 194.889 138.894 194.929C138.189 194.929 137.444 194.929 136.739 194.968C136.308 194.968 135.76 195.048 135.72 195.523C135.681 196.077 136.269 196.077 136.661 196.116C138.267 196.195 139.873 196.472 141.519 196.591C144.105 196.71 146.69 197.027 149.276 197.304C152.254 197.62 155.192 198.056 158.169 198.412C159.737 198.57 161.264 198.689 162.832 198.887C165.731 199.243 168.63 199.56 171.49 200.035C172.783 200.232 174.154 200.272 175.447 200.43C177.484 200.628 179.521 200.866 181.559 201.024C183.087 201.143 184.654 201.262 186.182 201.578C187.475 201.776 188.767 201.697 189.551 201.736Z" fill="black"/>
<path d="M175.447 108.289C176.583 108.289 177.719 108.289 178.855 108.289C179.129 108.289 179.482 108.289 179.717 108.171C179.991 108.052 180.344 107.933 180.344 107.498C180.344 107.062 179.952 106.944 179.717 106.864C179.012 106.667 178.268 106.429 177.523 106.429C173.37 106.35 169.688 104.925 166.201 102.748C165.104 102.075 163.968 101.482 162.871 100.848C162.479 100.65 162.087 100.69 161.774 100.928C161.382 101.244 161.734 101.561 161.891 101.877C163.576 105.558 166.788 107.062 170.432 108.012C172.077 108.487 173.762 108.21 175.447 108.289Z" fill="black"/>
<path d="M185.79 85.8478C187.514 85.8478 188.258 85.0562 188.454 82.9585C188.571 81.6128 188.297 80.3067 188.062 79.0006C187.945 78.3673 187.357 77.9715 186.652 77.8923C184.458 77.6153 183.008 79.3964 182.93 81.3753C182.891 82.4044 183.126 83.4335 183.557 84.4229C184.027 85.452 184.732 86.0457 185.79 85.8478Z" fill="black"/>
<path d="M165.026 80.9796C165.339 79.7922 164.634 78.9214 163.615 78.4069C162.871 78.0111 161.931 78.0507 161.108 78.6048C160.285 79.1985 160.246 80.188 160.05 80.9796C159.697 82.3253 160.089 83.7105 160.873 84.8583C161.578 85.8874 163.733 85.6499 164.242 84.4626C164.712 83.4335 165.143 82.3253 165.026 80.9796Z" fill="black"/>
<path d="M143.948 92.8534C143.908 93.8429 144.3 94.1991 144.966 94.2387C145.672 94.2783 146.573 93.6846 146.533 93.2492C146.494 92.5763 145.75 91.7848 145.162 91.7452C144.379 91.7056 143.948 92.2201 143.948 92.8534Z" fill="black"/>
<path d="M206.162 99.2652C206.946 99.2257 207.338 98.8299 207.416 98.0779C207.377 96.8905 206.75 96.2968 205.692 96.5343C205.261 96.653 204.713 96.7322 204.634 97.3654C204.556 97.9591 204.595 98.5132 205.222 98.8695C205.496 99.0673 205.771 99.2652 206.162 99.2652Z" fill="black"/>
</g>
<defs>
<clipPath id="clip0">
<rect width="273.776" height="317.625" fill="white" transform="matrix(-1 0 0 1 290.121 0)"/>
</clipPath>
</defs>
</svg>
