<svg width="147" height="57" viewBox="0 0 147 57" fill="none" xmlns="http://www.w3.org/2000/svg">
<path d="M67.626 44.9965H65.3958V46.8987C65.3958 46.8987 64.9367 57 74.9068 57H112.951C112.951 57 122.461 56.4752 122.461 47.489V44.9309H120.297L120.362 47.4234C120.362 47.4234 119.903 54.7698 112.951 54.7698C106.326 54.7698 74.3164 54.7042 74.3164 54.7042C74.3164 54.7042 67.6916 53.9827 67.6916 46.8331V44.9965H67.626Z" fill="#171717"/>
<path d="M120.166 14.5616H122.396V9.31415C122.396 9.31415 122.134 0 112.885 0H74.0541C74.0541 0 65.3959 1.04948 65.3959 9.51093V14.5616H67.626V8.0023C67.626 8.0023 69.1347 2.23015 74.6444 2.23015C82.0564 2.23015 113.475 2.23015 113.475 2.23015C113.475 2.23015 120.1 2.6893 120.1 9.51093C120.166 13.4465 120.166 14.5616 120.166 14.5616Z" fill="#171717"/>
<path d="M81.4005 17.7757L110.852 7.73999L101.209 42.8976L90.0587 46.0461L98.061 16.8574L79.9575 23.0231L81.4005 17.7757Z" fill="#171717"/>
<path d="M89.9931 21.1864L95.6341 19.2186L88.1565 46.5708L82.5811 48.145L89.9931 21.1864Z" fill="#171717"/>
<path d="M0 17.6444H3.34522V29.5823L12.3314 17.6444H16.3982L8.52704 27.8769L16.7917 41.3889H12.725L6.2313 30.6973L3.27963 34.5017V41.3889H0V17.6444Z" fill="#171717"/>
<path d="M18.366 17.6444H21.6456V34.9609L31.2221 17.6444H34.3706V41.3889H31.0909V24.1381L21.5144 41.3889H18.366V17.6444Z" fill="#171717"/>
<path d="M37.7814 17.6444H41.1266V27.4833H50.1784V17.6444H53.5236V41.3889H50.1784V31.4189H41.061V41.3889H37.7158V17.6444H37.7814Z" fill="#171717"/>
<path d="M55.9505 29.5167C55.9505 22.8262 60.0828 17.2509 65.9206 17.2509C71.7583 17.2509 75.8251 22.7606 75.8251 29.5167C75.8251 36.2071 71.6927 41.7825 65.855 41.7825C60.0172 41.7825 55.9505 36.2727 55.9505 29.5167ZM72.2831 29.5167C72.2831 24.9252 69.5938 21.0552 65.855 21.0552C62.1162 21.0552 59.4269 24.794 59.4269 29.5167C59.4269 34.1082 62.1162 37.9781 65.855 37.9781C69.6594 37.9781 72.2831 34.2393 72.2831 29.5167Z" fill="#171717"/>
<path d="M119.707 21.5144H113.672V17.6444H129.086V21.5144H123.052V41.3889H119.707V21.5144V21.5144Z" fill="#171717"/>
<path d="M131.12 17.6444H139.647C141.811 17.6444 143.517 18.3659 144.632 19.7434C145.484 20.7929 145.878 22.1047 145.878 23.7445C145.878 26.565 144.566 28.1392 143.189 29.0575C145.419 29.9758 146.927 31.6156 146.927 34.8953C146.927 39.1588 144.107 41.3889 139.909 41.3889H131.12V17.6444ZM138.991 27.6801C141.155 27.6801 142.598 26.6306 142.598 24.4005C142.598 22.5639 141.418 21.3832 139.253 21.3832H134.465V27.6801H138.991ZM139.909 37.7158C142.205 37.7158 143.582 36.6007 143.582 34.3705C143.582 32.4028 142.336 31.1565 139.647 31.1565H134.334V37.6502H139.909V37.7158Z" fill="#171717"/>
</svg>
