<svg width="61" height="60" viewBox="0 0 61 60" fill="none" xmlns="http://www.w3.org/2000/svg">
<g clip-path="url(#clip0)">
<path d="M46.0591 49.3546C54.1318 47.7835 59.1236 43.7266 59.1237 29.9998C59.1237 18.3868 42.914 0.725488 27.914 0.725586C8.76023 0.725711 21.8656 14.5159 13.3979 19.5965C6.04554 24.0079 0.333351 24.911 0.333351 37.0161C0.333351 50.3705 6.19012 54.2877 13.3979 51.7739C20.6056 49.2602 19.7749 59.032 29.6075 59.032C40.6967 59.032 37.9865 50.9257 46.0591 49.3546Z" fill="#F1F8FE"/>
<g clip-path="url(#clip1)">
<path d="M43.4102 49.9014C42.5751 50.5478 41.8235 51.1296 41.109 51.7161C39.7634 52.8244 38.4502 53.9745 37.0769 55.0041C36.2882 55.5812 35.3653 56.0284 34.5166 56.4851C34.1919 56.6696 33.7378 56.6873 33.5149 56.9599C32.6422 57.9025 31.7437 57.563 30.8222 57.1077C28.1736 55.719 25.6179 54.1915 23.2992 52.2804C22.8919 51.9279 22.4429 51.6077 21.9291 51.2041C21.3309 51.4668 20.7698 51.7342 20.2133 51.9646C17.6999 53.0754 15.2189 54.2279 12.7102 55.3017C11.5556 55.7948 10.3732 56.2092 9.17729 56.4338C7.98134 56.6583 6.70703 56.6097 5.49747 56.6445C4.74209 56.6616 4.233 56.221 3.90502 55.54C3.29973 54.3726 2.93091 53.1222 2.87268 51.7984C2.63703 48.3082 2.01196 44.9191 1.31745 41.4836C1.13818 40.5206 1.00068 39.5252 0.937304 38.5393C0.810555 36.5673 0.725563 34.5631 0.635881 32.5959C0.595042 32.0265 0.591269 31.4619 0.661628 30.9066C0.866075 27.5098 1.10759 24.1176 2.09042 20.8194C2.42116 19.6953 2.60832 18.5154 2.90199 17.3867C3.27494 15.9294 3.93504 14.5838 4.69695 13.3263C5.40773 12.1751 6.1232 10.987 6.76453 9.78939C7.99138 7.53764 9.72261 5.76354 11.9118 4.53643C16.049 2.2021 20.486 0.770854 25.1948 0.464797C27.8133 0.307627 30.4224 0.224493 33.0222 0.215396C34.1158 0.203524 35.2696 0.312101 36.3675 0.564054C38.2344 0.988672 40.1384 1.41799 41.8795 2.24041C42.4491 2.50065 43.0187 2.76089 43.5372 3.12748C44.926 4.05571 46.2684 5.05328 47.6572 5.98151C49.2914 7.05367 50.5822 8.45843 51.6131 10.1312C55.2602 16.1223 57.3774 22.5967 58.3447 29.5271C58.6427 31.6336 58.6024 33.7348 58.6362 35.8454C58.664 38.8955 58.3953 41.9081 57.9736 44.9389C57.7391 46.7898 57.764 48.6735 57.4971 50.4827C57.2208 52.366 56.7174 54.258 56.33 56.1272C56.2601 56.3816 56.1948 56.599 56.0555 56.807C55.4465 58.0463 54.0235 58.2797 52.9777 57.3198C52.5751 56.9302 52.1725 56.5407 51.7188 56.2575C49.0613 54.642 46.5384 52.8554 44.3407 50.5835C44.1 50.4025 43.8222 50.2169 43.4102 49.9014ZM52.5009 53.9494C52.6744 52.5798 52.8663 51.3629 52.9793 50.1736C53.2204 47.0823 53.4243 43.9863 53.6654 40.895C53.7554 39.59 53.8455 38.2849 53.8984 36.9752C53.9463 36.0033 53.9247 34.9851 53.8983 34.0038C53.8814 32.9485 53.9016 31.8979 53.8105 30.8332C53.1445 23.9033 51.0367 17.355 47.9506 11.0964C46.3661 7.84898 43.8066 5.75688 40.8389 3.91396C40.5935 3.77003 40.2693 3.65372 39.9822 3.54211C37.7033 2.80201 35.2987 2.45971 32.8655 2.64036C31.0024 2.78041 29.1487 2.84642 27.2855 2.98647C26.4884 3.03592 25.6866 3.12238 24.88 3.24586C22.3446 3.63923 19.9428 4.46328 17.6195 5.56055C15.6996 6.44566 14.1452 7.71559 12.947 9.44439C12.1203 10.6185 11.6455 11.9876 10.9948 13.2592C9.89326 15.414 8.93526 17.6246 8.47742 20.049C8.16875 21.8905 7.56826 23.6574 7.2596 25.4989C6.79661 28.2612 6.3613 31.1022 6.44961 33.972C6.53745 37.1425 6.21289 40.2985 6.56489 43.4649C6.67471 44.3815 6.47862 45.3346 6.51431 46.2419C6.57162 48.1674 6.51773 50.0788 6.34795 52.0131C6.31465 52.5731 6.35549 53.1424 6.47515 53.6842C6.56713 54.1472 6.81206 54.592 6.98286 55.0273C7.94234 54.8856 8.60106 54.4425 9.29216 54.0411C12.1771 52.3756 15.1038 50.6777 17.9935 48.9752C18.9304 48.4169 19.9551 48.0578 21.0253 48.231C22.7628 48.4888 24.4443 48.8899 25.7398 50.2576C26.0729 50.6008 26.4802 50.9533 26.818 51.2594C28.4424 52.7064 30.2061 53.9454 32.0252 55.3419C32.5727 54.8847 33.0691 54.5338 33.5007 54.0996C34.3593 53.2681 35.1438 52.4271 35.97 51.5539C37.0978 50.3804 38.3229 49.332 39.7421 48.5339C41.9637 47.3485 44.151 47.3248 46.2202 48.8282C46.771 49.2365 47.2801 49.6771 47.8262 50.1224C48.9462 51.0918 50.0568 52.1352 51.1815 53.0676C51.5887 53.4201 52.0148 53.6246 52.5009 53.9494Z" fill="black"/>
<path d="M36.004 17.1048C36.4445 16.8973 36.9222 16.6946 37.358 16.5241C42.7972 14.3172 48.7457 18.4936 48.5329 24.3342C48.5034 25.4589 47.9784 26.3326 47.1986 27.1365C45.2539 29.1093 42.8428 30.0074 40.0905 29.7338C36.7823 29.3899 34.357 27.4276 33.746 23.9275C33.6357 23.3117 33.6737 22.7147 33.9388 22.1089C34.6364 20.4671 35.3017 18.7836 36.004 17.1048ZM38.5235 18.0259C38.425 18.8032 38.3683 19.5483 38.2421 20.2469C38.0643 21.3528 37.8171 22.4122 37.6022 23.5134C37.3405 24.9847 37.9458 26.1522 38.9405 27.2185C39.4726 27.7749 40.0886 27.9658 40.7703 27.6385C42.1244 27.0578 43.1823 26.1387 43.9443 24.8812C44.1394 24.5298 44.3487 24.0673 44.3632 23.6554C44.3932 22.2299 44.3073 20.8274 43.5678 19.5301C42.4215 17.5795 40.944 17.0537 38.5235 18.0259Z" fill="black"/>
<path d="M20.8145 28.4949C18.53 28.3935 16.8217 27.312 15.4666 25.5229C14.9209 24.7768 14.82 24.087 15.1133 23.259C15.4529 22.3618 15.862 21.5109 15.6598 20.4321C15.5265 19.7006 16.1115 18.9472 16.7843 18.3931C19.1414 16.435 23.5396 16.2024 26.0765 17.8779C27.5348 18.8526 28.2184 20.2933 28.2715 21.9549C28.3344 23.2417 28.0961 24.528 27.5984 25.7813C27.0124 27.1364 26.0056 27.9491 24.6379 28.34C23.3908 28.6709 22.0977 28.7704 20.8145 28.4949ZM19.0108 23.1135C19.0478 23.1182 19.0849 23.1229 19.122 23.1276C19.0657 23.5718 18.977 23.9743 18.9578 24.4232C18.947 25.3998 19.8629 26.4937 20.7755 26.7222C21.7993 26.9648 22.6804 26.5498 23.1594 25.4445C24.0104 23.4837 24.0413 21.4565 23.1174 19.5341C22.614 18.4547 21.5437 18.2815 20.6898 19.076C20.3047 19.4409 19.9795 19.9263 19.7656 20.4258C19.463 21.3278 19.2716 22.2438 19.0108 23.1135Z" fill="black"/>
</g>
</g>
<defs>
<clipPath id="clip0">
<rect width="60" height="60" fill="white" transform="translate(0.333374)"/>
</clipPath>
<clipPath id="clip1">
<rect width="59.0322" height="59.5161" fill="white" transform="translate(4.79211 -3.47461) rotate(7.22147)"/>
</clipPath>
</defs>
</svg>
