<svg width="164" height="50" viewBox="0 0 164 50" fill="none" xmlns="http://www.w3.org/2000/svg">
<g clip-path="url(#clip0)">
<path d="M0 0.856323C1.3501 0.856323 2.70019 0.856323 4.05029 0.856323C4.44305 0.856323 4.4676 0.880738 4.4676 1.27137C4.4676 1.36903 4.4676 1.4911 4.4676 1.58876C4.4676 17.3361 4.4676 33.0835 4.4676 48.8309C4.4676 49.0506 4.4676 49.2704 4.4676 49.5634C2.92112 49.5634 1.47283 49.5634 0 49.5634C0 33.3521 0 17.092 0 0.856323Z" fill="#F9E916"/>
<path d="M20.0305 45.5838C20.6933 44.4363 21.3315 43.3132 21.9943 42.1657C22.1416 42.239 22.2398 42.2878 22.338 42.3366C24.3263 43.6062 26.4619 44.4363 28.7939 44.7537C31.1013 45.0711 33.4088 44.9978 35.5935 44.0701C38.3182 42.9226 39.8401 40.8474 40.2329 37.942C40.3802 36.819 40.282 35.7203 40.3311 34.5972C40.0365 34.8658 39.7911 35.0855 39.521 35.3297C37.9991 36.7457 36.1826 37.6246 34.1452 37.9664C31.0032 38.528 27.9347 38.235 25.0627 36.7457C21.6752 35.0123 19.5887 32.2534 18.7541 28.5668C18.165 26.0521 18.2631 23.513 19.1468 21.0716C20.3987 17.6291 22.8535 15.3586 26.3146 14.1378C27.9347 13.5519 29.6285 13.3077 31.3714 13.3077C35.7162 13.3077 40.0611 13.3077 44.4305 13.3077C44.5778 13.3077 44.725 13.3077 44.9214 13.3077C44.946 13.5031 44.9705 13.674 44.9705 13.8449C44.9705 21.3401 44.9705 28.8354 44.9705 36.3062C44.9705 38.1373 44.676 39.9196 43.9641 41.6042C42.7613 44.4363 40.6993 46.365 37.8764 47.5858C36.1826 48.3182 34.4152 48.6844 32.5742 48.8065C29.3339 49.0506 26.2164 48.5868 23.1971 47.4149C22.2152 47.0242 21.2824 46.5359 20.4233 45.95C20.3251 45.8768 20.2515 45.8279 20.1533 45.7547C20.1042 45.7058 20.1042 45.657 20.0305 45.5838ZM40.6993 16.9455C40.4538 16.9455 40.282 16.9455 40.1102 16.9455C37.5573 16.9455 35.0043 16.9211 32.4514 16.9455C31.6414 16.9455 30.8068 16.9943 29.9967 17.1408C27.9593 17.4826 26.2164 18.4104 24.94 20.0462C23.148 22.3655 22.7307 24.9779 23.4181 27.7612C24.0808 30.4712 25.7746 32.3755 28.4011 33.4253C30.0704 34.1089 31.8378 34.2066 33.6052 33.9136C35.3971 33.6206 36.9681 32.8638 38.2446 31.5698C39.8402 29.9585 40.6748 27.9809 40.6993 25.7103C40.7239 22.9515 40.6993 20.1682 40.6993 17.4094C40.6993 17.3117 40.6993 17.1652 40.6993 16.9455Z" fill="black"/>
<path d="M114.218 48.3915C112.647 48.3915 111.174 48.3915 109.652 48.3915C109.652 36.6969 109.652 25.0268 109.652 13.3322C111.15 13.3322 112.647 13.3322 114.194 13.3322C114.194 14.3576 114.194 15.3586 114.194 16.4573C114.537 16.1399 114.807 15.8713 115.077 15.6516C116.845 14.0891 118.931 13.2345 121.263 12.9172C123.743 12.5754 126.148 12.7951 128.456 13.7228C132.53 15.383 135.108 18.3616 136.114 22.5853C136.9 25.9057 136.507 29.1284 134.813 32.1314C133.095 35.1588 130.493 37.0876 127.13 38.0641C125.952 38.4059 124.774 38.5769 123.571 38.5769C120.895 38.6013 118.367 38.0641 116.133 36.5016C115.642 36.1598 115.225 35.7692 114.783 35.3785C114.611 35.2321 114.464 35.0367 114.316 34.8658C114.292 34.8903 114.243 34.8903 114.218 34.9147C114.218 39.4069 114.218 43.8748 114.218 48.3915ZM131.745 25.3686C131.696 25.0268 131.671 24.3676 131.524 23.7328C130.959 21.1204 129.536 19.1185 127.13 17.8733C125.191 16.8723 123.129 16.6526 120.993 17.0432C118.269 17.5559 116.207 18.972 114.93 21.4378C113.924 23.3666 113.678 25.4174 114.12 27.5171C114.709 30.4468 116.354 32.5709 119.152 33.7672C120.993 34.5484 122.908 34.6705 124.847 34.3043C126.467 33.9869 127.916 33.2789 129.118 32.107C130.91 30.3491 131.72 28.1763 131.745 25.3686Z" fill="black"/>
<path d="M159.802 23.5374C159.753 22.3899 159.631 21.3401 159.213 20.3147C158.403 18.3127 156.857 17.1896 154.795 16.7502C151.285 15.9933 148.044 16.7014 145.074 18.7033C144.927 18.801 144.804 18.8987 144.657 18.9963C144.632 19.0207 144.608 19.0207 144.509 19.0451C143.871 18.093 143.208 17.1164 142.521 16.0666C143.159 15.6759 143.724 15.2853 144.338 14.9435C146.252 13.8693 148.29 13.2345 150.474 12.9903C152.782 12.7218 155.04 12.8194 157.274 13.4786C159.361 14.089 161.128 15.2121 162.355 17.0432C163.19 18.2883 163.705 19.6799 163.877 21.1692C164 22.1702 164.049 23.1956 164.049 24.1966C164.074 28.6157 164.049 33.0347 164.049 37.4293C164.049 38.0397 164.049 38.0397 163.435 38.0397C162.429 38.0397 161.423 38.0397 160.416 38.0397C160.244 38.0397 160.072 38.0153 159.852 38.0153C159.852 37.1119 159.852 36.233 159.852 35.2564C159.68 35.3785 159.581 35.4517 159.483 35.5006C157.47 36.9898 155.212 37.942 152.708 38.3326C150.843 38.6256 148.977 38.6012 147.136 38.1373C145.712 37.7711 144.411 37.1607 143.331 36.1353C142.251 35.1099 141.588 33.8892 141.294 32.4243C140.975 30.813 141.147 29.2748 141.932 27.81C142.619 26.5648 143.626 25.6615 144.853 25.0023C146.154 24.2943 147.553 23.9036 149.026 23.6839C150.082 23.513 151.113 23.513 152.168 23.513C154.525 23.513 156.881 23.513 159.238 23.513C159.385 23.5374 159.557 23.5374 159.802 23.5374ZM159.753 26.8822C159.532 26.8822 159.336 26.8822 159.164 26.8822C156.979 26.8822 154.795 26.8822 152.61 26.8822C151.825 26.8822 151.039 26.931 150.254 27.0043C149.149 27.1264 148.093 27.4438 147.136 28.0785C145.172 29.3969 145.123 32.1802 146.792 33.6206C147.283 34.0601 147.848 34.3775 148.462 34.5972C149.934 35.1099 151.456 35.1099 152.954 34.8414C155.531 34.4019 157.667 33.1568 159.532 31.3501C159.729 31.1548 159.802 30.9595 159.802 30.6909C159.802 29.5678 159.802 28.4448 159.802 27.3217C159.778 27.224 159.778 27.0775 159.753 26.8822Z" fill="black"/>
<path d="M79.9503 35.354C80.6622 34.2554 81.374 33.2056 82.0614 32.1313C82.3805 32.3511 82.6751 32.522 82.9451 32.7173C84.4915 33.6939 86.1608 34.2554 87.9527 34.5484C89.4501 34.7925 90.972 34.7925 92.4939 34.7193C93.6722 34.646 94.8259 34.4263 95.906 33.9136C96.446 33.645 96.9615 33.3032 97.3052 32.8149C98.1889 31.5942 98.1153 29.9096 96.6424 28.9574C95.8324 28.4203 94.8996 28.1273 93.9668 27.9809C92.7394 27.7855 91.4875 27.6391 90.2356 27.517C88.3946 27.2972 86.6026 27.0043 84.8843 26.2474C83.8288 25.7835 82.8714 25.1488 82.135 24.2454C81.104 22.9515 80.7604 21.4378 80.9077 19.8264C81.2268 16.6769 83.1414 14.8214 85.9889 13.7472C87.4127 13.2101 88.91 12.9903 90.432 12.9171C93.0585 12.795 95.636 13.088 98.1643 13.8692C99.3181 14.2111 100.423 14.6993 101.454 15.3341C101.576 15.4074 101.699 15.505 101.871 15.6271C101.208 16.7502 100.545 17.8488 99.9072 18.9475C99.1953 18.6057 98.5326 18.2639 97.8452 17.9953C96.1269 17.2873 94.3595 16.8722 92.4939 16.7502C91.1929 16.6525 89.8919 16.7257 88.64 17.0676C88.0018 17.2385 87.4127 17.507 86.8972 17.8976C85.9153 18.6545 85.4734 19.6555 85.6944 20.9006C85.7926 21.4133 86.0626 21.8284 86.4799 22.1702C87.1426 22.7317 87.9527 23.0247 88.7873 23.1956C89.8428 23.3909 90.9229 23.5374 92.003 23.6839C93.9913 23.928 96.0042 24.1478 97.8943 24.8802C99.2444 25.4173 100.472 26.1254 101.38 27.2972C102.092 28.225 102.46 29.2992 102.534 30.4467C102.681 33.4985 101.208 35.6226 98.6062 37.0631C97.2316 37.8199 95.7096 38.235 94.1631 38.4547C93.0831 38.6012 91.9784 38.6988 90.8738 38.6988C87.83 38.6744 84.8843 38.1373 82.1105 36.7945C81.4722 36.4771 80.8586 36.1109 80.2449 35.7447C80.1958 35.5738 80.0976 35.4761 79.9503 35.354Z" fill="black"/>
<path d="M54.3721 0.587769C55.894 0.587769 57.3669 0.587769 58.8151 0.587769C58.8397 0.612183 58.8397 0.612183 58.8642 0.636598L58.8888 0.661012C58.9133 0.75867 58.9133 0.831914 58.9133 0.929572C58.9133 13.2345 58.9133 25.5394 58.9133 37.8444C58.9133 37.8932 58.8888 37.942 58.8642 37.9664C58.496 38.0885 54.8139 38.0885 54.3475 37.9664C54.3721 25.5394 54.3721 13.088 54.3721 0.587769Z" fill="black"/>
<path d="M68.3149 13.3077C69.886 13.3077 71.3833 13.3077 72.9053 13.3077C72.9298 13.5031 72.9544 13.6495 72.9544 13.8204C72.9544 21.7063 72.9544 29.5923 72.9544 37.4782C72.9544 37.5514 72.9544 37.6246 72.9544 37.6979C72.9544 37.9176 72.8562 38.0397 72.6107 38.0397C72.267 38.0397 71.9234 38.0397 71.5797 38.0397C70.6469 38.0397 69.7141 38.0397 68.7813 38.0397C68.364 38.0397 68.3395 38.0153 68.3149 37.6002C68.3149 37.5026 68.3149 37.3805 68.3149 37.2828C68.3149 29.519 68.3149 21.7552 68.3149 13.9913C68.3149 13.796 68.3149 13.5763 68.3149 13.3077Z" fill="black"/>
<path d="M70.5978 1.53992C72.3406 1.58875 73.6907 2.80947 73.838 4.49408C73.8871 5.22651 73.6662 5.91012 73.1752 6.49607C72.1197 7.76563 70.1559 8.03419 68.7568 7.15526C67.7503 6.52048 67.1857 5.32417 67.3821 4.22552C67.6276 2.88272 68.4131 2.02821 69.7386 1.66199C70.0332 1.61316 70.3278 1.58875 70.5978 1.53992Z" fill="black"/>
</g>
<defs>
<clipPath id="clip0">
<rect width="164" height="49" fill="white" transform="translate(0 0.587769)"/>
</clipPath>
</defs>
</svg>
