<svg width="256" height="59" viewBox="0 0 256 59" fill="none" xmlns="http://www.w3.org/2000/svg">
<g clip-path="url(#clip0)">
<path d="M35.4421 58.4998C34.8365 58.4998 34.4904 58.4998 34.1444 58.4998C27.8289 58.4998 21.535 58.457 15.2195 58.4998C11.8022 58.5212 8.55788 57.9869 5.55152 56.32C5.48663 56.2772 5.42175 56.2986 5.11895 56.2345C5.03244 56.3841 4.85941 56.6619 4.77289 56.8115C3.60495 57.2389 0.966278 54.7172 0.771622 53.2212C2.39376 53.4349 4.03752 53.6273 5.68129 53.841C5.78943 55.0377 5.87595 55.0805 7.1304 55.3369C8.68765 55.6575 9.83396 54.9522 10.9586 54.0119C12.3861 52.8152 12.9917 51.1696 13.3378 49.46C13.6838 47.729 13.9217 45.9338 14.0083 44.1814C14.1164 41.9803 14.0731 39.7577 14.0515 37.5565C14.0299 34.586 14.3759 31.6582 14.895 28.7518C15.0681 27.8329 15.5439 27.6619 16.3225 28.2816C16.5604 28.474 16.7983 28.6877 17.0795 28.9228C17.2093 28.1748 16.8632 27.6833 15.8251 27.1063C14.2894 26.2514 13.2945 26.3583 11.8887 27.5123C11.11 27.3627 10.3747 26.3583 9.53116 26.978C8.88231 27.4482 8.44974 28.2389 7.84414 28.9655C7.736 28.88 7.49808 28.7304 7.30343 28.5381C6.28689 27.4055 5.11895 27.5764 4.44847 28.9441C4.14567 29.5853 3.88613 30.2478 3.5617 31.0171C3.2589 30.376 3.32378 29.799 3.4103 29.222C3.8645 26.166 5.52989 23.922 8.10368 22.2551C9.55279 21.3148 11.1533 20.8019 12.8403 20.6096C13.6189 20.5241 13.8352 20.7592 13.6838 21.5071C13.5757 22.02 13.3594 22.5329 13.3161 23.0672C13.2945 23.4946 13.3378 24.0503 13.5757 24.3708C14.6139 25.7172 16.0846 26.3369 17.7716 26.4438C17.9663 26.4651 18.1609 26.3369 18.4205 26.2514C18.1177 25.6958 17.5986 25.7599 17.2093 25.6103C16.3225 25.2684 16.236 25.1615 16.5172 24.2853C17.6202 20.8233 19.7398 18.0665 22.5299 15.7584C22.7462 15.5661 22.9625 15.3951 23.1787 15.2028C23.2436 15.1387 23.2653 15.0105 23.3518 14.8181C22.3136 14.1984 21.124 14.6472 20.0642 14.2625C23.049 13.1512 26.1851 12.8948 29.4726 12.7452C29.3212 12.3819 29.2563 12.1254 29.1266 11.8903C28.9536 11.5912 28.694 11.3133 28.5426 11.0141C28.3263 10.5654 28.11 9.98835 28.5642 9.62505C28.8238 9.41134 29.3645 9.5182 29.7754 9.49683C29.9917 9.49683 30.208 9.58231 30.4027 9.58231C30.9001 9.60368 31.2029 9.34723 31.1164 8.87708C31.0299 8.32144 30.9001 7.7658 30.6838 7.25291C29.7754 5.24406 29.3861 3.19248 29.8403 1.01267C29.8836 0.820333 29.9701 0.627997 30.1647 0.457031C30.2513 1.11952 30.3594 1.78201 30.4243 2.4445C30.792 6.12026 32.7602 8.53515 36.2424 9.79602C37.1291 10.1166 37.2805 9.96698 37.6049 9.04804C37.9943 7.97951 38.4917 6.95372 38.9892 5.94929C39.1406 5.62873 39.4866 5.37229 39.8543 5.17995C39.7029 6.07752 39.5515 6.95372 39.4217 7.85129C39.3569 8.34281 39.3785 8.85571 39.3785 9.34723C39.4001 10.4585 39.7245 11.3774 40.7195 12.0827C41.4981 12.6383 42.1037 13.4077 42.4714 14.3266C42.9039 15.4379 42.6011 16.3782 41.8009 17.3399C41.6495 17.0834 41.5846 16.8697 41.4548 16.7415C41.2385 16.5278 41.0006 16.25 40.7411 16.2072C39.7894 16.0576 38.8378 15.9721 37.8645 15.8867C37.6266 16.656 37.8212 17.2971 38.6647 17.6818C39.4001 18.0237 40.222 18.3015 41.0223 18.3015C42.32 18.3229 42.9904 18.964 43.4446 20.0326C43.5312 20.2676 43.6609 20.4814 43.7258 20.7164C44.0286 21.6354 44.6991 22.0414 45.6291 22.2337C46.2563 22.362 46.9052 22.5543 47.4243 22.8749C48.2894 23.4305 48.1813 24.4136 47.1864 24.5845C45.694 24.841 44.8938 25.824 44.1368 26.8926C43.834 27.32 43.5528 27.3413 43.1418 27.1063C42.8607 26.9353 42.6011 26.743 42.2983 26.6361C41.7144 26.4438 41.4332 26.0377 41.3251 25.4607C41.0223 23.9434 40.1355 23.0245 38.5566 22.939C36.9345 22.8535 35.334 22.8535 33.7118 22.8108C33.4739 22.8108 33.236 22.8108 32.7602 22.8108C33.5172 22.2551 34.1011 21.8277 34.7284 21.3576C34.0362 20.5882 32.9981 20.3318 32.7385 19.3487C32.5223 18.4725 32.3709 17.5963 32.1546 16.5064C31.4841 17.5749 31.895 18.5153 31.8085 19.4769C31.2678 19.712 30.7055 19.9471 30.1647 20.2249C26.5528 21.9987 25.5146 24.8623 26.6393 28.474C27.0719 29.8631 28.1749 30.8675 29.3429 31.7437C31.4841 33.3679 33.9065 34.415 36.5235 35.0348C39.6597 35.7614 42.5146 37.0009 44.7424 39.4158C48.0515 43.0488 48.138 48.1777 45.6508 52.0672C43.8556 54.8881 41.1953 56.6619 38.124 57.8587C37.5401 58.0937 37.2589 57.9655 37.0859 57.3244C36.6749 55.8498 35.5935 55.2301 34.1876 54.9736C32.5006 54.6744 30.9001 54.9523 29.3429 55.6789C29.1049 55.7857 28.8454 55.9139 28.4345 55.8926C28.5859 55.6361 28.694 55.3583 28.867 55.166C30.1215 53.7555 31.3543 52.3237 32.6737 50.9559C33.9497 49.6096 34.75 48.0923 34.9663 46.2544C35.2042 44.3951 34.5986 42.8778 33.1927 41.6811C31.2245 40.0141 28.9319 39.8004 26.5312 40.3347C26.5095 40.4202 26.4879 40.5057 26.4663 40.5912C26.7691 40.6339 27.0935 40.6553 27.3963 40.7194C28.2831 40.869 29.1915 40.9331 30.035 41.2109C31.4841 41.7238 32.2411 42.8137 32.3925 44.3524C32.6088 46.5536 31.8734 48.4983 30.7271 50.3148C29.7322 51.8749 28.5859 53.3281 27.5261 54.8668C27.0719 55.5079 26.6393 56.1704 26.2716 56.8542C26.1635 57.068 26.1635 57.4526 26.2932 57.6236C26.4014 57.7518 26.8123 57.7304 27.0286 57.645C28.0235 57.2603 28.9968 56.7474 30.0133 56.4268C30.8569 56.1704 31.7653 55.9567 32.6304 55.978C33.993 56.1276 34.7716 57.0466 35.4421 58.4998ZM21.0592 31.9147C20.9726 32.107 20.951 32.1497 20.951 32.1711C22.0541 34.8424 24.0655 36.4452 26.9205 36.9581C27.5261 37.065 28.2614 37.0864 28.8238 36.8513C29.5375 36.5521 30.1431 35.9965 30.7487 35.5049C31.1164 35.2271 31.0299 34.7997 30.5973 34.6929C30.1431 34.6074 29.6673 34.6501 29.2131 34.6501C28.5426 34.6501 27.8505 34.757 27.18 34.6715C25.1686 34.4364 23.3734 33.6884 21.8378 32.3634C21.6215 32.1925 21.362 32.0856 21.0592 31.9147Z" fill="#E4000F"/>
<path d="M187.339 37.0009C186.301 37.0009 185.436 36.9796 184.592 37.0009C184.03 37.0223 183.814 37.4284 183.597 37.8558C183.186 38.732 182.732 39.5654 182.343 40.4416C182.148 40.869 181.889 41.0614 181.456 41.0614C179.185 41.0614 176.914 41.0614 174.643 41.04C174.557 41.04 174.448 40.9545 174.297 40.869C174.362 40.634 174.362 40.3989 174.47 40.1852C176.871 35.3768 179.293 30.5684 181.672 25.7386C182.105 24.841 182.624 24.4991 183.662 24.5205C187.88 24.5846 192.097 24.5418 196.315 24.5632C197.072 24.5632 197.829 24.6273 198.564 24.7983C199.732 25.0334 200.273 25.8455 200.035 26.9995C199.905 27.5765 199.689 28.1535 199.429 28.7091C198.521 30.6111 197.548 32.4704 196.618 34.351C195.839 35.911 194.65 36.8513 192.876 37.0223C192.746 37.0437 192.595 37.0864 192.465 37.1292C192.4 37.1505 192.379 37.236 192.292 37.3215C192.379 37.4284 192.443 37.5352 192.552 37.6207C193.719 38.561 193.979 39.4586 193.352 40.8049C192.681 42.2368 191.924 43.6045 191.211 44.9936C190.583 46.2331 189.934 47.4726 189.329 48.7121C188.983 49.4601 188.485 49.5242 187.945 48.9685C186.755 47.7718 185.479 46.6819 184.225 45.5706C183.554 44.9722 183.511 44.9081 183.9 44.1387C184.938 42.0231 185.998 39.9287 187.036 37.813C187.101 37.6207 187.166 37.4284 187.339 37.0009ZM185.457 34.2441C186.279 34.6074 187.036 34.3724 187.75 34.4578C188.42 34.5433 188.788 34.2441 189.069 33.6457C189.761 32.1712 190.518 30.7393 191.232 29.2648C191.557 28.6236 191.795 27.9398 192.162 27.1063C191.211 27.1063 190.475 27.1277 189.718 27.1063C189.134 27.085 188.81 27.3414 188.572 27.8757C187.815 29.4785 186.993 31.0385 186.193 32.6413C185.955 33.1329 185.717 33.6671 185.457 34.2441Z" fill="black"/>
<path d="M131.3 37.2361C131.429 37.3857 131.494 37.514 131.602 37.5994C132.814 38.6039 133.073 39.3518 132.403 40.7623C131.494 42.707 130.478 44.5663 129.505 46.4896C129.115 47.259 128.748 48.0283 128.358 48.7977C128.034 49.4815 127.688 49.5456 127.125 49.0541C125.806 47.8787 124.53 46.7033 123.211 45.5493C122.713 45.1219 122.648 44.7372 122.951 44.1602C124.011 42.1086 125.006 40.0143 126.044 37.9414C126.152 37.7063 126.239 37.4498 126.39 37.0224C125.33 37.0224 124.443 36.9583 123.557 37.0652C123.254 37.1079 122.908 37.4926 122.735 37.7918C122.259 38.668 121.826 39.5655 121.415 40.4845C121.221 40.8905 120.961 41.1042 120.507 41.1042C118.279 41.1042 116.03 41.1042 113.802 41.0829C113.694 41.0829 113.608 41.0187 113.37 40.9119C113.456 40.6341 113.499 40.3349 113.629 40.0571C116.008 35.3128 118.409 30.5685 120.723 25.8028C121.178 24.8625 121.74 24.5206 122.778 24.542C126.996 24.6061 131.213 24.542 135.431 24.5847C136.209 24.5847 137.01 24.6915 137.788 24.8625C138.74 25.0762 139.281 25.931 139.129 26.8714C139.043 27.3843 138.87 27.9185 138.632 28.3887C137.723 30.2907 136.75 32.1499 135.82 34.0519C134.977 35.7616 133.744 36.9369 131.732 37.0865C131.602 37.0652 131.494 37.1506 131.3 37.2361ZM124.422 34.4366C125.352 34.4366 126.022 34.3938 126.693 34.4366C127.428 34.4793 127.882 34.2229 128.207 33.539C129.072 31.7011 130.002 29.8846 130.889 28.0681C131.019 27.8117 131.083 27.5125 131.213 27.0851C130.348 27.0851 129.634 27.0851 128.921 27.0851C128.315 27.0637 127.947 27.2988 127.688 27.8758C127.169 29.0512 126.541 30.1624 125.957 31.3165C125.46 32.2568 125.027 33.1971 124.422 34.4366Z" fill="black"/>
<path d="M82.4408 26.2942C81.9217 26.2728 81.554 26.23 81.1647 26.23C80.2996 26.23 79.4345 26.2514 78.5693 26.2514C77.7907 26.2514 77.596 26.0805 77.5744 25.4607C77.5744 24.7768 77.8123 24.5631 78.5693 24.5418C81.7487 24.5204 84.9065 24.499 88.0859 24.499C88.7347 24.499 89.3619 24.499 90.0108 24.499C90.292 24.9692 90.0324 25.3111 89.8161 25.6958C89.124 26.9994 88.4535 28.3244 87.7398 29.7562C88.6698 30.0981 89.5133 30.034 90.3352 29.8631C90.5515 29.8203 90.7245 29.4784 90.8543 29.2433C91.5032 27.9824 92.152 26.7002 92.736 25.418C93.0172 24.841 93.3632 24.5204 94.0553 24.5204C96.0019 24.5418 97.9485 24.5204 99.895 24.5418C100.068 24.5418 100.241 24.6059 100.544 24.6486C100.457 24.9905 100.436 25.3111 100.306 25.5676C97.9917 30.1836 95.6558 34.7783 93.3416 39.3944C91.7843 42.4931 90.2703 45.5919 88.7131 48.6906C88.6915 48.7547 88.6049 48.7761 88.4752 48.9043C88.2373 48.7547 87.9777 48.6051 87.7614 48.3914C86.507 47.2374 85.2525 46.062 83.9764 44.908C83.3925 44.3524 83.3276 44.16 83.6736 43.4334C84.409 41.9802 85.166 40.527 85.9014 39.0524C86.9395 37.0222 87.9561 34.992 88.9726 32.9404C89.1024 32.7054 89.1457 32.4275 89.2754 32.0642C88.4319 32.0642 87.7182 32.0001 87.0261 32.107C86.7233 32.1497 86.3556 32.513 86.2042 32.8122C84.6469 35.8896 83.1113 38.9883 81.5757 42.0657C81.5541 42.1298 81.4675 42.1512 81.3594 42.258C81.208 42.1939 80.9917 42.1298 80.8403 42.023C79.6291 40.9758 78.4179 39.9073 77.2067 38.8387C76.6227 38.3258 76.6011 38.1121 76.9688 37.3855C78.6558 34.0517 80.3428 30.6965 82.0299 27.3627C82.2245 27.0421 82.2894 26.7429 82.4408 26.2942Z" fill="black"/>
<path d="M206.415 40.8047C206.805 39.9926 207.172 39.2446 207.605 38.3257C206.545 38.1547 205.637 38.1975 204.728 38.3257C204.512 38.3471 204.317 38.689 204.188 38.9241C202.782 41.4244 203.517 41.0398 200.511 41.0611C198.997 41.0611 197.504 41.0611 195.861 41.0611C195.926 40.6765 195.904 40.3773 196.012 40.1636C198.305 35.5902 200.641 31.0169 202.89 26.4222C203.56 25.0759 204.447 24.5202 206.004 24.5416C210.979 24.6271 215.932 24.563 220.906 24.563C221.188 24.563 221.469 24.6057 221.901 24.6485C221.793 25.0331 221.75 25.3323 221.62 25.5888C220.193 28.4097 218.744 31.2306 217.295 34.0516C216.213 36.1673 215.175 38.3257 214.072 40.4414C213.942 40.6978 213.574 41.0184 213.293 41.0398C211.13 41.0825 208.968 41.0611 206.826 41.0398C206.718 41.0184 206.632 40.9115 206.415 40.8047ZM205.853 35.5902C206.891 35.5902 207.67 35.6116 208.448 35.5902C208.924 35.5689 209.227 35.3124 209.443 34.885C210.546 32.6411 211.649 30.4185 212.753 28.196C212.904 27.8968 213.012 27.5762 213.185 27.1061C212.428 27.1061 211.866 27.1702 211.303 27.0847C210.395 26.9779 209.898 27.3839 209.552 28.1532C208.989 29.35 208.384 30.504 207.8 31.7008C207.194 32.8762 206.588 34.0943 205.853 35.5902Z" fill="black"/>
<path d="M150.311 24.6271C152.323 24.6271 154.356 24.6271 156.367 24.6271C157.34 24.6271 158.227 24.8622 158.919 25.5888C159.568 26.2727 159.633 26.6787 159.222 27.5122C157.708 30.5682 156.172 33.6242 154.637 36.6802C154.118 37.706 153.599 38.7104 153.08 39.7148C152.604 40.6124 151.847 41.0612 150.809 41.0398C146.742 41.0398 142.655 41.0398 138.588 41.0398C137.594 41.0398 136.772 40.6765 136.101 39.9499C135.582 39.3942 135.474 38.8172 135.842 38.112C136.988 35.9108 138.091 33.6669 139.194 31.4444C139.951 29.927 140.708 28.3883 141.465 26.871C141.616 26.5505 141.833 26.2513 142.006 25.9521C142.503 25.0118 143.282 24.5844 144.385 24.6057C146.353 24.6485 148.321 24.6271 150.311 24.6271ZM151.76 26.9779C150.852 26.9779 150.03 26.9351 149.23 26.9993C148.992 27.0206 148.711 27.3626 148.581 27.6404C146.894 30.9742 145.207 34.3294 143.541 37.6632C143.433 37.8983 143.412 38.1761 143.325 38.5822C144.039 38.5822 144.601 38.5822 145.164 38.5822C145.812 38.5822 146.223 38.3043 146.505 37.706C148.148 34.4149 149.814 31.1452 151.457 27.8755C151.587 27.6617 151.63 27.3839 151.76 26.9779Z" fill="black"/>
<path d="M231.548 35.3338C231.634 36.3596 231.029 37.0007 230.618 37.6632C230.488 37.8983 229.904 37.8983 229.515 37.9197C228.498 37.941 227.503 37.9624 226.487 37.8983C225.557 37.8342 225.059 38.1975 224.67 39.0309C223.286 41.916 221.837 44.7796 220.409 47.6647C220.214 48.0707 219.976 48.4768 219.695 48.9897C219.198 48.5836 218.765 48.2203 218.333 47.8784C217.23 46.9595 216.148 46.0405 215.045 45.1216C214.353 44.5446 214.31 44.395 214.742 43.5829C215.889 41.3603 217.035 39.1592 218.181 36.958C220.128 33.1967 222.096 29.4355 223.978 25.6529C224.367 24.8622 224.843 24.563 225.73 24.563C229.406 24.6057 233.083 24.563 236.76 24.563C237.885 24.563 238.88 24.8835 239.594 25.8239C239.961 26.294 240.026 26.7855 239.788 27.3198C239.42 28.0464 239.096 28.7944 238.685 29.521C238.577 29.7347 238.274 29.9698 238.058 29.9698C236.155 30.0125 234.251 29.9911 232.218 29.9911C232.37 28.8585 233.213 28.1319 233.429 26.9992C232.543 26.9138 231.699 26.8497 230.877 27.0634C230.683 27.1061 230.466 27.3625 230.38 27.5763C229.19 29.9698 228.001 32.3633 226.833 34.7568C226.768 34.9064 226.746 35.0774 226.66 35.3979C228.303 35.4407 229.861 35.3979 231.548 35.3338Z" fill="black"/>
<path d="M170.772 29.4569C171.183 28.5594 171.529 27.79 171.961 26.8711C170.966 26.636 170.101 26.636 169.258 26.8711C169.041 26.9352 168.847 27.2557 168.717 27.4908C166.987 30.8888 165.278 34.2867 163.569 37.6846C163.483 37.8556 163.483 38.0907 163.44 38.3471C164.283 38.6463 165.127 38.6036 165.884 38.4112C166.208 38.3258 166.511 37.8556 166.662 37.4923C166.922 36.8725 167.311 36.5947 167.96 36.5947C169.755 36.5947 171.572 36.5947 173.367 36.5947C173.475 36.5947 173.562 36.6588 173.691 36.7016C173.713 36.8084 173.778 36.9367 173.735 37.0008C173.172 38.0693 172.632 39.1378 172.004 40.1636C171.615 40.8048 170.923 41.0826 170.144 41.0826C166.295 41.0826 162.423 41.0826 158.573 41.0612C157.643 41.0612 156.821 40.6979 156.172 39.9927C155.675 39.437 155.545 38.8387 155.913 38.1334C157.038 35.9536 158.119 33.7524 159.222 31.5512C160.174 29.6706 161.147 27.8114 162.077 25.9521C162.661 24.7981 163.548 24.328 164.845 24.3493C168.371 24.3921 171.918 24.328 175.443 24.3921C176.179 24.3921 176.957 24.563 177.628 24.8622C178.774 25.3751 179.055 26.3795 178.493 27.5122C177.26 29.9698 177.996 29.4997 175.249 29.521C174.102 29.5424 172.934 29.5424 171.788 29.5424C171.529 29.521 171.247 29.4783 170.772 29.4569Z" fill="black"/>
<path d="M118.214 24.6271C118.171 25.6101 117.63 26.2513 117.198 26.9137C117.09 27.0847 116.614 27.1061 116.289 27.1061C114.408 27.1061 112.548 27.1488 110.666 27.0847C109.887 27.0633 109.433 27.3198 109.152 28.0036C108.936 28.4738 108.719 28.944 108.417 29.5851C109.736 29.7774 110.926 29.6278 112.072 29.6492C113.24 29.6706 114.429 29.6492 115.662 29.6492C115.705 30.6536 115.057 31.2947 114.646 31.9786C114.538 32.1496 114.062 32.1709 113.759 32.1709C111.877 32.1709 110.017 32.1923 108.135 32.1282C107.378 32.1068 106.924 32.3846 106.621 33.0471C105.864 34.6286 105.064 36.1672 104.286 37.7273C104.221 37.8769 104.199 38.0479 104.134 38.3684C106.535 38.6035 108.892 38.3898 111.488 38.4966C111.012 39.3728 110.688 40.1208 110.255 40.7833C110.104 40.997 109.628 41.0611 109.282 41.0611C105.107 41.0825 100.933 41.0611 96.7373 41.0611C96.1533 41.0611 95.5477 41.0611 94.8556 41.0611C94.9421 40.6765 94.9421 40.4627 95.0502 40.2918C97.5375 35.3338 100.025 30.3758 102.49 25.3964C102.772 24.8194 103.139 24.5202 103.831 24.5416C108.395 24.563 112.98 24.5416 117.544 24.5416C117.717 24.5416 117.89 24.5843 118.214 24.6271Z" fill="black"/>
<path d="M244.114 26.9565C242.968 26.9138 241.908 26.871 240.653 26.8283C241.086 26.0162 241.324 25.3964 241.735 24.8835C241.929 24.6485 242.427 24.5202 242.795 24.5202C246.471 24.4989 250.148 24.5202 253.825 24.5202C254.474 24.5202 255.101 24.5202 255.75 24.5202C255.901 25.8452 254.993 26.8924 253.76 26.8924C251.057 26.871 251.706 26.7 250.646 28.7944C248.764 32.5556 246.882 36.3168 245.022 40.0995C244.698 40.7833 244.287 41.1252 243.443 41.0825C241.648 40.997 239.831 41.0611 238.036 41.0611C237.798 41.0611 237.539 41.0398 237.128 40.997C237.214 40.6337 237.258 40.3345 237.387 40.0995C239.485 36.039 241.605 32 243.703 27.9395C243.854 27.6831 243.941 27.3839 244.114 26.9565Z" fill="black"/>
<path d="M63.9052 42.7066C63.9052 43.1127 63.8187 43.5614 63.9052 43.9461C64.0782 44.7582 63.862 45.4634 63.1698 45.9763C63.0184 46.0832 62.8238 46.1259 62.7156 46.2542C62.5642 46.4251 62.4128 46.6602 62.3912 46.8525C62.3912 46.9808 62.6724 47.1304 62.8454 47.2158C62.9752 47.2799 63.1266 47.2586 63.2564 47.3013C63.7538 47.4295 63.9485 47.7287 63.9268 48.2416C63.9052 48.6904 63.8403 49.1819 63.9701 49.6093C64.1864 50.2932 63.8836 50.6993 63.3861 51.0626C63.2996 51.1267 63.2131 51.1908 63.105 51.2122C61.764 51.5755 61.8289 52.6012 61.8721 53.6484C61.8938 54.1399 61.937 54.6742 61.764 55.1016C61.3098 56.1488 61.0935 57.1318 62.2614 58.0508C61.8505 58.1362 61.6342 58.2217 61.3963 58.2217C59.8391 58.2431 58.3034 58.2431 56.7462 58.2217C55.9243 58.2217 55.7513 58.0721 55.7296 57.4524C55.708 56.8113 55.9892 56.4693 56.7029 56.448C57.1571 56.4266 57.6329 56.5335 58.0871 56.6189C58.4765 56.683 58.8441 56.7899 59.2118 56.8967C59.493 55.8496 59.4714 55.8282 57.5464 55.4222C57.1787 54.0117 56.7678 52.5158 56.3785 51.0198C56.292 50.6779 56.292 50.2718 55.8162 50.2291C55.3836 50.1864 55.0159 50.2932 55.0592 50.8702L55.0808 50.8488C54.3022 50.7847 53.5884 50.6779 53.5019 49.6307C53.4803 49.3743 52.8747 49.1819 52.3988 48.8614C52.5502 48.7118 52.7016 48.4767 52.8963 48.3698C53.6533 48.0065 53.5884 48.0493 53.3072 47.2586C52.6584 45.4634 52.0528 43.6469 51.4688 41.8091C51.1228 40.7191 51.7067 39.7788 52.1393 38.7744C52.8963 39.6079 53.7831 40.2704 53.7398 41.4885C53.7182 42.557 53.6749 43.6256 53.7182 44.6941C53.7398 45.4421 53.8696 46.1687 54.021 46.8953C54.194 47.7928 54.2373 47.7928 55.3187 47.8142C55.362 47.8997 55.4485 48.0279 55.5134 48.1348C55.5782 48.2416 55.6215 48.3698 55.7513 48.6263C56.1406 48.3057 56.5299 48.0707 56.7245 47.7501C57.1571 47.0662 57.6978 46.7243 58.5197 46.9166C58.6927 46.3183 58.2602 46.1259 58.0006 45.8054C57.1571 44.8009 56.7894 43.6897 57.1355 42.2151C58.0223 43.0272 58.8009 42.8135 59.6877 42.4288C60.5528 42.0655 61.5045 42.1724 62.4345 42.5357C62.867 42.7066 63.3861 42.6639 63.8836 42.728C63.9268 42.728 63.9052 42.7066 63.9052 42.7066Z" fill="#E4000F"/>
<path d="M63.9268 42.7284C64.2729 42.1941 64.5757 41.6171 64.9866 41.1469C65.5057 40.5485 66.6304 40.7836 66.9115 41.5316C67.0846 42.0445 67.2792 42.5147 67.8199 42.7925C67.993 42.878 68.1011 43.2413 68.1011 43.4763C68.1011 43.8183 67.9713 44.1602 67.8632 44.6731C67.6685 44.4166 67.5604 44.3098 67.4955 44.1816C66.9548 43.3054 66.7169 43.3054 66.068 44.2243C65.0731 44.1388 64.7487 43.0703 63.9268 42.7497V42.7284Z" fill="#E4000F"/>
<path d="M55.124 50.849C55.7512 51.4688 55.7512 51.4688 55.5133 52.1099C54.8212 51.6611 54.8212 51.6397 55.1673 50.8276L55.124 50.849Z" fill="#E4000F"/>
</g>
<defs>
<clipPath id="clip0">
<rect width="255" height="58" fill="white" transform="translate(0.75 0.5)"/>
</clipPath>
</defs>
</svg>
