<svg width="151" height="60" viewBox="0 0 151 60" fill="none" xmlns="http://www.w3.org/2000/svg">
<path d="M151 14.0513C150.849 14.4841 150.698 14.9385 150.568 15.3713C149.704 18.3141 146.83 21.5598 142.423 21.6031C139.506 21.6247 136.611 21.8628 133.694 21.9926C132.549 22.0359 132.506 22.0575 132.419 23.226C132.398 23.5073 132.419 23.7886 132.419 24.1132C133.24 24.1132 134.018 24.1348 134.796 24.1132C136.265 24.0699 137.756 23.8751 139.203 23.9833C142.66 24.2646 144.734 27.1642 144.129 30.583C143.654 33.2445 141.45 35.971 138.21 36.0792C136.265 36.1441 134.342 36.2955 132.398 36.4037C132.074 36.4254 131.75 36.4254 131.274 36.447C131.188 37.1178 131.123 37.7669 131.037 38.4594C131.339 38.5026 131.534 38.5892 131.728 38.5892C134.602 38.4594 137.475 38.3295 140.327 38.1348C144.238 37.8751 147.241 40.2554 147.846 44.1502C148.537 48.5212 145.231 53.1951 140.867 53.8226C138.966 54.1039 137 54.0606 135.055 54.1688C129.675 54.4285 124.296 54.6665 118.894 54.9478C117.188 55.0343 115.524 55.0343 113.904 54.3419C112.975 53.9524 112.132 53.4547 111.376 52.4594C112.715 52.3945 113.86 52.3079 115.027 52.2646C121.314 52.0482 127.601 51.8102 133.889 51.5938C135.833 51.5289 137.777 51.4856 139.7 51.3775C143.308 51.1827 146.096 47.4176 145.21 43.9771C144.691 41.9648 143.049 40.6448 140.953 40.7098C137.799 40.7963 134.645 40.9694 131.469 41.0992C130.432 41.1425 129.416 41.0992 128.25 41.0992C128.466 38.7407 128.66 36.4037 128.876 33.9802C129.243 33.937 129.546 33.9153 129.848 33.8937C132.549 33.7639 135.228 33.6557 137.929 33.4826C139.873 33.3527 141.407 31.838 141.688 29.9339C141.969 27.9864 140.305 26.3419 138.642 26.4501C135.855 26.6448 133.046 26.7098 130.237 26.8396C130.064 26.8396 129.892 26.8396 129.567 26.8396C129.784 24.3945 130 22.0142 130.194 19.5907C130.756 19.5475 131.166 19.5042 131.598 19.4826C135.228 19.3311 138.858 19.158 142.487 19.0065C145.836 18.8767 148.623 15.7608 148.364 12.4285C148.191 10.0482 146.096 8.18734 143.697 8.29554C139.398 8.49028 135.077 8.68503 130.777 8.87977C129.675 8.92305 128.552 9.0096 127.45 9.05288C127.212 9.07452 126.975 9.03124 126.651 9.0096C126.521 8.20898 126.413 7.43 126.262 6.56447C127.623 6.47792 128.854 6.39136 130.108 6.32645C134.515 6.1317 138.944 6.04515 143.352 5.76385C146.333 5.56911 149.596 7.08379 150.633 10.8705C150.698 11.1302 150.849 11.3898 150.957 11.6495C151 12.4717 151 13.2507 151 14.0513Z" fill="#393939"/>
<path d="M61.0352 57.5876C60.8408 57.5011 60.6463 57.3929 60.4519 57.3496C56.0876 56.311 53.4733 52.7407 53.9702 48.2615C54.3591 44.7345 54.9209 41.2291 55.4178 37.702C55.4394 37.5289 55.4826 37.3558 55.5474 37.0745C56.3252 37.0096 57.0814 36.9447 58.0321 36.8798C57.9024 37.8535 57.816 38.6974 57.6864 39.5196C57.2759 42.549 56.9302 45.5784 56.4549 48.5861C56.0011 51.3774 58.2049 54.6448 61.6618 54.9261C63.8655 55.0992 65.8748 54.5583 67.56 53.0869C68.7699 52.0266 69.5477 50.7283 69.7206 49.1271C70.0014 46.5305 70.2391 43.9122 70.4984 41.3156C70.52 41.0343 70.5632 40.7747 70.628 40.2986C71.0385 40.7097 71.3194 40.991 71.6002 41.3156C74.6682 44.6912 77.7362 48.0668 80.8041 51.464C82.2949 53.1085 84.1746 53.8009 86.3351 53.4547C90.4833 52.8056 92.2118 47.872 89.4895 44.4748C88.6037 43.3929 87.6314 42.3759 86.7024 41.3373C85.6869 40.1904 84.6499 39.0436 83.5696 37.8318C83.9585 37.5073 84.261 37.2692 84.5635 37.0312C87.8259 34.413 90.1809 31.1889 91.1315 27.056C91.8661 23.9184 91.6716 20.8241 90.2025 17.9246C88.1284 13.77 84.6931 11.5629 80.0695 11.3898C78.0602 11.3032 76.0509 11.5196 74.0416 11.5845C73.3719 11.6062 72.6805 11.6495 71.9243 11.6711C71.8379 10.8272 71.7515 10.0482 71.6434 9.18269C72.7237 9.09613 73.7608 8.98794 74.7762 8.9663C76.9368 8.90139 79.0973 8.72828 81.2362 8.90139C87.7395 9.46399 92.9248 14.549 93.8106 21.0189C94.6748 27.2291 92.6223 32.4655 88.4524 36.988C88.1284 37.3342 87.8043 37.6587 87.4802 37.9833C87.4586 38.005 87.4586 38.0482 87.3722 38.1997C87.8907 38.7839 88.474 39.4114 89.0358 40.0606C90.008 41.2074 91.0667 42.311 91.9093 43.5444C93.9834 46.6603 93.6593 50.8581 91.2827 53.5629C88.2364 56.9818 82.3813 56.9601 79.1621 53.4547C77.2608 51.3991 75.4028 49.3002 73.5231 47.2012C73.2855 46.9416 73.0478 46.6819 72.6589 46.2708C72.5725 46.8118 72.5077 47.1796 72.4428 47.5475C72.3564 48.2182 72.2916 48.9107 72.162 49.5815C71.4058 53.8009 68.7915 56.2677 64.7081 57.2847C64.4056 57.3713 64.1032 57.4795 63.8223 57.5876C62.8933 57.5876 61.9642 57.5876 61.0352 57.5876Z" fill="#393939"/>
<path d="M15.6207 21.3867C16.701 22.3388 17.6948 23.2043 18.8831 24.243C18.9911 24.0482 19.1208 23.7886 19.2936 23.5938C21.8646 20.5645 26.0345 19.4393 29.6426 20.7376C33.3803 22.0791 35.7137 25.5196 35.8217 29.6309C35.9297 33.9153 33.6828 37.2693 30.2259 38.7839C26.6394 40.3419 22.1887 39.3465 19.5313 36.4686C19.3152 36.2306 19.1208 35.9926 18.7535 35.5815C18.6454 36.1441 18.559 36.5552 18.5158 36.9447C18.2133 39.736 17.9973 42.5274 17.6084 45.2971C17.4139 46.7036 17.0034 48.0884 16.5929 49.4733C15.4478 53.3033 11.6453 55.5104 7.75633 55.3156C2.65746 55.0127 -0.691373 50.7067 0.129632 45.6433C0.864214 40.9261 1.46916 36.209 2.13893 31.4702C2.24696 30.6479 2.35499 29.8257 2.46301 29.0251C2.91673 25.9308 4.53713 23.5722 7.12977 21.8628C7.34583 21.7329 7.54028 21.5815 7.73472 21.43C7.75633 21.4084 7.75633 21.3651 7.84275 21.1054C7.77794 21.0838 7.58349 21.0405 7.45386 20.9107C4.08342 18.0977 3.54328 12.0822 7.92917 8.53355C9.83045 6.99723 12.0126 6.32644 14.4756 6.67265C17.4355 7.10542 19.5961 9.20434 19.985 12.1904C20.4603 15.6958 19.2072 18.5305 16.4849 20.7376C16.2256 20.954 15.9448 21.1487 15.6207 21.3867ZM2.54943 46.7468C2.44141 49.7762 4.32107 52.1997 6.97854 52.6325C10.3922 53.1951 13.1577 51.702 14.4108 48.2399C14.8213 47.0714 15.0157 45.8164 15.1454 44.5614C15.7935 39.1085 16.3769 33.6557 16.9818 28.2028C17.1763 26.4068 16.4201 25.0652 14.8861 24.1564C12.2502 22.5985 8.8582 23.1394 6.8489 25.4547C5.76864 26.7097 5.14208 28.1595 4.90442 29.804C4.4291 33.1796 3.93218 36.5336 3.45686 39.9091C3.11117 42.3543 2.8087 44.7778 2.54943 46.7468ZM26.4666 22.8148C22.7289 22.7932 19.6609 25.9524 19.6177 29.8473C19.5745 33.6557 22.7505 36.9447 26.5098 36.988C30.2043 37.0312 33.4235 33.7638 33.4019 29.8473C33.3803 25.8875 30.3556 22.8365 26.4666 22.8148ZM11.7533 19.6773C14.8429 19.6773 17.8244 16.5397 17.6732 13.4671C17.5004 9.87513 14.0867 8.14406 11.3644 9.31253C8.92302 10.3728 7.58349 12.2337 7.34583 14.8303C7.10817 17.5351 9.11747 19.6989 11.7533 19.6773Z" fill="#393939"/>
<path d="M105.715 17.9679C105.672 18.6819 105.607 19.2878 105.564 19.9802C106.277 19.9802 106.903 20.0019 107.552 19.9802C109.194 19.9369 110.857 19.7855 112.499 19.8504C115.481 19.9802 118.16 22.6201 117.252 26.8396C116.647 29.7175 114.487 31.6216 111.549 31.8813C109.734 32.0544 107.897 32.0544 106.061 32.141C105.607 32.1626 105.132 32.2059 104.613 32.2492C104.462 32.9199 104.311 33.5258 104.138 34.3264C104.613 34.3264 105.002 34.3481 105.369 34.3264C108.243 34.2399 111.116 34.1966 113.99 34.0235C117.706 33.7855 120.752 36.5119 121.141 40.4284C121.595 44.8643 117.944 49.3867 113.558 49.7329C112.024 49.8411 110.468 49.9277 108.934 49.9926C104.743 50.209 100.53 50.4037 96.3384 50.5985C96.1223 50.5985 95.9279 50.5985 95.647 50.5985C95.4526 49.6897 95.7982 48.889 95.9063 48.0235C96.2087 47.9802 96.4896 47.9369 96.7705 47.9369C101.048 47.7638 105.326 47.5907 109.582 47.4176C110.706 47.3744 111.808 47.3094 112.91 47.2229C115.891 47.0065 118.441 44.4532 118.678 41.4671C118.894 38.719 116.712 36.4254 113.925 36.5335C110.663 36.6634 107.4 36.8365 104.116 36.9879C103.339 37.0312 102.539 36.9879 101.632 36.9879C101.567 34.651 101.999 32.3573 102.107 29.9339C102.518 29.8906 102.885 29.8257 103.252 29.804C105.845 29.6526 108.416 29.5227 111.008 29.3713C113.061 29.2414 114.638 27.77 114.941 25.736C115.221 23.94 113.796 22.3172 111.916 22.3388C110.274 22.3604 108.61 22.4903 106.968 22.5335C105.65 22.5768 104.332 22.5335 102.863 22.5335C103.058 20.2399 103.23 17.9679 103.425 15.6093C104.03 15.5444 104.613 15.4145 105.218 15.3929C108.589 15.2198 111.959 15.0683 115.33 14.8952C118.678 14.7221 121.055 12.6665 121.573 9.44235C122.049 6.54281 119.694 3.96785 116.799 4.1626C114.076 4.3357 111.333 4.40062 108.61 4.53045C104.419 4.72519 100.206 4.94158 96.0143 5.15796C95.6254 5.1796 95.2365 5.26615 94.8476 5.35271C92.7735 5.78547 91.7364 6.86739 91.4556 8.98795C91.3691 9.55054 91.3043 10.1131 91.2179 10.8488C90.4617 10.243 89.7703 9.78856 89.2086 9.22597C88.9925 9.00958 88.9277 8.5119 88.9925 8.16569C89.5111 5.1796 92.1253 2.8643 95.2365 2.69119C100.227 2.40989 105.218 2.21515 110.209 1.95549C112.478 1.8473 114.725 1.67419 116.993 1.58764C120.709 1.47944 123.583 4.05441 124.08 7.73292C124.706 12.277 121.163 17.3403 115.848 17.4485C112.802 17.5135 109.755 17.7082 106.687 17.8597C106.385 17.8813 106.104 17.9246 105.715 17.9679Z" fill="#393939"/>
<path d="M34.8063 21.1704C34.0933 20.6294 33.4451 20.1966 32.8618 19.6773C32.6889 19.5258 32.6025 19.158 32.6457 18.92C33.0562 16.107 33.4451 13.3156 33.9204 10.5027C34.2661 8.46866 35.5192 7.10544 37.2909 6.13172C38.8465 5.26618 40.5749 5.11472 42.3033 5.02816C48.5905 4.74686 54.856 4.44393 61.1432 4.18427C62.029 4.14099 62.9581 4.09771 63.8223 4.22754C66.8038 4.72523 68.9428 7.12708 69.3965 10.3079C69.9582 14.4192 67.0199 18.7901 62.9797 19.6773C61.4457 20.0019 59.8469 20.0019 58.2697 20.1101C56.1092 20.2399 53.9702 20.3265 51.8097 20.4563C51.356 20.4779 50.8807 20.5428 50.3405 20.5861C50.2541 21.2569 50.1677 21.8844 50.0597 22.6418C51.1183 22.7932 52.1122 22.6201 53.106 22.5768C54.6184 22.4903 56.1308 22.3172 57.6215 22.447C61.3377 22.75 63.3686 25.6062 62.5908 29.2415C61.921 32.3141 59.7389 34.2832 56.6061 34.5212C54.2727 34.6943 51.9393 34.7809 49.6059 34.9107C48.4176 34.9756 48.4392 34.9756 48.288 36.1008C47.8775 39.3466 47.4886 42.5923 47.0133 45.8164C46.4083 49.9493 43.7293 52.5676 39.6027 53.2384C38.2415 53.4548 36.8804 53.4764 35.5408 53.1735C31.976 52.3728 28.9296 49.9493 29.016 44.7994C29.0376 43.9339 29.1889 43.09 29.2753 42.2245C29.3185 41.7701 29.5345 41.532 29.9667 41.3806C30.5716 41.1858 31.1766 40.9478 31.9543 40.6449C31.8895 41.3156 31.8463 41.835 31.8031 42.3543C31.7167 43.2198 31.5438 44.0637 31.5222 44.9076C31.4574 47.8937 33.121 49.9926 36.0162 50.6201C37.5501 50.9447 39.0841 50.8798 40.5749 50.3172C42.757 49.4949 44.2046 48.0452 44.5287 45.6433C44.9392 42.549 45.3497 39.4548 45.7386 36.3605C45.8898 35.3002 46.0627 34.2399 46.1707 33.158C46.2355 32.5305 46.538 32.4007 47.0781 32.379C48.9146 32.3357 50.751 32.2708 52.5659 32.1843C53.9702 32.1194 55.3746 32.0544 56.7573 31.9246C58.9611 31.7082 60.6247 29.2631 60.0845 27.1209C59.7605 25.8226 58.9179 25.022 57.5783 25.0436C54.9857 25.0653 52.4146 25.2384 49.822 25.3249C49.001 25.3466 48.18 25.3249 47.2077 25.3249C47.4886 22.9447 47.7695 20.5861 48.072 18.1194C49.2819 18.0544 50.3837 17.9895 51.4856 17.9246C54.9209 17.7299 58.3777 17.6433 61.813 17.2755C65.2266 16.9076 67.668 13.0343 66.6958 9.83187C66.1124 7.9277 64.4272 6.60776 62.4179 6.67268C58.4425 6.82414 54.4455 7.04053 50.4702 7.21363C48.0936 7.32183 45.7386 7.38674 43.362 7.53821C42.1521 7.60312 40.9206 7.66804 39.7323 7.94934C37.6366 8.44702 36.4267 9.74532 36.1674 11.9957C35.8433 14.852 35.368 17.6866 34.9359 20.5212C34.8927 20.716 34.8495 20.8674 34.8063 21.1704Z" fill="#393939"/>
<path d="M71.3194 33.2012C71.449 31.5134 71.5354 30.0204 71.6651 28.5273C71.9243 25.6711 72.2052 22.8148 72.4645 19.9586C72.5725 18.7684 72.6805 18.617 73.8904 18.5737C74.6466 18.5521 75.4028 18.5304 76.1374 18.6386C79.1621 19.1363 81.193 21.4949 81.1714 24.6973C81.1498 28.8952 78.2763 31.838 75.4892 32.6386C74.8627 32.8117 74.2361 32.9199 73.5879 33.0065C72.9182 33.093 72.2052 33.1147 71.3194 33.2012ZM74.9707 21.1054C74.6034 22.4902 74.0849 29.4361 74.2577 30.3449C76.2886 29.8256 78.0819 27.9431 78.6004 25.8658C79.1405 23.6154 78.0386 21.3218 74.9707 21.1054Z" fill="#393939"/>
</svg>
