<svg width="280" height="279" viewBox="0 0 280 279" fill="none" xmlns="http://www.w3.org/2000/svg">
<path d="M95.3448 86.5861L112.241 49.9072H146.034L193.103 60.7305L208.793 86.5861V132.886L222.672 155.735L229.31 186.401V210.452L196.121 245.929L66.9828 232.7L60.3448 210.452L54.3103 170.767L95.3448 86.5861Z" fill="white"/>
<path d="M106.027 55.5851C106.259 55.2658 106.375 54.9109 106.337 54.5206C106.259 53.2077 106.646 51.9658 106.994 50.6883C107.033 50.4754 107.071 50.298 107.071 50.0851C107.187 44.5851 107.497 39.1205 107.574 33.6205C107.652 29.0076 107.845 24.3592 108 19.7463C108.038 19.0721 108.386 18.5043 108.696 17.9366C109.005 17.3333 109.392 16.7301 109.546 16.0914C109.778 15.0269 110.9 14.743 111.635 14.1398C114.032 12.2236 117.048 11.2301 119.678 9.70428C121.534 8.60427 123.622 7.6462 125.788 7.00749C126.6 6.7591 127.219 6.12039 128.069 5.872C129.771 5.33974 131.356 4.66554 133.058 4.13328C135.03 3.53005 137.041 3.03328 138.936 2.25263C140.057 1.82682 141.333 1.68488 142.532 1.40101C145.239 0.762299 148.062 0.584879 150.808 0.265523C152.741 0.0171343 154.675 -0.0893178 156.531 0.0881023C160.05 0.407459 163.607 0.442943 167.126 1.11714C169.833 1.6494 172.424 2.35908 175.015 3.28167C176.407 3.77844 177.529 4.55909 178.843 5.09135C180.197 5.6591 181.164 6.65265 182.053 7.78814C182.788 8.71072 183.755 9.52686 184.489 10.4849C185.649 12.0462 186.81 13.6075 187.235 15.5237C187.428 16.3753 187.776 17.1914 187.97 18.043C188.588 20.7398 188.279 23.4721 188.24 26.1689C188.202 27.8011 188.124 29.4334 188.202 31.0302C188.395 36.5657 188.202 42.0657 188.356 47.6012C188.395 49.3754 189.516 50.6883 190.909 51.6819C192.378 52.7819 194.157 53.2432 196.129 53.3496C197.715 53.4561 199.377 53.7755 200.963 54.2013C202.51 54.6271 204.288 54.5561 205.951 54.5561C212.177 54.5916 218.364 54.5916 224.59 54.6271C225.982 54.6271 227.375 54.769 228.767 55.1593C229.85 55.4787 231.048 55.4077 232.17 55.6206C234.993 56.0819 237.816 56.5077 240.561 57.2884C241.992 57.7142 243.539 57.7852 244.892 58.4239C246.052 58.9916 247.367 59.2045 248.373 60.0561C248.411 60.0916 248.489 60.1271 248.527 60.1626C250.577 60.7303 252.162 62.0787 253.98 63.0368C255.295 63.7465 256.609 64.5981 257.692 65.7336C258.156 66.1949 258.968 66.5497 259.626 66.9755C260.592 67.5787 261.366 68.3594 262.139 69.1046C262.758 69.7078 263.338 70.382 263.918 71.0207C264.575 71.7304 265.194 72.4755 265.581 73.3272C266.857 75.9885 268.868 78.3659 268.868 81.453C268.868 82.8014 269.564 84.0788 269.835 85.4272C270.183 87.3434 270.415 89.224 269.796 91.1047C269.757 91.1756 269.68 91.2821 269.68 91.353C269.796 93.1982 268.79 94.9014 268.752 96.7111C268.752 97.5628 268.249 98.2369 267.978 98.9821C266.857 102.034 265.503 104.979 264.266 107.96C263.647 109.414 262.603 110.727 262.41 112.324C262.371 112.537 262.217 112.608 262.062 112.75C260.631 114.205 259.2 115.589 257.46 116.724C256.996 117.008 256.493 116.937 256.029 117.185C255.333 117.576 254.908 118.214 254.212 118.605C252.046 119.847 250.035 121.337 247.754 122.437C246.594 123.005 245.55 123.75 244.351 124.282C243.539 124.637 242.688 125.347 241.837 125.879C238.821 127.689 236.037 129.782 232.788 131.202C231.048 131.947 229.579 132.976 227.955 133.863C227.452 134.111 226.756 134.111 226.176 134.147C225.828 134.182 225.596 134.182 225.518 134.573C225.325 135.318 224.32 135.247 223.856 135.815C222.889 137.092 221.767 138.298 220.414 139.256C218.828 140.427 218.21 142.273 216.779 143.515C216.47 143.798 216.238 144.153 215.774 144.331C215.116 143.798 214.729 143.089 214.188 142.486C210.824 138.547 207.266 134.821 203.167 131.485C200.112 129.002 196.941 126.624 193.577 124.495C190.793 122.721 187.815 121.266 184.837 119.776C181.048 117.895 177.026 116.511 172.927 115.269C170.181 114.453 167.397 113.779 164.574 113.389C164.187 113.353 164.033 113.176 163.917 112.856C163.762 112.466 163.762 112.04 163.762 111.65C163.685 108.776 163.646 105.937 163.607 103.063C163.607 102.601 163.259 102.14 163.569 101.679C164.613 100.26 165.038 98.5918 165.773 97.066C166.817 94.9369 167.281 92.666 167.784 90.395C168.093 88.9401 168.48 87.4853 168.673 85.995C168.789 85.2853 169.06 84.5756 170.181 84.6466C170.568 84.682 171.032 84.3982 171.419 84.2208C173.468 83.2982 175.247 81.9498 177.065 80.6724C178.573 79.6078 179.965 78.3659 180.97 76.8401C182.865 73.8949 183.948 70.7368 184.373 67.3304C184.683 64.882 183.6 63.0368 181.782 61.4755C180.274 60.1626 178.379 60.3755 176.485 60.7658C176.098 60.8723 175.556 61.1206 175.286 60.8723C174.976 60.5884 175.363 60.1981 175.479 59.8432C175.905 58.6368 176.678 57.5722 177.103 56.3658C178.379 52.8174 179.385 49.1625 181.048 45.7561C182.014 43.8044 182.556 41.7109 183.213 39.6883C183.639 38.3754 183.639 37.027 182.904 35.7496C182.246 34.6141 181.318 33.727 180.236 32.9108C178.959 31.9528 177.567 31.1366 176.253 30.1431C177.799 30.4624 179.269 30.8882 180.854 30.9237C181.318 30.9237 181.821 31.1012 182.014 30.7463C182.246 30.2495 181.589 30.0721 181.28 29.8947C177.993 28.156 175.982 25.2108 173.236 22.6205C174.242 22.6205 175.015 22.6205 175.827 22.6205C176.949 22.656 177.954 22.3366 178.959 21.9108C179.462 21.6979 179.656 21.414 178.959 21.1656C178.65 21.0592 178.379 20.9172 178.07 20.8463C176.987 20.5624 175.943 20.2076 174.976 19.5334C173.816 18.7172 172.695 17.8656 171.264 17.4398C170.839 17.2979 170.8 17.014 170.916 16.6591C171.148 15.985 170.916 15.4172 170.491 14.8495C168.519 12.1172 165.425 11.3365 162.177 10.9817C159.895 10.6978 157.575 10.8752 155.293 11.3365C154.017 11.6204 152.741 11.8333 151.504 12.2236C149.415 12.8624 147.521 13.7849 145.548 14.6011C147.289 12.8978 149.415 11.6559 151.542 10.3785C150.962 10.272 150.111 10.4494 149.415 10.7333C146.244 12.0462 143.344 13.714 140.715 15.7366C138.085 17.7237 135.107 19.1075 131.975 20.243C129.926 20.9882 127.876 21.8398 125.904 22.7979C123.932 23.756 122.269 25.2108 120.181 25.956C118.789 26.4527 117.59 27.2334 116.546 28.1205C114.148 30.1786 112.137 32.556 110.436 35.1463C109.353 36.8141 108.541 38.5883 108.773 40.5399C108.889 41.7109 109.082 42.9173 109.392 44.0883C110.01 46.5367 110.281 49.0561 110.9 51.5045C111.557 54.0593 112.447 56.5787 113.413 59.0626C113.684 59.7723 113.568 59.8432 112.872 59.9497C111.48 60.1626 110.126 60.4465 109.662 62.0432C108.812 60.6594 108.812 59.2045 108.309 57.8916C107.884 56.898 107.806 55.5497 106.027 55.5851Z" fill="#EBE298"/>
<path d="M106.027 55.5852C107.806 55.5497 107.883 56.8981 108.309 57.9272C108.85 59.2401 108.812 60.6949 109.662 62.0788C110.126 60.482 111.518 60.1981 112.872 59.9852C113.529 59.8788 113.684 59.8078 113.413 59.0981C112.485 56.6143 111.596 54.1304 110.9 51.54C110.281 49.0916 110.01 46.5723 109.392 44.1239C109.082 42.9529 108.889 41.7464 108.773 40.5755C108.579 38.6238 109.353 36.8496 110.436 35.1819C112.137 32.5916 114.148 30.2141 116.546 28.1561C117.59 27.2335 118.788 26.4528 120.181 25.9915C122.269 25.2464 123.932 23.7915 125.904 22.8335C127.876 21.8754 129.925 21.0238 131.975 20.2786C135.107 19.1076 138.085 17.7592 140.714 15.7721C143.383 13.7495 146.283 12.0818 149.415 10.7689C150.111 10.485 150.962 10.3076 151.542 10.414C149.415 11.6915 147.288 12.9334 145.548 14.6366C147.52 13.8205 149.454 12.8624 151.503 12.2592C152.741 11.8689 154.017 11.656 155.293 11.3721C157.575 10.8753 159.895 10.7334 162.176 11.0173C165.425 11.4076 168.518 12.1528 170.491 14.885C170.916 15.4528 171.148 16.0205 170.916 16.6947C170.8 17.0496 170.839 17.3334 171.264 17.4754C172.656 17.9012 173.816 18.7528 174.976 19.5689C175.904 20.2431 176.948 20.5625 178.07 20.8818C178.379 20.9528 178.65 21.0947 178.959 21.2012C179.617 21.4851 179.423 21.7334 178.959 21.9464C177.954 22.3722 176.948 22.6915 175.827 22.656C175.054 22.656 174.242 22.656 173.236 22.656C175.982 25.2109 177.954 28.1915 181.28 29.9303C181.628 30.1077 182.285 30.2496 182.014 30.7819C181.821 31.1722 181.318 30.9948 180.854 30.9593C179.269 30.9238 177.799 30.4625 176.252 30.1786C177.567 31.1722 178.959 31.9883 180.235 32.9464C181.318 33.7625 182.246 34.6496 182.904 35.7851C183.638 37.0626 183.638 38.4109 183.213 39.7239C182.556 41.7819 182.014 43.84 181.048 45.7916C179.385 49.1981 178.379 52.8529 177.103 56.4013C176.678 57.6078 175.866 58.6368 175.479 59.8788C175.363 60.2336 174.976 60.624 175.286 60.9078C175.556 61.1562 176.059 60.8723 176.484 60.8014C178.341 60.3756 180.235 60.1981 181.782 61.5111C183.6 63.0723 184.683 64.9175 184.373 67.3659C183.948 70.7724 182.865 73.9305 180.97 76.8756C180.003 78.4015 178.573 79.6434 177.064 80.7079C175.286 81.9853 173.507 83.3337 171.419 84.2563C171.032 84.4337 170.568 84.7176 170.181 84.6821C169.06 84.6112 168.789 85.3563 168.673 86.0305C168.48 87.5208 168.093 88.9757 167.784 90.4305C167.281 92.7015 166.817 94.9725 165.773 97.1015C165.038 98.6274 164.613 100.295 163.569 101.714C163.221 102.176 163.569 102.637 163.607 103.098C163.646 105.973 163.723 108.811 163.762 111.685C163.762 112.111 163.762 112.502 163.917 112.892C164.033 113.211 164.226 113.353 164.574 113.424C167.436 113.779 170.22 114.489 172.927 115.305C177.026 116.511 181.048 117.895 184.837 119.811C187.815 121.302 190.792 122.756 193.577 124.531C196.941 126.66 200.112 129.002 203.167 131.521C207.266 134.857 210.824 138.582 214.188 142.521C214.729 143.124 215.077 143.869 215.773 144.366C217.32 146.744 219.022 149.05 220.452 151.463C222.579 155.047 224.32 158.737 225.789 162.57C226.794 165.16 227.645 167.786 228.303 170.447C228.921 172.753 229.308 175.095 229.695 177.473C230.313 181.412 230.468 185.386 230.429 189.36C230.429 190.176 230.429 191.028 230.429 191.844C230.12 193.618 230.004 195.392 229.695 197.167C229.115 200.502 228.535 203.838 227.374 207.067C226.91 208.379 226.524 209.763 226.021 211.076C224.474 214.944 222.618 218.67 220.336 222.254C218.442 225.27 216.353 228.18 213.995 230.876C211.558 233.68 208.774 236.234 205.835 238.576C203.128 240.741 200.383 242.87 197.328 244.644C192.765 247.305 188.047 249.612 182.942 251.351C180.506 252.167 178.031 252.912 175.518 253.515C173.507 254.012 171.419 254.367 169.369 254.722C167.049 255.112 164.69 255.325 162.331 255.609C160.823 255.786 159.238 255.751 157.691 255.715C156.84 255.715 156.337 255.999 156.144 256.744C155.061 258.093 154.172 259.547 153.128 260.931C149.802 265.331 146.476 269.767 143.615 274.451C143.073 275.373 142.571 276.296 141.913 277.148C141.024 278.319 139.052 278.922 137.814 278.141C136.731 277.467 135.494 277.325 134.334 277.006C132.284 276.438 130.235 275.941 128.185 275.409C125.053 274.628 121.998 273.493 118.904 272.606C116.7 271.967 114.496 271.328 112.292 270.654C110.049 269.944 107.767 269.412 105.525 268.773C102.392 267.886 99.2986 266.928 96.1663 266.041C93.1114 265.154 90.0178 264.338 86.9628 263.451C84.9133 262.847 82.9025 262.173 80.8529 261.499C80.3502 261.322 79.7702 261.322 79.3061 261.073C79.0354 260.896 78.8808 260.754 78.8808 260.47C78.8808 260.115 79.1128 260.009 79.4608 260.009C79.7315 260.009 80.0022 260.009 80.1955 259.796C80.3889 259.583 80.9303 259.76 80.9689 259.37C81.0076 258.909 80.5049 258.98 80.2342 258.802C79.4995 258.376 79.5381 257.915 80.2729 257.489C80.9689 257.099 81.665 256.673 82.3611 256.283C82.1677 255.999 81.9357 255.893 81.6263 255.928C81.549 255.68 81.3943 255.502 81.085 255.36C80.2729 255.006 79.5768 254.509 78.9968 253.87C78.6874 253.551 78.0687 253.338 78.262 252.841C78.4554 252.309 79.0741 252.664 79.4608 252.522C79.6155 252.451 79.8088 252.486 79.9248 252.415C80.3115 252.025 81.317 252.344 81.2783 251.67C81.2396 251.102 80.5822 250.676 80.0022 250.357C79.2675 249.931 78.6101 249.435 78.1073 248.796C77.6433 248.228 77.7593 247.838 78.494 247.625C78.6874 247.554 78.9194 247.518 79.1514 247.447C81.9744 246.489 84.5653 245.035 87.3495 243.97C91.2166 242.515 94.9289 240.741 98.8346 239.357C102.702 237.973 106.337 236.128 110.242 234.815C110.436 234.744 110.59 234.638 110.59 234.46C110.552 234.212 110.32 234.247 110.165 234.212C108.463 233.999 106.801 233.502 105.138 233.147C102.74 232.651 100.42 231.941 98.2545 230.947C96.7077 230.238 95.0836 229.563 94.5035 227.825C93.8848 225.98 93.4981 224.099 93.3434 222.218C93.1501 219.592 93.1887 216.967 93.1887 214.341C93.1887 213.099 93.2274 213.099 91.8739 213.276C91.7579 213.276 91.6033 213.312 91.4872 213.347C88.935 213.88 86.3441 214.163 83.7532 213.915C82.3997 213.773 81.0076 213.596 79.6928 212.992C77.2179 211.892 75.2844 210.225 73.3896 208.415C70.6053 205.718 68.7878 202.525 67.2023 199.189C66.1969 197.06 65.8489 194.683 65.4235 192.376C64.9595 189.928 64.8435 187.444 64.7274 184.995C64.4954 179.779 64.4181 174.563 65.3075 169.383C65.8489 166.295 66.5449 163.279 67.2797 160.263C68.1691 156.537 69.5612 152.918 70.9147 149.334C71.7654 146.992 72.8095 144.721 73.8536 142.45C76.6379 136.382 79.9248 130.528 83.4438 124.815C85.9187 120.769 88.3936 116.689 90.7525 112.573C92.9567 108.705 95.4316 104.979 97.3265 100.969C98.0225 99.5145 99.0279 98.2015 100.613 97.4209C101.735 96.8886 101.967 96.6757 101.619 95.5402C101.116 93.908 100.884 92.2047 100.652 90.5015C100.227 87.5563 100.072 84.5757 99.84 81.595C99.6853 79.7144 99.8787 77.8337 99.376 75.953C99.4146 73.2917 99.3373 70.6659 99.492 68.0046C99.608 65.9466 99.6853 63.853 100.575 61.9014C101.039 60.9078 101.967 60.3756 103.088 60.6949C104.016 60.9788 104.055 60.624 104.094 59.9143C104.094 58.8852 103.9 57.8207 104.403 56.7917C104.712 55.9755 105.215 55.5852 106.027 55.5852ZM176.639 67.4014C176.794 67.4014 176.948 67.4014 177.103 67.3659C177.567 67.2949 177.993 67.4369 178.147 67.8272C178.263 68.1466 177.838 68.324 177.567 68.5014C176.794 69.0691 176.02 69.6724 175.247 70.2756C174.706 70.6659 174.59 71.0917 174.86 71.7305C175.286 72.6885 175.518 73.6821 175.518 74.7466C175.518 75.6337 174.744 76.3434 173.855 76.2724C172.888 76.2014 172.849 75.5272 172.772 74.8176C172.733 74.3563 172.927 73.895 172.617 73.3627C171.767 74.4982 170.761 75.4918 170.259 76.6627C169.872 77.5498 169.794 78.6144 169.756 79.6079C169.678 80.8144 169.408 81.9853 169.137 83.1563C169.098 83.2982 168.982 83.4402 169.137 83.5466C169.33 83.6886 169.524 83.6176 169.717 83.4402C170.259 83.0144 170.839 82.5886 171.38 82.1628C173.391 80.6015 175.402 79.0047 176.678 76.8756C178.495 73.8595 179.617 70.6304 179.887 67.1885C179.926 67.1885 179.965 67.224 180.003 67.224C180.003 67.1175 180.003 67.082 179.887 67.1175C180.274 66.4788 180.119 65.8401 180.003 65.2014C179.849 64.3498 179.462 63.6046 178.959 62.9304C178.379 62.1143 177.567 61.7949 176.562 62.1498C175.518 62.5046 174.474 62.9659 174.048 63.924C173.081 65.982 172.269 68.1111 171.419 70.2046C171.303 70.524 171.187 70.9498 171.535 71.4821C172.849 69.6014 174.822 68.5724 176.639 67.4014ZM103.668 65.9466C103.552 64.882 104.055 63.782 103.282 62.824C103.011 62.4691 103.05 61.6885 102.431 61.7949C101.928 61.9014 101.89 62.6111 101.812 63.0723C101.309 65.8756 100.807 68.6788 101.039 71.553C100.923 72.8659 101.039 74.2143 101.155 75.5272C101.58 79.2176 101.619 82.9079 102.006 86.5983C102.47 90.7499 102.818 94.8661 104.055 98.9112C104.171 99.3016 104.287 99.6564 104.79 99.7628C104.867 100.331 104.944 100.863 105.679 101.076C108.386 101.856 111.209 102.14 114.032 102.46C115.424 102.637 115.424 102.566 115.347 101.253C115.231 99.6564 114.999 98.0951 114.921 96.4983C114.805 94.0144 115.153 91.6015 115.54 89.1176C115.966 86.5983 116.623 84.1144 117.396 81.7015C117.822 80.3886 118.479 79.1466 118.324 77.7273C118.324 77.5498 118.363 77.3369 118.131 77.3014C117.938 77.266 117.783 77.3724 117.667 77.5144C117.087 78.295 116.507 79.0047 116.004 79.8208C115.153 81.2047 114.496 82.6595 113.336 83.866C112.988 84.2208 112.601 84.4337 112.098 84.3273C111.634 84.2208 111.441 83.866 111.364 83.4402C110.977 81.8079 111.518 80.2466 111.673 78.6498C111.982 75.8821 112.485 73.1498 113.336 70.453C113.955 68.4659 114.535 66.4788 115.153 64.4917C115.231 64.2788 115.347 64.0659 115.153 63.924C114.883 63.7465 114.728 63.9594 114.535 64.1369C113.336 65.3788 112.253 66.6917 111.789 68.324C111.402 69.6369 111.016 70.9853 110.745 72.3337C110.436 73.6466 109.817 74.8885 109.894 76.2724C109.933 77.8692 109.856 79.466 109.972 81.0628C110.01 81.8079 109.546 82.1982 109.082 82.5531C108.773 82.8015 108.386 82.7305 108.386 82.2337C108.386 80.0692 108.347 77.8692 108.077 75.7047C107.845 73.824 108.309 71.9434 108.347 70.0627C108.463 66.4433 108.309 62.8949 107.497 59.3465C107.381 58.8143 107.265 58.211 106.839 57.7143C106.685 57.5368 106.53 57.4304 106.298 57.4659C105.989 57.5014 105.989 57.7497 105.95 57.9272C105.795 59.5594 105.602 61.1917 105.602 62.824C105.641 67.5079 105.602 72.1917 105.873 76.8756C105.95 78.4015 105.718 80.0337 105.679 81.595C105.641 82.0918 105.37 82.2692 104.906 82.2692C104.403 82.0208 104.442 81.595 104.442 81.2047C104.558 78.224 104.094 75.2434 104.132 72.2627C104.132 70.4885 104.094 68.7143 104.055 66.9401C104.016 66.6208 104.132 66.1949 103.668 65.9466ZM134.489 130.598C134.257 129.534 133.986 128.505 133.831 127.44C133.522 125.347 133.328 123.218 132.942 121.16C132.826 120.556 132.864 119.847 132.478 119.137C131.782 120.947 131.163 122.65 130.506 124.318C130.235 124.992 130.428 125.702 130.235 126.376C129.693 128.54 129.732 130.74 129.964 132.94C129.809 135.211 130.196 137.447 130.622 139.682C131.047 141.953 131.666 144.153 132.439 146.318C133.29 148.695 134.295 151.002 135.417 153.273C136.267 154.941 136.925 156.715 138.124 158.205C138.742 158.986 138.781 159.021 139.284 158.099C139.593 157.531 139.864 156.928 140.25 156.431C142.3 153.734 144.349 151.037 146.399 148.34C147.327 147.099 148.216 145.821 149.493 144.863C149.725 144.686 149.918 144.437 149.841 144.189C149.725 143.94 149.377 144.082 149.145 144.082C148.178 143.976 147.25 144.011 146.283 143.799C144.504 143.408 142.919 142.628 141.372 141.811C139.361 140.711 137.311 139.505 136.383 137.376C135.378 135.176 134.991 132.869 134.489 130.598ZM133.444 242.338C133.058 242.444 132.787 242.693 132.478 242.87C130.08 244.431 128.263 246.489 126.561 248.618C123.236 252.735 120.297 257.064 117.822 261.677C117.358 262.528 117.01 263.415 116.816 264.622C118.363 263.096 119.717 261.783 121.07 260.47C122.81 258.767 124.55 257.028 126.368 255.396C127.992 253.976 129.732 252.664 131.395 251.315C133.212 249.825 135.03 248.299 137.157 247.128C137.776 246.809 138.394 246.56 139.129 246.525C139.516 246.525 139.786 246.702 139.902 246.951C140.018 247.199 139.709 247.376 139.554 247.518C138.974 247.98 138.356 248.37 137.776 248.831C135.107 250.96 132.555 253.16 129.809 255.147C126.832 257.276 125.362 260.151 124.241 263.309C124.164 263.522 124.048 263.806 124.318 263.947C124.473 264.018 124.744 263.877 124.937 263.77C127.605 261.889 130.467 260.222 133.096 258.306C136.113 256.106 139.013 253.799 142.377 252.06C143.383 251.528 144.388 250.925 145.664 251.031C146.283 251.102 146.399 251.386 146.012 251.776C145.587 252.202 145.084 252.557 144.543 252.912C142.725 254.118 140.908 255.325 139.129 256.531C137.853 257.383 137.776 258.838 137.002 259.938C136.693 260.435 136.499 261.002 136.538 261.606C136.577 261.96 136.731 262.244 137.118 261.96C137.93 261.357 138.936 261.073 139.786 260.506C143.924 257.702 148.023 254.864 152.006 251.883C153.785 250.57 155.719 249.399 157.42 247.98C158.193 248.015 157.884 247.554 157.729 247.305C156.956 246.028 156.144 244.786 155.37 243.509C153.244 240.031 150.769 236.838 147.598 234.105C146.863 233.467 146.36 233.573 145.742 234.141C144.891 234.886 144.04 235.631 142.996 236.163C139.477 237.867 136.383 239.996 133.444 242.338ZM141.952 33.9045C141.875 33.869 141.759 33.8335 141.681 33.8335C139.129 34.0819 136.77 34.898 134.489 35.9625C129.152 38.4464 125.981 42.5981 123.352 47.3174C122.385 49.0916 121.882 51.0433 121.147 52.8884C120.838 53.7046 120.297 54.4852 120.142 55.3013C119.717 57.3239 119.059 59.2756 118.982 61.3336C118.982 61.724 118.827 62.0433 119.446 62.0433C119.949 62.0433 120.297 62.0433 120.297 61.4046C120.335 60.3401 120.529 59.2401 120.683 58.1755C120.761 57.7143 120.838 57.0401 121.495 57.0046C123.236 56.8981 124.898 56.4723 126.638 56.4013C128.804 56.2949 130.931 56.2949 133.096 56.2239C133.367 56.2239 133.715 56.3659 133.909 56.0465C135.378 55.9755 136.809 55.9755 138.278 56.0465C138.24 56.082 138.24 56.1175 138.201 56.153C138.24 56.1175 138.278 56.1175 138.317 56.082C138.356 56.5078 138.433 56.9691 138.394 57.3949C138.317 58.0691 138.742 58.1755 139.245 57.9981C140.018 57.6788 140.792 57.7143 141.604 57.6433C142.068 57.6078 142.493 57.5368 142.648 57.0401C142.919 55.9755 143.189 54.9465 143.499 53.882C143.808 52.9239 144.117 51.9658 144.504 51.0078C144.62 50.6884 144.891 50.2981 145.394 50.44C145.819 50.5465 146.244 50.6884 146.206 51.2916C146.167 52.1433 145.858 52.8884 145.78 53.7046C145.664 54.7336 145.471 55.7981 145.162 56.7917C145.007 57.2884 145.239 57.3594 145.626 57.3594C146.631 57.3949 147.675 57.2884 148.642 57.6078C149.183 57.7497 149.415 57.4659 149.029 57.0401C148.719 56.7207 148.951 56.6852 149.145 56.5433C149.531 56.2594 149.995 56.3304 150.421 56.2949C151.929 56.153 153.437 56.082 154.906 55.8691C158.039 55.3723 161.21 54.8755 164.419 54.8755C165.927 54.8755 165.966 54.8755 166.159 56.2949C166.275 57.1465 166.778 57.253 167.59 57.182C168.48 57.111 168.286 56.5433 168.286 56.082C168.248 54.8046 167.706 53.5981 167.165 52.4981C165.734 49.5884 164.574 46.5368 162.718 43.8045C161.055 41.3561 159.276 39.0142 156.685 37.3819C153.94 35.6787 150.923 34.5432 147.675 33.9045C145.819 33.5851 143.885 33.6561 141.952 33.9045ZM145.046 141.173C146.167 141.989 147.443 142.379 148.835 142.628C150.769 142.982 152.625 143.124 154.326 142.166C155.912 141.279 157.42 140.25 158.619 138.866C159.934 137.411 160.166 135.602 160.398 133.863C160.63 132.124 160.862 130.35 160.823 128.576C160.784 127.582 160.552 126.66 160.552 125.666C160.552 122.721 160.475 119.74 160.514 116.795C160.552 112.927 160.243 109.024 160.9 105.156C160.939 104.944 161.055 104.66 160.746 104.518C160.552 104.447 160.359 104.553 160.166 104.695C158.812 105.724 157.343 106.647 155.835 107.498C153.514 108.811 150.885 109.379 148.294 109.769C146.708 109.982 145.046 110.018 143.421 109.592C142.609 109.379 141.72 109.344 140.908 109.202C140.25 109.024 139.554 108.811 138.897 108.634C137.311 108.208 135.803 107.569 134.295 107.002C133.831 106.824 133.754 106.931 133.792 107.392C134.063 109.202 134.45 110.976 134.798 112.785C135.417 115.837 135.803 118.889 136.151 121.94C136.345 123.715 136.693 125.489 136.693 127.298C136.693 127.582 136.77 127.902 136.847 128.186C137.35 129.711 137.427 131.308 137.737 132.869C138.201 135.105 138.665 137.34 140.869 138.831C141.72 139.399 142.609 139.895 143.499 140.428C143.924 140.782 144.349 141.244 145.046 141.173ZM136.151 203.057C137.195 205.115 138.201 207.138 139.284 209.16C140.637 211.68 142.107 214.199 143.499 216.718C145.2 219.876 147.018 222.963 148.99 226.015C149.415 226.654 149.841 226.796 150.498 226.299C151.387 225.696 152.277 225.057 153.244 224.596C154.017 224.205 153.824 223.921 153.437 223.46C150.653 220.302 148.487 216.789 146.283 213.276C146.012 212.85 145.858 212.318 145.742 211.786C145.471 210.367 145.819 208.983 145.935 207.563C146.051 205.718 146.322 203.873 146.476 202.028C146.67 199.721 146.67 197.415 147.134 195.179C147.636 192.731 147.675 190.283 148.023 187.834C148.178 186.734 148.1 185.599 148.216 184.463C148.526 182.015 149.106 179.566 149.145 177.118C149.261 172.824 149.493 168.531 149.686 164.237C149.725 163.705 149.531 163.386 149.067 163.173C147.791 162.605 146.979 161.647 146.206 160.618C145.162 159.234 144.543 157.673 143.847 156.147C143.769 155.97 143.769 155.792 143.499 155.792C143.305 155.792 143.228 155.934 143.151 156.076C142.609 157.034 142.068 157.992 141.449 158.915C140.946 159.731 140.676 160.76 139.477 161.008C138.51 161.186 137.698 160.902 137.079 160.192C136.461 159.518 135.842 158.879 135.378 158.134C132.71 154.053 130.776 149.653 129.229 145.111C128.185 142.024 127.528 138.866 127.18 135.637C127.141 134.04 127.296 132.408 126.677 130.669C126.484 131.308 126.445 131.769 126.329 132.231C125.942 133.65 125.556 135.069 125.401 136.524C124.976 137.66 124.821 138.866 124.589 140.037C124.241 141.74 124.009 143.444 123.661 145.147C123.197 147.595 122.655 150.044 122.269 152.492C121.959 154.266 121.573 156.005 121.379 157.779C121.109 160.015 120.722 162.215 120.761 164.45C120.761 165.231 121.186 165.692 121.998 165.87C122.733 166.047 123.468 166.26 124.202 166.402C126.097 166.828 127.876 167.537 129.771 167.928C132.284 168.424 134.759 169.028 137.195 169.773C138.394 170.128 138.82 170.802 138.317 171.618C137.35 173.215 136.422 174.812 135.301 176.337C133.406 178.999 131.202 181.483 129.423 184.179C128.727 185.208 128.688 186.131 129.036 187.231C129.809 189.537 130.892 191.702 131.898 193.937C133.251 197.096 134.566 200.147 136.151 203.057ZM162.099 188.97C162.331 190.105 162.524 191.205 162.757 192.341C163.143 194.257 163.453 196.208 163.994 198.125C165.077 201.992 165.695 205.896 166.585 209.799C166.701 210.26 166.624 210.686 166.391 211.147C165.889 212.176 165.618 213.241 165.541 214.589C167.126 212.886 168.634 211.431 170.065 209.905C172.927 206.925 175.402 203.731 177.993 200.573C179.694 198.444 181.357 196.315 181.782 193.583C182.053 191.808 182.556 190.07 182.981 188.331C183.445 186.379 183.948 184.463 184.373 182.512C184.76 180.844 184.876 179.105 185.881 177.579C185.997 177.402 186.075 177.154 185.843 177.012C184.683 176.266 183.677 175.308 182.246 174.989C182.169 174.918 182.13 174.847 182.053 174.776C179.81 172.931 177.18 171.618 174.822 169.915C174.126 169.418 174.126 169.134 174.667 168.531C177.567 165.302 180.506 162.073 183.6 158.986C183.909 158.666 184.141 158.418 183.87 157.921C182.246 154.515 180.622 151.073 179.037 147.631C176.6 142.379 174.242 137.128 171.844 131.84C171.728 132.124 171.728 132.408 171.805 132.728C172.347 134.786 172.617 136.915 172.54 139.044C172.501 141.457 172.385 143.869 172.463 146.318C172.54 149.973 171.612 153.379 170.104 156.715C169.137 158.808 167.126 159.27 165.115 157.886C163.917 157.07 162.989 156.005 162.06 154.905C161.867 154.657 161.674 154.515 161.287 154.444C161.248 155.295 161.094 156.076 160.9 156.857C160.359 159.021 159.586 161.044 158.116 162.818C157.652 163.35 157.575 163.882 157.807 164.415C158.348 165.692 158.541 167.076 158.812 168.424C159.315 171.157 159.624 173.889 159.972 176.621C160.166 178.112 160.243 179.602 160.514 181.092C161.016 183.718 161.596 186.344 162.099 188.97ZM130.351 241.238C131.124 241.06 131.666 240.528 132.284 240.138C133.483 239.357 134.837 238.789 136.074 237.583C135.262 237.583 134.682 237.547 134.141 237.583C132.052 237.654 129.964 237.37 127.915 237.086C125.981 236.838 124.048 236.66 122.153 236.234C121.843 236.163 121.611 236.341 121.379 236.518C120.49 237.122 119.601 237.76 118.672 238.293C114.032 240.989 109.392 243.722 104.712 246.347C103.823 246.844 102.895 247.589 101.696 246.773C101.348 246.525 100.923 246.418 100.613 246.099C100.381 245.851 100.033 245.638 99.6853 245.851C98.7959 246.383 97.7518 246.56 96.7851 246.986C94.2715 248.122 91.7579 249.257 89.0897 250.073C88.0843 250.393 86.9628 250.605 85.9187 251.315C86.8468 251.315 87.4269 251.776 88.1616 251.776C89.5151 251.776 90.5592 252.38 91.5646 253.16C91.4099 253.302 91.2939 253.444 91.1005 253.586C88.471 255.041 85.8414 256.496 83.1345 258.022C84.3719 258.554 85.3774 259.264 86.6148 259.618C88.5483 260.151 90.5205 260.683 92.338 261.464C95.3156 262.706 98.4479 263.451 101.503 264.515C103.978 265.367 106.453 266.289 109.005 266.928C111.132 267.496 113.181 268.206 115.308 268.738C117.126 269.199 118.943 269.518 120.761 269.98C123.39 270.618 126.097 271.115 128.765 271.648C130.583 272.002 132.4 272.357 134.141 272.854C135.919 273.351 137.776 273.67 139.593 274.06C139.98 274.131 140.173 273.989 140.289 273.741C140.83 272.819 141.488 272.002 142.068 271.08C143.383 268.951 144.659 266.786 146.206 264.764C148.332 261.96 150.305 259.086 152.354 256.247C152.586 255.893 152.509 255.786 152.006 255.609C151.001 255.254 150.421 255.786 149.763 256.212C146.592 258.376 143.576 260.754 140.096 262.599C138.201 263.593 136.306 263.841 134.257 263.096C133.367 262.777 133.019 262.067 133.367 261.251C133.444 261.073 133.522 260.86 133.29 260.683C131.395 261.925 129.539 263.131 127.683 264.373C126.406 265.225 125.053 265.757 123.39 265.757C121.805 265.757 120.799 264.622 121.418 263.202C120.993 263.025 120.838 263.38 120.645 263.557C119.717 264.409 118.788 265.296 117.783 266.112C116.932 266.822 115.966 266.786 114.999 266.68C114.457 266.609 114.148 266.254 114.225 265.757C114.38 264.906 114.457 264.054 114.728 263.238C114.999 262.493 115.153 262.209 114.032 262.422C113.104 262.599 111.982 262.706 111.325 261.783C110.706 260.931 111.48 260.257 111.866 259.654C113.8 256.78 116.236 254.26 118.866 251.883C120.877 250.073 123.352 248.725 124.898 246.454C125.401 245.709 126.058 244.999 126.755 244.396C127.915 243.331 129.152 242.267 130.351 241.238ZM145.007 108.173C145.664 108.421 146.36 108.527 146.979 108.385C148.797 108.031 150.691 107.924 152.393 107.108C154.829 105.937 157.265 104.766 159.083 102.814C162.718 98.9112 164.342 94.1918 165.463 89.2951C165.85 87.5918 166.392 85.9241 166.817 84.1853C167.474 81.4886 168.016 78.7918 168.209 76.024C168.364 73.6111 168.557 71.1982 168.866 68.8208C169.292 65.8401 168.712 62.8949 168.48 59.9143C168.402 59.0627 167.629 59.1691 167.01 59.2046C166.275 59.2401 166.585 59.7723 166.624 60.0917C166.701 62.5401 167.01 64.9885 166.701 67.4369C166.585 68.2885 166.121 68.5724 165.309 68.4659C164.535 68.3595 163.762 68.2885 162.95 68.395C161.016 68.6788 159.044 68.4304 157.111 68.6788C155.254 68.9272 153.321 68.7853 151.426 68.7498C150.769 68.7498 150.111 68.4659 150.073 67.7562C149.995 66.7627 149.647 65.8046 149.725 64.8111C149.802 63.3562 149.725 61.9014 149.763 60.482C149.763 60.0207 149.647 59.8788 149.106 59.8788C147.868 59.9497 146.67 59.9852 145.432 59.9497C144.852 59.9497 144.62 60.0917 144.543 60.624C144.233 62.4691 143.808 64.3143 143.576 66.1949C143.267 68.8208 143.383 71.4466 143.421 74.0724C143.46 75.5627 143.46 77.0531 144.001 78.4724C144.311 78.3305 144.195 78.0821 144.272 77.9047C144.736 76.2724 144.775 74.5692 145.587 73.0079C145.703 72.7595 145.78 72.4756 146.051 72.4401C146.438 72.3692 146.747 72.6175 146.902 72.9014C147.172 73.3982 147.443 73.895 147.25 74.4982C147.095 74.995 147.056 75.5272 146.902 76.0595C146.515 77.4079 146.167 78.7918 145.664 80.1047C145.471 80.6369 145.162 81.3821 144.233 81.2402C143.344 81.1337 142.571 80.8498 142.261 79.9982C141.411 77.8337 141.101 75.5627 140.869 73.2917C140.637 71.1982 140.676 69.1046 141.062 66.9756C141.411 65.0595 141.527 63.1078 141.875 61.2272C142.107 60.0562 141.952 59.9143 140.637 60.0562C138.626 60.2336 138.433 60.4465 138.433 62.2562C138.433 64.3498 138.394 66.4433 138.433 68.5369C138.433 69.0692 138.278 69.2466 137.698 69.2821C136.345 69.424 134.991 69.6014 133.599 69.5659C132.555 69.5304 131.472 69.6014 130.428 69.6014C128.572 69.4595 126.716 69.353 124.86 69.1756C124.009 69.1046 123.158 68.8917 122.307 68.7498C121.805 68.6433 121.534 68.2885 121.495 67.8627C121.379 66.7627 120.954 65.7337 120.993 64.6336C121.031 64.1724 120.799 63.924 120.258 63.9594C119.987 63.9949 119.678 63.9594 119.407 63.924C118.788 63.853 118.479 64.0304 118.44 64.6691C118.286 67.8272 118.479 70.9853 118.479 74.1434C118.479 74.4627 118.518 74.7821 118.943 74.7821C119.717 74.7821 119.91 75.3498 119.949 75.8111C120.065 76.8047 120.026 77.7982 119.833 78.7918C119.562 80.1757 119.098 81.4531 119.446 82.9789C120.219 86.2079 121.147 89.366 122.617 92.3822C124.434 96.0725 126.987 99.3015 130.235 101.998C133.019 104.34 136.267 106.044 139.902 107.108C141.565 107.64 143.228 108.173 145.007 108.173ZM226.562 187.87C227.026 187.231 226.91 186.486 226.833 185.812C226.601 183.612 226.485 181.412 226.253 179.247C226.021 177.26 225.75 175.273 225.286 173.321C224.668 170.766 224.01 168.212 223.121 165.692C222.154 162.924 221.071 160.263 219.756 157.637C218.055 154.195 216.083 150.86 213.879 147.666C211.056 143.586 207.807 139.824 204.288 136.24C201.195 133.118 197.792 130.279 194.041 127.795C190.87 125.702 187.583 123.715 184.18 121.976C180.622 120.166 176.832 118.853 173.12 117.469C171.38 116.831 169.524 116.44 167.745 115.944C167.552 115.873 167.281 115.766 167.126 115.979C166.933 116.192 167.165 116.369 167.281 116.547C168.828 119.492 170.336 122.473 171.767 125.489C172.965 128.008 174.164 130.492 175.363 132.976C176.987 136.311 178.611 139.647 180.158 143.018C182.208 147.347 184.18 151.711 186.268 156.041C186.925 157.424 187.196 158.595 185.765 159.695C185.185 160.157 184.799 160.831 184.296 161.399C182.169 163.741 180.003 166.047 177.838 168.353C177.374 168.85 177.374 169.134 177.954 169.418C179.191 170.021 180.235 170.873 181.434 171.547C182.556 172.15 183.484 173.073 184.799 173.463C185.379 174.315 186.423 174.634 187.196 175.237C187.505 175.486 188.008 175.628 187.969 176.124C187.931 176.728 188.008 177.331 187.853 177.899C187.041 181.021 187.235 184.25 186.423 187.373C186.345 187.657 186.307 187.976 186.577 188.331C192.107 180.028 196.129 171.192 199.107 161.966C199.184 161.505 199.493 161.115 199.609 160.653C199.841 159.802 200.692 159.837 201.427 159.944C202.239 160.05 202.007 160.689 202.007 161.15C202.007 161.576 201.929 162.037 201.852 162.463C201.311 163.173 201.504 164.06 201.195 164.841C200.228 167.608 199.377 170.412 198.256 173.144C196.245 177.899 193.925 182.512 191.334 186.983C189.478 190.212 187.583 193.405 185.34 196.421C182.865 199.757 180.429 203.057 177.606 206.179C174.976 209.054 172.579 212.105 169.717 214.802C165.618 218.67 161.403 222.431 156.531 225.447C153.708 227.186 150.769 228.641 147.675 229.883C147.288 230.025 146.554 229.989 146.554 230.486C146.554 231.054 147.25 230.841 147.636 230.983C149.647 231.728 151.194 233.112 152.664 234.425C155.138 236.589 156.956 239.286 158.541 242.054C159.624 243.899 160.63 245.744 161.674 247.589C161.712 247.731 161.712 247.873 161.751 248.015C162.176 248.902 162.602 249.86 162.524 250.818C162.447 251.776 162.06 252.664 161.326 253.48C162.563 253.657 163.646 253.373 164.729 253.302C167.204 253.125 169.562 252.664 171.999 252.202C174.551 251.706 177.064 251.031 179.501 250.286C182.594 249.328 185.572 248.051 188.511 246.738C194.002 244.254 198.952 240.954 203.476 237.193C208.155 233.289 212.138 228.818 215.541 223.886C219.64 217.96 222.579 211.573 224.474 204.76C225.054 202.667 225.48 200.538 225.866 198.373C226.06 197.238 226.06 196.067 226.253 194.967C226.756 192.589 226.64 190.212 226.562 187.87ZM98.8346 228.747C99.9947 229.812 101.58 230.025 103.011 230.522C104.906 231.16 106.839 231.586 108.773 232.047C111.364 232.651 113.993 233.147 116.623 233.68C118.943 234.141 121.302 234.425 123.584 234.886C126.6 235.489 129.655 235.844 132.671 236.163C134.063 236.305 135.494 236.199 136.886 236.341C137.969 236.447 138.201 236.412 137.969 235.454C137.621 233.999 137.66 232.651 138.626 231.338C138.936 230.912 139.245 230.628 139.786 230.557C141.759 230.273 143.576 229.634 145.394 228.925C146.979 228.322 146.94 228.286 146.128 226.938C143.963 223.318 141.681 219.734 139.709 216.009C137.66 212.105 135.339 208.344 133.367 204.405C130.815 199.26 128.417 194.044 126.174 188.757C125.71 187.621 125.092 186.379 125.749 185.208C126.871 183.257 128.108 181.305 129.655 179.602C131.82 177.189 133.29 174.35 135.185 171.76C135.455 171.405 135.339 171.121 134.914 171.015C133.522 170.66 132.168 170.128 130.738 169.844C128.959 169.524 127.219 169.134 125.478 168.602C123.893 168.105 122.269 167.679 120.606 167.36C119.059 167.076 117.706 166.366 117.976 164.521C118.247 162.712 118.595 160.937 118.827 159.128C119.098 157.318 119.485 155.544 119.833 153.734C120.142 151.96 120.413 150.186 120.761 148.447C121.302 145.608 121.921 142.77 122.269 139.86C122.771 138.582 122.965 137.199 123.313 135.886C123.7 134.502 123.97 133.082 124.357 131.698C124.898 129.782 125.44 127.866 126.058 125.95C126.677 123.963 127.373 121.976 128.069 120.024C128.224 119.563 128.688 119.173 128.688 118.498C128.069 118.853 127.528 119.137 127.025 119.456C124.164 121.231 121.495 123.253 118.479 124.886C118.247 125.027 118.015 125.205 117.938 125.489C117.783 126.269 117.396 126.979 117.203 127.76C116.352 130.847 115.076 133.792 113.955 136.773C113.065 139.186 111.982 141.528 110.9 143.905C109.469 147.063 107.883 150.186 106.491 153.344C105.989 154.479 105.177 155.508 105.138 156.786C105.099 156.857 104.983 156.644 104.944 156.821C104.828 157.673 104.248 158.382 103.978 159.199C103.32 161.079 102.431 162.818 100.961 164.308C100.575 164.699 99.8787 164.77 99.8013 164.379C99.6853 163.847 99.376 163.315 99.492 162.747C99.9174 160.831 100.304 158.95 101 157.07C102.392 153.557 103.978 150.115 105.525 146.637C106.646 144.153 107.729 141.669 108.773 139.15C109.546 137.234 110.358 135.353 111.17 133.437C112.021 131.344 112.717 129.215 113.413 127.05C113.955 125.24 114.535 123.466 115.037 121.656C115.617 119.598 116.198 117.54 116.7 115.447C117.164 113.637 117.474 111.756 117.976 109.947C118.518 107.96 118.982 105.937 119.484 103.95C119.717 103.063 119.291 103.134 118.634 103.311C117.822 103.524 117.048 103.914 116.159 103.879C113.761 103.844 111.441 103.595 109.082 103.311C107.999 103.169 106.917 102.885 105.795 102.921C105.447 102.779 105.099 102.602 104.712 102.531C103.127 102.211 101.503 101.927 99.9947 101.36C99.376 101.111 99.26 101.36 99.144 101.75C98.3705 103.95 97.2491 106.044 96.089 108.137C94.0782 111.65 92.222 115.234 90.2111 118.711C87.8522 122.827 85.2227 126.802 82.9411 130.953C81.3943 133.721 79.8862 136.489 78.4554 139.328C76.9086 142.379 75.5938 145.537 74.3563 148.695C73.4669 151.002 72.6162 153.344 71.8814 155.686C71.3401 157.495 70.8373 159.305 70.296 161.115C69.5226 163.599 69.0972 166.153 68.5171 168.673C68.1304 170.376 67.8211 172.115 67.8211 173.818C67.8211 176.763 67.2797 179.673 67.589 182.618C67.8597 185.173 67.7437 187.728 68.0144 190.283C68.2464 192.234 68.4785 194.221 69.0198 196.102C70.1026 199.757 71.9975 203.057 74.5497 206.038C74.7817 206.321 74.9751 206.57 75.3618 206.57C75.5938 207.421 76.4059 207.883 76.9859 208.45C79.7315 211.183 83.0571 212.78 87.2335 212.496C89.9018 212.318 92.454 211.75 95.0062 211.076C97.6745 210.367 99.9947 209.125 102.238 207.67C104.596 206.144 106.027 203.908 107.845 201.957C108.27 201.496 108.657 201.07 109.121 200.679C109.662 200.218 110.474 200.147 110.977 200.502C111.557 200.928 110.822 201.354 110.59 201.744C110.165 202.383 109.662 202.986 109.198 203.625C108.889 203.66 108.773 203.873 108.618 204.05C107.922 204.867 107.265 205.754 106.453 206.463C103.475 209.196 99.9174 211.005 95.9343 212.176C95.4703 212.318 94.9676 212.46 95.2383 213.063C95.8957 214.447 96.0503 215.973 96.205 217.428C96.5144 220.692 96.8624 223.921 97.2491 227.151C97.4425 228.144 97.9065 228.534 98.8346 228.747ZM167.32 156.36C168.248 153.982 168.828 151.57 168.905 149.121C169.021 146.531 169.214 143.94 169.33 141.35C169.446 138.476 169.369 135.602 168.866 132.798C168.518 130.776 168.016 128.789 167.436 126.802C166.817 124.708 166.198 122.65 165.115 120.734C164.883 120.308 164.922 119.527 164.342 119.563C164.071 119.563 164.187 120.486 164.187 120.982C164.265 124.46 163.994 127.937 163.917 131.415C163.878 132.869 163.801 134.395 163.414 135.779C162.718 138.157 161.248 140.215 159.121 141.847C157.845 142.805 156.337 143.266 154.713 143.763C158.193 145.431 160.668 147.595 167.32 156.36ZM132.13 114.524C132.052 114.276 131.975 113.885 131.898 113.531C131.472 111.047 131.086 108.598 130.622 106.114C130.506 105.476 130.39 104.766 129.771 104.234C127.567 102.282 125.672 100.082 123.854 97.8112C123.7 97.5983 123.584 97.3499 123.274 97.5273C122.462 97.9886 121.534 98.1661 120.606 98.4144C119.91 98.5919 120.026 98.9112 120.49 99.2306C121.07 99.5854 121.611 100.011 122.23 100.295C122.849 100.579 122.926 101.005 123.042 101.573C123.197 102.46 122.578 103.063 122.462 103.844C122.153 105.831 121.882 107.782 121.573 109.769C121.302 111.508 120.954 113.247 120.606 114.95C120.451 115.766 120.335 116.618 120.103 117.434C119.601 118.96 119.252 120.556 118.866 122.118C118.827 122.295 118.672 122.579 118.943 122.686C119.136 122.792 119.368 122.615 119.523 122.508C120.065 122.082 120.606 121.692 121.147 121.266C124.318 118.889 127.721 116.902 131.472 115.447C131.82 115.34 132.207 115.127 132.13 114.524ZM119.717 235.915C117.512 235.525 115.308 235.134 113.065 234.78C111.905 234.602 111.016 235.312 110.049 235.667C106.685 237.015 103.475 238.612 100.033 239.889C96.205 241.309 92.5313 243.047 88.7417 244.502C87.0788 245.141 85.416 245.815 83.7919 246.56C82.5544 247.128 81.201 247.376 79.9635 247.873C79.1901 248.157 79.2288 248.37 79.7315 248.867C80.6983 249.754 82.013 250.251 82.8251 251.315C83.0185 251.564 83.4052 251.457 83.6372 251.351C84.0626 251.209 83.5985 251.031 83.5985 250.889C83.5212 250.393 83.8692 250.18 84.2946 250.073C84.6426 249.967 84.9906 250.002 85.3387 249.896C89.3991 248.476 93.2661 246.631 97.3265 245.247C99.9174 244.36 102.276 243.012 104.79 241.983C106.878 241.131 108.85 240.102 111.016 239.393C113.993 238.399 116.7 236.873 119.717 235.915ZM132.671 68.3595C133.483 68.3595 134.643 68.3595 135.765 68.3595C136.19 68.3595 136.577 68.2175 136.422 67.7208C135.881 65.9111 135.765 64.1014 135.803 62.2562C135.803 61.0498 135.61 59.8078 136.035 58.6014C136.306 57.8207 135.881 57.6788 135.107 57.7143C131.279 57.8207 127.489 57.7497 123.661 58.1401C123.003 58.211 122.926 58.3885 122.926 58.9562C123.042 61.7949 123.506 64.6691 123.313 67.5079C123.274 67.9337 123.468 68.182 123.97 68.1466C126.793 67.9691 129.577 68.6433 132.671 68.3595ZM152.432 63.9594C152.432 64.9175 152.47 65.9111 152.432 66.8691C152.393 67.4369 152.548 67.6853 153.282 67.6853C154.017 67.6853 154.674 67.4369 155.37 67.4014C157.845 67.2595 160.32 67.5079 162.757 67.0466C163.337 66.9401 163.569 66.7982 163.569 66.2304C163.569 63.1078 164.071 60.0207 164.033 56.8981C164.033 56.3304 163.955 56.1175 163.259 56.2594C162.563 56.4013 161.79 56.3304 161.055 56.4013C158.735 56.6497 156.453 57.0046 154.094 57.0755C152.664 57.1465 151.929 57.8562 152.161 59.0981C152.354 60.7659 152.393 62.3627 152.432 63.9594ZM137.273 276.615C137.582 276.509 138.162 276.864 138.394 276.402C138.626 276.012 138.356 275.515 138.124 275.16C137.853 274.699 137.234 274.628 136.731 274.557C134.875 274.309 133.096 273.741 131.279 273.315C129.075 272.819 126.793 272.428 124.589 272.002C123.197 271.754 121.766 271.541 120.374 271.222C118.672 270.831 117.048 270.299 115.347 269.944C113.375 269.518 111.441 268.951 109.508 268.383C106.685 267.496 103.823 266.644 101 265.651C98.5639 264.799 96.1277 264.018 93.6528 263.273C92.0673 262.812 90.6365 262.102 89.051 261.677C87.4655 261.251 85.8801 260.683 84.3333 260.115C83.5598 259.831 82.4771 259.902 81.897 260.435C81.665 260.647 81.781 260.825 82.0517 260.86C83.0185 261.002 83.8305 261.428 84.7586 261.641C87.0015 262.173 89.1284 263.06 91.3326 263.628C94.0395 264.338 96.7077 265.189 99.4146 265.935C101.696 266.573 103.978 267.212 106.259 267.851C108.463 268.489 110.629 269.164 112.833 269.802C115.192 270.477 117.59 271.115 119.949 271.789C122.191 272.428 124.434 273.173 126.716 273.777C129.075 274.38 131.395 275.089 133.715 275.728C134.798 276.083 135.919 276.686 137.273 276.615ZM118.208 85.9595C117.396 86.8112 117.628 87.7337 117.474 88.5499C116.932 90.9273 116.932 93.2693 117.667 95.6112C118.092 97.0306 118.054 97.208 119.871 96.7822C120.567 96.6403 121.186 96.2499 121.766 95.8596C122.153 95.6112 122.23 95.4338 121.959 94.937C120.413 92.0983 118.75 89.2951 118.208 85.9595ZM116.275 67.7208C116.004 68.2885 115.772 68.6433 115.656 69.0692C115.385 70.1692 115.115 71.2337 114.767 72.2982C113.993 74.4982 113.181 76.6982 113.761 79.0402C113.839 79.395 113.645 79.9273 114.148 80.0337C114.612 80.1047 114.496 79.5369 114.728 79.2531C116.198 77.4434 116.816 75.4563 116.391 73.1143C116.198 72.1208 115.811 71.0208 116.12 69.9917C116.352 69.3175 116.352 68.6788 116.275 67.7208ZM80.9689 253.338C81.7423 254.047 82.5158 254.58 83.3665 255.112C83.6759 255.289 83.9466 255.431 84.2172 255.218C85.3 254.438 86.4988 253.835 87.6589 253.231C88.1229 252.983 87.8909 252.664 87.6589 252.664C86.5375 252.593 85.5707 251.847 84.3719 252.238C83.2892 252.593 82.1677 252.947 80.9689 253.338ZM111.557 65.5562C112.214 64.6691 112.872 63.7465 113.839 63.2498C115.037 62.6465 114.767 62.0078 114.303 61.2627C114.148 61.0498 114.264 60.6594 113.8 60.624C113.104 60.553 112.06 61.1917 111.75 61.7594C111.093 63.0014 111.286 64.2433 111.557 65.5562ZM169.717 16.6592C168.248 14.885 162.408 13.8205 160.243 14.8141C163.491 14.8495 166.392 16.2689 169.717 16.6592ZM101.155 244.786C102.006 245.673 102.818 245.354 103.591 244.857C104.132 244.538 104.751 244.254 105.293 243.935C107.033 242.941 108.773 241.947 110.474 240.989C110.436 240.918 110.397 240.812 110.32 240.741C107.458 242.373 104.326 243.544 101.155 244.786ZM117.512 256.389C116.314 257.809 114.844 259.086 113.993 260.896C115.347 260.683 115.966 259.938 116.352 259.015C116.7 258.128 117.474 257.418 117.512 256.389Z" fill="black"/>
<path d="M99.3761 75.811C99.8788 77.6562 99.6854 79.5723 99.8401 81.453C100.072 84.4337 100.227 87.4143 100.652 90.3595C100.884 92.0272 101.116 93.7305 101.619 95.3982C101.967 96.5337 101.735 96.7466 100.614 97.2789C99.028 98.024 98.0226 99.3724 97.3265 100.827C95.4317 104.837 92.9181 108.563 90.7526 112.431C88.4324 116.547 85.9575 120.627 83.4439 124.673C79.9249 130.421 76.5993 136.24 73.8537 142.308C72.8096 144.579 71.7655 146.886 70.9148 149.192C69.5613 152.811 68.1692 156.395 67.2798 160.121C66.545 163.173 65.849 166.189 65.3076 169.241C64.3795 174.421 64.4955 179.637 64.7275 184.853C64.8435 187.302 64.9595 189.786 65.4236 192.234C65.849 194.541 66.197 196.918 67.2024 199.047C68.7879 202.383 70.6054 205.576 73.3897 208.273C75.2845 210.083 77.218 211.75 79.6929 212.85C81.0077 213.418 82.3998 213.631 83.7533 213.773C86.3442 214.021 88.9351 213.737 91.4873 213.205C91.6033 213.17 91.758 213.17 91.874 213.134C93.2275 212.957 93.1888 212.992 93.1888 214.199C93.1888 216.825 93.1888 219.45 93.3435 222.076C93.4595 223.957 93.8462 225.838 94.5036 227.683C95.0837 229.421 96.7078 230.096 98.2546 230.805C100.459 231.799 102.74 232.509 105.138 233.005C106.801 233.36 108.464 233.857 110.165 234.07C110.358 234.105 110.59 234.07 110.59 234.318C110.59 234.531 110.436 234.638 110.242 234.673C106.337 235.986 102.702 237.831 98.8347 239.215C94.929 240.599 91.2166 242.373 87.3496 243.828C84.5654 244.892 81.9745 246.347 79.1515 247.305C78.9582 247.376 78.7262 247.412 78.4941 247.483C77.7594 247.696 77.6434 248.086 78.1074 248.654C78.6101 249.293 79.2675 249.825 80.0023 250.215C80.5823 250.534 81.2397 250.96 81.2784 251.528C81.3171 252.202 80.3116 251.883 79.9249 252.273C79.8476 252.38 79.6156 252.344 79.4609 252.38C79.0742 252.522 78.4555 252.202 78.2621 252.699C78.0688 253.196 78.7262 253.409 78.9968 253.728C79.5769 254.367 80.3116 254.828 81.085 255.218C81.3944 255.36 81.5104 255.538 81.6264 255.786C79.3062 256.567 76.8313 256.247 74.4724 256.673C72.7709 256.957 71.1081 257.347 69.4066 257.56C67.9758 257.738 66.545 257.88 65.1529 258.128C62.7553 258.589 60.3578 258.412 57.9989 258.341C56.2587 258.305 54.5186 258.234 52.8171 257.951C50.7676 257.596 48.6794 257.596 46.6685 257.241C44.8897 256.886 43.1109 256.496 41.3707 256.141C39.5532 255.786 37.8517 255.112 36.1115 254.58C35.3768 254.367 34.7581 253.87 33.9073 253.763C33.5593 253.728 33.4046 253.231 33.0566 252.983C31.3938 251.812 29.3056 251.209 27.8361 249.896C27.0627 249.222 26.096 248.796 25.4772 248.015C25.2065 247.696 24.9745 247.518 24.5878 247.447C23.6984 247.27 23.4664 246.454 22.8863 245.957C22.0743 245.247 21.2235 244.609 20.4501 243.863C19.7154 243.154 19.1353 242.302 18.5166 241.486C17.5885 240.28 16.9311 238.825 15.9644 237.689C14.5336 236.021 13.7988 234.141 13.0254 232.26C12.368 230.734 12.0587 229.138 11.672 227.541C11.2853 225.873 11.0532 224.17 10.4345 222.573C9.23573 219.415 9.77711 216.221 9.77711 213.028C9.77711 211.786 10.3958 210.579 10.6279 209.373C10.9372 207.634 11.788 206.002 12.136 204.263C12.5227 202.17 13.5668 200.289 14.4949 198.373C14.7656 197.841 15.2683 197.415 15.2296 196.741C15.2296 196.67 15.2683 196.528 15.3456 196.528C17.2018 195.889 17.2018 194.008 18.2459 192.837C19.2127 191.773 19.8314 190.46 20.9141 189.431C21.3782 189.005 21.6875 188.402 22.1129 187.905C23.2344 186.699 24.4718 185.599 25.2839 184.179C25.4386 183.895 25.7093 183.612 25.9799 183.47C27.5654 182.76 28.6095 181.553 29.6536 180.347C30.5817 179.247 32.0898 178.821 33.0953 177.792C33.6367 177.26 34.6421 176.87 34.7581 176.266C35.0288 175.166 35.9182 174.705 36.5756 173.995C36.6916 173.889 36.8076 173.676 36.885 173.676C38.0837 173.818 38.5478 172.753 39.4372 172.399C39.5919 172.328 39.7079 172.221 39.7079 172.079C39.8239 170.695 41.1773 170.199 42.0668 169.418C43.4589 168.211 45.2764 167.466 46.3205 165.87C46.7845 165.16 47.5966 164.663 48.254 164.06C49.6848 162.782 50.1875 161.008 51.0769 159.447C51.5796 158.56 52.2757 157.815 52.7011 156.892C53.3971 155.331 53.9385 153.769 54.2866 152.137C54.6346 150.328 54.8279 148.482 54.7506 146.673C54.6346 143.692 54.6733 140.676 54.1706 137.695C53.9772 136.56 54.1319 135.282 53.6292 134.324C52.9331 133.011 53.2038 131.556 52.5077 130.315C52.121 129.676 52.3144 129.002 52.1984 128.327C51.9277 126.305 51.3476 124.318 50.9609 122.295C50.7676 121.373 50.6516 120.414 50.6129 119.492C50.4969 115.092 50.5355 110.692 50.6129 106.292C50.6129 105.476 50.9222 104.695 51.0769 103.914C51.3476 102.495 51.5796 101.076 52.005 99.6563C52.5077 97.9531 53.3198 96.3918 53.7065 94.6531C53.8612 93.8724 54.1319 93.0208 54.5186 92.2756C54.7119 91.8853 55.0986 91.6014 55.7174 91.8143C57.4188 92.3821 59.2364 92.7014 60.8218 93.4821C62.4847 94.2627 64.1475 94.1918 65.849 94.1918C68.0532 94.2272 70.296 94.1208 72.5002 94.1918C74.0471 94.2627 75.2458 93.4111 76.5993 93.0563C77.9914 92.666 79.4222 92.2401 80.6983 91.5305C81.5878 91.0337 82.4772 90.4659 83.4053 90.1466C85.6481 89.3659 86.9242 87.4853 88.9351 86.4562C89.7859 86.0304 90.4819 85.2498 91.41 84.7885C91.7194 85.0724 91.9127 85.4627 92.2994 85.6401C92.6088 85.8175 92.9181 85.8175 93.2275 85.6401C93.6915 85.3917 93.1888 85.1788 93.1502 85.0014C93.0341 84.3272 92.4154 83.8304 92.3768 83.1562C93.1115 82.9078 93.7302 82.5885 94.0009 81.8433C94.0396 81.7014 94.2329 81.5594 94.3876 81.453C95.7411 80.6369 96.2051 79.253 96.9785 78.082C97.0172 78.011 96.9785 77.9046 96.9785 77.8336C97.9839 77.6562 98.0613 76.7691 98.4093 76.1659C98.7573 75.953 98.9507 75.811 99.3761 75.811Z" fill="#EBE298"/>
<path d="M156.221 256.744C156.415 255.999 156.917 255.715 157.768 255.715C159.315 255.715 160.862 255.786 162.408 255.609C164.767 255.36 167.088 255.147 169.446 254.721C171.535 254.367 173.584 254.012 175.595 253.515C178.109 252.912 180.583 252.167 183.02 251.351C188.085 249.612 192.842 247.305 197.405 244.644C200.421 242.87 203.206 240.741 205.912 238.576C208.851 236.199 211.597 233.679 214.072 230.876C216.431 228.144 218.519 225.27 220.414 222.254C222.657 218.67 224.552 214.979 226.098 211.076C226.601 209.763 226.988 208.415 227.452 207.066C228.612 203.837 229.192 200.502 229.772 197.166C230.081 195.392 230.197 193.618 230.507 191.844C231.358 191.915 231.938 192.447 232.44 193.015C234.219 195.037 235.727 197.237 237.506 199.26C238.086 199.899 238.357 200.821 238.86 201.602C240.445 204.157 241.102 206.96 240.87 209.905C240.793 211.183 240.368 212.424 239.942 213.666C239.556 214.873 239.13 216.079 238.589 217.215C238.125 218.173 237.854 219.131 237.661 220.16C237.506 221.047 236.578 221.65 236.191 222.502C235.882 223.176 235.534 223.815 235.263 224.525C234.567 226.37 233.639 228.144 232.827 229.954C232.556 230.521 231.822 230.557 231.744 231.196C231.667 232.118 231.087 232.828 230.661 233.573C230.043 234.567 229.385 235.525 228.689 236.483C227.916 237.583 227.258 238.789 226.562 239.96C225.17 242.302 223.739 244.644 221.806 246.667C221.381 247.092 221.11 247.554 220.375 247.696C219.988 247.767 219.563 248.228 219.408 248.583C219.022 249.576 218.055 250.073 217.398 250.783C216.701 251.492 215.928 252.131 215.232 252.841C214.768 253.338 214.072 253.409 213.569 253.905C211.79 255.609 209.393 256.602 207.343 257.986C205.216 259.476 202.819 260.363 200.576 261.499C199.532 262.031 198.217 262.102 197.018 262.422C194.427 263.096 191.798 262.954 189.168 263.202C186.268 263.486 183.406 263.38 180.506 263.38C177.606 263.344 174.706 263.096 171.844 262.493C169.678 262.031 167.629 261.393 165.618 260.612C163.955 259.973 162.292 259.299 160.63 258.696C159.121 258.199 157.536 257.667 156.221 256.744Z" fill="#EBE298"/>
<path d="M39.553 153.592C37.3488 153.379 34.9512 153.131 32.5923 152.634C31.2002 152.35 29.8468 152.173 28.6867 151.357C28.532 151.25 28.3386 151.179 28.1453 151.179C26.5985 151.144 25.1677 150.753 23.6982 150.363C21.7647 149.831 19.7925 149.476 17.975 148.624C16.4669 147.915 15.1907 145.218 16.7762 143.621C17.511 142.876 18.5551 142.45 19.5991 142.344C20.7593 142.202 21.958 142.131 23.1181 142.45C24.0076 142.698 24.9356 142.805 25.8637 142.876C28.0293 143.089 29.9628 143.905 31.9736 144.508C34.4872 145.253 36.7301 146.424 38.9729 147.702C39.8624 148.199 40.9064 148.376 41.9119 148.66C43.072 148.979 43.9614 149.866 43.9614 150.753C44.0001 152.031 43.304 152.847 42.0666 153.379C41.2545 153.592 40.5197 153.486 39.553 153.592Z" fill="#EBE298"/>
<path d="M206.841 25.6365C206.802 27.0204 206.802 28.2269 206.106 29.3269C205.758 29.8591 205.565 30.5333 205.642 31.2075C205.758 31.9527 205.023 32.343 204.714 32.9462C203.902 34.685 203.554 36.5656 202.896 38.3398C202.355 39.7947 201.698 41.2495 200.576 42.4205C199.764 43.2721 198.527 43.2366 197.328 42.9173C195.472 42.385 195.124 40.9301 194.582 39.5818C194.505 39.3688 194.505 39.085 194.582 38.8721C195.51 37.1334 195.549 35.2172 196.09 33.372C196.864 30.7817 197.946 28.3333 199.145 25.8849C199.416 25.3172 199.88 24.8914 200.305 24.4301C200.808 23.8623 201.272 23.2236 201.891 22.7268C203.438 21.4849 205.642 21.8042 206.647 23.4365C207.111 24.1817 206.802 25.0333 206.841 25.6365Z" fill="#EBE298"/>
<path d="M44.5027 142.557C44.4641 143.053 44.6187 143.55 44.3867 144.047C43.6907 145.679 41.3704 145.857 39.9396 144.721C38.3542 143.515 37.7354 141.74 36.5367 140.357C35.6086 139.292 35.2992 137.837 36.0339 136.453C36.15 136.205 36.3433 136.027 36.5753 135.85C37.5421 135.211 39.6303 135.318 40.481 136.063C41.5251 137.021 42.4532 138.015 43.1106 139.257C43.2653 139.576 43.6133 139.753 43.8067 140.073C44.3094 140.818 44.7348 141.598 44.5027 142.557Z" fill="#EBE298"/>
<path d="M213.105 40.1851C213.105 42.9174 211.21 44.4432 208.194 44.0174C207.575 43.9465 207.034 44.1594 206.454 44.2658C205.293 44.4432 204.172 43.9819 203.592 43.1303C203.089 42.4206 203.051 41.3561 203.592 40.5045C204.017 39.8303 204.636 39.298 205.448 38.9432C206.106 38.6593 206.918 38.6593 207.266 37.8787C207.343 37.7013 207.884 37.6303 208.232 37.6303C209.199 37.5593 210.166 37.5238 211.133 37.5593C212.757 37.5948 213.105 37.9142 213.144 39.4045C213.105 39.6529 213.105 39.9013 213.105 40.1851Z" fill="#EBE298"/>
<path d="M92.4929 83.3337C92.5316 84.0433 93.1116 84.5401 93.2663 85.1788C93.305 85.3917 93.8077 85.5691 93.3436 85.8175C93.0343 85.9595 92.7636 85.9595 92.4156 85.8175C92.0289 85.6046 91.8355 85.2143 91.5261 84.9659C90.6754 83.582 89.7086 82.2691 89.2059 80.6724C88.3938 78.0465 88.3165 75.4207 88.8966 72.7239C89.3606 70.6304 90.3274 68.6788 91.6808 66.94C91.7968 66.7981 91.9128 66.6562 92.0289 66.5142C92.2995 66.1594 92.7249 66.1594 93.0729 66.3013C93.4983 66.4433 93.2663 66.8336 93.2276 67.082C92.8409 68.3949 92.4542 69.7433 91.9902 71.0207C91.1394 73.3626 91.0234 75.811 91.2168 78.2594C91.3328 79.8207 91.8355 81.3111 92.2609 82.8014C92.2222 82.9078 92.2222 82.9433 92.3769 82.9078C92.3769 83.0498 92.4156 83.1917 92.4929 83.3337Z" fill="black"/>
<path d="M92.4155 75.3497C92.4541 73.3271 92.9182 71.8367 93.5369 70.3464C93.6529 70.098 93.8849 69.9206 94.0783 69.7432C94.349 69.4948 94.6197 69.4238 94.9677 69.5657C95.2771 69.7077 95.1997 70.027 95.1611 70.2754C95.045 70.9851 94.929 71.7303 94.7744 72.44C94.233 74.8174 94.2716 77.1593 94.7357 79.5368C94.7744 79.7497 94.9677 80.1045 94.5423 80.211C94.1943 80.2819 93.8076 80.2464 93.6916 79.8561C93.1115 78.2239 92.2995 76.6626 92.4155 75.3497Z" fill="black"/>
<path d="M97.0944 78.011C95.8956 78.1529 95.3156 77.7271 95.1609 76.6626C95.0449 75.9174 95.0449 75.1368 95.1222 74.3561C95.1996 73.7529 95.5863 73.3981 96.1663 73.2206C96.785 73.0432 97.2491 73.2561 97.1718 73.8594C97.0171 75.2432 97.0557 76.6271 97.0944 78.011Z" fill="black"/>
<path d="M92.2991 82.9077C92.1831 82.9432 92.1444 82.8722 92.1831 82.8013C92.2218 82.8013 92.2605 82.8013 92.2991 82.8013C92.3378 82.8368 92.2991 82.8722 92.2991 82.9077Z" fill="#EBE298"/>
<path d="M105.872 102.885C105.834 104.056 105.292 105.014 104.364 105.831C104.055 106.079 103.978 106.54 103.784 106.895C103.088 108.031 102.74 109.343 101.735 110.337C101.657 110.408 101.58 110.479 101.619 110.55C102.083 112.679 100.304 114.027 99.4532 115.695C98.6024 117.327 97.365 118.782 96.3209 120.308C95.4314 121.621 94.3487 122.898 93.4979 124.282C92.8019 125.418 92.2218 126.66 91.4484 127.724C90.8297 128.54 90.6363 129.64 89.6696 130.279C89.5922 130.35 89.5536 130.492 89.5536 130.598C89.5536 132.018 88.6642 133.082 88.0841 134.289C87.156 136.347 85.9959 138.298 85.2225 140.392C84.8745 141.35 84.4491 142.308 83.9851 143.231C83.4437 144.331 83.405 145.502 83.0183 146.602C82.5543 147.986 81.8582 149.369 81.2395 150.753C80.234 153.024 78.9966 155.26 78.4939 157.708C78.3392 158.453 78.0298 159.163 77.7591 159.873C76.9084 162.002 76.7537 164.344 75.787 166.437C74.9362 168.282 74.7429 170.27 74.2788 172.186C73.7761 174.421 73.4668 176.692 73.0027 178.928C72.152 182.973 71.8039 187.018 71.9973 191.099C72.0746 192.695 72.1133 194.292 72.4227 195.854C72.8867 198.231 73.1574 200.644 74.1241 202.915C74.5109 203.873 74.7429 204.866 75.4003 205.718C75.5163 205.896 75.4389 206.179 75.4776 206.392C75.0909 206.392 74.8976 206.144 74.6655 205.86C72.1133 202.879 70.1798 199.579 69.1357 195.924C68.5943 194.044 68.3623 192.057 68.1303 190.105C67.8596 187.55 67.9756 184.995 67.7049 182.441C67.3955 179.495 67.9369 176.586 67.9369 173.641C67.9369 171.937 68.2463 170.199 68.633 168.495C69.1744 165.976 69.6384 163.421 70.4118 160.937C70.9532 159.128 71.4559 157.318 71.9973 155.508C72.732 153.131 73.5441 150.824 74.4722 148.518C75.7096 145.36 77.0244 142.202 78.5712 139.15C80.002 136.311 81.5102 133.544 83.057 130.776C85.3772 126.624 87.9681 122.65 90.327 118.534C92.3378 115.021 94.194 111.472 96.2049 107.96C97.365 105.901 98.4864 103.808 99.2598 101.572C99.3758 101.182 99.5305 100.969 100.111 101.182C101.619 101.75 103.243 102.034 104.828 102.353C105.176 102.601 105.524 102.779 105.872 102.885Z" fill="#EBE298"/>
<path d="M161.712 247.589C163.22 247.554 164.729 247.483 166.237 247.483C167.397 247.483 168.286 246.631 169.446 246.702C170.181 245.531 171.612 245.46 172.733 245.07C174.86 244.325 176.91 243.402 178.959 242.515C179.81 242.16 180.583 241.734 181.55 241.77C181.628 241.77 181.782 241.77 181.821 241.699C182.865 240.244 184.76 239.996 186.152 239.073C187.621 238.115 189.246 237.405 190.754 236.518C191.604 236.021 192.494 235.525 193.383 234.992C195.471 233.68 197.521 232.296 199.571 230.947C202.045 229.315 204.327 227.434 206.454 225.483C207.807 224.241 208.851 222.715 209.895 221.225C210.862 219.841 211.752 218.386 212.641 216.967C213.298 215.937 213.956 214.802 214.497 213.666C215.464 211.715 216.508 209.763 217.475 207.812C218.094 206.605 218.635 205.363 219.215 204.157C219.486 203.589 219.834 203.092 220.066 202.489C220.762 200.821 221.033 199.118 221.419 197.379C221.767 195.854 222.231 194.363 222.425 192.837C222.579 191.524 223.005 190.247 222.966 188.934C222.927 188.26 223.005 187.586 223.005 186.912C223.005 186.521 223.121 186.06 223.507 185.918C223.855 185.776 223.933 186.308 224.203 186.379C225.17 186.628 225.596 187.55 226.485 187.87C226.562 190.212 226.64 192.589 226.214 194.931C225.982 196.066 226.021 197.202 225.828 198.337C225.441 200.466 225.016 202.631 224.436 204.725C222.541 211.537 219.602 217.925 215.503 223.85C212.1 228.747 208.117 233.254 203.438 237.157C198.913 240.918 193.963 244.218 188.472 246.702C185.533 248.051 182.556 249.328 179.462 250.251C176.987 250.996 174.512 251.67 171.96 252.167C169.562 252.628 167.165 253.089 164.69 253.267C163.569 253.338 162.486 253.622 161.287 253.444C162.022 252.628 162.408 251.705 162.486 250.783C162.563 249.825 162.138 248.867 161.712 247.98C161.712 247.873 161.712 247.731 161.712 247.589Z" fill="#EBE298"/>
<path d="M136.151 203.057C136.499 202.915 136.616 202.666 136.616 202.347C136.616 200.147 137.234 198.053 137.505 195.889C137.621 194.931 138.046 194.008 138.356 193.086C138.82 191.666 139.322 190.247 139.709 188.757C140.018 187.444 140.405 186.166 140.715 184.853C141.101 183.15 141.604 181.447 141.952 179.708C142.377 177.721 142.841 175.734 143.692 173.818C144.118 172.895 144.311 171.866 144.659 170.873C145.084 169.666 144.079 168.85 143.383 168.211C142.571 167.466 142.029 166.579 141.333 165.763C140.676 164.947 140.096 164.06 139.4 163.279C139.206 163.031 139.052 162.782 138.936 162.498C138.742 161.86 138.742 161.292 139.516 161.008C140.715 160.76 140.985 159.731 141.488 158.915C142.068 157.992 142.609 157.034 143.189 156.076C143.267 155.934 143.344 155.792 143.537 155.792C143.808 155.792 143.808 156.005 143.886 156.147C144.543 157.708 145.2 159.234 146.244 160.618C147.018 161.647 147.869 162.605 149.106 163.173C149.57 163.386 149.763 163.705 149.725 164.237C149.531 168.531 149.261 172.824 149.183 177.118C149.106 179.566 148.526 182.015 148.255 184.463C148.139 185.563 148.217 186.699 148.062 187.834C147.714 190.282 147.675 192.731 147.172 195.179C146.708 197.415 146.747 199.757 146.515 202.028C146.36 203.873 146.09 205.718 145.974 207.563C145.896 208.983 145.51 210.366 145.78 211.786C145.896 212.318 146.051 212.85 146.322 213.276C148.526 216.754 150.691 220.302 153.476 223.46C153.862 223.921 154.094 224.205 153.282 224.596C152.316 225.057 151.426 225.696 150.537 226.299C149.841 226.796 149.415 226.654 149.029 226.015C147.095 222.963 145.239 219.876 143.537 216.718C142.184 214.163 140.715 211.679 139.322 209.16C138.201 207.173 137.196 205.115 136.151 203.057Z" fill="#EBE298"/>
<path d="M162.099 188.97C162.292 188.934 162.563 188.97 162.64 188.899C163.646 187.834 165.154 187.408 166.275 186.415C166.971 185.776 167.9 184.995 169.137 185.066C169.292 185.066 169.524 185.031 169.562 184.924C170.181 183.505 171.805 183.15 172.965 182.299C173.855 181.624 175.015 181.163 175.672 180.382C176.523 179.353 177.76 178.999 178.689 178.182C179.655 177.331 180.583 176.444 181.821 175.876C182.208 175.699 182.092 175.308 182.246 175.024C183.677 175.344 184.682 176.302 185.843 177.047C186.075 177.189 185.997 177.437 185.881 177.615C184.876 179.141 184.76 180.879 184.373 182.547C183.909 184.499 183.445 186.415 182.981 188.366C182.556 190.105 182.014 191.844 181.782 193.618C181.395 196.35 179.733 198.479 177.992 200.608C175.44 203.766 172.927 206.996 170.065 209.941C168.634 211.431 167.126 212.886 165.541 214.625C165.618 213.276 165.889 212.176 166.391 211.183C166.623 210.721 166.701 210.296 166.585 209.834C165.695 205.966 165.077 202.028 163.994 198.16C163.452 196.244 163.143 194.292 162.756 192.376C162.563 191.205 162.331 190.105 162.099 188.97Z" fill="#EBE298"/>
<path d="M131.704 83.2982C131.743 83.653 131.82 84.0078 131.859 84.3627C131.279 85.2143 131.434 85.9595 132.284 86.5982C132.787 86.9885 133.213 87.4498 133.677 87.8756C133.251 88.2659 133.445 88.6917 133.638 89.1175C134.257 90.5014 134.991 91.8853 135.571 93.3047C136.422 95.3627 137.698 97.1724 138.626 99.1595C139.709 101.466 141.333 103.418 142.803 105.476C143.267 106.15 143.924 106.824 144.659 107.321C145.007 107.569 145.007 107.853 145.007 108.172C143.228 108.172 141.565 107.64 139.902 107.143C136.267 106.079 133.058 104.376 130.235 102.034C126.987 99.3369 124.434 96.1079 122.617 92.4176C121.109 89.4014 120.181 86.2433 119.446 83.0143C119.098 81.4885 119.562 80.2111 119.833 78.8272C120.026 77.8336 120.103 76.8401 119.949 75.8465C119.871 75.3852 119.717 74.8175 118.943 74.8175C118.479 74.8175 118.479 74.4981 118.479 74.1788C118.479 71.0207 118.324 67.8626 118.44 64.7045C118.479 64.0303 118.75 63.8884 119.407 63.9594C119.678 63.9948 119.987 63.9948 120.258 63.9948C120.799 63.9594 121.031 64.2077 120.993 64.669C120.954 65.769 121.379 66.8336 121.495 67.8981C121.534 68.3239 121.766 68.6787 122.308 68.7852C123.158 68.9271 124.009 69.14 124.86 69.211C126.716 69.3884 128.572 69.4949 130.428 69.6368C130.428 71.9078 130.39 74.1788 130.39 76.4143C130.39 76.8755 130.428 77.3723 130.583 77.7981C130.892 79.5723 131.318 81.453 131.704 83.2982Z" fill="#EBE298"/>
<path d="M122.307 139.824C122.075 139.789 121.843 139.753 121.689 139.966C120.258 141.74 118.518 143.266 117.009 145.005C115.54 146.673 113.529 147.879 112.137 149.653C111.093 150.966 109.855 152.173 108.85 153.486C108.038 154.55 107.033 155.473 106.298 156.608C106.104 156.892 105.64 156.892 105.254 156.786C105.292 155.508 106.104 154.479 106.607 153.344C107.999 150.186 109.585 147.063 111.016 143.905C112.098 141.563 113.142 139.185 114.071 136.773C115.192 133.792 116.468 130.847 117.319 127.76C117.512 127.014 117.899 126.269 118.054 125.489C118.092 125.205 118.324 125.027 118.595 124.885C121.573 123.289 124.279 121.231 127.141 119.456C127.644 119.137 128.185 118.853 128.804 118.498C128.843 119.172 128.379 119.563 128.185 120.024C127.489 121.976 126.793 123.963 126.174 125.95C125.556 127.866 125.014 129.747 124.473 131.698C124.086 133.082 123.815 134.502 123.429 135.885C123.003 137.163 122.81 138.547 122.307 139.824Z" fill="#EBE298"/>
<path d="M140.831 109.273C141.14 111.792 141.45 114.347 141.798 116.866C142.107 119.35 142.919 121.763 142.764 124.282C142.726 125.134 142.958 126.021 143.229 126.873C143.383 127.44 143.499 127.973 143.461 128.54C143.383 129.569 143.731 130.528 143.963 131.486C144.737 134.537 145.239 137.624 145.123 140.782C145.123 140.924 145.085 141.066 145.046 141.208C144.35 141.244 143.886 140.818 143.383 140.499C142.532 139.966 141.604 139.469 140.754 138.902C138.511 137.411 138.085 135.176 137.621 132.94C137.273 131.379 137.235 129.782 136.732 128.257C136.655 127.973 136.577 127.689 136.577 127.369C136.616 125.56 136.229 123.786 136.036 122.011C135.688 118.96 135.301 115.908 134.682 112.856C134.334 111.082 133.948 109.273 133.677 107.463C133.6 107.002 133.716 106.895 134.18 107.073C135.688 107.64 137.196 108.279 138.781 108.705C139.477 108.882 140.174 109.06 140.831 109.273Z" fill="#EBE298"/>
<path d="M141.951 33.9044C142.068 34.6495 141.526 35.0754 140.985 35.4302C138.432 37.0625 136.808 39.3689 135.378 41.8528C135.068 42.3496 134.643 42.8109 134.527 43.4141C132.825 44.4431 131.201 45.6141 129.886 47.069C129.577 47.3883 128.997 47.6012 129.229 48.098C129.5 48.5948 130.041 48.7722 130.66 48.7722C131.317 48.7722 131.859 48.3819 132.477 48.3464C131.781 49.127 131.859 50.1206 131.704 51.0432C131.588 51.8948 131.356 52.7464 131.162 53.598C131.085 53.8819 131.046 54.1658 131.008 54.4851C130.892 55.6916 131.395 56.1884 132.709 56.1529C133.096 56.1529 133.483 56.1529 133.869 56.1529C133.676 56.4722 133.328 56.3303 133.057 56.3303C130.892 56.4013 128.726 56.4013 126.599 56.5077C124.859 56.5787 123.196 57.0045 121.456 57.1109C120.799 57.1464 120.76 57.8206 120.644 58.2819C120.451 59.3464 120.296 60.411 120.257 61.511C120.219 62.1497 119.871 62.1497 119.407 62.1497C118.788 62.1497 118.943 61.8303 118.943 61.44C119.02 59.3819 119.677 57.3948 120.103 55.4077C120.257 54.5916 120.799 53.8109 121.108 52.9948C121.843 51.1496 122.346 49.198 123.312 47.4238C125.903 42.7044 129.074 38.5528 134.449 36.0689C136.77 35.0044 139.09 34.1883 141.642 33.9399C141.797 33.8334 141.874 33.8689 141.951 33.9044Z" fill="#EBE298"/>
<path d="M109.237 203.553C109.546 205.044 109.469 206.499 109.16 208.06C108.85 209.55 108.734 211.076 108.618 212.602C108.58 212.957 108.696 213.383 108.154 213.56C107.845 213.666 107.883 214.021 107.922 214.27C108.232 216.754 106.569 218.492 105.254 220.337C104.326 221.65 103.514 223.07 102.508 224.347C101.619 225.483 100.923 226.725 100.033 227.825C99.6854 228.25 99.0667 228.25 98.8346 228.712C97.8679 228.534 97.4425 228.144 97.2878 227.115C96.9011 223.886 96.5531 220.621 96.2437 217.392C96.0891 215.937 95.9344 214.412 95.277 213.028C95.0063 212.424 95.509 212.283 95.9731 212.141C99.9561 210.97 103.514 209.16 106.491 206.428C107.303 205.683 107.961 204.831 108.657 204.015C108.85 203.802 108.966 203.589 109.237 203.553Z" fill="#EBE298"/>
<path d="M132.13 114.524C132.246 115.127 131.859 115.34 131.473 115.482C127.722 116.937 124.319 118.96 121.148 121.302C120.606 121.692 120.065 122.118 119.523 122.544C119.33 122.685 119.137 122.827 118.943 122.721C118.673 122.614 118.827 122.331 118.866 122.153C119.253 120.592 119.639 118.995 120.104 117.469C120.374 116.653 120.452 115.802 120.606 114.985C120.954 113.247 121.264 111.543 121.573 109.805C121.882 107.818 122.153 105.866 122.462 103.879C122.578 103.098 123.197 102.46 123.042 101.608C122.926 101.04 122.849 100.614 122.23 100.33C121.612 100.047 121.07 99.6208 120.49 99.266C119.987 98.9466 119.91 98.6273 120.606 98.4498C121.534 98.2014 122.462 98.024 123.274 97.5627C123.584 97.3853 123.7 97.6337 123.855 97.8466C125.633 100.118 127.567 102.282 129.771 104.269C130.39 104.801 130.467 105.511 130.622 106.15C131.125 108.598 131.473 111.082 131.898 113.566C131.937 113.885 132.053 114.276 132.13 114.524Z" fill="#EBE298"/>
<path d="M130.351 241.238C128.379 240.954 126.291 240.776 124.435 241.344C123.004 241.77 121.534 242.125 120.142 242.834C118.557 243.651 116.855 244.467 114.999 244.822C114.303 244.964 113.723 245.283 113.065 245.531C111.248 246.205 109.314 246.596 107.497 247.235C104.674 248.228 101.967 249.47 99.0669 250.286C96.7466 250.925 94.6198 251.918 92.4156 252.699C92.1062 252.805 91.8355 253.018 91.5648 253.196C90.5981 252.415 89.5153 251.812 88.1619 251.812C87.4271 251.812 86.8471 251.351 85.919 251.351C86.9631 250.641 88.0845 250.428 89.0899 250.109C91.7582 249.293 94.2717 248.157 96.7853 247.022C97.7134 246.596 98.7575 246.383 99.6856 245.886C100.034 245.673 100.382 245.886 100.614 246.134C100.923 246.454 101.348 246.56 101.696 246.809C102.895 247.625 103.823 246.88 104.713 246.383C109.392 243.722 114.032 241.025 118.673 238.328C119.601 237.796 120.49 237.157 121.38 236.554C121.612 236.376 121.844 236.199 122.153 236.27C124.048 236.731 125.981 236.873 127.915 237.122C129.964 237.405 132.053 237.689 134.141 237.618C134.721 237.583 135.262 237.618 136.074 237.618C134.837 238.825 133.483 239.393 132.285 240.173C131.666 240.528 131.124 241.06 130.351 241.238Z" fill="#EBE298"/>
<path d="M157.381 247.944C157.149 247.589 156.763 247.554 156.376 247.554C155.525 247.518 154.752 247.447 154.172 246.702C153.862 246.312 153.166 246.383 152.664 246.276C151.735 246.099 150.962 245.638 150.15 245.318C148.371 244.644 146.476 244.467 144.736 243.651C143.963 243.296 142.919 243.509 142.029 243.225C140.444 242.728 138.742 242.728 137.079 242.799C135.803 242.834 134.605 242.551 133.406 242.302C136.345 239.96 139.477 237.831 142.88 236.092C143.924 235.56 144.775 234.815 145.626 234.07C146.244 233.502 146.786 233.396 147.482 234.034C150.653 236.767 153.166 239.96 155.254 243.438C156.028 244.715 156.84 245.957 157.613 247.234C157.807 247.518 158.155 247.98 157.381 247.944Z" fill="#EBE298"/>
<path d="M119.717 235.915C116.662 236.873 113.955 238.434 111.016 239.392C108.85 240.102 106.878 241.131 104.79 241.983C102.276 243.012 99.9175 244.396 97.3266 245.247C93.2276 246.596 89.3992 248.476 85.3388 249.896C85.0295 250.002 84.6428 250.002 84.2948 250.073C83.8694 250.18 83.5213 250.392 83.5987 250.889C83.6374 251.031 84.0627 251.209 83.6374 251.351C83.3667 251.457 83.0186 251.528 82.8253 251.315C82.0132 250.251 80.6984 249.754 79.7317 248.867C79.1903 248.37 79.1903 248.157 79.9637 247.873C81.2398 247.376 82.5546 247.128 83.792 246.56C85.4162 245.815 87.0403 245.141 88.7418 244.502C92.5702 243.047 96.2439 241.309 100.034 239.889C103.437 238.612 106.646 236.98 110.049 235.667C111.016 235.276 111.905 234.567 113.065 234.779C115.308 235.134 117.512 235.525 119.717 235.915Z" fill="#EBE298"/>
<path d="M184.76 173.428C185.92 172.328 187.235 171.369 188.588 170.447C189.71 169.702 190.792 168.886 191.45 167.679C191.875 166.898 192.842 166.615 193.499 166.011C194.621 164.911 195.897 163.918 197.057 162.782C197.521 162.321 198.488 162.463 198.565 161.611C198.759 161.718 198.913 161.824 199.107 161.931C196.09 171.157 192.107 179.992 186.577 188.295C186.307 187.94 186.384 187.621 186.423 187.337C187.235 184.215 187.08 180.986 187.853 177.863C188.008 177.295 187.931 176.692 187.97 176.089C188.008 175.557 187.505 175.45 187.196 175.202C186.384 174.598 185.34 174.279 184.76 173.428Z" fill="#EBE298"/>
<path d="M104.867 82.3047C104.867 83.9015 104.828 85.5337 104.944 87.1305C105.06 88.5499 104.828 89.9337 104.79 91.3531C104.751 92.8789 104.519 94.3693 104.558 95.8951C104.596 97.1725 104.983 98.4499 104.867 99.7628C104.403 99.6564 104.248 99.266 104.132 98.9112C102.895 94.9015 102.547 90.7499 102.083 86.5982C101.657 82.9079 101.619 79.1821 101.232 75.5272C101.077 74.2143 101 72.9014 101.116 71.553C101.657 71.5885 101.812 71.3401 101.812 70.8433C101.812 70.2401 101.735 69.6014 102.16 69.0691C102.702 68.3949 102.972 67.6498 103.011 66.7981C103.011 66.3369 103.243 66.0175 103.784 65.9465C104.248 66.1949 104.094 66.6207 104.132 66.9756C104.171 68.7498 104.21 70.524 104.21 72.2982C104.171 75.2788 104.674 78.2595 104.519 81.2402C104.364 81.6305 104.364 82.0918 104.867 82.3047Z" fill="#EBE298"/>
<path d="M134.489 130.598C133.715 130.244 133.097 130.634 132.594 131.095C132.014 131.557 131.511 132.053 130.931 132.55C130.66 132.798 130.351 132.976 129.926 132.976C129.694 130.776 129.655 128.576 130.196 126.411C130.39 125.702 130.196 124.992 130.467 124.353C131.124 122.65 131.743 120.982 132.439 119.173C132.826 119.882 132.787 120.556 132.903 121.195C133.29 123.289 133.483 125.382 133.793 127.476C133.986 128.505 134.257 129.534 134.489 130.598Z" fill="#EBE298"/>
<path d="M180.042 65.2013C178.882 65.2013 177.18 66.3014 176.639 67.4014C174.821 68.5723 172.849 69.6014 171.534 71.4465C171.186 70.9143 171.302 70.4885 171.418 70.1691C172.269 68.0756 173.081 65.9465 174.048 63.8884C174.473 62.9659 175.556 62.4691 176.562 62.1142C177.567 61.7949 178.379 62.0788 178.959 62.8949C179.5 63.6046 179.887 64.3497 180.042 65.2013Z" fill="#EBE298"/>
<path d="M80.9691 253.338C82.1679 252.947 83.2893 252.593 84.4107 252.238C85.5708 251.847 86.5763 252.593 87.6977 252.664C87.8911 252.664 88.1618 252.983 87.6977 253.231C86.5376 253.87 85.3388 254.473 84.2561 255.218C83.9467 255.431 83.676 255.289 83.4053 255.112C82.5546 254.58 81.7425 254.047 80.9691 253.338Z" fill="#EBE298"/>
<path d="M169.717 16.659C166.391 16.2687 163.491 14.8493 160.243 14.8139C162.408 13.7848 168.248 14.8848 169.717 16.659Z" fill="#EBE298"/>
<path d="M101.155 244.786C104.326 243.544 107.458 242.373 110.358 240.741C110.397 240.812 110.436 240.918 110.513 240.989C108.773 241.983 107.033 242.976 105.331 243.934C104.751 244.254 104.171 244.538 103.63 244.857C102.818 245.354 102.044 245.673 101.155 244.786Z" fill="#EBE298"/>
<path d="M127.18 135.708C126.948 135.744 126.638 135.815 126.561 136.027C126.368 136.631 125.865 136.595 125.362 136.56C125.517 135.105 125.904 133.686 126.29 132.266C126.406 131.805 126.445 131.344 126.638 130.705C127.296 132.444 127.103 134.076 127.18 135.708Z" fill="#EBE298"/>
<path d="M201.852 162.463C202.548 163.315 202.2 164.592 201.195 164.841C201.504 164.06 201.311 163.173 201.852 162.463Z" fill="#EBE298"/>
<path d="M138.317 56.1174C138.356 56.1174 138.356 56.1531 138.356 56.1531C138.317 56.1888 138.278 56.1888 138.239 56.2244C138.239 56.1888 138.278 56.1531 138.317 56.1174Z" fill="#EBE298"/>
<path d="M179.887 67.2239C179.849 67.1884 179.849 67.1529 179.887 67.1174C180.003 67.1174 180.042 67.1529 180.003 67.2239C179.965 67.2239 179.926 67.2239 179.887 67.2239Z" fill="#EBE298"/>
<path d="M133.677 87.9111C133.213 87.4853 132.787 87.024 132.285 86.6337C131.434 85.9595 131.279 85.2498 131.859 84.3982C131.937 84.5401 131.898 84.7175 132.091 84.753C133.909 84.9659 135.069 86.2079 136.422 87.1305C138.897 88.8337 141.565 90.0756 144.62 90.6434C145.626 90.8208 146.747 90.7853 147.791 90.7498C149.029 90.6789 150.305 90.9273 151.504 90.5369C151.929 90.395 152.47 90.5369 152.548 90.9273C152.625 91.4595 152.045 91.7434 151.542 91.7789C150.305 91.8853 149.106 92.1692 147.83 92.2402C144.195 92.4886 140.947 91.3886 137.66 90.1466C136.19 89.5789 134.992 88.6208 133.677 87.9111Z" fill="black"/>
<path d="M132.555 48.311C131.936 48.382 131.395 48.7723 130.737 48.7368C130.118 48.7368 129.538 48.5594 129.306 48.0626C129.074 47.5659 129.654 47.353 129.964 47.0336C131.279 45.5788 132.903 44.4078 134.604 43.3788C135.61 43.0949 136.538 42.5271 137.698 42.5626C138.278 42.5626 138.819 42.7046 139.322 42.9529C140.095 43.3433 140.173 43.7336 139.554 44.3013C138.085 45.5788 136.383 46.5723 134.643 47.5304C133.985 47.8852 133.328 48.2046 132.555 48.311Z" fill="black"/>
<path d="M159.276 46.8206C157.459 46.7496 156.144 45.7561 154.79 44.869C154.404 44.6206 154.094 44.3012 153.746 44.0174C153.321 43.6625 152.895 43.2367 153.205 42.7399C153.437 42.3851 154.056 42.2432 154.558 42.3141C156.84 42.598 158.696 43.5916 160.281 45.0819C160.591 45.3658 160.784 45.7561 160.552 46.2529C160.243 46.8206 159.74 46.7851 159.276 46.8206Z" fill="black"/>
<path d="M133.793 63.0722C133.87 64.3851 133.483 65.5206 132.903 66.5851C132.439 67.4367 131.55 68.0044 130.545 67.969C129.268 67.898 128.147 67.3302 127.722 66.1238C127.026 64.1722 127.103 62.256 128.302 60.4109C128.959 59.4173 129.848 59.027 131.086 59.1334C132.401 59.2399 132.981 60.0915 133.406 61.0141C133.716 61.6883 133.948 62.4334 133.793 63.0722Z" fill="black"/>
<path d="M161.287 62.3272C161.248 63.4981 161.132 64.811 160.088 65.911C158.851 67.2239 156.337 67.011 155.602 65.0949C155.138 63.9239 154.945 62.682 154.984 61.4046C155.022 60.2691 155.602 59.382 156.492 58.7078C157.845 57.6433 160.204 58.2465 160.9 59.7368C161.326 60.5175 161.287 61.2981 161.287 62.3272Z" fill="black"/>
<g clip-path="url(#clip0)">
<path d="M159.899 205.187C159.897 205.166 159.895 205.15 159.893 205.13C159.864 204.98 159.771 204.865 159.625 204.797C159.594 204.783 159.559 204.77 159.529 204.757C159.424 204.717 156.844 203.737 156.844 203.737C156.619 203.652 156.394 203.566 156.168 203.481L159.25 201.574C159.273 201.56 159.301 201.545 159.327 201.522C159.494 201.394 159.552 201.195 159.481 201.017C159.431 200.898 159.33 200.805 159.18 200.749C158.715 200.575 158.249 200.398 157.788 200.219L155.194 199.249C155.169 199.239 155.139 199.229 155.114 199.22C155.064 199.2 155.014 199.184 154.964 199.164C154.864 199.124 154.761 199.109 154.656 199.119C154.551 199.129 154.453 199.164 154.362 199.226C154.357 199.222 154.353 199.227 154.348 199.227L152.167 200.578C151.639 200.904 151.093 201.241 150.555 201.573C150.355 201.695 150.265 201.86 150.284 202.064C150.381 203.064 150.48 204.085 150.575 205.069L150.662 205.966C150.665 205.999 150.668 206.032 150.671 206.06C150.679 206.142 150.72 206.22 150.79 206.292C150.838 206.345 150.905 206.384 150.99 206.417C151.08 206.454 154.396 207.709 154.396 207.709C153.959 207.978 151.341 209.597 151.341 209.597C151.313 209.612 151.286 209.631 151.255 209.654C151.115 209.754 151.038 209.906 151.053 210.061C151.068 210.216 151.172 210.35 151.334 210.421C151.354 210.428 151.369 210.438 151.389 210.445L155.155 211.871L155.291 211.924C155.396 211.963 155.501 212.003 155.601 212.042C155.702 212.082 155.805 212.097 155.905 212.087C156.01 212.077 156.103 212.044 156.194 211.985L156.213 211.975L159.905 209.693L159.941 209.669C159.983 209.644 160.019 209.62 160.06 209.596C160.21 209.499 160.288 209.356 160.281 209.191C160.28 209.175 160.279 209.163 160.277 209.146L159.899 205.187ZM155.94 206.762C155.862 205.953 155.784 205.145 155.706 204.337C155.751 204.353 158.285 205.313 158.285 205.313C158.221 205.348 155.94 206.762 155.94 206.762ZM158.669 209.33L156.328 210.778C156.25 209.97 156.172 209.162 156.094 208.357C156.189 208.39 158.669 209.33 158.669 209.33ZM156.557 207.506C157.336 207.023 158.114 206.54 158.893 206.062C158.971 206.87 159.049 207.674 159.127 208.482C159.061 208.452 157.239 207.766 156.557 207.506ZM155.312 200.317C156.173 200.642 157.03 200.968 157.891 201.293C157.108 201.776 156.33 202.258 155.547 202.741L155.312 200.317ZM154.859 206.861C154.204 206.619 152.921 206.133 152.28 205.889C153.063 205.406 153.846 204.919 154.63 204.436C154.693 205.044 154.805 206.248 154.859 206.861ZM151.896 201.868C152.679 201.385 153.458 200.903 154.236 200.42C154.315 201.228 154.393 202.037 154.471 202.845C153.614 202.519 152.758 202.194 151.896 201.868ZM151.438 202.716C151.448 202.719 154.012 203.692 154.012 203.692C153.229 204.175 152.451 204.658 151.667 205.141C151.605 204.541 151.493 203.333 151.438 202.716ZM155.253 210.885C154.617 210.646 153.33 210.155 152.678 209.905C152.687 209.9 155.014 208.461 155.014 208.461C155.078 209.077 155.195 210.285 155.253 210.885Z" fill="white"/>
</g>
<defs>
<clipPath id="clip0">
<rect width="9.26944" height="13.0404" fill="white" transform="matrix(0.995423 -0.0955703 0.0962501 0.995357 150.042 199.558)"/>
</clipPath>
</defs>
</svg>
