<svg width="493" height="307" viewBox="0 0 493 307" fill="none" xmlns="http://www.w3.org/2000/svg">
<path d="M402.21 221.435C465.479 214.736 507.92 163.739 488.075 106.215C462.655 32.5282 402.21 108.895 316.345 41.9069C230.48 -25.0814 135.508 -6.55066 91.3305 60.663C61.3907 106.215 0 98.1764 0 190.62C0 247.56 85.6814 232.153 142.172 221.435C198.662 210.717 198.662 261.628 274.924 267.657C351.186 273.686 338.941 228.134 402.21 221.435Z" fill="#F1F8FE"/>
<g clip-path="url(#clip0)">
<path d="M167.661 130.365C166.973 129.881 166.348 129.427 165.754 128.974C162.69 126.615 160.346 123.682 158.658 120.265C157.908 118.753 157.376 117.18 156.939 115.547C156.032 112.342 155.938 109.106 156.095 105.84C156.157 104.691 156.47 103.572 156.626 102.423C156.845 100.941 157.376 99.5197 157.908 98.0984C159.002 95.2255 160.69 92.6551 162.69 90.2964C164.441 88.24 166.473 86.4861 168.817 85.1253C170.474 84.1576 172.225 83.3713 174.038 82.7665C175.663 82.2222 177.351 81.9803 179.008 81.6476C179.196 81.6174 179.383 81.6174 179.54 81.6174C180.884 81.5569 182.228 81.4964 183.572 81.4359C183.728 81.4359 183.916 81.3754 184.229 81.315C184.041 81.0126 183.885 80.8009 183.728 80.5892C182.603 79.0772 181.446 77.5651 180.634 75.8717C179.883 74.3294 179.227 72.7267 178.758 71.0635C178.258 69.2188 178.602 67.5556 179.477 65.9226C180.04 64.8642 181.009 64.1989 182.134 63.7755C184.041 63.0498 186.042 62.7474 188.042 62.6566C189.387 62.5962 190.668 63.0195 191.825 63.5941C193.826 64.5618 195.764 65.6504 197.733 66.6786C199.859 67.7673 201.922 68.9164 204.11 69.8538C206.173 70.7308 208.08 71.8497 210.018 72.9081C211.144 73.5432 212.363 74.027 213.519 74.6016C216.208 75.9624 218.896 77.3232 221.616 78.6538C222.991 79.3493 224.398 79.9844 225.773 80.6194C225.867 80.6497 226.023 80.6194 226.18 80.5892C225.992 79.8332 225.805 79.1074 225.617 78.3816C225.461 77.7466 225.242 77.1418 225.117 76.5067C224.961 75.6902 224.867 74.8738 224.742 74.0573C224.554 72.9988 224.367 71.9404 224.21 70.882C224.179 70.7913 224.179 70.6703 224.179 70.5796C223.929 68.4023 223.804 66.225 223.46 64.0779C222.835 60.2979 222.804 56.4574 222.866 52.6471C222.897 49.7742 222.866 46.9014 222.96 44.0285C222.991 42.7887 223.273 41.5488 223.46 40.309C223.741 38.4946 224.398 36.7709 225.117 35.0774C225.648 33.8375 226.305 32.6582 227.243 31.63C228.993 29.6946 231.181 28.7874 233.838 29.0293C234.776 29.12 235.558 29.6644 236.371 30.0575C237.652 30.6925 238.34 31.8417 239.09 32.9303C240.216 34.6238 240.935 36.4987 241.653 38.3434C242.216 39.7647 242.81 41.1859 243.31 42.6072C243.842 44.0285 244.311 45.4801 244.78 46.9316C244.936 47.4155 245.03 47.476 245.436 47.2038C248.031 45.601 250.625 45.7522 253.188 47.234C254.783 48.1412 256.002 49.4113 257.096 50.8024C258.159 52.1632 259.159 53.5845 259.909 55.157C260.535 56.4574 260.941 57.8182 261.316 59.179C261.691 60.5398 262.066 61.8704 262.473 63.2312C262.91 64.6827 263.348 66.104 263.786 67.5253C264.161 68.7954 264.598 70.0353 264.974 71.3054C265.317 72.515 265.63 73.7246 266.005 74.904C266.599 76.7487 267.224 78.5631 267.849 80.3775C267.881 80.438 267.943 80.4985 268.006 80.5892C268.256 80.1961 268.537 79.8332 268.756 79.4703C269.569 78.0188 270.913 77.172 272.476 76.7789C273.32 76.5672 274.289 76.6882 275.196 76.6882C276.258 76.7184 277.228 77.0208 278.103 77.5954C278.665 77.9583 279.228 78.4119 279.635 78.9562C281.416 81.315 282.823 83.8854 283.792 86.6675C284.449 88.5424 285.199 90.4173 285.855 92.3225C286.355 93.8042 286.793 95.3465 287.231 96.8585C287.606 98.2193 288.012 99.5499 288.356 100.911C288.731 102.332 289.075 103.784 289.45 105.205C289.669 106.021 289.919 106.838 290.138 107.654C290.419 108.652 290.701 109.68 290.982 110.678C291.357 111.918 291.732 113.158 292.107 114.428C292.451 115.638 292.826 116.817 293.17 118.027C293.545 119.357 293.952 120.658 294.296 121.988C294.577 122.986 294.796 123.984 295.046 124.982C295.296 126.01 295.577 127.008 295.859 128.036C296.015 128.641 296.14 129.246 296.265 129.881C296.452 130.667 296.609 131.454 296.796 132.21C296.921 132.784 297.046 133.389 297.171 133.964C297.515 135.536 297.859 137.078 298.172 138.651C298.484 140.193 298.797 141.735 299.11 143.278C299.641 145.878 300.047 148.479 300.016 151.11C300.016 152.561 300.141 154.013 300.141 155.495C300.11 158.156 300.016 160.817 299.922 163.478C299.829 165.807 299.829 168.165 299.578 170.494C299.328 172.641 299.453 174.758 299.266 176.905C299.235 177.358 299.297 177.812 299.297 178.266C299.235 180.171 299.11 182.076 299.11 183.981C299.11 186.007 299.266 188.064 299.328 190.09C299.36 191.118 299.328 192.146 299.422 193.174C299.547 194.626 299.735 196.047 299.922 197.499C300.016 198.376 300.141 199.253 300.297 200.099C300.548 201.4 300.86 202.7 301.142 204C301.267 204.575 301.392 205.18 301.548 205.754C301.923 207.206 302.329 208.657 302.736 210.109C303.08 211.288 303.392 212.468 303.767 213.647C304.205 215.038 304.674 216.399 305.143 217.79C305.612 219.12 306.081 220.451 306.55 221.751C307.112 223.233 307.675 224.685 308.269 226.166C309.05 228.132 309.801 230.128 310.676 232.094C311.207 233.273 311.864 234.422 312.52 235.541C314.083 238.172 315.709 240.773 317.272 243.404C318.553 245.581 319.741 247.819 321.054 249.966C322.43 252.203 323.899 254.411 325.431 256.588C327.744 259.854 330.182 263.09 332.558 266.326C333.558 267.717 334.559 269.108 335.59 270.469C336.278 271.376 337.091 272.192 337.841 273.039C339.154 274.551 340.498 276.003 341.78 277.545C343.78 279.934 345.75 282.383 347.719 284.833C348.157 285.377 348.501 286.012 348.907 286.587C349.157 286.95 348.907 287.766 348.438 288.008C347.406 288.552 346.281 288.734 345.125 288.734C344.874 288.734 344.624 288.431 344.437 288.19C343.124 286.617 341.811 285.045 340.498 283.472C338.966 281.627 337.435 279.783 335.934 277.908C334.246 275.821 332.589 273.704 330.932 271.588C328.9 268.987 326.837 266.416 324.837 263.786C322.648 260.913 320.46 258.01 318.335 255.076C317.084 253.353 315.865 251.599 314.771 249.784C313.739 248.091 312.958 246.276 311.989 244.553C310.801 242.466 309.488 240.41 308.331 238.323C306.8 235.541 305.237 232.759 303.861 229.916C302.673 227.467 301.673 224.927 300.704 222.356C299.954 220.421 299.36 218.425 298.734 216.459C298.141 214.584 297.515 212.71 296.953 210.804C296.452 209.081 296.046 207.327 295.608 205.573C295.202 203.94 294.796 202.307 294.452 200.674C294.264 199.827 294.171 198.95 294.045 198.073C293.889 196.894 293.702 195.684 293.545 194.505C293.483 193.96 293.483 193.386 293.42 192.842C293.045 188.608 293.139 184.404 293.139 180.171C293.139 179.173 293.233 178.175 293.295 177.147C293.358 175.725 293.389 174.334 293.483 172.913C293.577 171.189 293.702 169.466 293.827 167.712C293.952 166.139 294.108 164.567 294.202 162.994C294.296 161.301 294.358 159.638 294.421 157.944C294.483 155.797 294.639 153.68 294.608 151.533C294.577 149.84 294.358 148.116 294.17 146.423C294.077 145.515 293.92 144.578 293.764 143.671C293.608 142.733 293.389 141.796 293.233 140.858C293.108 140.284 292.983 139.679 292.889 139.104C292.545 137.32 292.232 135.566 291.857 133.782C291.482 131.998 291.107 130.214 290.701 128.43C290.357 126.827 290.013 125.194 289.638 123.591C289.294 122.17 288.888 120.748 288.512 119.297C288.169 117.906 287.825 116.515 287.481 115.154C287.137 113.884 286.762 112.584 286.387 111.313C286.012 110.074 285.668 108.803 285.293 107.564C284.918 106.294 284.511 105.023 284.167 103.753C283.886 102.786 283.698 101.818 283.448 100.82C283.073 99.3987 282.698 97.9472 282.323 96.5259C282.073 95.6187 281.823 94.6812 281.573 93.774C281.354 92.9575 281.073 92.141 280.822 91.3245C280.572 90.4778 280.291 89.6008 280.01 88.7541C279.322 86.3953 278.54 84.0971 277.321 81.9198C276.759 80.9218 276.196 79.9239 275.352 79.1074C275.258 79.0167 275.133 78.8957 275.008 78.805C274.07 78.1397 273.664 78.1397 272.882 78.926C272.07 79.7727 271.538 80.8009 271.194 81.8895C270.538 84.0971 270.6 86.3651 270.788 88.6331C270.85 89.5101 271.319 90.3568 271.632 91.1733C272.32 92.9878 273.132 94.7719 273.758 96.6166C274.445 98.6427 275.008 100.729 275.665 102.786C276.196 104.479 276.821 106.142 277.384 107.836C277.978 109.59 278.54 111.374 279.072 113.128C279.478 114.519 279.885 115.91 280.26 117.331C280.635 118.692 280.916 120.053 281.291 121.414C281.541 122.321 281.823 123.228 282.073 124.166C282.26 124.891 282.417 125.617 282.51 126.373C282.636 127.25 282.761 128.097 282.823 128.974C282.886 129.76 282.448 130.153 281.635 130.244C280.541 130.365 280.166 130.183 279.76 129.216C278.478 126.222 277.196 123.228 275.915 120.234C275.008 118.087 274.102 115.94 273.257 113.793C272.163 111.011 271.069 108.199 270.006 105.386C269.256 103.39 268.568 101.364 267.912 99.3685C267.256 97.4633 266.63 95.528 266.036 93.5926C265.63 92.262 265.349 90.9314 264.974 89.6008C264.63 88.361 264.223 87.1816 263.848 85.9417C263.192 83.8249 262.504 81.7081 261.879 79.561C261.441 78.049 261.035 76.537 260.628 75.025C260.128 73.2105 259.659 71.3961 259.159 69.5817C258.659 67.737 258.096 65.9226 257.596 64.1082C257.221 62.6566 256.94 61.1749 256.565 59.7233C255.939 57.3041 255.033 55.0058 253.595 52.9495C252.938 52.012 252.282 51.0443 251.532 50.1673C250.906 49.4718 250.156 48.8973 249.437 48.3227C248.906 47.8691 248.531 47.99 248.187 48.5948C247.812 49.2904 247.499 49.9859 247.28 50.7419C246.811 52.4354 246.624 54.1591 246.874 55.8828C246.936 56.3969 247.093 56.911 247.218 57.425C247.499 58.6347 247.78 59.8745 248.062 61.0841C248.187 61.6587 248.312 62.203 248.437 62.7776C248.781 64.3501 249.093 65.9226 249.469 67.4649C249.812 68.8257 250.219 70.1563 250.594 71.5171C250.969 72.8779 251.282 74.2387 251.625 75.5995C252.001 76.9603 252.407 78.2909 252.782 79.6215C253.126 80.8916 253.47 82.1919 253.814 83.462C254.158 84.7019 254.564 85.9417 254.939 87.1816C255.189 88.0283 255.408 88.8751 255.658 89.7218C256.002 90.9012 256.408 92.0503 256.783 93.2297C257.159 94.4091 257.534 95.6187 257.877 96.8283C258.253 98.1286 258.628 99.429 259.003 100.729C259.347 101.999 259.691 103.3 260.066 104.57C260.41 105.719 260.753 106.868 261.097 108.017C261.379 108.985 261.629 109.953 261.91 110.89C262.191 111.918 262.473 112.977 262.754 114.005C262.91 114.61 263.035 115.214 263.192 115.85C263.536 117.18 263.848 118.511 264.255 119.841C264.911 121.898 265.317 123.984 264.911 126.131C264.817 126.585 264.755 127.008 264.13 127.129C263.567 127.22 263.411 127.19 263.16 126.676C262.16 124.377 261.129 122.109 260.191 119.781C259.753 118.662 259.472 117.482 259.128 116.333C258.69 114.973 258.253 113.612 257.815 112.251C257.44 111.132 257.033 110.043 256.658 108.924C256.158 107.443 255.658 105.991 255.22 104.509C254.939 103.542 254.72 102.574 254.47 101.606C254.126 100.397 253.782 99.2173 253.407 98.0077C253.032 96.798 252.657 95.5582 252.282 94.3486C252.001 93.4414 251.719 92.5342 251.469 91.6269C251.188 90.6592 250.969 89.6916 250.719 88.7239C250.469 87.8166 250.219 86.8792 249.969 85.972C249.719 85.095 249.437 84.1878 249.187 83.3108C248.781 81.8895 248.374 80.4682 247.999 79.0469C247.749 78.1095 247.53 77.1418 247.28 76.2043C247.03 75.2064 246.718 74.2387 246.468 73.2408C246.217 72.3336 245.999 71.3961 245.749 70.4587C245.467 69.3095 245.186 68.1906 244.905 67.0415C244.78 66.4669 244.654 65.9226 244.529 65.348C244.186 63.5638 243.873 61.7494 243.498 59.9652C243.185 58.5742 242.748 57.2134 242.404 55.8223C242.154 54.8546 241.935 53.8869 241.685 52.889C241.403 51.7398 241.122 50.5907 240.841 49.4718C240.622 48.5948 240.403 47.7179 240.153 46.8711C239.809 45.722 239.497 44.5729 239.121 43.4237C238.778 42.3048 238.371 41.1859 237.996 40.0671C237.558 38.7365 237.121 37.4059 236.714 36.0451C236.339 34.8052 235.808 33.6258 235.12 32.507C234.557 31.5997 233.651 31.2066 232.682 30.9042C232.119 30.7228 231.713 31.0554 231.4 31.4485C229.962 33.2025 228.868 35.1076 228.149 37.2547C227.524 39.1598 227.211 41.0952 227.118 43.0911C227.024 44.8753 226.961 46.6595 226.992 48.4436C227.024 49.9859 227.18 51.5584 227.274 53.1007C227.399 54.9453 227.493 56.7598 227.649 58.6044C227.774 59.814 227.993 61.0237 228.18 62.2333C228.305 63.2614 228.399 64.2896 228.556 65.2875C228.712 66.346 228.899 67.4044 229.087 68.4628C229.087 68.5233 229.118 68.614 229.118 68.6745C229.243 69.9446 229.368 71.2147 229.525 72.4848C229.65 73.5734 229.868 74.6621 230.025 75.7507C230.15 76.6277 230.275 77.4744 230.431 78.3514C230.525 78.9864 230.65 79.6215 230.775 80.2868C230.931 81.194 231.119 82.1012 231.275 83.0084C231.338 83.3411 231.369 83.704 231.338 84.0668C231.306 84.4902 231.463 84.8531 231.744 85.1555C233.088 86.4558 233.807 88.1191 234.464 89.7823C235.151 91.5665 235.839 93.3204 236.496 95.1046C237.09 96.6771 237.652 98.2496 238.215 99.8221C238.809 101.455 239.403 103.118 239.997 104.751C240.559 106.324 241.122 107.896 241.685 109.469C242.185 110.86 242.685 112.251 243.123 113.642C243.498 114.852 243.81 116.091 244.154 117.331C244.561 118.813 244.936 120.265 245.342 121.746C245.686 123.077 245.999 124.438 246.343 125.768C246.686 127.038 247.093 128.248 247.437 129.518C247.718 130.516 248.031 131.544 248.249 132.572C248.312 132.905 248.625 133.207 248.406 133.631C248.062 134.357 247.249 134.72 246.53 134.326C245.624 133.873 245.186 133.026 244.811 132.179C244.217 130.819 243.592 129.458 243.06 128.036C242.56 126.676 242.122 125.285 241.685 123.893C241.278 122.623 240.903 121.353 240.497 120.083C240.153 118.995 239.84 117.936 239.497 116.847C238.59 114.156 237.652 111.495 236.746 108.834C236.089 106.989 235.464 105.144 234.776 103.33C233.682 100.366 232.557 97.4331 231.463 94.4998C230.994 93.1692 230.587 91.8386 230.119 90.508C229.65 89.2077 229.118 87.9074 228.556 86.607C228.43 86.3349 228.149 86.0929 227.868 85.9115C225.461 84.4902 223.054 83.0387 220.522 81.7686C218.552 80.7706 216.677 79.6517 214.77 78.5933C213.019 77.6559 211.331 76.6579 209.518 75.9019C207.33 74.9645 205.235 73.8153 203.141 72.7267C202.047 72.1824 200.859 71.7892 199.765 71.2751C199.077 70.9727 198.452 70.6099 197.796 70.247C195.857 69.1583 193.919 68.0697 192.012 66.981C190.918 66.3762 189.855 65.7109 188.761 65.1061C188.449 64.9247 188.105 64.8037 187.792 64.6525C186.479 63.9872 184.072 65.1061 183.635 66.4367C183.385 67.1625 183.166 67.9185 183.103 68.7047C183.041 69.249 183.228 69.8538 183.416 70.3982C184.479 73.392 186.167 76.0229 188.261 78.4119C189.949 80.3775 191.637 82.3129 193.575 84.0366C194.232 84.6112 195.013 85.095 195.732 85.5789C197.358 86.728 198.796 88.0888 200.078 89.5706C201.14 90.7802 202.391 91.7479 203.579 92.7761C204.485 93.5623 205.392 94.3486 206.33 95.0743C206.673 95.3465 207.111 95.5582 207.517 95.7396C211.112 97.2819 213.738 99.7314 215.364 103.209C215.739 103.995 215.864 104.872 216.114 105.719C216.364 106.535 216.552 107.352 216.833 108.168C217.302 109.559 217.802 110.92 218.271 112.281C218.677 113.461 219.084 114.64 219.459 115.85C219.834 117.089 220.147 118.359 220.49 119.63C220.74 120.537 220.959 121.474 221.209 122.381C221.366 123.047 221.553 123.682 221.71 124.347C222.022 125.617 222.303 126.857 222.616 128.127C222.835 129.125 223.085 130.123 223.304 131.121C223.585 132.451 223.898 133.752 224.179 135.082C224.335 135.778 224.398 136.504 224.554 137.229C224.836 138.469 225.179 139.709 225.429 140.949C225.586 141.735 225.648 142.552 225.805 143.338C226.055 144.669 226.18 145.999 226.649 147.3C226.992 148.297 227.18 149.326 227.368 150.354C227.586 151.624 227.837 152.864 227.93 154.134C228.18 157.037 228.055 159.91 227.899 162.813C227.837 163.962 227.586 165.081 227.399 166.23C227.368 166.381 227.368 166.532 227.368 166.684C227.243 168.226 227.18 169.738 226.961 171.28C226.805 172.369 226.774 173.488 226.274 174.516C225.398 176.3 224.023 177.57 222.085 178.266C220.459 178.871 218.771 178.991 217.114 178.81C215.27 178.598 213.363 178.235 211.925 177.056C210.581 175.967 209.143 175 207.768 173.972C205.329 172.097 203.172 169.919 201.14 167.621C198.358 164.506 195.889 161.18 193.732 157.642C193.325 156.946 192.856 156.281 192.513 155.555C192.044 154.618 191.387 153.831 190.699 153.075C188.855 150.959 187.011 148.842 185.198 146.725C183.697 144.971 182.259 143.217 180.728 141.493C178.696 139.195 176.601 136.927 174.194 134.961C173.163 134.145 172.131 133.298 170.818 132.845C170.349 132.693 169.88 132.603 169.38 132.542C169.13 132.512 168.942 132.633 168.88 132.905C168.692 133.691 168.38 134.447 168.349 135.234C168.286 137.804 168.223 140.374 168.349 142.945C168.411 144.124 168.786 145.304 169.13 146.453C169.536 147.935 170.037 149.386 170.505 150.807C171.287 153.166 172.131 155.555 172.912 157.914C174.194 161.754 175.851 165.444 177.57 169.133C179.008 172.187 180.384 175.272 181.728 178.387C182.884 181.078 184.01 183.8 185.073 186.521C185.885 188.608 186.573 190.725 187.386 192.781C187.855 193.96 188.418 195.11 188.918 196.289C189.512 197.71 190.074 199.162 190.731 200.583C191.669 202.639 192.638 204.666 193.669 206.692C194.482 208.264 195.17 209.867 195.764 211.5C196.545 213.647 197.608 215.673 198.765 217.639C199.796 219.423 201.109 221.026 202.391 222.628C203.61 224.14 204.86 225.622 206.173 227.043C207.58 228.555 209.143 229.947 210.862 231.156C212.175 232.094 213.582 232.971 214.989 233.787C216.864 234.876 218.74 235.964 220.678 236.962C223.898 238.656 227.149 240.319 230.4 241.982C230.931 242.254 231.463 242.557 231.994 242.889C233.276 243.736 234.557 244.583 235.777 245.49C238.027 247.123 239.809 249.21 241.403 251.417C243.06 253.715 244.561 256.135 246.217 258.433C248.124 261.034 249.875 263.725 251.532 266.477C253.72 270.166 255.908 273.856 258.003 277.605C259.284 279.843 260.472 282.141 261.629 284.44C262.754 286.678 263.817 288.946 264.849 291.244C265.911 293.633 266.912 296.082 267.912 298.502C268.787 300.649 269.6 302.796 270.413 304.943C270.538 305.275 270.6 305.608 270.725 305.941C270.819 306.273 270.632 306.485 270.382 306.636C269.412 307.181 268.35 306.999 267.724 306.092C266.88 304.852 266.068 303.582 265.255 302.312C264.442 301.072 263.661 299.832 262.879 298.562C261.754 296.748 260.628 294.933 259.566 293.088C257.971 290.306 256.408 287.494 254.845 284.712C253.626 282.504 252.438 280.267 251.157 278.089C249.562 275.337 247.937 272.586 246.343 269.834C245.248 267.959 244.217 266.023 243.091 264.179C241.622 261.729 240.122 259.28 238.527 256.891C237.183 254.865 235.745 252.899 234.245 250.964C233.182 249.603 231.994 248.302 230.775 247.032C230.369 246.609 229.806 246.276 229.274 246.004C225.617 244.099 221.96 242.254 218.302 240.379C215.176 238.777 212.206 236.932 209.237 235.087C206.173 233.182 203.485 230.824 201.172 228.102C199.609 226.257 198.014 224.413 196.514 222.538C194.763 220.391 193.2 218.123 192.044 215.582C191.418 214.252 190.699 212.951 190.074 211.621C189.543 210.472 189.136 209.292 188.636 208.143C187.699 206.087 186.667 204.091 185.729 202.035C185.104 200.674 184.541 199.283 183.979 197.892C183.385 196.47 182.822 195.079 182.259 193.658C181.853 192.63 181.509 191.602 181.134 190.543C180.79 189.636 180.477 188.699 180.134 187.791C179.446 186.007 178.758 184.253 178.008 182.499C177.258 180.745 176.445 179.022 175.663 177.268C174.976 175.695 174.288 174.093 173.6 172.52C172.944 171.038 172.287 169.556 171.662 168.044C171.131 166.805 170.662 165.534 170.193 164.264C169.693 162.964 169.224 161.694 168.755 160.394C168.38 159.305 168.036 158.216 167.661 157.128C167.223 155.827 166.785 154.527 166.317 153.227C165.848 151.896 165.316 150.596 164.879 149.295C164.472 148.146 164.066 146.967 163.753 145.788C163.534 144.971 163.409 144.124 163.316 143.278C163.222 142.552 163.159 141.826 163.191 141.1C163.222 139.558 163.222 137.985 163.409 136.443C163.566 135.234 163.941 134.054 164.316 132.875C164.535 132.179 165.222 131.816 165.816 131.454C166.285 131.091 166.942 130.758 167.661 130.365ZM180.759 133.631C180.728 133.691 180.696 133.752 180.634 133.812C180.79 133.933 180.946 134.054 181.103 134.175C181.822 134.75 182.541 135.294 183.197 135.929C185.76 138.318 188.042 140.949 190.137 143.701C193.013 147.451 195.826 151.291 198.64 155.071C198.827 155.313 199.015 155.585 199.015 155.858C199.046 156.251 199.234 156.493 199.484 156.765C200.453 157.823 201.422 158.882 202.391 159.97C203.735 161.482 205.017 163.025 206.33 164.567C208.612 167.167 210.862 169.768 213.394 172.157C215.051 173.699 216.958 174.576 219.177 174.939C220.115 175.09 220.49 174.818 220.615 173.941C220.74 173.064 220.866 172.218 220.897 171.341C221.022 169.375 221.303 167.44 221.209 165.474C221.178 164.839 221.209 164.204 221.272 163.599C221.584 161.059 221.616 158.519 221.522 155.979C221.459 154.739 221.303 153.469 221.178 152.229C221.084 151.382 220.959 150.535 220.803 149.689C220.553 148.328 220.272 146.997 219.959 145.636C219.615 144.094 219.24 142.552 218.896 141.04C218.646 140.042 218.365 139.074 218.146 138.076C217.958 137.229 217.896 136.383 217.739 135.566C217.646 134.931 217.521 134.296 217.396 133.661C217.146 132.331 216.77 131.03 216.614 129.669C216.333 127.613 216.176 125.526 215.958 123.47C215.864 122.563 215.708 121.686 215.551 120.809C215.27 119.297 214.989 117.815 214.645 116.303C214.426 115.335 214.145 114.368 213.863 113.4C213.613 112.553 213.394 111.707 213.113 110.89C212.707 109.832 212.582 108.683 211.956 107.654C210.831 105.779 209.799 103.874 208.768 101.939C208.518 101.455 208.111 101.183 207.642 100.971C207.236 100.79 206.861 100.608 206.455 100.457C206.298 100.397 206.142 100.366 205.861 100.306C205.892 100.699 205.923 100.971 205.986 101.274C206.142 102.151 206.423 103.028 206.486 103.935C206.673 106.747 206.611 109.56 205.986 112.342C205.579 114.217 205.017 116.031 204.266 117.755C203.391 119.841 202.203 121.746 200.765 123.531C198.796 126.01 196.451 128.127 193.7 129.821C191.356 131.272 188.824 132.27 186.136 132.935C184.479 133.328 182.791 133.601 181.071 133.631C181.009 133.57 180.884 133.631 180.759 133.631Z" fill="black"/>
<path d="M162.908 65.2884C164.19 65.0465 165.065 65.9234 165.816 66.9214C166.691 68.131 167.535 69.4011 168.285 70.7014C168.692 71.4272 168.91 72.2739 169.098 73.0904C169.348 74.1488 168.942 74.6932 167.816 74.8746C166.347 75.1165 165.128 74.8141 164.003 73.7557C162.502 72.3344 161.502 70.6409 160.689 68.7963C160.408 68.1915 160.22 67.5262 160.033 66.8911C159.907 66.4375 160.158 66.1351 160.533 65.8932C161.377 65.3791 161.596 65.2884 162.908 65.2884Z" fill="black"/>
<path d="M170.067 68.2214C170.098 66.8001 170.255 65.8022 170.692 64.8648C171.005 64.1692 172.38 64.018 172.88 64.6228C173.131 64.9252 173.349 65.2881 173.474 65.651C173.756 66.6489 173.912 67.6771 173.662 68.7053C173.506 69.3403 173.443 69.9754 173.256 70.6104C173.131 71.064 172.224 71.3664 171.599 71.2757C170.942 71.185 170.536 70.8221 170.442 70.2475C170.255 69.4311 170.13 68.6448 170.067 68.2214Z" fill="black"/>
<g clip-path="url(#clip1)">
<path d="M192.028 110.441C192.042 110.392 192.054 110.352 192.068 110.302C192.136 109.923 192.016 109.569 191.723 109.278C191.662 109.219 191.589 109.157 191.528 109.098C191.309 108.911 185.953 104.3 185.953 104.3C185.485 103.898 185.017 103.495 184.549 103.093L193.791 101.342C193.86 101.328 193.94 101.317 194.027 101.286C194.548 101.135 194.872 100.716 194.866 100.232C194.855 99.9074 194.696 99.5975 194.383 99.3325C193.414 98.5079 192.447 97.6734 191.492 96.8421L186.095 92.2415C186.043 92.1957 185.979 92.1466 185.927 92.1008C185.824 92.0091 185.718 91.9275 185.614 91.8358C185.408 91.6525 185.172 91.5258 184.907 91.4559C184.643 91.386 184.373 91.3791 184.096 91.4453C184.087 91.4321 184.072 91.4389 184.06 91.4358L177.52 92.6778C175.936 92.9777 174.299 93.2849 172.689 93.5885C172.089 93.6982 171.718 94.0075 171.577 94.5065C170.888 96.9516 170.185 99.4467 169.507 101.852L168.889 104.048C168.866 104.127 168.844 104.207 168.824 104.277C168.768 104.477 168.796 104.699 168.898 104.929C168.967 105.098 169.093 105.249 169.269 105.403C169.455 105.57 176.343 111.486 176.343 111.486C175.033 111.73 167.184 113.216 167.184 113.216C167.103 113.227 167.02 113.248 166.922 113.275C166.49 113.386 166.163 113.675 166.056 114.054C165.949 114.434 166.079 114.843 166.405 115.155C166.447 115.187 166.475 115.227 166.518 115.259L174.342 121.981L174.621 122.227C174.84 122.413 175.059 122.6 175.266 122.783C175.473 122.966 175.708 123.093 175.961 123.16C176.226 123.23 176.483 123.233 176.757 123.177L176.811 123.17L187.881 121.077L187.992 121.052C188.114 121.031 188.224 121.007 188.347 120.985C188.8 120.891 189.121 120.622 189.258 120.229C189.269 120.189 189.277 120.159 189.289 120.119L192.028 110.441ZM180.965 110.628C181.522 108.652 182.079 106.675 182.636 104.699C182.73 104.778 187.995 109.3 187.995 109.3C187.807 109.326 180.965 110.628 180.965 110.628ZM185.216 119.118L178.198 120.448C178.755 118.472 179.312 116.496 179.866 114.53C180.066 114.69 185.216 119.118 185.216 119.118ZM181.776 112.933C184.111 112.488 186.446 112.044 188.779 111.609C188.222 113.585 187.668 115.552 187.111 117.528C186.98 117.396 183.19 114.154 181.776 112.933ZM185.394 94.8658C187.184 96.4006 188.962 97.9321 190.753 99.4668C188.406 99.9082 186.071 100.353 183.723 100.794L185.394 94.8658ZM178.25 109.899C176.883 108.744 174.22 106.454 172.888 105.308C175.235 104.867 177.585 104.416 179.933 103.974C179.526 105.465 178.684 108.405 178.25 109.899ZM175.67 95.481C178.018 95.0397 180.353 94.5952 182.688 94.1507C182.131 96.1267 181.574 98.1028 181.017 100.079C179.239 98.5473 177.461 97.0158 175.67 95.481ZM173.775 97.0712C173.796 97.0875 179.122 101.669 179.122 101.669C176.775 102.11 174.44 102.555 172.092 102.996C172.494 101.526 173.338 98.575 173.775 97.0712ZM175.489 119.743C174.167 118.611 171.495 116.307 170.145 115.135C170.172 115.131 177.148 113.812 177.148 113.812C176.735 115.322 175.903 118.276 175.489 119.743Z" fill="white"/>
</g>
</g>
<path d="M100.5 49L168.5 88.5L157.5 116.5L144.5 108.5V102.5L136.5 105L127 98.5V91.5L121.5 95.5L118.5 93.5V86.5L112 90L99 81V75.5L92.5 78.5L82.5 72L81 52L100.5 49Z" fill="black"/>
<defs>
<clipPath id="clip0">
<rect width="193" height="278" fill="white" transform="translate(156 29)"/>
</clipPath>
<clipPath id="clip1">
<rect width="24.0099" height="32.9727" fill="white" transform="matrix(0.96681 0.255498 -0.271216 0.962519 173.304 88.3787)"/>
</clipPath>
</defs>
</svg>
