<svg width="136" height="35" viewBox="0 0 136 35" fill="none" xmlns="http://www.w3.org/2000/svg">
<g clip-path="url(#clip0)">
<path d="M20 17.566C20 17.511 20 17.467 20 17.4119C19.9689 17.0047 19.7927 16.6745 19.4922 16.4544C19.43 16.4104 19.3575 16.3663 19.2953 16.3223C19.0777 16.1902 13.7409 12.9104 13.7409 12.9104C13.2746 12.6242 12.8083 12.338 12.342 12.0519L19.3575 7.74841C19.4093 7.71539 19.4715 7.68237 19.5337 7.62734C19.9171 7.33017 20.0829 6.81287 19.9689 6.31759C19.886 5.9874 19.6891 5.71224 19.3782 5.52514C18.4145 4.9418 17.4508 4.34746 16.4974 3.75312L11.1295 0.495263C11.0777 0.462244 11.0155 0.429225 10.9637 0.396206C10.8601 0.330169 10.7565 0.275137 10.6528 0.2091C10.4456 0.0770241 10.228 0.0109863 9.99999 0.0109863C9.77201 0.0109863 9.55439 0.0770241 9.34714 0.220106C9.33677 0.2091 9.32641 0.220106 9.31605 0.220106L4.35232 3.26885C3.15025 4.00627 1.90672 4.7657 0.683924 5.51413C0.227966 5.78929 -1.32825e-05 6.20753 -1.32825e-05 6.75784C-1.32825e-05 9.45438 -1.32825e-05 12.206 -1.32825e-05 14.8585V17.2799C-1.32825e-05 17.3679 -1.32825e-05 17.456 -1.32825e-05 17.533C-1.32825e-05 17.7531 0.0725256 17.9732 0.207241 18.1824C0.300505 18.3365 0.43522 18.4575 0.611386 18.5676C0.797914 18.6887 7.65802 22.8931 7.65802 22.8931C6.6632 23.4984 0.70465 27.1525 0.70465 27.1525C0.642474 27.1855 0.580298 27.2295 0.507759 27.2846C0.186515 27.5157 -0.010376 27.9009 -0.010376 28.3192C-0.010376 28.7374 0.186515 29.1226 0.518121 29.3538C0.559572 29.3758 0.59066 29.4088 0.632111 29.4308L8.42486 34.2075L8.70465 34.3836C8.92227 34.5157 9.13988 34.6478 9.34714 34.7799C9.55439 34.9119 9.77201 34.978 9.98962 34.978C10.2176 34.978 10.4249 34.9119 10.6321 34.7799L10.6736 34.7578L19.0777 29.6069L19.1606 29.5519C19.2539 29.4968 19.3368 29.4418 19.43 29.3868C19.772 29.1666 19.9689 28.8034 19.9896 28.3632C19.9896 28.3192 19.9896 28.2861 19.9896 28.2421L20 17.566ZM11.171 20.7578C11.171 18.5786 11.171 16.3994 11.171 14.2201C11.2642 14.2751 16.5078 17.489 16.5078 17.489C16.3627 17.566 11.171 20.7578 11.171 20.7578ZM16.4974 28.3192L11.171 31.588C11.171 29.4088 11.171 27.2295 11.171 25.0613C11.3679 25.1714 16.4974 28.3192 16.4974 28.3192ZM12.342 22.9041C14.114 21.8144 15.886 20.7248 17.658 19.6462C17.658 21.8255 17.658 23.9937 17.658 26.1729C17.5233 26.0739 13.7513 23.7736 12.342 22.9041ZM11.1606 3.37891C12.943 4.46853 14.715 5.55816 16.4974 6.64778C14.715 7.7374 12.943 8.82702 11.1606 9.91665V3.37891ZM8.829 20.7468C7.47149 19.9324 4.81864 18.3034 3.49221 17.489C5.2746 16.3994 7.05698 15.2987 8.83937 14.2091C8.84973 15.849 8.83936 19.0959 8.829 20.7468ZM3.50258 6.64778C5.28496 5.55816 7.05698 4.46853 8.829 3.37891C8.829 5.55816 8.829 7.7374 8.829 9.91665C7.05698 8.82702 5.28496 7.7374 3.50258 6.64778ZM2.34196 8.79401C2.36268 8.80501 7.66838 12.0629 7.66838 12.0629C5.886 13.1525 4.11398 14.2421 2.33159 15.3317C2.32123 13.7138 2.33159 10.456 2.34196 8.79401ZM8.83937 31.599C7.5233 30.7956 4.86009 29.1556 3.51294 28.3192C3.53367 28.3082 8.829 25.0613 8.829 25.0613C8.83936 26.7233 8.83937 29.9811 8.83937 31.599Z" fill="url(#paint0_linear)"/>
</g>
<path d="M40.1 25L40.1 10.552H41.906L41.906 25H40.1ZM48.4478 19.834V18.175L53.5718 18.175V19.834L48.4478 19.834ZM64.9262 25.168C64.1562 25.168 63.2952 25.14 62.3432 25.084C61.4052 25.028 60.5722 24.958 59.8442 24.874V23.215C61.6642 23.397 63.1832 23.488 64.4012 23.488C65.1572 23.488 65.7522 23.46 66.1862 23.404C66.6342 23.334 67.0122 23.215 67.3202 23.047C67.6002 22.879 67.7822 22.634 67.8662 22.312C67.9502 21.976 67.9922 21.535 67.9922 20.989C67.9922 20.331 67.9572 19.869 67.8872 19.603C67.8172 19.323 67.6492 19.12 67.3832 18.994C67.1312 18.868 66.6902 18.777 66.0602 18.721L62.4902 18.322C61.6222 18.224 60.9642 18.021 60.5162 17.713C60.0822 17.391 59.7882 16.978 59.6342 16.474C59.4942 15.956 59.4242 15.284 59.4242 14.458C59.4242 13.31 59.6202 12.442 60.0122 11.854C60.4182 11.266 60.9782 10.874 61.6922 10.678C62.4202 10.482 63.3932 10.384 64.6112 10.384C65.4232 10.384 66.2492 10.419 67.0892 10.489C67.9292 10.559 68.5942 10.643 69.0842 10.741V12.337C68.5522 12.253 67.8942 12.19 67.1102 12.148C66.3262 12.092 65.5982 12.064 64.9262 12.064C64.1422 12.064 63.5122 12.099 63.0362 12.169C62.5602 12.239 62.1892 12.358 61.9232 12.526C61.6292 12.694 61.4402 12.918 61.3562 13.198C61.2722 13.478 61.2302 13.877 61.2302 14.395C61.2302 14.969 61.2722 15.389 61.3562 15.655C61.4402 15.907 61.6012 16.096 61.8392 16.222C62.0772 16.334 62.4692 16.418 63.0152 16.474L66.5432 16.873C67.3832 16.957 68.0342 17.104 68.4962 17.314C68.9582 17.524 69.2942 17.902 69.5042 18.448C69.7002 18.952 69.7982 19.757 69.7982 20.863C69.7982 22.137 69.6022 23.089 69.2102 23.719C68.8182 24.335 68.2932 24.734 67.6352 24.916C66.9772 25.084 66.0742 25.168 64.9262 25.168ZM76.5242 10.552L82.8662 10.552C84.0282 10.552 84.9102 10.741 85.5122 11.119C86.1142 11.497 86.5132 12.008 86.7092 12.652C86.9052 13.296 87.0032 14.129 87.0032 15.151C87.0032 16.131 86.9052 16.95 86.7092 17.608C86.5132 18.252 86.1072 18.77 85.4912 19.162C84.8892 19.554 84.0002 19.75 82.8242 19.75H78.3302V25H76.5242V10.552ZM82.2152 18.07C83.1252 18.07 83.7902 17.979 84.2102 17.797C84.6302 17.601 84.9032 17.307 85.0292 16.915C85.1552 16.523 85.2182 15.935 85.2182 15.151C85.2182 14.367 85.1552 13.779 85.0292 13.387C84.9172 12.995 84.6512 12.708 84.2312 12.526C83.8252 12.33 83.1672 12.232 82.2572 12.232H78.3302V18.07H82.2152ZM102.349 25L100.858 21.157H94.3476L92.8566 25H91.0296L96.4896 10.552L98.7576 10.552L104.218 25H102.349ZM97.6446 12.505H97.5396L94.8936 19.456H100.291L97.6446 12.505ZM118.875 24.895C118.441 24.979 117.895 25.042 117.237 25.084C116.593 25.14 115.991 25.168 115.431 25.168C113.695 25.168 112.428 24.979 111.63 24.601C110.832 24.223 110.293 23.537 110.013 22.543C109.747 21.535 109.614 19.946 109.614 17.776C109.614 15.62 109.747 14.038 110.013 13.03C110.293 12.022 110.832 11.329 111.63 10.951C112.428 10.573 113.695 10.384 115.431 10.384C116.005 10.384 116.607 10.412 117.237 10.468C117.867 10.524 118.385 10.601 118.791 10.699V12.274C117.741 12.134 116.775 12.064 115.893 12.064C114.423 12.064 113.394 12.176 112.806 12.4C112.232 12.624 111.854 13.107 111.672 13.849C111.49 14.591 111.399 15.9 111.399 17.776C111.399 19.652 111.49 20.961 111.672 21.703C111.854 22.445 112.232 22.928 112.806 23.152C113.394 23.376 114.423 23.488 115.893 23.488C116.971 23.488 117.965 23.418 118.875 23.278V24.895ZM125.376 25V10.552L134.784 10.552V12.232L127.182 12.232V16.873H133.776V18.553H127.182V23.32H134.784V25H125.376Z" fill="black"/>
<defs>
<linearGradient id="paint0_linear" x1="14.1368" y1="-7.04405" x2="29.4963" y2="2.16276" gradientUnits="userSpaceOnUse">
<stop stop-color="#72B8F3"/>
<stop offset="0.546875" stop-color="#72B28B"/>
<stop offset="1" stop-color="#9FCB6D"/>
</linearGradient>
<clipPath id="clip0">
<rect width="20" height="35" fill="white"/>
</clipPath>
</defs>
</svg>
