<svg width="136" height="35" viewBox="0 0 136 35" fill="none" xmlns="http://www.w3.org/2000/svg">
<g clip-path="url(#clip0)">
<path d="M20 17.5663C20 17.5112 20 17.4672 20 17.4122C19.9689 17.0049 19.7927 16.6748 19.4922 16.4546C19.43 16.4106 19.3575 16.3666 19.2953 16.3226C19.0777 16.1905 13.7409 12.9106 13.7409 12.9106C13.2746 12.6244 12.8083 12.3383 12.342 12.0521L19.3575 7.74865C19.4093 7.71563 19.4715 7.68261 19.5337 7.62758C19.9171 7.33041 20.0829 6.81312 19.9689 6.31783C19.886 5.98765 19.6891 5.71249 19.3782 5.52538C18.4145 4.94205 17.4508 4.34771 16.4974 3.75337L11.1295 0.495507C11.0777 0.462488 11.0155 0.429469 10.9637 0.396451C10.8601 0.330413 10.7565 0.275381 10.6528 0.209344C10.4456 0.0772682 10.228 0.0112305 9.99999 0.0112305C9.77201 0.0112305 9.55439 0.0772682 9.34714 0.22035C9.33677 0.209344 9.32641 0.22035 9.31605 0.22035L4.35232 3.26909C3.15025 4.00651 1.90672 4.76595 0.683924 5.51438C0.227966 5.78953 -1.32827e-05 6.20777 -1.32827e-05 6.75809C-1.32827e-05 9.45463 -1.32827e-05 12.2062 -1.32827e-05 14.8587V17.2801C-1.32827e-05 17.3681 -1.32827e-05 17.4562 -1.32827e-05 17.5332C-1.32827e-05 17.7534 0.0725256 17.9735 0.207241 18.1826C0.300505 18.3367 0.43522 18.4578 0.611386 18.5678C0.797914 18.6889 7.65802 22.8933 7.65802 22.8933C6.6632 23.4987 0.70465 27.1527 0.70465 27.1527C0.642474 27.1858 0.580298 27.2298 0.507759 27.2848C0.186515 27.5159 -0.010376 27.9012 -0.010376 28.3194C-0.010376 28.7376 0.186515 29.1229 0.518121 29.354C0.559572 29.376 0.59066 29.409 0.632111 29.431L8.42486 34.2078L8.70465 34.3839C8.92227 34.5159 9.13988 34.648 9.34714 34.7801C9.55439 34.9122 9.77201 34.9782 9.98962 34.9782C10.2176 34.9782 10.4249 34.9122 10.6321 34.7801L10.6736 34.7581L19.0777 29.6071L19.1606 29.5521C19.2539 29.4971 19.3368 29.442 19.43 29.387C19.772 29.1669 19.9689 28.8037 19.9896 28.3634C19.9896 28.3194 19.9896 28.2864 19.9896 28.2424L20 17.5663ZM11.171 20.7581C11.171 18.5788 11.171 16.3996 11.171 14.2203C11.2642 14.2754 16.5078 17.4892 16.5078 17.4892C16.3627 17.5663 11.171 20.7581 11.171 20.7581ZM16.4974 28.3194L11.171 31.5883C11.171 29.409 11.171 27.2298 11.171 25.0615C11.3679 25.1716 16.4974 28.3194 16.4974 28.3194ZM12.342 22.9043C14.114 21.8147 15.886 20.7251 17.658 19.6465C17.658 21.8257 17.658 23.9939 17.658 26.1732C17.5233 26.0741 13.7513 23.7738 12.342 22.9043ZM11.1606 3.37916C12.943 4.46878 14.715 5.5584 16.4974 6.64802C14.715 7.73765 12.943 8.82727 11.1606 9.91689V3.37916ZM8.829 20.7471C7.47149 19.9326 4.81864 18.3037 3.49221 17.4892C5.2746 16.3996 7.05698 15.299 8.83936 14.2093C8.84973 15.8493 8.83936 19.0961 8.829 20.7471ZM3.50258 6.64802C5.28496 5.5584 7.05698 4.46878 8.829 3.37916C8.829 5.5584 8.829 7.73765 8.829 9.91689C7.05698 8.82727 5.28496 7.73765 3.50258 6.64802ZM2.34196 8.79425C2.36268 8.80526 7.66838 12.0631 7.66838 12.0631C5.886 13.1527 4.11398 14.2424 2.33159 15.332C2.32123 13.7141 2.33159 10.4562 2.34196 8.79425ZM8.83936 31.5993C7.5233 30.7958 4.86009 29.1559 3.51294 28.3194C3.53367 28.3084 8.829 25.0615 8.829 25.0615C8.83936 26.7235 8.83936 29.9814 8.83936 31.5993Z" fill="url(#paint0_linear)"/>
</g>
<path d="M40.1 25L40.1 10.552H41.906L41.906 25H40.1ZM48.4478 19.834V18.175L53.5718 18.175V19.834L48.4478 19.834ZM60.1172 25V10.552H61.9232V23.257H68.6642V25H60.1172ZM74.617 25V10.552L84.025 10.552V12.232L76.423 12.232V16.873H83.017V18.553H76.423V23.32H84.025V25H74.617ZM95.7408 18.826V17.167H100.739V24.748C100.053 24.874 99.2758 24.972 98.4078 25.042C97.5538 25.126 96.7978 25.168 96.1398 25.168C94.3758 25.168 93.0668 24.979 92.2128 24.601C91.3728 24.209 90.7918 23.509 90.4698 22.501C90.1618 21.479 90.0078 19.904 90.0078 17.776C90.0078 15.662 90.1688 14.094 90.4908 13.072C90.8128 12.05 91.3938 11.35 92.2338 10.972C93.0878 10.58 94.3898 10.384 96.1398 10.384C96.8258 10.384 97.5888 10.426 98.4288 10.51C99.2828 10.594 100.032 10.692 100.676 10.804V12.4C99.0798 12.176 97.8618 12.064 97.0218 12.064C95.3558 12.064 94.1938 12.155 93.5358 12.337C92.8918 12.519 92.4368 12.995 92.1708 13.765C91.9188 14.535 91.7928 15.872 91.7928 17.776C91.7928 19.54 91.8908 20.807 92.0868 21.577C92.2828 22.347 92.6748 22.865 93.2628 23.131C93.8508 23.397 94.8168 23.53 96.1608 23.53C96.5808 23.53 97.0708 23.516 97.6308 23.488C98.1908 23.446 98.6458 23.404 98.9958 23.362V18.826H95.7408ZM117.71 25L116.219 21.157L109.709 21.157L108.218 25H106.391L111.851 10.552H114.119L119.579 25H117.71ZM113.006 12.505H112.901L110.255 19.456L115.652 19.456L113.006 12.505ZM125.458 25V10.552H127.264V23.257H134.005V25H125.458Z" fill="black"/>
<defs>
<linearGradient id="paint0_linear" x1="14.1368" y1="-7.04381" x2="29.4963" y2="2.163" gradientUnits="userSpaceOnUse">
<stop stop-color="#72B8F3"/>
<stop offset="0.546875" stop-color="#72B28B"/>
<stop offset="1" stop-color="#9FCB6D"/>
</linearGradient>
<clipPath id="clip0">
<rect width="20" height="35" fill="white"/>
</clipPath>
</defs>
</svg>
