<svg width="240" height="240" viewBox="0 0 240 240" fill="none" xmlns="http://www.w3.org/2000/svg">
<g clip-path="url(#clip0)">
<path d="M27.9311 181.552C26.3794 168.103 38.7932 129.828 63.1035 105H158.276L185.69 161.379L180.517 197.069L96.7241 205.345C74.3104 201.897 29.1725 192.31 27.9311 181.552Z" fill="white"/>
<path d="M126.001 22.9288C126.894 22.899 127.667 22.4821 128.292 21.8866C128.887 21.3208 129.721 21.0528 130.345 20.487C131.298 19.6235 132.309 18.879 133.321 18.075C134.422 17.1519 135.434 16.1097 136.624 15.3057C137.04 15.0079 137.189 14.5017 137.576 14.2039C138.796 13.251 139.778 12.0302 140.79 10.9284C141.653 10.0053 142.664 9.20128 143.408 8.18884C143.557 7.9804 143.735 7.83151 143.944 7.74218C144.539 7.47418 144.926 6.93818 145.431 6.61063C146.83 5.68752 147.961 4.46664 149.389 3.51375C150.728 2.62042 152.156 2.1142 153.555 1.39954C154.388 0.982652 155.34 0.744431 156.233 0.62532C158.137 0.387099 160.041 -0.0595656 161.976 0.0297673C163.999 0.0893226 165.992 0.357321 167.986 0.774208C169.593 1.13154 170.991 1.96531 172.479 2.59064C173.342 2.97775 174.175 3.69242 174.919 4.34752C176.466 5.74707 178.103 6.99773 179.293 8.78439C179.62 9.26083 180.037 9.7075 180.245 10.2733C180.513 11.0177 181.198 11.4942 181.584 12.179C182.328 13.4595 183.518 14.4124 184.114 15.8417C184.947 17.807 185.691 19.8021 186.464 21.7972C186.881 22.8692 187.387 23.8817 187.714 24.9834C187.863 25.5194 187.982 26.0852 188.101 26.6212C188.488 28.259 189.053 29.867 189.142 31.5941C189.231 33.0829 189.261 34.5718 189.172 36.0309C189.112 37.3114 188.934 38.5918 188.964 39.8722C189.023 41.6887 188.488 43.4158 187.982 45.1131C187.744 45.9171 187.595 46.7509 187.238 47.4953C186.613 48.746 186.077 50.086 185.423 51.3366C184.203 53.6891 182.745 55.8926 181.614 58.245C181.436 58.6024 181.198 58.9299 181.019 59.2575C180.602 60.0019 180.126 60.7464 180.097 61.6397C180.097 61.9673 179.948 62.3246 179.74 62.533C178.758 63.5455 178.549 64.9748 177.835 66.1361C177.151 67.2677 176.675 68.4886 176.02 69.6201C175.306 70.8112 174.83 72.1214 174.175 73.3423C173.402 74.7716 172.985 76.3796 172.301 77.8387C171.14 80.2507 170.783 82.752 170.515 85.3725C170.396 86.504 170.307 87.6356 170.218 88.7671C170.129 90.0773 170.248 91.3876 170.426 92.668C170.575 93.8293 170.664 94.9609 170.813 96.1222C171.021 97.5217 171.319 98.9213 171.914 100.142C172.717 101.78 173.461 103.448 174.503 104.966C175.157 105.919 175.812 106.902 176.585 107.765C177.538 108.837 178.43 109.969 179.65 110.773C180.186 111.13 180.573 111.636 181.108 111.994C182.358 112.857 183.756 113.393 185.125 113.929C186.821 114.614 188.577 115.269 190.392 115.656C191.88 115.954 193.397 116.103 194.915 116.311C196.551 116.55 198.188 116.758 199.795 117.086C201.282 117.354 202.83 117.413 204.347 117.592C205.627 117.741 206.876 117.771 208.156 118.039C209.108 118.247 210.12 118.247 211.102 118.247C213.244 118.217 214.94 119.23 216.547 120.51C217.142 120.987 217.856 121.374 218.451 121.85C219.552 122.743 220.802 123.458 221.873 124.441C222.796 125.304 223.301 126.376 224.194 127.24C224.819 127.865 224.998 128.818 225.265 129.622C225.593 130.664 226.188 131.617 226.366 132.719C226.575 133.999 226.932 135.25 227.17 136.53C227.437 138.079 227.705 139.657 227.676 141.206C227.646 142.873 227.229 144.481 226.694 146.089C226.188 147.638 225.325 149.007 224.492 150.347C223.748 151.509 222.974 152.7 221.903 153.712C221.04 154.516 219.969 155.112 219.255 156.124C218.957 156.571 218.303 156.749 217.797 157.077C215.387 158.566 212.828 159.846 210.179 160.889C208.959 161.395 207.799 162.02 206.638 162.616C205.448 163.211 204.437 164.134 203.871 165.534C203.603 166.159 203.098 166.725 202.919 167.41C202.651 168.422 202.383 169.435 202.145 170.447C201.937 171.341 201.788 172.234 201.491 173.097C201.193 173.931 201.163 174.795 201.044 175.628C200.747 177.564 200.241 179.41 199.646 181.256C199.17 182.745 198.753 184.264 198.099 185.693C197.146 187.837 195.986 189.832 194.677 191.708C193.963 192.721 193.248 193.852 192.088 194.537C191.731 194.746 191.582 194.627 191.463 194.329C191.255 193.763 191.106 193.197 190.868 192.661C190.749 192.364 190.779 191.857 190.213 191.917C189.975 191.887 190.065 191.708 190.094 191.589C190.273 190.934 190.273 190.279 190.243 189.594C190.213 187.808 190.243 185.991 189.916 184.204C189.47 181.852 189.797 179.38 189.083 177.028C188.666 175.599 188.577 174.11 188.19 172.651C187.684 170.626 187.208 168.601 186.583 166.636C185.839 164.283 185.036 161.931 184.114 159.638C183.31 157.702 182.418 155.797 181.495 153.921C180.721 152.313 180.126 150.645 179.234 149.097C178.728 148.174 178.222 147.25 177.716 146.327C176.764 144.511 175.693 142.784 174.562 141.057C172.955 138.555 171.289 136.084 169.444 133.731C168.016 131.915 166.617 130.069 165.1 128.371C163.88 127.031 162.66 125.691 161.38 124.411C160.16 123.19 158.911 121.939 157.631 120.778C155.638 118.932 153.525 117.235 151.353 115.627C148.734 113.721 145.997 111.994 143.081 110.594C140.849 109.522 138.528 108.569 136.148 107.855C134.095 107.229 131.952 106.902 129.81 106.693C127.608 106.485 125.347 106.574 123.145 106.961C122.133 107.14 122.044 107.14 121.835 106.187C121.33 103.686 120.318 101.333 119.276 99.0404C119.157 98.7724 119.098 98.6533 119.455 98.5937C120.229 98.4746 121.002 98.3257 121.776 98.2364C122.163 98.1769 122.669 98.2066 122.847 98.5937C123.145 99.2786 123.561 99.904 123.889 100.619C124.841 102.763 126.299 104.4 128.56 105.234C129.334 105.532 130.137 105.74 130.97 105.859C132.607 106.127 134.214 106.485 135.91 106.127C138.647 105.532 140.819 104.103 142.783 102.227C143.557 101.482 144.182 100.559 144.36 99.4573C144.658 97.7897 144.717 96.152 144.479 94.4547C144.182 92.5489 143.587 90.7622 142.724 89.0649C141.474 86.6231 140.611 84.0623 140.314 81.3525C140.076 79.2681 140.492 77.2134 140.938 75.1885C141.325 73.521 141.891 71.913 142.337 70.2752C142.634 69.2628 142.753 68.1908 142.962 67.1783C143.378 65.3023 143.646 63.3966 143.735 61.4908C143.944 58.1557 143.735 54.8206 143.468 51.5153C143.378 50.1455 143.051 48.8353 142.694 47.5549C142.307 46.1553 141.861 44.7558 141.415 43.3562C140.79 41.3016 139.927 39.3362 139.064 37.3709C138.171 35.3163 137.1 33.4105 135.642 31.6238C134.124 29.7478 132.726 27.8123 130.851 26.2936C129.84 25.4896 128.828 24.6857 127.667 24.1199C127.132 23.6732 126.418 23.5243 126.001 22.9288Z" fill="#C5E2FB"/>
<path d="M126.001 22.9288C126.418 23.5243 127.132 23.6434 127.727 23.9412C128.887 24.5368 129.929 25.311 130.911 26.115C132.785 27.6336 134.184 29.5692 135.701 31.4452C137.159 33.2318 138.201 35.1674 139.123 37.1923C139.986 39.1576 140.849 41.1229 141.474 43.1776C141.89 44.5771 142.337 45.9767 142.753 47.3762C143.11 48.6864 143.408 49.9966 143.527 51.3366C143.765 54.6717 143.973 58.0068 143.795 61.3121C143.676 63.2179 143.438 65.1237 143.021 66.9997C142.783 68.0419 142.664 69.0841 142.396 70.0965C141.92 71.7343 141.355 73.3423 140.998 75.0099C140.551 77.0347 140.135 79.0894 140.373 81.1738C140.671 83.8836 141.563 86.4445 142.783 88.8862C143.646 90.5836 144.241 92.3404 144.539 94.276C144.807 95.9733 144.717 97.6111 144.42 99.2786C144.241 100.351 143.616 101.274 142.843 102.048C140.879 103.924 138.677 105.353 135.969 105.949C134.243 106.336 132.666 105.949 131.03 105.681C130.197 105.562 129.393 105.353 128.62 105.055C126.358 104.222 124.9 102.554 123.948 100.44C123.65 99.7551 123.234 99.1297 122.907 98.4151C122.728 98.028 122.222 98.028 121.835 98.0577C121.062 98.1471 120.288 98.296 119.514 98.4151C119.187 98.4746 119.217 98.5937 119.336 98.8617C120.377 101.184 121.389 103.507 121.895 106.008C122.073 106.961 122.192 106.961 123.204 106.783C125.406 106.395 127.638 106.306 129.869 106.515C132.012 106.723 134.154 107.051 136.207 107.676C138.588 108.391 140.909 109.343 143.14 110.415C146.056 111.815 148.794 113.542 151.412 115.448C153.584 117.056 155.697 118.753 157.691 120.599C158.97 121.791 160.19 123.011 161.44 124.232C162.719 125.513 163.939 126.853 165.159 128.193C166.707 129.89 168.105 131.736 169.504 133.553C171.348 135.905 173.015 138.377 174.621 140.878C175.722 142.605 176.794 144.332 177.776 146.149C178.281 147.072 178.757 147.995 179.293 148.918C180.186 150.466 180.781 152.134 181.554 153.742C182.477 155.618 183.37 157.524 184.173 159.459C185.125 161.752 185.899 164.105 186.643 166.457C187.268 168.422 187.744 170.477 188.249 172.472C188.607 173.931 188.726 175.42 189.142 176.849C189.826 179.202 189.529 181.673 189.975 184.026C190.303 185.812 190.273 187.599 190.303 189.416C190.332 190.1 190.332 190.756 190.154 191.411C190.124 191.53 190.005 191.708 190.273 191.738C190.273 191.976 190.243 192.215 190.243 192.453C189.886 192.84 190.124 193.287 190.094 193.704C189.827 197.039 189.112 200.314 187.892 203.441C185.958 208.324 182.983 212.404 178.311 215.054C176.377 216.156 174.294 216.9 172.122 217.436C169.355 218.091 166.587 218.091 163.79 217.943C162.065 217.853 160.369 217.466 158.732 216.99C155.727 216.126 152.84 214.935 150.073 213.476C149.657 213.238 149.21 213.059 148.794 212.761C148.437 212.493 148.318 212.523 148.377 212.97C148.556 214.25 148.734 215.56 148.913 216.841C149.032 217.615 149.121 218.419 149.24 219.193C149.597 221.962 149.954 224.732 149.984 227.531C149.984 228.394 149.984 228.99 149.359 229.705C148.823 230.3 148.228 230.211 147.633 230.3C146.949 230.419 146.265 230.419 145.55 230.449C145.074 230.479 144.807 230.717 144.836 231.194C144.866 231.789 144.687 232.385 144.866 232.98C144.955 233.338 144.777 233.427 144.449 233.486C142.843 233.754 141.236 233.903 139.599 234.052C137.397 234.261 135.196 234.529 132.994 234.767C131.238 234.946 129.512 235.094 127.757 235.243C125.406 235.482 123.055 235.75 120.705 235.958C119.098 236.107 117.521 236.226 115.914 236.375C113.295 236.643 110.677 236.911 108.059 237.179C106.541 237.328 105.023 237.447 103.476 237.596C100.768 237.864 98.0905 238.191 95.3827 238.4C93.3593 238.549 91.3657 238.876 89.3424 238.757C88.2414 238.698 87.3785 238.132 86.8727 237.119C85.7717 234.856 85.2361 232.414 84.7898 229.943C84.4625 228.097 84.0459 226.28 83.7186 224.434C83.4508 222.975 83.2425 221.516 83.0342 220.057C82.7664 218.181 82.4986 216.305 82.4986 214.399C82.4986 213.803 82.1118 214.012 81.844 214.161C80.3562 215.024 78.8089 215.828 77.2617 216.543C75.0895 217.555 72.8281 218.419 70.5369 219.134C68.1565 219.878 65.7165 220.444 63.2468 220.831C60.0035 221.307 56.7006 221.397 53.4275 220.98C50.333 220.593 47.3574 219.789 44.5307 218.479C42.418 217.526 40.4839 216.215 38.6391 214.756C34.8899 211.719 32.3607 207.818 30.4861 203.441C29.4744 201.118 28.79 198.647 28.2842 196.145C27.8974 194.15 27.5998 192.185 27.3618 190.16C27.0642 187.54 27.213 184.919 27.1832 182.299C27.1832 182.239 27.2427 182.15 27.2427 182.09C27.5998 181.554 27.2427 180.988 27.3023 180.423C27.5701 177.862 27.8676 175.331 28.3437 172.8C28.6413 171.251 28.9091 169.703 29.3554 168.214C29.9802 166.159 30.4861 164.075 31.2597 162.05C32.2417 159.459 32.9558 156.809 34.1163 154.308C34.8304 152.729 35.366 151.092 36.3777 149.633C36.824 148.948 37.1513 148.174 37.5976 147.459C38.4903 146.059 39.0854 144.481 40.0971 143.111C40.96 141.92 41.3766 140.461 42.418 139.359C43.2214 138.496 43.876 137.483 44.5307 136.53C45.7209 134.774 47.0599 133.136 48.3394 131.438C49.5296 129.86 50.9281 128.431 52.3266 127.031C55.6592 123.637 59.1108 120.421 62.9195 117.592C65.5082 115.656 68.216 113.899 71.013 112.291C73.5422 110.832 76.25 109.701 78.9875 108.659C80.0884 108.242 81.2489 107.884 82.4093 107.557C83.6591 107.199 84.9088 106.872 86.1883 106.634C87.6761 106.366 89.1638 106.217 90.6516 106.008C90.9194 105.979 91.0087 105.859 91.0979 105.621C91.4848 104.728 91.6038 103.775 91.8121 102.852C92.0799 101.691 92.4667 100.589 92.8535 99.4871C93.032 98.9511 92.9725 98.6533 92.2882 98.5342C91.0087 98.3257 89.7887 97.8791 88.658 97.224C87.7653 96.688 86.7834 96.2413 85.8015 95.9435C84.4327 95.5564 83.2723 96.2711 82.1415 96.956C80.0587 98.2364 77.8568 98.9809 75.3573 98.8915C73.3637 98.832 71.7569 98.2066 70.5369 96.5986C69.6145 95.4075 68.9599 94.0675 68.8409 92.6084C68.5433 89.4222 68.7516 86.236 69.436 83.1094C69.8525 81.2036 70.3584 79.3276 70.6559 77.4218C70.775 76.5881 71.3106 75.8138 71.0725 74.861C70.6262 75.0694 70.2394 75.2481 69.9121 75.6054C69.2277 76.3201 68.216 76.5881 67.3531 76.4987C66.0736 76.3796 64.9131 75.7245 64.1097 74.6823C63.5741 73.9676 63.0683 73.1934 63.7824 72.3001C64.0205 72.0023 64.3478 71.7343 64.6156 71.4663C65.0917 71.0494 65.657 70.6921 66.0438 70.1859C67.3531 68.429 69.0491 67.0294 70.5667 65.4512C71.2808 64.7068 72.0247 64.0517 71.5486 62.7117C71.1915 61.729 70.8642 60.657 70.8642 59.4957C70.894 56.1011 71.0428 52.766 71.6676 49.4011C71.9949 47.5549 72.59 45.8278 73.3637 44.19C74.6729 41.51 76.5475 39.2171 79.1065 37.5198C80.2074 36.7754 81.3977 36.2691 82.7367 36.0309C83.1532 35.9714 83.8078 35.9118 83.8971 35.5843C84.0161 35.1078 83.3913 34.8696 83.0342 34.6016C81.963 33.8274 81.1001 32.8745 80.743 31.6238C80.267 29.9563 80.8621 28.9736 82.7367 28.8545C84.1054 28.7652 85.1766 29.331 86.099 30.2541C86.218 30.3732 86.3371 30.6412 86.5454 30.5518C86.7834 30.4625 86.8131 30.2243 86.8429 29.9861C86.9619 28.8843 87.557 28.0803 88.5985 27.6336C89.4614 27.2465 90.2053 27.5145 90.7706 28.259C91.1277 28.7056 90.9789 29.2416 91.1872 29.7478C92.0204 29.2118 92.5262 28.4674 93.0915 27.7825C95.6505 25.4003 98.5666 23.4945 101.542 21.6781C103.298 20.6061 105.172 19.8617 107.285 19.6532C110.022 19.3852 112.7 19.7426 115.378 19.9212C116.658 20.0106 117.908 20.2786 119.187 20.3083C120.02 20.3083 120.883 20.6954 121.716 20.9634C123.026 21.7079 124.543 22.2141 126.001 22.9288ZM170.337 141.622C170.307 141.593 170.307 141.563 170.277 141.533C170.247 141.325 170.307 141.086 170.009 141.057C169.98 141.027 169.95 140.997 169.95 140.967C169.861 140.67 169.742 140.372 169.444 140.193C169.414 140.134 169.385 140.074 169.355 140.044C169.325 139.866 169.385 139.687 169.117 139.687C169.087 139.627 169.027 139.568 168.998 139.508C168.879 139.062 168.7 138.674 168.254 138.466C168.224 138.406 168.194 138.347 168.165 138.287C168.165 138.109 168.194 137.93 167.926 137.9C167.361 137.096 166.796 136.262 166.201 135.458C163.255 131.409 159.952 127.657 156.381 124.143C154.12 121.91 151.74 119.825 149.181 117.919C146.681 116.043 144.092 114.316 141.325 112.798C138.826 111.428 136.237 110.296 133.529 109.403C131.595 108.778 129.601 108.331 127.608 108.093C126.18 107.914 124.751 108.003 123.293 108.063C122.341 108.123 122.282 108.123 122.371 109.075C122.549 110.713 122.758 112.381 122.728 114.019C122.698 116.252 122.49 118.485 122.133 120.719C121.865 122.386 121.835 124.083 121.538 125.781C121.151 127.925 120.437 129.92 119.633 131.915C119.247 132.868 118.473 133.225 117.551 132.957C115.765 132.451 114.218 131.438 112.909 130.247C111.778 129.205 110.528 128.371 109.338 127.329C109.308 127.538 109.279 127.657 109.308 127.776C109.695 129.116 109.933 130.515 110.26 131.855C110.796 134.059 111.183 136.262 111.659 138.466C111.748 138.883 111.927 139.002 112.314 138.913C114.426 138.436 116.628 138.228 118.771 138.198C123.204 138.168 127.608 137.781 132.041 138.109C132.696 138.168 133.38 138.109 134.035 138.168C136.237 138.406 138.439 138.734 140.641 138.942C141.712 139.032 142.783 139.002 143.825 139.002C145.55 139.032 145.967 139.449 145.937 141.116C145.907 142.933 145.788 144.719 145.61 146.506C145.312 149.782 145.461 153.087 145.342 156.362C145.104 163.003 145.164 169.643 145.074 176.254C145.074 176.611 145.193 176.7 145.521 176.79C146.651 177.117 147.752 177.445 148.883 177.802C150.49 178.308 152.097 178.785 153.644 179.38C154.09 179.559 154.328 179.41 154.179 178.904C153.912 177.981 153.703 177.058 153.525 176.105C153.198 174.527 152.811 172.949 152.424 171.37C152.097 169.911 151.769 168.452 151.412 166.993C150.966 165.266 150.52 163.539 150.073 161.812C149.627 160.114 149.181 158.387 148.734 156.69C148.377 155.35 148.02 154.04 147.723 152.7C147.663 152.491 147.455 152.074 147.931 151.985C148.288 151.896 148.675 151.806 148.883 152.283C149.062 152.67 149.27 152.997 149.448 153.385C150.311 155.141 150.847 157.017 151.472 158.864C152.037 160.531 152.602 162.199 153.079 163.896C153.406 165.057 153.733 166.189 154.001 167.35C154.358 168.839 154.775 170.298 155.072 171.757C155.31 172.829 155.578 173.901 155.757 175.003C156.024 176.671 156.59 178.279 156.56 180.006C156.56 180.214 156.56 180.423 156.857 180.542C158.107 180.988 159.297 181.614 160.547 182.12C164.177 183.668 167.688 185.485 171.081 187.48C172.033 188.046 172.509 188.701 172.509 189.773C172.509 190.071 172.39 190.368 172.152 190.249C171.765 190.071 171.319 190.13 170.932 189.922C168.254 188.522 165.576 187.123 162.868 185.753C159.595 184.085 156.322 182.448 152.9 181.108C149.835 179.916 146.77 178.785 143.616 177.802C141.504 177.147 139.391 176.552 137.278 176.045C136.654 175.896 135.91 175.867 135.225 176.313C133.232 177.624 131.357 179.023 129.84 180.869C128.054 183.043 126.685 185.455 125.971 188.224C125.852 188.701 125.912 189.148 126.299 189.475C126.745 189.862 127.102 190.309 127.489 190.756C129.304 192.9 131.119 195.044 133.053 197.098C137.219 201.446 141.682 205.436 146.711 208.771C149.508 210.617 152.424 212.285 155.548 213.565C157.988 214.578 160.488 215.352 163.136 215.799C166.052 216.305 168.908 216.454 171.795 215.739C173.997 215.203 175.931 214.22 177.686 212.791C181.376 209.813 183.459 205.793 184.798 201.356C185.542 198.915 185.958 196.413 186.196 193.912C186.464 190.934 186.464 187.956 186.226 185.008C186.018 182.358 185.691 179.738 185.155 177.117C184.679 174.765 184.203 172.413 183.548 170.12C182.626 166.963 181.614 163.837 180.394 160.769C179.174 157.673 177.835 154.635 176.318 151.717C175.157 149.484 174.235 147.161 172.509 145.226C171.646 144.273 171.17 142.992 170.515 141.861C170.545 141.712 170.515 141.622 170.337 141.622ZM89.9077 113.661C89.9375 113.572 89.9077 113.483 89.8482 113.423C89.997 113.363 89.997 113.215 89.9672 113.095C89.878 111.458 90.2648 109.85 90.354 108.212C90.3838 107.467 90.1755 107.319 89.4911 107.319C88.3307 107.319 87.2 107.765 86.0693 107.884C84.2542 108.063 82.5879 108.688 80.8918 109.254C77.6187 110.356 74.4944 111.815 71.5189 113.512C69.436 114.674 67.4721 116.014 65.5083 117.413C63.3659 118.932 61.3722 120.57 59.4381 122.297C57.6528 123.875 55.927 125.513 54.3202 127.24C52.3563 129.354 50.4222 131.528 48.6369 133.791C47.655 135.012 46.7921 136.322 45.8399 137.573C45.0365 138.615 44.3521 139.806 43.6678 140.938C42.3585 143.082 40.9898 145.196 39.8293 147.399C38.7581 149.484 37.6869 151.598 36.705 153.742C36.1991 154.844 35.7826 156.005 35.366 157.137C34.8601 158.506 34.2948 159.876 33.8485 161.246C33.1343 163.449 32.5392 165.653 31.8548 167.857C31.2597 169.792 31.0217 171.817 30.6051 173.782C30.3968 174.854 30.2778 175.986 30.1588 177.088C29.8612 179.44 29.5637 181.792 29.7124 184.175C29.7124 184.383 29.6827 184.562 29.6827 184.77C29.9207 186.884 29.8612 188.999 30.129 191.113C30.3373 192.661 30.5158 194.24 30.8729 195.788C31.5275 198.676 32.5095 201.475 33.8187 204.185C35.5445 207.759 37.8952 210.885 40.841 213.565C45.0067 217.317 50.0057 219.312 55.5699 219.789C58.4265 220.027 61.283 219.878 64.1395 219.342C66.8175 218.836 69.4062 218.091 71.9354 217.109C75.7739 215.59 79.404 213.655 82.8854 211.391C88.2712 207.878 92.9725 203.59 97.4954 199.063C97.7929 198.766 97.8227 198.528 97.6441 198.23C96.9598 197.068 96.692 195.728 96.3051 194.448C95.7695 192.691 95.353 190.904 94.9959 189.088C94.6983 187.45 94.3115 185.812 94.1627 184.145C94.0735 183.043 93.5379 182.567 92.4369 182.596C92.2584 182.596 92.0799 182.596 91.9311 182.596C89.3424 182.596 86.7536 182.537 84.1649 182.835C82.1713 183.073 80.1479 183.222 78.1246 183.49C76.9343 183.639 75.7441 183.936 74.6134 184.264C72.8281 184.8 70.9833 185.217 69.2277 185.872C67.2638 186.587 65.2107 187.123 63.2766 187.867C60.8069 188.82 58.3669 189.862 55.9865 190.964C53.9036 191.947 51.7315 192.721 49.7081 193.852C49.1428 194.18 48.8154 194.865 48.0716 194.865C47.893 194.865 47.655 194.954 47.536 194.716C47.4467 194.508 47.5955 194.359 47.774 194.21C48.4286 193.644 49.1428 193.108 49.9164 192.721C52.3563 191.5 54.7963 190.279 57.266 189.148C59.1406 188.284 60.9854 187.391 62.9493 186.736C63.3361 186.616 63.2766 186.438 63.1576 186.11C62.5625 184.532 62.0864 182.924 61.6996 181.286C61.1044 178.904 60.7176 176.522 60.3606 174.11C59.8845 171.013 59.7952 167.857 59.7059 164.73C59.6167 162.05 59.8547 159.37 60.063 156.72C60.1225 156.005 60.301 155.32 60.4796 154.635C60.6879 153.95 61.164 153.891 61.6996 153.95C62.2352 154.01 62.2649 154.457 62.3244 154.903C62.5029 156.809 62.4434 158.745 62.5922 160.68C62.8005 163.181 62.7707 165.713 62.9195 168.244C63.0088 169.733 63.2171 171.251 63.3659 172.74C63.4254 173.455 63.5146 174.199 63.6634 174.944C64.0205 176.79 64.3478 178.666 64.7644 180.512C65.1214 182.15 65.5678 183.728 65.9546 185.366C66.0141 185.634 66.1926 185.604 66.3414 185.544C68.5135 184.74 70.7155 184.056 72.9471 183.371C74.8812 182.775 76.8451 182.299 78.8684 182.031C79.3445 181.971 79.8801 181.971 80.1777 181.644C80.4157 181.376 80.0884 180.959 79.9694 180.601C79.9694 180.572 79.9694 180.542 79.9694 180.542C79.7909 178.636 79.4933 176.76 79.4933 174.854C79.4933 171.4 79.4338 167.916 79.5826 164.462C79.7314 160.889 80.1182 157.315 80.2967 153.742C80.2967 153.533 80.3265 153.295 80.3265 153.087C80.5645 151.002 80.9811 148.918 81.1596 146.804C81.1894 146.298 81.3977 145.821 81.9333 145.791C83.0342 145.732 84.0161 145.226 85.1171 145.166C85.2956 145.166 85.5039 145.136 85.5337 144.928C85.6527 144.243 86.099 143.558 85.9502 142.843C85.8015 142.248 86.1288 142.069 86.4858 141.92C86.9322 141.712 87.4083 141.563 87.9141 141.593C89.1936 141.652 90.4136 141.295 91.6633 141.176C92.3774 141.116 93.0915 141.057 93.8057 140.908C95.9481 140.431 98.0905 140.074 100.263 139.836C101.661 139.687 103.03 139.449 104.458 139.449C105.351 139.449 105.44 139.27 105.172 138.406C104.726 136.977 104.607 135.458 104.399 133.999C104.101 131.915 103.923 129.801 103.714 127.686C103.655 127.121 103.476 127.24 103.179 127.508C102.673 127.954 102.167 128.401 101.691 128.878C100.263 130.218 99.0129 131.736 97.3763 132.868C96.7812 133.285 96.1266 133.463 95.5017 133.166C94.0437 132.481 93.0023 131.379 92.4072 129.86C91.9608 128.699 91.6633 127.478 91.3062 126.287C90.9194 124.977 90.5326 123.667 90.2648 122.297C90.0862 121.433 90.0267 120.599 89.9077 119.736C89.6994 118.366 89.6102 116.967 89.9077 115.597C90.0267 115.031 89.9077 114.346 89.9077 113.661ZM83.3913 75.4863C84.1352 76.1414 85.0576 76.0521 85.9502 76.1712C86.4263 76.2307 86.4263 76.0521 86.3073 75.665C86.0098 74.7716 85.6824 73.8485 85.5337 72.9254C85.3254 71.5556 84.7303 70.3943 83.8674 69.3521C83.6293 69.0841 83.4508 68.9948 83.064 69.233C82.2606 69.769 81.5167 70.3943 80.7728 71.0197C80.4157 71.3174 80.0289 71.4961 79.5528 71.3472C79.4933 71.2579 79.4338 71.1685 79.3743 71.0792C79.9992 69.8583 80.9513 68.965 82.1118 68.2801C82.2903 68.1908 82.6771 68.2503 82.6176 68.0121C82.5581 67.7739 82.4986 67.4166 82.2011 67.2677C81.3381 66.8806 80.8323 65.8086 79.6718 65.9277C79.5231 65.9277 79.166 65.7788 79.2553 65.4215C79.3148 65.1535 79.5528 65.1237 79.7909 65.0939C80.5645 65.0046 81.3084 65.213 82.0225 65.481C82.9747 65.8383 83.7781 66.4339 84.5815 67.2081C84.5815 66.285 84.4922 65.4512 84.6112 64.677C84.8493 62.9797 83.6888 62.1459 82.6474 61.2824C82.2903 60.9846 81.725 60.7464 81.2191 60.9846C79.7016 61.6695 78.4816 62.7415 77.9163 64.3495C77.3212 66.017 77.1129 67.7441 77.2319 69.501C77.2319 69.6499 77.2021 69.7988 77.2319 69.9477C77.7377 71.8832 78.6602 73.4912 80.505 74.4739C81.3977 75.0099 82.3201 75.4565 83.3913 75.4863ZM83.421 54.9397C83.3913 54.9695 83.3913 54.9993 83.3615 55.0291C83.1532 54.9695 83.0342 55.0588 82.9152 55.1779C81.6357 56.3691 80.2074 57.4113 78.9577 58.6917C76.607 61.1037 74.2266 63.4561 71.9354 65.8979C69.8228 68.1908 67.6506 70.3943 65.419 72.5681C64.8834 73.0743 64.8834 73.521 65.419 74.0272C65.657 74.2654 65.9546 74.4441 66.2224 74.6525C66.4009 75.0992 66.5794 75.3672 67.1448 75.0396C68.0077 74.5632 68.6326 73.8783 69.2872 73.1636C70.5369 71.8236 72.1437 70.9005 73.4232 69.5903C73.929 69.0543 74.6729 68.5481 74.7622 67.8334C74.8812 66.821 74.9407 65.8383 75.149 64.8259C75.4168 64.7663 75.4168 64.5579 75.3871 64.3495C75.3573 63.873 75.5358 63.4561 75.8036 63.1286C76.4583 62.265 77.2021 61.461 78.1246 60.8655C78.5411 60.5975 79.047 60.4784 79.3743 60.0615C79.4933 60.0615 79.6421 60.0615 79.7314 60.0019C80.9811 59.5255 82.2308 59.585 83.4508 60.0019C83.8674 60.1508 84.1947 60.121 84.5517 59.7339C85.4146 58.8406 86.3371 58.0068 87.3487 57.2922C87.6761 57.0539 87.7356 56.7859 87.4975 56.4882C87.0214 55.8926 86.6346 55.2077 86.099 54.6122C84.76 53.0637 84.9088 53.0042 83.5996 54.6717C83.4508 54.7015 83.3913 54.7908 83.421 54.9397ZM131.922 58.3642C130.792 57.7984 129.691 58.0366 128.59 58.4833C128.084 58.6917 127.995 59.0193 128.114 59.4659C128.441 60.925 128.56 62.3841 128.649 63.873C128.649 64.0219 128.59 64.2303 128.828 64.3197C129.036 64.2303 129.155 64.0517 129.274 63.8432C129.869 62.9797 130.613 62.2352 131.536 61.6992C131.863 61.5206 132.279 61.3717 132.577 61.6992C132.875 62.0268 132.518 62.3246 132.279 62.5628C131.893 63.0095 131.506 63.4859 131.089 63.9326C130.613 64.4686 130.583 64.945 131.179 65.4215C131.506 65.6895 131.803 66.017 132.071 66.3743C132.428 66.8806 132.22 67.2677 131.565 67.3272C130.911 67.3868 130.464 67.0294 130.107 66.5232C129.988 66.3446 129.869 65.8979 129.542 66.3743C128.887 67.3272 128.411 68.3397 128.352 69.5308C128.292 70.7219 128.084 71.8832 127.935 73.0445C127.905 73.1636 127.697 73.3125 127.876 73.4316C128.024 73.521 128.173 73.4614 128.352 73.3721C129.393 72.8361 130.316 72.1214 131.268 71.4663C133.023 70.2157 134.541 68.8459 134.928 66.5232C135.344 64.0815 134.957 61.8481 133.618 59.7935C133.321 58.9597 132.815 58.4237 131.922 58.3642ZM93.8057 46.7509C93.0915 47.5846 92.6155 48.5673 91.7823 49.282C91.4848 49.5202 91.1872 49.7882 91.0087 50.1455C91.2765 50.3837 91.574 50.2646 91.8716 50.2646C92.2882 50.2646 92.6452 50.4433 92.8833 50.8006C93.0023 50.9793 92.9725 51.1282 92.8535 51.2771C92.1691 52.2895 91.6335 53.3615 91.1574 54.4931C90.4731 56.1011 89.4316 57.3815 88.0331 58.4237C86.7834 59.3468 85.2659 60.2997 85.861 62.3544C85.9502 62.6521 85.9502 62.9797 86.0098 63.3072C86.0395 63.5455 86.0693 63.8135 86.3371 63.9326C86.6049 64.0219 86.7239 63.8135 86.9024 63.6646C87.7653 62.9797 88.5687 62.2352 89.6102 61.8184C90.2648 61.5504 91.0979 61.3419 91.455 60.8357C92.1394 59.8828 92.9428 59.1384 93.8057 58.3939C94.8174 57.5304 95.9481 56.905 97.3466 56.3393C96.9895 56.2499 96.8407 56.2499 96.692 56.1904C96.2754 56.0713 95.7695 56.1308 95.591 55.6246C95.4125 55.1184 95.71 54.7313 96.0373 54.374C96.7217 53.6295 97.5549 53.034 98.3583 52.4086C99.2509 51.7237 100.203 51.3366 101.364 51.5153C102.167 51.6344 102.405 52.1406 101.929 52.8255C101.483 53.4806 100.947 54.0762 100.292 54.5824C99.6675 55.0291 99.0724 55.5055 98.2095 56.0117C98.7153 56.0117 98.9831 56.0117 99.2509 56.0117C101.75 55.8628 103.774 56.6966 105.083 58.9299C105.41 59.4659 105.827 59.3468 106.243 59.1681C106.898 58.9002 107.582 58.8108 108.237 58.7513C109.695 58.6322 109.784 58.9895 109.933 57.0837C109.933 56.905 109.933 56.7264 109.963 56.5775C110.201 55.5353 110.26 54.4335 111.004 53.57C111.242 53.2722 111.57 53.0042 111.957 53.1531C112.373 53.3317 112.343 53.7188 112.105 54.0762C112.016 54.2251 112.076 54.4037 112.046 54.5824C111.957 55.6842 112.016 56.8157 111.778 57.9175C111.718 58.1557 111.629 58.513 111.897 58.6619C112.254 58.8704 112.433 58.4833 112.611 58.3344C114.069 56.9944 115.795 56.3988 117.759 56.4882C119.514 56.5775 121.091 57.2922 122.222 58.6024C122.996 59.4957 123.859 59.7041 124.9 59.585C124.96 59.585 124.989 59.585 125.049 59.585C125.525 59.6446 125.763 59.4361 125.674 58.9299C125.465 57.6495 125.257 56.3393 124.989 55.0588C124.87 54.4037 124.454 53.9571 123.859 53.6295C122.847 53.034 121.776 52.6468 120.675 52.2597C120.229 52.1108 119.752 51.7833 119.187 51.9917C119.395 52.2597 119.574 52.498 119.782 52.6766C120.05 52.8851 120.109 53.2126 120.258 53.4806C120.675 54.3144 120.288 55.3268 119.574 55.4162C118.979 55.5055 118.413 55.4459 117.908 54.9993C116.955 54.1655 116.241 53.2126 116.152 51.9322C116.122 51.5749 115.944 51.6046 115.706 51.5749C114.337 51.4855 113.028 51.3069 111.689 51.0091C109.279 50.4731 106.839 50.1157 104.488 49.2224C102.226 48.3589 100.203 47.1975 98.507 45.4407C97.5251 44.4282 96.4837 43.4456 95.472 42.314C94.8471 43.7731 94.3115 45.262 93.8057 46.7509ZM116.182 97.4026C115.914 97.1049 115.527 96.8369 115.408 96.4795C115.051 95.4671 114.545 94.4844 114.664 93.3827C114.694 92.9658 114.486 92.936 114.188 93.0849C112.79 93.7102 111.272 93.9187 109.844 94.3355C109.398 94.3355 108.951 94.3058 108.505 94.3355C106.333 94.4249 104.19 94.3058 102.107 93.5315C101.721 93.3827 101.78 93.5911 101.84 93.8889C102.286 96.3306 101.155 98.7129 97.9417 99.0702C97.3466 99.1297 97.3466 99.4871 97.3466 99.8742C97.4061 102.465 97.1085 105.115 98.0607 107.646C98.3583 108.42 98.3583 109.284 98.8344 109.999C98.9534 110.475 99.1319 110.892 99.3402 111.339C100.084 112.887 100.798 114.435 101.483 116.014C102.524 118.277 103.387 120.629 105.44 122.237C105.946 122.624 106.243 122.684 106.63 122.148C107.374 121.106 108.029 120.034 108.535 118.872C109.636 116.371 110.796 113.899 112.195 111.547C113.444 109.433 114.307 107.17 114.694 104.728C115.051 104.668 114.873 104.43 114.902 104.251C114.932 104.103 114.962 103.924 114.992 103.775C115.17 103.805 115.17 103.656 115.23 103.567C115.795 102.524 115.914 101.333 116.271 100.232C116.539 99.3977 116.36 98.4449 116.39 97.5515C116.36 97.4622 116.331 97.3729 116.182 97.4026ZM109.189 92.936C110.498 92.7573 111.748 92.3107 112.909 91.7449C116.658 89.8987 119.395 86.9507 121.448 83.3774C122.46 81.6205 123.264 79.7445 123.918 77.7792C124.484 76.0521 124.9 74.2952 125.287 72.5383C125.525 71.4365 125.614 70.305 125.733 69.1734C126.031 66.7317 125.882 64.2899 125.882 61.8184C125.882 61.3419 125.644 61.0144 125.079 60.8357C124.275 60.5677 123.621 60.8953 122.907 61.0441C121.984 61.2526 121.062 61.0441 120.496 60.2699C119.901 59.4659 119.217 58.7513 118.413 58.1557C117.848 57.7388 117.193 57.4113 116.479 57.709C115.646 58.0366 114.813 58.4833 114.307 59.2575C113.801 60.0913 113.057 60.1806 112.284 60.0019C111.689 59.853 111.629 60.0317 111.629 60.5379C111.629 63.2775 111.629 66.0468 111.57 68.7863C111.54 70.2454 111.332 71.645 110.618 72.9552C110.141 73.4614 109.665 73.9379 108.862 73.8187C108.535 73.7592 108.178 73.8187 107.85 73.8187C107.166 73.6401 106.839 73.1041 106.481 72.5383C105.767 71.4068 105.827 70.0965 105.47 68.8757C105.44 68.7268 105.589 68.697 105.708 68.6672C106.154 68.5481 106.392 68.7566 106.541 69.1734C106.868 70.0965 107.196 71.0197 107.701 71.8534C107.94 72.2405 108.088 72.9552 108.594 72.8659C109.1 72.7765 109.1 72.0916 109.219 71.5854C109.665 69.9179 109.368 68.2503 109.398 66.553C109.398 64.4983 109.457 62.4437 109.517 60.389C109.546 59.8233 109.338 59.7041 108.832 59.7637C107.791 59.9424 106.779 60.1806 105.797 60.5975C104.518 61.1633 103.387 60.8059 102.643 59.6446C102.286 59.0788 101.899 58.513 101.483 57.977C100.917 57.2922 99.6675 56.8157 98.7153 57.2326C97.1383 57.9175 95.7398 58.781 94.4603 59.9126C93.9545 60.3593 93.5676 60.8953 93.4189 61.5504C91.5443 62.3246 89.7292 63.2179 88.1521 64.5281C86.9322 65.5406 86.1288 66.4339 86.8131 68.1014C86.8429 68.1908 86.8429 68.2801 86.8727 68.3992C87.0214 69.9477 87.438 71.4365 87.8843 72.8956C88.539 75.0099 89.1936 77.1241 90.2053 79.1192C91.3657 81.4418 92.5559 83.7347 94.3115 85.7C95.0554 86.5338 95.8291 87.2782 96.6027 88.0525C97.6441 89.0947 98.7153 90.1071 99.9948 90.8516C102.465 92.2213 105.023 93.2933 107.94 92.9955C108.416 93.0551 108.862 93.2635 109.189 92.936ZM127.281 204.245C127.281 204.215 127.281 204.185 127.281 204.155C129.572 204.155 131.833 204.185 134.124 204.155C134.69 204.155 135.196 204.304 135.701 204.453C135.969 204.513 136.088 204.662 136.088 204.93C136.088 205.198 135.91 205.317 135.672 205.347C135.076 205.406 134.511 205.555 133.916 205.555C128.649 205.674 123.383 205.555 118.116 205.853C114.396 206.061 110.647 206.031 106.928 206.151C103.863 206.24 100.828 206.538 97.7632 206.865C95.9778 207.074 94.252 207.491 92.4667 206.865C92.3179 206.806 92.1989 206.865 92.0799 206.984C90.6814 208.235 89.1638 209.337 87.6761 210.439C87.4678 210.587 87.2297 210.736 87.3487 211.094C87.9736 212.91 88.3009 214.786 88.5687 216.692C88.9555 219.342 89.3721 221.992 89.7292 224.642C89.9077 226.012 90.116 227.382 90.3838 228.722C90.7111 230.3 91.1574 231.878 91.4252 233.457C91.5443 234.201 91.8418 234.38 92.5262 234.38C94.1627 234.35 95.7398 234.052 97.3763 233.933C100.441 233.665 103.506 233.338 106.571 233.04C109.636 232.742 112.7 232.444 115.765 232.146C118.86 231.849 121.954 231.551 125.049 231.253C127.37 231.045 129.661 230.866 131.982 230.628C134.065 230.419 136.148 230.27 138.231 230.032C140.135 229.824 142.039 229.466 143.944 229.288C145.015 229.198 146.086 228.93 147.157 228.782C147.425 228.752 147.544 228.633 147.485 228.335C147.187 226.102 147.038 223.868 146.86 221.635C146.562 218.359 146.235 215.084 146.205 211.808C146.205 211.57 146.146 211.362 145.907 211.213C144.003 209.932 142.129 208.592 140.313 207.163C137.189 204.632 134.243 201.952 131.565 198.944C130.643 197.902 129.75 196.86 128.798 195.848C128.649 195.699 128.441 195.46 128.173 195.55C126.953 195.937 125.674 196.026 124.424 196.175C122.073 196.443 119.723 196.681 117.372 196.92C115.944 197.068 114.515 197.128 113.087 197.336C110.826 197.664 108.564 197.992 106.303 198.379C104.637 198.647 102.941 198.915 101.274 199.183C100.441 199.302 99.5485 199.719 98.8641 200.523C97.168 202.518 95.2637 204.334 93.1808 205.942C93.032 206.031 92.8833 206.151 92.9428 206.359C93.0023 206.597 93.2403 206.538 93.3891 206.508C94.2223 206.389 95.0554 206.299 95.8588 206.121C97.9714 205.615 100.114 205.376 102.226 205.079C103.595 204.9 104.994 204.84 106.362 204.811C111.004 204.691 115.646 204.453 120.288 204.245C122.609 204.155 124.96 204.245 127.281 204.245ZM102.851 165.772C101.75 165.772 100.887 165.861 100.025 165.981C97.6144 166.338 95.2042 166.397 92.7642 166.368C92.3774 166.368 91.8121 166.427 91.7823 165.951C91.7823 165.593 92.3477 165.504 92.7345 165.504C94.9364 165.474 97.1085 165.206 99.3104 164.938C100.947 164.73 102.613 164.789 104.25 164.611C104.458 164.581 104.726 164.7 104.845 164.432C104.934 164.224 104.785 164.015 104.637 163.837C104.428 163.598 104.25 163.33 104.071 163.062C103.565 162.318 103.119 161.544 102.97 160.621C102.881 159.995 103.208 159.727 103.684 159.608C104.161 159.489 104.666 159.459 105.143 159.638C107.255 160.382 109.1 161.633 110.885 162.973C111.004 163.062 111.094 163.39 111.332 163.152C111.54 162.943 111.272 162.824 111.183 162.675C110.647 161.961 110.082 161.246 109.725 160.412C109.457 159.846 109.189 159.132 109.784 158.745C110.26 158.417 110.945 158.238 111.629 158.477C112.819 158.893 113.92 159.4 114.902 160.174C115.051 160.293 115.289 160.531 115.468 160.412C115.676 160.293 115.527 160.055 115.468 159.817C115.349 159.429 115.319 159.013 115.259 158.596C115.2 158.209 115.438 157.911 115.765 157.792C116.598 157.494 117.402 157.553 118.235 157.911C120.139 158.745 121.806 159.876 123.085 161.573C123.204 161.752 123.383 162.02 123.68 161.901C124.335 161.663 125.049 161.752 125.733 161.573C127.37 161.186 129.006 160.889 130.673 160.68C131.565 160.561 132.518 160.561 133.38 160.353C134.749 160.025 136.148 160.233 137.516 160.085C137.814 160.055 138.201 160.174 138.231 160.472C138.29 160.799 137.873 160.859 137.606 161.008C137.546 161.037 137.457 161.037 137.397 161.037C136.415 161.037 135.463 161.305 134.452 161.395C133.529 161.454 132.577 161.573 131.655 161.722C129.334 162.08 127.072 162.824 124.692 162.854C124.156 162.854 124.305 163.122 124.484 163.33C125.823 165.028 126.923 166.874 128.203 168.601C128.501 169.018 128.798 169.107 129.244 169.077C130.821 168.958 132.398 168.72 133.976 168.75C134.541 168.75 135.106 168.661 135.672 168.571C136.267 168.452 136.892 168.303 137.457 168.69C137.576 168.78 137.784 168.78 137.725 168.988C137.695 169.167 137.576 169.316 137.397 169.345C136.921 169.405 136.505 169.613 136.029 169.673C134.035 169.852 132.041 169.971 130.018 170.001C129.84 170.001 129.601 169.911 129.482 170.149C129.363 170.417 129.601 170.537 129.721 170.715C130.762 172.204 131.774 173.723 132.875 175.182C133.232 175.688 133.529 175.748 134.005 175.48C134.749 175.063 135.523 174.765 136.415 174.646C137.04 174.557 137.487 174.914 138.022 175.033C139.421 175.36 140.79 175.658 142.188 175.986C142.396 176.045 142.575 176.343 142.783 176.105C142.962 175.897 142.783 175.658 142.664 175.42C142.009 173.961 141.712 172.442 141.652 170.864C141.593 168.869 141.801 166.874 141.742 164.849C141.682 162.765 141.801 160.68 141.98 158.625C142.248 155.737 142.218 152.819 142.515 149.93C142.724 148.054 142.902 146.149 143.081 144.273C143.2 143.141 143.468 142.039 143.468 140.908C143.468 140.491 143.408 140.253 142.932 140.253C140.194 140.163 137.516 139.657 134.779 139.419C132.756 139.27 130.702 139.151 128.679 139.091C127.667 139.062 126.656 139.24 125.644 139.27C121.746 139.389 117.848 139.24 113.98 139.866C111.54 140.253 109.011 140.312 106.541 140.461C104.666 140.58 102.792 140.759 100.947 140.967C98.8046 141.235 96.692 141.622 94.5496 141.95C92.4964 142.278 90.4433 142.426 88.3604 142.635C87.7951 142.694 87.6165 142.933 87.5868 143.469C87.4975 144.63 87.3785 145.791 87.1702 146.923C86.8131 148.769 86.6644 150.615 86.4263 152.461C86.218 154.218 86.1883 156.005 85.98 157.792C85.6527 160.412 85.4146 163.033 85.2361 165.653C85.0873 167.857 84.9683 170.06 84.7898 172.234C84.5517 175.122 84.403 177.981 84.641 180.869C84.7005 181.465 84.9981 181.495 85.3551 181.405C85.9502 181.256 86.5454 181.256 87.1405 181.286C88.2712 181.346 89.3424 180.84 90.4433 181.078C91.3955 181.316 92.3774 181.227 93.3296 181.316C93.5974 181.346 93.7462 181.286 93.8652 180.988C94.7281 179.053 95.6208 177.147 96.5134 175.241C96.8705 174.437 96.8407 174.408 95.9183 174.408C94.9066 174.408 93.9247 174.825 92.913 174.705C92.6155 174.676 92.3179 174.586 92.3179 174.288C92.3179 174.05 92.5857 173.931 92.8535 173.872C94.1925 173.514 95.5612 173.395 96.9598 173.693C97.1978 173.753 97.3168 173.693 97.4358 173.484C97.6144 173.127 97.8227 172.77 98.0012 172.413C99.2212 169.941 100.59 167.648 102.851 165.772ZM122.49 168.809C122.192 168.72 122.073 168.839 121.925 168.929C118.711 170.834 115.944 173.306 112.879 175.42C111.242 176.581 109.665 177.862 108.059 179.053C107.463 179.5 106.779 179.797 106.005 179.708C105.708 179.678 105.44 179.559 105.321 179.351C105.143 179.083 105.351 178.844 105.559 178.636C105.916 178.219 106.184 177.713 106.541 177.296C108.951 174.646 111.48 172.085 113.742 169.286C114.873 167.886 116.033 166.546 116.926 164.968C117.015 164.789 117.164 164.581 116.955 164.462C116.807 164.373 116.628 164.402 116.42 164.551C115.706 165.177 114.962 165.742 114.248 166.338C112.492 167.857 110.766 169.405 109.249 171.192C107.463 173.306 105.738 175.45 103.804 177.445C103.179 178.07 102.465 178.308 101.631 178.279C101.066 178.249 100.828 178.011 100.977 177.475C101.185 176.76 101.423 176.075 101.721 175.42C102.881 172.681 104.071 169.971 104.785 167.053C104.845 166.814 104.994 166.517 104.756 166.368C104.488 166.189 104.309 166.517 104.161 166.665C102.494 168.214 101.423 170.179 100.441 172.174C99.0426 175.003 97.6441 177.832 96.2159 180.631C95.829 181.376 95.3827 181.912 95.8588 182.954C96.5432 184.413 96.7515 186.08 97.1085 187.688C97.5846 189.862 98.15 192.006 98.8344 194.12C98.9831 194.567 99.0129 195.222 99.3104 195.371C99.6973 195.58 100.173 195.073 100.59 194.865C102.405 193.972 104.369 193.525 106.184 192.721C108.921 191.47 111.808 190.666 114.575 189.564C116.331 188.85 118.027 187.986 119.544 186.855C119.693 186.736 119.99 186.616 119.901 186.378C119.842 186.2 119.574 186.2 119.366 186.2C117.699 186.2 116.033 186.497 114.396 186.765C113.295 186.944 112.165 187.272 111.034 187.152C110.677 187.123 110.231 187.033 110.082 186.616C109.933 186.17 110.32 185.932 110.588 185.723C111.867 184.86 113.087 183.936 114.456 183.252C117.253 181.852 120.08 180.482 122.847 179.083C123.65 178.666 124.365 178.1 124.93 177.415C125.079 177.236 125.138 177.058 125.079 176.879C125.019 176.7 124.841 176.79 124.692 176.82C122.787 177.475 120.913 178.219 119.068 179.023C116.301 180.214 113.593 181.614 110.766 182.596C110.082 182.835 109.338 183.132 108.535 182.835C107.999 182.626 107.88 182.299 108.178 181.882C108.654 181.256 109.159 180.572 109.755 180.065C113.176 177.177 116.777 174.497 119.99 171.341C120.824 170.537 121.835 169.852 122.49 168.809ZM91.0384 236.554C89.9672 236.554 89.7887 236.345 89.9672 235.601C89.997 235.511 89.9375 235.422 89.9077 235.303C89.0448 232.802 88.6877 230.181 88.2414 227.59C87.8248 225.149 87.6165 222.647 87.319 220.176C87.0214 217.615 86.8727 215.024 86.4263 212.493C86.2478 211.362 86.2775 211.362 85.3254 211.987C85.2064 212.076 85.0873 212.166 84.9683 212.255C84.2839 212.702 83.7483 212.999 83.9269 214.131C84.3434 216.751 84.641 219.402 85.1468 221.992C85.6229 224.434 86.1585 226.846 86.6346 229.258C87.1405 231.878 87.8546 234.469 88.539 237.06C88.658 237.566 88.896 237.983 89.4316 238.221C89.8482 238.4 90.1458 238.102 90.5028 238.072C92.913 237.804 95.353 237.477 97.7632 237.238C100.352 236.97 102.911 236.762 105.5 236.524C108.148 236.256 110.796 235.958 113.415 235.69C114.902 235.541 116.42 235.422 117.908 235.273C120.169 235.035 122.46 234.767 124.722 234.529C126.209 234.38 127.727 234.29 129.215 234.142C131.655 233.903 134.095 233.576 136.564 233.367C138.32 233.218 140.105 232.98 141.861 232.891C142.783 232.831 142.753 232.325 142.902 231.7C143.081 230.955 142.813 230.896 142.218 230.955C139.956 231.194 137.695 231.342 135.434 231.61C134.214 231.759 132.994 231.819 131.744 231.968C129.215 232.236 126.685 232.504 124.156 232.682C122.847 232.772 121.568 232.98 120.258 233.159C117.878 233.457 115.497 233.903 113.117 234.201C110.975 234.469 108.802 234.618 106.66 234.916C105.827 235.035 104.994 235.124 104.161 235.214C101.929 235.511 99.7568 236.018 97.4954 236.047C96.9598 236.047 96.3944 235.988 95.8588 236.137C94.2223 236.494 92.4667 235.958 91.0384 236.554ZM117.074 158.745C116.896 159.251 117.134 159.668 117.312 160.055C117.759 161.097 117.818 162.377 119.098 162.913C119.306 163.003 119.425 163.241 119.395 163.539C119.366 163.747 119.455 163.896 119.604 164.045C120.407 164.849 121.032 165.802 121.657 166.755C122.014 167.321 122.311 167.559 122.966 167.291C123.234 167.172 123.621 167.231 123.918 167.261C124.811 167.35 125.138 167.976 124.722 168.78C124.216 169.762 123.323 170.417 122.579 171.162C119.901 173.782 117.104 176.224 114.158 178.547C113.325 179.202 112.433 179.857 111.659 180.75C112.433 180.572 112.938 180.065 113.563 179.827C114.962 179.291 116.301 178.636 117.64 178.04C119.99 176.998 122.371 176.016 124.9 175.39C125.704 175.182 126.477 175.271 127.221 175.569C127.816 175.807 128.024 176.492 127.786 177.088C127.31 178.368 126.269 179.083 125.198 179.708C122.371 181.376 119.395 182.835 116.45 184.294C115.973 184.532 115.349 184.651 115.081 185.306C116.152 184.979 117.193 184.979 118.175 184.86C119.455 184.711 120.794 184.621 122.073 185.068C122.549 185.247 123.026 185.425 122.966 186.14C122.877 186.914 123.65 186.497 123.978 186.765C124.216 186.974 124.335 186.616 124.424 186.348C124.722 185.604 125.019 184.86 125.376 184.145C126.804 181.405 128.739 179.083 131.268 177.296C131.803 176.909 131.922 176.641 131.446 176.135C130.494 175.092 129.631 173.961 128.828 172.8C126.537 169.584 124.275 166.338 121.954 163.152C120.705 161.365 119.306 159.608 117.074 158.745ZM124.097 188.731C124.097 188.373 124.156 188.105 123.888 187.897C123.234 187.391 122.163 187.42 121.508 187.897C119.455 189.445 117.104 190.428 114.754 191.381C113.206 192.006 111.599 192.364 110.082 193.019C108.475 193.733 106.809 194.359 105.113 194.895C103.357 195.46 101.661 196.205 100.025 197.009C99.8163 197.098 99.7568 197.217 99.846 197.396C100.084 197.962 100.352 198.438 101.126 198.23C101.542 198.14 101.929 198.021 102.345 197.962C105.321 197.456 108.297 196.89 111.272 196.473C114.069 196.086 116.896 195.818 119.723 195.58C122.163 195.371 124.603 195.163 127.013 194.895C127.548 194.835 127.697 194.567 127.34 194.18C126.477 193.168 125.733 192.066 124.93 191.024C124.365 190.279 123.888 189.594 124.097 188.731ZM81.4572 169.703C81.4274 169.703 81.3679 169.703 81.3381 169.703C81.3381 169.762 81.3381 169.792 81.3381 169.852C81.3679 173.574 81.1894 177.296 81.6655 180.988C81.6952 181.256 81.6059 181.644 81.9928 181.733C82.7962 181.912 83.302 181.316 83.064 180.512C82.7367 179.47 82.6176 178.398 82.5879 177.326C82.4689 174.05 82.4986 170.805 82.7367 167.529C82.8259 166.278 82.7367 164.998 82.9152 163.747C83.2425 161.484 83.421 159.191 83.6591 156.928C83.8971 154.784 84.1054 152.64 84.403 150.526C84.522 149.692 84.5517 148.799 84.8493 147.995C84.9981 147.578 85.2361 146.953 84.9088 146.655C84.3137 146.119 83.6293 146.923 82.9449 146.774C82.7367 146.714 82.5581 146.804 82.5581 147.072C82.5581 147.131 82.5581 147.161 82.5284 147.221C82.1118 148.561 82.2011 149.96 82.082 151.33C81.7547 154.516 81.6059 157.702 81.5167 160.889C81.3679 163.777 81.4572 166.755 81.4572 169.703ZM108.564 139.181C108.624 139.181 108.892 139.151 109.159 139.181C109.844 139.27 109.963 138.972 109.755 138.377C109.07 136.471 108.832 134.476 108.475 132.51C108.118 130.426 107.672 128.342 107.582 126.227C107.553 125.9 107.374 125.781 107.136 125.781C106.571 125.781 106.005 125.781 105.44 125.84C104.934 125.9 104.756 126.198 104.994 126.674C105.232 127.21 105.41 127.746 105.5 128.342C105.738 129.682 105.946 130.992 106.154 132.332C106.482 134.357 106.571 136.441 106.898 138.466C106.987 139.062 107.106 139.3 107.701 139.21C107.91 139.21 108.118 139.21 108.564 139.181ZM104.577 160.412C104.458 160.829 104.547 161.157 104.696 161.454C105.678 163.33 107.196 164.789 108.624 166.278C109.1 166.755 109.546 167.559 110.082 167.618C110.618 167.678 111.123 166.844 111.659 166.397C112.552 165.623 112.552 165.593 111.599 164.938C109.338 163.42 107.106 161.752 104.577 160.412ZM111.421 159.668C111.183 159.638 111.213 159.846 111.242 159.965C111.391 160.293 111.54 160.621 111.778 160.918C112.492 161.871 113.266 162.794 113.891 163.837C114.129 164.253 114.367 164.432 114.843 164.015C115.2 163.688 115.676 163.539 116.122 163.33C116.479 163.152 116.479 163.003 116.152 162.765C115.14 162.05 114.158 161.246 113.117 160.561C112.552 160.204 112.105 159.697 111.421 159.668ZM120.496 168.154C120.467 168.125 120.437 168.065 120.407 168.035C119.842 167.41 119.276 166.755 118.681 166.159C118.622 166.1 118.384 166.07 118.354 166.129C117.997 166.606 117.64 167.112 117.312 167.618C117.223 167.767 117.402 167.857 117.521 167.946C117.997 168.273 118.473 168.631 118.949 168.958C119.098 169.048 119.247 169.077 119.425 168.958C119.693 168.75 119.99 168.601 120.288 168.452C120.407 168.333 120.556 168.333 120.496 168.154ZM115.17 171.877C115.349 171.757 115.557 171.668 115.735 171.549C116.093 171.281 116.42 171.013 116.777 170.775C117.908 169.971 117.878 170.001 116.836 169.018C116.509 168.72 116.36 168.72 116.093 169.048C115.616 169.703 115.081 170.298 114.634 170.953C114.545 171.102 114.158 171.132 114.396 171.46C114.634 171.668 114.902 171.728 115.17 171.877ZM89.6697 53.7784C89.6102 53.6891 89.6102 53.6295 89.5506 53.57C89.1043 53.1531 88.8068 52.6171 88.4199 52.2002C87.9736 51.7237 87.4975 52.3193 87.0809 52.5277C86.6644 52.7362 86.9619 53.0637 87.1107 53.2424C87.557 53.838 88.0331 54.4037 88.4795 54.9993C88.5687 55.1184 88.658 55.2375 88.7473 55.1184C89.0746 54.6717 89.3424 54.2251 89.6697 53.7784ZM106.779 168.958C106.511 168.988 106.392 169.077 106.333 169.316C106.214 169.792 106.065 170.298 105.857 170.745C105.648 171.162 105.886 171.281 106.124 171.519C106.452 171.817 106.571 171.549 106.749 171.341C107.136 170.894 107.553 170.417 107.94 169.971C108.029 169.852 108.237 169.762 108.059 169.643C107.642 169.375 107.225 169.077 106.779 168.958ZM107.285 166.814C107.017 166.844 106.987 167.112 106.958 167.231C106.898 167.529 106.69 167.976 107.077 168.095C107.672 168.244 108.207 168.512 108.743 168.78C108.921 168.869 109.04 168.78 109.13 168.69C109.249 168.541 109.04 168.482 108.981 168.422C108.594 168.005 108.207 167.559 107.731 167.201C107.582 167.082 107.434 166.933 107.285 166.814ZM111.718 174.348C112.462 173.961 113.147 173.514 113.801 172.978C114.01 172.8 114.158 172.651 114.01 172.442C113.861 172.204 113.563 172.174 113.355 172.353C112.76 172.949 112.135 173.544 111.718 174.348ZM104.666 173.723C104.964 173.425 105.291 173.127 105.559 172.829C105.678 172.71 105.738 172.502 105.559 172.383C105.41 172.293 105.232 172.293 105.113 172.472C104.875 172.829 104.726 173.217 104.666 173.723Z" fill="black"/>
<path d="M92.8833 27.9909C92.3179 28.6758 91.8121 29.4203 90.9789 29.9563C90.7706 29.4501 90.9194 28.9141 90.5624 28.4674C89.997 27.723 89.2531 27.455 88.3902 27.8421C87.3488 28.2887 86.7834 29.0927 86.6346 30.1945C86.6049 30.4327 86.5751 30.6709 86.3371 30.7603C86.099 30.8496 86.0098 30.5816 85.8908 30.4625C84.9386 29.5394 83.8971 28.9736 82.5284 29.0629C80.6538 29.1821 80.0587 30.1945 80.5348 31.8323C80.8918 33.1127 81.7547 34.0358 82.8259 34.81C83.183 35.078 83.8079 35.3162 83.6889 35.7927C83.5996 36.1202 82.945 36.1798 82.5284 36.2394C81.2192 36.4478 80.0289 36.9838 78.8982 37.7282C76.3393 39.3958 74.4647 41.6887 73.1554 44.3984C72.352 46.0362 71.7867 47.7633 71.4594 49.6095C70.8345 52.9744 70.6857 56.3095 70.656 59.7041C70.656 60.8357 70.9833 61.9077 71.3403 62.9201C71.8164 64.2601 71.0725 64.9152 70.3584 65.6597C68.8409 67.2379 67.1448 68.6374 65.8356 70.3943C65.4488 70.9005 64.8834 71.2281 64.4073 71.6747C64.1098 71.9427 63.8122 72.181 63.5742 72.5085C62.86 73.4018 63.3361 74.1761 63.9015 74.8907C64.7049 75.9627 65.8653 76.5881 67.1448 76.7072C68.0375 76.7965 69.0194 76.5285 69.7038 75.8138C70.0311 75.4565 70.4477 75.2778 70.8643 75.0694C71.1023 76.0223 70.5965 76.7965 70.4477 77.6303C70.1501 79.536 69.6145 81.412 69.2277 83.3178C68.5433 86.4444 68.335 89.6307 68.6326 92.8169C68.7814 94.276 69.436 95.616 70.3287 96.8071C71.5486 98.4151 73.1852 99.0106 75.149 99.0999C77.6485 99.1893 79.8504 98.4448 81.9333 97.1644C83.0342 96.4795 84.1947 95.7648 85.5932 96.152C86.6049 96.4497 87.5571 96.8964 88.4497 97.4324C89.5804 98.1173 90.8004 98.5342 92.0799 98.7426C92.7643 98.8617 92.8238 99.1893 92.6452 99.6955C92.2584 100.797 91.8418 101.929 91.6038 103.06C91.3955 103.983 91.3062 104.936 90.8897 105.83C90.7706 106.068 90.6814 106.187 90.4433 106.217C88.9556 106.395 87.4678 106.574 85.98 106.842C84.7005 107.08 83.4508 107.408 82.2011 107.765C81.0406 108.093 79.9099 108.45 78.7792 108.867C76.0417 109.909 73.334 111.041 70.8047 112.5C68.0077 114.108 65.3 115.865 62.7113 117.8C58.9026 120.659 55.4509 123.875 52.1183 127.24C50.7198 128.669 49.3213 130.069 48.1311 131.647C46.8516 133.344 45.5126 134.982 44.3224 136.739C43.6678 137.692 43.0132 138.704 42.2098 139.568C41.1683 140.67 40.7517 142.129 39.8888 143.32C38.8772 144.66 38.282 146.268 37.3894 147.667C36.943 148.382 36.6157 149.156 36.1694 149.841C35.1875 151.3 34.6519 152.968 33.908 154.516C32.7475 157.017 32.0334 159.697 31.0515 162.258C30.2778 164.283 29.772 166.368 29.1471 168.422C28.7008 169.911 28.433 171.46 28.1354 173.008C27.6594 175.539 27.3618 178.07 27.094 180.631C27.0345 181.197 27.3916 181.763 27.0345 182.299C27.094 181.227 26.3204 180.542 25.7252 179.857C24.5053 178.338 23.6424 176.611 22.5712 175.003C22.0356 174.169 21.9761 173.038 21.4702 172.174C20.4288 170.388 20.4585 168.392 20.0122 166.487C19.6254 164.819 19.6551 163.181 19.6551 161.544C19.6551 159.34 19.5659 157.137 19.8337 154.933C20.0122 153.533 20.1015 152.134 20.3693 150.764C20.7858 148.62 21.0834 146.446 21.7975 144.362C22.2439 143.082 22.4521 141.712 22.6902 140.372C22.8687 139.33 23.4043 138.436 23.6721 137.424C23.9697 136.352 24.2077 135.28 24.7136 134.297C25.636 132.481 26.2013 130.486 27.3916 128.788C27.8974 128.044 28.0759 127.091 28.5818 126.287C29.653 124.59 30.6051 122.773 31.7358 121.106C32.5095 119.915 33.4319 118.843 34.1758 117.622C34.5329 117.026 34.9792 116.401 35.5148 115.895C36.4372 115.031 37.0323 113.899 37.7762 112.947C38.3118 112.262 38.9664 111.577 39.621 110.981C40.1566 110.475 40.5137 109.879 40.9898 109.343C41.1683 109.135 41.3766 108.807 41.6147 108.748C42.3883 108.569 42.7454 107.974 43.1024 107.408C43.4 106.961 43.9356 106.872 44.2331 106.515C45.096 105.413 46.197 104.549 47.1789 103.567C47.9228 102.822 48.7262 102.078 49.5594 101.393C50.6306 100.499 51.3744 99.3084 51.791 97.9684C52.6837 95.0502 52.9515 92.0724 52.6837 89.0351C52.5349 87.3676 52.2671 85.7298 51.672 84.1218C51.0471 82.3947 50.5413 80.6378 49.7379 79C48.8452 77.124 48.2204 75.1289 47.2384 73.2827C46.6731 72.2405 46.5243 71.0494 45.9887 69.9774C45.2448 68.4885 44.7092 66.9401 44.2629 65.3619C43.9058 64.1112 43.1024 63.0094 42.9536 61.6992C42.8346 60.5379 42.5371 59.4361 42.3288 58.3046C42.0015 56.5775 41.8229 54.8504 41.5254 53.1233C41.2873 51.7535 41.4956 50.4433 41.7932 49.1628C42.0015 48.2695 41.9122 47.406 42.1503 46.5424C42.5668 45.0535 42.9834 43.5647 43.7868 42.2544C44.2331 41.4802 44.5009 40.6464 44.977 39.902C45.5721 38.9789 46.1077 38.026 46.6433 37.0731C47.1789 36.15 47.8931 35.4056 48.4882 34.5123C49.2618 33.3211 49.8867 32.0109 50.8091 30.9687C52.1778 29.3905 53.5763 27.8123 55.2724 26.5318C56.1056 25.9065 56.8792 25.1323 57.8611 24.7154C59.4084 24.0305 60.7176 22.9585 62.3244 22.3332C63.2171 22.0056 64.0503 21.3803 64.9132 20.8741C66.4902 19.9808 68.0375 19.9212 69.7335 20.3083C71.995 20.8145 74.1969 21.4101 76.2797 22.4225C76.9939 22.7501 77.827 22.8394 78.6007 23.1372C79.7016 23.5541 80.6836 24.2092 81.844 24.4772C82.5879 24.6559 83.2723 25.0132 83.9864 25.2514C85.0278 25.6087 86.0098 26.0554 87.081 26.3234C87.9736 26.5616 88.8961 26.6807 89.759 27.0381C90.7706 27.455 91.8418 27.6932 92.8833 27.9909Z" fill="#C5E2FB"/>
<path d="M184.471 79.0596C186.137 79.0894 187.238 80.876 186.613 82.3947C186.167 83.4369 185.601 84.4196 185.185 85.4618C185.066 85.7596 184.798 85.9085 184.649 86.1467C184.054 86.9804 183.756 87.9631 183.31 88.8564C182.804 89.8689 182.507 91.06 181.674 91.8342C180.93 92.5489 179.829 92.8169 178.877 92.3106C177.924 91.8342 177.567 90.4644 177.746 89.6307C178.014 88.3204 178.43 87.0698 178.906 85.8191C179.353 84.6876 179.948 83.6454 180.454 82.5436C181.138 81.0845 182.12 79.804 183.697 79.1787C183.994 79.0596 184.024 79.0596 184.471 79.0596Z" fill="#C5E2FB"/>
<path d="M35.8124 95.4969C35.2173 95.6458 34.6817 95.3778 34.1758 95.1693C33.4319 94.8418 33.3129 94.0675 33.2832 93.3529C33.2534 92.7276 33.3427 92.0427 33.908 91.596C34.7114 90.9707 35.5148 90.4049 36.4968 89.9285C38.044 89.2138 39.7401 89.452 41.2874 88.7671C42.5966 88.1716 44.7093 89.0054 45.2151 90.2858C45.6614 91.4173 45.1556 93.4422 43.6678 93.5315C42.7751 93.5911 42.1503 94.1271 41.4064 94.3951C40.3352 94.812 39.2045 94.9311 38.1035 95.1395C37.3894 95.3182 36.6455 95.616 35.8124 95.4969Z" fill="#C5E2FB"/>
<path d="M37.2406 81.7992C36.8835 80.0125 39.0557 78.9107 40.3352 79.7743C41.0493 80.2507 42.0015 80.3996 42.7156 80.9356C43.757 81.7098 45.0068 82.2458 45.7209 83.4369C46.554 84.8663 45.7506 86.3254 44.3224 86.5934C42.7453 86.9209 41.4659 86.3551 40.3352 85.164C39.8591 84.6578 39.0854 84.3005 38.4308 83.9729C37.3596 83.4965 37.2108 82.6925 37.2406 81.7992Z" fill="#C5E2FB"/>
<path d="M185.482 99.7253C183.518 100.023 182.656 97.5813 183.518 96.1222C184.262 94.8715 185.393 94.0973 186.911 94.0378C187.774 94.008 189.053 95.0204 189.291 95.884C189.589 96.8666 189.113 97.9982 188.19 98.5342C187.893 98.7128 187.744 99.0106 187.416 99.1893C186.524 99.6657 186.464 99.7253 185.482 99.7253Z" fill="#C5E2FB"/>
<path d="M189.945 193.882C189.975 193.465 189.737 192.989 190.094 192.632C190.094 193.048 190.273 193.495 189.945 193.882Z" fill="#C5E2FB"/>
<path d="M89.6697 113.661C89.1044 113.453 88.6581 113.87 88.2415 114.078C85.5337 115.388 82.8557 116.669 80.1778 118.039C77.3807 119.468 74.7028 121.046 72.0545 122.714C70.5667 123.637 69.0195 124.471 67.5317 125.394C66.1034 126.287 64.6157 127.061 63.3659 128.222C63.1874 128.401 62.8898 128.49 62.6816 128.639C60.807 129.83 59.0811 131.23 57.3256 132.6C56.4031 133.314 55.5998 134.178 54.7368 134.952C53.9334 135.697 53.1896 136.59 52.4457 137.424C51.1364 138.853 50.1247 140.491 48.8453 141.92C48.518 142.278 48.4287 142.754 48.1609 143.111C47.3575 144.183 46.7326 145.345 46.078 146.476C45.3044 147.846 44.7093 149.275 44.0546 150.705C43.6678 151.568 43.2215 152.432 42.8942 153.355C42.5669 154.218 42.4478 155.171 42.061 156.005C41.6742 156.809 41.4362 157.613 41.1684 158.447C40.7815 159.578 40.6328 160.74 40.3947 161.871C40.2162 162.705 39.7996 163.42 39.6508 164.253C39.4425 165.445 39.1152 166.636 38.8474 167.827C38.6391 168.869 38.4309 169.941 38.1035 170.983C37.7465 172.055 37.5977 173.187 37.3894 174.288C37.0621 175.956 36.7943 177.624 36.5563 179.291C36.229 181.733 35.5743 184.115 35.6338 186.616C35.6338 187.063 36.0207 187.659 35.5743 187.956C35.0982 188.254 34.9197 187.54 34.5626 187.361C33.4914 186.825 32.4798 186.259 31.5871 185.396C31.0813 184.889 30.4266 184.562 29.7125 184.353C29.5935 181.971 29.8613 179.619 30.1588 177.266C30.3076 176.164 30.3969 175.063 30.6052 173.961C31.0217 171.996 31.23 169.971 31.8549 168.035C32.5393 165.832 33.1344 163.598 33.8485 161.425C34.2948 160.025 34.8602 158.685 35.366 157.315C35.7826 156.184 36.1992 155.022 36.705 153.921C37.687 151.777 38.7582 149.662 39.8294 147.578C40.9898 145.345 42.3586 143.26 43.6678 141.116C44.3522 139.955 45.0366 138.794 45.84 137.751C46.7921 136.501 47.6848 135.22 48.637 133.97C50.4223 131.706 52.3564 129.533 54.3203 127.418C55.9271 125.691 57.6826 124.054 59.4382 122.475C61.3723 120.748 63.3659 119.081 65.5083 117.592C67.4722 116.222 69.436 114.882 71.5189 113.691C74.5242 111.994 77.6485 110.535 80.8919 109.433C82.5582 108.867 84.2543 108.242 86.0693 108.063C87.2 107.944 88.301 107.527 89.4912 107.497C90.1458 107.497 90.3839 107.646 90.3541 108.391C90.2649 110.028 89.9078 111.636 89.9673 113.274C89.9673 113.393 89.9673 113.512 89.8483 113.602C89.6995 113.453 89.64 113.542 89.6697 113.661Z" fill="#C5E2FB"/>
<path d="M93.5081 61.6099C93.8355 64.8855 94.2223 68.1312 95.1745 71.2877C96.0374 74.1463 96.9003 77.005 98.269 79.6552C98.9832 81.0547 99.9651 82.2756 100.798 83.5858C102.613 86.4445 104.875 88.916 107.047 91.4769C107.582 92.1022 108.148 92.8764 109.16 92.9062C108.802 93.2635 108.386 93.0253 107.999 93.0551C105.083 93.3231 102.524 92.2809 100.054 90.9111C98.7451 90.1964 97.7037 89.1542 96.6622 88.112C95.8886 87.3378 95.0852 86.5636 94.3711 85.7596C92.6155 83.7943 91.455 81.5014 90.2648 79.1787C89.2829 77.1836 88.5985 75.0694 87.9439 72.9552C87.4975 71.4961 87.081 69.9774 86.9322 68.4588C86.9322 68.3694 86.9322 68.2503 86.8727 68.161C86.1883 66.4935 86.9917 65.6001 88.2117 64.5877C89.8482 63.2775 91.6336 62.3841 93.5081 61.6099Z" fill="#C5E2FB"/>
<path d="M109.814 94.3355C109.784 94.6035 109.665 94.7822 109.636 95.08C109.576 96.4795 109.338 97.8493 109.04 99.2191C108.683 100.916 108.207 102.554 107.791 104.222C107.672 104.758 107.493 105.264 107.374 105.77C107.077 106.812 106.065 106.842 105.321 107.08C103.476 107.676 101.691 108.361 99.9055 109.075C99.4294 109.254 98.7748 109.284 98.8343 110.028C98.3582 109.314 98.3582 108.45 98.0607 107.676C97.1085 105.145 97.4061 102.524 97.3466 99.9039C97.3466 99.4871 97.3466 99.1595 97.9417 99.1C101.155 98.7426 102.286 96.3306 101.84 93.9186C101.78 93.5911 101.721 93.4124 102.107 93.5613C104.19 94.3058 106.333 94.4546 108.505 94.3653C108.921 94.3058 109.368 94.3355 109.814 94.3355Z" fill="#C5E2FB"/>
<path d="M93.8057 46.7509C93.8652 47.8228 93.8057 48.8948 93.5974 49.9668C93.5082 50.3837 93.5379 50.8006 93.5379 51.2175C93.4487 52.9744 93.3594 54.761 93.2999 56.5179C93.2999 57.1432 93.2999 57.8281 93.7462 58.3343C92.8833 59.0788 92.0799 59.8232 91.3955 60.7761C91.0385 61.2823 90.2053 61.4908 89.5507 61.7588C88.5093 62.2054 87.6761 62.9201 86.843 63.605C86.6644 63.7539 86.5454 63.9623 86.2776 63.873C86.0098 63.7836 85.9801 63.5156 85.9503 63.2477C85.9206 62.9201 85.8908 62.5925 85.8015 62.2948C85.2362 60.2699 86.724 59.317 87.9737 58.3641C89.4019 57.2921 90.4434 56.0415 91.098 54.4335C91.5741 53.3317 92.1097 52.2299 92.7941 51.2175C92.9131 51.0686 92.9131 50.8899 92.8238 50.7411C92.5858 50.3837 92.2287 50.2051 91.8121 50.2051C91.5146 50.2051 91.217 50.3539 90.9492 50.0859C91.1278 49.7286 91.4253 49.4606 91.7229 49.2224C92.6155 48.5673 93.0916 47.5846 93.8057 46.7509Z" fill="#C5E2FB"/>
<path d="M79.3743 60.121C79.047 60.5379 78.5411 60.657 78.1246 60.925C77.1724 61.5206 76.4583 62.3246 75.8036 63.1881C75.5358 63.5455 75.3573 63.9326 75.3871 64.409C75.3871 64.5877 75.4168 64.8259 75.149 64.8855C74.4646 64.9748 74.1671 65.6001 73.7803 65.9872C71.2511 68.5481 68.8409 71.2579 66.758 74.2059C66.639 74.3845 66.5497 74.6823 66.2521 74.6823C65.9843 74.4739 65.6868 74.2952 65.4487 74.057C64.9131 73.5508 64.9429 73.1339 65.4487 72.5979C67.6804 70.4241 69.8526 68.2206 71.9652 65.9277C74.2564 63.4561 76.6665 61.1335 78.9875 58.7215C80.2372 57.4411 81.6357 56.3988 82.9449 55.2077C83.064 55.0886 83.2127 54.9695 83.3913 55.0588C83.4508 55.2077 83.3615 55.2673 83.2723 55.3864C82.0225 56.8455 80.7728 58.3046 79.4933 59.7637C79.3445 59.853 79.1958 59.9424 79.3743 60.121Z" fill="#C5E2FB"/>
<path d="M83.421 74.6823C83.3913 74.9503 83.5103 75.2183 83.3615 75.4863C82.2903 75.4565 81.3679 75.0099 80.4455 74.5037C78.6007 73.521 77.6782 71.913 77.1724 69.9774C77.1426 69.8286 77.1724 69.6797 77.1724 69.5308C78.0055 69.0246 78.0055 68.9948 78.5114 69.9477C78.7494 70.3943 79.0172 70.7814 79.3743 71.109C79.4338 71.1983 79.4933 71.2877 79.5528 71.377C80.2075 72.5681 81.1894 73.4019 82.4986 73.789C82.5581 74.3548 82.8557 74.6823 83.421 74.6823Z" fill="#C5E2FB"/>
<path d="M114.992 103.775C114.992 102.435 115.527 101.184 115.706 99.904C115.825 99.0702 116.212 98.2662 116.182 97.4026C116.331 97.3729 116.36 97.4622 116.36 97.5515C116.331 98.4448 116.509 99.3977 116.241 100.232C115.884 101.333 115.795 102.524 115.2 103.567C115.17 103.686 115.17 103.805 114.992 103.775Z" fill="#C5E2FB"/>
<path d="M133.618 59.7637C132.369 60.121 132.25 59.1086 131.922 58.3641C132.815 58.4237 133.321 58.9597 133.618 59.7637Z" fill="#C5E2FB"/>
<path d="M110.707 72.985C110.29 74.0272 108.981 74.4739 107.94 73.8485C108.267 73.8485 108.624 73.789 108.951 73.8485C109.755 73.9974 110.231 73.4912 110.707 72.985Z" fill="#C5E2FB"/>
<path d="M104.667 173.723C104.696 173.246 104.875 172.829 105.113 172.472C105.232 172.293 105.41 172.293 105.559 172.383C105.767 172.502 105.678 172.68 105.559 172.829C105.291 173.127 104.994 173.395 104.667 173.723Z" fill="#C5E2FB"/>
<path d="M89.8482 115.686C89.5507 115.031 89.878 114.316 89.6697 113.661C89.759 113.661 89.8185 113.661 89.9077 113.661C89.9077 114.346 90.0267 115.031 89.8482 115.686Z" fill="#C5E2FB"/>
<path d="M168.998 139.478C168.551 139.27 168.432 138.823 168.254 138.436C168.7 138.645 168.879 139.032 168.998 139.478Z" fill="#C5E2FB"/>
<path d="M169.95 140.967C169.623 140.818 169.474 140.55 169.444 140.193C169.742 140.372 169.861 140.67 169.95 140.967Z" fill="#C5E2FB"/>
<path d="M114.694 104.758C114.694 104.579 114.575 104.311 114.902 104.251C114.873 104.43 115.051 104.698 114.694 104.758Z" fill="#C5E2FB"/>
<path d="M170.277 141.533C169.95 141.503 169.98 141.265 170.009 141.057C170.337 141.086 170.248 141.354 170.277 141.533Z" fill="#C5E2FB"/>
<path d="M169.355 140.014C169.087 140.014 169.087 139.836 169.117 139.657C169.384 139.657 169.355 139.866 169.355 140.014Z" fill="#C5E2FB"/>
<path d="M168.164 138.258C167.897 138.228 167.897 138.049 167.926 137.87C168.194 137.87 168.164 138.079 168.164 138.258Z" fill="#C5E2FB"/>
<path d="M170.515 141.861C170.337 141.861 170.277 141.771 170.307 141.622C170.515 141.622 170.545 141.712 170.515 141.861Z" fill="#C5E2FB"/>
<path d="M83.6293 54.7611C83.7186 54.9993 83.5698 54.9993 83.421 54.9397C83.3913 54.7908 83.4508 54.7015 83.6293 54.7611Z" fill="#C5E2FB"/>
<path d="M99.4891 220.354C98.775 220.593 98.0311 220.384 97.3467 220.116C97.1682 220.057 96.7813 220.027 96.8111 219.64C96.8409 219.253 97.1682 219.163 97.436 219.104C98.0906 218.955 98.7452 218.866 99.3998 218.806C103.238 218.478 107.106 218.568 110.975 218.389C113.087 218.3 115.2 218.21 117.313 217.972C119.604 217.704 121.895 217.645 124.186 217.555C127.995 217.377 131.804 217.258 135.582 217.109C136.505 217.079 137.457 217.138 138.379 216.96C138.647 216.9 138.915 216.99 139.183 216.99C139.57 217.019 139.867 217.258 139.897 217.615C139.897 217.942 139.599 218.091 139.272 218.181C138.707 218.359 138.112 218.419 137.517 218.419C135.404 218.449 133.321 218.419 131.208 218.538C127.995 218.717 124.811 218.836 121.597 219.014C119.515 219.134 117.402 219.223 115.319 219.402C112.73 219.64 110.142 219.61 107.553 219.61C105.291 219.61 103 219.878 100.739 219.699C100.114 219.64 99.4891 219.938 98.8345 219.878C98.7452 219.878 98.6262 219.878 98.5964 219.997C98.5369 220.146 98.6559 220.206 98.775 220.265C98.9833 220.503 99.251 220.295 99.4891 220.354Z" fill="black"/>
<path d="M133.381 212.166C129.304 212.493 125.109 212.315 120.943 212.553C118.533 212.702 116.093 212.582 113.682 212.85C111.362 213.118 109.011 213.208 106.69 213.535C105.559 213.714 104.399 213.744 103.238 213.922C101.215 214.19 99.1915 214.339 97.1682 214.756C96.6326 214.875 96.097 214.905 95.5316 214.846C95.2936 214.816 95.0555 214.786 95.0555 214.488C95.0555 214.22 95.2936 214.161 95.5018 214.071C96.5433 213.714 97.6145 213.506 98.7154 213.297C101.096 212.85 103.476 212.582 105.857 212.255C107.672 212.017 109.487 211.898 111.302 211.749C115.587 211.391 119.901 211.362 124.186 211.153C127.578 211.004 130.97 211.064 134.333 210.885C135.166 210.826 135.969 210.587 136.832 210.617C137.278 210.647 137.903 210.677 137.963 211.094C138.082 211.63 137.368 211.659 137.04 211.689C135.88 211.957 134.69 212.285 133.381 212.166Z" fill="black"/>
<path d="M92.4071 159.429C92.0203 159.429 91.6037 159.429 91.2169 159.429C91.0384 159.429 90.8896 159.281 90.8598 159.102C90.8301 158.893 91.0086 158.893 91.1276 158.834C91.4252 158.655 91.7823 158.625 92.1393 158.596C94.1925 158.417 96.2158 157.911 98.2392 157.524C99.4592 157.285 100.709 157.077 101.959 156.839C103.982 156.481 106.035 156.124 108.059 155.737C108.862 155.588 109.665 155.529 110.469 155.409C112.909 155.052 115.319 154.665 117.759 154.248C119.395 153.95 121.032 153.831 122.668 153.563C126.001 152.997 129.393 152.968 132.756 152.61C133.976 152.491 135.195 152.491 136.415 152.193C136.921 152.074 137.606 152.313 138.141 152.61C138.26 152.67 138.469 152.7 138.409 152.908C138.35 153.027 138.231 153.176 138.112 153.206C137.844 153.265 137.576 153.265 137.308 153.295C134.809 153.563 132.339 153.861 129.839 154.099C128.5 154.218 127.132 154.248 125.793 154.427C123.948 154.695 122.103 154.963 120.258 155.261C118.83 155.499 117.372 155.677 115.944 155.916C114.129 156.213 112.314 156.511 110.498 156.779C108.921 157.017 107.315 157.196 105.738 157.464C104.309 157.702 102.881 158 101.483 158.238C100.233 158.447 99.0128 158.655 97.7631 158.834C95.9183 159.072 94.1627 159.4 92.4071 159.429Z" fill="black"/>
<path d="M96.0373 151.777C94.8768 151.777 94.1032 151.777 93.2998 151.777C93.0617 151.777 92.8237 151.777 92.6154 151.568C92.4071 151.389 92.1691 151.241 92.6452 151.092C93.0022 151.002 93.3295 150.853 93.7164 150.883C95.4422 150.973 97.168 150.794 98.8938 150.526C100.59 150.258 102.316 150.169 104.012 149.93C106.779 149.543 109.546 149.275 112.284 148.888C114.367 148.59 116.509 148.352 118.622 148.144C120.556 147.935 122.49 147.727 124.394 147.399C125.763 147.161 127.132 147.101 128.53 147.012C130.524 146.893 132.517 146.625 134.511 146.655C135.047 146.655 135.612 146.655 136.148 146.685C136.475 146.685 136.892 146.744 136.921 147.101C136.951 147.518 136.505 147.518 136.207 147.548C134.987 147.608 133.767 147.816 132.517 147.905C130.554 147.995 128.59 148.233 126.626 148.441C124.364 148.68 122.133 149.007 119.871 149.275C118.681 149.394 117.521 149.484 116.33 149.633C114.129 149.901 111.927 150.139 109.755 150.496C108.773 150.645 107.731 150.675 106.749 150.794C105.202 150.943 103.655 151.121 102.107 151.241C100.947 151.33 99.7567 151.419 98.5962 151.657C97.6143 151.806 96.6324 151.747 96.0373 151.777Z" fill="black"/>
<path d="M106.749 81.4716C105.886 81.4716 105.024 81.4716 104.161 81.4716C103.952 81.4716 103.685 81.4716 103.506 81.3823C103.298 81.2929 103.03 81.2036 103.03 80.876C103.03 80.5485 103.328 80.4591 103.506 80.3996C104.042 80.2507 104.607 80.072 105.172 80.072C108.326 80.0125 111.123 78.9405 113.772 77.3027C114.605 76.7965 115.468 76.3498 116.301 75.8734C116.598 75.7245 116.896 75.7543 117.134 75.9329C117.432 76.1712 117.164 76.4094 117.045 76.6476C115.765 79.4169 113.325 80.5485 110.558 81.2631C109.308 81.6205 108.029 81.412 106.749 81.4716Z" fill="black"/>
<path d="M98.8939 64.5877C97.5847 64.5877 97.0193 63.9921 96.8705 62.4139C96.7813 61.4015 96.9896 60.4188 97.1681 59.4361C97.2574 58.9597 97.7037 58.6619 98.2393 58.6024C99.9056 58.3939 101.007 59.7339 101.066 61.2228C101.096 61.997 100.917 62.7712 100.59 63.5157C100.233 64.2899 99.6973 64.7365 98.8939 64.5877Z" fill="black"/>
<path d="M114.664 60.925C114.426 60.0317 114.962 59.3766 115.735 58.9895C116.301 58.6917 117.015 58.7215 117.64 59.1384C118.265 59.585 118.294 60.3295 118.443 60.925C118.711 61.9375 118.413 62.9797 117.818 63.8432C117.283 64.6175 115.646 64.4388 115.259 63.5455C114.902 62.7712 114.575 61.9375 114.664 60.925Z" fill="black"/>
<path d="M130.673 69.8583C130.703 70.6028 130.405 70.8708 129.899 70.9005C129.364 70.9303 128.679 70.4837 128.709 70.1561C128.739 69.6499 129.304 69.0543 129.75 69.0246C130.345 68.9948 130.673 69.3819 130.673 69.8583Z" fill="black"/>
<path d="M83.421 74.6823C82.8259 74.6525 82.5283 74.3547 82.4688 73.789C82.4986 72.8956 82.9747 72.449 83.7781 72.6276C84.1054 72.717 84.522 72.7765 84.5815 73.253C84.641 73.6996 84.6112 74.1165 84.1351 74.3845C83.9268 74.5334 83.7186 74.6823 83.421 74.6823Z" fill="black"/>
</g>
<defs>
<clipPath id="clip0">
<rect width="207.931" height="238.966" fill="white" transform="translate(19.6552)"/>
</clipPath>
</defs>
</svg>
