<svg width="240" height="240" viewBox="0 0 240 240" fill="none" xmlns="http://www.w3.org/2000/svg">
<path d="M81.7241 74.4828L96.2069 42.931H125.172L165.517 52.2414L178.965 74.4828V114.31L190.862 133.966L196.552 160.345V181.034L168.103 211.552L57.4138 200.172L51.7241 181.034L46.5517 146.897L81.7241 74.4828Z" fill="white"/>
<path d="M90.8806 47.8152C91.0795 47.5405 91.1789 47.2352 91.1458 46.8995C91.0795 45.7701 91.4109 44.7017 91.7093 43.6029C91.7424 43.4197 91.7756 43.2671 91.7756 43.084C91.875 38.3528 92.1402 33.6521 92.2065 28.9209C92.2727 24.9528 92.4385 20.9541 92.5711 16.986C92.6042 16.4061 92.9025 15.9177 93.1677 15.4293C93.4328 14.9104 93.7643 14.3915 93.8969 13.8421C94.0958 12.9264 95.057 12.6822 95.6868 12.1633C97.7418 10.515 100.327 9.66029 102.581 8.34776C104.172 7.40152 105.962 6.57738 107.818 6.02795C108.514 5.81428 109.045 5.26485 109.774 5.05118C111.232 4.59332 112.591 4.01337 114.05 3.55551C115.74 3.03661 117.464 2.60927 119.088 1.93775C120.049 1.57146 121.143 1.44936 122.17 1.20517C124.491 0.655741 126.91 0.503122 129.264 0.228406C130.921 0.0147392 132.578 -0.0768326 134.169 0.075787C137.185 0.350502 140.235 0.381026 143.251 0.96098C145.571 1.41884 147.792 2.02932 150.013 2.82294C151.206 3.25027 152.167 3.9218 153.294 4.37966C154.454 4.86804 155.283 5.72271 156.045 6.69947C156.675 7.4931 157.504 8.19515 158.134 9.01929C159.128 10.3623 160.122 11.7054 160.487 13.3537C160.653 14.0863 160.951 14.7883 161.117 15.5209C161.647 17.8407 161.382 20.191 161.349 22.5109C161.316 23.915 161.249 25.3191 161.316 26.6926C161.481 31.4544 161.316 36.1856 161.448 40.9473C161.481 42.4735 162.443 43.6029 163.636 44.4575C164.895 45.4038 166.42 45.8006 168.111 45.8922C169.47 45.9837 170.895 46.2585 172.254 46.6247C173.58 46.991 175.104 46.93 176.53 46.93C181.866 46.9605 187.169 46.9605 192.506 46.991C193.699 46.991 194.893 47.1131 196.086 47.4489C197.014 47.7236 198.041 47.6626 199.003 47.8457C201.422 48.2425 203.842 48.6088 206.195 49.2803C207.422 49.6466 208.747 49.7077 209.908 50.2571C210.902 50.7455 212.029 50.9286 212.891 51.6612C212.924 51.6917 212.99 51.7222 213.023 51.7528C214.78 52.2411 216.139 53.4011 217.697 54.2252C218.824 54.8357 219.951 55.5682 220.879 56.545C221.277 56.9418 221.973 57.2471 222.536 57.6133C223.365 58.1323 224.028 58.8038 224.691 59.4448C225.221 59.9637 225.718 60.5436 226.215 61.0931C226.779 61.7036 227.309 62.3446 227.641 63.0771C228.734 65.3664 230.458 67.4115 230.458 70.0671C230.458 71.227 231.055 72.3259 231.287 73.4858C231.585 75.1341 231.784 76.7518 231.254 78.3696C231.22 78.4307 231.154 78.5222 231.154 78.5833C231.254 80.1705 230.392 81.6357 230.359 83.1924C230.359 83.925 229.928 84.5049 229.696 85.1459C228.734 87.771 227.574 90.3045 226.514 92.8685C225.983 94.1199 225.088 95.2493 224.923 96.6229C224.89 96.806 224.757 96.8671 224.624 96.9892C223.398 98.2407 222.172 99.4311 220.68 100.408C220.282 100.652 219.851 100.591 219.454 100.805C218.857 101.14 218.492 101.69 217.896 102.026C216.04 103.094 214.316 104.376 212.36 105.322C211.366 105.811 210.471 106.452 209.444 106.909C208.747 107.215 208.018 107.825 207.289 108.283C204.704 109.84 202.317 111.641 199.533 112.862C198.041 113.503 196.782 114.388 195.39 115.151C194.959 115.365 194.362 115.365 193.865 115.395C193.567 115.426 193.368 115.426 193.301 115.761C193.136 116.402 192.274 116.341 191.876 116.83C191.048 117.929 190.086 118.966 188.926 119.791C187.567 120.798 187.037 122.385 185.811 123.453C185.545 123.698 185.346 124.003 184.949 124.155C184.385 123.698 184.054 123.087 183.59 122.568C180.706 119.18 177.657 115.975 174.143 113.106C171.525 110.969 168.807 108.924 165.923 107.093C163.536 105.566 160.984 104.315 158.432 103.033C155.184 101.415 151.737 100.225 148.223 99.1564C145.87 98.4543 143.483 97.8744 141.064 97.5386C140.732 97.5081 140.599 97.3555 140.5 97.0808C140.367 96.745 140.367 96.3787 140.367 96.0429C140.301 93.5705 140.268 91.1286 140.235 88.6562C140.235 88.2593 139.937 87.8625 140.202 87.4657C141.097 86.2448 141.461 84.8101 142.091 83.4976C142.986 81.6662 143.384 79.7127 143.815 77.7591C144.08 76.5076 144.411 75.2562 144.577 73.9742C144.676 73.3637 144.908 72.7532 145.87 72.8143C146.201 72.8448 146.599 72.6006 146.93 72.448C148.687 71.6543 150.212 70.4944 151.77 69.3956C153.062 68.4799 154.256 67.4115 155.117 66.099C156.742 63.5655 157.67 60.8489 158.034 57.9186C158.299 55.8124 157.371 54.2252 155.813 52.8821C154.521 51.7528 152.897 51.9359 151.272 52.2717C150.941 52.3632 150.477 52.5769 150.245 52.3632C149.98 52.119 150.311 51.7833 150.411 51.478C150.775 50.4402 151.438 49.5245 151.803 48.4867C152.897 45.4343 153.758 42.2903 155.184 39.3601C156.012 37.6812 156.476 35.8803 157.04 34.1405C157.404 33.0111 157.404 31.8512 156.775 30.7523C156.211 29.7755 155.416 29.0124 154.488 28.3104C153.394 27.4863 152.201 26.7842 151.074 25.9295C152.399 26.2042 153.659 26.5705 155.018 26.6011C155.416 26.6011 155.847 26.7537 156.012 26.4484C156.211 26.0211 155.648 25.8685 155.383 25.7159C152.565 24.2202 150.842 21.6867 148.488 19.4585C149.35 19.4585 150.013 19.4585 150.709 19.4585C151.67 19.489 152.532 19.2143 153.394 18.848C153.825 18.6648 153.99 18.4207 153.394 18.207C153.129 18.1154 152.897 17.9933 152.631 17.9323C151.703 17.6881 150.808 17.3828 149.98 16.8029C148.985 16.1008 148.024 15.3683 146.798 15.002C146.433 14.8799 146.4 14.6357 146.499 14.3305C146.698 13.7505 146.499 13.2621 146.135 12.7737C144.444 10.4234 141.793 9.75186 139.008 9.44663C137.053 9.20243 135.064 9.35505 133.109 9.75186C132.015 9.99606 130.921 10.1792 129.86 10.515C128.07 11.0644 126.446 11.858 124.756 12.5601C126.247 11.0949 128.07 10.0266 129.893 8.92772C129.396 8.83615 128.667 8.98877 128.07 9.23296C125.352 10.3623 122.866 11.797 120.613 13.5368C118.359 15.2462 115.806 16.4366 113.122 17.4134C111.365 18.0544 109.608 18.7869 107.918 19.6111C106.227 20.4352 104.802 21.6867 103.012 22.3277C101.819 22.755 100.791 23.4266 99.8963 24.1897C97.8413 25.9601 96.1177 28.0052 94.6592 30.2334C93.7312 31.668 93.0351 33.1942 93.234 34.873C93.3334 35.8803 93.4991 36.9181 93.7643 37.9254C94.2946 40.0316 94.5267 42.1988 95.057 44.3049C95.6205 46.5027 96.3828 48.6698 97.2115 50.8065C97.4435 51.417 97.3441 51.478 96.7474 51.5696C95.5542 51.7528 94.3941 51.997 93.9963 53.3705C93.2671 52.1801 93.2671 50.9286 92.8362 49.7992C92.4716 48.9446 92.4053 47.7847 90.8806 47.8152Z" fill="#EBE298"/>
<path d="M90.8805 47.8152C92.4052 47.7846 92.4715 48.9445 92.8361 49.8297C93.3002 50.9591 93.267 52.2106 93.9962 53.401C94.394 52.0275 95.5872 51.7833 96.7473 51.6001C97.3108 51.5085 97.4434 51.4475 97.2114 50.837C96.4159 48.7003 95.6535 46.5637 95.0569 44.3354C94.5266 42.2293 94.2946 40.0621 93.7642 37.9559C93.499 36.9486 93.3333 35.9108 93.2339 34.9035C93.0682 33.2247 93.7311 31.6985 94.6592 30.2639C96.1176 28.0357 97.8412 25.9906 99.8962 24.2202C100.791 23.4266 101.819 22.755 103.012 22.3582C104.802 21.7172 106.227 20.4657 107.918 19.6416C109.608 18.8174 111.365 18.0849 113.121 17.4439C115.806 16.4366 118.358 15.2767 120.612 13.5673C122.899 11.8275 125.385 10.3929 128.07 9.26347C128.667 9.01927 129.396 8.86666 129.893 8.95823C128.07 10.0571 126.247 11.1254 124.756 12.5906C126.446 11.8885 128.103 11.0644 129.86 10.5455C130.921 10.2097 132.015 10.0266 133.108 9.78237C135.064 9.35504 137.053 9.23294 139.008 9.47713C141.793 9.8129 144.444 10.4539 146.135 12.8042C146.499 13.2926 146.698 13.781 146.499 14.361C146.4 14.6662 146.433 14.9104 146.798 15.0325C147.991 15.3988 148.985 16.1313 149.98 16.8334C150.775 17.4133 151.67 17.6881 152.631 17.9628C152.897 18.0238 153.129 18.1459 153.394 18.2375C153.957 18.4817 153.791 18.6954 153.394 18.8785C152.532 19.2448 151.67 19.5195 150.709 19.489C150.046 19.489 149.35 19.489 148.488 19.489C150.841 21.6867 152.532 24.2507 155.382 25.7464C155.681 25.899 156.244 26.0211 156.012 26.4789C155.847 26.8147 155.416 26.6621 155.018 26.6316C153.659 26.601 152.399 26.2042 151.074 25.96C152.2 26.8147 153.394 27.5168 154.488 28.3409C155.416 29.043 156.211 29.8061 156.775 30.7828C157.404 31.8817 157.404 33.0416 157.04 34.171C156.476 35.9414 156.012 37.7117 155.184 39.3906C153.758 42.3209 152.897 45.4648 151.803 48.5172C151.438 49.555 150.742 50.4402 150.411 51.5085C150.311 51.8138 149.98 52.1496 150.245 52.3937C150.477 52.6074 150.908 52.3632 151.272 52.3022C152.863 51.9359 154.488 51.7833 155.813 52.9126C157.371 54.2557 158.299 55.8429 158.034 57.9491C157.67 60.8794 156.741 63.596 155.117 66.1295C154.289 67.442 153.062 68.5104 151.77 69.4261C150.245 70.5249 148.72 71.6848 146.93 72.4785C146.599 72.6311 146.201 72.8753 145.87 72.8448C144.908 72.7837 144.676 73.4247 144.577 74.0047C144.411 75.2867 144.08 76.5382 143.815 77.7896C143.384 79.7432 142.986 81.6967 142.091 83.5281C141.461 84.8407 141.097 86.2753 140.202 87.4962C139.903 87.893 140.202 88.2899 140.235 88.6867C140.268 91.1591 140.334 93.601 140.367 96.0735C140.367 96.4397 140.367 96.7755 140.5 97.1113C140.599 97.386 140.765 97.5081 141.063 97.5691C143.516 97.8744 145.903 98.4848 148.223 99.1869C151.736 100.225 155.184 101.415 158.432 103.063C160.984 104.345 163.536 105.597 165.923 107.123C168.807 108.955 171.525 110.969 174.143 113.136C177.657 116.006 180.706 119.211 183.59 122.599C184.054 123.118 184.352 123.759 184.949 124.186C186.274 126.231 187.733 128.215 188.959 130.291C190.782 133.374 192.274 136.548 193.533 139.845C194.395 142.073 195.124 144.332 195.688 146.621C196.218 148.605 196.55 150.62 196.881 152.665C197.411 156.053 197.544 159.472 197.511 162.89C197.511 163.592 197.511 164.325 197.511 165.027C197.246 166.553 197.146 168.079 196.881 169.606C196.384 172.475 195.887 175.344 194.892 178.122C194.495 179.251 194.163 180.442 193.732 181.571C192.406 184.898 190.815 188.103 188.86 191.186C187.236 193.78 185.446 196.283 183.424 198.603C181.336 201.015 178.949 203.212 176.43 205.227C174.11 207.089 171.757 208.92 169.138 210.447C165.227 212.736 161.183 214.72 156.808 216.216C154.72 216.918 152.598 217.559 150.444 218.078C148.72 218.505 146.93 218.81 145.174 219.115C143.185 219.451 141.163 219.634 139.141 219.878C137.848 220.031 136.489 220.001 135.163 219.97C134.434 219.97 134.003 220.214 133.838 220.855C132.91 222.015 132.147 223.267 131.252 224.457C128.402 228.242 125.551 232.057 123.098 236.087C122.634 236.88 122.203 237.674 121.64 238.406C120.878 239.414 119.187 239.933 118.126 239.261C117.198 238.681 116.138 238.559 115.143 238.284C113.387 237.796 111.63 237.369 109.873 236.911C107.188 236.239 104.57 235.262 101.918 234.499C100.029 233.95 98.1395 233.401 96.2502 232.821C94.3277 232.21 92.3721 231.752 90.4496 231.203C87.7648 230.44 85.1131 229.616 82.4283 228.852C79.8098 228.089 77.1581 227.387 74.5396 226.624C72.7828 226.105 71.0593 225.525 69.3025 224.945C68.8716 224.793 68.3744 224.793 67.9767 224.579C67.7447 224.426 67.6121 224.304 67.6121 224.06C67.6121 223.755 67.811 223.663 68.1093 223.663C68.3413 223.663 68.5733 223.663 68.739 223.48C68.9048 223.297 69.3688 223.45 69.402 223.114C69.4351 222.717 69.0042 222.778 68.7722 222.626C68.1424 222.259 68.1756 221.862 68.8053 221.496C69.402 221.16 69.9986 220.794 70.5952 220.458C70.4295 220.214 70.2306 220.123 69.9654 220.153C69.8992 219.939 69.7666 219.787 69.5014 219.665C68.8053 219.36 68.2087 218.932 67.7115 218.383C67.4464 218.108 66.916 217.925 67.0817 217.498C67.2475 217.04 67.7778 217.345 68.1093 217.223C68.2419 217.162 68.4076 217.192 68.507 217.131C68.8385 216.796 69.7003 217.07 69.6671 216.49C69.634 216.002 69.0705 215.636 68.5733 215.361C67.9435 214.995 67.3801 214.567 66.9492 214.018C66.5514 213.529 66.6509 213.194 67.2806 213.011C67.4464 212.949 67.6452 212.919 67.8441 212.858C70.2638 212.034 72.4845 210.782 74.871 209.867C78.1856 208.615 81.3676 207.089 84.7154 205.898C88.03 204.708 91.1457 203.121 94.4934 201.991C94.6592 201.93 94.7917 201.839 94.7917 201.686C94.7586 201.473 94.5597 201.503 94.4271 201.473C92.9687 201.289 91.5434 200.862 90.1182 200.557C88.0631 200.129 86.0744 199.519 84.2182 198.664C82.8924 198.054 81.5002 197.474 81.003 195.978C80.4727 194.391 80.1412 192.773 80.0087 191.155C79.8429 188.897 79.8761 186.638 79.8761 184.379C79.8761 183.311 79.9092 183.311 78.7491 183.463C78.6497 183.463 78.5171 183.494 78.4177 183.524C76.23 183.982 74.0092 184.226 71.7885 184.013C70.6284 183.891 69.4351 183.738 68.3081 183.219C66.1868 182.273 64.5295 180.838 62.9054 179.282C60.5189 176.962 58.961 174.215 57.602 171.345C56.7402 169.514 56.4419 167.469 56.0773 165.485C55.6796 163.379 55.5801 161.242 55.4807 159.136C55.2818 154.649 55.2155 150.162 55.9779 145.705C56.4419 143.05 57.0385 140.455 57.6683 137.861C58.4307 134.656 59.6239 131.542 60.784 128.459C61.5132 126.445 62.4082 124.491 63.3031 122.538C65.6896 117.318 68.507 112.282 71.5233 107.367C73.6446 103.888 75.766 100.377 77.7879 96.8366C79.6772 93.5094 81.7985 90.3044 83.4227 86.8552C84.0193 85.6038 84.8811 84.4744 86.2401 83.8028C87.2013 83.345 87.4002 83.1618 87.1019 82.1851C86.671 80.781 86.4721 79.3158 86.2732 77.8507C85.9086 75.3172 85.776 72.7532 85.5772 70.1892C85.4446 68.5714 85.6103 66.9536 85.1794 65.3359C85.2126 63.0466 85.1463 60.7878 85.2789 58.4985C85.3783 56.7281 85.4446 54.9272 86.2069 53.2484C86.6047 52.3937 87.4002 51.9359 88.3614 52.2106C89.1569 52.4548 89.1901 52.1496 89.2232 51.5391C89.2232 50.6539 89.0575 49.7382 89.4884 48.853C89.7536 48.1509 90.1845 47.8152 90.8805 47.8152ZM151.405 57.9796C151.538 57.9796 151.67 57.9796 151.803 57.9491C152.2 57.888 152.565 58.0101 152.698 58.3459C152.797 58.6206 152.432 58.7732 152.2 58.9259C151.538 59.4142 150.875 59.9331 150.212 60.4521C149.748 60.7878 149.648 61.1541 149.88 61.7035C150.245 62.5277 150.444 63.3824 150.444 64.2981C150.444 65.0612 149.781 65.6716 149.018 65.6106C148.19 65.5495 148.157 64.9696 148.09 64.3591C148.057 63.9623 148.223 63.5655 147.958 63.1076C147.229 64.0844 146.367 64.9391 145.936 65.9464C145.604 66.7095 145.538 67.6252 145.505 68.4798C145.439 69.5177 145.207 70.5249 144.975 71.5322C144.942 71.6543 144.842 71.7764 144.975 71.868C145.14 71.9901 145.306 71.929 145.472 71.7764C145.936 71.4101 146.433 71.0438 146.897 70.6776C148.621 69.3345 150.344 67.9609 151.438 66.1295C152.996 63.535 153.957 60.7573 154.189 57.7965C154.222 57.7965 154.256 57.827 154.289 57.827C154.289 57.7354 154.289 57.7049 154.189 57.7354C154.521 57.186 154.388 56.6366 154.289 56.0871C154.156 55.3546 153.825 54.7136 153.394 54.1336C152.897 53.4316 152.2 53.1568 151.339 53.4621C150.444 53.7673 149.549 54.1641 149.184 54.9883C148.356 56.7587 147.659 58.5901 146.93 60.391C146.831 60.6657 146.731 61.032 147.03 61.4899C148.157 59.8721 149.847 58.9869 151.405 57.9796ZM88.8586 56.7281C88.7592 55.8124 89.1901 54.8662 88.5272 54.042C88.2951 53.7368 88.3283 53.0653 87.7979 53.1568C87.3671 53.2484 87.3339 53.8589 87.2676 54.2557C86.8367 56.6671 86.4058 59.0785 86.6047 61.5509C86.5053 62.6803 86.6047 63.8402 86.7041 64.9696C87.0687 68.1441 87.1019 71.3186 87.4333 74.493C87.8311 78.0643 88.1294 81.6051 89.1901 85.0848C89.2895 85.4206 89.389 85.7258 89.8199 85.8174C89.8861 86.3058 89.9524 86.7637 90.5822 86.9468C92.9024 87.6183 95.3221 87.8625 97.7417 88.1372C98.935 88.2899 98.935 88.2288 98.8687 87.0994C98.7692 85.7258 98.5704 84.3828 98.5041 83.0092C98.4046 80.8725 98.703 78.7969 99.0344 76.6602C99.399 74.4931 99.9625 72.3564 100.625 70.2807C100.99 69.1514 101.553 68.083 101.421 66.8621C101.421 66.7095 101.454 66.5263 101.255 66.4958C101.089 66.4653 100.957 66.5568 100.857 66.6789C100.36 67.3505 99.8631 67.9609 99.4322 68.663C98.703 69.8534 98.1395 71.1049 97.1451 72.1427C96.8468 72.4479 96.5153 72.6311 96.0844 72.5395C95.6867 72.4479 95.5209 72.1427 95.4547 71.7764C95.1232 70.3723 95.5872 69.0293 95.7198 67.6557C95.985 65.2748 96.4159 62.9245 97.1451 60.6047C97.6754 58.8953 98.1726 57.186 98.703 55.4767C98.7692 55.2935 98.8687 55.1104 98.703 54.9883C98.4709 54.8357 98.3383 55.0188 98.1726 55.1714C97.1451 56.2398 96.217 57.3691 95.8193 58.7732C95.4878 59.9026 95.1563 61.0625 94.9243 62.2224C94.6592 63.3518 94.1288 64.4202 94.1951 65.6106C94.2283 66.9842 94.162 68.3577 94.2614 69.7313C94.2946 70.3723 93.8968 70.7081 93.499 71.0133C93.2339 71.227 92.9024 71.1659 92.9024 70.7386C92.9024 68.8767 92.8693 66.9842 92.6373 65.1222C92.4384 63.5044 92.8361 61.8867 92.8693 60.2689C92.9687 57.1555 92.8361 54.1031 92.1401 51.0507C92.0406 50.5928 91.9412 50.0739 91.5766 49.6466C91.444 49.494 91.3114 49.4024 91.1125 49.4329C90.8474 49.4634 90.8474 49.6771 90.8142 49.8297C90.6816 51.2338 90.5159 52.6379 90.5159 54.042C90.5491 58.0712 90.5159 62.1003 90.7479 66.1295C90.8142 67.442 90.6154 68.8461 90.5822 70.1892C90.5491 70.6165 90.317 70.7691 89.9193 70.7691C89.4884 70.5555 89.5215 70.1892 89.5215 69.8534C89.621 67.2894 89.2232 64.7254 89.2564 62.1614C89.2564 60.6352 89.2232 59.109 89.1901 57.5828C89.1569 57.3081 89.2564 56.9418 88.8586 56.7281ZM115.276 112.343C115.077 111.427 114.845 110.542 114.712 109.626C114.447 107.825 114.282 105.994 113.95 104.223C113.851 103.704 113.884 103.094 113.552 102.483C112.956 104.04 112.425 105.505 111.862 106.94C111.63 107.52 111.796 108.13 111.63 108.71C111.166 110.572 111.199 112.465 111.398 114.357C111.265 116.311 111.597 118.234 111.961 120.157C112.326 122.11 112.856 124.003 113.519 125.865C114.248 127.91 115.11 129.894 116.071 131.847C116.801 133.282 117.364 134.808 118.392 136.09C118.922 136.762 118.955 136.792 119.386 135.999C119.651 135.51 119.883 134.991 120.215 134.564C121.971 132.244 123.728 129.924 125.485 127.605C126.28 126.536 127.043 125.437 128.137 124.613C128.335 124.461 128.501 124.247 128.435 124.033C128.335 123.82 128.037 123.942 127.838 123.942C127.01 123.85 126.214 123.881 125.385 123.698C123.861 123.362 122.502 122.69 121.176 121.988C119.452 121.042 117.696 120.004 116.9 118.173C116.038 116.28 115.707 114.296 115.276 112.343ZM114.381 208.462C114.05 208.554 113.817 208.768 113.552 208.92C111.497 210.263 109.939 212.034 108.481 213.865C105.63 217.406 103.111 221.13 100.99 225.098C100.592 225.831 100.294 226.594 100.128 227.631C101.454 226.319 102.614 225.19 103.774 224.06C105.266 222.595 106.757 221.099 108.315 219.695C109.707 218.474 111.199 217.345 112.624 216.185C114.182 214.903 115.74 213.591 117.563 212.583C118.093 212.308 118.624 212.095 119.253 212.064C119.585 212.064 119.817 212.217 119.916 212.431C120.016 212.644 119.751 212.797 119.618 212.919C119.121 213.316 118.591 213.652 118.093 214.048C115.806 215.88 113.619 217.772 111.265 219.482C108.713 221.313 107.453 223.785 106.492 226.502C106.426 226.685 106.327 226.929 106.559 227.052C106.691 227.113 106.923 226.99 107.089 226.899C109.376 225.281 111.829 223.847 114.083 222.198C116.668 220.306 119.154 218.322 122.038 216.826C122.899 216.368 123.761 215.849 124.855 215.941C125.385 216.002 125.485 216.246 125.153 216.582C124.789 216.948 124.358 217.253 123.894 217.559C122.336 218.596 120.778 219.634 119.253 220.672C118.16 221.405 118.093 222.656 117.43 223.602C117.165 224.03 116.999 224.518 117.033 225.037C117.066 225.342 117.198 225.586 117.53 225.342C118.226 224.823 119.088 224.579 119.817 224.091C123.364 221.679 126.877 219.237 130.291 216.673C131.816 215.544 133.473 214.537 134.931 213.316C135.594 213.346 135.329 212.95 135.197 212.736C134.534 211.637 133.838 210.569 133.175 209.47C131.352 206.478 129.23 203.731 126.512 201.381C125.883 200.832 125.452 200.923 124.921 201.411C124.192 202.052 123.463 202.693 122.568 203.151C119.552 204.616 116.9 206.448 114.381 208.462ZM121.673 29.1651C121.607 29.1345 121.507 29.104 121.441 29.104C119.253 29.3177 117.232 30.0197 115.276 30.9354C110.702 33.0721 107.984 36.6434 105.73 40.7031C104.901 42.2293 104.47 43.9081 103.841 45.4953C103.575 46.1974 103.111 46.8689 102.979 47.571C102.614 49.3108 102.051 50.9896 101.984 52.76C101.984 53.0958 101.852 53.3705 102.382 53.3705C102.813 53.3705 103.111 53.3705 103.111 52.8211C103.145 51.9054 103.31 50.9591 103.443 50.0434C103.509 49.6466 103.575 49.0666 104.139 49.0361C105.63 48.9445 107.056 48.5783 108.547 48.5172C110.403 48.4256 112.226 48.4256 114.083 48.3646C114.315 48.3646 114.613 48.4867 114.779 48.212C116.038 48.1509 117.265 48.1509 118.524 48.212C118.491 48.2425 118.491 48.273 118.458 48.3035C118.491 48.273 118.524 48.273 118.557 48.2425C118.591 48.6088 118.657 49.0056 118.624 49.3719C118.557 49.9518 118.922 50.0434 119.353 49.8908C120.016 49.6161 120.679 49.6466 121.375 49.5855C121.773 49.555 122.137 49.494 122.27 49.0666C122.502 48.1509 122.734 47.2657 122.999 46.35C123.264 45.5259 123.529 44.7017 123.861 43.8776C123.96 43.6029 124.192 43.2671 124.623 43.3892C124.988 43.4808 125.352 43.6029 125.319 44.1218C125.286 44.8543 125.021 45.4953 124.955 46.1974C124.855 47.0826 124.689 47.9983 124.424 48.853C124.292 49.2803 124.49 49.3414 124.822 49.3414C125.684 49.3719 126.579 49.2803 127.407 49.555C127.871 49.6771 128.07 49.4329 127.739 49.0666C127.474 48.7919 127.672 48.7614 127.838 48.6393C128.17 48.3951 128.567 48.4562 128.932 48.4256C130.225 48.3035 131.517 48.2425 132.777 48.0593C135.462 47.632 138.18 47.2047 140.931 47.2047C142.224 47.2047 142.257 47.2047 142.422 48.4256C142.522 49.1582 142.953 49.2498 143.649 49.1887C144.411 49.1277 144.245 48.6393 144.245 48.2425C144.212 47.1436 143.748 46.1058 143.284 45.1596C142.058 42.6566 141.063 40.0316 139.472 37.6812C138.047 35.5751 136.522 33.5605 134.302 32.1564C131.948 30.6912 129.363 29.7145 126.579 29.1651C124.988 28.8903 123.33 28.9514 121.673 29.1651ZM124.325 121.439C125.286 122.141 126.38 122.477 127.573 122.69C129.23 122.996 130.821 123.118 132.28 122.293C133.639 121.53 134.931 120.645 135.959 119.455C137.086 118.203 137.285 116.647 137.484 115.151C137.683 113.655 137.881 112.129 137.848 110.603C137.815 109.748 137.616 108.955 137.616 108.1C137.616 105.566 137.55 103.002 137.583 100.469C137.616 97.1418 137.351 93.7842 137.915 90.457C137.948 90.2739 138.047 90.0297 137.782 89.9076C137.616 89.8466 137.451 89.9381 137.285 90.0602C136.125 90.9454 134.865 91.7391 133.572 92.4716C131.584 93.601 129.33 94.0894 127.109 94.4252C125.75 94.6083 124.325 94.6388 122.933 94.2725C122.237 94.0894 121.474 94.0589 120.778 93.9368C120.215 93.7842 119.618 93.601 119.055 93.4484C117.696 93.0821 116.403 92.5327 115.11 92.0443C114.712 91.8917 114.646 91.9832 114.679 92.3801C114.911 93.9368 115.243 95.463 115.541 97.0197C116.071 99.6447 116.403 102.27 116.701 104.895C116.867 106.421 117.165 107.947 117.165 109.504C117.165 109.748 117.232 110.023 117.298 110.267C117.729 111.58 117.795 112.953 118.06 114.296C118.458 116.219 118.856 118.142 120.745 119.424C121.474 119.913 122.237 120.34 122.999 120.798C123.364 121.103 123.728 121.5 124.325 121.439ZM116.701 174.673C117.596 176.443 118.458 178.183 119.386 179.923C120.546 182.09 121.806 184.257 122.999 186.424C124.457 189.141 126.015 191.796 127.706 194.421C128.07 194.971 128.435 195.093 128.998 194.666C129.761 194.147 130.523 193.597 131.352 193.201C132.015 192.865 131.849 192.621 131.517 192.224C129.131 189.507 127.275 186.485 125.385 183.463C125.153 183.097 125.021 182.639 124.921 182.181C124.689 180.96 124.988 179.77 125.087 178.549C125.187 176.962 125.419 175.375 125.551 173.787C125.717 171.803 125.717 169.819 126.115 167.896C126.546 165.79 126.579 163.684 126.877 161.578C127.01 160.632 126.943 159.655 127.043 158.678C127.308 156.572 127.805 154.466 127.838 152.36C127.938 148.666 128.137 144.973 128.302 141.279C128.335 140.821 128.17 140.547 127.772 140.364C126.678 139.875 125.982 139.051 125.319 138.166C124.424 136.975 123.894 135.632 123.297 134.32C123.231 134.167 123.231 134.015 122.999 134.015C122.833 134.015 122.767 134.137 122.701 134.259C122.237 135.083 121.773 135.907 121.242 136.701C120.811 137.403 120.579 138.288 119.552 138.502C118.723 138.654 118.027 138.41 117.497 137.8C116.966 137.22 116.436 136.67 116.038 136.029C113.751 132.519 112.094 128.734 110.768 124.827C109.873 122.171 109.31 119.455 109.011 116.677C108.978 115.304 109.111 113.899 108.58 112.404C108.415 112.953 108.382 113.35 108.282 113.747C107.951 114.968 107.619 116.189 107.487 117.44C107.122 118.417 106.989 119.455 106.791 120.462C106.492 121.927 106.293 123.392 105.995 124.857C105.597 126.964 105.133 129.07 104.802 131.176C104.537 132.702 104.205 134.198 104.039 135.724C103.807 137.647 103.476 139.539 103.509 141.462C103.509 142.134 103.874 142.531 104.57 142.683C105.2 142.836 105.829 143.019 106.459 143.141C108.083 143.508 109.608 144.118 111.232 144.454C113.387 144.881 115.508 145.4 117.596 146.041C118.624 146.346 118.988 146.926 118.557 147.628C117.729 149.002 116.933 150.375 115.972 151.688C114.348 153.977 112.459 156.114 110.934 158.434C110.337 159.319 110.304 160.113 110.602 161.059C111.265 163.043 112.193 164.905 113.055 166.828C114.215 169.544 115.342 172.17 116.701 174.673ZM138.942 162.555C139.141 163.531 139.307 164.478 139.506 165.454C139.837 167.103 140.102 168.781 140.566 170.43C141.494 173.757 142.025 177.114 142.787 180.472C142.886 180.869 142.82 181.235 142.621 181.632C142.19 182.517 141.958 183.433 141.892 184.593C143.251 183.128 144.544 181.876 145.77 180.564C148.223 178 150.344 175.252 152.565 172.536C154.023 170.704 155.449 168.873 155.813 166.523C156.045 164.996 156.476 163.501 156.841 162.005C157.239 160.326 157.67 158.678 158.034 156.999C158.366 155.565 158.465 154.069 159.327 152.756C159.426 152.604 159.493 152.39 159.294 152.268C158.299 151.627 157.438 150.803 156.211 150.528C156.145 150.467 156.112 150.406 156.045 150.345C154.123 148.758 151.869 147.628 149.847 146.163C149.25 145.736 149.25 145.492 149.715 144.973C152.2 142.195 154.72 139.417 157.371 136.762C157.636 136.487 157.835 136.273 157.603 135.846C156.211 132.916 154.819 129.955 153.46 126.994C151.372 122.477 149.35 117.959 147.295 113.411C147.195 113.655 147.195 113.899 147.262 114.174C147.726 115.945 147.958 117.776 147.891 119.607C147.858 121.683 147.759 123.759 147.825 125.865C147.891 129.009 147.096 131.939 145.803 134.808C144.975 136.609 143.251 137.006 141.527 135.816C140.5 135.114 139.704 134.198 138.909 133.252C138.743 133.038 138.577 132.916 138.246 132.855C138.213 133.587 138.08 134.259 137.915 134.93C137.451 136.792 136.788 138.532 135.528 140.058C135.13 140.516 135.064 140.974 135.263 141.432C135.727 142.531 135.893 143.721 136.125 144.881C136.556 147.232 136.821 149.582 137.119 151.932C137.285 153.214 137.351 154.496 137.583 155.778C138.014 158.037 138.511 160.296 138.942 162.555ZM111.729 207.516C112.392 207.364 112.856 206.906 113.387 206.57C114.414 205.898 115.574 205.41 116.635 204.372C115.939 204.372 115.442 204.342 114.978 204.372C113.188 204.433 111.398 204.189 109.641 203.945C107.984 203.731 106.327 203.579 104.702 203.212C104.437 203.151 104.238 203.304 104.039 203.457C103.277 203.975 102.515 204.525 101.719 204.983C97.7417 207.303 93.7642 209.653 89.7536 211.912C88.9912 212.339 88.1957 212.98 87.1682 212.278C86.8699 212.064 86.5053 211.973 86.2401 211.698C86.0412 211.484 85.7429 211.301 85.4446 211.484C84.6822 211.942 83.7873 212.095 82.9586 212.461C80.8042 213.438 78.6497 214.415 76.3626 215.117C75.5008 215.391 74.5396 215.575 73.6446 216.185C74.4401 216.185 74.9373 216.582 75.5671 216.582C76.7272 216.582 77.6222 217.101 78.4839 217.772C78.3514 217.894 78.2519 218.016 78.0862 218.139C75.8323 219.39 73.5784 220.642 71.2581 221.954C72.3188 222.412 73.1806 223.022 74.2413 223.328C75.8986 223.785 77.589 224.243 79.1469 224.915C81.6991 225.983 84.3839 226.624 87.0024 227.54C89.1238 228.273 91.2451 229.066 93.4328 229.616C95.2558 230.104 97.0125 230.714 98.8355 231.172C100.393 231.569 101.951 231.844 103.509 232.241C105.763 232.79 108.083 233.217 110.37 233.675C111.928 233.98 113.486 234.286 114.978 234.713C116.502 235.14 118.093 235.415 119.651 235.751C119.983 235.812 120.148 235.69 120.248 235.476C120.712 234.683 121.275 233.98 121.773 233.187C122.899 231.355 123.993 229.493 125.319 227.754C127.142 225.342 128.833 222.87 130.589 220.428C130.788 220.123 130.722 220.031 130.291 219.878C129.429 219.573 128.932 220.031 128.369 220.397C125.651 222.259 123.065 224.304 120.082 225.892C118.458 226.746 116.834 226.96 115.077 226.319C114.315 226.044 114.016 225.434 114.315 224.732C114.381 224.579 114.447 224.396 114.248 224.243C112.624 225.312 111.033 226.349 109.442 227.418C108.348 228.15 107.188 228.608 105.763 228.608C104.404 228.608 103.542 227.631 104.073 226.411C103.708 226.258 103.575 226.563 103.41 226.716C102.614 227.448 101.819 228.211 100.957 228.914C100.228 229.524 99.399 229.493 98.5704 229.402C98.1063 229.341 97.8412 229.036 97.9075 228.608C98.04 227.876 98.1063 227.143 98.3383 226.441C98.5704 225.8 98.703 225.556 97.7417 225.739C96.9462 225.892 95.985 225.983 95.4215 225.19C94.8912 224.457 95.5541 223.877 95.8856 223.358C97.5428 220.886 99.631 218.719 101.885 216.673C103.609 215.117 105.73 213.957 107.056 212.003C107.487 211.362 108.05 210.752 108.647 210.233C109.641 209.317 110.702 208.401 111.729 207.516ZM124.292 93.0516C124.855 93.2652 125.452 93.3568 125.982 93.2347C127.54 92.9295 129.164 92.8379 130.622 92.1359C132.711 91.1286 134.799 90.1213 136.357 88.4425C139.472 85.0848 140.865 81.0252 141.826 76.8129C142.157 75.3477 142.621 73.9131 142.986 72.4174C143.549 70.0976 144.013 67.7778 144.179 65.3969C144.312 63.3213 144.477 61.2457 144.743 59.2006C145.107 56.6366 144.61 54.1031 144.411 51.5391C144.345 50.8065 143.682 50.8981 143.152 50.9286C142.522 50.9591 142.787 51.417 142.82 51.6917C142.886 53.7978 143.152 55.904 142.886 58.0101C142.787 58.7427 142.389 58.9869 141.693 58.8953C141.03 58.8038 140.367 58.7427 139.671 58.8343C138.014 59.0785 136.324 58.8648 134.666 59.0785C133.075 59.2921 131.418 59.17 129.794 59.1395C129.23 59.1395 128.667 58.8953 128.634 58.2849C128.567 57.4302 128.269 56.606 128.335 55.7514C128.402 54.4999 128.335 53.2484 128.369 52.0275C128.369 51.6306 128.269 51.5085 127.805 51.5085C126.744 51.5696 125.717 51.6001 124.656 51.5696C124.159 51.5696 123.96 51.6917 123.894 52.1496C123.629 53.7368 123.264 55.324 123.065 56.9418C122.8 59.2006 122.899 61.4593 122.933 63.7181C122.966 65.0001 122.966 66.2821 123.43 67.5031C123.695 67.381 123.596 67.1673 123.662 67.0147C124.06 65.6106 124.093 64.1454 124.789 62.8024C124.888 62.5887 124.955 62.3445 125.187 62.314C125.518 62.253 125.783 62.4666 125.916 62.7108C126.148 63.1382 126.38 63.5655 126.214 64.0844C126.081 64.5117 126.048 64.9696 125.916 65.4275C125.584 66.5874 125.286 67.7778 124.855 68.9072C124.689 69.365 124.424 70.006 123.629 69.8839C122.866 69.7924 122.203 69.5482 121.938 68.8156C121.209 66.9536 120.944 65.0001 120.745 63.0466C120.546 61.2457 120.579 59.4448 120.911 57.6133C121.209 55.965 121.308 54.2862 121.607 52.6685C121.806 51.6612 121.673 51.5391 120.546 51.6612C118.823 51.8138 118.657 51.9969 118.657 53.5536C118.657 55.3546 118.624 57.1555 118.657 58.9564C118.657 59.4142 118.524 59.5669 118.027 59.5974C116.867 59.7195 115.707 59.8721 114.514 59.8416C113.619 59.8111 112.691 59.8721 111.796 59.8721C110.205 59.75 108.614 59.6584 107.023 59.5058C106.293 59.4448 105.564 59.2616 104.835 59.1395C104.404 59.048 104.172 58.7427 104.139 58.3764C104.039 57.4302 103.675 56.545 103.708 55.5988C103.741 55.2019 103.542 54.9883 103.078 55.0188C102.846 55.0493 102.581 55.0188 102.349 54.9883C101.819 54.9272 101.554 55.0798 101.52 55.6293C101.388 58.3459 101.554 61.0625 101.554 63.7792C101.554 64.0539 101.587 64.3286 101.951 64.3286C102.614 64.3286 102.78 64.817 102.813 65.2138C102.912 66.0685 102.879 66.9231 102.714 67.7778C102.482 68.9682 102.084 70.0671 102.382 71.3796C103.045 74.1573 103.841 76.8739 105.1 79.4684C106.658 82.6429 108.846 85.4206 111.63 87.7404C114.016 89.755 116.801 91.2201 119.916 92.1359C121.342 92.5937 122.767 93.0516 124.292 93.0516ZM194.196 161.608C194.594 161.059 194.495 160.418 194.428 159.838C194.229 157.945 194.13 156.053 193.931 154.191C193.732 152.482 193.5 150.772 193.103 149.093C192.572 146.896 192.009 144.698 191.246 142.531C190.418 140.15 189.49 137.861 188.363 135.602C186.904 132.641 185.214 129.772 183.324 127.025C180.905 123.514 178.121 120.279 175.104 117.196C172.453 114.51 169.536 112.068 166.321 109.931C163.603 108.13 160.785 106.421 157.868 104.925C154.819 103.369 151.571 102.239 148.389 101.049C146.897 100.499 145.306 100.164 143.781 99.7363C143.616 99.6753 143.384 99.5837 143.251 99.7668C143.085 99.95 143.284 100.103 143.384 100.255C144.709 102.789 146.002 105.353 147.229 107.947C148.256 110.114 149.284 112.251 150.311 114.388C151.703 117.257 153.095 120.126 154.421 123.026C156.178 126.75 157.868 130.504 159.658 134.228C160.222 135.419 160.454 136.426 159.227 137.372C158.73 137.769 158.399 138.349 157.968 138.837C156.145 140.852 154.289 142.836 152.432 144.82C152.035 145.247 152.035 145.492 152.532 145.736C153.593 146.255 154.488 146.987 155.515 147.567C156.476 148.086 157.272 148.88 158.399 149.216C158.896 149.948 159.791 150.223 160.454 150.742C160.719 150.955 161.15 151.078 161.117 151.505C161.084 152.024 161.15 152.543 161.017 153.031C160.321 155.717 160.487 158.495 159.791 161.181C159.725 161.425 159.691 161.7 159.923 162.005C164.663 154.862 168.111 147.262 170.663 139.326C170.729 138.929 170.994 138.593 171.094 138.196C171.293 137.464 172.022 137.494 172.651 137.586C173.348 137.678 173.149 138.227 173.149 138.624C173.149 138.99 173.082 139.387 173.016 139.753C172.552 140.364 172.718 141.127 172.453 141.798C171.624 144.179 170.895 146.591 169.934 148.941C168.21 153.031 166.221 156.999 164 160.845C162.409 163.623 160.785 166.37 158.863 168.965C156.741 171.834 154.653 174.673 152.234 177.359C149.98 179.831 147.925 182.456 145.472 184.776C141.958 188.103 138.345 191.339 134.169 193.933C131.749 195.429 129.23 196.68 126.579 197.749C126.247 197.871 125.617 197.84 125.617 198.267C125.617 198.756 126.214 198.573 126.546 198.695C128.269 199.336 129.595 200.526 130.854 201.656C132.976 203.518 134.534 205.837 135.893 208.218C136.821 209.806 137.683 211.393 138.577 212.98C138.611 213.102 138.611 213.224 138.644 213.346C139.008 214.109 139.373 214.934 139.307 215.758C139.24 216.582 138.909 217.345 138.279 218.047C139.34 218.2 140.268 217.955 141.196 217.894C143.317 217.742 145.339 217.345 147.427 216.948C149.615 216.521 151.77 215.941 153.858 215.3C156.509 214.476 159.062 213.377 161.581 212.247C166.287 210.111 170.53 207.272 174.408 204.037C178.419 200.679 181.833 196.833 184.75 192.59C188.263 187.493 190.782 181.998 192.406 176.138C192.904 174.337 193.268 172.505 193.6 170.643C193.765 169.667 193.765 168.659 193.931 167.713C194.362 165.668 194.263 163.623 194.196 161.608ZM84.7154 196.772C85.7098 197.688 87.0687 197.871 88.2951 198.298C89.9193 198.847 91.5766 199.214 93.2339 199.611C95.4547 200.129 97.7086 200.557 99.9625 201.015C101.951 201.411 103.973 201.656 105.929 202.052C108.514 202.571 111.133 202.877 113.718 203.151C114.911 203.273 116.138 203.182 117.331 203.304C118.259 203.396 118.458 203.365 118.259 202.541C117.961 201.289 117.994 200.129 118.823 199C119.088 198.634 119.353 198.39 119.817 198.329C121.507 198.084 123.065 197.535 124.623 196.924C125.982 196.406 125.949 196.375 125.253 195.215C123.397 192.102 121.441 189.019 119.751 185.814C117.994 182.456 116.005 179.221 114.315 175.832C112.127 171.406 110.072 166.919 108.15 162.371C107.752 161.395 107.221 160.326 107.785 159.319C108.746 157.64 109.807 155.961 111.133 154.496C112.989 152.421 114.248 149.979 115.873 147.75C116.105 147.445 116.005 147.201 115.641 147.109C114.447 146.804 113.287 146.346 112.061 146.102C110.536 145.827 109.044 145.492 107.553 145.034C106.194 144.606 104.802 144.24 103.377 143.965C102.051 143.721 100.891 143.111 101.123 141.524C101.355 139.967 101.653 138.441 101.852 136.884C102.084 135.327 102.415 133.801 102.714 132.244C102.979 130.718 103.211 129.192 103.509 127.696C103.973 125.254 104.503 122.812 104.802 120.309C105.233 119.211 105.398 118.02 105.697 116.891C106.028 115.7 106.26 114.479 106.592 113.289C107.056 111.641 107.52 109.992 108.05 108.344C108.58 106.635 109.177 104.925 109.774 103.247C109.906 102.85 110.304 102.514 110.304 101.934C109.774 102.239 109.31 102.483 108.879 102.758C106.426 104.284 104.139 106.024 101.554 107.428C101.355 107.55 101.156 107.703 101.089 107.947C100.957 108.619 100.625 109.229 100.46 109.901C99.7305 112.556 98.6367 115.09 97.6754 117.654C96.9131 119.729 95.985 121.744 95.0569 123.789C93.8305 126.506 92.4715 129.192 91.2783 131.909C90.8474 132.885 90.1513 133.77 90.1182 134.869C90.085 134.93 89.9856 134.747 89.9524 134.9C89.853 135.632 89.3558 136.243 89.1238 136.945C88.5603 138.563 87.7979 140.058 86.5384 141.34C86.2069 141.676 85.6103 141.737 85.544 141.401C85.4446 140.944 85.1794 140.486 85.2789 139.997C85.6435 138.349 85.9749 136.731 86.5715 135.114C87.7648 132.092 89.1238 129.131 90.4496 126.14C91.4109 124.003 92.3389 121.866 93.2339 119.699C93.8968 118.051 94.5929 116.433 95.2889 114.785C96.0181 112.984 96.6148 111.152 97.2114 109.29C97.6754 107.734 98.1726 106.207 98.6035 104.651C99.1007 102.88 99.5979 101.11 100.029 99.309C100.427 97.7523 100.692 96.1345 101.123 94.5778C101.587 92.8684 101.984 91.1286 102.415 89.4192C102.614 88.6561 102.25 88.7172 101.686 88.8698C100.99 89.053 100.327 89.3887 99.5648 89.3582C97.5097 89.3277 95.5209 89.114 93.499 88.8698C92.571 88.7477 91.6429 88.5035 90.6816 88.534C90.3833 88.412 90.085 88.2593 89.7536 88.1983C88.3946 87.9236 87.0024 87.6794 85.7098 87.191C85.1794 86.9773 85.08 87.191 84.9805 87.5268C84.3176 89.4192 83.3564 91.2202 82.362 93.0211C80.6384 96.0429 79.0474 99.1258 77.3238 102.117C75.3019 105.658 73.048 109.077 71.0924 112.648C69.7666 115.029 68.4739 117.41 67.2475 119.852C65.9216 122.477 64.7947 125.193 63.734 127.91C62.9717 129.894 62.2424 131.909 61.6127 133.923C61.1486 135.48 60.7177 137.037 60.2537 138.593C59.5908 140.73 59.2262 142.928 58.729 145.095C58.3975 146.56 58.1324 148.056 58.1324 149.521C58.1324 152.054 57.6683 154.557 57.9335 157.091C58.1655 159.288 58.0661 161.486 58.2981 163.684C58.497 165.363 58.6958 167.072 59.1599 168.69C60.088 171.834 61.7121 174.673 63.8997 177.237C64.0986 177.481 64.2643 177.694 64.5958 177.694C64.7947 178.427 65.4907 178.824 65.9879 179.312C68.3413 181.662 71.1918 183.036 74.7716 182.792C77.0587 182.639 79.2463 182.151 81.4339 181.571C83.721 180.96 85.7098 179.892 87.6322 178.641C89.6541 177.328 90.8805 175.405 92.4384 173.726C92.803 173.329 93.1344 172.963 93.5322 172.627C93.9962 172.231 94.6923 172.17 95.1232 172.475C95.6204 172.841 94.9906 173.207 94.7917 173.543C94.4271 174.093 93.9962 174.611 93.5985 175.161C93.3333 175.191 93.2339 175.375 93.1013 175.527C92.5047 176.229 91.9412 176.992 91.2451 177.603C88.6929 179.953 85.6435 181.51 82.2294 182.517C81.8317 182.639 81.4008 182.761 81.6328 183.28C82.1963 184.471 82.3289 185.783 82.4615 187.035C82.7266 189.843 83.0249 192.621 83.3564 195.398C83.5221 196.253 83.9199 196.589 84.7154 196.772ZM143.417 134.503C144.212 132.458 144.709 130.382 144.776 128.276C144.875 126.048 145.041 123.82 145.14 121.591C145.24 119.119 145.174 116.647 144.743 114.235C144.444 112.495 144.013 110.786 143.516 109.077C142.986 107.276 142.456 105.505 141.527 103.857C141.329 103.491 141.362 102.819 140.865 102.85C140.633 102.85 140.732 103.643 140.732 104.071C140.798 107.062 140.566 110.053 140.5 113.045C140.467 114.296 140.401 115.609 140.069 116.799C139.472 118.844 138.213 120.615 136.39 122.019C135.296 122.843 134.003 123.24 132.611 123.667C135.594 125.102 137.716 126.964 143.417 134.503ZM113.254 98.5154C113.188 98.3017 113.121 97.9659 113.055 97.6607C112.691 95.524 112.359 93.4179 111.961 91.2812C111.862 90.7318 111.762 90.1213 111.232 89.6634C109.343 87.9846 107.719 86.0921 106.161 84.1386C106.028 83.9555 105.929 83.7418 105.664 83.8944C104.968 84.2912 104.172 84.4438 103.377 84.6575C102.78 84.8101 102.879 85.0848 103.277 85.3596C103.774 85.6648 104.238 86.0311 104.769 86.2753C105.299 86.5195 105.365 86.8858 105.465 87.3741C105.597 88.1372 105.067 88.6561 104.968 89.3277C104.702 91.037 104.47 92.7158 104.205 94.4252C103.973 95.9208 103.675 97.4165 103.377 98.8816C103.244 99.5837 103.145 100.316 102.946 101.018C102.515 102.331 102.216 103.704 101.885 105.047C101.852 105.2 101.719 105.444 101.951 105.536C102.117 105.627 102.316 105.475 102.448 105.383C102.912 105.017 103.377 104.681 103.841 104.315C106.559 102.27 109.475 100.56 112.691 99.309C112.989 99.2174 113.32 99.0343 113.254 98.5154ZM102.614 202.938C100.725 202.602 98.8355 202.266 96.9131 201.961C95.9187 201.808 95.1563 202.419 94.3277 202.724C91.444 203.884 88.6929 205.257 85.7429 206.356C82.4615 207.577 79.3126 209.073 76.0643 210.324C74.639 210.874 73.2137 211.454 71.8216 212.095C70.7609 212.583 69.6008 212.797 68.5402 213.224C67.8773 213.468 67.9104 213.652 68.3413 214.079C69.1699 214.842 70.2969 215.269 70.993 216.185C71.1587 216.399 71.4902 216.307 71.689 216.216C72.0536 216.093 71.6559 215.941 71.6559 215.819C71.5896 215.391 71.8879 215.208 72.2525 215.117C72.5508 215.025 72.8491 215.056 73.1475 214.964C76.6278 213.743 79.9424 212.156 83.4227 210.965C85.6435 210.202 87.6654 209.042 89.8199 208.157C91.6097 207.425 93.3002 206.539 95.1563 205.929C97.7086 205.074 100.029 203.762 102.614 202.938ZM113.718 58.8038C114.414 58.8038 115.408 58.8038 116.37 58.8038C116.734 58.8038 117.066 58.6817 116.933 58.2543C116.469 56.6976 116.37 55.1409 116.403 53.5536C116.403 52.5158 116.237 51.4475 116.602 50.4097C116.834 49.7382 116.469 49.6161 115.806 49.6466C112.525 49.7382 109.277 49.6771 105.995 50.0129C105.432 50.0739 105.365 50.2265 105.365 50.7149C105.465 53.1568 105.862 55.6293 105.697 58.0712C105.664 58.4375 105.829 58.6511 106.26 58.6206C108.68 58.468 111.066 59.048 113.718 58.8038ZM130.656 55.0188C130.656 55.8429 130.689 56.6976 130.656 57.5218C130.622 58.0101 130.755 58.2238 131.385 58.2238C132.015 58.2238 132.578 58.0101 133.175 57.9796C135.296 57.8575 137.417 58.0712 139.506 57.6744C140.003 57.5828 140.202 57.4607 140.202 56.9723C140.202 54.2862 140.633 51.6306 140.599 48.9445C140.599 48.4562 140.533 48.273 139.936 48.3951C139.34 48.5172 138.677 48.4562 138.047 48.5172C136.058 48.7309 134.103 49.0361 132.081 49.0972C130.854 49.1582 130.225 49.7687 130.424 50.837C130.589 52.2716 130.622 53.6452 130.656 55.0188ZM117.662 237.949C117.928 237.857 118.425 238.162 118.624 237.765C118.823 237.43 118.591 237.002 118.392 236.697C118.16 236.3 117.629 236.239 117.198 236.178C115.607 235.965 114.083 235.476 112.525 235.11C110.635 234.683 108.68 234.347 106.791 233.98C105.597 233.767 104.371 233.584 103.178 233.309C101.719 232.973 100.327 232.515 98.8687 232.21C97.1782 231.844 95.5209 231.355 93.8637 230.867C91.444 230.104 88.9912 229.371 86.5715 228.517C84.4834 227.784 82.3952 227.113 80.2738 226.472C78.9148 226.075 77.6884 225.464 76.3295 225.098C74.9705 224.732 73.6115 224.243 72.2857 223.755C71.6227 223.511 70.6947 223.572 70.1975 224.03C69.9986 224.213 70.098 224.365 70.3301 224.396C71.1587 224.518 71.8548 224.884 72.6503 225.067C74.5727 225.525 76.3958 226.288 78.2851 226.777C80.6053 227.387 82.8924 228.12 85.2126 228.761C87.1682 229.31 89.1238 229.86 91.0794 230.409C92.9687 230.959 94.8249 231.539 96.7142 232.088C98.7361 232.668 100.791 233.217 102.813 233.797C104.736 234.347 106.658 234.988 108.614 235.507C110.635 236.026 112.624 236.636 114.613 237.185C115.541 237.491 116.502 238.01 117.662 237.949ZM101.321 73.9436C100.625 74.6762 100.824 75.4698 100.692 76.1719C100.228 78.217 100.228 80.2315 100.857 82.2461C101.222 83.4671 101.189 83.6197 102.747 83.2534C103.343 83.1313 103.874 82.7956 104.371 82.4598C104.702 82.2461 104.769 82.0935 104.537 81.6662C103.211 79.2243 101.786 76.8129 101.321 73.9436ZM99.6642 58.2543C99.4322 58.7427 99.2333 59.048 99.1338 59.4142C98.9018 60.3605 98.6698 61.2762 98.3715 62.1919C97.7086 64.0844 97.0125 65.9769 97.5097 67.9915C97.576 68.2967 97.4103 68.7546 97.8412 68.8461C98.2389 68.9072 98.1395 68.4188 98.3383 68.1746C99.5979 66.6179 100.128 64.9085 99.7636 62.894C99.5979 62.0393 99.2664 61.0931 99.5316 60.2079C99.7305 59.6279 99.7305 59.0785 99.6642 58.2543ZM69.402 217.925C70.0649 218.535 70.7278 218.993 71.457 219.451C71.7222 219.604 71.9542 219.726 72.1862 219.543C73.1143 218.871 74.1418 218.352 75.1362 217.833C75.534 217.62 75.3351 217.345 75.1362 217.345C74.175 217.284 73.3463 216.643 72.3188 216.979C71.3907 217.284 70.4295 217.589 69.402 217.925ZM95.6204 56.3924C96.1839 55.6293 96.7473 54.8357 97.576 54.4083C98.6035 53.8894 98.3715 53.34 97.9737 52.699C97.8412 52.5158 97.9406 52.1801 97.5428 52.1496C96.9462 52.0885 96.0513 52.6379 95.7861 53.1263C95.2226 54.1947 95.3884 55.263 95.6204 56.3924ZM145.472 14.3304C144.212 12.8042 139.207 11.8885 137.351 12.7432C140.135 12.7737 142.621 13.9947 145.472 14.3304ZM86.7041 210.569C87.4333 211.332 88.1294 211.057 88.7923 210.63C89.2564 210.355 89.7867 210.111 90.2507 209.836C91.7423 208.981 93.2339 208.127 94.6923 207.303C94.6592 207.242 94.626 207.15 94.5597 207.089C92.1069 208.493 89.4221 209.5 86.7041 210.569ZM100.725 220.55C99.6973 221.771 98.4378 222.87 97.7086 224.426C98.8687 224.243 99.399 223.602 99.7305 222.809C100.029 222.046 100.692 221.435 100.725 220.55Z" fill="black"/>
<path d="M85.1795 65.2138C85.6104 66.801 85.4447 68.4493 85.5772 70.0671C85.7761 72.6311 85.9087 75.1951 86.2733 77.7286C86.4722 79.1632 86.6711 80.6283 87.102 82.063C87.4003 83.0397 87.2014 83.2229 86.2402 83.6807C84.8812 84.3217 84.0194 85.4816 83.4228 86.7331C81.7986 90.1823 79.6441 93.3873 77.788 96.7144C75.7992 100.255 73.6779 103.765 71.5234 107.245C68.5071 112.19 65.6565 117.196 63.3032 122.416C62.4082 124.369 61.5133 126.353 60.7841 128.337C59.624 131.451 58.4307 134.534 57.6684 137.739C57.0386 140.364 56.442 142.958 55.9779 145.583C55.1824 150.04 55.2819 154.527 55.4807 159.014C55.5802 161.12 55.6796 163.257 56.0774 165.363C56.442 167.347 56.7403 169.392 57.6021 171.223C58.9611 174.093 60.5189 176.84 62.9054 179.16C64.5296 180.716 66.1869 182.151 68.3082 183.097C69.4352 183.585 70.6284 183.769 71.7885 183.891C74.0093 184.104 76.2301 183.86 78.4177 183.402C78.5172 183.372 78.6497 183.372 78.7492 183.341C79.9093 183.189 79.8761 183.219 79.8761 184.257C79.8761 186.516 79.8761 188.775 80.0087 191.033C80.1082 192.651 80.4396 194.269 81.0031 195.856C81.5003 197.352 82.8924 197.932 84.2183 198.542C86.1076 199.397 88.0632 200.007 90.1182 200.435C91.5435 200.74 92.9688 201.167 94.4272 201.35C94.5929 201.381 94.7918 201.35 94.7918 201.564C94.7918 201.747 94.6592 201.839 94.4935 201.869C91.1458 202.999 88.03 204.586 84.7155 205.776C81.3677 206.967 78.1857 208.493 74.8711 209.744C72.4846 210.66 70.2638 211.912 67.8442 212.736C67.6784 212.797 67.4796 212.827 67.2807 212.888C66.6509 213.072 66.5515 213.407 66.9492 213.896C67.3801 214.445 67.9436 214.903 68.5734 215.239C69.0706 215.513 69.6341 215.88 69.6672 216.368C69.7004 216.948 68.8386 216.673 68.5071 217.009C68.4408 217.101 68.2419 217.07 68.1093 217.101C67.7779 217.223 67.2476 216.948 67.0818 217.375C66.9161 217.803 67.4796 217.986 67.7116 218.261C68.2088 218.81 68.8386 219.207 69.5015 219.543C69.7666 219.665 69.8661 219.817 69.9655 220.031C67.9768 220.703 65.8554 220.428 63.8335 220.794C62.3751 221.038 60.9498 221.374 59.4914 221.557C58.265 221.71 57.0386 221.832 55.8454 222.046C53.7903 222.442 51.7353 222.29 49.7134 222.229C48.2218 222.198 46.7302 222.137 45.2718 221.893C43.5151 221.588 41.7252 221.588 40.0016 221.283C38.4769 220.977 36.9522 220.641 35.4606 220.336C33.9028 220.031 32.4443 219.451 30.9528 218.993C30.323 218.81 29.7927 218.383 29.0634 218.291C28.7651 218.261 28.6326 217.833 28.3342 217.62C26.909 216.612 25.1191 216.093 23.8595 214.964C23.1966 214.384 22.368 214.018 21.8376 213.346C21.6056 213.072 21.4067 212.919 21.0753 212.858C20.3129 212.705 20.114 212.003 19.6169 211.576C18.9208 210.965 18.1916 210.416 17.5287 209.775C16.8989 209.165 16.4017 208.432 15.8714 207.73C15.0759 206.692 14.5124 205.441 13.6837 204.464C12.4573 203.029 11.8276 201.411 11.1646 199.794C10.6012 198.481 10.336 197.108 10.0045 195.734C9.67308 194.299 9.47421 192.834 8.94387 191.461C7.91635 188.744 8.38039 185.997 8.38039 183.25C8.38039 182.181 8.91073 181.144 9.1096 180.106C9.37477 178.61 10.104 177.206 10.4023 175.71C10.7338 173.909 11.6287 172.292 12.4242 170.643C12.6562 170.185 13.0871 169.819 13.054 169.239C13.054 169.178 13.0871 169.056 13.1534 169.056C14.7444 168.507 14.7444 166.889 15.6393 165.882C16.468 164.966 16.9983 163.837 17.9264 162.951C18.3242 162.585 18.5893 162.066 18.9539 161.639C19.9152 160.601 20.9758 159.655 21.6719 158.434C21.8045 158.19 22.0365 157.945 22.2685 157.823C23.6275 157.213 24.5225 156.175 25.4174 155.137C26.2129 154.191 27.5056 153.825 28.3674 152.939C28.8314 152.482 29.6932 152.146 29.7927 151.627C30.0247 150.681 30.787 150.284 31.3505 149.673C31.45 149.582 31.5494 149.399 31.6157 149.399C32.6432 149.521 33.041 148.605 33.8033 148.3C33.9359 148.239 34.0353 148.147 34.0353 148.025C34.1348 146.835 35.2949 146.407 36.0572 145.736C37.2505 144.698 38.8083 144.057 39.7033 142.683C40.101 142.073 40.7971 141.646 41.3606 141.127C42.587 140.028 43.0179 138.502 43.7802 137.159C44.2111 136.396 44.8078 135.755 45.1724 134.961C45.769 133.618 46.233 132.275 46.5313 130.871C46.8297 129.314 46.9954 127.727 46.9291 126.17C46.8297 123.606 46.8628 121.011 46.4319 118.447C46.2662 117.471 46.3988 116.372 45.9679 115.548C45.3712 114.418 45.6033 113.167 45.0066 112.098C44.6752 111.549 44.8409 110.969 44.7415 110.389C44.5094 108.649 44.0123 106.94 43.6808 105.2C43.5151 104.406 43.4156 103.582 43.3825 102.789C43.283 99.0037 43.3162 95.2188 43.3825 91.4338C43.3825 90.7318 43.6477 90.0602 43.7802 89.3887C44.0123 88.1677 44.2111 86.9468 44.5757 85.7258C45.0066 84.2607 45.7027 82.9176 46.0342 81.422C46.1667 80.7504 46.3988 80.0179 46.7302 79.3769C46.896 79.0411 47.2274 78.7969 47.7577 78.9801C49.2162 79.4684 50.774 79.7432 52.133 80.4147C53.5583 81.0862 54.9836 81.0252 56.442 81.0252C58.3313 81.0557 60.2538 80.9641 62.1431 81.0252C63.4689 81.0862 64.4964 80.3536 65.6565 80.0484C66.8498 79.7126 68.0762 79.3463 69.17 78.7359C69.9324 78.3085 70.6947 77.8201 71.4902 77.5454C73.4127 76.8739 74.5065 75.2561 76.2301 74.3709C76.9593 74.0047 77.5559 73.3331 78.3514 72.9363C78.6166 73.1805 78.7823 73.5163 79.1138 73.6689C79.379 73.8215 79.6441 73.8215 79.9093 73.6689C80.307 73.4552 79.8761 73.2721 79.843 73.1195C79.7436 72.5395 79.2132 72.1122 79.1801 71.5322C79.8099 71.3186 80.3402 71.0438 80.5722 70.4028C80.6054 70.2807 80.7711 70.1586 80.9037 70.0671C82.0638 69.365 82.4615 68.1746 83.1245 67.1673C83.1576 67.1063 83.1245 67.0147 83.1245 66.9536C83.9862 66.801 84.0525 66.0379 84.3508 65.519C84.6492 65.3359 84.8149 65.2138 85.1795 65.2138Z" fill="#EBE298"/>
<path d="M133.904 220.855C134.07 220.214 134.5 219.97 135.23 219.97C136.556 219.97 137.881 220.031 139.207 219.878C141.229 219.665 143.218 219.482 145.24 219.115C147.03 218.81 148.786 218.505 150.51 218.078C152.664 217.559 154.786 216.918 156.874 216.216C161.216 214.72 165.293 212.736 169.204 210.447C171.79 208.92 174.176 207.089 176.496 205.227C179.015 203.182 181.369 201.015 183.49 198.603C185.512 196.253 187.302 193.78 188.926 191.186C190.849 188.103 192.473 184.929 193.799 181.571C194.229 180.442 194.561 179.282 194.959 178.122C195.953 175.344 196.45 172.475 196.947 169.606C197.213 168.079 197.312 166.553 197.577 165.027C198.306 165.088 198.804 165.546 199.235 166.034C200.759 167.774 202.052 169.667 203.577 171.406C204.074 171.956 204.306 172.749 204.737 173.421C206.096 175.619 206.659 178.03 206.46 180.564C206.394 181.662 206.029 182.731 205.665 183.799C205.333 184.837 204.969 185.875 204.505 186.852C204.107 187.676 203.875 188.5 203.709 189.385C203.577 190.148 202.781 190.667 202.45 191.4C202.184 191.98 201.886 192.529 201.654 193.139C201.058 194.727 200.262 196.253 199.566 197.81C199.334 198.298 198.704 198.329 198.638 198.878C198.572 199.672 198.074 200.282 197.71 200.923C197.179 201.778 196.616 202.602 196.019 203.426C195.356 204.372 194.793 205.41 194.196 206.417C193.003 208.432 191.777 210.447 190.119 212.186C189.755 212.553 189.523 212.949 188.893 213.072C188.562 213.133 188.197 213.529 188.064 213.835C187.733 214.689 186.904 215.117 186.341 215.727C185.744 216.338 185.081 216.887 184.485 217.498C184.087 217.925 183.49 217.986 183.059 218.413C181.535 219.878 179.48 220.733 177.723 221.924C175.9 223.206 173.845 223.969 171.922 224.945C171.027 225.403 169.9 225.464 168.873 225.739C166.652 226.319 164.398 226.197 162.144 226.411C159.658 226.655 157.205 226.563 154.72 226.563C152.234 226.533 149.748 226.319 147.295 225.8C145.439 225.403 143.682 224.854 141.958 224.182C140.533 223.633 139.108 223.053 137.683 222.534C136.39 222.107 135.031 221.649 133.904 220.855Z" fill="#EBE298"/>
<path d="M33.9026 132.122C32.0132 131.939 29.9582 131.725 27.9363 131.298C26.743 131.054 25.5829 130.901 24.5886 130.199C24.456 130.108 24.2902 130.047 24.1245 130.047C22.7987 130.016 21.5723 129.68 20.3127 129.345C18.6554 128.887 16.965 128.582 15.4071 127.849C14.1144 127.238 13.0206 124.919 14.3796 123.545C15.0094 122.904 15.9043 122.538 16.7993 122.446C17.7936 122.324 18.8212 122.263 19.8155 122.538C20.5779 122.751 21.3734 122.843 22.1689 122.904C24.0251 123.087 25.6824 123.789 27.406 124.308C29.5604 124.949 31.4829 125.956 33.4054 127.055C34.1677 127.483 35.0627 127.635 35.9245 127.879C36.9188 128.154 37.6812 128.917 37.6812 129.68C37.7143 130.779 37.1177 131.481 36.057 131.939C35.361 132.122 34.7312 132.031 33.9026 132.122Z" fill="#EBE298"/>
<path d="M177.292 22.0529C177.259 23.2434 177.259 24.2812 176.662 25.2274C176.364 25.6853 176.198 26.2652 176.264 26.8452C176.364 27.4862 175.734 27.822 175.469 28.3409C174.773 29.8365 174.475 31.4543 173.911 32.9805C173.447 34.232 172.884 35.4835 171.922 36.4908C171.226 37.2233 170.166 37.1928 169.138 36.9181C167.547 36.4602 167.249 35.2087 166.785 34.0488C166.718 33.8657 166.718 33.6215 166.785 33.4384C167.58 31.9427 167.613 30.2944 168.077 28.7072C168.74 26.4789 169.668 24.3728 170.696 22.2666C170.928 21.7782 171.326 21.4119 171.69 21.0151C172.121 20.5267 172.519 19.9773 173.049 19.55C174.375 18.4816 176.264 18.7564 177.126 20.1605C177.524 20.8015 177.259 21.534 177.292 22.0529Z" fill="#EBE298"/>
<path d="M38.1452 122.629C38.1121 123.057 38.2447 123.484 38.0458 123.911C37.4492 125.315 35.4604 125.468 34.234 124.491C32.875 123.453 32.3447 121.927 31.3172 120.737C30.5217 119.821 30.2565 118.57 30.8863 117.379C30.9857 117.165 31.1514 117.013 31.3503 116.86C32.179 116.311 33.9688 116.402 34.6981 117.043C35.593 117.868 36.3885 118.722 36.952 119.791C37.0846 120.065 37.3829 120.218 37.5486 120.493C37.9795 121.134 38.3441 121.805 38.1452 122.629Z" fill="#EBE298"/>
<path d="M182.661 34.5678C182.661 36.9181 181.037 38.2307 178.452 37.8644C177.921 37.8033 177.457 37.9865 176.96 38.0781C175.966 38.2307 175.005 37.8339 174.507 37.1013C174.077 36.4908 174.043 35.5751 174.507 34.8425C174.872 34.2626 175.402 33.8047 176.098 33.4995C176.662 33.2553 177.358 33.2553 177.656 32.5837C177.723 32.4311 178.187 32.3701 178.485 32.3701C179.314 32.309 180.142 32.2785 180.971 32.309C182.363 32.3396 182.661 32.6143 182.694 33.8963C182.661 34.1099 182.661 34.3236 182.661 34.5678Z" fill="#EBE298"/>
<path d="M79.2796 71.6848C79.3128 72.2953 79.81 72.7227 79.9425 73.2721C79.9757 73.4552 80.4066 73.6079 80.0088 73.8215C79.7437 73.9436 79.5116 73.9436 79.2133 73.8215C78.8819 73.6384 78.7161 73.3026 78.451 73.0889C77.7218 71.8985 76.8931 70.7691 76.4622 69.3956C75.7661 67.1368 75.6999 64.878 76.197 62.5582C76.5948 60.7573 77.4234 59.0785 78.5836 57.5828C78.683 57.4607 78.7824 57.3386 78.8819 57.2165C79.1139 56.9113 79.4785 56.9113 79.7768 57.0334C80.1414 57.1555 79.9425 57.4912 79.9094 57.7049C79.5779 58.8343 79.2465 59.9942 78.8487 61.0931C78.1195 63.1076 78.0201 65.2138 78.1858 67.3199C78.2852 68.663 78.7161 69.945 79.0807 71.227C79.0476 71.3186 79.0476 71.3491 79.1802 71.3186C79.1802 71.4407 79.2133 71.5627 79.2796 71.6848Z" fill="black"/>
<path d="M79.2133 64.817C79.2464 63.0771 79.6442 61.7951 80.1745 60.5131C80.274 60.2994 80.4728 60.1468 80.6386 59.9942C80.8706 59.7805 81.1026 59.7195 81.4009 59.8416C81.6661 59.9637 81.5998 60.2384 81.5667 60.4521C81.4672 61.0625 81.3678 61.7035 81.2352 62.314C80.7711 64.3591 80.8043 66.3737 81.202 68.4188C81.2352 68.602 81.4009 68.9072 81.0363 68.9988C80.738 69.0598 80.4065 69.0293 80.3071 68.6935C79.8099 67.2894 79.1138 65.9464 79.2133 64.817Z" fill="black"/>
<path d="M83.2238 67.1062C82.1962 67.2283 81.699 66.862 81.5665 65.9463C81.467 65.3053 81.467 64.6338 81.5333 63.9623C81.5996 63.4434 81.9311 63.1381 82.4283 62.9855C82.9586 62.8329 83.3563 63.016 83.2901 63.5349C83.1575 64.7254 83.1906 65.9158 83.2238 67.1062Z" fill="black"/>
<path d="M79.1135 71.3186C79.0141 71.3491 78.981 71.288 79.0141 71.227C79.0473 71.227 79.0804 71.227 79.1135 71.227C79.1467 71.2575 79.1135 71.288 79.1135 71.3186Z" fill="#EBE298"/>
<path d="M90.7478 88.5035C90.7146 89.5108 90.2506 90.3349 89.4551 91.037C89.1899 91.2507 89.1236 91.6475 88.9579 91.9527C88.3613 92.9295 88.063 94.0589 87.2012 94.9135C87.1349 94.9746 87.0686 95.0356 87.1017 95.0967C87.4995 96.9281 85.9748 98.088 85.2456 99.5226C84.5164 100.927 83.4557 102.178 82.5607 103.491C81.7984 104.62 80.8703 105.719 80.1411 106.909C79.5445 107.886 79.0473 108.955 78.3844 109.87C77.854 110.572 77.6883 111.519 76.8597 112.068C76.7934 112.129 76.7602 112.251 76.7602 112.343C76.7602 113.564 75.9979 114.479 75.5007 115.517C74.7052 117.288 73.7108 118.966 73.0479 120.767C72.7496 121.591 72.385 122.416 71.9872 123.209C71.5232 124.155 71.49 125.163 71.1586 126.109C70.7608 127.299 70.1642 128.49 69.6338 129.68C68.772 131.634 67.7114 133.557 67.2805 135.663C67.1479 136.304 66.8827 136.914 66.6507 137.525C65.9215 139.356 65.7889 141.371 64.9603 143.172C64.2311 144.759 64.0653 146.468 63.6676 148.117C63.2367 150.04 62.9715 151.993 62.5738 153.916C61.8446 157.396 61.5462 160.876 61.712 164.386C61.7783 165.759 61.8114 167.133 62.0766 168.476C62.4743 170.521 62.7063 172.597 63.535 174.55C63.8665 175.375 64.0653 176.229 64.6288 176.962C64.7282 177.114 64.662 177.359 64.6951 177.542C64.3636 177.542 64.1979 177.328 63.999 177.084C61.8114 174.52 60.1541 171.681 59.2592 168.537C58.7951 166.919 58.5963 165.21 58.3974 163.531C58.1654 161.334 58.2648 159.136 58.0328 156.938C57.7676 154.405 58.2316 151.902 58.2316 149.368C58.2316 147.903 58.4968 146.407 58.8283 144.942C59.2923 142.775 59.6901 140.577 60.353 138.441C60.817 136.884 61.2479 135.327 61.712 133.77C62.3417 131.725 63.0378 129.741 63.8333 127.757C64.894 125.041 66.0209 122.324 67.3468 119.699C68.5732 117.257 69.8659 114.876 71.1917 112.495C73.1805 108.924 75.4012 105.505 77.4231 101.965C79.1467 98.9427 80.7377 95.8903 82.4613 92.8684C83.4557 91.098 84.4169 89.2971 85.0798 87.3741C85.1793 87.0384 85.3119 86.8552 85.809 87.0384C87.1017 87.5267 88.4939 87.7709 89.8529 88.0456C90.1512 88.2593 90.4495 88.4119 90.7478 88.5035Z" fill="#EBE298"/>
<path d="M138.611 212.98C139.903 212.95 141.196 212.888 142.489 212.888C143.483 212.888 144.245 212.156 145.24 212.217C145.87 211.21 147.096 211.149 148.057 210.813C149.88 210.172 151.637 209.378 153.394 208.615C154.123 208.31 154.786 207.944 155.614 207.974C155.681 207.974 155.813 207.974 155.846 207.913C156.741 206.662 158.366 206.448 159.559 205.654C160.818 204.83 162.21 204.22 163.503 203.457C164.232 203.029 164.995 202.602 165.757 202.144C167.547 201.015 169.304 199.824 171.06 198.664C173.182 197.26 175.137 195.642 176.96 193.964C178.121 192.895 179.015 191.583 179.91 190.301C180.739 189.11 181.501 187.859 182.264 186.638C182.827 185.753 183.391 184.776 183.855 183.799C184.683 182.12 185.578 180.442 186.407 178.763C186.937 177.725 187.401 176.657 187.899 175.619C188.131 175.13 188.429 174.703 188.628 174.184C189.224 172.75 189.456 171.284 189.788 169.789C190.086 168.476 190.484 167.194 190.65 165.882C190.782 164.752 191.147 163.653 191.114 162.524C191.081 161.944 191.147 161.364 191.147 160.784C191.147 160.448 191.246 160.052 191.578 159.929C191.876 159.807 191.942 160.265 192.174 160.326C193.003 160.54 193.368 161.334 194.13 161.608C194.196 163.623 194.263 165.668 193.898 167.683C193.699 168.659 193.732 169.636 193.567 170.613C193.235 172.444 192.87 174.306 192.373 176.107C190.749 181.968 188.23 187.462 184.717 192.56C181.8 196.772 178.386 200.648 174.375 204.006C170.497 207.242 166.254 210.08 161.548 212.217C159.028 213.377 156.476 214.476 153.825 215.269C151.703 215.91 149.582 216.49 147.394 216.918C145.339 217.314 143.284 217.711 141.163 217.864C140.202 217.925 139.273 218.169 138.246 218.016C138.876 217.314 139.207 216.521 139.273 215.727C139.34 214.903 138.975 214.079 138.611 213.316C138.611 213.224 138.611 213.102 138.611 212.98Z" fill="#EBE298"/>
<path d="M116.701 174.673C117 174.55 117.099 174.337 117.099 174.062C117.099 172.17 117.629 170.369 117.861 168.507C117.961 167.683 118.325 166.889 118.591 166.095C118.988 164.874 119.419 163.653 119.751 162.371C120.016 161.242 120.347 160.143 120.612 159.014C120.944 157.549 121.375 156.083 121.673 154.588C122.038 152.878 122.436 151.169 123.165 149.521C123.529 148.727 123.695 147.842 123.993 146.987C124.358 145.95 123.496 145.248 122.9 144.698C122.203 144.057 121.739 143.294 121.143 142.592C120.579 141.89 120.082 141.127 119.486 140.455C119.32 140.242 119.187 140.028 119.088 139.784C118.922 139.234 118.922 138.746 119.585 138.502C120.612 138.288 120.845 137.403 121.275 136.701C121.773 135.907 122.237 135.083 122.734 134.259C122.8 134.137 122.866 134.015 123.032 134.015C123.264 134.015 123.264 134.198 123.33 134.32C123.894 135.663 124.457 136.976 125.352 138.166C126.015 139.051 126.744 139.875 127.805 140.364C128.203 140.547 128.369 140.822 128.335 141.279C128.17 144.973 127.938 148.666 127.871 152.36C127.805 154.466 127.308 156.572 127.076 158.678C126.976 159.624 127.043 160.601 126.91 161.578C126.612 163.684 126.579 165.79 126.148 167.896C125.75 169.819 125.783 171.834 125.584 173.787C125.452 175.375 125.22 176.962 125.12 178.549C125.054 179.77 124.723 180.96 124.955 182.181C125.054 182.639 125.187 183.097 125.419 183.463C127.308 186.455 129.164 189.507 131.551 192.224C131.882 192.621 132.081 192.865 131.385 193.201C130.556 193.597 129.794 194.147 129.032 194.666C128.435 195.093 128.07 194.971 127.739 194.422C126.082 191.796 124.491 189.141 123.032 186.424C121.872 184.227 120.612 182.09 119.419 179.923C118.458 178.213 117.596 176.443 116.701 174.673Z" fill="#EBE298"/>
<path d="M138.942 162.555C139.108 162.524 139.34 162.555 139.406 162.493C140.268 161.578 141.561 161.211 142.522 160.357C143.118 159.807 143.914 159.136 144.975 159.197C145.107 159.197 145.306 159.166 145.339 159.075C145.87 157.854 147.262 157.549 148.256 156.816C149.018 156.236 150.013 155.839 150.576 155.168C151.305 154.283 152.366 153.977 153.162 153.275C153.99 152.543 154.786 151.78 155.846 151.291C156.178 151.139 156.078 150.803 156.211 150.559C157.437 150.833 158.299 151.658 159.294 152.299C159.492 152.421 159.426 152.634 159.327 152.787C158.465 154.099 158.366 155.595 158.034 157.03C157.636 158.709 157.239 160.357 156.841 162.036C156.476 163.531 156.012 165.027 155.813 166.553C155.482 168.904 154.057 170.735 152.565 172.566C150.377 175.283 148.223 178.061 145.77 180.594C144.544 181.876 143.251 183.128 141.892 184.623C141.958 183.463 142.19 182.517 142.621 181.662C142.82 181.266 142.886 180.899 142.787 180.503C142.025 177.175 141.494 173.787 140.566 170.46C140.102 168.812 139.837 167.133 139.506 165.485C139.34 164.478 139.141 163.531 138.942 162.555Z" fill="#EBE298"/>
<path d="M112.889 71.6543C112.923 71.9596 112.989 72.2648 113.022 72.57C112.525 73.3026 112.657 73.9436 113.387 74.493C113.818 74.8288 114.182 75.2256 114.58 75.5919C114.215 75.9277 114.381 76.294 114.547 76.6602C115.077 77.8507 115.707 79.0411 116.204 80.2621C116.933 82.0324 118.027 83.5892 118.823 85.2985C119.751 87.2826 121.143 88.9614 122.402 90.7318C122.8 91.3117 123.364 91.8917 123.993 92.319C124.292 92.5327 124.292 92.7769 124.292 93.0516C122.767 93.0516 121.342 92.5937 119.916 92.1664C116.801 91.2507 114.05 89.7855 111.63 87.7709C108.846 85.4511 106.658 82.6735 105.1 79.499C103.808 76.9044 103.012 74.1878 102.382 71.4101C102.084 70.0976 102.482 68.9987 102.714 67.8083C102.879 66.9536 102.946 66.099 102.813 65.2443C102.747 64.8475 102.614 64.3591 101.951 64.3591C101.554 64.3591 101.554 64.0844 101.554 63.8097C101.554 61.093 101.421 58.3764 101.52 55.6598C101.554 55.0798 101.786 54.9577 102.349 55.0188C102.581 55.0493 102.846 55.0493 103.078 55.0493C103.542 55.0188 103.741 55.2325 103.708 55.6293C103.675 56.5755 104.04 57.4912 104.139 58.4069C104.172 58.7732 104.371 59.0785 104.835 59.17C105.564 59.2921 106.293 59.4753 107.023 59.5363C108.614 59.6889 110.205 59.7805 111.796 59.9026C111.796 61.8561 111.763 63.8097 111.763 65.7327C111.763 66.1295 111.796 66.5568 111.928 66.9231C112.193 68.4493 112.558 70.0671 112.889 71.6543Z" fill="#EBE298"/>
<path d="M104.835 120.279C104.636 120.248 104.437 120.218 104.304 120.401C103.078 121.927 101.587 123.24 100.294 124.735C99.0343 126.17 97.3107 127.208 96.1174 128.734C95.2225 129.863 94.1618 130.901 93.3 132.031C92.604 132.946 91.7422 133.74 91.1124 134.717C90.9467 134.961 90.5489 134.961 90.2175 134.869C90.2506 133.77 90.9467 132.885 91.3776 131.909C92.5708 129.192 93.9298 126.506 95.1562 123.789C96.0843 121.775 96.9792 119.729 97.7747 117.654C98.736 115.09 99.8298 112.556 100.559 109.901C100.725 109.26 101.056 108.619 101.189 107.947C101.222 107.703 101.421 107.55 101.653 107.428C104.205 106.055 106.525 104.284 108.978 102.758C109.409 102.483 109.873 102.239 110.403 101.934C110.436 102.514 110.039 102.85 109.873 103.247C109.276 104.925 108.68 106.635 108.149 108.344C107.619 109.992 107.155 111.61 106.691 113.289C106.36 114.479 106.128 115.7 105.796 116.891C105.431 117.99 105.266 119.18 104.835 120.279Z" fill="#EBE298"/>
<path d="M120.712 93.9978C120.977 96.165 121.243 98.3627 121.541 100.53C121.806 102.667 122.502 104.742 122.37 106.909C122.336 107.642 122.535 108.405 122.767 109.138C122.9 109.626 122.999 110.084 122.966 110.572C122.9 111.457 123.198 112.282 123.397 113.106C124.06 115.731 124.491 118.386 124.391 121.103C124.391 121.225 124.358 121.347 124.325 121.469C123.728 121.5 123.331 121.134 122.9 120.859C122.171 120.401 121.375 119.974 120.646 119.485C118.723 118.203 118.359 116.28 117.961 114.357C117.663 113.014 117.63 111.641 117.199 110.328C117.132 110.084 117.066 109.84 117.066 109.565C117.099 108.008 116.768 106.482 116.602 104.956C116.304 102.331 115.972 99.7058 115.442 97.0807C115.144 95.5545 114.812 93.9978 114.58 92.4411C114.514 92.0443 114.613 91.9527 115.011 92.1053C116.304 92.5937 117.597 93.1431 118.955 93.5094C119.552 93.662 120.149 93.8147 120.712 93.9978Z" fill="#EBE298"/>
<path d="M121.673 29.1651C121.772 29.8061 121.308 30.1724 120.844 30.4776C118.656 31.8817 117.264 33.8658 116.038 36.0024C115.773 36.4298 115.408 36.8266 115.309 37.3455C113.85 38.2307 112.458 39.238 111.331 40.4894C111.066 40.7642 110.569 40.9473 110.768 41.3746C111 41.802 111.464 41.9546 111.994 41.9546C112.558 41.9546 113.022 41.6188 113.552 41.5883C112.955 42.2598 113.022 43.1145 112.889 43.9081C112.79 44.6407 112.591 45.3733 112.425 46.1058C112.359 46.35 112.326 46.5942 112.292 46.8689C112.193 47.9068 112.624 48.3341 113.751 48.3036C114.082 48.3036 114.414 48.3036 114.745 48.3036C114.579 48.5783 114.281 48.4562 114.049 48.4562C112.193 48.5172 110.337 48.5172 108.514 48.6088C107.022 48.6699 105.597 49.0361 104.105 49.1277C103.542 49.1582 103.509 49.7382 103.409 50.135C103.244 51.0507 103.111 51.9664 103.078 52.9127C103.045 53.4621 102.746 53.4621 102.349 53.4621C101.818 53.4621 101.951 53.1874 101.951 52.8516C102.017 51.0812 102.581 49.3719 102.945 47.6626C103.078 46.9605 103.542 46.289 103.807 45.5869C104.437 43.9997 104.868 42.3209 105.696 40.7947C107.917 36.735 110.635 33.1637 115.242 31.027C117.231 30.1113 119.22 29.4093 121.408 29.1956C121.54 29.104 121.606 29.1346 121.673 29.1651Z" fill="#EBE298"/>
<path d="M93.6317 175.1C93.8968 176.382 93.8306 177.633 93.5654 178.976C93.3002 180.258 93.2008 181.571 93.1013 182.883C93.0682 183.189 93.1676 183.555 92.7036 183.708C92.4384 183.799 92.4716 184.104 92.5047 184.318C92.7699 186.455 91.3446 187.95 90.2177 189.538C89.4222 190.667 88.7261 191.888 87.8643 192.987C87.1019 193.964 86.5053 195.032 85.743 195.978C85.4446 196.344 84.9143 196.344 84.7154 196.741C83.8868 196.589 83.5222 196.253 83.3896 195.368C83.0581 192.59 82.7598 189.782 82.4947 187.004C82.3621 185.753 82.2295 184.44 81.666 183.25C81.434 182.731 81.8649 182.609 82.2626 182.487C85.6767 181.479 88.7261 179.923 91.2783 177.572C91.9744 176.931 92.5379 176.199 93.1345 175.497C93.3002 175.313 93.3997 175.13 93.6317 175.1Z" fill="#EBE298"/>
<path d="M113.254 98.5154C113.354 99.0343 113.022 99.2174 112.691 99.3395C109.476 100.591 106.559 102.331 103.841 104.345C103.377 104.681 102.913 105.047 102.449 105.414C102.283 105.536 102.117 105.658 101.951 105.566C101.719 105.475 101.852 105.231 101.885 105.078C102.217 103.735 102.548 102.361 102.946 101.049C103.178 100.347 103.244 99.6142 103.377 98.9122C103.675 97.4165 103.94 95.9514 104.205 94.4557C104.471 92.7464 104.703 91.0675 104.968 89.3582C105.067 88.6867 105.598 88.1372 105.465 87.4047C105.366 86.9163 105.299 86.55 104.769 86.3058C104.239 86.0616 103.775 85.6953 103.277 85.3901C102.846 85.1154 102.78 84.8407 103.377 84.688C104.172 84.4744 104.968 84.3218 105.664 83.9249C105.929 83.7723 106.028 83.986 106.161 84.1691C107.686 86.1227 109.343 87.9846 111.232 89.694C111.763 90.1518 111.829 90.7623 111.962 91.3117C112.392 93.4179 112.691 95.5546 113.055 97.6912C113.089 97.9659 113.188 98.3017 113.254 98.5154Z" fill="#EBE298"/>
<path d="M111.73 207.516C110.039 207.272 108.249 207.119 106.658 207.608C105.432 207.974 104.172 208.279 102.979 208.89C101.62 209.592 100.162 210.294 98.5706 210.599C97.974 210.721 97.4768 210.996 96.9133 211.21C95.3555 211.79 93.6982 212.125 92.1403 212.675C89.7206 213.529 87.4004 214.598 84.9145 215.3C82.9257 215.849 81.1027 216.704 79.2134 217.375C78.9482 217.467 78.7162 217.65 78.4842 217.803C77.6555 217.131 76.7274 216.612 75.5673 216.612C74.9376 216.612 74.4404 216.216 73.6449 216.216C74.5398 215.605 75.501 215.422 76.3628 215.147C78.6499 214.445 80.8044 213.468 82.9589 212.492C83.7544 212.125 84.6493 211.942 85.4448 211.515C85.7431 211.332 86.0414 211.515 86.2403 211.728C86.5055 212.003 86.8701 212.095 87.1684 212.308C88.1959 213.01 88.9914 212.369 89.7538 211.942C93.7644 209.653 97.742 207.333 101.719 205.013C102.515 204.555 103.277 204.006 104.04 203.487C104.239 203.334 104.437 203.182 104.703 203.243C106.327 203.64 107.984 203.762 109.641 203.975C111.398 204.22 113.188 204.464 114.978 204.403C115.475 204.372 115.939 204.403 116.635 204.403C115.574 205.441 114.414 205.929 113.387 206.6C112.856 206.906 112.392 207.364 111.73 207.516Z" fill="#EBE298"/>
<path d="M134.898 213.285C134.699 212.98 134.368 212.949 134.036 212.949C133.307 212.919 132.644 212.858 132.147 212.217C131.882 211.881 131.285 211.942 130.854 211.851C130.059 211.698 129.396 211.301 128.7 211.026C127.175 210.447 125.551 210.294 124.06 209.592C123.397 209.287 122.502 209.47 121.739 209.226C120.38 208.798 118.922 208.798 117.497 208.859C116.403 208.89 115.375 208.646 114.348 208.432C116.867 206.417 119.552 204.586 122.469 203.09C123.363 202.632 124.093 201.991 124.822 201.35C125.352 200.862 125.816 200.77 126.413 201.32C129.131 203.67 131.285 206.417 133.075 209.409C133.738 210.508 134.434 211.576 135.097 212.675C135.263 212.919 135.561 213.316 134.898 213.285Z" fill="#EBE298"/>
<path d="M102.614 202.938C99.9958 203.762 97.6756 205.105 95.1565 205.929C93.3003 206.539 91.6099 207.425 89.82 208.157C87.6655 209.042 85.6436 210.233 83.4228 210.965C79.9094 212.125 76.6279 213.743 73.1476 214.964C72.8824 215.056 72.551 215.056 72.2527 215.117C71.888 215.208 71.5897 215.391 71.656 215.819C71.6892 215.941 72.0538 216.093 71.6892 216.216C71.4572 216.307 71.1588 216.368 70.9931 216.185C70.297 215.269 69.1701 214.842 68.3414 214.079C67.8774 213.652 67.8774 213.468 68.5403 213.224C69.6341 212.797 70.7611 212.583 71.8218 212.095C73.2139 211.454 74.606 210.874 76.0644 210.324C79.3459 209.073 82.4947 207.577 85.743 206.356C88.6599 205.257 91.411 203.853 94.3278 202.724C95.1565 202.388 95.9188 201.778 96.9132 201.961C98.8357 202.266 100.725 202.602 102.614 202.938Z" fill="#EBE298"/>
<path d="M158.366 149.185C159.36 148.239 160.487 147.415 161.647 146.621C162.608 145.98 163.536 145.278 164.1 144.24C164.464 143.569 165.293 143.324 165.857 142.806C166.818 141.859 167.912 141.005 168.906 140.028C169.304 139.631 170.132 139.753 170.199 139.021C170.364 139.112 170.497 139.204 170.663 139.295C168.077 147.232 164.663 154.832 159.923 161.975C159.691 161.669 159.758 161.395 159.791 161.15C160.487 158.464 160.354 155.687 161.017 153.001C161.15 152.512 161.084 151.993 161.117 151.474C161.15 151.016 160.719 150.925 160.454 150.711C159.758 150.192 158.863 149.918 158.366 149.185Z" fill="#EBE298"/>
<path d="M89.8861 70.7996C89.8861 72.1732 89.853 73.5773 89.9524 74.9509C90.0518 76.1718 89.853 77.3623 89.8198 78.5832C89.7867 79.8958 89.5878 81.1778 89.6209 82.4903C89.6541 83.5892 89.9856 84.688 89.8861 85.8174C89.4884 85.7258 89.3558 85.3901 89.2563 85.0848C88.1957 81.6356 87.8974 78.0643 87.4996 74.493C87.135 71.3185 87.1019 68.1135 86.7704 64.9696C86.6378 63.8402 86.5715 62.7108 86.671 61.5509C87.135 61.5814 87.2676 61.3678 87.2676 60.9404C87.2676 60.4215 87.2013 59.8721 87.5659 59.4142C88.0299 58.8343 88.262 58.1933 88.2951 57.4607C88.2951 57.0639 88.494 56.7892 88.958 56.7281C89.3558 56.9418 89.2232 57.3081 89.2563 57.6133C89.2895 59.1395 89.3226 60.6657 89.3226 62.1919C89.2895 64.7559 89.7204 67.3199 89.5878 69.8839C89.4552 70.2197 89.4552 70.6165 89.8861 70.7996Z" fill="#EBE298"/>
<path d="M115.276 112.343C114.613 112.037 114.083 112.373 113.652 112.77C113.155 113.167 112.724 113.594 112.227 114.022C111.995 114.235 111.729 114.388 111.365 114.388C111.166 112.495 111.133 110.603 111.597 108.741C111.763 108.13 111.597 107.52 111.829 106.971C112.392 105.505 112.923 104.071 113.519 102.514C113.851 103.124 113.818 103.704 113.917 104.254C114.248 106.055 114.414 107.856 114.679 109.657C114.845 110.542 115.077 111.427 115.276 112.343Z" fill="#EBE298"/>
<path d="M154.322 56.0872C153.327 56.0872 151.869 57.0334 151.405 57.9797C149.847 58.9869 148.156 59.8721 147.03 61.4594C146.731 61.0015 146.831 60.6352 146.93 60.3605C147.659 58.5596 148.355 56.7282 149.184 54.9578C149.549 54.1642 150.477 53.7368 151.338 53.4316C152.2 53.1569 152.896 53.4011 153.394 54.1031C153.858 54.7136 154.189 55.3546 154.322 56.0872Z" fill="#EBE298"/>
<path d="M69.4021 217.925C70.4296 217.589 71.3909 217.284 72.3521 216.979C73.3465 216.643 74.2083 217.284 75.1695 217.345C75.3352 217.345 75.5672 217.62 75.1695 217.833C74.1751 218.383 73.1476 218.902 72.2195 219.543C71.9543 219.726 71.7223 219.604 71.4903 219.451C70.7611 218.993 70.065 218.535 69.4021 217.925Z" fill="#EBE298"/>
<path d="M145.472 14.3304C142.621 13.9947 140.135 12.7737 137.351 12.7432C139.207 11.858 144.212 12.8042 145.472 14.3304Z" fill="#EBE298"/>
<path d="M86.7041 210.569C89.4221 209.5 92.1069 208.493 94.5928 207.089C94.626 207.15 94.6591 207.241 94.7254 207.303C93.2339 208.157 91.7423 209.012 90.2839 209.836C89.7867 210.111 89.2895 210.355 88.8254 210.63C88.1294 211.057 87.4665 211.332 86.7041 210.569Z" fill="#EBE298"/>
<path d="M109.011 116.738C108.812 116.769 108.547 116.83 108.481 117.013C108.315 117.532 107.884 117.501 107.453 117.471C107.586 116.219 107.918 114.998 108.249 113.777C108.348 113.381 108.382 112.984 108.547 112.434C109.111 113.93 108.945 115.334 109.011 116.738Z" fill="#EBE298"/>
<path d="M173.016 139.753C173.613 140.486 173.314 141.585 172.453 141.798C172.718 141.127 172.552 140.364 173.016 139.753Z" fill="#EBE298"/>
<path d="M118.558 48.273C118.591 48.273 118.591 48.3037 118.591 48.3037C118.558 48.3344 118.524 48.3344 118.491 48.3651C118.491 48.3344 118.524 48.3037 118.558 48.273Z" fill="#EBE298"/>
<path d="M154.189 57.8271C154.156 57.7966 154.156 57.766 154.189 57.7355C154.289 57.7355 154.322 57.766 154.289 57.8271C154.256 57.8271 154.222 57.8271 154.189 57.8271Z" fill="#EBE298"/>
<path d="M114.58 75.6224C114.182 75.2561 113.818 74.8593 113.387 74.5235C112.658 73.9436 112.525 73.3331 113.022 72.6005C113.088 72.7226 113.055 72.8752 113.221 72.9058C114.779 73.0889 115.773 74.1572 116.933 74.9509C119.055 76.416 121.342 77.4843 123.96 77.9727C124.822 78.1254 125.783 78.0948 126.678 78.0643C127.739 78.0033 128.833 78.2169 129.86 77.8812C130.225 77.7591 130.689 77.8812 130.755 78.2169C130.822 78.6748 130.324 78.919 129.893 78.9495C128.833 79.0411 127.805 79.2853 126.711 79.3463C123.596 79.56 120.811 78.6137 117.994 77.5454C116.735 77.057 115.707 76.2329 114.58 75.6224Z" fill="black"/>
<path d="M113.618 41.5578C113.088 41.6188 112.624 41.9546 112.06 41.9241C111.53 41.9241 111.033 41.7714 110.834 41.3441C110.635 40.9168 111.132 40.7336 111.398 40.4589C112.525 39.2074 113.917 38.2001 115.375 37.315C116.237 37.0708 117.032 36.5824 118.027 36.6129C118.524 36.6129 118.988 36.735 119.419 36.9487C120.082 37.2844 120.148 37.6202 119.618 38.1086C118.358 39.2074 116.9 40.0621 115.408 40.8862C114.845 41.1915 114.281 41.4662 113.618 41.5578Z" fill="black"/>
<path d="M136.522 40.2758C134.964 40.2147 133.838 39.3601 132.677 38.597C132.346 38.3833 132.081 38.1086 131.782 37.8644C131.418 37.5591 131.053 37.1929 131.318 36.7655C131.517 36.4603 132.048 36.3382 132.479 36.3992C134.434 36.6434 136.025 37.4981 137.384 38.7801C137.649 39.0243 137.815 39.3601 137.616 39.7874C137.351 40.2758 136.92 40.2452 136.522 40.2758Z" fill="black"/>
<path d="M114.68 54.2557C114.746 55.385 114.414 56.3618 113.917 57.2775C113.519 58.0101 112.757 58.4985 111.895 58.468C110.802 58.4069 109.84 57.9185 109.476 56.8807C108.879 55.2019 108.945 53.5536 109.973 51.9664C110.536 51.1117 111.299 50.7759 112.359 50.8675C113.486 50.9591 113.984 51.6917 114.348 52.4853C114.613 53.0652 114.812 53.7062 114.68 54.2557Z" fill="black"/>
<path d="M138.246 53.6147C138.213 54.622 138.113 55.7514 137.218 56.6977C136.158 57.827 134.003 57.6439 133.373 55.9956C132.976 54.9883 132.81 53.92 132.843 52.8211C132.876 51.8444 133.373 51.0813 134.136 50.5013C135.296 49.5856 137.318 50.1045 137.914 51.3865C138.279 52.058 138.246 52.7296 138.246 53.6147Z" fill="black"/>
<g clip-path="url(#clip0)">
<path d="M137.056 176.505C137.054 176.487 137.053 176.473 137.051 176.456C137.027 176.327 136.947 176.228 136.821 176.169C136.795 176.158 136.765 176.146 136.739 176.135C136.649 176.101 134.438 175.258 134.438 175.258C134.245 175.184 134.052 175.111 133.858 175.037L136.5 173.397C136.52 173.385 136.543 173.372 136.566 173.352C136.709 173.243 136.758 173.071 136.698 172.918C136.655 172.815 136.569 172.735 136.44 172.687C136.041 172.538 135.642 172.385 135.247 172.232L133.024 171.397C133.002 171.388 132.977 171.38 132.955 171.372C132.912 171.355 132.869 171.341 132.826 171.324C132.74 171.29 132.652 171.277 132.562 171.285C132.472 171.294 132.388 171.323 132.31 171.377C132.306 171.374 132.302 171.378 132.298 171.378L130.429 172.54C129.976 172.821 129.508 173.111 129.047 173.396C128.875 173.501 128.798 173.643 128.815 173.819C128.898 174.679 128.983 175.557 129.064 176.403L129.139 177.175C129.141 177.204 129.144 177.232 129.146 177.256C129.153 177.326 129.189 177.394 129.248 177.455C129.29 177.501 129.347 177.535 129.42 177.563C129.497 177.594 132.339 178.674 132.339 178.674C131.965 178.905 129.721 180.298 129.721 180.298C129.697 180.311 129.674 180.327 129.647 180.348C129.527 180.434 129.461 180.564 129.474 180.698C129.487 180.831 129.576 180.946 129.715 181.007C129.732 181.013 129.745 181.022 129.762 181.028L132.99 182.255L133.106 182.3C133.197 182.334 133.287 182.368 133.373 182.402C133.459 182.436 133.547 182.449 133.633 182.441C133.723 182.432 133.803 182.403 133.881 182.353L133.897 182.344L137.062 180.381L137.093 180.36C137.128 180.339 137.159 180.319 137.194 180.297C137.323 180.214 137.389 180.091 137.384 179.95C137.383 179.935 137.382 179.925 137.38 179.911L137.056 176.505ZM133.663 177.859C133.596 177.164 133.529 176.469 133.462 175.774C133.501 175.788 135.673 176.613 135.673 176.613C135.618 176.643 133.663 177.859 133.663 177.859ZM136.002 180.069L133.996 181.314C133.929 180.619 133.862 179.924 133.795 179.232C133.876 179.26 136.002 180.069 136.002 180.069ZM134.192 178.499C134.859 178.084 135.526 177.669 136.194 177.258C136.261 177.953 136.328 178.644 136.395 179.34C136.338 179.313 134.776 178.723 134.192 178.499ZM133.125 172.316C133.863 172.595 134.597 172.875 135.336 173.155C134.664 173.571 133.997 173.986 133.326 174.401L133.125 172.316ZM132.736 177.945C132.175 177.737 131.075 177.318 130.526 177.109C131.197 176.694 131.868 176.275 132.54 175.859C132.594 176.382 132.69 177.418 132.736 177.945ZM130.197 173.65C130.868 173.235 131.535 172.82 132.203 172.404C132.27 173.1 132.337 173.795 132.404 174.49C131.669 174.21 130.935 173.93 130.197 173.65ZM129.804 174.379C129.812 174.382 132.011 175.219 132.011 175.219C131.339 175.635 130.672 176.05 130.001 176.465C129.947 175.949 129.851 174.91 129.804 174.379ZM133.074 181.407C132.529 181.201 131.425 180.779 130.867 180.563C130.875 180.559 132.869 179.321 132.869 179.321C132.924 179.851 133.024 180.891 133.074 181.407Z" fill="white"/>
</g>
<defs>
<clipPath id="clip0">
<rect width="7.9455" height="11.2172" fill="white" transform="translate(128.607 171.663) rotate(-5.50368)"/>
</clipPath>
</defs>
</svg>
