<svg width="52" height="37" viewBox="0 0 52 37" fill="none" xmlns="http://www.w3.org/2000/svg">
<g clip-path="url(#clip0)">
<path d="M0.917819 37C0.279163 36.798 -0.0625743 36.29 0.0102548 35.6493C0.0438683 35.3722 0.144709 35.124 0.385606 34.9682C0.839387 34.6796 1.28757 34.3852 1.75255 34.1254C3.50605 33.1384 5.22594 32.0878 6.80578 30.8179C8.09989 29.7789 9.25956 28.5956 10.3016 27.2911C10.7778 26.6966 11.1587 26.0328 11.4892 25.3401C11.5397 25.2362 11.5733 25.1265 11.6181 25.0226C11.6797 24.8783 11.6181 24.7975 11.4836 24.7686C11.2764 24.7225 11.0635 24.6705 10.8506 24.6532C7.84779 24.3934 5.38841 23.0081 3.31558 20.8147C1.99345 19.4178 1.08589 17.7669 0.497651 15.9198C0.239947 15.1117 0.122301 14.269 0.0886876 13.4262C0.0494719 12.3699 0.0382671 11.3136 0.167119 10.2573C0.273561 9.39142 0.525662 8.57176 0.861796 7.76942C1.51726 6.18783 2.38 4.75055 3.57328 3.53261C5.39961 1.67395 7.58449 0.554136 10.1167 0.155852C12.0271 -0.144304 13.9318 -0.0634938 15.7582 0.606085C20.0047 2.17036 22.6713 5.22387 23.6797 9.77239C23.8086 10.3496 23.8534 10.9499 23.9374 11.5387C23.9486 11.6137 23.971 11.683 23.9879 11.758C23.9879 12.393 23.9879 13.0279 23.9879 13.6629C23.971 13.7379 23.9486 13.8129 23.943 13.888C23.8814 14.471 23.8422 15.054 23.7694 15.637C23.4612 18.0613 22.8954 20.4106 21.971 22.6676C20.0999 27.2507 17.0635 30.7718 12.8786 33.248C11.2035 34.2409 9.43883 35.0144 7.60129 35.6147C5.95984 36.1515 4.29597 36.5671 2.59289 36.8268C2.25115 36.8788 1.91502 36.9307 1.57328 36.9769C1.366 37 1.14191 37 0.917819 37Z" fill="#A5BDD0"/>
</g>
<g clip-path="url(#clip1)">
<path d="M28.9178 37C28.2792 36.798 27.9374 36.29 28.0103 35.6493C28.0439 35.3722 28.1447 35.124 28.3856 34.9682C28.8394 34.6796 29.2876 34.3852 29.7526 34.1254C31.5061 33.1384 33.2259 32.0878 34.8058 30.8179C36.0999 29.7789 37.2596 28.5956 38.3016 27.2911C38.7778 26.6966 39.1587 26.0328 39.4892 25.3401C39.5397 25.2362 39.5733 25.1265 39.6181 25.0226C39.6797 24.8783 39.6181 24.7975 39.4836 24.7686C39.2764 24.7225 39.0635 24.6705 38.8506 24.6532C35.8478 24.3934 33.3884 23.0081 31.3156 20.8147C29.9934 19.4178 29.0859 17.7669 28.4977 15.9198C28.2399 15.1117 28.1223 14.269 28.0887 13.4262C28.0495 12.3699 28.0383 11.3136 28.1671 10.2573C28.2736 9.39142 28.5257 8.57176 28.8618 7.76942C29.5173 6.18783 30.38 4.75055 31.5733 3.53261C33.3996 1.67395 35.5845 0.554136 38.1167 0.155852C40.0271 -0.144304 41.9318 -0.0634938 43.7582 0.606085C48.0047 2.17036 50.6713 5.22387 51.6797 9.77239C51.8086 10.3496 51.8534 10.9499 51.9374 11.5387C51.9486 11.6137 51.971 11.683 51.9879 11.758C51.9879 12.393 51.9879 13.0279 51.9879 13.6629C51.971 13.7379 51.9486 13.8129 51.943 13.888C51.8814 14.471 51.8422 15.054 51.7694 15.637C51.4612 18.0613 50.8954 20.4106 49.971 22.6676C48.0999 27.2507 45.0635 30.7718 40.8786 33.248C39.2035 34.2409 37.4388 35.0144 35.6013 35.6147C33.9598 36.1515 32.296 36.5671 30.5929 36.8268C30.2512 36.8788 29.915 36.9307 29.5733 36.9769C29.366 37 29.1419 37 28.9178 37Z" fill="#A5BDD0"/>
</g>
<defs>
<clipPath id="clip0">
<rect width="24" height="37" fill="white" transform="translate(24 37) rotate(-180)"/>
</clipPath>
<clipPath id="clip1">
<rect width="24" height="37" fill="white" transform="translate(52 37) rotate(-180)"/>
</clipPath>
</defs>
</svg>
