<svg width="560" height="567" viewBox="0 0 560 567" fill="none" xmlns="http://www.w3.org/2000/svg">
<path d="M457.713 470.543C528.297 461.39 575.645 391.714 553.506 313.12C525.147 212.443 457.713 316.782 361.921 225.257C266.128 133.732 160.175 159.05 110.89 250.883C77.4886 313.12 9 302.137 9 428.441C9 506.238 104.588 485.187 167.609 470.543C230.631 455.899 230.631 525.457 315.71 533.695C400.789 541.932 387.129 479.695 457.713 470.543Z" fill="#F2F8F1"/>
<g clip-path="url(#clip0)">
<path d="M119.203 164.046C119.389 161.623 119.203 159.201 121.067 157.337C122.932 155.474 125.355 156.033 127.779 156.219C127.779 155.66 127.965 155.288 127.965 154.915C127.779 153.051 127.965 151.002 128.525 149.138C129.084 146.716 130.762 144.852 132.999 144.852C134.304 144.666 135.795 144.666 137.1 145.411C137.287 145.411 137.473 145.411 137.846 145.411C137.846 144.852 137.846 144.48 137.846 143.92C137.66 142.43 137.287 141.125 137.1 139.635C136.727 137.771 136.355 135.908 135.982 134.044C135.795 133.112 135.982 131.994 135.795 131.063C135.609 129.385 135.236 127.522 135.236 125.845C135.236 123.981 135.609 121.932 136.727 120.441C139.71 116.9 143.066 116.341 146.236 120.627C147.727 122.491 148.473 124.913 149.591 126.963C151.642 131.249 152.761 135.721 154.066 140.194C154.811 142.43 155.184 144.852 155.557 147.088C156.116 150.07 156.862 153.051 157.421 156.219C157.608 157.524 157.981 159.015 158.167 160.319C158.54 162.182 158.726 164.046 159.099 165.909C159.472 167.959 160.031 170.009 160.591 172.059C160.777 172.431 161.15 172.804 161.336 173.363C161.709 172.804 162.082 172.245 162.269 171.872C164.879 168.145 168.048 164.605 172.15 162.369C174.2 161.251 176.437 160.692 178.861 160.878C180.166 160.878 181.658 161.437 182.776 161.996C184.268 162.741 184.454 163.86 183.895 165.35C182.403 169.077 181.098 172.804 179.607 176.531C179.047 178.022 177.929 179.326 177.556 180.817C176.624 183.426 175.878 186.035 175.132 188.644C174.387 191.066 174.014 193.675 173.268 196.097C173.082 197.215 172.709 198.147 172.522 199.265C172.336 200.011 172.709 200.57 173.455 200.57C175.505 200.57 177.183 201.688 178.675 202.62C179.793 203.179 179.793 204.483 180.166 205.415C181.098 208.769 181.844 212.31 182.776 215.85C183.335 218.273 183.708 220.509 184.268 222.931C184.827 225.54 185.386 228.335 186.132 230.944C186.505 232.249 186.691 233.739 186.878 235.044C187.437 237.466 188.183 240.075 188.742 242.498C189.488 244.92 190.047 247.529 190.793 249.951C191.538 252.747 192.471 255.542 193.216 258.523C193.962 261.132 194.708 263.927 195.453 266.536C196.199 269.145 196.945 271.568 197.691 274.176C198.809 277.903 200.114 281.63 201.419 285.171C202.724 289.084 204.216 292.997 205.521 297.097C206.08 296.911 206.453 296.911 206.639 296.724C210.368 292.997 215.029 290.202 219.69 287.593C224.537 284.798 229.57 282.189 234.604 279.767C237.773 278.276 241.316 277.344 244.858 276.226C247.281 275.295 249.891 274.549 252.315 273.804C254.739 273.245 257.349 272.686 259.959 272.313C262.01 271.94 264.247 271.568 266.297 271.195C267.975 271.009 269.653 271.009 271.331 270.822C274.5 270.636 277.856 270.45 281.026 270.263C282.144 270.263 282.517 269.891 282.144 268.959C281.212 266.35 280.466 263.927 279.534 261.319C278.043 257.405 276.365 253.678 274.687 249.765C274.314 248.833 273.941 248.088 273.755 247.156C273.382 244.734 271.89 242.684 270.585 240.634C270.213 240.075 269.467 239.516 268.908 239.143C263.128 235.416 258.654 230.385 255.112 224.608C252.315 220.136 250.451 215.291 248.959 210.26C248.214 207.465 247.468 204.483 246.909 201.688C245.976 195.725 245.417 189.575 245.79 183.612C245.976 181.19 246.536 178.767 246.909 176.345C247.095 175.04 247.468 173.736 247.654 172.245C248.214 168.705 249.146 165.35 250.264 161.996C251.756 157.337 253.434 152.865 255.671 148.393C257.162 145.411 259.027 142.616 260.705 139.821C262.196 137.398 262.382 134.79 262.01 131.994C262.01 131.622 261.823 131.435 261.823 131.063C261.637 127.895 261.264 124.727 261.077 121.745C260.891 118.018 260.518 114.291 260.518 110.565C260.518 107.956 261.077 105.347 261.45 102.738C261.823 100.688 262.382 98.6384 262.942 96.5885C264.62 90.4391 268.348 86.1532 274.314 83.7307C277.297 82.4262 280.28 81.8672 283.449 81.3082C283.636 81.3082 284.008 81.3082 284.195 81.3082C286.059 81.8672 287.737 81.6809 289.601 81.3082C290.72 81.1218 291.839 81.3082 292.957 81.3082C294.449 81.3082 295.754 81.4945 297.245 81.6808C298.737 81.8672 300.228 82.0535 301.719 82.6126C304.702 83.358 307.499 84.2897 310.482 85.2214C312.346 85.7805 314.397 86.3395 316.261 86.8985C317.193 87.2712 318.312 87.2712 319.244 87.6439C321.108 88.203 322.786 88.5757 324.651 89.321C326.701 90.0664 328.939 90.0664 331.176 90.4391C332.481 90.6255 333.413 90.9982 334.345 92.3026C333.972 92.6753 333.599 93.048 333.04 93.048C330.989 93.7934 328.939 94.5387 327.074 95.0978C326.701 95.2841 326.328 95.6568 325.583 96.0295C327.074 96.5885 328.379 96.4022 329.684 96.2159C331.735 96.0295 333.786 96.2159 335.836 96.7749C338.447 97.3339 340.87 98.2657 343.107 99.5701C344.972 100.688 346.836 101.993 348.7 103.297C350.192 104.415 351.497 105.72 352.988 106.838C353.92 107.583 355.225 108.328 356.158 109.074C357.835 110.378 359.7 111.496 361.378 112.801C362.683 113.732 364.174 113.919 365.666 113.919C367.903 114.105 370.326 114.105 372.564 114.105C374.801 114.105 376.665 114.85 378.529 115.596C379.089 115.782 379.461 116.341 380.021 117.087C376.665 118.577 373.496 119.509 370.699 121.559C375.36 125.659 377.97 131.063 380.953 136.094C382.817 139.075 383.936 142.616 384.682 145.97C385.241 148.02 385.8 149.884 386.359 151.933C386.546 152.492 386.546 153.238 386.546 153.983C387.105 157.71 387.664 161.251 389.156 164.605C389.902 166.096 390.647 167.4 392.139 168.518C392.698 168.891 393.257 169.45 394.003 170.195C392.885 170.941 392.139 170.568 391.207 170.382C389.715 170.009 388.037 169.636 386.546 169.264C385.054 168.891 383.749 168.705 382.258 168.145C381.699 167.959 381.139 167.773 380.766 168.332C380.58 168.705 380.58 169.45 380.766 169.823C381.885 172.059 383.19 174.109 384.309 176.345C386.173 179.885 387.664 183.799 387.851 187.898C388.037 189.948 387.105 191.625 386.173 193.302C384.868 195.352 383.563 197.588 381.699 199.452C381.512 199.638 381.326 200.197 381.326 200.383C381.512 200.57 381.885 200.756 382.258 200.756C384.682 201.129 386.919 201.315 389.342 201.688C389.715 201.688 390.088 201.874 390.647 202.247C389.715 202.806 389.156 203.179 388.41 203.551C385.054 205.042 381.512 206.533 378.156 207.837C375.733 208.769 373.309 209.514 370.886 210.26C369.581 210.632 368.276 211.191 367.157 211.75C364.36 213.055 361.378 214.359 358.581 215.85C358.022 216.223 356.903 216.223 356.903 217.527C360.445 216.968 363.615 214.732 367.53 216.036C367.157 216.409 366.971 216.782 366.598 216.968C363.988 217.714 361.564 218.832 359.327 220.136C355.225 222.559 351.124 225.167 346.463 226.658C343.48 227.59 340.684 228.522 337.701 229.453C336.769 229.826 335.836 230.385 334.904 230.944C333.599 231.876 332.294 232.994 330.803 233.926C330.244 234.298 330.057 234.671 330.057 235.23C330.43 237.653 330.616 240.261 330.989 242.684C330.989 243.429 331.176 244.175 331.362 244.734C331.735 248.274 332.108 251.815 332.481 255.356C332.667 256.66 332.481 257.964 332.667 259.269C332.854 260.573 333.226 261.691 333.413 262.996C333.413 263.182 333.413 263.368 333.413 263.555C333.04 264.673 333.226 264.673 334.345 265.046C337.514 265.605 340.497 266.164 343.48 266.909C345.717 267.468 348.141 267.841 350.378 268.4C352.802 268.959 355.039 269.704 357.276 270.45C360.259 271.381 363.055 272.499 365.852 273.617C369.953 275.295 373.869 276.972 377.784 278.649C385.8 282.189 393.63 286.475 400.901 291.134C406.68 294.861 412.273 298.774 417.121 303.619C418.799 305.296 420.476 306.601 422.154 308.278C426.442 313.123 430.917 317.781 434.832 322.813C437.815 326.54 440.611 330.639 443.221 334.739C446.763 340.516 449.56 346.479 451.983 352.628C453.102 355.61 454.034 358.778 454.966 361.759C455.526 363.995 456.271 366.045 456.644 368.281C457.017 369.586 457.203 370.89 457.39 372.195C457.763 374.617 457.949 377.04 458.322 379.462C459.254 385.984 459.068 392.506 458.881 399.028C458.695 402.383 458.136 405.737 457.763 409.091C457.576 410.955 457.203 413.004 456.831 414.868C456.458 417.29 455.898 419.526 455.153 421.949C454.221 425.117 453.288 428.285 452.17 431.453C451.238 434.062 450.305 436.484 449.187 438.907C447.136 444.124 444.526 448.969 441.543 453.628C439.306 457.168 436.882 460.523 434.645 464.063C432.035 467.977 429.052 471.517 426.069 475.058C418.985 482.884 411.341 490.152 402.765 496.301C397.359 500.214 391.766 503.941 385.987 507.296C378.529 511.582 370.886 515.495 363.055 519.035C357.649 521.458 352.242 523.694 346.65 525.557C342.362 527.048 338.074 528.353 333.786 529.657C330.244 530.589 326.515 531.521 322.973 532.266C320.176 532.825 317.566 533.57 314.77 534.129C312.905 534.502 311.228 534.688 309.363 534.875C307.126 535.247 305.075 535.62 302.838 535.993C302.652 535.993 302.465 535.993 302.092 535.993C298.55 536.366 295.194 536.552 291.652 536.925C288.11 537.297 284.381 537.67 280.839 537.484C279.348 537.484 277.856 537.297 276.365 536.925C273.568 536.179 270.772 535.434 268.535 533.011C267.23 533.757 265.925 534.502 264.433 535.247C259.027 538.415 253.62 541.77 248.4 545.497C245.604 547.546 242.807 549.41 240.011 551.087C237.214 552.764 234.231 554.068 231.062 554.627C228.452 555.187 225.842 554.628 223.418 553.323C222.859 552.95 222.3 552.391 221.927 551.646C221.554 550.714 220.995 550.714 220.249 550.714C218.571 550.901 217.08 551.087 215.402 551.087C214.097 551.087 212.792 550.901 211.487 550.155C209.995 549.41 209.436 548.664 209.809 546.987C209.809 546.615 209.995 546.056 209.995 545.497C209.622 545.497 209.249 545.31 208.877 545.497C206.826 546.056 204.775 545.869 202.724 545.31C201.979 545.124 201.046 544.938 200.487 544.565C199.555 544.006 199.369 542.888 199.928 541.583C200.301 540.652 200.301 540.652 200.114 539.72C199.555 539.906 198.809 539.906 198.25 540.279C196.199 541.211 193.962 541.024 191.725 540.838C189.115 540.652 188.183 538.602 188.742 536.179C189.301 533.57 190.42 530.962 191.911 528.725C192.098 528.353 192.284 527.794 192.471 527.421C190.047 526.117 187.81 524.812 185.573 523.508C182.217 521.458 178.861 519.408 175.505 517.358C174.573 516.799 173.641 516.24 172.709 515.867C171.59 515.495 171.031 514.749 170.285 513.818C170.099 513.445 169.726 513.072 169.353 512.7C169.726 512.141 170.285 511.582 170.658 510.836C171.031 510.277 171.404 509.532 171.59 508.973C174.2 503.196 176.81 497.419 179.42 491.642C182.03 485.866 184.454 479.903 186.878 473.94C187.437 472.635 187.996 471.331 189.488 470.958C190.233 470.772 190.606 470.213 190.606 469.281C190.793 466.486 191.725 463.877 192.471 461.268C193.216 458.846 193.962 456.609 194.708 454.187C195.453 452.137 196.386 450.087 197.131 448.037C197.691 446.547 197.504 446.174 196.013 445.988C194.148 445.801 192.284 445.242 190.606 444.87C188.742 444.497 186.878 443.938 185.013 443.379C180.353 442.074 176.065 440.211 171.777 438.347C167.302 436.298 163.201 433.689 159.472 430.521C156.676 428.098 154.066 425.303 151.642 422.508C147.541 417.663 143.812 412.632 140.083 407.414C136.728 402.755 133.931 397.91 131.88 392.506C130.389 388.779 128.897 385.239 127.406 381.512C126.101 378.158 124.982 374.803 123.864 371.263C123.304 369.586 122.745 368.095 122.372 366.418C121.999 364.927 121.627 363.436 121.254 361.946C120.881 360.268 120.322 358.405 120.135 356.728C119.762 353.933 119.576 351.137 119.389 348.342C119.203 345.92 119.576 343.311 119.203 340.888C118.644 337.721 118.83 334.553 118.83 331.385C119.016 326.167 119.576 320.949 119.762 315.732C119.949 314.055 119.949 312.377 119.949 310.7C120.135 304.365 120.135 298.029 120.694 291.879C121.067 287.034 121.067 282.376 121.254 277.531C121.44 273.617 121.999 269.704 122.372 265.791C122.372 264.673 122.372 263.741 122.559 262.623C122.745 257.964 122.745 253.119 123.491 248.461C124.05 244.361 123.677 240.075 124.237 235.975C124.796 231.317 124.796 226.472 124.423 221.813C124.237 220.322 124.423 218.832 124.609 217.341C124.796 215.85 125.914 214.918 127.033 214.173C127.406 213.8 127.965 213.614 128.525 213.428C129.643 212.869 129.643 212.496 129.084 211.564C127.965 209.887 126.66 208.21 125.728 206.533C122.186 200.942 118.457 195.352 115.847 189.203C114.915 186.966 114.356 184.73 113.61 182.494C113.051 180.817 112.119 179.326 111.559 177.649C109.881 173.922 109.881 170.195 110.441 166.282C110.627 164.978 112.678 163.487 114.169 163.487C116.406 164.046 117.711 164.046 119.203 164.046ZM284.195 532.639C285.127 532.825 285.686 533.011 286.246 532.825C289.788 532.452 293.33 532.266 296.872 531.893C299.482 531.521 302.279 531.148 304.889 530.775C306.753 530.589 308.617 530.216 310.668 530.03C312.346 529.843 313.838 529.471 315.515 529.098C317.939 528.539 320.363 527.98 322.973 527.421C325.21 526.862 327.261 526.303 329.498 525.744C331.921 524.998 334.345 524.253 336.955 523.508C339.565 522.762 342.175 522.017 344.599 521.085C347.209 520.153 349.632 519.222 352.056 518.29C355.039 517.172 358.208 516.054 361.191 514.563C365.852 512.327 370.513 510.091 374.801 507.296C383.377 502.078 391.58 496.487 399.223 489.965C404.443 485.493 409.477 480.648 414.324 475.803C416.561 473.567 418.612 471.144 420.663 468.722C423.459 465.181 426.256 461.827 428.866 458.1C432.408 453.069 435.204 447.851 438.001 442.261C439.492 439.093 440.984 435.925 442.475 432.571C443.594 429.962 444.526 427.167 445.272 424.371C446.39 420.645 447.323 416.731 448.255 413.004C448.628 411.514 448.814 410.023 449 408.532C449.373 405.737 449.933 403.128 450.119 400.333C450.305 396.42 450.305 392.506 450.305 388.593C450.305 386.357 450.305 384.307 449.933 382.071C449.746 379.835 449.187 377.599 448.814 375.176C448.255 372.567 447.882 369.958 447.323 367.35C446.763 364.741 445.831 362.132 444.899 359.709C443.221 355.423 441.73 350.951 439.865 346.665C438.001 342.752 435.764 339.025 433.713 335.298C431.103 330.08 427.561 325.422 423.832 320.949C420.849 317.222 417.494 313.496 413.578 310.328C407.053 304.737 400.342 299.333 393.444 294.302C388.783 290.948 384.122 287.78 378.902 285.357C373.868 282.935 369.021 280.512 363.801 278.462C360.632 277.158 357.463 276.04 354.293 274.922C351.87 273.99 349.26 273.245 346.836 272.499C345.344 271.94 343.853 271.568 342.362 271.195C340.311 270.636 338.447 270.077 336.396 269.518C336.023 269.518 335.836 269.518 335.464 269.331C335.464 269.704 335.464 270.077 335.464 270.45C336.209 272.499 336.955 274.736 337.701 276.785C339.006 280.699 340.124 284.612 340.684 288.711C340.87 290.016 341.243 291.134 341.429 292.438C342.175 296.165 343.107 300.079 343.853 303.806C344.412 307.16 344.972 310.514 345.344 313.682C345.904 317.222 346.277 320.577 346.65 324.117C346.836 326.167 347.022 328.031 347.022 330.08C347.022 330.453 347.022 331.012 347.022 331.385C346.836 334.18 346.65 336.975 346.463 339.77C346.277 342.566 345.158 344.802 343.48 346.851C340.684 350.392 336.955 352.815 333.226 355.237C331.362 356.355 329.498 357.287 327.82 358.591C324.464 361.014 323.532 364.554 323.905 368.281C324.278 371.449 325.023 374.431 325.583 377.599C325.769 378.717 326.142 380.021 326.328 381.139C326.888 383.934 327.447 386.73 327.633 389.338C327.82 391.016 327.82 392.879 327.261 394.183C325.769 397.538 324.091 400.706 322.413 403.873C321.108 406.11 319.43 407.973 318.125 410.023C316.634 412.073 315.143 414.309 313.838 416.359C311.787 419.526 309.736 422.694 307.499 425.676C305.635 428.285 303.77 430.521 301.719 433.13C298.737 437.043 295.754 441.143 292.584 444.87C289.974 448.037 287.178 451.019 284.754 454.373C281.585 458.659 278.043 462.572 274.5 466.486C272.823 468.349 270.958 470.213 269.094 472.076C267.603 473.567 266.484 475.244 264.992 476.735C261.264 480.648 257.349 484.375 253.434 488.102C253.247 488.288 253.061 488.661 252.688 489.034C255.298 490.152 257.722 491.27 260.145 492.574C261.823 490.897 263.501 489.406 264.992 487.916C267.602 485.307 270.026 482.512 272.636 479.716C274.128 478.226 275.619 476.921 277.111 475.43C278.975 473.567 280.839 471.703 282.703 469.84C285.686 467.045 288.483 464.063 291.466 461.454C296.313 456.982 301.16 452.51 306.194 448.41C311.041 444.497 315.515 440.397 319.99 436.111C322.973 433.316 325.769 430.148 328.566 427.167C330.989 424.558 333.226 421.576 335.464 418.781C337.887 415.8 340.124 412.445 342.734 409.464C347.209 404.432 351.31 399.215 355.039 393.624C359.327 386.916 363.801 380.394 368.462 373.872C369.208 372.754 369.953 371.636 370.699 370.704C371.258 369.958 372.004 369.958 372.75 370.331C373.496 370.89 373.309 371.449 372.936 372.195C372.004 374.058 371.072 375.921 369.953 377.785C367.716 381.698 365.293 385.425 362.869 389.338C359.886 394.37 356.717 399.215 353.175 403.873C350.751 407.041 348.327 410.023 346.09 413.004C344.226 415.613 342.362 418.222 340.497 420.645C338.819 422.881 336.955 424.931 335.464 427.167C331.362 432.757 326.701 437.975 321.668 442.82C317.753 446.547 313.838 449.901 309.736 453.442C307.312 455.678 304.702 457.727 302.279 460.15C298.177 464.063 294.076 467.977 289.974 472.076C285.686 476.176 281.212 480.275 276.924 484.561C273.941 487.543 270.772 490.338 267.602 493.133C266.857 493.879 265.925 494.438 264.806 495.183C265.925 495.556 266.857 495.742 267.789 495.928C270.772 496.674 273.195 498.165 275.246 500.214C276.738 501.892 277.856 503.941 278.975 505.991C280.653 509.159 281.771 512.327 282.703 515.867C283.449 518.849 284.195 522.017 284.381 525.185C284.381 527.607 284.195 530.03 284.195 532.639ZM197.504 473.567C198.436 474.126 199.369 474.499 200.301 474.871C206.267 477.667 212.232 480.462 218.012 483.257C220.808 484.561 223.418 486.052 226.215 487.357C226.774 487.543 227.333 487.729 227.893 487.543C230.875 486.238 234.045 485.679 237.401 485.866C237.96 485.866 238.519 485.866 239.078 485.866C240.197 485.866 240.383 485.679 240.197 484.561C240.011 483.071 239.824 481.58 239.824 480.089C239.824 473.381 239.824 466.858 239.824 460.15C239.824 459.777 239.824 459.405 239.824 459.032C240.57 455.305 239.824 451.578 239.638 447.851C239.451 444.497 238.706 441.143 238.706 437.788C238.333 431.639 238.706 425.676 237.96 419.526C237.401 414.868 237.587 410.023 237.401 405.364C237.401 403.314 237.214 401.265 237.214 399.028C237.028 393.811 237.587 388.593 237.773 383.375C237.96 379.276 238.333 375.176 238.706 371.263C238.706 370.145 239.078 368.84 239.451 367.722C240.57 363.436 243.18 359.896 246.349 357.101C249.891 353.933 253.434 350.765 256.976 347.97C259.4 346.106 260.332 342.379 258.654 339.398C257.162 336.602 255.671 333.807 254.179 331.012C253.061 328.776 253.061 326.54 253.993 324.304C254.925 321.881 256.044 319.645 257.162 317.222C259.4 312.564 261.823 307.905 264.62 303.433C267.043 299.333 269.28 295.234 271.518 290.948C274.314 285.544 277.111 279.953 279.907 274.363C280.093 273.99 280.093 273.617 280.093 273.058C279.348 273.058 278.975 273.058 278.602 273.058C276.738 273.245 274.873 273.431 273.009 273.617C270.213 273.99 267.416 274.363 264.62 274.736C263.315 274.922 261.823 275.108 260.518 275.481C259.027 275.854 257.535 276.04 256.23 276.413C253.62 277.158 251.01 277.903 248.4 278.835C245.604 279.767 242.621 280.699 239.824 281.817C235.536 283.68 231.435 285.916 227.147 288.152C221.181 291.32 215.402 295.047 210.368 299.52C210.182 299.706 209.995 299.892 209.809 300.079C209.436 302.315 208.69 304.551 208.69 306.601C208.504 309.769 209.249 312.936 210.368 315.918C212.046 320.39 213.537 325.049 215.215 329.708C215.775 331.198 215.961 332.316 214.656 333.621C214.283 333.248 214.097 332.876 213.91 332.689C212.605 330.639 211.114 328.59 209.995 326.353C207.572 322.254 205.334 318.154 203.097 314.055C201.419 310.887 200.114 307.532 198.623 304.365C197.691 302.128 196.758 299.706 196.013 297.283C194.894 294.302 193.962 291.32 193.03 288.339C191.911 284.798 190.606 281.258 189.488 277.717C188.183 273.617 187.064 269.331 185.945 265.046C185.386 262.809 184.64 260.387 184.268 257.964C183.335 253.492 182.403 249.206 181.658 244.734C181.098 242.125 180.725 239.516 180.166 236.721C179.98 235.416 179.607 234.112 179.42 232.808C179.047 231.317 178.675 229.64 178.302 228.149C177.929 226.472 177.742 224.608 177.37 222.931C176.997 219.95 176.437 216.968 176.251 214.173C176.065 212.682 175.878 211.378 175.319 209.887C174.76 210.26 174.387 210.446 174.2 210.632C170.472 214.173 165.624 215.85 160.777 217.341C158.726 217.9 156.676 218.273 154.625 218.832C152.761 219.204 150.896 219.763 149.032 219.95C146.981 220.322 144.93 220.509 142.88 220.695C139.151 221.254 135.422 222 131.694 221.813C131.321 221.813 130.948 221.813 130.389 222C130.389 222.372 130.389 222.559 130.389 222.745C130.575 225.354 130.948 227.963 131.321 230.385C131.321 230.758 131.321 231.317 131.507 231.69C131.694 235.603 132.253 239.33 132.253 243.243C132.253 248.833 132.067 254.237 132.067 259.828C132.067 268.959 131.88 278.09 131.321 287.221C130.948 292.997 131.135 298.961 130.762 304.737C130.202 312.377 130.389 320.018 130.389 327.844C130.389 334.18 130.016 340.516 130.948 346.851C131.321 349.833 131.507 352.815 131.88 355.796C132.067 357.287 132.253 358.778 132.626 360.268C133.185 362.877 133.745 365.486 134.49 367.909C134.863 369.772 135.422 371.636 135.982 373.499C137.1 376.853 138.405 380.207 139.71 383.562C141.202 387.289 142.88 391.016 144.744 394.742C146.422 397.91 148.286 400.892 150.337 403.687C154.625 410.023 159.286 416.172 164.319 421.763C168.234 426.049 172.709 430.148 177.742 432.943C184.081 436.67 190.793 439.279 198.25 440.211C198.809 440.211 199.555 440.211 200.114 440.025C200.86 439.838 201.233 439.466 201.419 438.72C201.606 437.788 201.979 436.857 202.165 436.111C204.216 430.521 206.08 425.117 208.131 419.713C210.368 414.122 212.978 408.718 215.402 403.314C215.961 402.01 216.893 401.451 218.385 401.451C221.181 401.451 221.554 402.01 221.181 404.619C220.435 409.091 218.944 413.377 217.452 417.663C216.707 419.899 215.961 421.949 215.402 424.185C214.283 427.912 213.164 431.825 211.859 435.552C210.927 438.347 209.809 441.143 208.877 443.938C206.826 449.528 204.589 455.305 202.351 460.895C200.86 465.74 199.182 469.467 197.504 473.567ZM269.467 139.075C265.552 144.293 262.755 149.884 260.518 155.66C258.654 160.133 257.162 164.791 256.417 169.636C255.857 173.177 254.925 176.717 254.739 180.258C254.366 185.848 254.179 191.625 255.112 197.215C255.484 200.011 255.671 202.992 256.603 205.601C257.535 208.769 258.281 212.123 259.586 215.291C262.382 222 266.111 227.963 271.518 232.994C274.5 235.789 277.67 238.398 281.585 239.889C284.568 241.193 287.737 242.311 291.093 242.311C293.33 242.311 295.754 242.498 297.991 241.752C300.601 240.82 303.211 240.261 305.635 239.33C310.109 237.466 314.21 234.671 317.939 231.69C320.736 229.453 323.346 226.845 325.769 224.049C327.633 222 329.311 219.763 330.989 217.527C333.226 214.546 334.904 211.191 336.582 208.024C336.955 207.465 337.328 207.092 337.887 206.905C340.87 205.415 343.853 204.11 346.836 202.433C349.819 200.756 352.802 198.893 354.48 195.725C354.852 194.793 355.412 194.048 355.785 193.116C356.903 190.693 358.208 188.457 358.208 185.848C358.208 183.053 358.022 180.258 358.022 177.463C358.022 175.972 357.463 174.668 356.903 173.363C356.158 171.686 354.852 170.941 352.988 171.127C351.497 171.313 350.005 171.872 348.514 172.245C347.582 172.431 346.65 173.177 345.717 172.245C345.531 172.059 345.158 172.245 344.972 172.245C344.599 172.245 344.226 172.431 343.853 172.431C338.819 172.618 333.786 173.55 328.566 172.99C328.193 172.99 327.447 173.363 327.261 173.736C326.515 175.04 325.396 176.158 324.091 176.904C322.227 178.022 320.922 178.208 319.058 176.904C319.99 173.55 320.736 170.195 321.668 166.655C317.939 165.35 314.583 164.046 310.855 162.555C310.855 163.487 310.668 164.046 310.855 164.605C311.227 166.096 311.041 167.4 310.855 168.891C310.668 171.686 309.55 174.109 308.245 176.345C307.312 178.022 306.007 178.767 303.957 178.395C302.652 178.022 301.347 177.463 300.787 175.972C299.482 172.431 299.109 168.891 299.669 165.164C299.855 163.487 300.414 161.81 301.719 160.505C301.906 160.319 302.092 159.946 302.279 159.387C301.16 159.015 300.228 158.828 299.109 158.455C298.55 160.133 297.991 161.81 297.432 163.3C296.872 164.791 296.313 166.468 295.567 167.773C294.822 169.077 292.957 169.636 291.279 168.891C289.788 168.332 289.229 166.841 289.788 165.164C289.974 164.791 290.161 164.419 290.161 164.046C290.347 163.114 290.161 162.555 289.229 162.369C288.11 161.996 286.991 161.437 285.873 160.878C284.568 160.133 284.381 160.133 283.636 161.251C283.449 161.623 283.076 161.996 282.89 162.369C280.653 166.468 278.416 170.382 276.551 174.668C274.873 178.767 272.823 182.68 271.89 187.153C271.518 188.644 271.331 189.948 271.89 191.439C273.568 190.507 275.06 189.389 276.551 188.457C277.483 187.898 278.416 187.525 279.534 188.457C279.161 189.203 278.788 189.948 278.229 190.507C276.738 191.998 275.246 193.489 273.755 194.793C272.077 196.097 270.213 196.097 268.162 195.166C266.111 194.234 266.297 192.37 266.111 190.693C265.925 185.848 267.23 181.19 268.908 176.531C270.026 173.55 271.145 170.568 272.636 167.586C274.128 164.605 275.619 161.623 277.856 159.201C278.416 158.455 279.348 157.896 279.721 157.151C281.212 154.542 282.517 151.933 284.008 149.511C284.568 148.765 284.381 148.393 283.636 147.834C280.653 145.97 277.856 144.107 275.06 142.243C273.195 141.125 271.331 140.194 269.467 139.075ZM336.023 295.979C335.836 295.979 335.836 295.979 335.65 295.979C334.904 297.656 334.159 299.333 333.413 300.824C331.549 304.365 329.871 308.091 327.82 311.632C324.837 316.291 320.922 320.39 316.82 324.117C315.329 325.422 314.21 326.726 313.651 328.59C313.465 329.335 313.092 330.08 312.719 330.639C310.295 334.366 308.245 338.28 305.262 341.634C305.075 341.82 304.889 342.193 304.889 342.566C304.33 345.361 303.77 347.97 303.025 350.765C302.465 353.001 302.092 355.423 301.533 357.66C300.974 360.455 300.414 363.064 299.855 365.859C299.296 368.468 298.923 370.89 298.364 373.499C297.618 376.667 296.686 380.021 295.94 383.189C295.381 385.611 295.008 388.034 294.449 390.457C293.889 393.438 293.144 396.606 292.584 399.587C292.398 400.892 292.025 402.01 291.839 403.314C291.279 406.482 290.534 409.836 289.974 413.004C289.601 414.868 289.415 416.731 289.229 418.595C288.856 420.458 288.483 422.508 288.11 424.371C287.737 425.862 287.551 427.353 287.364 428.657C286.805 431.639 286.059 434.621 285.5 437.416C285.127 438.906 284.941 440.397 284.568 441.888C284.381 443.192 284.195 444.311 283.822 445.988C284.381 445.615 284.754 445.429 284.941 445.242C287.551 442.074 290.347 438.906 292.957 435.552C295.754 431.825 298.55 428.098 301.347 424.185C303.77 420.831 306.567 417.663 308.804 414.122C312.16 408.905 315.329 403.501 318.685 398.097C320.363 395.301 321.481 392.506 321.295 389.152C321.295 387.475 320.736 385.612 320.549 383.934C320.176 382.444 319.803 380.767 319.617 379.276C319.244 377.412 319.058 375.735 318.685 373.872C318.498 372.567 318.312 371.076 317.939 369.772C317.007 366.045 317.939 362.877 319.803 359.709C321.295 357.287 323.718 355.982 325.956 354.492C328.752 352.628 331.549 350.765 334.159 348.901C337.887 346.292 340.124 342.752 340.497 338.28C340.684 335.671 340.87 333.062 340.87 330.453C340.87 324.304 340.684 318.154 339.379 312.191C338.819 308.837 338.26 305.483 337.887 302.315C337.701 300.824 337.514 299.333 337.141 297.842C336.582 297.47 336.209 296.724 336.023 295.979ZM245.79 423.626C246.722 423.999 246.909 423.626 247.095 423.067C248.586 418.967 250.264 414.868 251.942 410.955C253.993 405.923 256.23 401.078 258.467 396.047C259.959 392.506 261.45 388.966 263.128 385.611C264.992 381.698 267.23 377.785 269.28 373.872C273.568 366.231 277.856 358.591 282.144 350.951C284.008 347.597 285.686 344.243 287.551 341.075C288.11 340.143 288.296 339.211 287.737 338.093C287.364 337.348 286.991 336.416 286.991 335.484C286.991 332.876 286.246 330.267 286.805 327.658C287.364 325.608 286.991 323.745 285.314 322.44C285.127 322.254 285.127 322.254 284.941 322.067C281.585 316.85 279.721 311.073 278.975 304.924C278.416 300.824 278.416 296.724 278.229 292.625C278.229 292.066 278.043 291.693 278.043 291.134C277.856 291.134 277.856 291.134 277.67 291.134C277.297 291.879 276.924 292.811 276.551 293.556C273.195 299.892 269.653 306.228 266.297 312.75C264.247 316.663 262.382 320.577 260.518 324.676C259.959 325.794 259.4 327.099 259.772 328.403C260.332 329.708 260.705 331.012 261.45 332.316C263.128 335.857 265.365 339.398 265.738 343.497C265.925 346.106 265.365 348.342 263.128 349.833C261.823 350.765 260.705 351.696 259.586 352.628C256.789 355.237 253.993 358.032 251.197 360.827C247.841 363.995 246.163 367.909 245.417 372.381C245.231 374.058 244.858 375.735 244.671 377.412C244.299 380.953 243.739 384.68 243.553 388.22C243.18 394.556 243.553 400.706 244.112 407.041C244.299 408.346 244.112 409.65 244.299 410.955C244.671 414.495 245.044 418.036 245.417 421.39C245.976 422.135 245.79 422.881 245.79 423.626ZM235.723 527.421C235.909 528.353 235.163 528.725 234.604 529.284C233.113 530.589 231.621 531.893 230.13 533.198C228.452 534.688 226.774 536.366 224.91 537.67C221.927 539.906 219.503 542.888 217.639 546.056C217.08 546.801 217.08 547.546 217.452 548.478C218.012 548.478 218.385 548.478 218.757 548.478C219.876 548.105 221.181 547.733 222.3 547.174C224.723 546.056 227.333 545.124 229.198 543.074C231.808 540.279 234.977 538.229 238.519 536.738C239.638 536.179 240.756 535.62 242.061 534.875C243.18 534.316 244.112 533.57 245.231 533.011C246.349 532.452 247.654 531.521 249.332 532.266C248.959 532.825 248.773 533.384 248.4 533.757C247.468 534.688 246.349 535.62 245.417 536.552C242.061 539.906 238.333 542.701 234.418 545.124C232.367 546.428 230.503 547.733 229.57 550.155C229.198 551.273 229.384 551.832 230.689 551.832C231.621 551.832 232.367 551.46 233.299 551.273C236.468 550.528 239.451 548.851 242.061 546.801C246.163 543.447 250.264 540.092 254.739 537.297C258.467 535.061 262.196 532.825 266.111 530.589C269.094 528.912 272.077 527.235 275.433 526.303C276.365 526.117 276.738 525.371 276.551 524.439C276.178 523.321 275.992 522.017 275.619 520.899C274.128 516.613 272.636 512.141 271.145 507.855C270.399 505.618 269.28 503.569 267.975 501.705C267.416 500.96 266.67 500.587 265.738 500.587C263.874 500.587 261.823 500.401 259.959 500.587C258.094 500.96 256.417 500.773 254.552 500.587C250.824 500.401 247.095 500.587 243.366 500.401C240.383 500.401 237.401 500.028 234.231 500.401C231.621 500.773 228.825 501.333 226.774 503.01C223.791 505.246 220.808 507.482 218.198 510.091C214.283 514.19 210.554 518.476 206.826 522.762C203.656 526.303 201.046 530.216 198.809 534.502C198.436 535.434 197.691 536.366 198.064 537.67C199.741 536.738 201.233 535.993 202.724 534.875C208.504 530.962 213.91 526.303 219.317 521.644C221.927 519.408 224.723 517.545 228.079 516.427C229.384 516.054 230.316 516.24 231.062 517.172C230.13 517.917 229.198 518.849 228.265 519.594C225.096 522.203 221.927 524.812 218.944 527.607C215.775 530.589 212.978 533.943 210.368 537.484C209.249 538.974 208.69 540.652 208.317 542.515C208.877 542.515 209.063 542.515 209.436 542.329C214.656 540.092 219.13 536.738 223.791 533.57C226.588 531.521 229.384 529.657 232.367 527.794C232.74 527.421 234.231 526.862 235.723 527.421ZM341.802 168.705C341.802 168.518 341.802 168.332 341.989 168.145C341.616 167.586 341.243 167.214 340.87 166.655C340.311 165.723 339.752 164.605 339.379 163.673C338.074 159.76 336.769 156.033 336.023 152.12C335.464 149.138 334.531 146.157 333.413 143.361C332.108 139.448 330.803 135.721 329.311 131.994C327.447 127.149 324.464 122.863 320.549 119.509C318.685 117.832 316.634 116.155 314.024 115.596C312.719 115.41 311.6 115.037 310.295 115.037C307.499 114.85 304.702 114.664 301.906 115.037C299.855 115.223 297.618 116.155 295.754 117.087C289.601 119.695 284.008 123.236 279.348 128.081C276.924 130.504 274.687 133.112 272.263 135.535C271.518 136.467 271.518 136.839 272.263 137.212C276.738 140.007 281.212 142.616 285.5 145.411C286.991 146.343 288.483 147.647 289.788 148.952C290.906 150.07 291.093 151.374 290.161 152.865C289.229 154.17 288.296 155.66 287.551 156.965C286.991 157.896 286.991 158.083 287.924 158.642C288.856 159.201 289.788 159.574 290.72 160.133C292.025 160.692 292.025 160.692 292.771 159.387C293.144 158.642 293.516 157.896 294.076 157.151C294.635 156.406 295.008 155.288 296.127 155.101C297.245 154.915 298.55 154.915 299.669 155.474C300.228 155.66 300.601 155.847 301.16 156.033C303.211 156.592 305.448 156.965 307.499 157.524C310.668 158.455 313.651 159.574 316.82 160.692C320.922 161.996 324.651 163.86 328.006 166.282C329.125 167.027 329.684 167.959 329.498 169.264C329.498 169.636 329.684 170.009 329.684 170.382C333.599 169.45 337.701 169.077 341.802 168.705ZM177.37 163.3C176.437 163.673 175.692 164.046 175.132 164.419C171.217 166.841 168.421 170.382 165.624 173.922C164.133 175.972 162.455 177.649 159.659 177.276C158.354 177.09 157.608 176.531 156.862 175.227C155.744 172.99 155.557 170.382 155.184 168.145C154.625 165.35 154.252 162.369 153.693 159.574C153.32 158.083 152.947 156.406 152.574 154.915C152.015 153.051 151.642 151.002 151.083 149.138C150.337 146.157 149.778 143.175 148.846 140.194C148.1 137.585 147.168 134.976 146.422 132.367C145.49 129.385 144.558 126.404 143.625 123.422C143.253 122.304 142.507 121.186 141.948 120.255C141.202 119.323 141.015 119.323 140.27 120.255C139.524 121.186 139.151 122.304 138.965 123.422C138.778 127.522 138.965 131.622 139.71 135.721C139.897 136.653 140.083 137.771 140.456 138.703C141.015 140.753 141.761 142.989 142.134 145.039C142.693 147.647 143.253 150.256 144.371 152.679C144.93 153.797 145.303 154.915 145.676 156.033C146.049 157.896 146.422 159.76 146.795 161.623C147.354 164.605 148.286 167.586 148.659 170.754C149.032 173.55 149.032 176.531 149.032 179.326C149.032 180.817 148.286 181.749 146.981 182.494C144.93 183.612 142.693 183.24 140.456 182.494C140.456 183.053 140.27 183.612 140.27 183.985C140.27 184.917 140.456 185.662 140.27 186.594C140.27 187.898 139.524 189.016 138.405 189.762C137.1 190.507 135.795 190.507 134.304 190.321C134.117 191.252 133.931 191.998 133.931 192.743C133.558 194.979 132.253 196.47 129.83 196.843C127.779 197.402 125.914 196.843 123.864 195.911C124.05 196.656 124.237 197.029 124.423 197.402C127.219 201.874 129.83 206.16 132.626 210.632C133.558 211.937 134.304 213.428 135.422 214.359C136.914 215.664 138.778 216.782 140.456 217.9C141.575 218.645 142.88 219.018 144.371 218.645C147.168 218.086 149.964 217.341 152.761 216.968C156.116 216.409 159.286 215.477 162.455 214.359C163.201 214.173 163.574 213.8 163.574 213.055C163.76 211.75 164.133 210.632 164.319 209.328C164.692 206.533 165.252 203.551 165.624 200.756C165.624 200.57 165.624 200.383 165.624 200.011C165.997 197.588 166.37 195.166 166.743 192.93C166.929 191.439 167.116 189.762 167.675 188.271C169.167 184.171 170.844 180.072 172.522 176.158C173.641 173.363 175.319 170.754 176.437 167.959C177.37 166.468 178.115 165.164 177.37 163.3ZM278.788 243.988C279.161 244.734 279.161 245.106 279.534 245.479C281.958 249.765 284.568 254.051 286.619 258.523C288.11 261.505 289.229 264.859 290.161 268.027C291.279 271.754 292.025 275.667 292.957 279.581C293.703 282.935 295.008 286.289 296.313 289.457C297.059 290.948 297.804 292.438 299.482 293.184C301.533 294.116 303.77 294.488 305.821 293.743C310.109 292.066 314.024 289.643 317.007 285.916C318.871 283.68 320.549 281.071 322.227 278.649C324.651 275.295 326.515 271.568 327.447 267.468C327.82 265.977 327.82 264.3 327.447 262.809C326.515 259.082 325.769 255.169 325.583 251.256C325.583 250.51 325.583 249.951 325.396 249.206C325.023 245.479 324.651 241.752 325.21 238.025C325.21 237.653 325.023 237.28 325.023 236.721C324.651 236.721 324.091 236.907 323.905 237.094C322.227 238.025 320.736 239.143 319.058 240.075C314.956 242.125 311.041 243.988 306.567 244.734C303.957 245.106 301.16 245.665 298.364 245.852C296.313 246.038 294.076 245.852 291.839 245.852C288.856 245.852 286.059 245.293 283.263 244.734C281.771 244.547 280.466 244.361 278.788 243.988ZM237.773 496.301C230.503 493.133 223.232 489.965 216.147 486.797C208.877 483.63 201.792 480.275 194.521 476.921C193.03 480.275 191.725 483.257 190.233 486.425C189.301 488.475 188.183 490.524 187.25 492.574C186.505 494.438 185.759 496.301 185.2 498.165C184.081 501.146 183.149 504.314 182.217 507.296C181.658 508.973 181.098 510.65 179.793 512.141C178.302 513.818 178.488 514.004 180.539 514.936C185.013 517.172 189.674 519.594 194.148 521.831C195.081 522.39 196.199 522.949 197.131 523.321C199.182 520.712 201.046 518.29 202.911 515.867C206.826 511.022 210.927 506.55 216.147 503.01C219.876 500.401 223.978 499.096 228.452 498.165C231.062 497.606 233.672 497.606 236.282 497.419C236.841 497.233 237.587 497.419 237.773 496.301ZM332.481 272.686C331.176 273.058 331.362 274.176 331.176 274.922C328.566 280.512 325.21 285.73 320.736 289.83C317.566 292.811 313.838 294.861 309.736 295.979C308.804 296.165 308.617 296.724 308.99 297.47C310.855 300.451 311.787 303.619 312.719 306.973C313.838 310.7 314.956 314.614 314.77 318.527C314.77 318.713 314.956 318.9 315.143 319.272C315.329 319.086 315.515 318.9 315.702 318.9C316.634 317.968 317.38 316.85 318.312 315.918C322.786 310.7 325.956 304.924 328.939 298.961C330.43 295.793 331.921 292.438 333.599 289.457C334.904 287.407 335.091 285.357 334.345 283.121C333.972 281.63 333.786 279.953 333.413 278.462C333.226 276.226 332.854 274.549 332.481 272.686ZM285.314 280.512C285.127 281.071 284.941 281.258 284.941 281.63C284.941 286.289 284.754 290.948 285.127 295.606C285.5 300.265 286.246 304.737 286.805 309.396C287.178 312.005 287.737 314.427 288.296 317.036C288.296 317.222 288.669 317.595 288.856 317.781C289.042 317.595 289.415 317.222 289.601 317.036C289.788 316.663 289.788 316.104 289.788 315.545C290.906 312.564 291.839 309.582 292.957 306.787C294.262 303.619 295.754 300.638 298.55 298.588C299.109 298.215 299.669 297.656 300.414 296.911C299.669 296.724 298.923 296.352 298.364 296.165C297.432 295.793 296.313 295.793 295.381 295.42C293.33 294.675 291.466 293.556 290.347 291.693C289.229 289.83 288.296 287.966 287.364 286.103C286.805 284.053 286.059 282.376 285.314 280.512ZM133.372 146.716C132.253 147.461 131.88 148.579 131.694 149.697C131.694 152.306 131.507 154.729 131.694 157.337C131.88 159.387 132.44 161.437 133.745 163.114C135.236 164.978 136.355 167.214 137.1 169.45C137.66 171.686 138.405 173.736 138.965 175.972C139.151 176.717 139.338 177.463 139.897 177.835C140.643 178.767 141.575 179.326 142.507 180.072C142.88 180.444 143.625 180.631 144.185 180.631C144.371 180.631 144.558 179.885 144.744 179.326C144.744 178.767 144.93 178.208 144.744 177.649C144.371 175.786 144.185 174.109 143.812 172.245C143.253 169.636 143.066 166.841 142.32 164.419C141.388 160.692 140.083 157.151 138.405 153.61C137.1 151.002 135.795 148.579 133.372 146.716ZM135.795 188.644C135.982 187.712 136.168 186.78 135.982 186.035C135.982 184.73 135.795 183.426 135.609 182.308C134.677 178.208 133.931 174.109 132.44 170.195C130.762 165.909 128.338 162.182 125.355 158.642C124.609 157.896 124.237 157.896 123.864 159.015C123.118 160.878 122.932 162.741 123.304 164.791C123.677 166.655 124.05 168.518 125.169 170.195C127.406 173.55 129.27 177.09 131.135 180.817C132.253 182.867 132.999 185.103 133.745 187.153C134.117 188.457 133.931 188.457 135.795 188.644ZM128.152 193.675C128.338 193.302 128.525 193.302 128.525 193.116C128.525 192.93 128.525 192.557 128.711 192.37C128.897 189.016 128.338 185.848 127.033 182.68C125.169 178.022 123.118 173.55 121.254 168.891C120.508 167.027 118.83 166.468 117.339 165.909C117.152 165.909 116.966 165.909 116.593 165.909C116.406 166.468 116.034 167.027 116.034 167.586C115.847 170.382 116.22 172.99 116.966 175.599C117.525 177.276 118.457 178.954 119.389 180.631C121.627 184.917 124.237 188.83 127.219 192.557C127.406 192.93 127.779 193.302 128.152 193.675ZM231.994 490.524C234.791 492.202 237.401 493.692 240.011 495.369C240.57 495.742 241.129 496.301 241.502 496.86C241.875 497.419 242.248 497.606 242.807 497.606C245.79 497.792 248.959 497.792 251.942 498.351C254.179 498.724 255.671 497.978 256.603 495.928V495.742C256.603 495.556 256.603 495.369 256.417 495.369C255.857 495.183 255.298 494.81 254.552 494.624C252.315 493.692 250.264 492.947 248.027 492.015C246.722 491.456 245.231 491.083 243.926 490.524C241.129 489.22 238.333 488.847 235.35 489.034C234.045 489.034 232.74 489.034 231.994 490.524ZM375.36 200.942C377.411 200.197 377.97 198.52 378.156 196.656C377.038 197.775 376.106 198.893 375.174 200.011C375.174 200.383 375.36 200.57 375.36 200.942Z" fill="black"/>
<path d="M198.623 108.515C196.572 107.397 194.708 106.092 192.657 105.16C190.606 104.042 189.86 101.806 188.742 99.9427C188.555 99.57 188.555 99.3837 188.369 99.011C187.064 97.1475 185.945 95.284 184.64 93.6069C184.268 93.0479 183.708 92.4888 183.149 92.1161C181.285 90.439 179.42 88.7619 177.37 87.2711C175.505 85.7804 174.387 83.7306 173.454 81.4944C173.082 80.5627 172.522 79.8173 172.149 78.8856C171.777 77.7675 171.404 76.4631 171.031 75.345C170.285 72.1771 169.726 68.8229 170.099 65.655C170.285 63.6052 171.031 61.5554 171.777 59.6919C173.082 55.5923 175.132 51.8654 177.556 48.5111C178.675 47.0204 180.166 45.9023 181.657 44.5979C183.522 43.1071 185.573 41.989 187.81 41.2436C189.488 40.8709 191.166 40.4982 192.843 40.3119C193.962 40.1256 194.894 39.9392 196.013 39.9392C197.318 39.9392 198.436 40.1256 199.741 40.3119C202.165 40.6846 204.589 40.8709 206.826 41.6163C209.622 42.5481 212.419 43.6661 214.656 45.7159C216.707 47.5794 219.13 49.0702 220.995 51.12C223.045 53.1698 224.164 55.7786 225.096 58.5738C225.282 58.9465 225.282 59.1329 225.469 59.5056C225.842 60.6236 226.215 61.7417 226.401 63.0461C226.588 65.2823 226.774 67.5184 226.96 69.7546C227.147 71.4317 226.588 72.7361 226.215 74.2269C225.655 76.4631 225.096 78.6992 224.35 81.1217C223.977 82.4261 223.791 83.7306 223.418 85.035C223.045 86.5258 222.859 88.0165 223.605 89.5073C223.791 89.6936 223.791 90.2527 223.605 90.439C223.045 91.3708 223.232 92.3025 223.418 93.2342C223.977 95.8431 223.605 98.2656 221.927 100.315C220.808 101.806 220.995 101.806 221.74 103.297C222.672 104.788 222.672 106.465 221.74 107.956C221.367 108.515 221.181 109.26 220.995 109.819C220.622 111.496 220.249 113.36 219.876 115.037C219.876 115.223 219.69 115.596 219.876 115.596C220.622 117.273 219.69 118.391 218.944 119.695C218.571 120.441 218.198 121.186 218.012 122.118C217.639 123.236 216.334 124.354 215.029 124.354C213.91 124.168 212.792 123.981 212.046 123.05C211.859 122.863 211.859 122.677 211.673 122.677C209.249 122.118 208.317 119.509 206.266 118.391C205.334 117.832 204.589 116.341 203.47 115.596C202.911 115.223 202.538 114.85 201.979 114.664C198.996 112.801 198.25 112.242 198.623 108.515ZM173.082 68.2638C172.709 70.8727 173.454 73.1088 174.2 75.345C174.76 76.8358 175.319 78.1402 176.065 79.631C177.183 81.8671 178.115 84.1033 180.166 85.594C180.912 86.1531 181.657 86.8984 182.217 87.6438C183.149 88.9483 184.454 90.0663 185.759 90.9981C186.691 91.7435 187.81 92.6752 188.555 93.7933C190.047 95.8431 191.165 98.0792 192.471 99.9427C193.403 101.247 193.962 102.738 195.453 103.483C195.64 103.67 196.013 103.856 196.013 104.042C196.572 104.974 197.318 105.347 198.25 105.533C199.741 105.906 201.419 106.278 202.911 106.651C204.589 107.024 204.961 106.651 204.775 104.974C204.775 104.601 204.775 104.229 204.589 104.042C204.029 102.365 203.284 100.502 202.724 98.8246C201.792 96.2158 200.86 93.7933 200.114 91.1844C199.741 90.2527 199.368 89.321 198.623 88.3892C198.063 87.8302 197.691 87.2711 197.504 86.5258C196.572 84.476 196.199 84.2896 193.962 84.1033C191.725 84.1033 189.488 83.3579 187.623 82.0534C186.878 81.4944 186.691 80.749 186.878 80.0036C187.25 79.2583 187.623 78.3265 188.555 78.3265C190.047 78.1402 191.352 78.1402 192.657 78.8856C194.148 79.631 195.64 80.3763 196.945 81.6808C197.691 82.4261 198.436 82.4261 199.182 82.2398C200.301 81.8671 201.606 81.4944 202.724 80.9354C203.843 80.3763 203.843 80.0036 203.47 78.8856C203.47 78.6992 203.284 78.5129 203.284 78.5129C203.47 76.8358 203.47 75.1586 203.656 73.2952C203.656 72.5498 204.029 71.8044 204.589 71.2454C205.707 69.7546 207.012 68.2638 209.249 68.0775C210.554 68.0775 212.792 68.8229 212.978 69.9409C213.351 71.6181 213.537 73.2952 212.605 74.7859C211.673 76.4631 210.554 77.9538 208.69 79.0719C206.826 80.19 206.453 81.6808 207.199 83.7306C207.385 84.2896 207.571 84.8486 207.571 85.2213C207.944 87.6438 208.131 89.88 208.877 92.1161C209.436 93.7933 209.995 95.4704 210.554 97.3338C211.114 98.8246 211.673 100.129 212.232 101.62C212.792 103.111 213.351 103.297 214.469 102.365C215.588 101.62 216.52 100.688 217.639 99.7563C219.69 98.0792 220.249 95.8431 220.062 93.4206C219.876 91.7435 219.69 90.0663 219.503 88.3892C219.317 84.8486 219.13 81.1217 220.808 77.7675C221.367 76.6494 221.554 75.345 221.927 74.0406C222.113 73.2952 222.672 72.3634 222.672 71.6181C222.672 67.1458 222.859 62.8598 221.554 58.5738C220.808 55.7786 219.13 53.7288 217.079 52.0517C215.029 50.3746 212.605 49.2565 210.554 47.3931C210.368 47.2067 209.995 47.2067 209.809 47.0204C207.199 45.9023 204.589 44.5979 201.792 44.0388C199.741 43.6661 197.877 43.1071 195.826 43.1071C193.403 43.1071 190.793 43.4798 188.369 43.8525C187.437 44.0388 186.691 44.4115 185.945 44.7842C184.454 45.7159 182.963 46.6477 181.471 47.5794C180.725 47.9521 180.166 48.5111 179.607 49.0702C177.556 51.679 176.065 54.4742 174.76 57.4558C174.014 59.1329 174.014 60.81 173.268 62.4871C173.268 64.7233 172.709 66.4004 173.082 68.2638ZM212.046 104.601C211.859 104.229 211.859 104.042 211.673 103.67C210.554 101.806 209.436 99.9427 208.504 97.8929C207.758 96.2158 207.199 94.3523 206.639 92.4888C206.08 90.9981 205.707 89.321 205.334 87.8302C204.961 86.3394 204.775 84.8486 204.589 83.3579C204.402 82.6125 204.029 82.2398 203.284 82.4261C201.979 82.7988 200.674 83.3579 199.368 83.7306C199.368 84.6623 199.928 85.4077 200.487 86.1531C201.233 87.2711 202.165 88.2029 202.538 89.321C204.029 92.6752 205.148 96.0294 206.08 99.3836C206.639 101.62 206.826 103.856 207.199 106.278C209.063 106.651 210.554 105.906 212.046 104.601ZM201.046 108.887C200.674 110.937 201.233 111.869 202.538 112.428C203.843 112.987 205.148 113.919 206.639 113.546C207.758 113.36 208.69 112.987 209.809 112.614C210.927 112.242 211.859 111.31 212.978 111.31C215.588 110.937 217.266 109.074 218.944 107.583C219.69 106.837 219.69 105.347 220.062 104.229C220.062 104.042 219.69 103.67 219.503 103.297C217.452 104.415 216.334 106.465 214.097 107.21C211.859 108.142 209.622 109.074 207.199 109.074C206.826 109.074 206.266 109.446 205.894 109.446C204.029 109.26 202.538 109.074 201.046 108.887ZM207.012 78.1402C209.436 77.2085 209.809 75.1586 210.554 73.2952C211.114 71.9908 210.368 70.8727 209.809 69.7546C207.385 70.6863 206.266 74.2269 207.012 78.1402ZM207.571 116.9C207.571 117.087 207.571 117.273 207.571 117.273C208.504 118.205 209.436 118.764 210.741 118.577C212.792 118.205 214.656 117.273 216.334 116.155C216.707 115.782 217.639 115.409 217.266 114.478C215.215 115.596 213.164 116.155 210.927 116.341C209.622 116.528 208.69 116.714 207.571 116.9ZM209.809 119.509C211.3 121 212.792 121.559 214.469 120.627C215.774 119.882 217.452 119.509 217.639 117.273C215.029 118.764 212.605 119.509 209.809 119.509ZM206.266 115.223C209.249 116.341 215.215 114.478 217.266 111.683C213.724 113.36 209.995 114.291 206.266 115.223ZM194.521 82.9852C194.148 82.4261 193.962 82.0534 193.776 81.6808C193.216 81.1217 192.471 80.5627 191.725 80.0036C191.165 79.631 190.606 79.4446 190.047 79.8173C189.488 80.3763 189.86 81.1217 190.233 81.4944C191.352 82.7988 192.471 83.5442 194.521 82.9852ZM213.724 122.491C215.402 123.05 215.402 123.05 215.588 121.745C214.656 121.372 214.097 121.559 213.724 122.491Z" fill="black"/>
<path d="M161.896 57.642C159.845 58.5738 157.981 59.3191 155.743 58.7601C155.184 58.5738 154.811 58.5738 154.252 58.5738C151.269 58.3874 149.032 57.083 146.981 54.8468C146.049 53.7288 146.235 52.6107 147.354 52.0516C149.591 50.7472 151.828 50.3745 154.252 51.4926C157.048 52.797 159.286 54.2878 161.15 56.7103C161.523 56.8966 161.523 57.083 161.896 57.642Z" fill="black"/>
<path d="M166.37 87.2711C165.252 90.2526 163.947 92.8615 160.777 93.9796C158.54 94.9113 156.116 95.284 153.693 94.1659C152.015 93.4205 151.828 92.3024 152.761 90.8117C153.693 89.5072 155.184 88.7619 156.489 88.2028C158.354 87.4574 160.218 86.8984 162.082 86.3394C163.574 86.3394 164.879 86.3394 166.37 87.2711Z" fill="black"/>
<path d="M235.536 55.2195C234.977 55.0332 234.231 55.0332 233.485 54.6605C232.553 54.2878 232.553 53.7287 232.926 52.797C233.672 51.1199 234.977 50.0018 236.655 48.8837C239.265 47.2066 241.875 46.2749 244.858 47.0203C245.044 47.0203 245.417 47.2066 245.603 47.2066C247.095 47.7657 247.095 48.6974 245.976 49.8155C243.553 52.0516 240.756 53.7287 237.773 54.8468C237.214 55.2195 236.468 55.2195 235.536 55.2195Z" fill="black"/>
<path d="M179.98 107.397C180.725 107.397 181.285 107.397 182.03 107.583C183.335 107.769 184.081 108.887 183.522 110.192C182.776 111.869 181.844 113.546 180.352 114.664C179.42 115.596 178.488 116.528 177.37 117.459C176.437 118.205 174.946 118.018 174.2 117.087C174.014 116.9 173.827 116.714 173.827 116.528C173.827 115.037 173.268 113.36 174.2 111.869C174.573 111.123 174.759 110.564 175.319 109.819C176.251 108.142 177.742 107.21 179.98 107.397Z" fill="black"/>
<path d="M226.588 21.6773C226.588 22.05 226.588 22.7954 226.215 23.1681C225.469 24.2862 225.469 25.5906 225.096 26.895C224.723 28.3858 224.164 29.6902 223.418 31.181C222.859 32.299 221.927 33.4171 220.995 34.5352C220.249 35.4669 219.503 36.2123 218.012 35.6533C218.012 35.0942 218.012 34.7215 218.198 34.1625C218.757 31.9263 219.317 29.6902 219.876 27.454C220.062 26.7087 220.062 25.9633 220.062 25.2179C220.249 21.6773 223.605 20.1865 226.588 21.6773Z" fill="black"/>
<path d="M186.691 33.9761C185.946 33.0444 185.573 32.299 185.013 31.5536C183.149 28.572 182.03 25.4042 181.098 22.2363C180.912 21.3045 181.098 20.7455 181.844 20.3728C182.776 19.8138 184.268 20.0001 185.013 20.9318C187.251 23.168 188.928 25.7768 188.928 28.9447C188.928 30.6219 188.183 32.4853 186.691 33.9761Z" fill="black"/>
<path d="M241.316 88.9482C243.926 88.9482 246.163 89.5073 248.4 90.8117C249.146 91.1844 249.332 91.9298 249.332 92.6752C249.332 93.4205 248.4 93.4205 247.841 93.6069C246.163 94.1659 244.485 94.3523 242.621 94.1659C240.943 93.9796 239.265 93.6069 237.587 92.6752C237.028 92.4888 236.655 92.1161 236.282 91.5571C235.536 90.6254 235.723 89.6936 237.028 89.5073C238.333 89.3209 239.824 89.1346 241.316 88.9482Z" fill="black"/>
<path d="M239.451 358.032L239.265 357.846C239.451 357.846 239.451 357.846 239.638 357.659C239.638 357.846 239.638 357.846 239.638 357.846C239.638 358.032 239.638 358.032 239.451 358.032Z" fill="black"/>
<path d="M262.755 204.483C263.501 204.669 264.247 204.856 265.179 204.856C266.297 205.042 267.603 205.042 268.721 205.228C273.382 205.787 278.043 205.974 282.517 205.601C284.381 205.415 286.246 204.856 288.11 204.669C289.974 204.297 291.652 204.11 293.517 203.738C296.127 203.179 298.55 202.619 301.16 202.06C302.465 201.874 303.77 201.688 305.075 201.688C305.448 201.688 305.821 202.06 306.194 202.247C306.007 202.619 305.821 202.992 305.635 203.365C303.025 205.228 300.414 207.278 297.804 209.142C296.127 210.446 294.262 211.75 292.398 212.682C289.601 214.173 286.619 215.105 283.636 216.036C281.026 216.782 278.416 216.782 275.806 216.409C273.568 216.223 271.331 215.85 269.84 213.8C267.789 211.378 265.552 208.955 263.315 206.719C262.942 206.346 262.755 205.601 262.382 205.042C262.569 204.669 262.569 204.483 262.755 204.483ZM270.026 208.21L269.84 208.396C271.331 209.887 272.823 211.378 274.314 212.869C274.687 213.241 275.246 213.241 275.619 213.241C277.111 213.055 278.602 213.055 279.907 212.496C281.958 211.75 284.009 211.005 286.059 210.073C286.432 209.887 286.805 209.514 287.178 209.142C281.585 208.955 275.806 208.583 270.026 208.21Z" fill="black"/>
<path d="M353.361 181.19C352.429 182.121 351.31 183.053 350.378 183.985C349.446 184.73 348.7 185.662 347.768 186.407C347.209 186.78 347.209 187.339 347.582 187.898C347.955 188.644 348.514 189.575 348.514 190.321C348.514 191.998 348.141 193.675 347.768 195.352C347.582 195.911 347.022 196.097 346.463 195.911C345.904 195.911 345.717 195.538 345.531 194.979C345.344 194.048 345.158 192.93 344.785 191.998C344.599 191.252 344.039 191.066 343.48 191.625C342.175 193.116 340.87 194.793 339.379 196.284C338.819 197.029 337.887 197.588 337.141 198.147C336.769 198.334 336.209 198.52 335.65 198.334C334.345 198.147 333.786 197.215 334.345 196.097C335.277 194.048 336.582 191.998 338.074 190.321C340.497 187.712 342.921 185.289 345.904 183.239C347.768 181.935 349.819 180.817 352.242 180.817C352.429 180.817 352.615 180.817 352.802 180.817C352.802 180.631 352.988 180.817 353.361 181.19Z" fill="black"/>
<path d="M264.992 148.393C266.111 147.647 266.857 147.647 268.162 147.834C271.704 148.579 273.382 151.374 275.06 153.983C275.619 154.728 275.805 155.66 275.992 156.592C276.178 158.269 275.433 159.014 273.755 158.455C272.636 158.083 271.518 157.524 270.585 156.778C268.348 155.101 266.857 152.679 265.552 150.256C264.992 149.697 265.179 148.952 264.992 148.393Z" fill="black"/>
<path d="M307.499 194.047C310.855 193.302 312.905 194.793 314.397 197.029C314.77 197.588 314.956 198.147 314.397 198.706C314.21 199.079 314.024 199.451 314.024 199.824C313.651 200.756 312.16 201.129 311.787 200.197C311.041 198.333 309.177 197.588 308.245 196.097C307.872 195.352 307.685 194.793 307.499 194.047Z" fill="black"/>
<path d="M321.295 149.138C317.38 150.442 314.21 148.02 312.905 144.852C312.16 142.802 311.6 140.566 311.041 138.33C310.668 136.839 311.787 135.535 313.465 135.535C314.77 135.535 315.888 135.721 316.261 137.212C316.261 137.398 316.821 137.771 317.193 137.771C319.617 138.33 320.922 139.821 321.668 142.243C322.227 144.479 322.227 146.715 321.295 149.138Z" fill="black"/>
<path d="M288.669 136.28C286.059 136.28 283.636 135.535 281.398 134.044C279.907 133.112 279.534 131.435 281.212 130.131C282.703 128.826 284.568 128.081 286.619 128.081C289.788 127.894 292.957 128.267 295.754 130.131C296.313 130.503 296.872 131.062 297.245 131.621C297.618 132.18 297.432 132.739 297.059 133.485C296.313 134.603 295.008 134.976 293.889 135.348C292.211 135.721 290.534 135.907 288.669 136.28Z" fill="black"/>
<path d="M197.318 483.443C199.555 483.629 201.233 484.375 202.351 486.238C202.911 487.17 202.724 488.102 202.538 489.034C202.538 489.406 201.979 489.779 201.606 489.965C199.182 490.897 196.758 490.338 194.894 489.034C192.657 487.543 193.03 484.934 195.64 484.002C196.199 483.816 196.945 483.629 197.318 483.443Z" fill="black"/>
</g>
<g clip-path="url(#clip1)">
<path d="M234.532 375.337C234.538 375.271 234.542 375.217 234.548 375.15C234.548 374.652 234.346 374.227 233.967 373.917C233.888 373.855 233.796 373.791 233.717 373.729C233.44 373.537 226.639 368.798 226.639 368.798C226.044 368.384 225.45 367.971 224.856 367.557L234.679 363.34C234.751 363.308 234.838 363.276 234.927 363.219C235.47 362.913 235.745 362.309 235.643 361.692C235.566 361.28 235.331 360.918 234.934 360.647C233.705 359.802 232.477 358.944 231.263 358.087L224.419 353.37C224.353 353.323 224.273 353.274 224.207 353.226C224.075 353.131 223.942 353.05 223.81 352.955C223.547 352.765 223.263 352.654 222.958 352.621C222.653 352.589 222.355 352.638 222.063 352.782C222.05 352.767 222.036 352.779 222.022 352.777L215.071 355.766C213.388 356.489 211.648 357.232 209.936 357.965C209.298 358.234 208.95 358.708 208.894 359.376C208.617 362.645 208.335 365.982 208.064 369.199L207.815 372.135C207.806 372.242 207.797 372.349 207.79 372.442C207.767 372.709 207.841 372.986 208 373.259C208.109 373.459 208.277 373.625 208.501 373.784C208.738 373.957 217.481 380.035 217.481 380.035C216.089 380.627 207.746 384.208 207.746 384.208C207.66 384.239 207.572 384.284 207.469 384.34C207.016 384.574 206.713 385.013 206.671 385.521C206.628 386.028 206.852 386.523 207.271 386.851C207.325 386.883 207.363 386.928 207.416 386.96L217.348 393.865L217.704 394.119C217.981 394.31 218.259 394.501 218.522 394.691C218.786 394.881 219.07 394.992 219.361 395.023C219.666 395.056 219.95 395.005 220.241 394.875L220.298 394.854L232.065 389.807L232.181 389.752C232.312 389.699 232.428 389.644 232.559 389.591C233.039 389.372 233.339 388.96 233.412 388.429C233.416 388.376 233.42 388.336 233.424 388.282L234.532 375.337ZM222.398 377.948C222.621 375.305 222.845 372.662 223.068 370.019C223.187 370.1 229.87 374.745 229.87 374.745C229.668 374.818 222.398 377.948 222.398 377.948ZM228.746 387.877L221.288 391.081C221.512 388.438 221.735 385.795 221.957 383.166C222.209 383.328 228.746 387.877 228.746 387.877ZM223.744 380.717C226.225 379.649 228.707 378.581 231.187 377.526C230.964 380.168 230.741 382.798 230.518 385.44C230.348 385.301 225.54 381.973 223.744 380.717ZM224.165 356.871C226.437 358.447 228.695 360.021 230.967 361.597C228.471 362.664 225.99 363.732 223.495 364.799L224.165 356.871ZM219.267 377.6C217.535 376.418 214.155 374.064 212.464 372.887C214.959 371.82 217.456 370.74 219.951 369.673C219.797 371.663 219.45 375.599 219.267 377.6ZM213.589 359.742C216.084 358.675 218.565 357.607 221.047 356.538C220.823 359.181 220.6 361.824 220.377 364.466C218.119 362.892 215.861 361.318 213.589 359.742ZM211.817 362.179C211.843 362.195 218.605 366.903 218.605 366.903C216.11 367.97 213.628 369.039 211.133 370.106C211.285 368.142 211.633 364.193 211.817 362.179ZM218.169 390.761C216.492 389.599 213.098 387.23 211.382 386.024C211.411 386.013 218.825 382.832 218.825 382.832C218.669 384.849 218.335 388.799 218.169 390.761Z" fill="black"/>
</g>
<defs>
<clipPath id="clip0">
<rect width="349" height="535" fill="white" transform="translate(111 20)"/>
</clipPath>
<clipPath id="clip1">
<rect width="26.8977" height="42.5943" fill="white" transform="matrix(0.99435 0.10615 -0.0841894 0.99645 209.586 351.18)"/>
</clipPath>
</defs>
</svg>
