<svg width="60" height="60" viewBox="0 0 60 60" fill="none" xmlns="http://www.w3.org/2000/svg">
<path d="M45.7258 49.3546C53.7984 47.7835 58.7903 43.7266 58.7903 29.9998C58.7903 18.3868 42.5806 0.725488 27.5806 0.725586C8.42686 0.725711 21.5322 14.5159 13.0645 19.5965C5.71216 24.0079 -2.28882e-05 24.911 -2.28882e-05 37.0161C-2.28882e-05 50.3705 5.85675 54.2877 13.0645 51.7739C20.2722 49.2602 19.4415 59.032 29.2742 59.032C40.3633 59.032 37.6531 50.9257 45.7258 49.3546Z" fill="#F2F8F1"/>
<g clip-path="url(#clip0)">
<path d="M44.1009 37.9181C44.0739 38.1878 44.0739 38.4305 44.0739 38.6463C44.0739 39.6713 44.1009 40.7232 44.0739 41.7481C44.0468 42.5842 43.9387 43.4474 43.8305 44.2835C43.7494 45.0657 43.6412 45.8479 43.5331 46.738C44.6687 46.657 45.7233 46.5761 46.7778 46.5491C47.8323 46.5222 48.8868 46.5491 49.8602 46.5491C49.9684 46.4952 49.9954 46.4952 49.9954 46.4682C50.5633 44.6881 52.0234 44.1756 53.6457 44.0947C55.214 44.0138 56.6471 44.4723 57.8639 45.4972C58.1613 45.767 58.4046 46.1446 58.5939 46.5222C58.7291 46.7919 58.3776 47.2774 58.0802 47.3044C57.8639 47.3313 57.6475 47.3313 57.4312 47.3313C56.9986 48.3023 56.2415 48.7609 55.2951 48.9497C54.9436 49.0306 54.5921 49.1924 54.2676 49.1654C53.159 49.0845 52.0504 48.9497 51.05 48.3833C50.8877 48.3023 50.6985 48.1675 50.5903 48.0326C50.2658 47.6011 49.8602 47.5201 49.3465 47.5201C46.8048 47.5471 44.2631 47.5741 41.7214 47.6011C41.4511 47.6011 41.1807 47.5741 40.8292 47.5471C40.9373 47.3313 40.9914 47.1156 41.0725 47.1156C41.4781 47.0616 41.4781 46.7649 41.4781 46.4682C41.4511 45.4703 41.5592 44.4723 41.3699 43.5013C41.0455 41.829 41.2618 40.1568 41.1807 38.4845C41.1807 38.3226 41.1266 38.1338 41.0995 38.026C40.4506 38.0529 39.8828 38.0799 39.315 38.0799C37.8008 38.1069 36.2866 38.1338 34.7994 38.1608C34.1775 38.1608 34.0694 38.3226 34.2586 38.8891C34.3127 39.1048 34.3668 39.3206 34.3668 39.5364C34.3668 41.4244 34.3938 43.3125 34.3668 45.2005C34.3397 45.9558 34.2316 46.711 34.1234 47.4392C33.9882 48.4642 33.826 49.4891 33.6638 50.541C33.6097 50.9186 33.6097 51.2962 33.5556 51.6739C33.5015 52.0784 33.799 52.2672 34.0694 52.456C34.7453 52.8876 35.0428 53.481 34.8805 54.1553C34.4749 55.6657 33.799 56.9065 32.1225 57.365C30.5813 57.7696 29.0941 57.7156 27.6881 57.0143C26.7147 56.5288 25.8494 54.8835 26.6065 53.5619C27.1203 52.6718 27.7692 52.0515 28.7967 51.8896C28.9589 51.8627 29.1212 51.8087 29.2564 51.7278C29.7431 51.4581 30.2568 51.3502 30.8246 51.4311C30.9058 51.4311 30.9869 51.4041 31.095 51.3772C31.1221 51.2962 31.1762 51.2423 31.1762 51.1884C31.068 50.4601 30.9869 49.7319 30.8246 49.0306C30.6354 48.2214 30.6895 47.4392 30.7976 46.657C30.8246 46.3603 30.9328 46.0906 30.9328 45.7939C30.9328 43.9328 30.9328 42.0718 30.9328 40.2107C30.9328 39.7522 31.0139 39.2936 31.041 38.7812C30.9869 38.7542 30.8787 38.7003 30.7435 38.7003C29.8512 38.7003 28.9319 38.6193 28.0396 38.7812C26.5795 39.0239 25.1464 38.943 23.6863 38.9969C23.6052 38.9969 23.5241 39.0509 23.3889 39.0779C23.3618 39.6173 23.3889 40.1837 23.3348 40.7501C23.1996 41.856 22.9833 42.9349 22.821 44.0407C22.7129 44.769 22.1451 45.0117 21.2798 45.2005C20.4146 45.3624 19.4682 45.3084 18.63 45.5512C17.4132 45.8748 16.1694 45.6591 14.9526 45.74C14.6282 45.767 14.3037 45.686 13.8711 45.6591C13.7899 45.8479 13.6548 46.1176 13.6277 46.3873C13.5736 46.8189 13.3573 47.1156 13.0599 47.3313C12.5191 47.709 11.9513 47.9787 11.2483 47.9517C10.5182 47.8978 9.78814 47.9517 9.05809 47.682C8.32803 47.4123 7.35462 46.4682 7.46277 45.8209C7.59797 45.0387 7.7602 44.2026 8.5173 43.6901C9.81518 42.8 11.2212 42.7191 12.6813 43.2316C13.4384 43.5013 14.0333 43.9059 14.2496 44.715C14.2767 44.8229 14.3848 44.8769 14.4659 44.9848C15.1689 44.6611 15.926 44.796 16.6561 44.715C17.251 44.6611 17.8458 44.742 18.4407 44.5262C18.7652 44.4183 19.1437 44.4993 19.5223 44.4723C19.7656 44.4723 20.009 44.4723 20.3064 44.4723C20.3334 44.2565 20.3605 44.0677 20.3605 43.9059C20.3875 42.7191 20.3875 41.5323 20.4146 40.3456C20.4146 40.3186 20.4146 40.2916 20.4146 40.2916C20.3605 38.8081 20.3875 39.0779 19.2248 39.0509C18.8463 39.0509 18.4677 39.0779 18.0892 39.0509C17.6566 39.0239 17.2239 38.916 16.7643 38.8621C16.7102 38.8621 16.6831 38.8351 16.6291 38.8351C15.5745 38.7272 14.52 38.6463 13.4925 38.5114C12.8165 38.4305 12.1676 38.3226 11.5187 38.1608C10.2478 37.8102 9.03105 37.3516 7.7602 36.974C6.62456 36.6234 5.59707 36.057 4.62366 35.3557C3.78544 34.7623 2.94722 34.1689 2.21717 33.4677C1.24376 32.5506 0.784089 31.3099 0.40554 30.0422C0.108108 29.0442 0.0810692 28.0463 0.216265 27.0483C0.243304 25.5918 0.702971 24.378 1.51415 23.2992C2.78499 21.546 4.54254 20.521 6.57048 19.8737C7.43573 19.604 8.30099 19.4691 9.22032 19.55C9.46367 19.577 9.70703 19.55 10.0045 19.55C9.97742 19.3612 9.97742 19.2533 9.92334 19.1455C9.00401 17.608 8.92289 15.9627 9.16624 14.2365C9.4096 12.5103 10.356 11.1887 11.5998 10.0558C12.7625 9.00393 14.0874 8.22173 15.6557 7.89807C16.1694 7.79018 16.7102 7.70926 17.2239 7.62835C17.7377 7.54743 18.2785 7.35863 18.7922 7.41257C20.063 7.5744 21.3609 7.60138 22.6047 8.03293C23.2807 8.27568 23.9567 8.46448 24.6327 8.70723C24.9301 8.81512 25.1735 8.97695 25.4709 9.13879C25.8494 9.32759 26.0928 9.27365 26.2009 8.89604C26.8228 7.0889 27.9315 5.60544 29.2834 4.2838C30.3109 3.28583 31.4736 2.50364 32.8255 2.07209C33.826 1.77539 34.8805 1.45173 35.9621 1.45173C37.5304 1.45173 39.1257 1.42476 40.694 1.53264C41.5863 1.58659 42.5056 1.82934 43.3708 2.09906C44.8039 2.53061 46.1829 3.124 47.4808 3.85225C48.9139 4.66141 50.1306 5.71333 51.077 7.0889C51.9152 8.32962 52.3749 9.67823 52.7534 11.1078C53.0238 12.0788 52.9968 13.0228 52.8886 13.9668C52.7805 14.8299 52.3749 15.666 52.0504 16.4752C51.8612 16.9337 51.8341 16.9607 52.2938 17.1495C53.6457 17.7429 54.9707 18.3363 56.1333 19.2803C56.9986 20.0086 57.7557 20.8717 58.4587 21.7618C59.0536 22.517 59.351 23.3801 59.6755 24.2702C59.6755 24.2971 59.7025 24.3241 59.7025 24.3241C59.7836 25.376 60.1622 26.4279 59.9999 27.5068C59.7025 29.5297 59.0536 31.3908 57.7827 33.0631C56.6471 34.5735 55.214 35.6254 53.4294 36.2458C52.3479 36.6234 51.2663 36.9471 50.1847 37.2438C49.5358 37.4056 48.8328 37.4865 48.1568 37.5405C46.8048 37.6753 45.5069 37.7832 44.1009 37.9181ZM47.3456 16.637C47.3997 16.5561 47.3997 16.5292 47.3997 16.5292C47.5349 16.4482 47.6701 16.3673 47.7782 16.2594C47.9134 16.1246 48.0757 16.0167 48.1027 15.8549C48.319 14.6681 48.8057 13.5352 48.4272 12.2676C48.2379 11.5663 48.1297 10.838 47.8864 10.1368C47.1834 8.00596 45.9396 6.27974 44.0468 5.01205C42.4245 3.96014 40.694 3.25886 38.7742 3.07006C36.8274 2.88125 34.9887 3.23189 33.3663 4.41866C32.2577 5.22783 31.2843 6.19882 30.4191 7.27771C29.3105 8.65329 28.6345 10.2446 27.9315 11.809C27.8233 12.0788 27.8774 12.4294 27.9315 12.7261C27.9855 12.9958 28.1748 13.2386 28.2559 13.5352C28.4722 14.2365 28.8508 14.9648 28.2018 15.72C28.1478 15.72 28.0396 15.7739 27.9315 15.747C27.607 15.666 27.3096 15.5042 26.9851 15.4772C26.1739 15.4503 25.8494 14.9378 25.6872 14.2635C25.4709 13.4813 25.2546 12.6991 24.6327 12.1057C24.3893 11.863 24.146 11.5933 23.9296 11.2966C23.3889 10.5683 22.6858 10.0289 21.7936 9.78612C21.3068 9.65126 20.8201 9.48943 20.3064 9.38154C18.8192 9.0309 17.4402 9.24668 16.2505 10.2716C15.6286 10.8111 15.0608 11.4044 14.52 12.0248C13.7629 12.9688 13.2221 14.0747 12.9788 15.2345C12.7895 16.2055 12.8165 17.2304 12.8436 18.2554C12.8436 18.8757 13.114 19.4691 13.4925 19.9816C13.8711 20.4941 13.7899 20.7098 13.141 20.8986C12.2758 21.1684 11.4375 21.2223 10.5452 21.0874C9.67999 20.9526 8.86881 21.0335 8.08467 21.519C7.03014 22.1933 6.19193 23.0025 5.48891 24.0544C4.54254 25.43 4.16399 26.9674 4.05583 28.5587C4.00175 29.26 4.21807 30.0152 4.43438 30.7165C4.62366 31.3369 4.83997 31.9842 5.24556 32.4697C6.19193 33.6565 7.40869 34.5196 8.76065 35.1669C10.5182 36.057 12.465 36.4616 14.3848 36.7852C15.4393 36.974 16.5209 37.001 17.6025 37.1089C17.7106 37.1089 17.8188 37.1359 17.9269 37.1898C18.684 37.4865 19.4682 37.2707 20.1982 37.3247C20.3334 36.3537 20.4416 35.4636 20.5497 34.6005C20.6579 33.8722 20.739 33.144 20.8472 32.4157C20.9283 31.9033 21.1446 31.7414 21.6854 31.7414C21.8206 31.7414 21.9558 31.7414 22.091 31.7414C22.6588 31.7414 22.7399 31.8224 22.9562 32.3618C23.2266 33.0091 23.2266 33.6834 23.2537 34.3308C23.2807 35.086 23.2537 35.8682 23.2807 36.6234C23.3077 37.3516 23.4159 37.4326 24.146 37.4056C25.9035 37.3786 27.6611 37.3516 29.4186 37.3516C29.9864 37.3516 30.5272 37.2438 31.068 36.9471C31.095 36.2188 31.1221 35.5175 31.1491 34.7893C31.1491 34.6005 31.1491 34.4387 31.1762 34.2499C31.3384 33.4946 31.5277 32.7394 31.6899 31.9842C31.7981 31.4987 32.0414 31.229 32.447 31.175C33.0959 31.1211 33.6638 31.3369 33.7719 31.8224C33.9071 32.3079 33.9882 32.8203 34.0153 33.3328C34.0694 34.088 34.0153 34.8702 34.0423 35.6254C34.0423 36.003 34.0964 36.3807 34.1234 36.8122C34.3668 36.8392 34.5831 36.8931 34.7994 36.8931C35.2591 36.8931 35.6917 36.8122 36.1514 36.8122C37.7737 36.8392 39.369 36.7852 40.9644 36.5425C40.9914 36.5425 41.0455 36.4885 41.1266 36.4346C41.1266 35.7603 41.1536 35.059 41.1266 34.3308C41.0995 33.6565 41.3159 33.0631 41.6944 32.5236C42.0189 32.0112 42.2622 31.9033 42.7489 32.0381C43.1816 32.146 43.5331 32.5506 43.479 33.0361C43.3979 34.088 43.6683 35.059 43.8035 36.084C43.8575 36.5155 44.0198 36.6504 44.4254 36.5964C45.2906 36.4616 46.1559 36.5695 47.0211 36.3807C48.0486 36.1649 49.1302 36.057 50.1577 35.8142C51.2122 35.5715 52.2127 35.1669 53.105 34.6005C53.5646 34.3038 53.9702 33.8992 54.2947 33.4407C55.1329 32.3079 55.6196 31.0671 55.8359 29.6646C56.1333 27.7226 55.917 25.8885 55.2411 24.0544C54.7003 22.5979 53.7539 21.4381 52.6453 20.4131C52.0775 19.9007 51.4015 19.4961 50.8066 19.0376C50.6173 19.2264 50.4821 19.3073 50.401 19.4152C49.7521 20.3322 49.022 21.1414 48.1568 21.8696C47.2374 22.6788 46.21 23.3801 45.1554 23.9735C44.3172 24.459 43.2627 24.3241 42.4785 23.6228C42.6678 23.434 42.8301 23.2452 43.0193 23.0834C43.3708 22.8137 43.7494 22.5979 44.0739 22.3012C45.534 21.0065 46.6426 19.4961 47.4267 17.7159C47.589 17.2844 47.643 16.9877 47.3456 16.637ZM31.8521 54.6408C31.9603 53.9935 31.7981 53.427 31.3384 52.9685C30.9058 52.51 30.0675 52.456 29.689 52.8876C28.8508 53.8586 28.8778 55.2342 29.716 56.1782C30.1216 56.6367 30.8246 56.6637 31.2573 56.2321C31.744 55.8006 32.0144 55.2881 31.8521 54.6408ZM54.8895 45.5242C53.9972 45.2545 53.9432 45.3893 53.5376 46.1446C53.4294 46.3873 53.4024 46.657 53.2942 46.8998C53.0779 47.4392 53.808 48.1945 54.2676 48.1405C54.3758 48.1135 54.538 48.0866 54.6191 48.0056C54.9977 47.628 55.0247 46.9268 54.7273 46.4682C54.6462 46.3334 54.5651 46.1985 54.511 46.0906C54.6192 45.9018 54.7273 45.74 54.8895 45.5242ZM10.9779 46.4952C11.1942 46.0097 11.4375 45.5512 11.5998 45.0927C11.6809 44.9038 11.735 44.6341 11.6538 44.4453C11.5998 44.2565 11.3835 44.0677 11.2212 44.0407C11.1131 44.0138 10.8968 44.2295 10.8156 44.3644C10.7075 44.5532 10.6264 44.769 10.5723 44.9848C10.4371 45.5242 10.4641 46.0367 10.9779 46.4952Z" fill="black"/>
</g>
<defs>
<clipPath id="clip0">
<rect width="60" height="56.129" fill="white" transform="translate(0 1.45166)"/>
</clipPath>
</defs>
</svg>
