<svg width="281" height="53" viewBox="0 0 281 53" fill="none" xmlns="http://www.w3.org/2000/svg">
<path d="M117.453 11.778L122.932 7.75H104.572V31.9769H122.932V27.9371H109.814V21.7302H121.007V17.7022H109.814V11.778H117.453Z" fill="#00A421"/>
<path d="M89.8019 27.9371H84.3472V21.2002H89.8019C93.1314 21.2002 94.6781 22.3191 94.6781 24.5569C94.6781 26.7947 93.037 27.9136 89.8019 27.9136V27.9371ZM90.7229 17.1722H84.3472V11.778H94.5246L100.003 7.75H79.105V31.9651H90.0381C96.1776 31.9651 99.696 29.1973 99.696 24.3567C99.696 19.7398 96.5081 17.1958 90.7229 17.1958" fill="#00A421"/>
<path d="M137.69 21.0824H133.05V11.778H137.69C141.055 11.778 142.861 13.4269 142.861 16.4891C142.861 19.5513 141.019 21.1413 137.655 21.1413L137.69 21.0824ZM137.773 7.80889H127.772V31.9651H133.015V25.1104H137.737C144.113 25.1104 148.08 21.7656 148.08 16.4184C148.08 11.0713 144.113 7.75 137.737 7.75" fill="#00A421"/>
<path d="M70.1083 26.7234C68.7254 27.4919 67.1694 27.8972 65.5863 27.9011C64.5153 27.9467 63.4464 27.7721 62.4459 27.388C61.4454 27.004 60.5349 26.4187 59.7708 25.6687C59.0067 24.9187 58.4055 24.0198 58.0044 23.0281C57.6034 22.0364 57.4112 20.973 57.4397 19.904C57.4112 18.8351 57.6034 17.7717 58.0044 16.7799C58.4055 15.7882 59.0067 14.8894 59.7708 14.1394C60.5349 13.3893 61.4454 12.8041 62.4459 12.42C63.4464 12.036 64.5153 11.8613 65.5863 11.9069C67.2774 11.8969 68.929 12.4159 70.309 13.3909L74.1108 10.5996L73.8628 10.3758C71.4931 8.39451 68.4762 7.35083 65.3856 7.44314C61.962 7.36526 58.6379 8.59556 56.0937 10.8823C54.9045 12.0277 53.9648 13.4053 53.333 14.9292C52.7013 16.453 52.3911 18.0904 52.4218 19.7391C52.3963 21.4036 52.7072 23.0562 53.336 24.5982C53.9649 26.1401 54.8988 27.5399 56.0819 28.7138C58.5871 31.0589 61.9157 32.3279 65.3502 32.2471C67.0748 32.306 68.7929 32.0078 70.3962 31.3713C71.9995 30.7348 73.4532 29.7738 74.6657 28.5489L71.2772 26.052L70.1083 26.7234Z" fill="#00A421"/>
<path d="M164.68 31.9653H160.335V7.71484H164.68V17.9026H168.328L176.144 7.71484H181.434L172.154 19.2571L182.922 31.9653H177.361L168.541 21.4713H164.68V31.9653Z" fill="#003B85"/>
<path d="M182.65 19.8103C182.63 18.0905 182.942 16.3829 183.571 14.7812C184.159 13.2947 185.052 11.9469 186.192 10.8239C187.366 9.69248 188.76 8.81444 190.289 8.24457C192.011 7.60977 193.837 7.29831 195.673 7.3259C197.489 7.30663 199.294 7.60151 201.009 8.19746C202.537 8.72736 203.936 9.56981 205.118 10.6708C206.291 11.7696 207.206 13.1128 207.798 14.6046C208.449 16.2828 208.769 18.0702 208.743 19.8692C208.763 21.5891 208.45 23.2967 207.822 24.8983C207.229 26.3856 206.333 27.7333 205.189 28.8557C204.013 29.9901 202.614 30.8684 201.08 31.435C199.361 32.066 197.54 32.3774 195.708 32.3537C193.894 32.3747 192.089 32.0879 190.372 31.5057C188.843 30.9847 187.442 30.1457 186.263 29.0441C185.102 27.9339 184.199 26.583 183.618 25.0868C182.961 23.4058 182.632 21.6147 182.65 19.8103ZM187.231 19.8103C187.221 20.9402 187.405 22.0635 187.774 23.1317C188.104 24.1622 188.651 25.1102 189.38 25.9112C190.134 26.6934 191.043 27.3111 192.048 27.725C193.21 28.194 194.455 28.4224 195.708 28.3963C196.919 28.4247 198.123 28.2125 199.25 27.7721C200.248 27.3779 201.15 26.7755 201.895 26.0055C202.648 25.2447 203.225 24.3279 203.583 23.3201C203.986 22.2062 204.186 21.0296 204.174 19.8457C204.182 18.7131 204.002 17.5869 203.642 16.5126C203.298 15.5109 202.747 14.5922 202.025 13.8155C201.277 13.0288 200.372 12.4069 199.368 11.9899C198.202 11.5222 196.953 11.2939 195.696 11.3186C194.486 11.2918 193.282 11.5039 192.154 11.9428C191.156 12.3318 190.251 12.9257 189.498 13.6859C188.758 14.4526 188.19 15.3681 187.833 16.3712C187.426 17.4842 187.222 18.6609 187.231 19.8457V19.8103Z" fill="#003B85"/>
<path d="M217.598 24.4157V31.9653H213.253V7.71484H221.352C225.194 7.71484 227.976 8.40188 229.7 9.77595C230.585 10.5261 231.282 11.4733 231.733 12.5412C232.184 13.6091 232.377 14.7678 232.297 15.924C232.383 17.1315 232.174 18.3417 231.689 19.4512C231.203 20.5607 230.456 21.5367 229.511 22.2957C227.661 23.7091 224.942 24.4157 221.352 24.4157H217.598ZM217.598 11.6957V20.4348H221.659C223.262 20.5436 224.861 20.1746 226.252 19.3748C226.781 18.9593 227.198 18.4183 227.464 17.8012C227.73 17.1841 227.837 16.5104 227.775 15.8415C227.835 15.2316 227.735 14.6166 227.484 14.057C227.234 13.4975 226.842 13.0125 226.347 12.6497C224.922 11.9256 223.325 11.6039 221.73 11.7193L217.598 11.6957Z" fill="#003B85"/>
<path d="M242.581 28.1603C242.995 28.1568 243.402 28.0473 243.762 27.8423C244.202 27.5599 244.545 27.1485 244.742 26.6645L234.115 7.67871H239.157L246.973 21.7414L253.372 7.67871H257.918L248.992 26.8765C248.586 27.7913 248.096 28.6666 247.528 29.4912C247.112 30.1006 246.611 30.6478 246.04 31.1165C245.577 31.5043 245.038 31.7929 244.458 31.9645C243.887 32.1331 243.294 32.2164 242.699 32.2118C242.167 32.214 241.636 32.1547 241.117 32.0352C240.713 31.9431 240.318 31.817 239.936 31.6583V27.1827C240.279 27.4973 240.68 27.7414 241.117 27.9012C241.586 28.072 242.082 28.1596 242.581 28.1603Z" fill="#003B85"/>
<path d="M281 29.3028C280.632 29.7248 280.207 30.0935 279.737 30.3981C279.123 30.7807 278.475 31.1041 277.8 31.3639C276.998 31.6753 276.168 31.9119 275.321 32.0706C274.353 32.2642 273.368 32.3589 272.381 32.3533C270.538 32.3761 268.704 32.0813 266.962 31.4817C265.424 30.9509 264.013 30.1088 262.818 29.0084C261.647 27.9078 260.733 26.5651 260.138 25.0746C259.477 23.3988 259.152 21.6103 259.181 19.8099C259.163 18.088 259.484 16.3793 260.126 14.7808C260.722 13.2871 261.632 11.9379 262.794 10.8235C263.999 9.68568 265.426 8.80765 266.985 8.24415C268.737 7.60949 270.589 7.29819 272.452 7.32548C274.126 7.28576 275.794 7.52866 277.387 8.04392C278.492 8.39074 279.545 8.88603 280.516 9.51615V15.5464C280.113 14.9796 279.655 14.4548 279.146 13.9799C278.58 13.4671 277.963 13.0133 277.304 12.6255C276.589 12.2222 275.828 11.9059 275.038 11.6833C274.199 11.4344 273.327 11.3114 272.452 11.3181C271.242 11.3009 270.04 11.5127 268.91 11.9424C267.892 12.3118 266.968 12.8984 266.201 13.6613C265.434 14.4242 264.844 15.3449 264.471 16.359C264.062 17.4916 263.862 18.6887 263.88 19.8924C263.87 21.0184 264.054 22.1378 264.423 23.2019C264.761 24.1983 265.304 25.1131 266.017 25.8873C266.765 26.6719 267.67 27.29 268.674 27.701C269.846 28.1676 271.096 28.4075 272.357 28.4077C274.227 28.4234 276.07 27.9698 277.718 27.0886C278.418 26.7119 279.065 26.2446 279.642 25.6988C280.181 25.1945 280.639 24.6105 281 23.9675V29.3028Z" fill="#003B85"/>
<path d="M98.4444 43.7305H99.4244V44.9083C99.5946 44.533 99.8692 44.2141 100.215 43.9896C100.659 43.7063 101.177 43.5627 101.703 43.5774C102.062 43.5598 102.422 43.6154 102.758 43.741C103.095 43.8665 103.403 44.0593 103.663 44.3076C103.936 44.6322 104.141 45.0076 104.266 45.412C104.392 45.8164 104.436 46.2417 104.395 46.6632C104.405 47.1846 104.337 47.7045 104.194 48.2061C104.095 48.5907 103.904 48.946 103.639 49.2425C103.402 49.5089 103.102 49.7114 102.766 49.8314C102.384 49.9542 101.986 50.0138 101.585 50.0081C101.128 50.0207 100.675 49.9109 100.274 49.6901C99.9571 49.5017 99.6866 49.244 99.4834 48.9363V52.0927H98.4562L98.4444 43.7305ZM99.4716 47.1107C99.456 47.3828 99.495 47.6552 99.5862 47.912C99.6775 48.1688 99.8191 48.405 100.003 48.6065C100.191 48.7852 100.414 48.9242 100.657 49.0153C100.901 49.1064 101.16 49.1476 101.42 49.1365C101.691 49.1613 101.964 49.1256 102.219 49.0318C102.474 48.9381 102.705 48.7888 102.896 48.5947C103.253 48.0518 103.415 47.4042 103.356 46.7574C103.365 46.4066 103.317 46.0567 103.214 45.721C103.145 45.463 103.015 45.225 102.837 45.0261C102.663 44.8582 102.453 44.7332 102.223 44.661C101.966 44.5838 101.7 44.5441 101.432 44.5432C101.167 44.525 100.901 44.5616 100.651 44.6508C100.401 44.74 100.172 44.8798 99.9793 45.0614C99.6362 45.4557 99.4549 45.9647 99.4716 46.4865V47.1107Z" fill="black"/>
<path d="M105.977 44.1902C106.235 44.0065 106.523 43.8672 106.827 43.778C107.231 43.6446 107.653 43.577 108.079 43.5778C108.433 43.5715 108.786 43.6111 109.13 43.6956C109.422 43.754 109.697 43.879 109.932 44.0607C110.154 44.242 110.325 44.4773 110.428 44.7438C110.555 45.0784 110.615 45.4344 110.605 45.792V49.8554H109.625V48.8071C109.454 49.1599 109.178 49.4518 108.834 49.6434C108.438 49.8521 107.995 49.9574 107.547 49.9496C107.008 49.9808 106.477 49.8084 106.06 49.4667C105.784 49.1671 105.601 48.7937 105.534 48.3921C105.466 47.9905 105.518 47.5782 105.682 47.2054C105.804 46.9821 105.983 46.7951 106.201 46.6636C106.45 46.5136 106.728 46.4173 107.016 46.3809C107.379 46.3206 107.746 46.293 108.114 46.2985H109.578V45.8038C109.585 45.583 109.549 45.363 109.472 45.156C109.406 44.9922 109.298 44.8485 109.16 44.739C109.021 44.6295 108.856 44.5581 108.681 44.5318C108.484 44.4825 108.282 44.4588 108.079 44.4611C107.638 44.4467 107.203 44.5613 106.827 44.7909C106.481 44.9931 106.189 45.276 105.977 45.6154V44.1902ZM107.807 49.0309C108.078 49.0385 108.347 48.9904 108.598 48.8896C108.793 48.8158 108.973 48.7081 109.13 48.5716C109.26 48.4587 109.368 48.323 109.448 48.1711C109.513 48.0538 109.557 47.9263 109.578 47.7942V47.1111H108.15C107.748 47.0921 107.347 47.1521 106.969 47.2878C106.841 47.3503 106.737 47.4507 106.669 47.5752C106.601 47.6997 106.574 47.8421 106.591 47.9827C106.587 48.121 106.612 48.2587 106.665 48.3866C106.718 48.5145 106.797 48.6297 106.898 48.7247C107.154 48.9328 107.477 49.0415 107.807 49.0309Z" fill="black"/>
<path d="M116.686 47.2049H113.427V49.8785H112.4V43.7305H113.427V46.298H116.686V43.7305H117.701V49.8785H116.686V47.2049Z" fill="black"/>
<path d="M122.235 43.5782C122.605 43.5579 122.975 43.6155 123.32 43.7474C123.666 43.8793 123.98 44.0825 124.242 44.3438C124.754 44.9368 125.013 45.7063 124.962 46.4873V47.1469H120.24C120.242 47.6946 120.453 48.221 120.83 48.6191C121.228 48.9528 121.74 49.1214 122.259 49.0902C122.76 49.1077 123.259 49.0026 123.711 48.784C124.05 48.6164 124.333 48.3546 124.526 48.0302V49.208C124.307 49.4387 124.036 49.6126 123.734 49.7144C123.264 49.8921 122.761 49.9722 122.259 49.95C121.846 49.9783 121.432 49.9219 121.042 49.7841C120.652 49.6464 120.295 49.4302 119.992 49.1491C119.703 48.8204 119.484 48.4375 119.346 48.0228C119.208 47.6082 119.154 47.1702 119.189 46.7347C119.18 46.2569 119.26 45.7818 119.425 45.3331C119.561 44.96 119.779 44.622 120.063 44.3438C120.338 44.079 120.669 43.878 121.031 43.7549C121.419 43.6271 121.826 43.5673 122.235 43.5782ZM122.235 44.4615C121.733 44.4356 121.24 44.5996 120.854 44.9209C120.491 45.2816 120.276 45.7647 120.251 46.2753H123.971C123.989 46.0311 123.956 45.7859 123.875 45.5548C123.794 45.3238 123.665 45.112 123.498 44.9327C123.328 44.7777 123.129 44.6582 122.912 44.5813C122.695 44.5045 122.465 44.4718 122.235 44.4851V44.4615Z" fill="black"/>
<path d="M129.13 43.5781C129.498 43.558 129.866 43.6158 130.21 43.7477C130.554 43.8797 130.866 44.0828 131.125 44.3437C131.637 44.9367 131.896 45.7063 131.846 46.4873V47.1468H127.123C127.128 47.6962 127.344 48.2228 127.725 48.619C128.122 48.9549 128.634 49.1238 129.154 49.0901C129.656 49.1076 130.154 49.0025 130.606 48.7839C130.945 48.6163 131.228 48.3545 131.421 48.0301V49.2079C131.2 49.4361 130.929 49.6096 130.63 49.7144C130.158 49.8908 129.657 49.9709 129.154 49.9499C128.741 49.9783 128.327 49.9218 127.937 49.7841C127.547 49.6463 127.19 49.4302 126.887 49.149C126.596 48.8218 126.375 48.4391 126.237 48.0241C126.099 47.609 126.047 47.1703 126.084 46.7346C126.072 46.2576 126.148 45.7825 126.308 45.333C126.453 44.9614 126.674 44.6243 126.958 44.3437C127.231 44.0816 127.557 43.8808 127.914 43.7548C128.307 43.6286 128.718 43.5689 129.13 43.5781ZM129.13 44.4615C128.627 44.4307 128.132 44.5953 127.749 44.9208C127.382 45.2804 127.163 45.7633 127.135 46.2753H130.83C130.847 46.0302 130.812 45.7844 130.729 45.5534C130.646 45.3223 130.515 45.1109 130.346 44.9326C130.016 44.6291 129.579 44.4682 129.13 44.485V44.4615Z" fill="black"/>
<path d="M138.245 49.8793H136.698V41.2227H138.245V44.8384H139.532L142.306 41.2227H144.184L140.89 45.3213L144.715 49.8322H142.743L139.614 46.0987H138.245V49.8793Z" fill="black"/>
<path d="M144.55 45.5561C144.547 44.9478 144.659 44.3444 144.88 43.7777C145.094 43.2598 145.411 42.7908 145.813 42.3997C146.225 41.9924 146.72 41.679 147.265 41.481C147.876 41.2514 148.525 41.1395 149.178 41.1512C149.821 41.1446 150.46 41.2482 151.067 41.4575C151.61 41.6493 152.109 41.9499 152.531 42.3408C152.944 42.734 153.267 43.2123 153.476 43.7423C153.701 44.3366 153.813 44.9678 153.806 45.6032C153.814 46.2157 153.701 46.8238 153.476 47.3935C153.266 47.9206 152.949 48.3981 152.543 48.795C152.125 49.1944 151.631 49.5067 151.091 49.7137C150.477 49.9316 149.829 50.0392 149.178 50.0317C148.536 50.041 147.897 49.9414 147.289 49.7372C146.744 49.554 146.245 49.2568 145.825 48.8657C145.414 48.4684 145.096 47.9859 144.892 47.4523C144.655 46.8487 144.538 46.2044 144.55 45.5561ZM146.179 45.5561C146.182 45.956 146.245 46.3532 146.368 46.7339C146.495 47.0873 146.692 47.4118 146.946 47.6879C147.214 47.9653 147.536 48.1856 147.891 48.3357C148.304 48.4981 148.746 48.5781 149.19 48.5712C149.594 48.5723 149.995 48.4963 150.37 48.3475C150.725 48.2111 151.046 48.0025 151.315 47.735C151.575 47.4603 151.776 47.1357 151.905 46.781C152.052 46.3855 152.124 45.9661 152.118 45.5443C152.122 45.1439 152.058 44.7456 151.929 44.3666C151.81 44.0096 151.612 43.6837 151.35 43.4126C151.088 43.1292 150.765 42.9079 150.406 42.7648C149.995 42.5917 149.553 42.5074 149.107 42.5175C148.703 42.5218 148.304 42.5975 147.926 42.7412C147.57 42.8788 147.248 43.0918 146.982 43.3655C146.714 43.6339 146.512 43.9604 146.392 44.3195C146.243 44.7185 146.17 45.1421 146.179 45.5679V45.5561Z" fill="black"/>
<path d="M156.699 47.1932V49.8785H155.152V41.2218H158.021C159.067 41.1286 160.114 41.3856 160.996 41.9521C161.307 42.2199 161.551 42.5562 161.709 42.9344C161.867 43.3126 161.934 43.7223 161.906 44.1309C161.936 44.5586 161.863 44.9873 161.692 45.3809C161.522 45.7745 161.259 46.1214 160.926 46.3923C160.065 46.9519 159.046 47.2165 158.021 47.1461L156.699 47.1932ZM156.699 42.6823V45.7798H158.139C158.708 45.8156 159.274 45.6846 159.769 45.4029C159.957 45.2547 160.106 45.0618 160.201 44.8417C160.295 44.6216 160.334 44.3813 160.312 44.1427C160.339 43.9191 160.307 43.6923 160.217 43.4854C160.128 43.2784 159.986 43.0988 159.804 42.9649C159.298 42.7061 158.73 42.5919 158.163 42.6352L156.699 42.6823Z" fill="black"/>
<path d="M165.294 48.5249C165.446 48.5276 165.597 48.4911 165.731 48.4189C165.883 48.3149 166.005 48.1727 166.085 48.0067L162.295 41.2227H164.113L166.888 46.2164L169.131 41.2227H170.737L167.573 48.0302C167.43 48.3565 167.256 48.6681 167.053 48.9607C166.91 49.1813 166.73 49.3763 166.522 49.5378C166.357 49.673 166.169 49.7768 165.967 49.844C165.764 49.9019 165.553 49.9297 165.341 49.9264C165.153 49.945 164.963 49.945 164.775 49.9264C164.625 49.8936 164.478 49.8463 164.338 49.7851V48.1833C164.462 48.2928 164.606 48.3768 164.763 48.4307C164.933 48.4939 165.113 48.5258 165.294 48.5249Z" fill="black"/>
<path d="M178.624 48.9245C178.499 49.0802 178.347 49.2119 178.175 49.3132C177.96 49.4544 177.73 49.5728 177.49 49.6665C177.201 49.769 176.905 49.8516 176.605 49.9138C176.263 49.9823 175.915 50.0139 175.566 50.0081C174.911 50.0203 174.26 49.9166 173.641 49.7018C173.095 49.5159 172.592 49.2192 172.166 48.8303C171.755 48.4349 171.433 47.9572 171.221 47.4287C170.987 46.8324 170.871 46.1965 170.879 45.5561C170.876 44.9478 170.988 44.3444 171.209 43.7776C171.424 43.2477 171.75 42.7698 172.166 42.376C172.591 41.9683 173.098 41.6552 173.653 41.4574C174.273 41.2289 174.929 41.1171 175.59 41.1276C176.187 41.1127 176.782 41.2004 177.349 41.3867C177.737 41.5075 178.107 41.6819 178.447 41.9049V44.0485C178.309 43.8446 178.147 43.6587 177.963 43.4949C177.767 43.3081 177.549 43.146 177.313 43.0121C177.059 42.8701 176.79 42.7556 176.51 42.6705C176.211 42.5854 175.901 42.5418 175.59 42.5409C175.158 42.5382 174.73 42.614 174.326 42.7647C173.966 42.9024 173.637 43.1106 173.358 43.3772C173.096 43.652 172.891 43.9763 172.756 44.3312C172.619 44.7088 172.547 45.1071 172.543 45.5089C172.544 45.909 172.608 46.3065 172.732 46.6867C172.855 47.0396 173.048 47.3641 173.299 47.6407C173.567 47.9181 173.888 48.1384 174.244 48.2885C174.66 48.455 175.105 48.539 175.554 48.5358C175.904 48.5407 176.253 48.5012 176.593 48.4181C176.891 48.3389 177.18 48.2283 177.455 48.0883C177.706 47.9565 177.936 47.7899 178.14 47.5936C178.332 47.4152 178.495 47.2087 178.624 46.9812V48.9245Z" fill="black"/>
<path d="M184.964 49.8793H183.417V41.2227H184.964V44.8384H186.263L189.037 41.2227H190.903L187.621 45.3213L191.434 49.8322H189.462L186.334 46.0987H184.964V49.8793Z" fill="black"/>
<path d="M194.811 50.0081C194.366 50.0189 193.922 49.9512 193.5 49.8079C193.122 49.6814 192.777 49.4703 192.493 49.1906C192.208 48.911 191.991 48.5702 191.859 48.1943C191.699 47.7407 191.623 47.2618 191.635 46.781C191.626 46.3033 191.706 45.8281 191.871 45.3794C192.014 45.0035 192.235 44.6622 192.52 44.3783C192.814 44.1129 193.16 43.9122 193.536 43.7894C193.947 43.6536 194.377 43.5821 194.811 43.5774C195.253 43.572 195.692 43.6438 196.11 43.7894C196.484 43.9207 196.826 44.1294 197.113 44.4019C197.395 44.6883 197.609 45.0345 197.739 45.4148C197.898 45.8645 197.974 46.3394 197.963 46.8163C197.972 47.2902 197.892 47.7615 197.727 48.2061C197.592 48.5822 197.369 48.9211 197.078 49.1954C196.79 49.4711 196.443 49.6767 196.062 49.7961C195.66 49.9365 195.237 50.0081 194.811 50.0081ZM193.099 46.8163C193.052 47.3484 193.217 47.8776 193.559 48.2885C193.73 48.4471 193.931 48.5696 194.15 48.6485C194.369 48.7275 194.602 48.7613 194.835 48.7479C195.066 48.7602 195.298 48.7247 195.515 48.6436C195.733 48.5626 195.931 48.4377 196.098 48.2768C196.425 47.8677 196.586 47.3502 196.547 46.8281C196.571 46.5645 196.543 46.2987 196.464 46.046C196.385 45.7933 196.257 45.5587 196.086 45.3559C195.916 45.1973 195.715 45.0749 195.496 44.9959C195.276 44.917 195.044 44.8832 194.811 44.8965C194.576 44.8819 194.341 44.9174 194.121 45.0007C193.901 45.0839 193.702 45.2131 193.536 45.3794C193.215 45.7871 193.059 46.2997 193.099 46.8163Z" fill="black"/>
<path d="M203.501 47.3934H200.714V49.8785H199.262V43.7305H200.714V46.086H203.501V43.7305H204.941V49.8785H203.501V47.3934Z" fill="black"/>
<path d="M210.785 49.7615C210.375 49.936 209.932 50.0204 209.487 50.0088C209.034 50.0179 208.583 49.9502 208.153 49.8086C207.763 49.6879 207.407 49.4782 207.114 49.1962C206.817 48.9166 206.587 48.5746 206.441 48.1951C206.28 47.7415 206.204 47.2625 206.216 46.7817C206.203 46.3075 206.283 45.8353 206.452 45.392C206.595 45.0101 206.825 44.6671 207.125 44.3908C207.426 44.1206 207.78 43.916 208.164 43.7902C208.596 43.6544 209.046 43.5868 209.498 43.5899C209.898 43.5951 210.295 43.6545 210.679 43.7666C210.974 43.8507 211.253 43.982 211.506 44.1553V45.9337C211.292 45.6168 211.015 45.348 210.691 45.1446C210.335 44.9309 209.925 44.8245 209.51 44.8384C209.267 44.8208 209.022 44.8524 208.79 44.9313C208.559 45.0102 208.346 45.1348 208.164 45.2977C207.995 45.4854 207.866 45.7053 207.785 45.9442C207.704 46.1831 207.672 46.436 207.692 46.6875V46.8759C207.671 47.1303 207.703 47.3863 207.786 47.6276C207.869 47.8689 208.002 48.0902 208.176 48.2775C208.56 48.5937 209.049 48.7536 209.546 48.7251C209.988 48.7402 210.427 48.6429 210.821 48.4424C211.123 48.2809 211.376 48.0408 211.553 47.7475V49.2315C211.342 49.4652 211.079 49.6467 210.785 49.7615Z" fill="black"/>
<path d="M213.052 44.1545C213.314 43.975 213.606 43.8434 213.914 43.7658C214.353 43.6484 214.806 43.5929 215.26 43.6009C215.971 43.545 216.68 43.7229 217.279 44.1073C217.52 44.3173 217.708 44.582 217.825 44.8793C217.942 45.1765 217.985 45.4975 217.952 45.8151V49.8785H216.594V48.7713C216.438 49.1322 216.174 49.4364 215.839 49.6429C215.45 49.8734 215.004 49.9879 214.552 49.9727C214.021 50.0049 213.499 49.8271 213.1 49.478C212.916 49.2934 212.773 49.0719 212.682 48.8283C212.59 48.5846 212.551 48.3244 212.568 48.0647C212.555 47.7628 212.62 47.4628 212.757 47.1931C212.875 46.967 213.055 46.7791 213.277 46.6513C213.523 46.5025 213.795 46.4025 214.079 46.3569C214.419 46.2974 214.762 46.2698 215.107 46.2745H216.512V46.0036C216.531 45.84 216.512 45.6741 216.457 45.5189C216.402 45.3636 216.311 45.2232 216.193 45.1085C215.914 44.9345 215.588 44.8521 215.26 44.8729C214.786 44.8499 214.313 44.9514 213.891 45.1673C213.552 45.36 213.265 45.6305 213.052 45.9565V44.1545ZM215.012 48.6771C215.228 48.6834 215.443 48.6556 215.65 48.5947C215.81 48.538 215.961 48.4587 216.098 48.3591C216.211 48.2712 216.307 48.1634 216.382 48.0411C216.443 47.9392 216.487 47.8278 216.512 47.7113V47.2049H215.331C215.009 47.1841 214.686 47.2364 214.386 47.358C214.283 47.4086 214.197 47.4903 214.142 47.5917C214.087 47.693 214.065 47.809 214.079 47.9233C214.074 48.0285 214.094 48.1335 214.137 48.2296C214.18 48.3258 214.245 48.4105 214.327 48.4769C214.527 48.617 214.768 48.6874 215.012 48.6771Z" fill="black"/>
<path d="M223.619 44.9909H221.624V45.7683C221.605 46.5315 221.522 47.2919 221.376 48.0414C221.29 48.4866 221.126 48.9132 220.892 49.3016C220.75 49.5466 220.529 49.7373 220.266 49.8434C220.041 49.9133 219.806 49.949 219.57 49.9494H219.227H218.967V48.4065C219.073 48.4195 219.18 48.4195 219.286 48.4065C219.416 48.4018 219.544 48.3738 219.664 48.324C219.812 48.2267 219.92 48.0808 219.971 47.9118C220.088 47.585 220.164 47.2447 220.195 46.8989C220.275 46.2738 220.319 45.6446 220.325 45.0145V43.6836H225.048V49.8316H223.619V44.9909Z" fill="black"/>
<path d="M228.118 44.9907H226.146V43.7305H231.553V44.9907H229.558V49.8785H228.118V44.9907Z" fill="black"/>
<path d="M232.651 43.7305H234.08V47.8998L237.032 43.7305H238.401V49.8785H236.973V45.662L234.009 49.8785H232.651V43.7305Z" fill="black"/>
<path d="M244.281 47.3934H241.495V49.8785H240.054V43.7305H241.495V46.086H244.281V43.7305H245.722V49.8785H244.281V47.3934Z" fill="black"/>
<path d="M247.363 43.7305H251.79V44.9907H248.803V49.8785H247.363V43.7305Z" fill="black"/>
<path d="M263.774 48.9247C263.649 49.0804 263.497 49.2121 263.325 49.3134C263.11 49.4546 262.88 49.573 262.641 49.6667C262.351 49.7692 262.055 49.8518 261.755 49.914C261.413 49.9825 261.065 50.0141 260.716 50.0083C260.061 50.0205 259.41 49.9168 258.792 49.702C258.245 49.5161 257.742 49.2194 257.316 48.8305C256.905 48.4351 256.583 47.9574 256.371 47.4289C256.137 46.8326 256.021 46.1967 256.029 45.5563C256.026 44.948 256.138 44.3446 256.359 43.7778C256.574 43.2479 256.9 42.77 257.316 42.3763C257.739 41.9659 258.246 41.6524 258.803 41.4576C259.423 41.2291 260.079 41.1173 260.74 41.1278C261.333 41.1119 261.924 41.1996 262.487 41.3869C262.88 41.5054 263.254 41.68 263.597 41.9051V44.0487C263.456 43.8476 263.293 43.662 263.113 43.4951C262.917 43.3083 262.699 43.1462 262.463 43.0123C262.209 42.8703 261.94 42.7558 261.661 42.6707C261.361 42.5856 261.051 42.5421 260.74 42.5411C260.308 42.5384 259.88 42.6142 259.476 42.7649C259.114 42.8996 258.785 43.1082 258.508 43.3774C258.246 43.6522 258.041 43.9765 257.906 44.3314C257.652 45.0961 257.652 45.9222 257.906 46.6869C258.029 47.0398 258.221 47.3643 258.473 47.6409C258.741 47.9183 259.062 48.1386 259.417 48.2887C259.834 48.4552 260.279 48.5392 260.728 48.536C261.078 48.5409 261.427 48.5014 261.767 48.4183C262.065 48.3391 262.354 48.2285 262.629 48.0885C262.879 47.9567 263.11 47.7901 263.314 47.5938C263.505 47.4154 263.668 47.2089 263.798 46.9814L263.774 48.9247Z" fill="black"/>
<path d="M271.472 46.1458H266.749V49.8793H265.214V41.2227H266.749V44.756H271.472V41.2227H273.019V49.8322H271.472V46.1458Z" fill="black"/>
<path d="M280.764 42.6831H276.454V49.8793H274.908V41.2227H280.811L280.764 42.6831Z" fill="black"/>
<path d="M36.6245 8.11523C37.5609 9.35241 38.3532 10.6919 38.9858 12.1079L20.6618 25.5817L12.9992 20.7881V15.0288L20.6618 19.8223L36.6245 8.11523Z" fill="#00A421"/>
<path fill-rule="evenodd" clip-rule="evenodd" d="M21.2521 5.88889C12.7752 5.88889 5.90336 12.7439 5.90336 21.2C5.90336 29.6561 12.7752 36.5111 21.2521 36.5111C29.729 36.5111 36.6008 29.6561 36.6008 21.2H42.5042C42.5042 32.9084 32.9893 42.4 21.2521 42.4C9.51489 42.4 0 32.9084 0 21.2C0 9.49156 9.51489 0 21.2521 0C25.2606 0 29.0183 1.10992 32.2231 3.0401L29.1719 8.08139C26.8619 6.69012 24.1553 5.88889 21.2521 5.88889Z" fill="url(#paint0_angular)"/>
<defs>
<radialGradient id="paint0_angular" cx="0" cy="0" r="1" gradientUnits="userSpaceOnUse" gradientTransform="translate(21.2521 21.2) rotate(-5.69669) scale(17.798 17.7552)">
<stop stop-color="#00A522"/>
<stop offset="0.232338" stop-color="#9ACD19"/>
<stop offset="0.380208" stop-color="#FDEC0B"/>
<stop offset="0.662167" stop-color="#009EFC"/>
<stop offset="0.833333" stop-color="#0E88C3"/>
</radialGradient>
</defs>
</svg>
