<svg width="1320" height="810" viewBox="0 0 1320 810" fill="none" xmlns="http://www.w3.org/2000/svg">
<g opacity="0.3">
<path d="M-31 -61.5974C-31 -82.6018 -9.14905 -95.7753 8.42239 -85.3584C74.2474 -46.3349 139.877 -7.31145 205.7 31.712C223.433 42.2249 223.433 68.7751 205.7 79.288C139.877 118.311 74.2474 157.335 8.4224 196.358C-9.14904 206.775 -31 193.602 -31 172.597V-61.5974Z" fill="white"/>
<path d="M1003 -61.5974C1003 -82.6018 1024.85 -95.7753 1042.42 -85.3584C1108.25 -46.3349 1173.88 -7.31145 1239.7 31.712C1257.43 42.2249 1257.43 68.7751 1239.7 79.288C1173.88 118.311 1108.25 157.335 1042.42 196.358C1024.85 206.775 1003 193.602 1003 172.597V-61.5974Z" fill="white"/>
<path d="M53 299.817C53 284.627 68.8201 275.1 81.5418 282.634C129.199 310.855 176.715 339.076 224.371 367.297C237.21 374.9 237.21 394.1 224.371 401.703C176.715 429.924 129.199 458.145 81.5418 486.366C68.8201 493.9 53 484.373 53 469.183V299.817Z" fill="white"/>
<path d="M496 278.403C496 257.398 517.851 244.225 535.422 254.642C601.247 293.665 666.877 332.689 732.7 371.712C750.433 382.225 750.433 408.775 732.7 419.288C666.877 458.311 601.247 497.335 535.422 536.358C517.851 546.775 496 533.602 496 512.597V278.403Z" fill="white"/>
<path d="M476 25.042C476 15.8117 485.614 10.0226 493.346 14.6003C522.309 31.749 551.186 48.8977 580.148 66.0464C587.951 70.6663 587.951 82.3337 580.148 86.9536C551.186 104.102 522.309 121.251 493.346 138.4C485.614 142.977 476 137.188 476 127.958V25.042Z" fill="white"/>
<path d="M1003 278.403C1003 257.398 1024.85 244.225 1042.42 254.642C1108.25 293.665 1173.88 332.689 1239.7 371.712C1257.43 382.225 1257.43 408.775 1239.7 419.288C1173.88 458.311 1108.25 497.335 1042.42 536.358C1024.85 546.775 1003 533.602 1003 512.597V278.403Z" fill="white"/>
<path d="M496 618.403C496 597.398 517.851 584.225 535.422 594.642C601.247 633.665 666.877 672.689 732.7 711.712C750.433 722.225 750.433 748.775 732.7 759.288C666.877 798.311 601.247 837.335 535.422 876.358C517.851 886.775 496 873.602 496 852.597V618.403Z" fill="white"/>
<path d="M1003 618.403C1003 597.398 1024.85 584.225 1042.42 594.642C1108.25 633.665 1173.88 672.689 1239.7 711.712C1257.43 722.225 1257.43 748.775 1239.7 759.288C1173.88 798.311 1108.25 837.335 1042.42 876.358C1024.85 886.775 1003 873.602 1003 852.597V618.403Z" fill="white"/>
<path d="M420 98.4026C420 77.3982 398.149 64.2247 380.578 74.6416C314.753 113.665 249.123 152.689 183.3 191.712C165.567 202.225 165.567 228.775 183.3 239.288C249.123 278.311 314.753 317.335 380.578 356.358C398.149 366.775 420 353.602 420 332.597V98.4026Z" fill="white"/>
<path d="M327 453.369C327 443.122 316.337 436.694 307.762 441.777C275.639 460.816 243.612 479.855 211.49 498.894C202.837 504.023 202.837 516.977 211.49 522.106C243.612 541.145 275.639 560.184 307.762 579.223C316.337 584.306 327 577.878 327 567.631V453.369Z" fill="white"/>
<path d="M1320 472.369C1320 462.122 1309.34 455.694 1300.76 460.777C1268.64 479.816 1236.61 498.855 1204.49 517.894C1195.84 523.023 1195.84 535.977 1204.49 541.106C1236.61 560.145 1268.64 579.184 1300.76 598.223C1309.34 603.306 1320 596.878 1320 586.631V472.369Z" fill="white"/>
<path d="M932 109.403C932 88.3982 910.149 75.2247 892.578 85.6416C826.753 124.665 761.123 163.689 695.3 202.712C677.567 213.225 677.567 239.775 695.3 250.288C761.123 289.311 826.753 328.335 892.578 367.358C910.149 377.775 932 364.602 932 343.597V109.403Z" fill="white"/>
<path d="M643 127.585C643 121.771 636.969 118.124 632.119 121.008C613.952 131.81 595.838 142.613 577.671 153.415C572.776 156.325 572.776 163.675 577.671 166.585C595.838 177.387 613.952 188.19 632.119 198.992C636.969 201.876 643 198.229 643 192.415V127.585Z" fill="white"/>
<path d="M53 556.585C53 550.771 59.0309 547.124 63.8806 550.008C82.0483 560.81 100.162 571.613 118.329 582.415C123.224 585.325 123.224 592.675 118.329 595.585C100.162 606.387 82.0483 617.19 63.8806 627.992C59.0309 630.876 53 627.229 53 621.415V556.585Z" fill="white"/>
<path d="M1320 146.205C1320 132.251 1305.49 123.499 1293.82 130.419C1250.12 156.345 1206.54 182.271 1162.83 208.196C1151.06 215.181 1151.06 232.819 1162.83 239.804C1206.54 265.729 1250.12 291.655 1293.82 317.581C1305.49 324.501 1320 315.749 1320 301.795V146.205Z" fill="white"/>
</g>
</svg>
