<svg width="61" height="60" viewBox="0 0 61 60" fill="none" xmlns="http://www.w3.org/2000/svg">
<g clip-path="url(#clip0)">
<path d="M46.3925 49.3546C54.4652 47.7835 59.457 43.7266 59.457 29.9998C59.457 18.3868 43.2474 0.725488 28.2474 0.725586C9.09361 0.725711 22.199 14.5159 13.7312 19.5965C6.37891 24.0079 0.666725 24.911 0.666725 37.0161C0.666725 50.3705 6.5235 54.2877 13.7312 51.7739C20.939 49.2602 20.1082 59.032 29.9409 59.032C41.0301 59.032 38.3198 50.9257 46.3925 49.3546Z" fill="#F2F8F1"/>
<g clip-path="url(#clip1)">
<path d="M13.6856 44.1963C13.7829 43.9993 13.8559 43.8516 13.9776 43.6054C13.7586 43.63 13.6126 43.63 13.4666 43.6547C12.9069 43.8024 12.3958 43.6793 11.8848 43.4085C10.8141 42.8668 9.91374 42.1282 9.01337 41.3158C7.99133 40.3556 6.84761 39.5186 5.7769 38.6076C5.16855 38.066 4.58452 37.4751 4.02483 36.8596C3.51381 36.3426 3.07579 35.7517 2.56477 35.2347C1.88341 34.5454 1.34806 33.7822 0.885704 32.9451C0.399017 32.0588 0.739698 31.2217 1.25072 30.5078C1.85908 29.6461 2.49177 28.809 3.17313 28.0212C4.04917 26.9625 4.97387 25.9285 5.89858 24.9191C7.16396 23.5896 8.45368 22.3094 9.69473 20.9553C10.5951 19.9459 11.7631 20.0444 12.7609 20.6107C13.0285 20.7584 13.2719 21.0046 13.5152 21.2015C13.8072 21.4477 14.0992 21.7185 14.4156 21.9155C15.243 22.4079 15.9 23.0726 16.4353 23.8851C16.5813 24.1066 16.7517 24.3036 16.922 24.5006C17.2627 24.8945 17.3114 25.2145 17.0437 25.6577C16.8247 26.027 16.557 26.3963 16.3137 26.7656C15.4863 27.8735 14.6589 29.006 13.8072 30.1138C13.5882 30.3847 13.3449 30.6309 13.1259 30.9017C12.9799 31.074 12.8582 31.2217 12.7122 31.4187C13.3449 31.7141 13.9289 31.9357 14.4643 32.2065C14.8536 32.4035 15.243 32.6251 15.5836 32.8959C16.1433 33.3636 16.7517 33.8068 17.214 34.3977C17.7981 35.1116 18.4794 35.7517 19.1121 36.4165C19.7691 37.1304 20.1828 37.9675 20.4018 38.9277C20.4748 39.2724 20.5965 39.5924 20.6695 39.9125C20.7912 40.3556 20.5722 40.6757 20.3045 40.9465C19.3798 41.8574 18.4064 42.7437 17.2627 43.4085C16.6057 43.8024 15.9243 44.0978 15.2186 44.3932C14.6833 44.6148 14.2209 44.5656 13.6856 44.1963ZM14.3426 43.3592C15.5593 42.4729 16.776 41.6112 17.9927 40.7249C18.4064 40.4295 18.4308 40.3064 18.1874 39.8386C18.0657 39.617 17.9684 39.3955 17.8711 39.1739C17.6764 38.78 17.5304 38.3614 17.3114 37.9921C16.8247 37.2289 16.1433 36.6627 15.462 36.0964C14.0262 34.9147 12.6635 33.6837 11.2521 32.4773C11.1061 32.3542 10.8628 32.2804 10.6681 32.2065C10.1571 32.0588 10.0597 31.8865 10.2788 31.3941C10.3518 31.2217 10.4248 31.0494 10.5221 30.9017C11.5441 29.3999 12.5905 27.8981 13.6126 26.4209C13.8072 26.1501 14.0019 25.8546 14.1722 25.5592C14.3913 25.1653 14.3426 24.9683 14.0262 24.6483C13.3205 23.9097 12.5905 23.1711 11.8605 22.4571C11.4225 22.0386 11.2278 22.0632 10.8628 22.5556C10.5464 22.9741 10.2788 23.4173 9.93807 23.8358C9.28105 24.6729 8.57535 25.4853 7.91832 26.3224C6.79895 27.7257 5.67957 29.1537 4.58452 30.557C4.29251 30.9263 4.0735 31.3202 3.83016 31.7141C3.68415 31.9357 3.68415 32.1819 3.85449 32.4035C4.29251 32.9451 4.70619 33.536 5.21721 34.0284C6.11758 34.8901 7.09096 35.6779 8.01566 36.515C8.62402 37.0566 9.23238 37.6228 9.88941 38.1399C10.8384 38.9031 11.7388 39.6909 12.3958 40.7495C12.7852 41.365 13.2719 41.9067 13.7099 42.4729C13.9046 42.7684 14.0992 43.0392 14.3426 43.3592Z" fill="black"/>
<path d="M41.5054 23.122C41.3107 23.5897 41.1161 24.156 40.8727 24.673C39.7777 26.938 38.6826 29.1784 37.5876 31.4188C36.2492 34.1269 34.8865 36.8105 33.5724 39.494C32.9641 40.725 32.234 41.8575 31.2363 42.7931C30.8713 43.1377 30.4333 43.3347 29.9953 43.507C29.8249 43.5809 29.5816 43.5809 29.3869 43.5316C28.3162 43.187 27.2212 42.9162 26.2235 42.3499C25.9801 42.2022 25.7124 42.1283 25.4448 42.0052C24.2524 41.4882 23.4493 40.5527 22.8167 39.4448C22.7193 39.2724 22.7193 38.9278 22.8167 38.7554C23.3033 37.8691 23.8144 37.0074 24.3497 36.1457C24.8364 35.3825 25.3231 34.6193 25.8584 33.8807C26.6128 32.8467 27.3915 31.8127 28.1945 30.7787C29.2166 29.4738 30.117 28.0951 30.993 26.6672C31.796 25.3377 32.5747 23.9836 33.4751 22.728C34.0348 21.9156 34.7648 21.2509 35.4462 20.5123C35.5922 20.3645 35.8355 20.2907 36.0059 20.143C36.1519 20.0445 36.2979 19.9214 36.3709 19.7737C36.5169 19.4536 36.8089 19.3305 37.1009 19.3059C37.6363 19.2567 38.0986 19.3305 38.5853 19.6506C39.2667 20.0691 39.9237 20.463 40.4104 21.1031C40.7267 21.5217 41.0187 21.9402 41.3107 22.408C41.4081 22.6049 41.4324 22.8265 41.5054 23.122ZM37.1496 20.7831C36.9792 21.0539 36.8819 21.2016 36.7846 21.3493C35.9815 22.8019 35.1542 24.2298 34.3511 25.6824C33.5481 27.135 32.7207 28.5629 31.6987 29.8677C31.3093 30.3601 30.8957 30.8279 30.5306 31.3203C29.5329 32.6498 28.4866 33.9792 27.6592 35.4318C27.0995 36.3919 26.4425 37.2783 25.8341 38.2138C25.4934 38.7308 25.5421 38.9278 25.9558 39.3709C26.8805 40.3803 28.1215 40.9712 29.2166 41.8083C29.3383 41.5621 29.4599 41.3405 29.5573 41.1189C30.2386 39.6171 30.847 38.1153 31.577 36.6381C32.3314 35.1363 33.2074 33.6592 34.0591 32.182C35.7625 29.2522 37.1739 26.1748 38.7313 23.1712C38.8773 22.8758 38.9016 22.5311 38.634 22.2603C38.1473 21.8417 37.7093 21.374 37.1496 20.7831Z" fill="black"/>
<path d="M48.7757 19.7241C49.1894 19.8226 49.6031 19.8965 49.9924 20.0442C51.2578 20.5858 52.4015 21.2998 53.4479 22.2107C54.1536 22.8508 54.8349 23.4909 55.3216 24.328C55.8813 25.2882 56.6357 26.1006 57.39 26.9131C58.1201 27.6763 58.5338 28.6611 58.9231 29.6458C59.0448 29.9659 59.0934 30.3106 59.1664 30.6306C59.2151 30.9014 59.2638 31.1723 58.9718 31.3446C58.9474 31.3692 58.9231 31.4185 58.9231 31.4431C58.8501 32.4771 58.2417 33.2403 57.7064 34.0528C56.7573 35.5053 55.7596 36.9333 54.7619 38.3366C54.3239 38.9521 53.7886 39.5183 53.2775 40.0846C52.4988 40.9709 51.7201 41.9064 50.8928 42.7435C50.4548 43.1867 49.8464 43.4821 49.311 43.8021C48.9947 43.9991 48.6297 44.1468 48.2647 44.2453C47.997 44.3192 47.6806 44.3684 47.4373 44.2699C46.8533 44.0237 46.2449 43.7775 45.7582 43.3836C45.0282 42.842 44.3468 42.1772 43.6655 41.5618C43.3491 41.2663 43.0571 40.9709 42.7895 40.6508C42.4001 40.1831 42.3758 39.9369 42.7408 39.4691C43.1301 38.9521 43.6168 38.5089 44.0548 38.0165C44.5659 37.4749 45.1255 36.9579 45.5392 36.367C46.6586 34.816 48.0943 33.5357 49.4084 32.1817C49.7004 31.8862 49.9924 31.5662 50.3088 31.2707C50.5278 31.0492 50.5278 30.8522 50.3088 30.6306C49.1894 29.5227 48.435 28.1687 47.5346 26.8884C46.9993 26.1252 46.4153 25.362 45.8312 24.6234C45.5149 24.2049 45.2716 23.7617 44.7119 23.5648C44.4198 23.4663 44.4198 22.9001 44.6389 22.5061C45.0769 21.8168 45.6366 21.2259 46.2936 20.7828C46.8533 20.4135 47.486 20.1427 48.0943 19.8472C48.289 19.7487 48.5324 19.798 48.7514 19.7734C48.7514 19.7487 48.7757 19.7241 48.7757 19.7241ZM47.851 42.7681C48.0457 42.6943 48.216 42.6696 48.3133 42.5712C49.238 41.7341 50.1628 40.897 50.9414 39.8876C51.0631 39.7399 51.2091 39.5676 51.3065 39.4198C51.9878 38.4843 52.6935 37.5488 53.3749 36.5886C54.1292 35.5299 54.8106 34.4467 55.5893 33.4127C56.149 32.6741 56.7817 31.9847 57.3657 31.2954C57.5117 31.123 57.536 30.9507 57.3657 30.7537C57.0494 30.3844 56.733 30.0151 56.441 29.6212C56.1247 29.2273 55.8083 28.8334 55.565 28.3902C55.273 27.824 54.9079 27.3316 54.4699 26.8638C54.2266 26.6176 53.9832 26.3222 53.7642 26.0514C53.1802 25.2882 52.6205 24.4757 51.9878 23.7617C51.5741 23.2694 51.0388 22.8754 50.5521 22.4569C50.1384 22.1122 49.7004 21.7922 49.2624 21.4475C49.0434 21.2505 48.8487 21.2752 48.6054 21.4475C48.362 21.6445 48.0457 21.7922 47.8267 21.9891C47.4616 22.3092 46.975 22.5308 46.7559 23.0478C47.0966 23.2694 47.4373 23.4663 47.7293 23.7125C49.019 24.9435 50.1628 26.2976 51.0388 27.8486C51.6228 28.8826 52.0852 29.9413 52.2555 31.123C52.3042 31.4185 52.3042 31.6893 52.1338 31.9355C51.8418 32.354 51.5498 32.7725 51.2091 33.1418C50.4791 33.9297 49.7004 34.6436 48.9704 35.4315C47.924 36.564 46.8776 37.7211 45.8556 38.8782C45.6366 39.1244 45.4419 39.4198 45.2229 39.6907C45.4662 39.9615 45.6366 40.1831 45.8556 40.3554C46.6343 41.094 47.3886 41.7587 47.851 42.7681Z" fill="black"/>
</g>
</g>
<defs>
<clipPath id="clip0">
<rect width="60" height="60" fill="white" transform="translate(0.666748)"/>
</clipPath>
<clipPath id="clip1">
<rect width="58.5484" height="25.1613" fill="white" transform="translate(0.666748 19.355)"/>
</clipPath>
</defs>
</svg>
