<svg width="263" height="47" viewBox="0 0 263 47" fill="none" xmlns="http://www.w3.org/2000/svg">
<g clip-path="url(#clip0)">
<path d="M215.106 18.5629C215.287 16.2676 215.287 13.9365 215.65 11.6413C216.194 8.37772 217.608 5.50867 220.363 3.46447C225.221 -0.121848 233.451 0.774731 236.678 7.73218C237.802 10.1709 238.273 12.753 238.31 15.3352C238.382 18.527 238.346 21.7547 237.947 24.9465C237.403 29.1425 235.482 32.7647 231.385 34.5578C225.548 37.14 219.058 35.0599 216.447 28.21C215.722 26.3093 215.541 24.1575 215.287 22.1133C215.142 20.9298 215.251 19.7463 215.251 18.5629C215.215 18.5629 215.142 18.5629 215.106 18.5629ZM232.037 13.2192C231.892 13.1834 231.711 13.1834 231.566 13.1475C229.572 18.527 227.397 23.8706 225.475 29.3935C227.215 29.9315 228.484 29.6087 229.608 28.6045C231.457 26.919 232.182 24.7672 232.255 22.3643C232.327 19.8539 232.291 17.3794 232.255 14.8689C232.255 14.2951 232.11 13.7572 232.037 13.2192ZM221.559 23.6196C221.705 23.6196 221.85 23.6554 221.995 23.6554C222.756 21.6829 223.481 19.6746 224.242 17.7021C225.366 14.7614 226.49 11.8206 227.578 8.8798C228.086 7.55287 227.687 7.15837 226.273 7.40941C224.714 7.66046 223.626 8.48531 222.828 9.74052C221.922 11.175 221.414 12.753 221.414 14.4745C221.378 17.0925 221.414 19.7105 221.414 22.2926C221.378 22.723 221.487 23.1892 221.559 23.6196Z" fill="#4DC1D0"/>
<path d="M86.2164 10.3501C91.9086 6.11822 99.341 9.41763 101.48 14.9047C103.365 19.7462 103.619 24.5877 101.553 29.4293C99.196 34.8805 92.2711 37.4985 87.2316 34.4142C87.0865 34.3425 86.9053 34.3067 86.579 34.1991C86.5427 34.6653 86.4702 35.1315 86.4702 35.5619C86.4702 38.5385 86.4702 41.5152 86.4702 44.4559C86.4702 46.285 86.2527 46.4643 84.3674 46.5001C83.1709 46.5001 81.9745 46.4643 80.7418 46.5001C79.7629 46.5001 79.2915 46.0339 79.2553 45.1015C79.219 44.6353 79.219 44.169 79.219 43.6669C79.219 32.9797 79.1828 22.2925 79.1828 11.6053C79.1828 11.1749 79.1828 10.7804 79.219 10.3501C79.2553 9.3459 79.7629 8.84382 80.8143 8.87968C81.8294 8.91554 82.8809 8.87968 83.896 8.87968C84.8749 8.91554 86.1076 8.6645 86.2164 10.3501ZM95.7154 22.149C95.788 20.0331 95.4979 18.0607 94.3377 16.3034C93.3226 14.7254 91.7636 14.2592 89.9508 14.4385C88.283 14.6178 87.4491 15.7295 86.9778 17.1641C86.724 17.9889 86.579 18.8855 86.5065 19.7821C86.2527 22.2925 86.3252 24.7671 87.2316 27.134C87.9929 29.1424 89.4069 29.9314 91.4372 29.6086C92.8512 29.3934 93.8301 28.5686 94.519 27.3851C95.5342 25.7354 95.788 23.9422 95.7154 22.149Z" fill="#3A3A3C"/>
<path d="M122.291 18.5628C122.509 15.7296 121.276 14.331 118.774 14.2951C116.671 14.2592 114.931 15.1199 113.372 16.411C112.031 17.5586 111.886 17.5228 110.798 16.1958C110.254 15.5503 109.746 14.9048 109.239 14.2234C108.405 13.0757 108.441 12.5737 109.565 11.6771C111.16 10.3501 112.901 9.38184 114.931 8.84389C117.36 8.23422 119.789 8.16249 122.255 8.7363C126.533 9.74047 129.143 12.6454 129.397 17.0924C129.687 22.6512 129.542 28.2459 129.506 33.8405C129.506 35.024 129.18 35.275 127.983 35.3468C126.823 35.4185 125.699 35.3826 124.539 35.3468C123.487 35.3468 122.617 35.0599 122.472 34.1633C120.369 34.7371 118.412 35.3826 116.345 35.7413C115.33 35.9206 114.17 35.7054 113.118 35.4902C109.638 34.8447 107.354 32.9081 106.628 29.4293C105.94 26.0582 107.535 22.6153 110.653 20.7505C113.01 19.3159 115.656 18.7063 118.412 18.5987C119.717 18.5269 121.022 18.5628 122.291 18.5628ZM122.617 24.3368C120.043 23.7988 117.505 24.014 115.149 25.1975C114.025 25.7713 113.626 26.9189 113.916 28.1024C114.17 29.0707 115.076 29.788 116.309 29.9673C119.536 30.4335 122.509 27.8872 122.617 24.3368Z" fill="#3A3A3C"/>
<path d="M168.227 24.0855C168.699 26.6318 169.714 28.5326 171.925 29.465C174.282 30.4692 176.566 29.9312 178.56 28.425C180.663 26.847 180.627 26.8111 182.548 28.7119C184.651 30.792 184.651 31.1506 182.258 32.9796C178.125 36.0997 173.557 36.6018 168.771 34.7369C164.094 32.9437 161.81 29.2857 161.194 24.5159C160.613 20.1047 161.266 15.9446 164.275 12.4659C167.466 8.77198 171.672 7.66022 176.349 8.70025C180.88 9.70442 183.382 12.8604 184.397 17.164C184.76 18.7419 184.796 20.4634 184.796 22.1131C184.796 23.8345 184.506 24.0497 182.766 24.0497C178.596 24.0855 174.463 24.0497 170.294 24.0497C169.677 24.0855 169.061 24.0855 168.227 24.0855ZM168.699 18.3474C170.838 18.7778 176.24 18.6702 177.436 18.204C177.291 15.7653 175.696 14.0797 173.484 13.9721C170.874 13.8645 169.134 15.4425 168.699 18.3474Z" fill="#3A3A3C"/>
<path d="M63.4478 35.7769C59.6409 35.7052 56.1966 34.7369 53.2599 32.2623C52.0634 31.2581 52.0272 31.1147 52.7885 29.716C53.3324 28.7119 53.8762 27.7077 54.4563 26.7394C55.2902 25.3407 55.7253 25.3407 56.9217 26.3807C57.8281 27.1697 58.7708 27.9229 59.7497 28.5684C61.635 29.7877 63.7378 29.8595 65.8407 29.5367C66.7108 29.4291 67.5084 29.0705 67.726 28.1022C67.9072 27.1339 67.2546 26.4883 66.4933 26.1297C65.5506 25.6635 64.4629 25.3766 63.484 24.9821C61.5625 24.2648 59.6409 23.6193 57.7919 22.7586C56.1241 21.9696 54.8551 20.6785 54.1663 18.9571C52.9698 15.9087 54.13 12.681 57.1393 10.5651C62.0701 7.15809 69.575 7.80363 73.7444 12.0713C74.7959 13.1472 74.8321 13.219 73.9982 14.4742C73.4907 15.2632 72.9468 16.088 72.3667 16.8411C71.6053 17.8453 71.0252 17.917 70.2276 16.9487C68.7774 15.2632 66.8558 14.4383 64.7167 14.1873C63.6653 14.0797 62.5776 14.259 61.5262 14.51C61.0911 14.6176 60.511 15.1914 60.511 15.5859C60.511 16.0522 60.8736 16.6977 61.2724 17.0205C61.8163 17.4508 62.5776 17.6301 63.2302 17.8812C65.043 18.4909 66.9283 18.9571 68.7049 19.6743C69.9738 20.1764 71.2065 20.8937 72.258 21.7185C76.1011 24.731 75.376 29.1422 72.9831 31.9754C70.8077 34.4858 67.9072 35.49 64.6805 35.7769C64.3179 35.7769 63.8828 35.7769 63.4478 35.7769Z" fill="#3A3A3C"/>
<path d="M194.259 10.0988C193.171 8.91529 192.12 7.87526 191.177 6.72764C190.67 6.11797 191.068 5.50829 191.54 4.97035C193.207 3.10546 195.274 1.95784 197.739 1.59921C201.22 1.13299 204.447 1.63507 207.202 4.07377C210.393 6.87109 211.517 12.8244 207.347 16.1955C206.985 16.4824 206.586 16.7693 206.078 17.128C206.586 17.5942 206.876 17.8452 207.202 18.0963C209.994 20.3556 211.154 23.3323 210.683 26.811C210.139 30.6125 208.217 33.4098 204.302 34.7009C199.552 36.243 195.165 35.9202 191.177 32.7643C189.582 31.5091 189.509 30.9353 190.778 29.3932C191.503 28.5324 192.192 27.3131 193.099 27.062C193.86 26.8827 194.875 28.0662 195.818 28.4966C196.906 28.9628 198.03 29.5366 199.19 29.6442C202.054 29.8952 203.722 28.4248 204.193 25.6275C204.556 23.3323 203.069 21.3239 200.459 20.786C199.226 20.535 197.957 20.4991 196.688 20.4632C195.709 20.4274 195.238 20.0687 195.274 19.1004C195.31 18.6342 195.274 18.1321 195.274 17.6659C195.274 15.4065 195.347 15.4065 197.703 15.0838C198.9 14.9403 200.06 14.6534 201.184 14.2589C202.924 13.6492 203.432 12.1788 203.468 10.565C203.504 8.77184 202.235 7.4449 200.386 7.22972C198.646 7.01455 197.159 7.58836 195.89 8.66425C195.419 9.05875 194.948 9.4891 194.259 10.0988Z" fill="#4DC1D0"/>
<path d="M147.453 35.7772C141.18 35.7772 136.358 32.4778 134.582 27.0624C132.696 21.2885 133.603 15.9449 138.171 11.6413C142.993 7.0508 151.658 7.26598 156.734 12.2151C157.459 12.9324 157.532 13.6138 156.879 14.4028C156.154 15.2276 155.465 16.0525 154.74 16.8056C153.761 17.8456 153.435 17.8456 152.383 16.8414C150.969 15.5145 149.41 14.6538 147.416 14.6538C144.951 14.6538 143.174 15.7297 142.123 17.9173C140.89 20.4278 140.781 22.9382 141.797 25.5203C143.464 29.7522 148.214 30.8998 151.694 27.9232C151.912 27.7438 152.13 27.4928 152.347 27.3135C153.435 26.3452 153.87 26.3452 154.885 27.4569C155.574 28.2101 156.19 28.9991 156.879 29.7522C157.604 30.5412 157.495 31.1867 156.77 31.904C154.051 34.5578 150.716 35.7055 147.453 35.7772Z" fill="#3A3A3C"/>
<path d="M254.589 7.51649C252.848 7.51649 251.434 7.51649 249.984 7.51649C247.99 7.51649 245.996 7.51649 244.002 7.51649C242.443 7.48063 242.189 7.26545 242.117 5.79506C242.08 4.89848 242.08 4.0019 242.117 3.14119C242.189 1.92184 242.552 1.63493 243.784 1.52734C243.966 1.52734 244.147 1.52734 244.328 1.52734C249.875 1.52734 255.423 1.52734 260.97 1.52734C262.855 1.52734 263.073 1.74252 262.964 3.57154C262.927 4.43226 262.746 5.3647 262.42 6.15369C259.084 15.1912 255.749 24.2287 252.413 33.2662C251.797 34.9518 251.688 35.0235 249.767 35.0235C248.606 35.0235 247.482 35.0594 246.322 35.0235C244.655 34.9877 244.473 34.7366 245.017 33.2304C247.011 27.8868 249.005 22.5432 251.036 17.1995C252.014 14.5815 253.03 11.9635 253.972 9.34551C254.226 8.87929 254.335 8.34134 254.589 7.51649Z" fill="#4DC1D0"/>
<path d="M25.5604 35.7055C24.9441 35.7055 24.364 35.7414 23.7476 35.7055C22.2249 35.6338 21.8986 35.2034 22.3699 33.8048C23.3125 31.1868 24.2915 28.5687 25.2704 25.9507C27.9896 18.6347 30.7087 11.3544 33.4279 4.03835C34.2981 1.67138 34.4068 1.59965 36.9085 1.56379C37.7424 1.56379 38.6125 1.52793 39.4464 1.56379C41.368 1.63552 41.6218 1.99415 40.9692 3.71558C39.2289 8.41365 37.4886 13.0759 35.7483 17.7739C33.8267 22.9382 31.9052 28.1384 29.9474 33.3027C29.041 35.7055 29.0047 35.7055 26.4306 35.7055C26.1405 35.7055 25.8505 35.7055 25.5604 35.7055Z" fill="#4DC1D0"/>
<path d="M0 7.76789C2.03033 4.71953 4.3507 2.53187 7.75875 1.67116C9.06396 1.34839 10.2967 1.6353 11.4206 2.24497C12.7258 2.96223 13.9585 3.82295 15.2275 4.6478C16.8227 5.68783 17.5116 5.61611 18.853 4.28917C19.2519 3.93054 19.5419 3.46432 19.9045 3.06982C20.267 2.67533 20.6296 2.3167 21.1372 1.74288C22.6599 2.92637 24.0739 4.03813 25.6329 5.22161C24.0376 7.69617 22.3336 9.63278 19.8682 10.8163C17.6929 11.8563 15.5175 11.7128 13.4872 10.4576C12.5808 9.88382 11.7106 9.20242 10.8405 8.59275C9.06396 7.33754 8.01254 7.44513 6.59857 8.95138C4.64075 11.0314 4.64075 11.0314 2.21161 9.38174C1.48649 8.91552 0.833885 8.41343 0 7.76789Z" fill="#4DC1D0"/>
<path d="M41.803 27.8154C44.0146 27.8154 45.8274 29.5369 45.8637 31.7245C45.8999 33.948 44.0146 35.8129 41.7668 35.7771C39.5914 35.7412 37.7786 33.9122 37.7786 31.7604C37.7786 29.6086 39.6277 27.8154 41.803 27.8154Z" fill="#3A3A3C"/>
</g>
<defs>
<clipPath id="clip0">
<rect width="263" height="46" fill="white" transform="translate(0 0.5)"/>
</clipPath>
</defs>
</svg>
