<svg width="61" height="60" viewBox="0 0 61 60" fill="none" xmlns="http://www.w3.org/2000/svg">
<g clip-path="url(#clip0)">
<path d="M46.2258 49.3548C54.2984 47.7837 59.2903 43.7269 59.2903 30C59.2903 18.387 43.0806 0.725701 28.0806 0.7258C8.92686 0.725925 22.0322 14.5161 13.5645 19.5968C6.21216 24.0082 0.499977 24.9112 0.499977 37.0163C0.499977 50.3707 6.35675 54.2879 13.5645 51.7742C20.7722 49.2604 19.9415 59.0322 29.7742 59.0322C40.8633 59.0322 38.1531 50.9259 46.2258 49.3548Z" fill="#F2F8F1"/>
<path d="M20.0195 46.0396C19.6619 45.0021 19.3318 43.9647 19.6894 42.8726C20.047 41.7806 20.1845 40.6612 20.2121 39.5418C20.2671 37.3577 20.2946 35.1736 20.4046 32.9895C20.5146 31.0784 20.6797 29.1945 21.3674 27.3653C21.4499 27.1742 21.4224 26.9285 21.4499 26.6828C21.1748 26.5736 20.9823 26.4917 20.7622 26.4371C19.7169 26.246 18.7541 25.8638 17.8189 25.345C17.2687 25.0447 16.636 24.8263 16.0308 24.6352C15.0681 24.3349 14.1878 23.8707 13.3075 23.352C11.7946 22.5057 10.2817 21.632 8.68619 20.9768C6.59557 20.0758 4.39493 19.3933 2.27681 18.5742C1.94672 18.4377 1.58911 18.3012 1.28652 18.1101C0.90141 17.8644 0.543833 17.1819 0.983962 17.0181C2.80259 16.266 4.81997 15.3006 6.62308 14.5336C7.20075 14.2879 7.83344 14.0968 8.43861 13.933C11.7946 13.032 15.1506 12.1311 18.5066 11.2028C22.6053 10.0562 26.704 8.9095 30.8026 7.73554C32.123 7.35332 33.4434 6.9984 34.7638 6.61618C39.1651 5.3057 43.5664 4.07713 48.0502 3.12158C49.123 2.87586 50.1958 2.76666 51.2686 2.95777C51.6262 3.36729 51.9838 3.74951 52.2864 4.13174C52.424 4.29554 52.589 4.48666 52.644 4.70507C53.0292 6.23395 53.4143 7.76284 53.0842 9.40093C52.2314 13.5781 51.4337 17.7825 50.5809 21.9596C50.0308 24.6625 49.3706 27.3653 48.7654 30.0682C48.7104 30.3685 48.7104 30.6688 48.6829 31.0784C49.013 30.9964 49.2605 30.9691 49.4531 30.8872C51.6262 29.9044 53.7719 28.9215 55.945 27.9387C56.4952 27.693 57.0453 27.4472 57.623 27.3107C58.7233 27.065 59.466 27.693 59.4935 28.8396C59.4935 29.1126 59.4935 29.3857 59.4935 29.6587C59.4935 32.5253 59.466 35.392 59.8787 38.2314C59.9062 38.5044 59.9062 38.7774 59.9062 39.0504C59.9612 40.1971 59.9887 41.3164 60.0437 42.4631C60.1262 43.9647 60.0712 45.4663 59.8236 46.9405C59.6586 48.0053 59.4385 48.1691 58.3932 48.0872C58.2007 48.0599 58.0356 48.0326 57.8431 48.0053C56.3301 47.5958 54.8447 47.1863 53.3317 46.7767C53.0292 46.6948 52.7266 46.6948 52.3965 46.6402C52.0664 47.2136 51.7638 47.705 51.4612 48.2237C50.2508 50.2167 48.6004 51.8821 47.0049 53.5748C46.4272 54.2028 45.6845 54.6942 44.9693 55.1583C44.144 55.7043 43.2363 56.1685 42.3835 56.7145C41.8059 57.124 41.2557 57.2605 40.6505 56.9875C39.8803 56.032 39.5777 55.0218 39.6327 53.9024C39.6327 53.8478 39.6327 53.8205 39.6327 53.7659C39.2751 50.7901 39.4402 47.8688 40.5405 45.0294C40.6505 44.7018 40.8431 44.3469 40.5405 43.9374C40.2104 43.9101 39.8528 43.8828 39.4952 43.8555C39.0826 43.8282 38.67 43.8555 38.2573 43.8009C35.8091 43.3913 33.4434 42.7088 31.1052 41.8352C30.7751 41.6987 30.445 41.5348 30.1425 41.3164C29.8124 41.0707 29.8124 40.6339 30.1149 40.3882C30.39 40.1698 30.7201 39.9786 31.0227 39.8148C32.6182 39.0231 34.2136 38.2314 35.8366 37.4669C36.992 36.8936 38.1473 36.3475 39.2751 35.7742C40.1279 35.3647 41.0081 34.9279 41.8609 34.491C42.0259 34.4091 42.1635 34.218 42.3835 33.9996C41.5858 33.6993 40.8981 33.4263 40.2379 33.1806C39.5502 32.9349 38.945 32.498 38.0923 32.4434C37.2395 33.2079 36.3593 33.9996 35.5065 34.8187C33.9936 36.3475 32.3981 37.7672 30.6926 39.0777C28.9321 40.4428 27.1716 41.8352 25.4661 43.2548C24.2832 44.265 23.0179 45.1659 21.67 45.9577C21.2849 46.1761 20.8998 46.4764 20.157 46.4218C20.157 46.3945 20.0745 46.2307 20.0195 46.0396ZM4.39493 17.7825C4.83506 17.8917 5.3027 17.919 5.74282 18.0555C9.56644 19.3387 13.4451 20.4308 16.8011 22.7241C17.1036 22.9152 17.4337 23.1063 17.7638 23.2428C18.8367 23.6523 19.882 24.0346 21.0098 24.4441C23.1279 22.7514 25.246 21.0314 27.3917 19.366C29.5923 17.6733 31.8205 16.0079 34.0761 14.3425C36.2768 12.7044 38.4774 11.0936 40.678 9.45553C42.8787 7.84474 45.1894 6.39776 47.225 4.48666C46.9774 4.51396 46.7298 4.48666 46.4822 4.54126C45.1618 4.92348 43.8415 5.3057 42.5486 5.71522C38.9725 6.80729 35.3965 7.95395 31.7929 9.04601C28.2994 10.1108 24.7784 11.1482 21.2574 12.1038C17.9014 13.032 14.5179 13.8238 11.1619 14.6701C10.3092 14.8885 9.51143 15.1616 8.71369 15.4892C7.3658 16.0625 5.96289 16.4993 4.58749 17.0181C4.31241 17.1273 4.03733 17.2638 3.56969 17.4822C4.00982 17.646 4.20238 17.7279 4.39493 17.7825ZM48.5728 9.70125C47.5826 10.9025 46.5097 12.0219 45.2994 12.9774C44.9693 13.2231 44.6942 13.5235 44.4191 13.8238C42.6036 15.7349 40.5405 17.4276 38.5049 19.093C36.6619 20.5946 34.9013 22.1781 33.0858 23.7069C32.2881 24.3895 31.4353 24.9901 30.6101 25.6453C30.2525 25.9184 29.8124 26.1095 29.6473 26.6828C34.6263 28.8123 39.6052 30.8872 44.5842 32.9076C45.0793 32.5253 45.0518 32.0339 45.1068 31.5971C45.602 28.4574 46.0421 25.3177 46.6473 22.2054C47.4175 18.1101 48.1602 13.9876 49.3431 9.97426C49.4256 9.67395 49.4531 9.37363 49.5356 9.07331C49.4531 9.01871 49.3706 8.99141 49.2881 8.93681C49.0405 9.18252 48.7929 9.42823 48.5728 9.70125ZM23.5405 25.345C23.5955 26.0003 23.6231 26.5736 23.6506 27.1469C23.6781 27.5565 23.7056 27.966 23.6506 28.3755C23.3755 29.8771 23.5405 31.3787 23.513 32.853C23.513 32.9349 23.5955 32.9895 23.6781 33.1533C23.8156 33.0168 23.9531 32.9349 24.0357 32.7983C24.9985 30.778 25.9612 28.785 26.869 26.7374C27.1991 26.0276 27.6117 25.5361 28.437 25.3723C28.8496 25.2904 29.2897 25.0174 29.6198 24.7171C30.6926 23.8161 31.7379 22.8606 32.8107 21.9323C34.9839 20.0485 37.212 18.2466 39.2751 16.2536C42.1085 13.4962 45.2994 11.0663 47.6101 7.81744C48.1327 7.0803 48.8204 6.45237 49.4256 5.76983C49.6732 5.46951 50.0308 5.2511 50.2233 4.56856C49.5081 5.11459 49.013 5.46951 48.5178 5.85173C46.0146 7.84474 43.5664 9.86506 41.0356 11.8308C37.9547 14.2606 34.8188 16.6358 31.7104 19.0111C28.8221 21.2225 25.7412 23.1882 22.3577 25.2085C22.9629 25.2904 23.293 25.3177 23.5405 25.345ZM50.7185 31.8155C50.3884 31.952 50.0583 32.1431 49.7282 32.2523C48.6279 32.6618 47.6926 33.2625 46.9499 34.1634C46.7298 34.4364 46.4272 34.6822 46.1521 34.9006C45.7395 35.2282 45.2444 35.4193 44.7492 35.1463C44.3091 34.9006 43.979 35.0917 43.5939 35.2555C40.678 36.7025 37.7897 38.1221 34.8738 39.5964C34.2412 39.924 33.5259 40.1425 32.8658 40.6612C33.0858 40.825 33.1959 40.9615 33.3334 41.0161C35.369 41.5075 37.4321 41.999 39.4677 42.5177C40.3479 42.7361 41.0081 42.545 41.6683 41.8625C42.8512 40.6612 44.1716 39.6237 45.5195 38.5863C47.39 37.1393 49.2055 35.5831 50.9936 34.0542C52.0939 33.0987 53.1942 32.1158 54.267 31.1603C54.5971 30.8599 54.8722 30.5323 55.1748 30.2047C55.1198 30.1228 55.0372 30.0409 54.9822 29.9863C53.5518 30.5869 52.1214 31.1876 50.7185 31.8155ZM35.5615 31.2149C33.581 30.2866 31.5729 29.3584 29.5923 28.4574C29.4823 28.4028 29.3172 28.4301 29.1247 28.4028C28.6845 29.3311 28.2719 30.2866 27.8318 31.2422C26.4564 34.3272 24.9985 37.3577 23.293 40.2517C22.7978 41.098 22.7153 42.0263 22.4677 43.2275C27.2266 39.4053 31.6554 35.6104 35.9467 31.4879C35.7816 31.3514 35.6716 31.2695 35.5615 31.2149ZM47.6926 43.9647C47.9127 44.0739 48.1327 44.2377 48.3803 44.2923C50.1133 44.6745 51.8738 45.0294 53.6068 45.439C54.3495 45.6301 55.0647 45.9304 55.8075 46.1761C56.055 46.258 56.3026 46.3126 56.5227 46.3945C56.6052 46.258 56.6877 46.1761 56.6877 46.0942C56.4952 42.1628 56.3851 38.2041 56.5227 34.2726C56.5227 34.218 56.4126 34.1361 56.3576 34.0815C54.5146 35.119 48.9855 41.4256 47.6926 43.9647ZM47.7201 45.2205C47.1974 46.2034 45.602 50.517 45.4094 51.6091C47.1974 49.8891 48.7104 48.1691 50.0308 46.1215C49.233 45.6574 48.4903 45.3844 47.7201 45.2205ZM44.1716 46.0669C44.4191 44.9748 44.9418 44.0466 45.602 43.1729C46.3722 42.1628 47.0874 41.1253 47.8301 40.1152C47.5826 39.7875 47.39 40.006 47.2525 40.1152C46.0696 41.0434 44.8593 41.9171 43.7314 42.8999C43.4288 43.1729 43.1813 43.6917 43.1813 44.0739C43.1538 45.1113 43.2638 46.1215 43.3463 47.3228C43.9515 46.9405 44.0615 46.5037 44.1716 46.0669Z" fill="black"/>
</g>
<defs>
<clipPath id="clip0">
<rect width="60" height="60" fill="white" transform="translate(0.5)"/>
</clipPath>
</defs>
</svg>
