<svg width="60" height="56" viewBox="0 0 60 56" fill="none" xmlns="http://www.w3.org/2000/svg">
<path d="M19.5195 44.0395C19.1619 43.002 18.8318 41.9646 19.1894 40.8725C19.547 39.7805 19.6845 38.6611 19.712 37.5417C19.767 35.3576 19.7945 33.1735 19.9046 30.9894C20.0146 29.0783 20.1797 27.1945 20.8674 25.3652C20.9499 25.1741 20.9224 24.9284 20.9499 24.6827C20.6748 24.5735 20.4822 24.4916 20.2622 24.437C19.2169 24.2459 18.2541 23.8637 17.3188 23.3449C16.7687 23.0446 16.136 22.8262 15.5308 22.6351C14.568 22.3348 13.6878 21.8707 12.8075 21.3519C11.2946 20.5056 9.78162 19.6319 8.18615 18.9767C6.09554 18.0757 3.8949 17.3932 1.77678 16.5742C1.44668 16.4376 1.08908 16.3011 0.786491 16.11C0.401378 15.8643 0.0438005 15.1818 0.483929 15.018C2.30256 14.2659 4.31994 13.3005 6.12305 12.5335C6.70072 12.2878 7.3334 12.0967 7.93858 11.9329C11.2946 11.0319 14.6505 10.131 18.0065 9.20274C22.1052 8.05608 26.2039 6.90941 30.3026 5.73545C31.623 5.35323 32.9434 4.99831 34.2638 4.61608C38.6651 3.30561 43.0664 2.07704 47.5502 1.12149C48.623 0.875773 49.6958 0.766567 50.7686 0.957678C51.1262 1.3672 51.4838 1.74942 51.7864 2.13164C51.9239 2.29545 52.089 2.48656 52.144 2.70498C52.5291 4.23386 52.9142 5.76275 52.5841 7.40084C51.7314 11.578 50.9337 15.7824 50.0809 19.9595C49.5307 22.6624 48.8705 25.3653 48.2654 28.0681C48.2104 28.3684 48.2104 28.6687 48.1828 29.0783C48.5129 28.9964 48.7605 28.9691 48.9531 28.8871C51.1262 27.9043 53.2718 26.9214 55.445 25.9386C55.9951 25.6929 56.5453 25.4472 57.123 25.3106C58.2233 25.0649 58.966 25.6929 58.9935 26.8395C58.9935 27.1125 58.9935 27.3856 58.9935 27.6586C58.9935 30.5252 58.966 33.3919 59.3786 36.2313C59.4061 36.5043 59.4061 36.7773 59.4061 37.0503C59.4611 38.197 59.4886 39.3163 59.5437 40.463C59.6262 41.9646 59.5712 43.4662 59.3236 44.9405C59.1586 46.0052 58.9385 46.169 57.8932 46.0871C57.7006 46.0598 57.5356 46.0325 57.343 46.0052C55.8301 45.5957 54.3446 45.1862 52.8317 44.7766C52.5291 44.6947 52.2265 44.6947 51.8964 44.6401C51.5663 45.2135 51.2637 45.7049 50.9612 46.2236C49.7508 48.2166 48.1003 49.882 46.5049 51.5747C45.9272 52.2027 45.1845 52.6941 44.4693 53.1582C43.644 53.7042 42.7363 54.1684 41.8835 54.7144C41.3058 55.1239 40.7557 55.2604 40.1505 54.9874C39.3803 54.0319 39.0777 53.0217 39.1327 51.9023C39.1327 51.8477 39.1327 51.8204 39.1327 51.7658C38.7751 48.79 38.9401 45.8687 40.0405 43.0293C40.1505 42.7017 40.3431 42.3468 40.0405 41.9373C39.7104 41.91 39.3528 41.8827 38.9952 41.8554C38.5825 41.8281 38.1699 41.8554 37.7573 41.8008C35.3091 41.3913 32.9434 40.7087 30.6052 39.8351C30.2751 39.6986 29.945 39.5347 29.6424 39.3163C29.3123 39.0706 29.3123 38.6338 29.6149 38.3881C29.89 38.1697 30.2201 37.9786 30.5227 37.8147C32.1181 37.023 33.7136 36.2313 35.3366 35.4668C36.4919 34.8935 37.6473 34.3475 38.7751 33.7741C39.6278 33.3646 40.5081 32.9278 41.3609 32.491C41.5259 32.409 41.6634 32.2179 41.8835 31.9995C41.0858 31.6992 40.3981 31.4262 39.7379 31.1805C39.0502 30.9348 38.445 30.4979 37.5922 30.4433C36.7395 31.2078 35.8592 31.9995 35.0065 32.8186C33.4936 34.3475 31.8981 35.7671 30.1926 37.0776C28.4321 38.4427 26.6716 39.8351 24.9661 41.2547C23.7832 42.2649 22.5178 43.1658 21.1699 43.9576C20.7848 44.176 20.3997 44.4763 19.657 44.4217C19.657 44.3944 19.5745 44.2306 19.5195 44.0395ZM3.8949 15.7824C4.33503 15.8916 4.80266 15.9189 5.24279 16.0554C9.06641 17.3386 12.945 18.4307 16.301 20.724C16.6036 20.9151 16.9337 21.1062 17.2638 21.2427C18.3366 21.6522 19.3819 22.0345 20.5098 22.444C22.6279 20.7513 24.746 19.0313 26.8916 17.3659C29.0923 15.6732 31.3204 14.0078 33.5761 12.3424C35.7767 10.7043 37.9774 9.09354 40.178 7.45544C42.3787 5.84465 44.6893 4.39767 46.7249 2.48656C46.4773 2.51387 46.2298 2.48656 45.9822 2.54117C44.6618 2.92339 43.3414 3.30561 42.0486 3.71513C38.4725 4.80719 34.8965 5.95386 31.2929 7.04592C27.7994 8.11068 24.2784 9.14814 20.7573 10.1037C17.4013 11.0319 14.0179 11.8237 10.6619 12.67C9.80913 12.8884 9.01139 13.1615 8.21366 13.4891C6.86577 14.0624 5.46286 14.4992 4.08746 15.018C3.81237 15.1272 3.53729 15.2637 3.06966 15.4821C3.50979 15.6459 3.70234 15.7278 3.8949 15.7824ZM48.0728 7.70116C47.0825 8.90242 46.0097 10.0218 44.7994 10.9773C44.4693 11.2231 44.1942 11.5234 43.9191 11.8237C42.1036 13.7348 40.0405 15.4275 38.0049 17.0929C36.1618 18.5945 34.4013 20.178 32.5858 21.7068C31.7881 22.3894 30.9353 22.99 30.1101 23.6453C29.7525 23.9183 29.3123 24.1094 29.1473 24.6827C34.1262 26.8122 39.1052 28.8871 44.0841 30.9075C44.5793 30.5252 44.5518 30.0338 44.6068 29.597C45.1019 26.4573 45.5421 23.3176 46.1473 20.2053C46.9175 16.11 47.6602 11.9875 48.843 7.97417C48.9256 7.67385 48.9531 7.37354 49.0356 7.07322C48.9531 7.01862 48.8705 6.99132 48.788 6.93671C48.5405 7.18243 48.2929 7.42814 48.0728 7.70116ZM23.0405 23.3449C23.0955 24.0002 23.123 24.5735 23.1505 25.1468C23.178 25.5564 23.2055 25.9659 23.1505 26.3754C22.8754 27.877 23.0405 29.3786 23.013 30.8529C23.013 30.9348 23.0955 30.9894 23.178 31.1532C23.3156 31.0167 23.4531 30.9348 23.5356 30.7983C24.4984 28.7779 25.4612 26.7849 26.369 24.7373C26.6991 24.0275 27.1117 23.536 27.9369 23.3722C28.3495 23.2903 28.7897 23.0173 29.1198 22.717C30.1926 21.8161 31.2379 20.8605 32.3107 19.9322C34.4838 18.0484 36.712 16.2465 38.7751 14.2535C41.6084 11.4961 44.7994 9.06623 47.11 5.81735C47.6327 5.08021 48.3204 4.45227 48.9256 3.76974C49.1731 3.46942 49.5307 3.25101 49.7233 2.56847C49.0081 3.1145 48.5129 3.46942 48.0178 3.85164C45.5146 5.84465 43.0664 7.86497 40.5356 9.83068C37.4547 12.2605 34.3188 14.6357 31.2104 17.011C28.322 19.2224 25.2411 21.1881 21.8576 23.2084C22.4628 23.2903 22.7929 23.3176 23.0405 23.3449ZM50.2184 29.8154C49.8883 29.9519 49.5582 30.143 49.2282 30.2522C48.1278 30.6617 47.1926 31.2624 46.4498 32.1633C46.2298 32.4363 45.9272 32.6821 45.6521 32.9005C45.2395 33.2281 44.7443 33.4192 44.2492 33.1462C43.8091 32.9005 43.479 33.0916 43.0939 33.2554C40.178 34.7024 37.2897 36.1221 34.3738 37.5963C33.7411 37.924 33.0259 38.1424 32.3657 38.6611C32.5858 38.8249 32.6958 38.9614 32.8334 39.016C34.869 39.5074 36.9321 39.9989 38.9677 40.5176C39.8479 40.736 40.5081 40.5449 41.1683 39.8624C42.3511 38.6611 43.6715 37.6236 45.0194 36.5862C46.89 35.1392 48.7055 33.583 50.4935 32.0541C51.5938 31.0986 52.6942 30.1157 53.767 29.1602C54.0971 28.8598 54.3722 28.5322 54.6747 28.2046C54.6197 28.1227 54.5372 28.0408 54.4822 27.9862C53.0518 28.5868 51.6214 29.1875 50.2184 29.8154ZM35.0615 29.2148C33.0809 28.2865 31.0728 27.3583 29.0923 26.4573C28.9822 26.4027 28.8172 26.43 28.6246 26.4027C28.1845 27.331 27.7719 28.2865 27.3317 29.2421C25.9563 32.3271 24.4984 35.3576 22.7929 38.2516C22.2978 39.0979 22.2153 40.0262 21.9677 41.2274C26.7266 37.4052 31.1554 33.6103 35.4466 29.4878C35.2816 29.3513 35.1715 29.2694 35.0615 29.2148ZM47.1926 41.9646C47.4126 42.0738 47.6327 42.2376 47.8803 42.2922C49.6133 42.6744 51.3738 43.0293 53.1068 43.4389C53.8495 43.63 54.5647 43.9303 55.3074 44.176C55.555 44.2579 55.8026 44.3125 56.0226 44.3944C56.1052 44.2579 56.1877 44.176 56.1877 44.0941C55.9951 40.1627 55.8851 36.204 56.0226 32.2725C56.0226 32.2179 55.9126 32.136 55.8576 32.0814C54.0146 33.1189 48.4854 39.4255 47.1926 41.9646ZM47.2201 43.2205C46.6974 44.2033 45.1019 48.517 44.9094 49.609C46.6974 47.889 48.2104 46.169 49.5307 44.1214C48.733 43.6573 47.9903 43.3843 47.2201 43.2205ZM43.6715 44.0668C43.9191 42.9747 44.4418 42.0465 45.1019 41.1728C45.8722 40.1627 46.5874 39.1252 47.3301 38.1151C47.0825 37.7874 46.89 38.0059 46.7524 38.1151C45.5696 39.0433 44.3592 39.917 43.2314 40.8998C42.9288 41.1728 42.6812 41.6916 42.6812 42.0738C42.6537 43.1112 42.7638 44.1214 42.8463 45.3227C43.4515 44.9405 43.5615 44.5036 43.6715 44.0668Z" fill="black"/>
</svg>
