<svg width="60" height="60" viewBox="0 0 60 60" fill="none" xmlns="http://www.w3.org/2000/svg">
<g clip-path="url(#clip0)">
<path d="M45.7258 49.3546C53.7984 47.7835 58.7903 43.7266 58.7903 29.9998C58.7903 18.3868 42.5806 0.725488 27.5806 0.725586C8.42686 0.725711 21.5322 14.5159 13.0645 19.5965C5.71216 24.0079 -2.28882e-05 24.911 -2.28882e-05 37.0161C-2.28882e-05 50.3705 5.85675 54.2877 13.0645 51.7739C20.2722 49.2602 19.4415 59.032 29.2742 59.032C40.3633 59.032 37.6531 50.9257 45.7258 49.3546Z" fill="#F1F8FE"/>
<g clip-path="url(#clip1)">
<g clip-path="url(#clip2)">
<path d="M28.183 58.2631C27.9171 57.124 27.6511 55.9849 27.4403 54.8617C27.3758 54.57 27.5641 54.2303 27.6616 53.8946C28.3021 51.8964 29.3035 50.0941 30.4068 48.3517C29.4672 47.1685 28.4569 46.8446 27.1658 47.0761C24.7375 47.5232 23.5434 49.2695 22.7716 51.4116C22.3638 52.5066 22.1212 53.6496 21.4738 54.6446C20.3704 56.387 18.9631 57.7375 16.9832 58.2847C15.5251 58.68 14.0495 58.8276 12.5888 58.6154C11.8682 58.5274 11.1882 58.2994 10.487 58.2473C9.29342 58.1431 8.11114 58.1029 6.92886 58.0627C6.39277 58.0586 5.91799 58.2543 5.48514 58.6139C5.21116 58.8377 4.80769 58.9934 4.44488 59.0094C3.51032 59.0411 3.28259 58.4895 3.68851 57.6063C4.50849 55.812 5.78953 54.4854 7.44591 53.5105C7.51722 53.4706 7.62419 53.4106 7.69549 53.3707C9.39253 52.256 10.3207 50.7055 10.2681 48.6272C10.2367 47.7079 10.2686 46.7767 10.1741 45.8694C9.85862 42.7439 10.9694 40.1543 13.0743 37.9445C13.7667 37.2053 14.6111 36.6619 15.4249 36.0186C15.6551 35.8428 15.8497 35.687 16.2306 35.4033C14.6035 34.8394 13.8196 33.4284 12.5072 32.5009C12.0762 32.6487 11.6371 32.8244 11.1786 32.9642C9.02047 33.6112 6.87364 34.3222 4.70429 34.9052C3.75973 35.1768 2.79452 35.1087 1.90933 34.457C1.42381 32.7383 1.3011 31.0037 1.79392 29.2053C1.96965 28.4979 2.03216 27.6666 2.25981 26.8833C3.48123 22.4752 6.32227 19.4783 10.3832 17.6247C11.6536 17.0534 12.9629 16.5541 14.2834 16.1188C16.6554 15.3519 19.0737 15.1446 21.4552 15.9884C22.2096 16.2683 22.7783 16.1606 23.3944 15.5812C26.4944 12.7202 29.9097 10.3149 33.5159 8.17745C34.8157 7.40236 36.1656 6.76318 37.5349 6.15997C39.9331 5.09737 42.3783 4.07873 44.8154 3.08808C45.9983 2.61272 47.275 2.22532 48.4691 1.81391C48.8369 1.6781 49.2354 1.64222 49.5644 1.43446C50.2225 1.01895 50.8818 0.907181 51.6137 1.05921C52.5658 1.27524 53.4659 1.5672 54.1016 2.35868C54.4525 2.7944 54.7515 3.30605 55.0231 3.80969C55.6775 5.15273 55.9284 6.65155 56.1875 8.1224C56.8651 11.7476 56.7071 15.3725 56.0567 18.9455C55.6722 20.9877 55.0592 22.9939 54.3994 24.9562C53.4438 27.8336 51.8682 30.3792 50.1355 32.8488C48.9821 34.4552 47.8287 36.0616 46.6672 37.696C46.5115 37.9238 46.3751 38.1876 46.2306 38.4793C46.4927 38.7071 46.6723 38.911 46.9313 39.047C48.9706 40.2464 49.6551 42.205 49.821 44.4072C49.9023 45.4623 49.7391 46.5374 49.5841 47.5845C49.3671 48.9474 48.7729 50.1702 47.8922 51.2491C46.6725 52.7756 45.414 54.2302 43.7607 55.2969C41.8416 56.5595 39.7642 57.4423 37.5142 57.7895C34.6129 58.2205 31.7186 58.3198 28.7773 58.3751C28.5958 58.3831 28.4113 58.2991 28.183 58.2631ZM41.7099 7.91943C41.0293 8.20705 40.4557 8.43474 39.9209 8.73437C38.8431 9.36163 37.7378 9.98088 36.6988 10.6801C32.6855 13.397 28.8742 16.4456 25.3945 19.8941C23.5849 21.7042 21.7947 23.5503 19.9657 25.3244C18.8842 26.3753 17.7639 27.3543 16.6824 28.4052C16.4279 28.6649 16.0776 29.0485 16.1145 29.3323C16.1333 29.8838 16.2816 30.5034 16.5694 30.9511C17.3939 32.2222 18.3529 33.4414 19.307 34.7805C20.3029 34.9486 21.365 35.1966 22.4322 35.3247C24.2476 35.5489 25.8065 36.2447 27.0439 37.6358C27.2234 37.8397 27.4661 38.0316 27.6895 38.1875C29.7445 39.8466 30.6717 41.997 30.4354 44.6588C30.3847 45.0385 30.3697 45.3982 30.3466 45.7858C30.5975 45.9498 30.8289 46.0777 30.9972 46.2176C31.7529 46.8013 32.4948 46.7135 33.2598 46.2381C33.4381 46.1382 33.6082 46.0663 33.759 45.9584C35.127 45.0515 36.4675 44.1365 37.8549 43.2655C38.3622 42.9579 38.7481 42.5543 39.1146 42.1148C42.4298 38.1028 45.3177 33.8149 47.9547 29.3631C49.4915 26.7456 50.6705 24.0241 51.4335 21.0907C51.658 20.2155 51.748 19.3922 51.1399 18.6087C50.9022 18.2969 50.7358 17.9451 50.5969 17.6014C49.7116 15.6148 48.2071 14.1157 46.6863 12.6726C45.748 11.7931 44.8096 10.9136 43.8794 10.0062C43.2469 9.30662 42.535 8.67499 41.7099 7.91943ZM8.3919 56.2125C8.54078 56.3165 8.59896 56.4244 8.65401 56.4404C9.68554 56.5885 10.7365 56.7726 11.773 56.8008C12.7188 56.8329 13.6972 56.7532 14.6173 56.5656C16.2049 56.2382 17.3722 55.3032 18.2241 53.9125C18.792 52.9854 19.0653 51.9423 19.3305 50.9272C19.747 49.2887 20.5989 47.898 21.7486 46.7152C22.1264 46.3396 22.5204 45.908 22.9871 45.7403C23.8929 45.3968 24.4702 44.7454 25.1107 44.0821C25.568 43.6386 25.6949 43.099 25.6292 42.5035C25.4996 41.1006 25.1449 39.7537 24.5649 38.4626C23.9155 36.9997 22.7032 36.3439 21.2037 36.0599C20.9754 36.0238 20.7033 36.0358 20.525 36.1356C19.4829 36.7429 18.3275 37.2263 17.4731 38.0094C14.8059 40.5108 13.3286 43.54 13.6659 47.309C13.7636 48.3082 13.7349 49.3313 13.7062 50.3545C13.6412 51.9132 12.9838 53.148 11.7147 54.023C11.1554 54.4066 10.5768 54.7542 10.0064 55.0738C9.45527 55.4294 8.84601 55.677 8.3919 56.2125ZM34.6098 48.2687C34.1846 50.4508 33.2364 52.481 32.24 54.1634C31.8278 54.8627 31.3881 55.554 30.9403 56.2733C30.812 56.5091 30.7389 56.7609 30.5781 57.1086C32.2108 57.037 33.667 56.8535 35.1202 56.578C38.8753 55.8794 41.6763 53.8417 43.6998 50.5768C44.7593 48.8824 45.3898 47.124 45.2577 45.1136C45.237 44.7739 45.2439 44.4422 45.2864 44.0905C45.3314 43.0114 45.1236 41.9802 44.7895 40.9729C44.7282 40.7731 44.568 40.6052 44.4354 40.4453C44.2653 40.5172 44.1664 40.5491 44.0951 40.5891C43.9006 40.7449 43.7336 40.9087 43.5666 41.0726C42.0829 42.583 40.6849 44.2094 38.8033 45.2401C38.625 45.34 38.5212 45.4918 38.3898 45.6357C37.2921 46.7426 36.1086 47.7335 34.6098 48.2687ZM4.10613 32.547C5.33592 32.1157 6.313 31.7322 7.32886 31.4207C8.34473 31.1091 9.37186 30.8616 10.3796 30.578C10.6048 30.5221 10.9175 30.3703 10.9582 30.2304C11.1502 29.4671 11.8746 29.1315 12.1798 28.4921C13.1199 26.49 14.5729 24.8796 16.0065 23.2333C17.4239 21.6429 18.8607 20.0885 20.2975 18.5341C20.5164 18.2943 20.6803 18.0386 20.9317 17.6869C20.1385 17.335 19.4079 17.4867 18.7292 17.5625C16.1795 17.9137 13.8413 18.8724 11.6032 20.1029C10.0425 20.9539 8.66447 22.1006 7.59863 23.6111C5.7428 26.1966 4.91976 29.2339 4.10613 32.547ZM43.3012 7.16839C43.4464 7.69599 43.9255 7.89593 44.2896 8.18377C45.2605 8.95135 46.2314 9.71893 47.1942 10.5145C47.699 10.9342 48.1794 11.4379 48.7199 11.8377C49.5113 12.4014 50.1957 13.0251 50.7681 13.8285C51.0834 14.2842 51.4537 14.7559 52.0593 14.9319C52.1631 14.7801 52.2863 14.6642 52.2913 14.5443C52.3269 13.1894 52.4175 11.8505 52.1891 10.4796C51.9301 9.00875 51.7342 7.52592 51.5108 6.0351C51.4063 5.36763 51.2661 4.72013 51.0984 4.06463C51.0258 3.80083 50.8544 3.56899 50.6993 3.28119C50.4109 3.34907 50.1663 3.369 49.9605 3.46088C47.8456 4.57551 45.7226 5.71811 43.5996 6.86071C43.4732 6.88466 43.3969 7.04452 43.3012 7.16839Z" fill="black"/>
<path d="M37.0341 31.7108C35.9169 31.4468 34.8372 30.9509 33.79 30.3432C32.2054 29.4276 31.1056 28.0765 30.2961 26.4457C29.6723 25.2026 29.656 23.9236 30.2033 22.6568C30.8594 21.1182 31.6369 19.6755 32.8416 18.5088C36.1737 15.2601 41.0628 14.254 44.9921 17.0646C45.607 17.5163 46.2219 17.9681 46.7493 18.5158C47.3511 19.1154 47.7033 19.8549 47.2618 20.758C47.0654 21.1257 47.1054 21.5014 47.2362 21.8731C47.3088 22.1369 47.4007 22.4367 47.4376 22.7204C47.7868 24.7029 47.4867 26.5573 46.2813 28.2397C45.8823 28.7911 45.5107 29.3506 45.0648 29.8581C43.1607 32.0958 40.7324 32.5429 38.025 31.9988C37.7416 31.9468 37.4195 31.8228 37.0341 31.7108ZM44.2271 18.8749C43.8549 18.615 43.4439 18.2832 43.0248 17.9794C42.1671 17.3357 41.2344 17.1557 40.196 17.3393C37.7677 17.7864 35.9668 19.053 34.816 21.2669C34.415 22.0302 33.9591 22.7775 33.8446 23.6847C33.5877 26.0067 34.4861 27.8454 36.1883 29.2806C37.3937 30.2681 38.7975 30.676 40.3482 30.0649C41.0838 29.7933 41.7143 29.3697 42.2673 28.8023C43.6359 27.3798 44.2582 25.6493 44.5195 23.723C44.6846 22.4361 44.8497 21.1492 44.1628 19.918C44.0107 19.7222 44.1877 19.3185 44.2271 18.8749Z" fill="black"/>
<path d="M34.7323 23.6091C35.1976 21.8027 36.2922 20.6039 37.7622 19.7569C39.1171 18.9978 40.5083 19.0381 41.8176 19.8737C41.9665 19.9777 42.1429 20.0896 42.248 20.2415C42.7622 20.937 43.2489 21.6246 43.7275 22.3401C44.2255 23.0916 44.4789 23.863 43.809 24.7301C43.4181 25.2536 43.1954 25.917 42.8708 26.5205C41.8744 28.2029 40.3218 29.0259 37.7877 28.5017C36.4891 28.2457 35.5651 27.5221 34.9689 26.287C34.5197 25.3676 34.3701 24.4443 34.7323 23.6091ZM37.7074 23.7456C37.3871 24.7447 37.5367 25.668 37.9584 26.5794C38.1942 27.103 38.654 27.2669 39.1338 26.9513C39.4628 26.7436 39.8 26.5078 40.0076 26.2041C40.8983 24.8854 41.1591 23.4746 40.6798 21.9398C40.6073 21.676 40.444 21.4161 40.3082 21.1643C40.098 20.8605 39.7515 20.8205 39.4337 21.0922C38.5874 21.8474 38.1377 22.7785 37.7074 23.7456Z" fill="black"/>
</g>
</g>
</g>
<defs>
<clipPath id="clip0">
<rect width="60" height="60" fill="white"/>
</clipPath>
<clipPath id="clip1">
<rect width="68.3332" height="71.7604" fill="white" transform="translate(5.02698 -14.2314) rotate(16.2054)"/>
</clipPath>
<clipPath id="clip2">
<rect width="51.2499" height="68.9572" fill="white" transform="translate(13.0245 -10.1558) rotate(16.2054)"/>
</clipPath>
</defs>
</svg>
