<svg width="106" height="69" viewBox="0 0 106 69" fill="none" xmlns="http://www.w3.org/2000/svg">
<path d="M71.1971 13.7518C71.489 13.7518 71.7372 13.5036 71.7372 13.2117V10.8467C71.7372 10.5547 71.5036 10.3066 71.1971 10.3066H65.4014C65.1095 10.3066 64.8613 10.0584 64.8613 9.76642V3.9854C64.8613 3.69343 64.6131 3.44526 64.3212 3.44526H61.9708C61.6788 3.44526 61.4306 3.19708 61.4306 2.90511V0.540146C61.4306 0.233576 61.1825 0 60.8905 0H44.7737C44.4817 0 44.2336 0.20438 44.2336 0.437956C44.2336 0.686131 44.2336 2.89051 44.2336 2.89051C44.2336 3.19708 43.9854 3.43066 43.6934 3.43066H41.3431C41.0511 3.43066 40.8029 3.67883 40.8029 3.9708V9.78102C40.8029 10.073 40.5547 10.3212 40.2628 10.3212H34.4671C34.1752 10.3212 33.927 10.5693 33.927 10.8613V13.2263C33.927 13.5182 34.1752 13.7664 34.4671 13.7664H71.1971V13.7518Z" fill="#00AFAA"/>
<path d="M75.1825 44.1605C75.1825 44.4671 75.4306 44.7007 75.7226 44.7007H78.073C78.3649 44.7007 78.6131 44.4671 78.6131 44.1605V41.8102C78.6131 41.5036 78.3649 41.27 78.073 41.27H75.7226C75.4306 41.27 75.1825 41.5036 75.1825 41.8102V44.1605Z" fill="#000F9F"/>
<path d="M79.1679 13.7666C78.8759 13.7666 78.6277 14.0148 78.6277 14.3067V16.6571C78.6277 16.9491 78.8759 17.1973 79.1679 17.1973H81.5183C81.8102 17.1973 82.0584 17.4454 82.0584 17.7374V20.0878C82.0584 20.3797 82.3066 20.6279 82.5985 20.6279H84.9489C85.2409 20.6279 85.4891 20.3797 85.4891 20.0878V14.3067C85.4891 14.0148 85.2409 13.7666 84.9489 13.7666H79.1679Z" fill="#000F9F"/>
<path d="M20.7007 13.7666C20.4088 13.7666 20.1606 14.0148 20.1606 14.3067V20.1024C20.1606 20.3943 20.4088 20.6425 20.7007 20.6425H23.0511C23.3431 20.6425 23.5912 20.3943 23.5912 20.1024V17.752C23.5912 17.46 23.8394 17.2119 24.1314 17.2119H26.4818C26.7737 17.2119 27.0219 16.9783 27.0219 16.6717V14.3067C27.0219 14.0148 26.7737 13.7666 26.4818 13.7666H20.7007Z" fill="#000F9F"/>
<path d="M68.8321 44.7009C68.5402 44.7009 68.3066 44.4527 68.3066 44.1608V38.3652C68.3066 38.0732 68.0584 37.825 67.7664 37.825H65.4161C65.1241 37.825 64.8759 37.5768 64.8759 37.2849V31.4892C64.8759 31.1973 64.6277 30.9491 64.3358 30.9491H61.9854C61.6934 30.9491 61.4453 30.7009 61.4453 30.4089V30.2046C61.4453 29.9126 61.4453 29.6644 61.4453 29.6644C61.4453 29.6644 61.4453 29.4163 61.4453 29.1243V28.0586C61.4453 27.7666 61.1971 27.5184 60.9051 27.5184H58.5548C58.2628 27.5184 58.0146 27.2703 58.0146 26.9783V21.1681C58.0146 20.8761 57.7664 20.6279 57.4745 20.6279H48.2482C47.9562 20.6279 47.708 20.8761 47.708 21.1681V26.9637C47.708 27.2557 47.5475 27.5038 47.3431 27.5038C47.1387 27.5038 44.8029 27.5038 44.8029 27.5038C44.511 27.5038 44.2628 27.752 44.2628 28.044V30.3944C44.2628 30.6863 44.0146 30.9345 43.7226 30.9345H41.3723C41.0803 30.9345 40.8321 31.1827 40.8321 31.4746V37.2703C40.8321 37.5622 40.6423 37.8104 40.3942 37.8104C40.1606 37.8104 37.927 37.8104 37.927 37.8104C37.635 37.8104 37.3869 38.044 37.3869 38.3506V44.1462C37.3869 44.4381 37.1387 44.6863 36.8467 44.6863H31.0511C30.7591 44.6863 30.511 44.9345 30.511 45.2265V47.5768C30.511 47.8688 30.7591 48.117 31.0511 48.117H40.2774C40.584 48.117 40.8175 47.8688 40.8175 47.5768V41.7812C40.8175 41.4892 41.0511 41.2411 41.3577 41.2411H43.7226C44.0146 41.2411 44.2628 40.9929 44.2628 40.7009V34.9053C44.2628 34.6133 44.511 34.3652 44.8029 34.3652H47.1533C47.4599 34.3652 47.6934 34.1316 47.6934 33.825V31.4746C47.6934 31.1827 47.9416 30.9345 48.2336 30.9345C48.2336 30.9345 57.1533 30.9345 57.4599 30.9345H57.4745C57.7664 30.9345 58.0146 31.1681 58.0146 31.4746V33.825C58.0146 34.1316 58.2628 34.3652 58.5548 34.3652H60.9051C61.1971 34.3652 61.4453 34.6133 61.4453 34.9053V40.7301C61.4453 41.0221 61.6934 41.2703 61.9854 41.2703H64.3358C64.6277 41.2703 64.8759 41.5184 64.8759 41.8104V47.606C64.8759 47.898 65.1241 48.1462 65.4161 48.1462H74.6423C74.9489 48.1462 75.1825 47.898 75.1825 47.606V45.2557C75.1825 44.9637 74.9343 44.7155 74.6423 44.7155C74.6423 44.7009 69.1241 44.7009 68.8321 44.7009Z" fill="#000F9F"/>
<path d="M27.0365 44.161C27.0365 44.4676 27.2847 44.7012 27.5766 44.7012H29.927C30.219 44.7012 30.4672 44.4676 30.4672 44.161V41.8107C30.4672 41.5041 30.219 41.2705 29.927 41.2705H27.5766C27.2701 41.2705 27.0365 41.5041 27.0365 41.8107V44.161V44.161Z" fill="#000F9F"/>
<path d="M75.1825 30.4089C75.1825 30.7009 74.9343 30.9491 74.6423 30.9491H68.8467C68.5401 30.9491 68.3066 30.7009 68.3066 30.4089V24.6133C68.3066 24.3068 68.0584 24.0732 67.7664 24.0732H65.4161C65.1241 24.0732 64.8759 24.3214 64.8759 24.6133V26.9637C64.8759 27.2703 64.6277 27.5038 64.3358 27.5038H61.9854C61.6934 27.5038 61.4453 27.2557 61.4453 26.9637V21.1681C61.4453 20.8761 61.6934 20.6279 61.9854 20.6279H78.0876C78.3796 20.6279 78.6277 20.8761 78.6277 21.1681V26.9637C78.6277 27.2703 78.3796 27.5038 78.0876 27.5038H75.7372C75.4452 27.5038 75.1971 27.752 75.1971 28.044V30.4089H75.1825Z" fill="#000F9F"/>
<path d="M30.4818 30.4089C30.4818 30.7009 30.7299 30.9491 31.0219 30.9491H36.8175C37.1095 30.9491 37.3577 30.7009 37.3577 30.4089V24.6133C37.3577 24.3068 37.5912 24.0732 37.8978 24.0732H40.2628C40.5547 24.0732 40.8029 24.3214 40.8029 24.6133V26.9637C40.8029 27.2703 41.0511 27.5038 41.3431 27.5038H43.6934C43.9854 27.5038 44.2336 27.2557 44.2336 26.9637V21.1681C44.2336 20.8761 43.9854 20.6279 43.6934 20.6279H27.5766C27.2701 20.6279 27.0365 20.8761 27.0365 21.1681V26.9637C27.0365 27.2703 27.2847 27.5038 27.5766 27.5038H29.927C30.219 27.5038 30.4672 27.752 30.4672 28.044V30.4089H30.4818Z" fill="#000F9F"/>
<path d="M13.6058 62.1753L13.854 62.1461C13.8686 62.1461 13.8686 62.1461 13.8686 62.1461C13.8686 62.1461 13.8686 62.1315 13.8686 62.1023V61.3578C13.8686 61.314 13.8686 61.314 13.8248 61.314H11.3431C11.2993 61.314 11.2993 61.314 11.2993 61.3578V62.1023C11.2993 62.1461 11.3139 62.1607 11.3431 62.1607L11.5766 62.1899C11.708 62.2045 11.8248 62.2337 11.854 62.3651V65.9125C11.854 66.8176 11.4307 67.2702 10.5547 67.2702H10.5255C9.64964 67.2702 9.21168 66.8322 9.21168 65.9125V62.3797C9.24088 62.2337 9.35767 62.2191 9.48905 62.1899L9.72263 62.1607C9.75183 62.1607 9.76643 62.1461 9.76643 62.1023V61.3578C9.76643 61.314 9.76643 61.314 9.72263 61.314H7.24088C7.19708 61.314 7.19708 61.314 7.19708 61.3578V62.1023C7.19708 62.1169 7.19708 62.1169 7.19708 62.1315C7.19708 62.1461 7.19708 62.1461 7.19708 62.1461C7.19708 62.1461 7.19708 62.1461 7.22628 62.1461L7.47445 62.1753C7.67883 62.2045 7.75183 62.2629 7.76643 62.4089L7.78102 62.4672V65.9125C7.78102 67.5183 8.48175 68.1607 10.1898 68.1607C10.1898 68.1607 10.2336 68.1607 10.3066 68.1607C10.5255 68.1607 10.9781 68.1461 11.4307 68.0293C11.8686 67.9125 13.2701 67.4162 13.2701 65.9125V62.4089H13.2847C13.3285 62.2629 13.4015 62.2045 13.6058 62.1753Z" fill="#000F9F"/>
<path d="M4.10219 64.4962L2.0292 63.9415C1.56204 63.8101 1.38686 63.5327 1.38686 62.9633C1.38686 62.2188 1.91241 62.1604 2.72993 62.1604C3.18248 62.1604 3.54744 62.2042 3.78102 62.2334H3.82482L4.0292 63.1385C4.05839 63.2553 4.08759 63.2845 4.21898 63.2845H4.77372C4.83212 63.2845 4.87591 63.2553 4.89051 63.1385L4.9781 61.5473C4.9927 61.4597 4.9927 61.4159 4.87591 61.3867C4.52555 61.2991 3.35766 61.2407 2.59854 61.2407C0.890511 61.2407 0.0729927 61.5035 0.0729927 63.0509C0.0729927 63.8685 0.189781 64.7444 1.06569 64.9779L3.08029 65.5473C3.54745 65.6787 3.79562 65.7663 3.79562 66.3356C3.79562 67.1239 3.0511 67.1239 2.11679 67.1239C1.62044 67.1239 0.992701 67.0509 0.540146 66.9926C0.379562 66.9634 0.218978 66.9488 0.116788 66.9342C0.10219 66.9342 0.0875916 66.9342 0.0875916 66.9342C0.0291974 66.9342 0 66.9633 0 67.0217V67.8539C0 67.9269 0.0291971 67.9415 0.0729927 67.9561C0.744525 68.1312 1.83942 68.1458 2.43796 68.1458C4.32117 68.1458 5.15328 67.5473 5.15328 66.2042C5.13869 65.2261 4.81752 64.7006 4.10219 64.4962Z" fill="#000F9F"/>
<path d="M24.0876 61.2993H22.1606C22.0876 61.2993 22.073 61.3285 22.0292 61.4161L20.0438 65.8833L18.2044 61.6205C18.1022 61.4161 18.0146 61.2993 17.854 61.2993H16.1022C16.0584 61.2993 16.0438 61.3139 16.0438 61.3723V62.073C16.0438 62.1314 16.073 62.1314 16.0876 62.1314L16.292 62.1606C16.5402 62.2044 16.5402 62.4234 16.5402 62.5256V66.9344C16.5402 67.1095 16.4672 67.1825 16.2774 67.2117L16.073 67.2409C16.0584 67.2409 16.0438 67.2409 16.0438 67.2993V68C16.0438 68 16.0438 68.0438 16.0876 68.0438H17.9562C18 68.0438 18 68 18 68V67.2993C18 67.2555 17.9854 67.2409 17.9562 67.2409L17.7519 67.2117C17.5475 67.1825 17.4891 67.1095 17.4891 66.9344V63.1533L19.5037 67.7811C19.5329 67.8395 19.5913 67.8833 19.6643 67.8833H20.0292C20.1168 67.8833 20.146 67.8395 20.1898 67.7665L22.1898 63.1533V66.8906C22.1898 67.0949 22.0584 67.1387 21.854 67.1679L21.6205 67.1971C21.5767 67.1971 21.5767 67.1971 21.5767 67.2555V68.0146C21.5767 68.0438 21.5767 68.0584 21.6351 68.0584H24.0876C24.1314 68.0584 24.146 68.0584 24.146 68V67.2555C24.146 67.2409 24.146 67.2117 24.146 67.1971C24.146 67.1971 24.1314 67.1971 24.1022 67.1825L23.8686 67.1679C23.6497 67.1533 23.5767 67.0803 23.5767 66.8906V62.4088C23.5767 62.2336 23.6497 62.1606 23.8686 62.1314L24.1022 62.1022C24.1314 62.1022 24.146 62.073 24.146 62.0438V61.3431C24.146 61.3431 24.146 61.2993 24.0876 61.2993Z" fill="#000F9F"/>
<path d="M51.3431 62.1753L51.5912 62.1461C51.6058 62.1461 51.6058 62.1461 51.6058 62.1461C51.6058 62.1461 51.6058 62.1315 51.6058 62.1023V61.3578C51.6058 61.314 51.6058 61.314 51.562 61.314H49.0803C49.0365 61.314 49.0365 61.314 49.0365 61.3578V62.1023C49.0365 62.1461 49.0511 62.1607 49.0803 62.1607L49.3139 62.1899C49.4452 62.2045 49.562 62.2337 49.5912 62.3651V65.9125C49.5912 66.8176 49.1679 67.2702 48.292 67.2702H48.2628C47.3868 67.2702 46.9489 66.8322 46.9489 65.9125V62.3797C46.9781 62.2337 47.0949 62.2191 47.2263 62.1899L47.4598 62.1607C47.489 62.1607 47.5036 62.1461 47.5036 62.1023V61.3578C47.5036 61.314 47.5036 61.314 47.4598 61.314H44.9781C44.9343 61.314 44.9343 61.314 44.9343 61.3578V62.1023C44.9343 62.1169 44.9343 62.1169 44.9343 62.1315C44.9343 62.1461 44.9343 62.1461 44.9343 62.1461C44.9343 62.1461 44.9343 62.1461 44.9635 62.1461L45.1971 62.1753C45.4014 62.2045 45.4744 62.2629 45.489 62.4089L45.5036 62.4672V65.9125C45.5036 67.5183 46.2044 68.1607 47.9124 68.1607C47.9124 68.1607 47.9562 68.1607 48.0292 68.1607C48.2628 68.1607 48.7007 68.1461 49.1533 68.0293C49.5912 67.9125 50.9781 67.4162 50.9781 65.9125V62.4089H50.9927C51.0657 62.2629 51.1387 62.2045 51.3431 62.1753Z" fill="#000F9F"/>
<path d="M42.0438 64.4967L39.9854 63.9419C39.5183 63.8106 39.3285 63.5332 39.3285 62.9638C39.3285 62.2193 39.854 62.1609 40.6715 62.1609C41.0219 62.1609 41.3577 62.1901 41.7226 62.2339H41.7664L41.9708 63.139C41.9854 63.2558 42.0292 63.285 42.1606 63.285H42.7153C42.7883 63.285 42.8175 63.2558 42.8321 63.139L42.9343 61.5478C42.9489 61.4602 42.9489 61.4164 42.8321 61.3872C42.4818 61.2996 41.3139 61.2412 40.5548 61.2412C38.8467 61.2412 38.0292 61.504 38.0292 63.0514C38.0292 63.8689 38.146 64.7449 39.0219 64.9784L41.0365 65.5478C41.5037 65.6792 41.7518 65.7668 41.7518 66.3361C41.7518 67.1244 41.0073 67.1244 40.073 67.1244C39.5767 67.1244 38.9489 67.0514 38.4964 66.993C38.3358 66.9638 38.1898 66.9492 38.073 66.9346C38.0584 66.9346 38.0438 66.9346 38.0292 66.9346C37.9708 66.9346 37.9416 66.9638 37.9416 67.0222V67.8543C37.9416 67.9273 37.9562 67.9419 38.0146 67.9565C38.6861 68.1317 39.781 68.1463 40.3796 68.1463C42.2628 68.1463 43.0949 67.5478 43.0949 66.2047C43.0803 65.2266 42.7737 64.7011 42.0438 64.4967Z" fill="#000F9F"/>
<path d="M58.2482 64.4526L58.4671 64.3796C58.9927 64.1898 59.2993 63.7081 59.2993 63.0949V62.9052C59.2993 61.5475 58.6423 61.2993 57.3431 61.2993H53.7956C53.7518 61.2993 53.7372 61.3431 53.7372 61.3431V62.1168C53.7372 62.1606 53.7518 62.1752 53.781 62.1752L54.0146 62.2044C54.2336 62.2336 54.3066 62.3066 54.3066 62.4818V66.8614C54.3066 67.0511 54.2482 67.1095 54.0146 67.1387L53.781 67.1679C53.7372 67.1679 53.7372 67.1971 53.7372 67.2263V68C53.7372 68 53.7372 68.0438 53.7956 68.0438H56.6715C58.9051 68.0438 59.6934 67.5329 59.6934 66.1022V65.8687C59.6934 65.0657 59.2409 64.5402 58.4817 64.4672L58.2482 64.4526ZM55.7372 62.2628H57.0511C57.7226 62.2628 58.0146 62.4818 58.0146 63.0073V63.1679C58.0146 63.7081 57.6642 64 57.0365 64H55.7372V62.2628V62.2628ZM58.2774 66.1898C58.2774 66.9198 57.708 67.0657 56.7883 67.0657H55.7372V64.9636H56.8321C57.5036 64.9636 58.2774 65.0657 58.2774 65.8395V66.1898Z" fill="#000F9F"/>
<path d="M65.9416 64.4967L63.8832 63.9419C63.4161 63.8106 63.2409 63.5332 63.2409 62.9638C63.2409 62.2193 63.781 62.1609 64.5839 62.1609C65.0365 62.1609 65.4015 62.2047 65.635 62.2339H65.6642L65.8686 63.139C65.8978 63.2558 65.927 63.285 66.0584 63.285H66.6131C66.6861 63.285 66.7299 63.2558 66.7299 63.139L66.8321 61.5478C66.8467 61.4602 66.8467 61.4164 66.7299 61.3872C66.3796 61.2996 65.2117 61.2412 64.4526 61.2412C62.7445 61.2412 61.927 61.504 61.927 63.0514C61.927 63.8689 62.0438 64.7449 62.9197 64.9784L64.9343 65.5478C65.3869 65.6792 65.6496 65.7814 65.6496 66.3361C65.6496 67.1244 64.9051 67.1244 63.9708 67.1244C63.4745 67.1244 62.8467 67.0514 62.3942 66.993C62.2336 66.9638 62.0876 66.9492 61.9562 66.9346C61.9416 66.9346 61.927 66.9346 61.927 66.9346C61.8686 66.9346 61.8394 66.9638 61.8394 67.0222V67.8543C61.8394 67.9273 61.8686 67.9419 61.9124 67.9565C62.5839 68.1317 63.6788 68.1463 64.2774 68.1463C66.1606 68.1463 66.9927 67.5478 66.9927 66.2047C66.9781 65.2266 66.6569 64.7011 65.9416 64.4967Z" fill="#000F9F"/>
<path d="M74.8467 61.2993H69.0073C68.9635 61.2993 68.9635 61.2993 68.9635 61.3869L69.0365 63.2117C69.0511 63.2847 69.0657 63.2847 69.1387 63.2847H69.8248C69.8686 63.2847 69.8978 63.2555 69.9124 63.1971L70.073 62.365C70.0876 62.2774 70.1606 62.2044 70.2482 62.2044L71.2117 62.1752V66.8614C71.2117 67.0511 71.1241 67.1241 70.9197 67.1387L70.4088 67.1971C70.3796 67.1971 70.365 67.2117 70.365 67.2701V68.0146C70.365 68.0438 70.365 68.0584 70.4088 68.0584H73.4453C73.489 68.0584 73.5036 68.0292 73.5036 68.0146V67.2555C73.5036 67.2263 73.489 67.2117 73.4453 67.1971L72.9343 67.1387C72.7153 67.1241 72.6423 67.0511 72.6423 66.8614V62.1752L73.6058 62.2044C73.6934 62.2044 73.7664 62.2628 73.781 62.365L73.9416 63.1971C73.9562 63.2555 73.9854 63.2847 74.0292 63.2847H74.7299C74.8029 63.2847 74.8175 63.2847 74.8321 63.1971L74.9051 61.3723C74.8905 61.2993 74.8905 61.2993 74.8467 61.2993Z" fill="#000F9F"/>
<path d="M82.7299 68.0438C82.7591 68.0438 82.7591 68.0146 82.7591 68V67.2409C82.7591 67.2117 82.7591 67.1971 82.7153 67.1971L82.5693 67.1825C82.3212 67.1533 82.1898 67.0803 82.073 66.7884L79.9124 61.4453C79.8686 61.3285 79.854 61.2993 79.7664 61.2993H78.5693C78.5109 61.2993 78.4963 61.3139 78.4672 61.4015L76.3212 66.803C76.219 67.0803 76.1314 67.1533 75.927 67.1825L75.6642 67.2117C75.635 67.2117 75.635 67.2555 75.635 67.2847V68.0292C75.635 68.073 75.6496 68.073 75.6642 68.073H77.8248C77.8686 68.073 77.8832 68.073 77.8832 68.0146V67.3139C77.8832 67.2555 77.854 67.2555 77.854 67.2555L77.6204 67.2263C77.5328 67.2117 77.4745 67.1679 77.4599 67.1387C77.4161 67.0803 77.4161 66.9927 77.4453 66.876L77.6934 66.1898H80.3504L80.6277 66.8906C80.6715 66.9927 80.6715 67.0657 80.6423 67.1241C80.6277 67.1533 80.5839 67.1971 80.4964 67.2117L80.219 67.2409C80.219 67.2409 80.1898 67.2409 80.1898 67.2993V67.9563C80.1898 68.0438 80.1898 68.073 80.2044 68.073C80.2044 68.073 80.2336 68.073 80.2482 68.073H82.7299V68.0438ZM78.0292 65.3431L79.0219 62.7008L80.0438 65.3431H78.0292Z" fill="#000F9F"/>
<path d="M90.7591 62.1606L91.0365 62.1314C91.0511 62.1314 91.0803 62.1168 91.0803 62.073V61.3431C91.0803 61.3285 91.0657 61.2993 91.0365 61.2993H88.9051C88.8905 61.2993 88.8613 61.2993 88.8613 61.3431V62C88.8613 62.1314 88.8905 62.146 88.9343 62.146L89.1679 62.1752C89.3723 62.2044 89.4452 62.2774 89.4452 62.4526V65.5913L86.7299 61.6205C86.5255 61.3431 86.4379 61.2993 85.8686 61.2993H84.5693C84.5401 61.2993 84.5255 61.3285 84.5255 61.3431V62.0584C84.5255 62.1022 84.5401 62.1168 84.5693 62.1168L84.9927 62.1606V66.9052C84.9927 67.1095 84.9489 67.1679 84.7153 67.1825L84.438 67.2117C84.4234 67.2117 84.4088 67.2263 84.4088 67.2701V68C84.4088 68.0438 84.4233 68.0438 84.4525 68.0438H86.5839C86.6131 68.0438 86.6277 68.0438 86.6277 68V67.2555C86.6277 67.2263 86.6277 67.2117 86.5401 67.1971L86.3066 67.1679C86.1022 67.1387 86.0438 67.0657 86.0438 66.8906V63.0219L89.4598 67.9417C89.5182 68.0292 89.562 68.0438 89.6934 68.0438H90.3942C90.4379 68.0438 90.4963 68.0292 90.4963 67.9125V62.438C90.5109 62.2336 90.5401 62.1898 90.7591 62.1606Z" fill="#000F9F"/>
<path d="M98.5401 67.5331V66.847C98.5401 66.7302 98.4963 66.7156 98.438 66.7156C98.4088 66.7156 98.3796 66.7156 98.3504 66.7302L98.1898 66.774C97.7226 66.9199 97.2701 67.0513 96.5401 67.0659H96.4526C95.1825 67.0659 94.6861 66.6426 94.6861 65.5769L94.6715 63.6791C94.6715 63.1389 94.8613 62.2192 96.1022 62.2192C96.6569 62.2192 97.0365 62.263 97.1679 62.2776H97.2117L97.3869 63.1827C97.4015 63.2557 97.4307 63.2703 97.4745 63.2703H98.2044C98.292 63.2703 98.3066 63.2265 98.3066 63.1973L98.3796 61.4455C98.3796 61.4017 98.3796 61.3871 98.3066 61.3579C98.0584 61.2849 96.7883 61.2119 96.0876 61.2119C94.0876 61.2119 93.1533 62.0002 93.1533 63.6791V65.5477C93.1533 66.4674 93.3139 67.0367 93.6934 67.4309C94.146 67.8981 94.9343 68.1316 96.1168 68.117C96.1752 68.117 96.2336 68.117 96.292 68.117C97.4745 68.0878 98.1314 67.8397 98.3504 67.7375C98.4526 67.7229 98.5401 67.6645 98.5401 67.5331Z" fill="#000F9F"/>
<path d="M105.956 66.0585C105.956 66.0585 105.942 66.0439 105.898 66.0439H105.095C105.051 66.0439 105.022 66.0439 105.007 66.1169L104.73 66.8323C104.686 66.9053 104.657 67.0074 104.496 67.0074L102.453 67.0658V65.1826H104.234C104.38 65.1826 104.38 65.1534 104.38 65.0804V64.2921C104.38 64.2045 104.365 64.1899 104.277 64.1899H102.467V62.3067L104.35 62.3651C104.54 62.3651 104.584 62.4381 104.613 62.5841L104.759 63.2264C104.788 63.314 104.803 63.314 104.861 63.314H105.577C105.664 63.314 105.664 63.314 105.679 63.241L105.752 61.4162C105.752 61.3432 105.752 61.3286 105.708 61.3286H100.54C100.496 61.3286 100.482 61.3432 100.482 61.3724V62.1461C100.482 62.1899 100.496 62.2045 100.526 62.2045L100.759 62.2337C100.993 62.2629 101.051 62.3213 101.051 62.5111V66.8907C101.051 67.1096 100.978 67.1388 100.759 67.168L100.526 67.1972C100.496 67.1972 100.482 67.2118 100.482 67.2556V68.0293C100.482 68.0585 100.496 68.0731 100.54 68.0731H105.737C105.796 68.0731 105.796 68.0731 105.81 67.9709L106 66.1315C105.956 66.0877 105.956 66.0585 105.956 66.0585Z" fill="#000F9F"/>
<path d="M34.4671 67.0952H34.1314C33.781 67.0952 33.708 67.0076 33.562 66.8471C33.5474 66.8325 33.5182 66.8033 33.5036 66.7741L32.8029 65.9127L33.6058 65.1682C33.635 65.1536 33.635 65.1098 33.6058 65.0806L33.0365 64.3799C33.0219 64.3507 32.9781 64.3507 32.9635 64.3799L32.1606 65.1098L30.8905 63.5332C30.6861 63.2704 30.5985 63.0222 30.6277 62.7595C30.6423 62.4821 30.7445 62.2923 30.9343 62.1609C31.0949 62.0587 31.2992 62.0295 31.4306 62.0295C31.6934 62.0295 31.7372 62.0441 31.9562 62.1171H31.9854L32 62.1463L32.1606 62.8908C32.1752 62.9784 32.1898 62.9784 32.219 62.9784H32.8905C32.9635 62.9784 32.9927 62.9492 32.9927 62.8908L33.0511 61.4894C33.0511 61.4894 33.0511 61.4894 33.0365 61.4894C32.5547 61.3142 32.0146 61.2412 31.3284 61.2412C30.6423 61.2412 30.1606 61.3288 29.8248 61.5186C29.4014 61.7522 29.1825 62.1317 29.1825 62.7011C29.1825 63.0514 29.2701 63.5624 29.6642 64.0733L29.7372 64.1901L29.708 64.2193L28.3795 65.4602C28.146 65.6792 28.0292 65.9419 28.0292 66.2193C28.0292 66.3945 28.0876 66.8762 28.5985 67.4602C28.9781 67.8981 29.4014 68.1171 29.854 68.1171C30.2044 68.1171 30.5547 67.9857 30.8175 67.7522L31.8394 66.8616L32.2627 67.4018C32.5255 67.7376 32.6715 67.8835 32.8759 67.9565C33.0949 68.0441 33.416 68.0441 34 68.0441H34.4379C34.5839 68.0441 34.5839 68.0003 34.5839 67.9565V67.1682C34.5401 67.0952 34.5401 67.0952 34.4671 67.0952ZM31.0949 66.0587L30.2919 66.7595C30.1898 66.847 30.0438 66.8908 29.8832 66.8908C29.7664 66.8908 29.6058 66.8616 29.4452 66.6573C29.343 66.5259 29.2992 66.4091 29.2992 66.2923C29.2992 66.0733 29.4452 65.8981 29.562 65.7814L30.3795 65.066L31.1241 66.0149L31.0949 66.0587Z" fill="#000F9F"/>
</svg>
