<svg width="67" height="16" viewBox="0 0 67 16" fill="none" xmlns="http://www.w3.org/2000/svg">
<path d="M0.344 15L0.344 12.858H2.339V15H0.344ZM12.0838 15L12.0838 2.295H7.50578V0.552L18.4468 0.552V2.295L13.8898 2.295L13.8898 15H12.0838ZM24.3984 15L24.3984 0.552L33.8064 0.552V2.232L26.2044 2.232L26.2044 6.873L32.7984 6.873V8.553L26.2044 8.553V13.32L33.8064 13.32L33.8064 15L24.3984 15ZM49.0503 14.895C48.6163 14.979 48.0703 15.042 47.4123 15.084C46.7683 15.14 46.1663 15.168 45.6063 15.168C43.8703 15.168 42.6033 14.979 41.8053 14.601C41.0073 14.223 40.4683 13.537 40.1883 12.543C39.9223 11.535 39.7893 9.946 39.7893 7.776C39.7893 5.62 39.9223 4.038 40.1883 3.03C40.4683 2.022 41.0073 1.329 41.8053 0.950999C42.6033 0.572999 43.8703 0.383999 45.6063 0.383999C46.1803 0.383999 46.7823 0.411999 47.4123 0.467999C48.0423 0.523999 48.5603 0.600999 48.9663 0.698999V2.274C47.9163 2.134 46.9503 2.064 46.0683 2.064C44.5983 2.064 43.5693 2.176 42.9813 2.4C42.4073 2.624 42.0293 3.107 41.8473 3.849C41.6653 4.591 41.5743 5.9 41.5743 7.776C41.5743 9.652 41.6653 10.961 41.8473 11.703C42.0293 12.445 42.4073 12.928 42.9813 13.152C43.5693 13.376 44.5983 13.488 46.0683 13.488C47.1463 13.488 48.1403 13.418 49.0503 13.278L49.0503 14.895ZM64.9384 15V8.595H57.3574L57.3574 15H55.5514L55.5514 0.552H57.3574V6.852L64.9384 6.852V0.552H66.7234V15H64.9384Z" fill="black"/>
</svg>
