<svg width="263" height="45" viewBox="0 0 263 45" fill="none" xmlns="http://www.w3.org/2000/svg">
<path d="M67.082 17.793C68.4108 19.7237 69.169 21.9912 69.2695 24.3349C71.542 25.1414 73.4573 26.7271 74.6773 28.812C75.8973 30.8969 76.3436 33.3469 75.9374 35.7297C75.5313 38.1124 74.2987 40.2747 72.4574 41.8349C70.616 43.395 68.2842 44.2527 65.8736 44.2565H14.7651C11.1724 44.2614 7.72405 42.8387 5.17489 40.3L26.8585 23.0889C27.6535 23.5148 28.5621 23.7563 29.5298 23.7563C30.367 23.7575 31.194 23.5724 31.9512 23.2142L42.2865 32.2821C42.0121 33.1507 41.9495 34.0726 42.1041 34.9705C42.2587 35.8683 42.6258 36.7159 43.1747 37.442C43.7236 38.1681 44.4383 38.7514 45.2586 39.1432C46.079 39.5349 46.9811 39.7235 47.8892 39.6931C48.7973 39.6628 49.6849 39.4144 50.4774 38.9688C51.2699 38.5231 51.9443 37.8933 52.4437 37.1322C52.9432 36.3711 53.2533 35.5009 53.3479 34.5947C53.4425 33.6886 53.3189 32.7728 52.9875 31.9245L67.082 17.793ZM63.8702 14.5722L49.7778 28.7037C49.1164 28.4437 48.4121 28.3108 47.7017 28.3119C46.8645 28.3107 46.0375 28.4958 45.2803 28.854L34.945 19.7861C35.2109 18.9441 35.2777 18.0516 35.1404 17.1792C35.003 16.3068 34.6652 15.4784 34.1536 14.7595C33.642 14.0406 32.9706 13.4509 32.1926 13.0369C31.4145 12.623 30.5512 12.3962 29.6707 12.3745C28.7902 12.3528 27.9167 12.5368 27.1194 12.9119C26.322 13.287 25.6226 13.8429 25.0763 14.5358C24.5301 15.2286 24.1521 16.0394 23.9722 16.904C23.7923 17.7685 23.8153 18.6632 24.0396 19.5173L2.51725 36.5985C1.49452 34.5038 1.02339 32.1815 1.14871 29.8526C1.27402 27.5236 1.99161 25.2656 3.23318 23.2934C4.47474 21.3212 6.19898 19.7004 8.24177 18.5853C10.2846 17.4702 12.578 16.8979 14.9037 16.9229C15.4242 12.7602 17.3609 8.90506 20.3869 6.00812C23.413 3.11117 27.3431 1.34985 31.5139 1.02141C35.6847 0.692975 39.8408 1.81755 43.2807 4.20532C46.7206 6.5931 49.2336 10.0978 50.3957 14.128C52.3282 12.9719 54.5374 12.3634 56.7877 12.3673C59.4158 12.3673 61.8553 13.1827 63.8702 14.5722Z" fill="#2196F3"/>
<path d="M186.792 17.1686C187.321 16.5849 187.771 16.1073 188.327 15.4971C188.936 16.0542 189.492 16.5849 190.286 17.3278C189.704 17.8054 189.174 18.2033 188.724 18.5748C189.015 19.9014 189.492 21.1749 189.571 22.475C189.73 26.0038 187.454 28.6039 183.959 29.0815C183.033 29.2142 182.133 29.2938 181.206 29.4264C180.412 29.5326 179.644 29.7183 179.168 30.5673C179.75 31.3898 180.571 31.3102 181.339 31.2306C182.318 31.151 183.297 30.9122 184.277 30.8592C185.124 30.8061 185.998 30.8061 186.845 30.9653C188.539 31.2572 189.862 32.1593 190.312 33.8838C190.789 35.635 190.524 37.3065 189.068 38.6066C188.671 38.978 188.195 39.3229 187.718 39.5617C183.88 41.3659 180.227 40.8087 176.468 38.6596C177.024 37.8371 177.474 37.1473 178.03 36.2983C178.691 36.6166 179.274 36.9085 179.856 37.1738C181.842 38.1024 183.88 38.2616 185.945 37.4126C187.215 36.882 187.692 36.1125 187.48 35.0247C187.295 34.0696 186.659 33.5124 185.309 33.4328C184.224 33.3797 183.112 33.6185 182 33.6451C180.915 33.6716 179.803 33.6716 178.718 33.5124C177.632 33.3267 177.05 32.5307 176.918 31.4429C176.785 30.3551 177.394 29.7183 178.215 29.2142C178.638 28.9489 179.088 28.7631 179.644 28.4713C177.924 27.3304 176.574 25.9507 176.335 23.8016C176.15 22.1832 176.229 20.6178 177.13 19.185C178.983 16.293 182.265 15.5767 186.792 17.1686ZM186.395 22.8199C186.448 21.1484 185.865 19.7953 184.33 19.0524C183.165 18.4952 181.947 18.5748 180.862 19.4238C179.538 20.4586 179.088 21.8648 179.406 23.4832C179.883 26.0569 181.762 27.2773 184.039 26.561C185.495 26.1099 186.368 24.7568 186.395 22.8199Z" fill="#363C4E"/>
<path d="M238.412 16.6115C239.603 16.6115 240.556 16.6115 241.641 16.6115C242.833 20.2464 244.024 23.8547 245.347 27.8876C247.015 23.8547 248.524 20.1668 250.059 16.4788C250.218 16.4788 250.404 16.4788 250.562 16.4523C252.574 19.9545 253.607 23.9078 255.645 27.7284C257.022 23.8547 258.292 20.2464 259.589 16.638C260.595 16.638 261.495 16.638 262.422 16.638C261.336 20.9893 256.836 33.2206 255.804 34.3615C254.692 32.4777 254.004 30.4612 253.157 28.5244C252.31 26.6141 251.489 24.7038 250.483 22.3955C248.683 26.561 246.989 30.4082 245.215 34.5207C244.792 34.0165 244.5 33.8043 244.394 33.5124C242.409 27.9672 240.45 22.422 238.412 16.6115Z" fill="#363C4E"/>
<path d="M141.896 17.3279C141.896 14.6747 141.896 12.2337 141.896 9.63354C142.875 9.63354 143.749 9.63354 144.781 9.63354C144.781 17.6197 144.781 25.6324 144.781 33.7513C143.881 33.7513 142.981 33.7513 142.081 33.7513C141.975 33.4859 141.869 33.1941 141.763 32.8757C141.525 32.9818 141.313 33.0614 141.101 33.1675C136.098 35.8208 130.883 33.1675 130.063 27.5958C129.586 24.4119 130.142 21.4669 132.286 18.9729C134.589 16.2931 137.66 15.5767 140.943 16.9299C141.154 17.0095 141.366 17.0891 141.896 17.3279ZM141.896 25.4998C141.896 24.3323 141.896 23.1649 141.896 21.9975C141.869 20.0076 140.757 18.8667 138.719 18.7871C136.628 18.7075 134.722 19.928 133.769 21.9975C132.869 23.9874 132.816 26.0304 133.425 28.0999C134.298 31.0715 137.792 32.5308 140.572 31.1511C141.419 30.7531 141.948 30.1959 141.869 29.1612C141.843 27.9407 141.896 26.7202 141.896 25.4998Z" fill="#363C4E"/>
<path d="M191.795 10.2968C193.092 10.2968 194.125 10.2968 195.342 10.2968C197.301 15.8685 199.26 21.4403 201.404 27.5161C203.707 21.5994 205.296 15.8685 207.413 10.2968C208.525 10.2968 209.531 10.2968 210.775 10.2968C207.916 18.336 205.084 26.216 202.278 34.0695C201.351 34.2818 200.69 34.3879 200.292 33.3001C197.486 25.7119 194.68 18.1237 191.795 10.2968Z" fill="#363C4E"/>
<path d="M224.461 25.4466C224.223 31.0184 228.697 33.1409 234.203 30.2755C234.574 30.8857 234.944 31.4959 235.447 32.3184C233.276 33.8838 230.841 34.3614 228.326 34.1226C224.885 33.8042 222.264 31.4959 221.443 28.0998C220.623 24.7037 221.046 21.4933 223.482 18.787C226.076 15.895 230.735 15.3644 233.965 17.487C236.453 19.132 237.512 22.1566 236.612 25.4201C232.641 25.4466 228.617 25.4466 224.461 25.4466ZM224.488 23.271C226.182 23.271 227.717 23.324 229.253 23.271C230.815 23.2179 232.403 23.5363 233.938 23.0587C233.488 20.1932 232.006 18.8136 229.438 18.787C226.817 18.734 225.07 20.2728 224.488 23.271Z" fill="#363C4E"/>
<path d="M122.836 23.032C123.233 18.9992 118.944 17.7787 114.709 20.3258C114.338 19.5829 113.941 18.8665 113.571 18.1501C116.138 15.9214 120.983 15.603 123.63 17.4338C125.351 18.6277 125.88 20.4584 125.959 22.4218C126.065 24.624 126.012 26.8261 126.012 29.0548C126.012 30.3018 126.145 31.4693 127.045 32.4775C127.336 32.8224 127.362 33.4326 127.548 34.1225C125.589 34.1755 124.133 33.8306 123.312 32.0264C121.883 33.3 120.321 34.0163 118.494 34.1755C116.138 34.3878 114.127 33.3796 113.121 31.3897C112.141 29.4528 112.565 26.9057 114.206 25.2607C116.271 23.1912 118.865 22.6606 121.671 22.8728C121.856 22.8994 122.042 22.9524 122.2 22.979C122.359 23.0055 122.545 23.0055 122.836 23.032ZM123.021 25.6057C120.48 24.5974 117.806 25.1811 116.377 26.9853C115.582 27.9936 115.397 29.0814 115.847 30.2488C116.324 31.4427 117.383 31.7081 118.547 31.7611C120.056 31.8407 121.327 31.3101 122.333 30.2223C122.677 29.8508 122.942 29.2936 122.995 28.7895C123.101 27.7282 123.021 26.6139 123.021 25.6057Z" fill="#363C4E"/>
<path d="M161.961 33.8308C160.849 33.8308 160.055 33.8308 159.129 33.8308C159.129 28.1529 159.129 22.4751 159.129 16.6911C159.738 16.6911 160.373 16.6911 161.035 16.6911C161.326 17.2748 161.644 17.885 161.882 18.3361C163.073 17.6993 164.132 16.8237 165.35 16.4788C169.082 15.391 172.232 17.3544 172.524 21.175C172.815 25.314 172.603 29.4795 172.603 33.7512C171.703 33.7512 170.856 33.7512 169.85 33.7512C169.797 33.3532 169.717 32.8757 169.717 32.4246C169.691 29.6653 169.717 26.9059 169.691 24.1466C169.691 23.2976 169.638 22.422 169.453 21.5995C169.003 19.3973 167.229 18.3626 165.032 18.9463C162.835 19.53 161.988 20.6178 161.961 22.8465C161.961 25.8446 161.961 28.8693 161.961 31.8674C161.961 32.4777 161.961 33.0614 161.961 33.8308Z" fill="#363C4E"/>
<path d="M93.8226 33.8041C92.6314 33.8041 91.7314 33.8041 90.646 33.8041C90.646 26.9322 90.646 20.14 90.646 13.109C88.1047 13.109 85.7487 13.109 83.2339 13.109C83.2339 12.0742 83.2339 11.2517 83.2339 10.3231C89.3489 10.3231 95.4109 10.3231 101.579 10.3231C101.632 10.8007 101.711 11.1987 101.711 11.5967C101.711 11.9681 101.658 12.313 101.605 12.9763C99.0376 12.9763 96.4963 12.9763 93.8226 12.9763C93.8226 20.0604 93.8226 26.8792 93.8226 33.8041Z" fill="#363C4E"/>
<path d="M109.997 19.2912C106.317 18.2564 103.908 20.0341 103.829 23.8547C103.75 27.0916 103.802 30.3551 103.802 33.7512C102.823 33.7512 101.949 33.7512 100.917 33.7512C100.917 28.0999 100.917 22.4485 100.917 16.6645C101.394 16.638 101.791 16.5849 102.214 16.5849C102.691 16.5849 103.167 16.638 103.75 16.6645C103.776 17.4339 103.802 18.0707 103.855 19.0524C105.788 16.6114 108.064 15.7094 111.109 16.638C110.712 17.5666 110.341 18.4422 109.997 19.2912Z" fill="#363C4E"/>
<path d="M150.896 19.1849C149.969 19.1318 149.361 19.1053 148.619 19.0522C148.619 18.2562 148.619 17.5133 148.619 16.6643C150.287 16.6643 151.928 16.6643 153.702 16.6643C153.702 22.3687 153.702 28.0201 153.702 33.7775C152.802 33.7775 151.955 33.7775 150.896 33.7775C150.896 29.0018 150.896 24.1729 150.896 19.1849Z" fill="#363C4E"/>
<path d="M217.287 33.7775C216.281 33.7775 215.461 33.7775 214.481 33.7775C214.481 28.9222 214.481 24.1464 214.481 19.291C213.661 19.1849 212.972 19.0787 212.178 18.9726C212.178 18.2032 212.178 17.4868 212.178 16.6643C213.872 16.6643 215.487 16.6643 217.287 16.6643C217.287 22.3422 217.287 27.9935 217.287 33.7775Z" fill="#363C4E"/>
<path d="M154.337 11.7826C154.39 12.7908 153.57 13.6398 152.537 13.6664C151.531 13.6929 150.79 13.0296 150.684 12.0214C150.605 10.9866 151.346 10.0845 152.352 10.0049C153.331 9.95186 154.284 10.8009 154.337 11.7826Z" fill="#363C4E"/>
<path d="M217.976 11.9417C217.949 12.9499 217.049 13.7459 216.017 13.6663C214.958 13.6133 214.243 12.7642 214.322 11.7029C214.402 10.7478 215.223 10.0049 216.149 10.0049C217.102 10.0314 218.002 10.9866 217.976 11.9417Z" fill="#363C4E"/>
</svg>
