<svg width="60" height="60" viewBox="0 0 60 60" fill="none" xmlns="http://www.w3.org/2000/svg">
<g clip-path="url(#clip0)">
<path d="M14.706 51.2598C13.129 51.2598 11.7037 50.8319 10.3086 50.4347C9.27755 50.1291 8.27677 49.7012 7.42762 48.9984C7.09403 48.7233 6.79076 48.4177 6.54815 48.0816C3.66713 44.4756 2.30243 40.1973 1.39263 35.7356C0.877078 33.1686 0.937732 30.5405 1.05904 27.9124C1.18034 25.6815 1.15002 23.3896 1.75655 21.2199C2.12047 19.9669 2.54504 18.714 2.99994 17.461C3.45484 16.2387 3.84908 15.0163 4.45562 13.8856C5.27443 12.2965 6.09325 10.6769 7.5186 9.5156C10.6726 6.9486 14.2511 5.35951 18.2845 4.71777C19.8615 4.47329 21.4385 4.1677 23.0155 3.92322C23.4704 3.8621 23.9253 3.83154 24.3802 3.83154C26.7153 3.77042 29.0505 3.64819 31.3856 3.70931C33.5388 3.77042 35.692 4.04546 37.8149 4.32049C38.9066 4.47329 39.9681 4.84 40.9992 5.08448C41.636 4.44273 42.2426 3.77042 42.9401 3.1898C44.8203 1.69238 46.9432 0.80616 49.339 0.592244C51.7651 0.378328 53.9183 0.989516 55.8289 2.48693C57.8001 4.0149 58.9828 6.06238 59.3468 8.50714C59.8926 12.1437 58.6492 15.1691 56.0412 17.675C55.6772 18.0111 55.1314 18.2556 54.9191 18.6529C54.7371 19.0196 54.9494 19.5696 54.9494 20.0586C54.9797 21.6171 54.8887 23.2062 55.0707 24.7647C55.283 26.8733 55.283 28.9514 55.3133 31.06C55.3133 31.6712 55.374 32.2824 55.4346 32.863C55.5863 34.7271 55.3436 36.5301 54.9797 38.3637C54.7068 39.6777 54.3732 40.9307 53.615 42.0308C52.8872 43.1004 52.1594 44.1394 51.4012 45.1784C50.2185 46.8287 48.7628 48.1733 47.2161 49.3956C45.9424 50.4041 44.4564 50.9542 42.8794 51.2903C41.0295 51.7182 39.1492 52.1154 37.269 52.4516C36.2076 52.6349 35.1158 52.7266 34.0544 52.7877C32.811 52.8489 31.5373 52.8489 30.2635 52.8794C28.7169 52.91 27.1399 52.9711 25.5933 53.0017C25.199 53.0017 24.7744 53.0628 24.4105 53.1545C24.1982 53.2156 24.0163 53.3684 23.8646 53.5212C22.7729 54.8352 21.7114 56.1493 20.65 57.4328C19.9525 58.2579 19.1943 59.0524 18.1936 59.5414C17.4657 59.9081 16.7379 59.9692 15.9797 59.847C15.3429 59.7553 14.9486 59.2663 14.6757 58.6857C14.2208 57.5856 14.2511 56.4549 14.3118 55.3242C14.4331 54.0407 14.5847 52.6961 14.706 51.2598ZM17.8903 57.4633C18.1026 57.3411 18.1632 57.3105 18.1936 57.28C19.9525 54.8047 21.7114 52.3294 23.4704 49.8846C24.2286 48.815 25.1687 47.9594 26.5334 47.7454C29.2628 47.3482 31.9618 46.8592 34.7216 46.5536C36.8444 46.3091 38.937 45.8508 40.9688 45.1784C42.0606 44.8117 43.1827 44.5367 44.1835 43.8644C45.2146 43.1615 46.3366 42.6115 46.9432 41.4502C47.4284 40.5029 47.8833 39.525 48.2472 38.5471C48.8841 36.744 48.9751 34.8188 49.0964 32.9547C49.3087 29.7765 49.2177 26.5678 49.0054 23.359C48.9751 22.7173 49.0357 22.1061 49.066 21.4643C49.066 21.2504 49.0964 21.0365 49.0964 20.7309C46.3366 20.7309 43.8802 19.9364 42.0303 17.9194C40.2107 15.9331 39.4222 13.4578 39.4828 10.7685C39.4222 10.738 39.3615 10.6769 39.3312 10.6769C36.1469 10.0351 32.902 10.0351 29.657 9.94343C27.9891 9.88231 26.2908 10.1268 24.6228 10.1573C22.1967 10.2185 19.8312 10.4629 17.4657 10.9519C16.192 11.2269 14.9183 11.5325 13.8265 12.2965C13.3716 12.6021 12.8864 12.8771 12.4012 13.1827C12.1586 13.3355 11.8856 13.5189 11.7037 13.7634C10.8849 14.8941 10.0054 15.9636 9.3382 17.186C7.79154 19.9669 7.33664 23.0534 7.00305 26.1399C6.85142 27.5762 6.91207 29.0125 6.85142 30.4794C6.79076 31.9462 7.0637 33.3519 7.3973 34.7577C7.94318 37.0496 8.70134 39.2805 9.61114 41.4502C9.85375 42.0308 10.1873 42.4892 10.6422 42.9171C12.0979 44.2617 13.7659 45.2701 15.6461 45.9119C16.374 46.1563 17.0108 46.6147 17.7083 47.012C17.8296 47.0731 17.9813 47.2565 17.9813 47.4093C18.0419 48.3872 18.1329 49.3651 18.1026 50.3735C18.0419 52.6961 17.951 55.0186 17.8903 57.4633ZM56.3444 11.9909C56.1928 11.1352 56.1625 10.2185 55.8895 9.39336C54.6765 5.63455 52.1897 3.40371 48.1866 3.037C47.0038 2.91476 45.9121 3.15924 44.9113 3.83154C43.6679 4.65665 42.8794 5.84847 42.1819 7.13196C41.9696 7.52923 41.6663 7.89595 41.5754 8.32378C41.3631 9.57672 41.3328 10.8602 41.6664 12.0826C42.5458 15.5052 44.7293 17.7055 48.0653 18.7445C48.8538 18.989 49.7332 19.1724 50.5217 19.0196C52.7962 18.5306 54.6765 17.4305 55.6469 15.108C56.0715 14.1301 56.3141 13.091 56.3444 11.9909Z" fill="black"/>
<path d="M14.7664 20.976C14.4934 19.2952 15.4942 18.2562 16.586 17.2783C17.0105 16.9116 17.5261 16.5754 18.0113 16.3004C19.1637 15.6892 20.2251 15.9337 21.2562 16.6365C22.3177 17.3394 22.9849 18.3784 23.6217 19.448C24.0766 20.2426 24.4405 21.1288 24.7438 21.9844C25.1077 23.0235 24.8045 24.0319 24.0463 24.6737C23.0152 25.621 23.1062 26.66 23.3488 27.7602C23.652 29.1048 24.4102 30.2049 25.229 31.2745C26.2298 32.5274 27.4429 33.5665 28.7772 34.4221C29.2928 34.7277 29.869 34.9111 30.4452 35.0944C31.0214 35.2778 31.4157 34.9416 31.6886 34.4832C32.1738 33.7193 32.932 33.3831 33.7205 33.1386C34.509 32.8942 35.2671 33.1081 35.9343 33.5053C36.7835 34.0249 37.6326 34.6055 38.4514 35.1861C38.876 35.4611 39.2399 35.7973 39.6645 36.0723C40.3923 36.5307 40.9079 37.1725 41.3325 37.9059C41.4234 38.0281 41.4234 38.2421 41.3628 38.3949C41.0595 39.6784 40.453 40.809 39.3916 41.6342C38.6637 42.2453 37.7842 42.5509 36.8441 42.7037C34.3573 43.0704 32.1435 42.3676 29.9903 41.1758C27.8978 40.0145 26.0175 38.5782 24.2283 37.0502C23.1971 36.164 22.4087 35.0333 21.4989 34.0249C19.9825 32.283 18.5875 30.3883 17.3744 28.4325C16.4646 26.9656 15.5245 25.5293 15.0696 23.8486C14.827 22.9318 14.7057 21.9844 14.5237 21.0371C14.6754 20.976 14.736 20.976 14.7664 20.976Z" fill="black"/>
<path d="M26.6847 14.8635C26.806 14.4052 27.1396 14.3135 27.5035 14.3135C28.0797 14.3135 28.6559 14.344 29.2322 14.3746C31.7796 14.4968 33.9631 15.5359 36.0556 16.8805C37.9359 18.1028 39.3916 19.7225 40.4227 21.6783C41.1808 23.1146 41.5144 24.7037 41.7267 26.3233C41.8783 27.5457 41.9693 28.7375 41.6054 29.9293C41.4234 30.5405 41.2415 30.6933 40.5136 30.785C40.271 30.4183 40.1497 29.9905 40.1497 29.5321C40.2407 27.3929 39.6038 25.376 39.0883 23.3591C38.8154 22.2589 38.0269 21.4033 37.3597 20.5476C35.8434 18.5612 33.8115 17.2472 31.537 16.2387C30.0813 15.597 28.5043 15.3525 26.988 14.9552C26.897 14.9552 26.806 14.9247 26.6847 14.8635Z" fill="black"/>
<path d="M27.9281 18.8059C28.2314 18.3475 28.6559 18.2558 29.0502 18.1642C30.1116 17.9503 31.1427 18.1031 32.1435 18.4086C33.5385 18.8365 34.7516 19.6616 35.7827 20.6395C37.2384 22.0147 38.2088 23.726 38.3605 25.804C38.4211 26.5375 38.2998 27.2709 38.2088 28.0043C38.1482 28.4016 37.9055 28.6766 37.39 28.7377C37.3293 28.5849 37.2384 28.4016 37.208 28.2182C36.9654 27.332 36.7531 26.4458 36.4802 25.5901C36.1466 24.49 35.4491 23.5732 34.7516 22.687C33.2959 20.8228 31.3853 19.6921 29.1108 19.1726C28.8076 19.1115 28.5346 19.0198 28.2314 18.9282C28.1404 18.9282 28.0797 18.867 27.9281 18.8059Z" fill="black"/>
<path d="M28.7469 22.7175C28.9289 22.4424 29.0199 22.2285 29.1412 22.1368C29.96 21.6173 30.7788 21.22 31.8402 21.4951C33.3262 21.8924 34.418 22.7175 34.9942 24.1843C35.2671 24.8566 35.3278 25.4984 34.9032 26.1401C34.8122 26.2929 34.7516 26.4457 34.6909 26.6291C34.4787 27.0875 34.1147 27.3319 33.7811 27.2708C33.3869 27.1791 33.2656 26.843 33.1746 26.5068C32.841 25.2844 32.0525 24.3065 31.2034 23.4203C30.7485 22.9314 30.1116 22.6869 29.4141 22.8091C29.2321 22.8091 29.0805 22.748 28.7469 22.7175Z" fill="black"/>
<path d="M48.2469 8.29305C48.0346 8.38473 47.792 8.44585 47.5797 8.53753C47.0945 8.72088 46.6396 8.81256 46.0937 8.35417C46.397 8.07914 46.6396 7.77354 46.9429 7.55963C47.5191 7.16235 48.1256 6.8262 48.7321 6.42893C49.1264 6.15389 49.5509 6.09277 50.0058 6.09277C50.5821 6.12333 50.7034 6.24557 50.673 6.85676C50.6124 7.71242 50.5214 8.56809 50.4607 9.42375C50.3698 10.4933 50.3091 11.5324 50.2181 12.6019C50.1878 13.0909 50.1575 13.5493 50.0665 14.0382C50.0362 14.2521 49.7936 14.5272 49.6116 14.5577C49.2174 14.6494 48.8231 14.6189 48.4289 14.5577C48.2772 14.5272 48.0649 14.2827 48.0346 14.0993C47.9436 13.4882 47.9133 12.9075 47.9133 12.2963C47.9436 11.4101 48.0346 10.5239 48.0953 9.63767C48.1559 9.17928 48.1863 8.72088 48.2469 8.29305V8.23193V8.29305Z" fill="black"/>
</g>
<defs>
<clipPath id="clip0">
<rect width="58.5" height="59.4381" fill="white" transform="translate(0.967743 0.561523)"/>
</clipPath>
</defs>
</svg>
