<svg width="227" height="52" viewBox="0 0 227 52" fill="none" xmlns="http://www.w3.org/2000/svg">
<g clip-path="url(#clip0)">
<path fill-rule="evenodd" clip-rule="evenodd" d="M20.2759 40.2802C19.4644 39.7984 18.7903 39.1047 18.3217 38.269C17.8531 37.4332 17.6065 36.485 17.6067 35.5197C17.607 34.9982 17.7404 34.4859 17.9935 34.0343C18.2467 33.5827 18.6106 33.2076 19.0488 32.9468C19.4871 32.686 19.9842 32.5486 20.4902 32.5484C20.9963 32.5482 21.4934 32.6852 21.9319 32.9456L25.6673 35.166V29.5606C25.6672 28.4832 25.3918 27.4249 24.8687 26.4921C24.3456 25.5592 23.5934 24.7849 22.6877 24.2468L0.578125 11.1168V36.9893L22.7827 50.1795C23.0752 50.3531 23.4069 50.4444 23.7444 50.4441C24.082 50.4439 24.4135 50.3521 24.7058 50.178C24.9981 50.004 25.2408 49.7538 25.4095 49.4525C25.5783 49.1512 25.6672 48.8095 25.6673 48.4616V43.4828L20.2759 40.2802Z" fill="#9F66A9"/>
<path fill-rule="evenodd" clip-rule="evenodd" d="M20.5242 38.1162C20.2637 37.9625 20.0471 37.7406 19.8965 37.473C19.7458 37.2053 19.6663 36.9015 19.6661 36.5921V35.9655C19.6661 34.9927 20.6885 34.3849 21.5047 34.8685C22.0341 35.1827 22.3609 35.7641 22.3609 36.3945V37.0192C22.3609 37.9901 21.344 38.5998 20.5242 38.1162Z" fill="#9F66A9"/>
<path fill-rule="evenodd" clip-rule="evenodd" d="M20.4256 2.74158V4.26759L38.2685 14.8631C39.2051 15.4197 39.983 16.2207 40.524 17.1856C41.065 18.1504 41.35 19.245 41.3503 20.3593V37.612L42.632 38.3703C42.9243 38.5444 43.2559 38.6362 43.5935 38.6363C43.9311 38.6364 44.2628 38.5449 44.5552 38.3709C44.8476 38.197 45.0904 37.9467 45.2592 37.6454C45.4279 37.344 45.5167 37.0022 45.5166 36.6542V17.7551C45.5161 16.6776 45.2403 15.6192 44.7169 14.6864C44.1936 13.7536 43.4411 12.9793 42.5352 12.4414L23.3103 1.02365C23.0177 0.850038 22.6861 0.758778 22.3485 0.759034C22.011 0.759289 21.6794 0.851051 21.3871 1.02511C21.0949 1.19916 20.8522 1.44939 20.6834 1.75067C20.5146 2.05196 20.4257 2.39369 20.4256 2.74158Z" fill="#EF4E23"/>
<path fill-rule="evenodd" clip-rule="evenodd" d="M13.8129 6.6855V8.17387L31.674 18.7825C32.6102 19.3391 33.3876 20.1399 33.9283 21.1044C34.469 22.0688 34.7537 23.163 34.754 24.2769V41.5653L36.0174 42.318C36.3101 42.4917 36.6419 42.5829 36.9796 42.5826C37.3173 42.5822 37.649 42.4903 37.9413 42.316C38.2336 42.1418 38.4763 41.8913 38.645 41.5897C38.8136 41.2882 38.9023 40.9462 38.9021 40.5982V21.699C38.9016 20.6215 38.6258 19.5631 38.1024 18.6303C37.579 17.6976 36.8265 16.9232 35.9206 16.3853L16.6993 4.96945C16.407 4.79592 16.0755 4.70466 15.7381 4.70483C15.4007 4.70501 15.0692 4.7966 14.777 4.97044C14.4848 5.14427 14.2421 5.39423 14.0732 5.69525C13.9043 5.99628 13.8151 6.33777 13.8147 6.6855" fill="#F89C1C"/>
<path fill-rule="evenodd" clip-rule="evenodd" d="M7.19458 10.6144V12.1103L25.0466 22.7114C25.9829 23.2678 26.7605 24.0686 27.3011 25.0331C27.8418 25.9976 28.1265 27.0918 28.1266 28.2057V45.4866L29.3991 46.2449C29.6918 46.4186 30.0236 46.5099 30.3613 46.5096C30.699 46.5092 31.0307 46.4173 31.323 46.243C31.6154 46.0687 31.858 45.8182 32.0267 45.5167C32.1953 45.2152 32.284 44.8732 32.2838 44.5251V25.6279C32.2842 24.5504 32.0091 23.4918 31.4864 22.5586C30.9636 21.6255 30.2116 20.8507 29.306 20.3123L10.0811 8.89644C9.7885 8.72236 9.45663 8.63072 9.11881 8.63074C8.78099 8.63075 8.44912 8.72242 8.15658 8.89654C7.86403 9.07065 7.62112 9.32107 7.45225 9.62261C7.28338 9.92416 7.19451 10.2662 7.19458 10.6144Z" fill="#37C1DB"/>
<path fill-rule="evenodd" clip-rule="evenodd" d="M136.378 19.7083H135.105V36.0013H127.357V21.3641C127.357 20.925 127.188 20.5038 126.886 20.1933C126.585 19.8827 126.176 19.7083 125.75 19.7083H124.438V36.0013H116.693V21.3641C116.693 21.1465 116.651 20.931 116.57 20.73C116.489 20.529 116.371 20.3464 116.222 20.1926C116.072 20.0388 115.895 19.9169 115.7 19.8338C115.505 19.7507 115.295 19.708 115.084 19.7083H113.81V36.9534C113.81 37.8717 114.533 38.6168 115.424 38.6168H137.984V21.3641C137.984 20.925 137.815 20.5038 137.514 20.1933C137.213 19.8827 136.804 19.7083 136.378 19.7083ZM169.347 21.381V25.3137C169.347 32.0951 168.023 35.4237 165.055 36.1123L165.018 36.1199V38.773L165.069 38.7673C169.942 38.2687 172.113 34.1197 172.113 25.3137V22.0697H179.92V36.9534C179.92 37.866 180.639 38.6093 181.526 38.6093H182.839V19.7252H170.954C170.527 19.7252 170.119 19.8997 169.817 20.2102C169.516 20.5207 169.347 20.9419 169.347 21.381ZM220.195 28.9471L220.164 28.9095V28.5745L226.178 19.7798L226.222 19.7196H224.387C223.52 19.7196 222.713 20.158 222.227 20.8937L217.809 27.5923L217.765 27.6601H214.472V21.4262C214.47 20.9724 214.294 20.5378 213.982 20.2178C213.67 19.8977 213.247 19.7186 212.807 19.7196H211.572V38.6149H214.472V30.0911H217.84L222.795 37.4596C223.283 38.184 224.084 38.6168 224.942 38.6168H226.969L220.195 28.9471ZM99.2753 36.3381C97.4499 36.3361 95.6998 35.5883 94.4085 34.2586C93.1172 32.9288 92.3902 31.1257 92.3868 29.2444C92.3888 27.3621 93.1151 25.5575 94.4065 24.2266C95.698 22.8956 97.449 22.147 99.2753 22.145C101.101 22.147 102.852 22.8953 104.143 24.2259C105.435 25.5564 106.161 27.3606 106.164 29.2425C106.161 31.1241 105.434 32.9278 104.143 34.2579C102.851 35.5881 101.101 36.3361 99.2753 36.3381ZM99.2753 19.1701C97.9916 19.17 96.7205 19.4305 95.5345 19.9366C94.3485 20.4428 93.2709 21.1848 92.3631 22.1201C91.4553 23.0555 90.7352 24.166 90.2439 25.3883C89.7525 26.6105 89.4995 27.9205 89.4994 29.2434C89.4993 30.5664 89.752 31.8765 90.2432 33.0988C90.7343 34.3211 91.4542 35.4317 92.3618 36.3673C93.2694 37.3029 94.3469 38.045 95.5328 38.5514C96.7187 39.0578 97.9898 39.3185 99.2735 39.3186C101.866 39.3186 104.352 38.2572 106.185 36.368C108.019 34.4787 109.048 31.9162 109.048 29.2444C109.048 26.5725 108.019 24.0101 106.185 22.1208C104.352 20.2315 101.866 19.1701 99.2735 19.1701H99.2753ZM145.963 31.3556L145.822 31.4346L145.775 31.2747C145.581 30.6125 145.483 29.9247 145.483 29.2331C145.485 27.3487 146.212 25.542 147.504 24.2093C148.797 22.8766 150.55 22.1268 152.379 22.1243C154.405 22.1243 156.318 23.0406 157.637 24.6419L157.739 24.7661L145.963 31.3556ZM161.555 25.7747C160.863 23.8396 159.612 22.1692 157.972 20.9882C156.332 19.8071 154.38 19.172 152.379 19.1682H152.284C149.804 19.1952 147.427 20.1923 145.634 21.9576C143.84 23.7229 142.765 26.1245 142.625 28.6761C142.547 30.0439 142.743 31.4137 143.201 32.7001C143.659 33.9865 144.368 35.1621 145.286 36.1537C146.196 37.1507 147.295 37.944 148.515 38.4846C149.735 39.0252 151.05 39.3014 152.379 39.2961C154.145 39.2974 155.878 38.8049 157.394 37.8712C158.91 36.9374 160.152 35.5973 160.987 33.9936L161.011 33.9428L159.908 33.3238C159.641 33.1751 159.342 33.098 159.037 33.098C158.784 33.0953 158.534 33.1507 158.305 33.2601C158.076 33.3694 157.873 33.53 157.711 33.7302C157.086 34.5222 156.301 35.1654 155.412 35.6157C154.522 36.066 153.549 36.3128 152.558 36.3391C151.567 36.3653 150.583 36.1705 149.672 35.7679C148.761 35.3654 147.946 34.7646 147.281 34.0068L147.168 33.8807L161.573 25.8217L161.555 25.7747ZM193.185 14.9609C193.481 14.9613 193.77 14.8713 194.016 14.7023C194.262 14.5333 194.453 14.293 194.567 14.0116C194.68 13.7303 194.71 13.4207 194.652 13.1219C194.595 12.8232 194.452 12.5488 194.243 12.3334C194.034 12.118 193.768 11.9714 193.478 11.9121C193.188 11.8527 192.888 11.8834 192.615 12.0001C192.342 12.1168 192.109 12.3144 191.945 12.5678C191.781 12.8212 191.693 13.119 191.694 13.4236C191.694 14.2704 192.364 14.9609 193.185 14.9609ZM200.894 14.9609C201.189 14.9613 201.478 14.8713 201.724 14.7023C201.97 14.5333 202.162 14.293 202.275 14.0116C202.388 13.7303 202.418 13.4207 202.36 13.1219C202.303 12.8232 202.16 12.5488 201.952 12.3334C201.743 12.118 201.476 11.9714 201.186 11.9121C200.897 11.8527 200.596 11.8834 200.323 12.0001C200.05 12.1168 199.817 12.3144 199.653 12.5678C199.489 12.8212 199.402 13.119 199.402 13.4236C199.402 14.2704 200.072 14.9609 200.894 14.9609ZM190.92 31.286L190.779 31.365L190.732 31.205C190.538 30.5423 190.439 29.8538 190.44 29.1616C190.442 27.2772 191.17 25.4706 192.463 24.1383C193.756 22.806 195.509 22.0567 197.337 22.0547C198.338 22.0546 199.328 22.2797 200.236 22.7142C201.144 23.1487 201.949 23.7822 202.595 24.5704L202.696 24.6965L190.92 31.286ZM206.511 25.705C205.818 23.7707 204.568 22.1011 202.928 20.9203C201.287 19.7394 199.336 19.1038 197.335 19.0986H197.24C194.761 19.1256 192.384 20.1227 190.59 21.888C188.797 23.6532 187.722 26.0549 187.582 28.6065C187.504 29.9745 187.7 31.3444 188.158 32.6309C188.616 33.9173 189.326 35.0928 190.244 36.0841C191.154 37.0814 192.253 37.875 193.474 38.4156C194.694 38.9562 196.009 39.2322 197.337 39.2264C199.103 39.2274 200.836 38.7348 202.351 37.8011C203.867 36.8673 205.109 35.5274 205.944 33.924L205.967 33.8732L204.865 33.2541C204.598 33.1055 204.299 33.0283 203.994 33.0283C203.741 33.0257 203.491 33.0811 203.262 33.1904C203.033 33.2998 202.83 33.4604 202.668 33.6606C202.043 34.4526 201.258 35.0958 200.368 35.5461C199.479 35.9964 198.505 36.2432 197.515 36.2694C196.524 36.2957 195.54 36.1009 194.629 35.6983C193.718 35.2958 192.902 34.695 192.238 33.9372L192.125 33.8111L206.53 25.7521L206.511 25.705ZM86.1392 12.0877L86.2323 11.9258H84.3901C83.4645 11.9258 82.6046 12.4264 82.1262 13.243L76.1981 23.3737L76.1743 23.417H71.7323V13.5817C71.7323 13.1425 71.5631 12.7214 71.2618 12.4108C70.9605 12.1003 70.5518 11.9258 70.1257 11.9258H68.6541V38.5792H71.7323V26.0851H76.178L82.4713 37.2244C82.9441 38.0598 83.8205 38.5792 84.7589 38.5792H86.7344L78.7687 24.7492L86.1392 12.0858V12.0877Z" fill="#321A45"/>
</g>
<defs>
<clipPath id="clip0">
<rect width="226" height="51" fill="white" transform="translate(0.578125 0.75647)"/>
</clipPath>
</defs>
</svg>
