<svg width="59" height="60" viewBox="0 0 59 60" fill="none" xmlns="http://www.w3.org/2000/svg">
<g clip-path="url(#clip0)">
<path d="M46.1774 49.3546C54.2501 47.7835 59.2419 43.7266 59.2419 29.9998C59.2419 18.3868 43.0323 0.725488 28.0323 0.725586C8.87852 0.725711 21.9839 14.5159 13.5161 19.5965C6.16382 24.0079 0.451633 24.911 0.451633 37.0161C0.451633 50.3705 6.30841 54.2877 13.5161 51.7739C20.7239 49.2602 19.8932 59.032 29.7258 59.032C40.815 59.032 38.1047 50.9257 46.1774 49.3546Z" fill="#F1F8FE"/>
<path d="M29.0759 0.000221584C36.6674 -0.0266601 43.037 2.39269 48.6007 7.07011C51.8505 9.78517 54.3723 13.1454 56.1662 17.0432C57.4401 19.8389 58.2721 22.769 58.714 25.8336C59 27.8497 59.078 29.8927 58.974 31.9088C58.818 34.9196 58.1421 37.8497 57.0501 40.6723C55.8802 43.6561 54.2943 46.3712 52.2404 48.7905C50.2126 51.183 47.8727 53.226 45.2469 54.8658C42.881 56.3712 40.3852 57.554 37.6813 58.2529C35.4715 58.8174 33.2616 59.1669 30.9738 59.2475C29.4139 59.2744 27.8539 59.2744 26.32 59.1131C24.5262 58.9518 22.7583 58.5486 21.0164 58.011C19.4825 57.5271 18.0006 56.9357 16.5446 56.2368C16.3107 56.1292 15.9987 56.0755 15.7387 56.1561C13.2168 56.9626 10.721 57.7959 8.22516 58.6024C6.35327 59.2206 4.48139 59.7583 2.6095 60.3766C2.01154 60.5647 1.56957 60.3228 1.1016 60.0002C0.789615 59.7852 0.841612 59.4626 0.893608 59.14C1.0496 58.3873 1.20559 57.6615 1.36158 56.9357C2.08953 53.6293 2.81749 50.3497 3.54545 47.0432C3.70144 46.3712 3.88342 45.6991 4.09141 45.054C4.2474 44.5701 4.16941 44.1669 3.96142 43.7099C2.5835 40.8604 1.36158 37.9303 0.86761 34.7583C0.529631 32.6884 0.347642 30.5916 0.477634 28.4948C0.737618 24.1938 1.56957 20.0271 3.46745 16.1561C4.50739 14.0325 5.80731 12.0432 7.31521 10.2153C9.60307 7.47334 12.3589 5.34968 15.3487 3.54861C18.0785 1.96259 21.0424 1.02173 24.1102 0.430329C24.9941 0.269039 25.9041 0.188394 26.788 0.107748C27.672 0.053985 28.5559 0.0271033 29.0759 0.000221584ZM2.99948 58.683C5.18334 57.9841 7.23722 57.3389 9.26509 56.6669C11.501 55.9411 13.7368 55.1884 15.9727 54.4357C16.3627 54.3013 16.7266 54.2744 17.1426 54.5163C19.1705 55.726 21.3543 56.5594 23.6162 57.1508C25.6701 57.7153 27.776 57.9841 29.8818 57.9841C31.2597 57.9841 32.6377 57.8228 33.9896 57.6077C36.6674 57.1776 39.2152 56.2637 41.6331 55.0002C44.2589 53.6293 46.6248 51.8282 48.6527 49.5701C50.4206 47.6077 51.9025 45.4572 53.0984 43.1185C54.9183 39.5701 55.9062 35.8067 56.2182 31.8282C56.3482 30.1077 56.3482 28.3604 56.1402 26.6131C55.9582 25.054 55.6982 23.5217 55.3083 22.0432C54.7363 19.9465 53.9043 17.9572 52.9164 16.0486C51.2265 12.8228 49.0166 10.0002 46.3128 7.60775C44.4149 5.94108 42.3091 4.597 40.0472 3.49484C36.9534 2.01635 33.7036 1.23678 30.3238 1.02173C28.5039 0.887318 26.684 1.10237 24.8641 1.39807C22.5243 1.8013 20.3144 2.58087 18.1565 3.54861C14.3608 5.21527 11.345 7.87657 8.71913 11.0755C6.92524 13.2529 5.57332 15.6991 4.50739 18.3336C3.31146 21.1293 2.55751 24.0325 2.40152 27.0701C2.29752 29.0594 2.32352 31.0486 2.6615 33.011C3.25946 36.6938 4.16941 40.2959 6.14528 43.4948C6.30128 43.7368 6.30127 43.9787 6.24928 44.2475C5.9633 45.5916 5.72931 46.9626 5.41733 48.2798C4.79337 50.9948 4.14341 53.683 3.51945 56.3981C3.33746 57.097 3.18147 57.8497 2.99948 58.683Z" fill="black"/>
<path d="M7.49724 52.6881C8.35518 49.4085 9.16113 46.2096 10.0191 42.8763C9.88909 42.6881 9.7071 42.3118 9.44712 41.9892C7.67923 39.7311 6.74328 37.0967 6.14532 34.301C5.72935 32.4193 5.78134 30.5376 5.91134 28.629C6.24931 23.844 8.0432 19.6505 10.929 15.9677C13.1649 13.0913 15.9727 10.9946 19.1965 9.46231C21.5624 8.36016 24.0322 7.715 26.5801 7.33865C28.218 7.1236 29.8819 7.1236 31.5458 7.28489C34.1716 7.55371 36.7194 8.17199 39.1373 9.27414C41.2172 10.215 43.141 11.4516 44.8569 13.0376C46.4168 14.4892 47.9247 15.9946 49.0687 17.8225C50.6546 20.4301 51.6165 23.2526 52.0845 26.2903C52.2925 27.715 52.3445 29.1397 52.2665 30.5645C52.1885 32.0967 51.9545 33.6021 51.5905 35.1075C50.7586 38.6021 49.1987 41.7204 46.9368 44.4085C44.8049 46.9354 42.2571 48.8978 39.3193 50.2956C36.8494 51.4784 34.2236 52.258 31.5198 52.5806C29.9079 52.7956 28.296 52.7419 26.6841 52.6612C24.0062 52.4999 21.5104 51.8279 19.0665 50.7258C18.4946 50.4569 17.9486 50.1612 17.4026 49.8655C17.1426 49.7042 16.9087 49.6774 16.6227 49.7849C14.3868 50.672 12.151 51.5322 9.91509 52.4193C9.18713 52.715 8.43318 52.8763 7.49724 52.6881ZM15.3748 23.3333C15.3488 25.3763 15.7387 27.1505 16.8047 28.7365C17.5586 29.8924 18.3386 31.0483 19.1445 32.1774C20.2105 33.6827 21.2504 35.215 22.5503 36.5591C23.5382 37.5537 24.6042 38.4677 25.7481 39.2473C28.6339 41.2365 31.6237 42.9838 35.1595 43.4677C35.5755 43.5215 35.9655 43.5483 36.3815 43.629C37.3954 43.844 38.4093 43.7096 39.3713 43.4139C41.2172 42.8494 42.5171 41.5591 43.505 39.8655C43.947 39.1129 43.999 38.4139 43.453 37.715C42.4391 36.4247 41.2952 35.2688 39.7612 34.6774C38.9813 34.3817 38.1753 34.086 37.3174 34.1397C36.3555 34.2204 35.5235 34.4354 35.0555 35.4569C34.8476 35.9139 34.4316 36.3172 34.0936 36.7204C33.8596 36.9892 33.5736 37.0967 33.2097 37.043C31.7537 36.7204 30.3238 36.2903 29.1019 35.3494C27.75 34.301 26.3721 33.2258 25.2541 31.8817C24.4742 30.9408 23.7462 29.9193 23.0963 28.8978C22.4723 27.9301 22.5763 27.2849 23.3823 26.4516C23.6682 26.1559 23.9542 25.8333 24.2662 25.5645C24.9942 24.8924 25.0982 24.086 24.7342 23.1989C24.5002 22.6075 24.2402 22.0161 23.9802 21.4247C23.5122 20.3225 22.9923 19.2473 22.1863 18.3602C21.7704 17.9032 21.4584 17.258 20.7824 17.1236C19.6125 16.9085 18.5206 17.3387 17.6626 18.0913C17.0386 18.6559 16.6227 19.4354 16.1027 20.1344C15.9727 20.3225 15.8687 20.5645 15.7907 20.7795C15.5307 21.6666 15.2968 22.5537 15.3748 23.3333Z" fill="black"/>
</g>
<defs>
<clipPath id="clip0">
<rect width="58.5484" height="60.4839" fill="white" transform="translate(0.451613)"/>
</clipPath>
</defs>
</svg>
