<svg width="165" height="63" viewBox="0 0 165 63" fill="none" xmlns="http://www.w3.org/2000/svg">
<g clip-path="url(#clip0)">
<path d="M0 55.2659C0.0986252 55.1109 0.21134 54.9559 0.281786 54.801C3.5646 47.6304 6.8615 40.4738 10.1443 33.3032C10.2288 33.1201 10.2993 32.9229 10.3979 32.6834C10.0457 32.472 9.69345 32.2889 9.35531 32.0776C5.79071 29.9081 3.64913 26.7384 2.81786 22.6811C1.93024 18.3562 1.9725 14.0595 3.53642 9.88953C5.69208 4.18403 9.91888 1.0284 15.9068 0.169052C16.6677 0.0563506 17.4426 0.0140877 18.2175 0.0140877C21.0354 0 23.8532 0 26.657 0C26.8401 0 27.0233 0.0281753 27.2487 0.042263C27.2487 18.4689 27.2487 36.8674 27.2487 55.3081C25.3326 55.3081 23.4164 55.3081 21.3876 55.3081C21.3594 53.9135 21.3735 52.5188 21.3735 51.1241C21.3735 49.7153 21.3735 48.3066 21.3735 46.9119C21.3735 45.489 21.3735 44.0521 21.3735 42.6292C21.3735 41.2205 21.3735 39.8117 21.3735 38.417C21.3735 37.0224 21.3735 35.6136 21.3735 34.1907C19.6546 34.1907 18.0202 34.1907 16.3436 34.1907C16.2309 34.4161 16.1182 34.6415 16.0196 34.881C13.1031 41.4459 10.1584 48.0248 7.24191 54.6178C7.00239 55.1673 6.7206 55.3927 6.11476 55.3786C4.31133 55.3363 2.5079 55.3645 0.690377 55.3645C0.464947 55.3645 0.225429 55.3927 0 55.4067C0 55.3504 0 55.3081 0 55.2659ZM21.3312 5.02929C21.1762 5.00112 21.0635 4.97294 20.9508 4.97294C19.9364 4.97294 18.936 4.95886 17.9216 4.98703C16.0477 5.04338 14.3147 5.52236 12.7931 6.66346C11.0742 7.94544 10.0457 9.70639 9.42575 11.7209C8.60857 14.3553 8.55222 17.0742 8.77765 19.7932C8.89036 21.1737 9.18624 22.5262 9.69345 23.8222C10.8065 26.5834 12.7649 28.3725 15.7096 28.9783C17.4848 29.3446 19.3024 29.246 21.1058 29.2178C21.1762 29.2178 21.2326 29.1614 21.3171 29.1333C21.3312 21.0892 21.3312 13.0733 21.3312 5.02929Z" fill="#FF0000"/>
<path d="M87.1988 63.0003C85.3813 63.0003 83.6342 63.0003 81.8167 63.0003C81.8167 60.4645 81.8167 57.971 81.8167 55.4211C76.2091 55.4211 70.6579 55.4211 65.0504 55.4211C65.0504 57.9428 65.0504 60.4363 65.0504 62.9862C63.2188 62.9862 61.4576 62.9862 59.6401 62.9862C59.6401 58.8162 59.6401 54.6604 59.6401 50.4482C60.4291 50.4482 61.1758 50.4482 61.993 50.4482C62.2043 49.941 62.4157 49.4479 62.5988 48.9549C63.726 45.8133 64.4304 42.5732 64.9095 39.2766C65.9239 32.2328 65.9662 25.1326 65.9944 18.0325C65.9944 17.4971 65.9944 16.9618 65.9944 16.3701C72.0528 16.3701 78.0689 16.3701 84.1555 16.3701C84.1555 27.7107 84.1555 39.0372 84.1555 50.4341C85.2122 50.4341 86.1844 50.4341 87.1988 50.4341C87.1988 54.6604 87.1988 58.7881 87.1988 63.0003ZM67.8119 50.3918C71.2919 50.3918 74.6875 50.3918 78.1112 50.3918C78.1112 40.6572 78.1112 30.979 78.1112 21.2726C75.871 21.2726 73.659 21.2726 71.3906 21.2726C71.3906 21.5966 71.3906 21.8784 71.3906 22.1601C71.3906 27.9643 71.1933 33.7684 70.3902 39.5302C69.9112 42.9817 69.2067 46.3909 68.0373 49.6874C67.9669 49.8987 67.8964 50.1101 67.8119 50.3918Z" fill="black"/>
<path d="M50.1298 37.8821C47.1006 37.8821 44.1559 37.8821 41.1408 37.8821C41.1408 43.7003 41.1408 49.4904 41.1408 55.3227C39.0978 55.3227 37.1394 55.3227 35.1246 55.3227C35.1246 42.3338 35.1246 29.3591 35.1246 16.3421C37.1112 16.3421 39.0696 16.3421 41.0844 16.3421C41.0844 21.8222 41.0844 27.3023 41.0844 32.7402C41.6339 32.9092 48.7913 32.9656 50.0875 32.8247C50.0875 27.3587 50.0875 21.8927 50.0875 16.4407C50.637 16.2717 54.7229 16.2153 56.0614 16.3562C56.0614 29.3309 56.0614 42.3198 56.0614 55.3227C54.0748 55.3227 52.1445 55.3227 50.1298 55.3227C50.1298 49.5185 50.1298 43.7144 50.1298 37.8821Z" fill="black"/>
<path d="M112.151 48.1377C112.602 49.6028 113.01 50.9834 113.433 52.378C113.546 52.7162 113.391 52.8852 113.137 53.0683C111.32 54.3785 109.305 55.2238 107.121 55.6464C104.881 56.069 102.641 56.1113 100.429 55.4914C97.019 54.5335 94.7224 52.3076 93.1585 49.2224C92.1441 47.1938 91.5382 45.0384 91.2424 42.7984C90.552 37.4874 90.7915 32.1904 91.9328 26.9498C92.4118 24.7522 93.1585 22.6249 94.3561 20.6949C95.7228 18.4832 97.5262 16.8067 100.09 16.1446C103.43 15.2712 107.516 15.9474 109.995 19.1594C110.939 20.385 111.587 21.7374 112.08 23.1884C112.799 25.3579 113.194 27.5979 113.32 29.866C113.447 32.1341 113.433 34.4022 113.489 36.6703C113.489 36.8535 113.475 37.0366 113.461 37.2761C108.037 37.2761 102.655 37.2761 97.2303 37.2761C97.2162 37.5156 97.1881 37.6987 97.1881 37.8819C97.2585 40.319 97.3994 42.7562 98.1602 45.0947C98.4702 46.0668 98.8788 47.0247 99.4142 47.8982C100.724 50.0536 102.711 50.9129 105.205 50.7298C107.501 50.5607 109.587 49.7859 111.517 48.5744C111.686 48.4194 111.883 48.2926 112.151 48.1377ZM107.22 32.2468C107.234 32.0918 107.262 31.9791 107.262 31.8664C107.163 30.2604 107.121 28.6404 106.952 27.0344C106.783 25.527 106.431 24.0337 105.698 22.6813C104.233 19.9764 101.077 20.4132 99.7805 22.1459C99.3015 22.794 98.8929 23.5265 98.597 24.2873C97.8784 26.1046 97.6248 28.0346 97.4417 29.9787C97.3712 30.7253 97.329 31.472 97.2585 32.2609C100.612 32.2468 103.895 32.2468 107.22 32.2468Z" fill="black"/>
<path d="M142.626 55.3508C140.372 55.3508 138.216 55.3508 136.032 55.3508C132.637 48.955 129.241 42.5452 125.846 36.1494C125.804 36.1635 125.761 36.1775 125.733 36.1916C125.733 42.5452 125.733 48.9128 125.733 55.3227C123.704 55.3227 121.732 55.3227 119.717 55.3227C119.717 42.3339 119.717 29.3732 119.717 16.3562C121.704 16.3562 123.662 16.3562 125.705 16.3562C125.705 22.2449 125.705 28.1476 125.705 34.0503C125.747 34.0644 125.804 34.0785 125.846 34.0785C125.987 33.839 126.128 33.6136 126.254 33.3741C129.086 27.9081 131.932 22.4562 134.75 16.9902C135.004 16.4971 135.272 16.2717 135.863 16.2858C137.624 16.328 139.372 16.2999 141.245 16.2999C141.09 16.6098 140.964 16.8493 140.837 17.0888C137.878 22.6957 134.919 28.3166 131.932 33.9094C131.622 34.487 131.665 34.8956 131.961 35.445C135.398 41.8126 138.808 48.1802 142.218 54.5619C142.344 54.8014 142.457 55.0268 142.626 55.3508Z" fill="black"/>
<path d="M164.535 17.8065C164.253 19.6801 163.986 21.5397 163.69 23.4979C163.464 23.3288 163.281 23.2161 163.112 23.0753C161.689 22.0046 160.153 21.2016 158.364 20.9058C156.307 20.5677 154.56 21.1453 153.151 22.6667C151.939 23.9769 151.263 25.5547 150.77 27.2311C150.122 29.4429 149.882 31.7251 149.798 34.0214C149.713 36.6417 149.812 39.262 150.192 41.8682C150.446 43.5446 150.812 45.1788 151.502 46.7284C151.925 47.6723 152.446 48.5598 153.193 49.2924C154.222 50.3208 155.461 50.8561 156.913 50.8561C159.237 50.8702 161.351 50.2081 163.197 48.7712C163.309 48.6866 163.422 48.6162 163.605 48.4753C164.07 49.9686 164.521 51.4196 165 52.927C164.704 53.1665 164.408 53.4201 164.098 53.6455C161.788 55.336 159.181 55.9981 156.349 55.8995C153.038 55.7727 150.178 54.6035 147.952 52.0818C146.853 50.842 146.036 49.4192 145.416 47.8977C144.331 45.2774 143.824 42.5162 143.584 39.7128C143.373 37.1911 143.359 34.6553 143.584 32.1336C143.908 28.6117 144.613 25.1884 146.402 22.075C148.304 18.7363 151.094 16.5668 154.94 15.9469C158.026 15.4538 161.013 15.7638 163.802 17.3275C164.056 17.4966 164.281 17.6515 164.535 17.8065Z" fill="black"/>
</g>
<defs>
<clipPath id="clip0">
<rect width="165" height="63" fill="white"/>
</clipPath>
</defs>
</svg>
