<svg width="16" height="16" viewBox="0 0 16 16" fill="none" xmlns="http://www.w3.org/2000/svg">
<path d="M12.4671 8.03016C12.4671 8.005 12.4671 7.98488 12.4671 7.95972C12.4534 7.77356 12.3755 7.62261 12.2426 7.52199C12.2151 7.50186 12.1831 7.48173 12.1556 7.46161C12.0594 7.40123 9.69994 5.90186 9.69994 5.90186C9.49378 5.77104 9.28762 5.64022 9.08145 5.50941L12.1831 3.54211C12.206 3.52702 12.2335 3.51192 12.2609 3.48677C12.4305 3.35092 12.5038 3.11444 12.4534 2.88802C12.4167 2.73708 12.3297 2.61129 12.1922 2.52576C11.7662 2.25909 11.3401 1.98739 10.9186 1.7157L8.54543 0.226389C8.52252 0.211294 8.49503 0.1962 8.47213 0.181106C8.42631 0.150917 8.3805 0.12576 8.33468 0.0955709C8.24306 0.0351936 8.14685 0.00500488 8.04606 0.00500488C7.94526 0.00500488 7.84906 0.0351936 7.75743 0.100602C7.75285 0.0955709 7.74826 0.100602 7.74368 0.100602L5.54919 1.49431C5.01775 1.83142 4.46798 2.17859 3.92738 2.52073C3.72579 2.64651 3.625 2.83771 3.625 3.08928C3.625 4.32199 3.625 5.57985 3.625 6.79243V7.89934C3.625 7.9396 3.625 7.97985 3.625 8.01507C3.625 8.1157 3.65707 8.21632 3.71663 8.31192C3.75786 8.38236 3.81742 8.43771 3.89531 8.48802C3.97777 8.54337 7.01066 10.4654 7.01066 10.4654C6.57084 10.7421 3.93654 12.4126 3.93654 12.4126C3.90905 12.4276 3.88156 12.4478 3.84949 12.4729C3.70747 12.5786 3.62042 12.7547 3.62042 12.9459C3.62042 13.1371 3.70747 13.3132 3.85407 13.4188C3.8724 13.4289 3.88614 13.444 3.90447 13.4541L7.34968 15.6377L7.47338 15.7182C7.56959 15.7786 7.6658 15.839 7.75743 15.8993C7.84906 15.9597 7.94527 15.9899 8.04147 15.9899C8.14227 15.9899 8.23389 15.9597 8.32552 15.8993L8.34385 15.8893L12.0594 13.5346L12.096 13.5094C12.1372 13.4842 12.1739 13.4591 12.2151 13.4339C12.3663 13.3333 12.4534 13.1673 12.4625 12.966C12.4625 12.9459 12.4625 12.9308 12.4625 12.9107L12.4671 8.03016ZM8.56375 9.48928C8.56375 8.49305 8.56375 7.49683 8.56375 6.5006C8.60499 6.52576 10.9232 7.99494 10.9232 7.99494C10.859 8.03016 8.56375 9.48928 8.56375 9.48928ZM10.9186 12.9459L8.56375 14.4402C8.56375 13.444 8.56375 12.4478 8.56375 11.4566C8.6508 11.5069 10.9186 12.9459 10.9186 12.9459ZM9.08145 10.4704C9.86487 9.9723 10.6483 9.47419 11.4317 8.9811C11.4317 9.97733 11.4317 10.9685 11.4317 11.9648C11.3722 11.9195 9.70452 10.8679 9.08145 10.4704ZM8.55917 1.54463C9.34717 2.04274 10.1306 2.54085 10.9186 3.03897C10.1306 3.53708 9.34717 4.03519 8.55917 4.53331V1.54463ZM7.52836 9.48425C6.92819 9.11192 5.75536 8.36727 5.16894 7.99494C5.95694 7.49683 6.74494 6.99368 7.53294 6.49557C7.53752 7.24526 7.53294 8.72953 7.52836 9.48425ZM5.17352 3.03897C5.96152 2.54085 6.74494 2.04274 7.52836 1.54463C7.52836 2.54085 7.52836 3.53708 7.52836 4.53331C6.74494 4.03519 5.96152 3.53708 5.17352 3.03897ZM4.6604 4.0201C4.66956 4.02513 7.01524 5.51444 7.01524 5.51444C6.22724 6.01255 5.44382 6.51066 4.65582 7.00878C4.65124 6.26916 4.65582 4.77985 4.6604 4.0201ZM7.53294 14.4453C6.9511 14.078 5.77368 13.3283 5.1781 12.9459C5.18726 12.9409 7.52836 11.4566 7.52836 11.4566C7.53294 12.2163 7.53294 13.7056 7.53294 14.4453Z" fill="url(#paint0_linear)"/>
<defs>
<linearGradient id="paint0_linear" x1="9.87496" y1="-3.22016" x2="16.7836" y2="0.784831" gradientUnits="userSpaceOnUse">
<stop stop-color="#72B8F3"/>
<stop offset="0.546875" stop-color="#72B28B"/>
<stop offset="1" stop-color="#9FCB6D"/>
</linearGradient>
</defs>
</svg>
