<svg width="60" height="47" viewBox="0 0 60 47" fill="none" xmlns="http://www.w3.org/2000/svg">
<g clip-path="url(#clip0)">
<path d="M17.8021 7.00366C17.504 7.09459 17.2058 7.14006 16.9252 7.27646C12.979 9.00423 9.06786 10.8002 5.22688 12.8008C4.84103 13.0054 4.43763 13.21 4.01671 13.3691C4.08686 13.2782 4.15702 13.1872 4.22717 13.119C4.98134 12.4143 5.71796 11.6868 6.48967 10.9821C6.68259 10.8002 6.89306 10.6638 7.10352 10.5501C10.927 8.59502 14.7855 6.77632 18.6966 5.13948C20.6259 4.3438 22.5551 3.59358 24.5019 2.88884C26.6592 2.11589 28.8516 1.50208 31.0614 1.09287C32.2891 0.865529 33.5344 0.706392 34.7796 0.479054C36.9895 0.0925794 39.2345 0.115313 41.4619 0.228982C44.3733 0.365385 47.2321 0.956464 50.0383 2.07042C52.0377 2.8661 53.967 3.86639 55.7033 5.38956C56.9311 6.45804 58.0535 7.66294 58.8779 9.29977C59.5969 10.732 60.0179 12.2779 60.0179 14.0284C60.0179 15.7107 59.7022 17.2566 59.176 18.7798C58.3868 21.0986 57.2117 23.0992 55.8963 24.9634C53.9845 27.6687 51.7747 29.8284 49.4069 31.7835C47.1269 33.6931 44.7592 35.3754 42.3038 36.8986C38.9188 39.0128 35.4286 40.8088 31.8331 42.2638C29.8513 43.0595 27.8518 43.8324 25.8173 44.4008C24.3967 44.7872 22.9761 45.1055 21.5379 45.401C20.4154 45.6284 19.2579 45.7648 18.1354 45.9467C17.8548 45.9921 17.5566 45.9921 17.2584 46.0149C15.6449 46.0603 14.0138 46.1513 12.4002 46.1058C10.4534 46.0376 8.52416 45.6511 6.66505 44.8554C4.8761 44.0825 3.28008 42.9231 1.98221 41.1498C0.947427 39.7403 0.316033 38.058 0.105568 36.1484C-0.139974 33.9205 0.123107 31.7608 0.684346 29.6465C1.59636 26.2592 2.99946 23.2356 4.77087 20.4848C5.82319 18.848 6.96321 17.3475 8.15585 15.9153C9.59402 14.1648 11.1199 12.5734 12.7159 11.0957C14.2593 9.66351 15.8553 8.34495 17.5391 7.20826C17.6092 7.14006 17.6969 7.07186 17.8021 7.00366V6.95819V7.00366ZM5.77058 21.6897C5.68288 21.8034 5.59519 21.917 5.52504 22.0307C4.06932 24.5314 2.85915 27.1913 2.06991 30.1694C1.52621 32.2154 1.26312 34.2842 1.49113 36.4439C1.70159 38.2626 2.28037 39.854 3.28008 41.1953C4.34994 42.6275 5.66535 43.5369 7.12106 44.128C8.7697 44.81 10.471 45.0373 12.1898 45.0828C13.1719 45.1055 14.1716 45.1055 15.1538 45.0828C15.6975 45.0828 16.2587 45.0373 16.8024 44.9691C17.8372 44.8554 18.8895 44.719 19.9243 44.5372C21.2397 44.3098 22.5376 44.0825 23.8355 43.7187C25.6244 43.1959 27.3958 42.6048 29.1497 41.9682C33.0258 40.5587 36.7615 38.6718 40.4096 36.4212C43.1632 34.7162 45.829 32.8293 48.3897 30.6695C50.9328 28.5098 53.3005 26.0773 55.2473 23.031C56.4049 21.235 57.3871 19.3026 57.9834 17.0747C58.3868 15.5743 58.5797 14.0284 58.3692 12.4598C58.1061 10.3001 57.2292 8.54955 55.9664 7.14006C53.967 4.88941 51.5817 3.61632 49.0386 2.75243C47.8109 2.34323 46.5832 2.00222 45.3204 1.84308C44.1102 1.68395 42.9001 1.47934 41.6724 1.43387C39.9536 1.36567 38.2348 1.34294 36.516 1.59301C35.3233 1.77488 34.1132 1.91128 32.9205 2.09315C31.9734 2.22956 31.0264 2.50236 30.0617 2.47963C29.5882 2.45689 29.0971 2.6615 28.6235 2.77517C28.6235 2.82064 28.6235 2.84337 28.6235 2.88884C32.2716 3.20711 35.8495 3.93459 39.3046 5.57143C39.1117 6.45804 38.9188 6.61718 38.3225 6.41258C36.7089 5.86697 35.0603 5.48049 33.4116 5.18495C32.3418 5.00308 31.2544 4.86668 30.167 4.73028C29.2199 4.61661 28.2552 4.5484 27.2906 4.4802C26.8346 4.45747 26.361 4.50294 25.905 4.57114C25.2386 4.68481 24.537 4.75301 23.8881 5.02581C21.8361 5.91243 19.8542 7.02639 17.9775 8.41315C14.2944 11.1412 10.962 14.4831 7.96292 18.3933C7.47184 19.0526 6.99829 19.7573 6.52474 20.4166C7.57707 21.7124 8.61185 22.9401 9.64664 24.2131C9.69925 24.0085 9.75187 23.8494 9.76941 23.713C10.1553 21.6897 10.506 19.6436 10.9445 17.6431C11.2251 16.3927 11.418 16.1881 12.2248 16.1199C12.6808 16.0744 12.8211 16.3472 12.6282 16.8701C12.6458 16.9156 12.6282 16.9838 12.6282 17.0293C12.4353 18.075 12.2424 19.1208 12.067 20.1665C11.9091 21.0531 11.7688 21.9625 11.5934 22.8491C11.418 23.7812 11.2427 24.7133 11.0848 25.6454C11.0673 25.7818 11.1199 25.9864 11.19 26.0773C11.5934 26.6457 12.0144 27.1685 12.4353 27.7369C12.6458 28.0097 12.8562 28.3052 13.0667 28.6008C13.5929 29.3282 14.1541 30.0103 14.6627 30.7605C15.3467 31.7608 15.9957 32.7838 16.6446 33.8068C16.82 34.0796 16.9077 34.4206 17.0304 34.7389C17.1181 35.0117 17.0304 35.2618 16.8375 35.3527C16.4692 35.5346 16.1009 35.671 15.715 35.3527C15.3116 34.989 14.9083 34.6252 14.575 34.1251C14.1541 33.4885 13.6981 32.8975 13.2421 32.2609C12.7335 31.5562 12.2248 30.8287 11.6987 30.1239C11.3654 29.6693 11.0147 29.2146 10.6288 28.7144C10.5411 29.1691 10.471 29.5556 10.4008 29.9648C10.0325 31.9426 9.66418 33.9205 9.29586 35.8983C9.22571 36.3075 9.13801 36.694 9.01524 37.0805C8.87493 37.5351 8.50662 37.7852 8.13831 37.6716C7.94538 37.6261 7.82261 37.4897 7.82261 37.2169C7.82261 36.9441 7.80507 36.694 7.85769 36.4212C8.15585 34.4661 8.454 32.511 8.75216 30.5559C8.92755 29.4646 9.10294 28.3734 9.27832 27.3049C9.33094 26.9639 9.29586 26.6911 9.06786 26.4411C8.87493 26.2365 8.71708 26.0091 8.5417 25.759C7.62968 24.4405 6.71767 23.0992 5.77058 21.6897Z" fill="black"/>
<path d="M21.1342 20.3711C21.257 19.6664 21.3798 19.0526 21.485 18.4388C21.8007 16.8247 22.1164 15.1878 22.4496 13.5737C22.5198 13.2555 22.6426 12.9372 22.7829 12.6644C23.0459 12.1415 23.8878 12.0733 24.2912 12.528C23.7826 14.1875 23.5546 15.938 23.2389 17.6885C23.0986 18.4842 22.9232 19.3026 22.7829 20.0983C22.6776 20.6667 22.5724 21.235 22.5198 21.8034C22.5022 21.9625 22.5899 22.2126 22.6776 22.349C23.3967 23.3265 24.1333 24.2813 24.87 25.2589C25.1857 25.6681 25.4838 26.1228 25.782 26.532C26.01 26.8503 26.2205 27.1685 26.4485 27.4868C26.8343 28.0551 27.2202 28.6008 27.606 29.1691C27.8165 29.4874 28.0094 29.8057 28.1848 30.1694C28.3251 30.4649 28.4303 30.8059 28.5356 31.1242C28.6057 31.3288 28.518 31.488 28.3777 31.5789C27.9393 31.829 27.5183 31.8972 27.0623 31.5334C26.5362 31.1015 26.1328 30.5104 25.7118 29.9421C25.0629 29.0782 24.4666 28.1688 23.8352 27.2822C23.2739 26.5093 22.6952 25.7363 22.0813 24.8952C21.9761 25.3953 21.8884 25.8727 21.8007 26.3501C21.5902 27.4413 21.3973 28.5326 21.2044 29.6465C21.0816 30.3285 20.9764 31.0105 20.8536 31.6926C20.7308 32.2836 20.573 32.8747 20.4151 33.4658C20.2924 33.9887 19.7487 34.0796 19.4505 33.9659C19.2225 33.875 19.2225 33.6022 19.24 33.3521C19.2751 32.8065 19.3102 32.2609 19.3803 31.7153C19.5031 30.8059 19.6259 29.8966 19.7662 29.01C20.0468 27.4186 20.345 25.8272 20.6256 24.2359C20.6782 23.9858 20.6782 23.713 20.7308 23.4629C20.801 23.1219 20.6782 22.8946 20.5204 22.6672C19.924 21.8261 19.3453 20.9849 18.749 20.1438C18.4333 19.6891 18.0825 19.2572 17.7843 18.7798C17.416 18.2342 17.0652 17.6658 16.732 17.052C16.4865 16.6201 16.5917 16.37 16.9951 16.279C17.2932 16.2108 17.5739 16.2563 17.8194 16.5064C18.3982 17.1657 18.977 17.8022 19.5557 18.4842C20.0644 19.0298 20.573 19.6664 21.1342 20.3711Z" fill="black"/>
<path d="M43.5838 13.301C43.7416 12.4598 43.8819 11.7323 44.0398 10.9821C44.3204 9.52716 44.601 8.04946 44.8992 6.5945C44.9693 6.25349 45.1096 5.93522 45.2675 5.63968C45.5481 5.1168 46.1269 5.0486 46.4952 5.185C46.6004 5.23047 46.6706 5.36687 46.7056 5.41234C46.5829 5.98069 46.4601 6.48083 46.3549 6.98097C45.9866 9.04975 45.6182 11.1185 45.2324 13.1873C45.1447 13.642 45.0921 14.1194 44.9869 14.5513C44.9167 14.8241 44.9693 14.9605 45.1096 15.1424C45.8463 16.0972 46.6004 17.0293 47.302 18.0296C48.2841 19.4164 49.2488 20.8259 50.1783 22.2581C50.4589 22.6673 50.7746 23.0765 50.8623 23.6676C50.95 24.145 50.8974 24.2814 50.5466 24.4178C50.1257 24.5997 49.7398 24.5315 49.354 24.1677C48.7752 23.6449 48.3192 22.9628 47.8457 22.3036C47.2493 21.4624 46.653 20.6213 46.0392 19.7801C45.5832 19.1436 45.1096 18.4843 44.6536 17.8477C44.6185 17.8023 44.5659 17.7568 44.4958 17.6659C44.3379 18.507 44.1976 19.3254 44.0573 20.1211C43.8468 21.3033 43.6188 22.4627 43.3908 23.6221C43.233 24.4178 43.0751 25.2135 42.8997 26.0092C42.777 26.532 42.3034 26.7821 41.9176 26.6002C41.7247 26.5093 41.6896 26.3047 41.6896 26.1001C41.7071 25.6227 41.7247 25.1225 41.7948 24.6451C42.0053 23.1902 42.2508 21.7352 42.4964 20.2802C42.6893 19.0526 42.8647 17.8023 43.1102 16.5746C43.233 15.9381 43.0576 15.5062 42.7419 15.0742C42.2508 14.4149 41.7773 13.7329 41.3037 13.0282C40.7951 12.2779 40.2865 11.5277 39.7779 10.7775C39.5499 10.4365 39.3569 10.05 39.1815 9.66356C39.0237 9.32256 39.1465 9.07248 39.4446 9.02702C39.7779 8.95881 40.076 8.98155 40.3391 9.29982C40.7776 9.84543 41.2336 10.3456 41.6896 10.8912C42.0754 11.3459 42.4613 11.8005 42.8471 12.278C43.0927 12.6417 43.3031 12.9372 43.5838 13.301Z" fill="black"/>
<path d="M33.534 21.3941C33.3762 22.2352 33.2534 22.94 33.1306 23.6447C32.85 25.1451 32.5694 26.6456 32.2888 28.146C32.2186 28.5779 32.1485 28.9872 32.0608 29.4191C31.8678 30.3512 31.5697 30.5558 30.7804 30.283C30.7629 30.0329 30.7278 29.7374 30.7454 29.4873C30.8681 28.3733 31.0084 27.2594 31.1663 26.1682C31.4645 24.304 31.7801 22.4398 32.0958 20.5984C32.1134 20.462 32.1485 20.3028 32.166 20.1664C32.2362 19.78 32.2011 19.5072 31.938 19.1889C31.2715 18.3477 30.6927 17.4157 30.0789 16.5063C29.5878 15.7788 29.0967 15.0286 28.6056 14.2784C28.4653 14.0738 28.3426 13.8237 28.2198 13.5964C28.0269 13.1872 28.1321 12.9371 28.5004 12.8234C28.746 12.7552 28.974 12.778 29.1669 12.9598C29.5878 13.369 29.9912 13.801 30.3771 14.2557C31.0786 15.0968 31.7626 15.9607 32.4642 16.8018C32.4992 16.8473 32.5343 16.8473 32.6045 16.9155C32.7272 16.3017 32.8325 15.7106 32.9552 15.1195C33.2534 13.5736 33.5516 12.005 33.8673 10.4591C33.955 10.0726 34.0953 9.68616 34.2531 9.32242C34.5337 8.73134 35.323 8.66314 35.6562 9.11782C35.323 10.982 34.9722 12.8234 34.639 14.6649C34.4285 15.847 34.218 17.0519 33.99 18.2341C33.9374 18.4841 33.9549 18.666 34.0953 18.8479C34.6565 19.5754 35.2177 20.3256 35.7614 21.0758C36.3051 21.8033 36.8313 22.5535 37.3575 23.3037C37.8661 24.0312 38.3747 24.7587 38.8483 25.5089C39.1464 25.9636 39.427 26.441 39.7077 26.9411C39.7953 27.0775 39.8304 27.2821 39.883 27.464C39.9707 27.8505 39.9006 28.0096 39.6024 28.146C39.1464 28.3506 38.7255 28.3506 38.3221 27.9414C38.1993 27.805 38.059 27.6913 37.9538 27.5322C37.3224 26.691 36.7085 25.8272 36.0947 24.986C35.5861 24.304 35.0774 23.6447 34.5863 22.9627C34.3408 22.6444 34.1303 22.2807 33.8848 21.9624C33.8146 21.7805 33.7094 21.6214 33.534 21.3941Z" fill="black"/>
</g>
<defs>
<clipPath id="clip0">
<rect width="60" height="45.9677" fill="white" transform="translate(0 0.161133)"/>
</clipPath>
</defs>
</svg>
