<svg width="60" height="60" viewBox="0 0 60 60" fill="none" xmlns="http://www.w3.org/2000/svg">
<g clip-path="url(#clip0)">
<path d="M30.8061 47.3695C30.0107 49.1161 29.6238 51.033 28.7854 52.7582C27.56 55.2928 25.9262 57.4654 23.4325 58.8924C21.5192 59.9787 19.434 60.1917 17.3057 59.8509C14.1671 59.3397 11.394 57.9552 8.85727 56.0809C6.51405 54.3557 4.55778 52.2896 2.92398 49.9041C1.37616 47.6251 0.645253 45.1331 1.0752 42.3855C1.39766 40.2982 2.49403 38.6368 4.08484 37.295C6.47105 35.2502 9.24422 33.8232 12.0819 32.5452C12.4688 32.3748 12.7913 32.0554 13.2427 32.0128C13.2642 32.098 13.2857 32.1831 13.2857 32.2683C13.2642 35.2928 13.2642 38.3173 13.2427 41.3418C13.2427 41.3844 13.2427 41.4057 13.2427 41.4483C13.2642 41.6613 13.1138 41.7465 12.9418 41.6826C12.1679 41.4057 11.3725 41.5122 10.5771 41.427C10.0396 41.3631 9.86764 41.6187 9.80315 42.0447C9.63117 43.3653 9.50219 44.7071 9.71716 46.049C9.78165 46.4324 9.84615 46.8796 10.3406 46.3259C10.3836 46.2833 10.4696 46.2833 10.5341 46.2833C11.3295 46.3046 12.1249 46.3472 12.9203 46.3685C13.1997 46.3685 13.2642 46.475 13.2642 46.7518C13.2427 47.8168 13.2427 48.9031 13.2212 49.968C13.2212 50.7348 13.2212 50.7135 13.9736 50.7561C15.3925 50.8413 16.8113 50.4579 18.2301 50.6283C18.5311 50.6709 18.8751 50.5005 18.8106 50.1171C18.6386 49.0948 18.7891 48.0724 18.7246 47.05C18.7031 46.7731 18.8321 46.6666 19.1115 46.6879C19.7135 46.7305 20.3154 46.7305 20.9388 46.7731C22.8091 46.8796 24.6579 46.9861 26.5281 47.1139C27.9685 47.1778 29.3873 47.1778 30.8061 47.3695Z" fill="#D9F1D2"/>
<path d="M30.8061 47.3695C29.3873 47.1778 27.9685 47.1991 26.5496 47.0926C24.6794 46.9861 22.8306 46.8584 20.9603 46.7519C20.3584 46.7093 19.7564 46.7093 19.133 46.6667C18.8536 46.6454 18.7461 46.7519 18.7461 47.0287C18.8106 48.0511 18.6601 49.0735 18.8321 50.0958C18.8965 50.4792 18.5526 50.6496 18.2516 50.607C16.8328 50.4366 15.414 50.82 13.9951 50.7348C13.2427 50.6922 13.2212 50.7135 13.2427 49.9467C13.2642 48.8818 13.2642 47.7955 13.2857 46.7306C13.2857 46.4537 13.2212 46.3472 12.9418 46.3472C12.1464 46.3259 11.351 46.3046 10.5556 46.262C10.4911 46.262 10.3836 46.262 10.3621 46.3046C9.86763 46.8584 9.78164 46.4111 9.73865 46.0277C9.52367 44.6858 9.65266 43.3653 9.82464 42.0234C9.88913 41.5974 10.0396 41.3418 10.5985 41.4057C11.3939 41.4909 12.1894 41.3844 12.9633 41.6613C13.1352 41.7252 13.2857 41.64 13.2642 41.427C13.2642 41.3844 13.2642 41.3631 13.2642 41.3205C13.2857 38.2961 13.3072 35.2716 13.3072 32.2471C13.3072 32.1619 13.2857 32.0767 13.2642 31.9915C13.3932 31.5229 13.3502 31.033 13.3502 30.5644C13.3502 23.2588 13.3287 15.9531 13.3717 8.6262C13.3932 6.83706 13.3932 5.04792 13.5007 3.28008C13.5652 2.30032 13.9521 2.12992 14.812 2.49201C14.941 2.53461 15.0485 2.57721 15.1775 2.55591C15.8009 2.47071 16.4243 2.47071 17.0478 2.44941C17.3487 2.44941 17.5422 2.17252 17.9292 2.27902C18.9395 2.57721 19.8209 3.08839 20.6808 3.62087C21.4977 4.13205 22.2286 4.74973 23.11 5.15442C23.2175 5.38871 23.4755 5.43131 23.669 5.5591C27.5385 8.13631 31.3006 10.8413 34.9981 13.6315C35.643 14.1214 35.987 14.7178 36.0515 15.5698C36.2235 17.7636 36.288 19.9361 36.2665 22.1299C36.2665 23.1949 36.288 23.1949 37.2768 23.5144C37.4703 23.5783 37.6853 23.6209 37.9003 23.6635C39.6416 24.1959 41.2969 24.9201 43.0166 25.4526C44.414 25.8786 45.0804 26.6667 45.1664 28.0937C45.2524 29.4782 45.4459 30.8626 45.5963 32.2258C45.6393 32.9712 45.6608 33.738 45.7253 34.4835C45.7468 34.6965 45.7038 34.9947 46.0048 35.1225C46.8647 35.4846 47.7031 35.8466 48.5415 36.2087C50.1108 36.9329 51.6801 37.6571 53.2279 38.3812C53.4429 38.4877 53.6149 38.4664 53.8298 38.36C54.4103 38.0405 54.9907 37.7636 55.5711 37.4441C55.8076 37.3163 56.0656 37.2098 56.3235 37.1885C56.56 37.1672 56.689 37.1885 56.732 37.5506C56.7965 38.2109 57.1404 38.8072 57.2909 39.4675C57.6994 41.1715 58.2368 42.8541 58.5378 44.5793C58.5378 44.6219 58.5593 44.7284 58.5808 44.7284C59.3762 44.6006 58.9462 45.197 58.9247 45.41C58.9032 46.1555 58.7957 46.9222 58.6668 47.6464C58.5378 48.328 58.2798 48.5197 57.5919 48.4984C55.3777 48.4132 53.1849 48.2854 50.9707 48.1789C50.2613 48.1363 49.5519 48.1789 48.8209 48.1363C46.8647 48.0298 44.9084 47.9659 42.9522 47.8594C41.2539 47.7529 39.5341 47.7103 37.8358 47.6251C36.03 47.5399 34.2027 47.4334 32.3969 47.3908C31.8595 47.3908 31.3436 47.2843 30.8061 47.3695ZM44.1345 31.0117C44.199 29.6699 43.8121 28.3706 43.7691 27.0288C43.7691 26.8371 43.5756 26.8371 43.4681 26.7945C42.6727 26.4963 41.8773 26.1768 41.0819 25.8999C39.9425 25.4952 38.8891 24.8988 37.7068 24.6006C37.0189 24.3237 36.3524 23.983 35.643 23.77C35.3421 23.6848 35.2561 23.5996 35.1916 23.3014C35.0196 22.4494 35.1701 21.6187 35.1916 20.7668C35.2561 18.7646 35.0626 16.7838 34.9981 14.7817C34.9981 14.6539 35.0841 14.4622 34.8046 14.5048C34.4822 14.5474 34.2672 14.3557 34.0307 14.1853C31.1071 12.1832 28.1834 10.2023 25.3028 8.13631C24.1849 7.32694 23.067 6.49627 21.8632 5.81469C20.6593 4.94143 19.4555 4.02556 18.1441 3.21619C18.1441 4.17465 18.1441 4.98402 19.1545 5.43131C19.7994 5.7082 20.2509 6.30458 20.8958 6.62407C21.7342 7.34824 22.7231 7.90202 23.6475 8.5197C26.5281 10.4153 29.3873 12.3536 32.1605 14.377C32.6764 14.7391 33.3428 15.0586 33.4073 15.804C33.4503 16.4217 33.4503 17.0394 33.4073 17.6571C33.3213 18.8498 33.1063 20.0426 33.1063 21.2354C33.1063 22.0447 33.1493 22.8754 33.1063 23.6848C33.0848 23.9617 33.1493 24.0682 33.3643 24.1534C34.8906 24.7497 36.3954 25.3674 37.9218 25.9638C38.1797 26.0916 38.4162 26.2407 38.6742 26.3472C39.6416 26.7945 40.6089 27.2204 41.5978 27.6464C41.7483 27.7103 41.9633 27.7742 41.9203 28.0085C41.7698 28.6262 42.0708 29.1587 42.1997 29.7338C42.1997 30.3514 42.4147 30.9478 42.5007 31.5442C42.6727 32.886 42.7802 34.2492 43.2101 35.5484C43.2961 35.7827 43.3821 35.9318 43.5971 35.9957C45.3814 36.5708 47.0797 37.3589 48.778 38.1257C49.0574 38.2961 49.3154 38.4664 49.5949 38.6368C50.2613 39.0202 50.9707 39.361 51.5726 39.8722C51.7876 40.0639 51.9166 40.1917 51.6156 40.426C51.1857 40.7881 50.9062 41.2992 50.2613 41.5548C52.6045 42.3216 54.7542 43.2375 56.99 44.1107C56.5815 42.1512 55.8291 40.2982 55.6571 38.2961C54.9262 38.6794 54.2598 39.0415 53.5934 39.4036C53.4859 39.4675 53.3784 39.6166 53.2709 39.5101C52.9055 39.1267 52.368 39.148 51.9166 38.935C50.9062 38.4238 49.8528 37.9766 48.8209 37.508C48.563 37.2737 48.2405 37.1459 47.9396 37.0394C46.9292 36.656 46.1338 35.8679 45.0374 35.6975C44.9729 35.6762 44.8869 35.591 44.8654 35.5058C44.7794 34.9947 44.543 34.5048 44.5215 33.9723C44.543 32.9712 44.371 31.9915 44.1345 31.0117ZM17.2197 28.4771C17.3702 27.3908 17.1338 26.3046 17.1768 25.2183C17.1768 25.0479 17.1983 24.8775 17.1983 24.6858C17.2627 21.6826 17.1338 18.7007 17.1123 15.6975C17.0908 14.0788 17.0908 12.4814 17.0693 10.8626C17.1768 10.0745 16.9833 9.30777 17.0048 8.541C17.0263 6.83706 17.0048 5.13312 17.0263 3.42918C17.0263 3.10969 16.9618 2.98189 16.6178 3.00319C16.2524 3.02449 15.8654 3.04579 15.5 3.00319C15.07 2.96059 14.984 3.13099 14.9625 3.53567C14.9195 7.00745 15.0055 10.4792 14.898 13.951C14.812 16.9329 14.8335 19.9361 14.7475 22.918C14.6831 25.3674 14.5756 27.7955 14.6401 30.2449C14.6401 30.5218 14.5971 30.7987 14.5756 31.0969C14.5756 31.885 14.5541 32.6518 14.5541 33.4398C14.5326 36.1022 14.5541 38.7859 14.4251 41.4483C14.4036 41.6826 14.4896 41.7678 14.726 41.7678C15.5 41.8104 16.2524 41.853 17.0263 41.9169C17.4132 41.9595 17.4992 41.7678 17.4347 41.4483C17.3487 40.8946 17.3702 40.3621 17.3487 39.8083C17.3272 36.1874 17.3057 32.5666 17.2842 28.9244C17.2842 28.7966 17.3057 28.6262 17.2197 28.4771ZM46.4347 45.1331C46.3487 45.0905 46.2843 45.0266 46.1983 45.0266C44.5 45.0053 42.8232 44.8349 41.1249 44.7071C39.6845 44.6006 38.2442 44.558 36.8039 44.4728C34.5897 44.3237 32.3754 44.0894 30.1612 43.983C28.0544 43.8978 25.9692 43.6848 23.8839 43.4718C21.6482 43.2588 19.391 43.1097 17.1338 42.918C15.9084 42.8115 14.6831 42.6411 13.4362 42.6411C12.6193 42.6411 11.8024 42.5346 10.9855 42.5346C10.7705 42.5346 10.5985 42.5346 10.5985 42.8328C10.5985 43.5783 10.5985 44.3237 10.5985 45.0692C10.5985 45.3248 10.6845 45.4313 11.007 45.4739C12.1034 45.623 13.2212 45.5591 14.3176 45.6017C16.3169 45.7082 18.3376 45.7082 20.3369 45.836C21.6482 45.9212 22.9811 45.9851 24.2924 46.0064C26.9796 46.0703 29.6668 46.1768 32.3539 46.3472C33.7728 46.4324 35.2131 46.4111 36.6319 46.5176C37.2338 46.5602 37.8358 46.5602 38.4377 46.6028C40.2435 46.7093 42.0278 46.8371 43.8335 46.7945C43.9625 46.8371 44.113 46.9009 44.242 46.9009C45.2094 46.8584 46.1553 46.9861 47.1227 47.0074C48.4125 47.0287 49.6808 47.05 50.9707 47.1565C52.8625 47.3056 54.7757 47.4121 56.6675 47.4547C57.033 47.4547 57.5704 47.6677 57.7639 47.4334C57.9574 47.1991 57.8284 46.688 57.8929 46.3046C57.9358 45.9425 57.7639 45.7934 57.4414 45.7721C56.0226 45.6869 54.6038 45.623 53.1849 45.5378C52.0886 45.4739 50.9922 45.3674 49.8958 45.3248C48.735 45.3035 47.5956 45.0479 46.4347 45.1331ZM49.0359 39.6805C48.1975 39.1054 47.2731 38.7007 46.3487 38.2748C45.1019 37.6997 43.8335 37.1672 42.5652 36.6347C42.3502 36.5495 42.1782 36.4217 42.1138 36.1661C41.9848 35.6762 41.7913 35.1864 41.7053 34.6965C41.3184 32.7369 40.9744 30.7774 40.6089 28.8392C40.5659 28.6049 40.5659 28.3706 40.2435 28.2641C39.3621 27.9659 38.5237 27.5612 37.7068 27.1565C36.1375 26.3898 34.5467 25.6443 32.9989 24.8562C32.4399 24.5793 32.01 24.1746 32.01 23.4718C32.01 22.3216 32.01 21.1715 32.1175 20.0213C32.2464 18.7646 32.3324 17.4867 32.3539 16.2087C32.3539 16.017 32.3109 15.8892 32.139 15.7827C31.709 15.5059 31.3221 15.1651 30.8921 14.8669C27.5385 12.524 24.1849 10.181 20.8313 7.85942C20.5518 7.66773 20.3369 7.41214 19.9714 7.34824C19.4985 6.79446 18.875 6.43237 18.2946 5.87859C18.2946 6.90096 18.2946 7.85942 18.2946 8.79659C18.1871 9.45687 18.3591 10.0958 18.3591 10.7561C18.3591 12.6731 18.3591 14.59 18.4021 16.4856C18.4881 21.3418 18.4881 26.2194 18.5956 31.0756C18.6601 34.5048 18.6601 37.934 18.7031 41.3844C18.7031 41.4909 18.7246 41.5974 18.7031 41.7039C18.6816 42.0447 18.8536 42.1512 19.1975 42.1512C20.5518 42.1725 21.9062 42.2577 23.2605 42.3642C25.3458 42.5133 27.4525 42.5133 29.5593 42.6837C31.1286 42.8115 32.6764 42.8967 34.2457 43.0245C36.6319 43.2162 39.0396 43.4079 41.4258 43.5996C43.5111 43.7487 45.6178 43.8765 47.7031 44.0256C48.649 44.1107 49.5734 44.1959 50.5192 44.2598C51.4651 44.3237 52.3895 44.3876 53.3354 44.4728C53.9588 44.5154 54.6038 44.6645 55.3777 44.558C55.1197 44.4515 54.9477 44.3663 54.7972 44.3024C52.9914 43.6848 51.2931 42.8541 49.5304 42.1299C48.8854 41.853 48.9284 41.853 49.4014 41.3418C49.7023 41.0011 50.4548 40.8094 50.3043 40.426C50.1753 40.0426 49.4659 39.8935 49.0359 39.6805ZM17.5207 48.4984C17.5207 47.902 17.5422 47.3908 17.4347 46.8797C17.3917 46.6454 17.3057 46.6028 17.0908 46.6028C16.2739 46.5602 15.457 46.4963 14.6401 46.4324C14.4681 46.4111 14.2961 46.3898 14.2961 46.6454C14.2746 47.6464 14.1456 48.6475 14.2101 49.6699C14.2316 50.0319 14.4036 50.181 14.812 50.0958C15.242 49.9893 15.6934 49.9254 16.1234 49.9041C16.5748 49.8828 17.1338 49.968 17.4132 49.7125C17.7142 49.4143 17.4562 48.8392 17.5207 48.4984Z" fill="black"/>
<path d="M37.8357 23.6848C37.6208 23.6422 37.4273 23.5996 37.2123 23.5357C36.2234 23.2162 36.2019 23.2162 36.2019 22.1512C36.2234 19.9574 36.1589 17.7636 35.987 15.5911C35.9225 14.7604 35.6 14.1427 34.9336 13.6528C31.236 10.8626 27.474 8.15761 23.6045 5.58041C23.411 5.45261 23.1745 5.41001 23.0455 5.17572C23.9484 4.47284 25.0233 4.13206 26.1412 3.94036C26.9366 3.79127 27.7535 3.64217 28.5274 3.36528C29.0433 3.17359 29.2583 2.70501 29.5592 2.34292C31.365 0.149096 33.6438 -0.383385 36.3094 0.276892C37.5778 0.59638 38.7816 1.08626 39.878 1.78914C42.1137 3.23749 43.7045 5.17572 44.4999 7.73163C45.1449 9.75506 45.2309 11.7572 44.328 13.7167C43.941 14.5687 43.4251 15.3781 42.8446 16.1448C42.1352 17.082 41.4903 18.0405 40.7594 18.9563C40.265 19.5953 39.7705 20.2343 39.2546 20.8733C38.5667 21.7039 38.1797 22.6837 37.8357 23.6848Z" fill="#D9F1D2"/>
<path d="M48.305 18.9138C49.3369 19.0628 50.2183 19.4462 50.8632 20.2982C51.2716 20.852 51.1427 21.3206 50.5192 21.6188C48.6275 22.5346 46.7572 23.4505 44.8654 24.3238C43.855 24.7923 42.6942 24.409 42.0708 23.4931C41.7698 23.0458 41.9633 22.6411 42.2427 22.279C42.8662 21.491 43.7046 20.9585 44.5645 20.4473C45.5533 19.8296 46.6067 19.2971 47.7676 19.0202C47.8966 18.9351 48.09 18.8925 48.305 18.9138Z" fill="#D9F1D2"/>
<path d="M45.6608 24.8137C47.2946 24.8137 48.391 25.4952 49.3369 26.4963C49.4659 26.6241 49.5519 26.7945 49.6164 26.9436C49.8528 27.54 49.5734 27.9233 48.9285 27.8807C48.4555 27.8594 48.0256 27.7104 47.5956 27.54C46.8647 27.2418 46.1123 26.9862 45.4674 26.4963C45.4244 26.475 45.3814 26.4537 45.3384 26.4111C44.9514 26.1129 44.629 25.7082 44.7795 25.2396C44.9084 24.7924 45.4244 24.835 45.6608 24.8137Z" fill="#D9F1D2"/>
<path d="M48.4985 36.2513C47.6601 35.8892 46.8002 35.5272 45.9618 35.1651C45.6608 35.0373 45.7038 34.7391 45.6823 34.5261C45.6178 33.7806 45.5963 33.0138 45.5533 32.2684C46.2198 32.6944 46.7142 33.2694 47.2086 33.8871C47.7676 34.59 48.262 35.3568 48.4985 36.2513Z" fill="#D9F1D2"/>
<path d="M19.9714 7.30566C20.3154 7.36956 20.5519 7.62515 20.8313 7.81685C24.1849 10.1598 27.5385 12.4814 30.8921 14.8243C31.3221 15.1225 31.709 15.442 32.139 15.7402C32.3109 15.8467 32.3539 15.9745 32.3539 16.1662C32.3324 17.4441 32.2464 18.7008 32.1175 19.9787C32.01 21.1289 32.01 22.279 32.01 23.4292C32.01 24.1321 32.4399 24.5368 32.9989 24.8136C34.5682 25.6017 36.1375 26.3472 37.7068 27.114C38.5452 27.5187 39.3621 27.9446 40.2435 28.2215C40.5659 28.328 40.5659 28.5623 40.6089 28.7966C40.9744 30.7561 41.3184 32.7157 41.7053 34.6539C41.8128 35.1651 42.0063 35.6337 42.1138 36.1235C42.1783 36.3791 42.3502 36.5069 42.5652 36.5921C43.8336 37.1459 45.0804 37.6784 46.3488 38.2322C47.2731 38.6582 48.1975 39.0628 49.0359 39.6379C49.0574 40.3621 49.0359 41.0863 48.864 41.7891C48.6705 42.6198 48.3265 43.3866 47.6816 43.9617C45.5963 43.8126 43.4896 43.6848 41.4043 43.5357C39.0181 43.3653 36.6104 43.1523 34.2242 42.9606C32.6549 42.8328 31.1071 42.7476 29.5378 42.6198C27.4525 42.4494 25.3458 42.4494 23.239 42.3003C21.8847 42.1938 20.5304 42.1086 19.176 42.0873C18.8321 42.0873 18.6601 41.9808 18.6816 41.6401C18.6816 41.5336 18.6816 41.4271 18.6816 41.3206C18.6601 37.8914 18.6601 34.4622 18.5741 31.0117C18.4666 26.1555 18.4666 21.278 18.3806 16.4217C18.3376 14.5048 18.3591 12.5879 18.3376 10.6922C18.3376 10.032 18.1656 9.39299 18.2731 8.73271C18.8536 8.28543 19.4125 7.79555 19.9714 7.30566Z" fill="#D9F1D2"/>
<path d="M43.8551 46.7945C42.0493 46.8158 40.265 46.7093 38.4592 46.6028C37.8573 46.5602 37.2553 46.5602 36.6534 46.5176C35.2346 46.4111 33.7943 46.4324 32.3754 46.3472C29.6883 46.1768 27.0011 46.0703 24.3139 46.0064C23.0026 45.9851 21.6697 45.9212 20.3584 45.836C18.3591 45.6869 16.3384 45.7082 14.3391 45.6017C13.2427 45.5378 12.1249 45.623 11.0285 45.4739C10.706 45.4313 10.6201 45.3248 10.6201 45.0692C10.6201 44.3237 10.6201 43.5783 10.6201 42.8328C10.6201 42.5346 10.8135 42.5346 11.007 42.5346C11.8239 42.5346 12.6408 42.6411 13.4577 42.6411C14.7046 42.6411 15.9299 42.8115 17.1553 42.918C19.4125 43.1097 21.6482 43.2588 23.9055 43.4718C25.9907 43.6848 28.076 43.8978 30.1827 43.983C32.3969 44.0682 34.6112 44.3024 36.8254 44.4728C38.2657 44.5793 39.7061 44.6006 41.1464 44.7071C42.8232 44.8349 44.5215 45.0053 46.2198 45.0266C46.3058 45.0266 46.3703 45.0905 46.4562 45.1331C46.3273 45.3461 46.0908 45.4739 45.8973 45.5804C45.2094 46.0064 44.543 46.4111 43.8551 46.7945Z" fill="#D9F1D2"/>
<path d="M21.9062 5.836C23.1101 6.51757 24.2279 7.34825 25.3458 8.15762C28.2264 10.2236 31.1501 12.2045 34.0737 14.2066C34.3102 14.3557 34.5467 14.5474 34.8476 14.5261C35.1056 14.5048 35.0196 14.6965 35.0411 14.803C35.0841 16.8051 35.2991 18.7859 35.2346 20.7881C35.2131 21.64 35.0626 22.4707 35.2346 23.3227C35.2991 23.5996 35.3851 23.6848 35.686 23.7913C36.3955 24.0043 37.0619 24.345 37.7498 24.6219C37.8143 25.0905 37.8358 25.5591 38.0078 26.0064C36.4814 25.41 34.9766 24.7923 33.4503 24.196C33.2353 24.1108 33.1708 23.983 33.1923 23.7274C33.2353 22.918 33.1923 22.1086 33.1923 21.278C33.1923 20.0852 33.4073 18.8924 33.4933 17.6997C33.5363 17.082 33.5363 16.4643 33.4933 15.8466C33.4503 15.0799 32.7624 14.7817 32.2465 14.4196C29.4518 12.3962 26.6141 10.4579 23.7335 8.5623C22.8091 7.94462 21.8202 7.39084 20.9818 6.66667C21.1968 6.28328 21.6267 6.15549 21.9062 5.836Z" fill="#D9F1D2"/>
<path d="M14.5541 31.1182C15.5645 30.5005 16.5319 29.819 17.0478 28.6688C17.0908 28.5836 17.1553 28.541 17.2198 28.4771C17.3273 28.6262 17.2843 28.7753 17.2843 28.9457C17.3058 32.5666 17.3273 36.1874 17.3488 39.8296C17.3488 40.3834 17.3488 40.9159 17.4347 41.4697C17.4777 41.7891 17.4132 41.9808 17.0263 41.9382C16.2739 41.8743 15.5 41.8317 14.7261 41.7891C14.4896 41.7678 14.4251 41.6826 14.4251 41.4697C14.5541 38.8072 14.5541 36.1235 14.5541 33.4611C14.5326 32.6731 14.5541 31.9063 14.5541 31.1182Z" fill="#D9F1D2"/>
<path d="M42.2427 29.7764C42.9736 30.0533 43.4681 30.6709 44.1345 31.0117C44.371 31.9915 44.543 32.9713 44.5645 33.9723C44.586 34.5261 44.8009 34.9947 44.9084 35.5059C44.9299 35.5698 45.0159 35.6763 45.0804 35.6976C46.1768 35.8893 46.9937 36.656 47.9825 37.0394C48.2835 37.1672 48.606 37.2737 48.8639 37.508C48.8424 37.721 48.8424 37.9127 48.8209 38.1257C47.1227 37.3589 45.4244 36.5921 43.6401 35.9957C43.4251 35.9318 43.3176 35.7828 43.2531 35.5485C42.8232 34.2492 42.6942 32.8861 42.5437 31.5442C42.4577 30.9691 42.2427 30.394 42.2427 29.7764Z" fill="#D9F1D2"/>
<path d="M17.1552 25.2396C16.2953 22.4494 15.6504 19.6166 15.8009 16.6773C15.9083 14.6965 16.1878 12.7369 17.0692 10.9052C17.0907 12.524 17.0907 14.1214 17.1122 15.7401C17.1337 18.7433 17.2627 21.7252 17.1982 24.7284C17.1767 24.8775 17.1767 25.0692 17.1552 25.2396Z" fill="#D9F1D2"/>
<path d="M17.5208 48.4984C17.4778 48.8605 17.7142 49.4143 17.4133 49.6911C17.1338 49.9467 16.5749 49.8615 16.1234 49.8828C15.672 49.9041 15.242 49.9893 14.8121 50.0745C14.4251 50.1597 14.2316 50.0106 14.2102 49.6486C14.1457 48.6475 14.2746 47.6251 14.2961 46.6241C14.2961 46.3898 14.4681 46.3898 14.6401 46.4111C15.457 46.475 16.2739 46.5389 17.0908 46.5815C17.3058 46.6028 17.3918 46.6241 17.4348 46.8584C17.5208 47.3908 17.5208 47.902 17.5208 48.4984Z" fill="#D9F1D2"/>
</g>
<defs>
<clipPath id="clip0">
<rect width="58.0645" height="60" fill="white" transform="translate(0.967712)"/>
</clipPath>
</defs>
</svg>
