<svg width="61" height="60" viewBox="0 0 61 60" fill="none" xmlns="http://www.w3.org/2000/svg">
<g clip-path="url(#clip0)">
<g clip-path="url(#clip1)">
<path d="M28.4167 47.0359C26.5546 48.0419 24.7744 49.2121 22.6872 49.7665C21.3366 50.1155 20.0065 50.3413 18.6151 50.3003C15.075 50.2181 12.1693 48.8015 9.8775 46.1325C8.6702 44.7364 7.76984 43.1761 7.21735 41.4104C6.72624 39.7885 6.54208 38.1255 6.66485 36.4214C6.74671 35.2922 6.91041 34.1835 7.17642 33.0954C7.64706 31.186 8.42465 29.3999 9.59102 27.7984C10.8802 26.0123 12.333 24.3698 13.704 22.6657C14.4407 21.7418 15.1364 20.7769 15.648 19.6888C16.4665 17.9642 16.2414 16.1575 15.9549 14.3713C15.7912 13.3037 15.5661 12.2155 15.5661 11.1274C15.5661 8.58158 16.4256 6.32318 18.1854 4.45487C19.9247 2.58657 22.0119 1.25206 24.4674 0.533483C26.6365 -0.102973 28.8669 -0.144035 31.0769 0.246051C33.2869 0.636137 35.3945 1.39578 37.2362 2.66869C39.1392 3.98267 40.5102 5.76885 41.2059 8.00671C41.6152 9.34122 41.8198 10.6963 41.5947 12.0718C41.5538 12.3798 41.431 12.6672 41.3696 12.9546C40.9604 13.0368 40.5716 12.852 40.1828 12.7904C38.9141 12.544 37.6454 12.5235 36.3767 12.6672C34.1872 12.9341 32.3046 14.0222 30.5653 15.2952C29.3375 16.178 28.2326 17.2045 27.2299 18.3337C26.2681 19.4219 25.3064 20.51 24.713 21.824C23.5875 24.2671 23.076 26.854 23.1987 29.5641C23.2806 31.8636 23.9968 33.9577 25.1222 35.9287C26.2681 37.8996 26.7388 40.0348 26.9639 42.2522C27.1071 43.9562 27.3527 45.6192 28.4167 47.0359ZM27.0662 12.8725C27.5368 12.8725 27.8233 12.7083 27.9256 12.4824C28.0689 12.1745 27.8438 11.9692 27.6801 11.7639C26.4932 10.4704 25.1427 9.34122 23.8126 8.21202C23.5671 7.98618 23.2192 7.98618 22.9532 8.17096C22.7281 8.3352 22.7281 8.60211 22.8099 8.86901C22.8918 9.07432 22.9736 9.25909 23.0964 9.4644C23.7103 10.4909 24.5697 11.2711 25.511 11.9897C26.0226 12.3798 26.5546 12.7288 27.0662 12.8725ZM28.1302 9.40281C27.2708 9.40281 27.148 9.52599 27.3117 10.1419C27.4959 10.7578 27.8642 11.2506 28.2939 11.7228C28.3963 11.846 28.5804 11.887 28.7441 11.9486C29.1329 12.1129 29.4603 11.9897 29.7673 11.7228C30.0537 11.4764 29.7468 11.2711 29.7263 11.0247C29.7263 10.9221 29.6854 10.8194 29.624 10.7373C29.2762 10.0187 28.7851 9.42334 28.1302 9.40281Z" fill="#FFD8D8"/>
<path d="M28.4164 47.0362C27.3524 45.6195 27.1068 43.9565 26.9431 42.2525C26.718 40.0351 26.2474 37.8999 25.1015 35.929C23.976 33.9785 23.2598 31.8639 23.178 29.5644C23.0756 26.8543 23.5872 24.2675 24.6922 21.8243C25.2856 20.5308 26.2474 19.4222 27.2091 18.334C28.2118 17.2048 29.3372 16.1783 30.5445 15.2955C32.3043 14.0226 34.1664 12.9344 36.356 12.6675C37.6246 12.5238 38.8933 12.5443 40.162 12.7907C40.5508 12.8728 40.9396 13.0371 41.3489 12.955C43.0268 13.345 44.582 14.0431 46.0144 14.9875C47.4058 15.8909 48.7564 16.8148 49.9023 18.0671C51.1505 19.4427 51.9895 21.0646 52.9103 22.625C53.8107 24.1853 54.179 25.8894 54.445 27.614C54.5678 28.4763 54.4655 29.3386 54.3427 30.2009C54.1585 31.5354 53.7493 32.8288 53.3195 34.1223C52.7671 35.7237 51.8872 37.1403 50.8436 38.4748C50.1069 39.4397 49.1656 40.2404 48.4494 41.2259C47.6514 42.3551 47.1807 43.628 46.751 44.942C46.3827 46.0507 46.0144 47.1593 45.4414 48.1654C44.9708 48.9866 44.316 49.6025 43.4361 49.9721C43.1496 50.0953 43.0882 50.2184 43.17 50.5059C43.5588 51.8404 43.1087 52.8875 41.8809 53.6266C41.7786 53.6882 41.6967 53.7703 41.6763 53.8935C41.6149 54.4683 41.2465 54.8174 40.7964 55.1458C40.6736 55.228 40.5508 55.3101 40.5099 55.4743C40.469 55.6591 40.3666 55.8234 40.2643 55.9671C39.8346 56.5214 39.4049 57.0552 39.3026 57.8149C39.2412 58.3487 38.7296 58.6566 38.2385 58.8209C37.9316 58.9235 37.7474 59.0467 37.5837 59.3341C36.9903 60.4633 35.9876 60.7302 34.9031 60.0527C34.3711 59.7242 33.88 59.3752 33.88 58.6361C33.88 58.5129 33.8186 58.4308 33.7367 58.3897C32.8773 57.9586 32.6931 57.0963 32.4885 56.275C32.4271 56.0287 32.3453 55.8439 32.202 55.6386C31.9565 55.2896 31.7723 54.8995 31.7723 54.4683C31.7723 54.2014 31.67 54.0166 31.5268 53.8113C31.4244 53.6676 31.2607 53.5239 31.2607 53.3802C31.3221 52.8053 30.9129 52.6 30.565 52.3126C30.2581 52.0457 29.9716 51.7583 29.7465 51.4298C29.2349 50.6906 29.2349 49.8694 29.7874 49.1919C30.0739 48.8429 30.033 48.6786 29.7056 48.3707C29.2963 48.0216 28.928 47.4673 28.4164 47.0362ZM41.0828 35.3952C41.799 35.1283 42.4334 34.7176 43.0063 34.2249C43.5588 33.7527 43.9067 33.1984 44.0295 32.4798C44.0704 32.2334 44.0295 31.9665 43.8862 31.8023C43.7839 31.6791 43.4974 31.8228 43.3337 31.9255C42.2083 32.5619 41.4102 33.5063 41.0419 34.7587C40.9601 34.923 40.8578 35.0872 40.8168 35.2515C40.7554 35.5594 40.9191 35.4773 41.0828 35.3952ZM31.404 34.8819C31.1584 34.6561 30.8719 34.4508 30.6673 34.2044C30.0534 33.4653 29.8283 32.8083 30.0944 32.3566C30.3399 31.9049 30.7287 31.7407 31.1584 31.6175C31.404 31.6586 31.6495 31.638 31.9155 31.7407C33.4912 32.295 34.4325 33.4858 35.1077 34.9435C35.2305 35.2309 35.2305 35.621 35.6398 35.7237C36.4787 35.929 37.3586 35.9084 38.2181 35.929C38.8115 35.9495 38.9547 35.621 39.0366 35.1899C39.3844 33.2805 40.2848 31.7817 42.0241 30.8373C43.0882 30.3651 44.0704 30.5704 44.9708 31.2685C45.4414 31.638 45.7074 32.1102 45.7279 32.7467C45.7893 34.0401 45.0117 34.7998 44.0499 35.4568C43.1496 36.0522 42.1469 36.4628 41.0828 36.6886C40.428 36.627 40.2643 37.0376 40.1825 37.592C40.0597 38.3927 39.8551 39.1728 39.6709 39.9735C39.3026 41.4723 39.0161 42.9916 38.8933 44.5109C38.7706 46.0917 38.8729 47.6726 38.8524 49.2535C38.8524 49.5409 38.9343 49.623 39.2207 49.5615C39.8346 49.3972 40.469 49.2535 41.0828 49.0687C42.3311 48.6786 43.3951 48.0422 43.9681 46.7693C44.4387 45.7427 44.7661 44.6751 45.0731 43.6075C45.646 41.575 46.6282 39.8093 48.122 38.29C49.4521 36.935 50.5571 35.3952 51.2937 33.609C51.8053 32.3771 52.1327 31.1042 52.4396 29.8313C52.7671 28.4763 52.808 27.1212 52.2146 25.7457C51.8872 24.986 51.4779 24.2675 51.0482 23.5694C50.1478 22.1322 49.3498 20.6335 48.122 19.4222C46.8329 18.1698 45.4823 17.0201 43.9067 16.1783C42.9245 15.6445 41.84 15.3981 40.7554 15.1107C39.6709 14.7206 38.6069 14.3921 37.3996 14.5564C36.2946 14.7001 35.1691 14.8027 34.1051 15.1518C32.8364 15.5829 31.7518 16.4247 30.7492 17.3075C29.6646 18.2724 28.662 19.299 27.7411 20.4282C26.3292 22.1528 25.3879 24.0416 25.0401 26.2589C24.8354 27.5934 24.9991 28.9074 24.9582 30.2419C24.9378 30.94 25.1015 31.6175 25.3265 32.2745C26.0223 34.2865 26.9022 36.2369 27.7821 38.1874C28.5597 39.9325 28.8052 41.8419 29.0098 43.7102C29.1122 44.6956 29.3986 45.5785 29.9716 46.3997C29.992 46.5845 30.1148 46.7077 30.2171 46.8309C31.1993 47.8779 32.4066 48.617 33.7163 49.274C33.9414 47.5289 34.1664 45.8248 34.2483 44.0797C34.2892 43.1764 34.3097 42.2935 34.4325 41.3902C34.5143 40.7127 34.6575 40.0351 34.5143 39.3576C34.3097 38.4132 34.0846 37.4893 34.0027 36.5244C33.9823 36.2985 33.9004 36.1343 33.6549 36.0316C32.8568 35.7647 32.1406 35.3336 31.404 34.8819ZM36.2536 42.0061C36.356 42.6426 36.1104 43.1969 36.1104 43.7923C36.1104 45.5169 35.8648 47.2004 35.2714 48.8223C34.9645 49.6846 34.985 49.7052 35.8853 49.8694C36.3764 49.9515 36.888 49.9926 37.3996 49.8899C37.6656 49.8284 37.8293 49.7257 37.727 49.4588C37.4609 48.5965 37.5019 47.7137 37.3996 46.8514C37.2154 45.0447 37.2563 43.2585 37.5837 41.4723C37.8497 40.0762 38.1362 38.7006 38.4636 37.3251C38.5659 36.9145 38.4227 36.8939 38.1157 36.9145C37.4405 36.9555 36.7652 36.8529 36.1104 36.6681C35.6193 36.5449 35.6602 36.7707 35.7216 37.0787C36.1104 38.7212 36.581 40.3431 36.2536 42.0061ZM36.4992 53.257C37.7474 53.3391 39.1593 53.1543 40.4894 52.5384C41.1238 52.251 41.5944 51.7993 41.7172 51.0397C41.7786 50.6907 41.6967 50.6291 41.3898 50.7112C40.8987 50.8549 40.4076 50.9576 39.9369 51.1423C38.3204 51.7377 36.7038 51.7583 35.0668 51.3066C33.7777 50.9575 32.5499 50.4853 31.3835 49.8078C31.2607 49.7462 31.0356 49.582 31.0152 49.8284C30.9538 50.4443 30.7082 51.1013 31.1993 51.6351C31.7518 52.2715 32.4476 52.6821 33.2456 52.949C34.2483 53.2981 35.2714 53.257 36.4992 53.257ZM32.8773 55.0021C33.0819 55.6591 33.614 56.3161 33.9618 56.3982C34.985 56.6651 36.049 56.6035 37.0926 56.5214C37.5019 56.4803 37.952 56.2956 38.2999 55.9671C36.4378 56.0697 34.6371 55.8439 32.8773 55.0021ZM37.9725 57.5479C37.3996 57.4248 36.9084 57.6095 36.3969 57.5685C35.517 57.4864 34.6166 57.4248 33.7777 57.0757C33.6549 57.0347 33.4707 57.0141 33.5526 57.2605C33.7163 57.6917 33.9209 58.0818 34.4529 58.1228C34.7189 58.1433 34.9849 58.246 35.251 58.2665C36.2127 58.3487 37.154 58.3076 37.9725 57.5479ZM32.6522 53.8524C33.3889 55.1664 38.259 55.0843 39.098 54.4067C36.9084 54.612 34.7599 54.5299 32.6522 53.8524ZM33.6344 35.2515C33.3684 34.3276 32.9182 33.5885 32.3248 32.9315C32.0997 32.6851 31.7314 32.8083 31.67 33.1573C31.5881 33.65 31.7109 34.0812 32.0997 34.3892C32.5499 34.6971 32.9796 35.0461 33.6344 35.2515ZM34.9031 58.903C35.0259 59.2109 35.1282 59.5394 35.4147 59.5805C35.7011 59.6216 35.9672 59.4163 36.1309 59.1083C35.7216 58.9851 35.3328 58.9646 34.9031 58.903Z" fill="black"/>
<path d="M27.0659 12.8728C26.5748 12.7496 26.0223 12.3801 25.5312 12.0105C24.5899 11.3125 23.7509 10.5118 23.1166 9.48523C22.9938 9.30045 22.9119 9.09514 22.8301 8.88983C22.7482 8.62293 22.7278 8.35603 22.9733 8.19178C23.2393 8.007 23.5667 8.007 23.8123 8.21231C25.1424 9.34151 26.4725 10.4502 27.6593 11.7436C27.8435 11.9284 28.0481 12.1337 27.9048 12.4622C27.823 12.7086 27.5365 12.8523 27.0659 12.8728Z" fill="black"/>
<path d="M28.1299 9.40308C28.7847 9.44414 29.2554 10.019 29.6442 10.7376C29.6851 10.8197 29.726 10.9224 29.7465 11.025C29.7669 11.2509 30.0943 11.4562 29.7874 11.7231C29.4805 11.99 29.1531 12.0926 28.7643 11.9489C28.6006 11.8873 28.4164 11.8462 28.3141 11.7231C27.8844 11.2714 27.4956 10.7581 27.3319 10.1422C27.1477 9.52626 27.2705 9.40308 28.1299 9.40308Z" fill="black"/>
<path d="M40.735 15.1312C40.3053 16.9379 39.2617 18.334 37.8702 19.5248C36.356 20.8182 34.8212 22.1322 33.5116 23.6515C32.7954 24.4933 32.4271 25.4993 32.1202 26.5053C31.8132 27.4908 31.5881 28.5173 31.3631 29.5233C31.1993 30.2008 31.1584 30.8989 31.1789 31.5969C30.7492 31.7201 30.3604 31.8844 30.1148 32.336C29.8693 32.8082 30.0739 33.4447 30.6878 34.1838C30.8924 34.4302 31.1789 34.6355 31.4244 34.8613C31.3426 36.7707 31.7723 38.639 31.936 40.5484C32.0792 42.2524 32.0383 43.936 31.7928 45.64C31.7314 46.1122 31.5268 46.3997 30.9538 46.3175C30.6469 46.256 30.299 46.297 29.992 46.3997C29.4191 45.599 29.1326 44.7161 29.0303 43.7101C28.8257 41.8213 28.5801 39.9119 27.8025 38.1873C26.9226 36.2369 26.0427 34.2865 25.347 32.2744C25.1219 31.6175 24.9582 30.9399 24.9787 30.2419C24.9991 28.9074 24.8559 27.5934 25.0605 26.2589C25.4084 24.0416 26.3497 22.1527 27.7616 20.4281C28.6824 19.2989 29.6851 18.2724 30.7696 17.3075C31.7723 16.4246 32.8568 15.5829 34.1255 15.1517C35.1691 14.7822 36.2946 14.7 37.42 14.5563C38.5864 14.4331 39.6505 14.7411 40.735 15.1312ZM36.2536 15.8292C36.0899 15.8498 35.9058 15.8498 35.7216 15.8703C34.3097 16.1167 33.041 16.6915 31.8746 17.4922C29.8897 18.8473 28.3346 20.5513 27.4956 22.8508C27.25 23.5078 27.0659 24.2058 27.2705 24.9449C27.3524 25.2529 27.557 25.3966 27.823 25.4582C28.1299 25.5403 28.1913 25.2734 28.2936 25.0886C28.4778 24.6986 28.6415 24.3085 28.8052 23.9184C29.6237 22.0706 30.8515 20.5513 32.3453 19.2168C33.7367 17.985 35.4351 17.2664 37.0108 16.3425C37.2768 16.1783 37.1949 16.1372 37.0312 15.9935C36.8266 15.7676 36.5401 15.8908 36.2536 15.8292ZM26.4725 28.0862C26.5748 28.6815 26.5748 29.2769 27.2091 29.5849C27.4956 29.7081 27.6388 29.667 27.6388 29.3385C27.6388 28.661 27.7821 28.004 27.9458 27.347C28.0686 26.8543 27.6593 26.6901 27.3114 26.5463C26.9431 26.3821 26.7794 26.6285 26.6566 26.9775C26.5338 27.347 26.5952 27.7577 26.4725 28.0862Z" fill="#FFD8D8"/>
<path d="M42.0037 30.8373C41.9423 30.3651 42.2288 29.9956 42.4129 29.5849C43.0063 28.1888 43.8453 26.9159 44.5411 25.5814C44.7048 25.2529 44.7866 24.8834 45.0731 24.5959C45.687 25.1297 46.1576 25.7867 46.6487 26.4232C47.4263 27.4497 48.122 28.4968 48.6541 29.6671C49.0633 30.5499 49.0019 31.3917 48.8178 32.2745C48.429 34.1839 47.4058 35.7442 46.1781 37.1608C44.8889 38.639 43.7225 40.1994 42.3311 41.575C42.0855 41.8213 41.7377 42.3141 41.574 42.2114C41.2875 42.0472 41.4716 41.5544 41.4716 41.2259C41.4716 39.7067 41.2261 38.2079 41.1238 36.7091C42.1878 36.4628 43.1905 36.0727 44.0909 35.4773C45.0526 34.8408 45.8302 34.0812 45.7688 32.7672C45.7484 32.1308 45.4619 31.6586 45.0117 31.289C44.05 30.5704 43.0677 30.3651 42.0037 30.8373Z" fill="#FFD8D8"/>
<path d="M41.042 34.7587C41.4308 33.5064 42.2083 32.5619 43.3338 31.9255C43.4975 31.8228 43.784 31.6996 43.8863 31.8023C44.0295 31.946 44.0704 32.2334 44.0295 32.4798C43.9272 33.1984 43.5589 33.7527 43.0064 34.2249C42.4334 34.7177 41.7991 35.1283 41.0829 35.3952C41.0829 35.1899 41.0624 34.964 41.042 34.7587Z" fill="#FFD8D8"/>
<path d="M38.5045 29.3797C38.6682 27.5113 38.9342 25.6636 39.6709 23.939C39.9574 23.2615 40.2029 22.5839 40.5099 21.927C40.7554 21.4342 41.0828 20.962 41.3693 20.4898C41.4716 20.305 41.5535 20.4282 41.6353 20.5514C42.065 21.2084 42.4743 21.8859 42.9859 22.4608C43.17 22.6661 42.9859 22.7687 42.9245 22.8919C42.2492 24.0622 41.3488 25.0476 40.5303 26.1358C39.8141 27.1007 39.1389 28.0657 38.6478 29.1538C38.6273 29.2359 38.5454 29.2975 38.5045 29.3797Z" fill="#FFD8D8"/>
<path d="M36.2537 15.8293C36.5402 15.8703 36.8266 15.7472 37.0517 15.9935C37.195 16.1372 37.2768 16.1783 37.0313 16.3426C35.4556 17.2664 33.7572 17.985 32.3658 19.2169C30.872 20.5514 29.6238 22.0707 28.8257 23.9184C28.662 24.3085 28.4983 24.6986 28.3141 25.0887C28.2323 25.2735 28.1504 25.5404 27.8435 25.4583C27.5775 25.3967 27.3729 25.2529 27.291 24.945C27.0864 24.2059 27.2705 23.5284 27.5161 22.8508C28.3551 20.5719 29.9102 18.8473 31.8951 17.4923C33.0615 16.6916 34.3506 16.1167 35.7421 15.8703C35.9058 15.8498 36.09 15.8498 36.2537 15.8293Z" fill="black"/>
<path d="M26.4725 28.0862C26.5953 27.7372 26.5544 27.3471 26.6771 26.9775C26.7999 26.6285 26.9636 26.4027 27.3319 26.5464C27.6593 26.6901 28.0686 26.8543 27.9663 27.3471C27.8026 28.0041 27.6593 28.661 27.6593 29.3386C27.6593 29.6671 27.5161 29.7081 27.2296 29.5849C26.5544 29.2975 26.5544 28.6816 26.4725 28.0862Z" fill="black"/>
</g>
</g>
<defs>
<clipPath id="clip0">
<rect width="60" height="60" fill="white" transform="translate(0.333313)"/>
</clipPath>
<clipPath id="clip1">
<rect width="47.9032" height="60.4839" fill="white" transform="translate(6.62364)"/>
</clipPath>
</defs>
</svg>
