<svg width="60" height="60" viewBox="0 0 60 60" fill="none" xmlns="http://www.w3.org/2000/svg">
<g clip-path="url(#clip0)">
<path d="M45.7258 49.3546C53.7984 47.7835 58.7903 43.7266 58.7903 29.9998C58.7903 18.3868 42.5806 0.725488 27.5806 0.725586C8.42686 0.725711 21.5322 14.5159 13.0645 19.5965C5.71216 24.0079 -2.28882e-05 24.911 -2.28882e-05 37.0161C-2.28882e-05 50.3705 5.85675 54.2877 13.0645 51.7739C20.2722 49.2602 19.4415 59.032 29.2742 59.032C40.3633 59.032 37.6531 50.9257 45.7258 49.3546Z" fill="#F1F8FE"/>
<g clip-path="url(#clip1)">
<path d="M32.6553 42.5305C32.2622 43.914 31.8692 45.2317 31.4761 46.5165C31.3124 47.0765 31.0503 47.6365 30.8211 48.1965C30.5263 48.8553 30.2315 49.5142 29.904 50.173C29.3144 51.4248 28.3318 52.2154 27.0544 52.6107C26.6286 52.7425 26.1373 52.7096 25.6788 52.6437C25.515 52.6107 25.2202 52.3143 25.253 52.1825C25.3185 51.8531 25.122 51.7542 24.9254 51.5895C23.7463 50.6342 22.4362 49.8765 21.0605 49.2506C20.7002 49.0859 20.5037 49.1189 20.2417 49.4483C19.2263 50.8319 18.211 52.2813 17.0974 53.599C15.951 54.9826 14.7719 56.3991 13.3962 57.585C12.1843 58.6062 10.6777 59.3309 8.97449 58.9686C7.10754 58.5403 5.3061 57.8815 3.96321 56.3991C2.88234 55.2132 1.73597 54.1261 0.589598 53.006C-0.0982249 52.3472 -0.261992 51.4248 0.491338 50.4695C1.998 48.6247 3.47191 46.747 4.84755 44.8035C6.02668 43.1564 7.17305 41.5422 8.6142 40.1586C8.5487 40.0598 8.5487 39.961 8.48319 39.928C7.40233 39.2692 6.35421 38.5445 5.24059 37.9515C4.19248 37.3915 3.24263 36.7656 2.62032 35.7114C2.03075 34.7561 2.06351 33.8337 2.84959 33.0431C3.63567 32.2525 4.389 31.3631 5.43712 30.836C6.68175 30.2101 7.99189 29.6501 9.26927 29.0901C10.6122 28.4642 11.9551 27.8712 13.3307 27.2783C14.2478 26.883 15.1649 26.5206 16.082 26.1253C16.5078 25.9606 16.5733 25.73 16.2785 25.3347C15.3614 24.2146 14.8046 22.9628 14.7064 21.4805C14.6736 20.7557 14.5098 20.0639 14.5426 19.3722C14.5753 18.5486 14.7064 17.7251 14.9029 16.9674C15.2304 15.7485 15.6235 14.5297 16.1148 13.3438C17.3266 10.346 19.4556 8.1389 22.0431 6.32708C23.5826 5.23999 25.253 4.35056 26.9889 3.55995C28.1025 3.06582 29.3144 2.70345 30.5263 2.37403C31.7054 2.04461 32.9501 1.78107 34.1292 1.48459C34.3257 1.45165 34.5222 1.45165 34.7187 1.45165C35.7669 1.45165 36.7822 1.41871 37.8303 1.45165C38.8129 1.51754 39.8283 1.61636 40.8109 1.81402C43.4967 2.34109 45.9204 3.55995 48.1477 5.14117C49.5888 6.16237 50.8335 7.44712 51.8488 8.92951C52.4384 9.81895 53.0279 10.6754 53.6175 11.5649C54.5018 12.8496 55.0259 14.332 55.4517 15.8144C55.8447 17.1321 56.2705 18.4827 56.5981 19.8004C56.8273 20.6569 56.9584 21.5463 57.0894 22.4358C57.2204 23.3582 57.3514 24.2476 57.4169 25.17C57.5152 26.7841 57.6789 28.3983 57.5479 30.0125C57.3514 32.6478 56.3688 35.0526 54.7966 37.1938C53.0607 39.5986 50.7352 41.1469 48.0494 42.201C46.7393 42.6952 45.3964 43.1234 44.0207 43.4858C42.0555 44.0128 40.0248 43.9799 38.0268 43.7823C36.4874 43.6175 34.948 43.3211 33.4741 42.6622C33.2448 42.5634 32.9173 42.5963 32.6553 42.5305ZM34.8498 30.6713C34.7842 30.8031 34.7187 30.869 34.686 30.9678C34.4895 32.4502 34.2929 33.9326 34.0637 35.415C34.0309 35.6456 34.0309 35.8432 33.9982 36.0738C33.8016 37.128 33.6051 38.1492 33.4414 39.2033C33.3431 39.7304 33.3431 40.2245 34.0637 40.3892C34.2929 40.4222 34.4567 40.7516 34.6532 40.9492C34.7842 41.081 34.948 41.2457 35.1118 41.2457C36.4874 41.4763 37.8631 41.7728 39.2715 41.9046C40.1886 41.9704 41.1384 41.9375 42.0883 41.7069C43.0381 41.4763 43.988 41.3116 44.9378 41.0151C47.8856 40.0927 50.1456 38.3139 51.7833 35.7114C53.2572 33.3726 53.8468 30.8031 54.0105 28.0689C54.1416 25.7959 53.7813 23.5558 53.4537 21.3157C53.4537 21.2499 53.421 21.151 53.3882 21.0851C52.9952 19.8333 52.6349 18.5815 52.1764 17.3627C51.5868 15.7485 50.9317 14.2002 50.0146 12.7508C49.1303 11.3343 48.0167 10.1484 46.9685 8.86363C45.5929 7.15064 43.8242 5.89884 41.9245 4.84469C40.3851 4.02114 38.7147 3.52701 36.9787 3.46112C36.0289 3.42818 35.0463 3.32935 34.0964 3.69172C33.2776 3.98819 32.3277 4.02114 31.5089 4.31762C30.3953 4.71292 29.3144 5.20705 28.2663 5.73413C26.1701 6.78827 24.3686 8.27067 22.9602 10.1813C21.9121 11.6308 21.0605 13.212 20.5365 14.925C20.2089 15.9791 19.8487 17.0662 19.7831 18.1533C19.6521 19.9322 19.7504 21.711 19.7504 23.4899C19.7504 23.8852 19.8487 24.1817 20.2417 24.3464C20.864 24.0829 21.4863 23.8523 22.1086 23.5887C24.1394 22.7323 26.1046 21.6452 28.2663 21.1181C28.8886 20.9534 28.9869 20.7887 28.9869 20.1298C28.9541 19.5698 28.9541 19.0427 28.9214 18.4827C28.8231 16.9015 28.6921 15.3203 28.5938 13.7391C28.5938 13.7061 28.5283 13.6732 28.4956 13.6073C28.4301 13.6073 28.3318 13.5743 28.2663 13.5743C27.2182 13.8379 26.1701 14.1014 25.122 14.4308C24.3031 14.6614 23.9428 14.6285 23.4188 14.0026C23.7463 13.7391 24.0083 13.4426 24.3686 13.2779C25.384 12.7837 26.4321 12.3884 27.4802 11.9272C28.2008 11.6308 28.9214 11.4331 29.0851 10.4448C29.1506 9.98366 29.6092 9.68718 30.1988 9.65424C30.7883 9.62129 31.3451 9.75306 31.8364 10.0495C32.1312 10.2472 32.3605 10.2143 32.688 10.1484C33.3758 9.98366 34.0637 9.72012 34.7515 9.68718C36.8805 9.58835 39.0422 9.32482 41.1384 9.91777C42.3503 10.2472 43.4967 10.6754 44.4465 11.5319C44.8068 11.8614 45.1016 12.2237 45.3636 12.652C46.0514 13.7391 46.0187 14.9909 46.1825 16.1768C46.2152 16.5062 46.1497 16.8686 46.0842 17.2309C45.9204 18.351 45.3636 19.2733 44.7413 20.1628C43.7915 21.5463 42.7106 22.7652 41.0729 23.3911C40.5489 23.5887 40.0248 23.7864 39.468 23.9182C38.6492 24.1158 37.8303 24.2476 36.9787 24.4123C36.2909 24.5441 35.6031 24.61 34.948 24.7088C35.0463 25.8618 35.1445 26.9159 35.2428 28.0359C36.1599 28.0359 37.0442 28.003 37.9286 28.0359C39.0094 28.0689 40.0903 28.1348 41.1057 28.6618C41.4005 28.8265 41.728 28.9254 41.6952 29.3536C41.6625 29.7489 41.3677 29.9136 41.0402 29.9795C39.9265 30.2101 38.8129 30.4736 37.6993 30.6054C36.7167 30.7372 35.7669 30.6713 34.8498 30.6713ZM26.8907 50.1401C27.0217 49.8107 27.1527 49.5142 27.2509 49.2177C27.4147 48.6906 27.5457 48.1306 27.6767 47.5706C27.8733 46.6812 28.1025 45.7917 28.2663 44.9023C28.4628 43.8152 28.6593 42.7281 28.8231 41.6081C29.0851 39.928 28.7249 38.248 29.1834 36.5679C29.3799 35.8432 29.3144 35.0526 29.3799 34.2949C29.5437 32.7466 29.7075 31.2313 29.9367 29.683C30.1005 28.5959 30.3298 27.4759 30.4608 26.3888C30.559 25.5323 30.5263 24.7088 30.559 23.8523C30.5918 23.1605 30.4608 22.9299 29.8057 22.8311C29.4454 22.7652 29.0524 22.7981 28.6921 22.9299C28.1025 23.1605 27.5785 23.4899 27.0217 23.7864C25.2202 24.6758 23.4188 25.4994 21.5518 26.1912C19.7504 26.85 18.0145 27.6406 16.213 28.3653C13.953 29.2548 11.6603 30.1442 9.36753 31.0337C8.48319 31.396 7.6316 31.7584 6.94378 32.4502C6.15769 33.2737 6.15769 33.5043 6.97653 34.2949C8.22116 35.5467 9.49855 36.7326 10.6777 38.0503C11.5948 39.0715 11.9551 40.3233 11.1362 41.641C10.8414 42.1352 10.5139 42.6622 10.2519 43.1893C9.23652 45.2317 7.82812 46.9776 6.35421 48.6577C5.56813 49.5471 4.52002 50.206 4.02872 51.3919C4.09422 51.5237 4.15973 51.6554 4.29074 51.7872C5.56813 53.2696 6.84552 54.7849 8.15566 56.2673C8.6142 56.7614 9.04 57.2556 9.72782 57.5191C10.3829 57.7827 10.4812 57.7827 10.8414 57.2226C12.2826 54.8508 13.691 52.479 15.1977 50.173C15.951 48.9871 16.9008 47.933 17.8179 46.8788C18.5058 46.0882 20.0779 45.9235 21.0278 46.7141C21.4863 47.1094 22.1086 47.2741 22.6655 47.5706C23.1895 47.8341 23.7791 47.9988 24.2704 48.3283C25.1547 48.8224 25.9408 49.4812 26.8907 50.1401ZM34.8498 23.1605C35.2755 23.0287 35.5703 22.9299 35.8979 22.864C36.5857 22.7323 37.2735 22.6334 37.9613 22.4358C38.5509 22.2711 39.1077 21.9746 39.5335 21.4805C39.9921 20.9204 40.5489 20.3934 40.9092 19.7675C41.5315 18.6474 42.2848 17.5603 41.728 16.1438C41.4005 15.3532 41.1712 14.4967 40.8436 13.7061C40.2213 12.2896 38.9767 11.7296 37.5355 11.6308C36.8477 11.5978 36.1599 11.7625 35.4721 11.8943C34.6205 12.0261 33.7689 12.1908 32.8518 12.3555C32.8518 12.7179 32.8518 13.0143 32.8518 13.3108C32.8518 14.8261 32.8518 16.3085 32.8518 17.8239C32.8518 18.4827 32.9828 19.1745 32.6225 19.8333C32.5243 19.9981 32.6225 20.2616 32.6225 20.4922C33.8671 20.9204 34.3257 22.0405 34.8498 23.1605Z" fill="black"/>
<path d="M21.3225 55.3447C21.7811 55.4765 22.3706 55.5424 22.8619 55.74C23.517 56.0036 23.648 56.5965 23.0912 57.0907C22.6654 57.486 22.1414 57.7824 21.6173 58.0789C20.5037 58.7048 19.3573 59.1989 18.3747 60.0225C17.5231 60.7143 16.475 60.5496 15.4924 60.2201C14.9029 60.0225 14.8046 59.3637 15.2959 58.7378C15.7217 58.1777 16.2457 57.6836 16.8026 57.2554C17.6869 56.5965 18.5385 55.8718 19.6849 55.6412C20.2089 55.5094 20.7002 55.4436 21.3225 55.3447Z" fill="black"/>
</g>
</g>
<defs>
<clipPath id="clip0">
<rect width="60" height="60" fill="white"/>
</clipPath>
<clipPath id="clip1">
<rect width="57.5806" height="59.0323" fill="white" transform="translate(0 1.45166)"/>
</clipPath>
</defs>
</svg>
