<svg width="60" height="60" viewBox="0 0 60 60" fill="none" xmlns="http://www.w3.org/2000/svg">
<g clip-path="url(#clip0)">
<path d="M45.7258 49.3546C53.7984 47.7835 58.7903 43.7266 58.7903 29.9998C58.7903 18.3868 42.5806 0.725488 27.5806 0.725586C8.42686 0.725711 21.5322 14.5159 13.0645 19.5965C5.71216 24.0079 -2.28882e-05 24.911 -2.28882e-05 37.0161C-2.28882e-05 50.3705 5.85675 54.2877 13.0645 51.7739C20.2722 49.2602 19.4415 59.032 29.2742 59.032C40.3633 59.032 37.6531 50.9257 45.7258 49.3546Z" fill="#F1F8FE"/>
<g clip-path="url(#clip1)">
<path d="M8.87753 16.7552C8.79086 12.9904 9.1124 9.22258 9.43722 5.47969C9.49391 4.94002 9.60408 4.41865 9.71098 3.87238C9.86697 3.11689 10.2598 2.60903 10.9769 2.23592C12.3422 1.54943 13.7938 1.13037 15.3415 1.05348C15.9004 1.03065 16.4275 0.961301 16.9798 0.888647C17.8551 0.748148 18.7239 0.557824 19.6058 0.46715C20.8643 0.32694 22.1293 0.236553 23.3692 0.14947C25.0893 0.0245514 26.8029 -0.150192 28.5394 -0.150548C32.1347 -0.192685 35.7093 -0.00400626 39.2424 0.646306C40.0283 0.796355 40.7771 1.05266 41.5477 1.28075C41.9472 1.4056 42.1655 1.70634 42.2179 2.10494C42.2671 2.47863 42.3162 2.85231 42.3654 3.226C42.4955 4.60278 42.6004 5.98287 42.7021 7.33805C42.7523 7.91433 42.8059 8.51553 42.806 9.09843C42.8193 10.9468 42.8293 12.7702 42.8143 14.5969C42.8025 17.0314 42.7875 19.441 42.7725 21.8506C42.7488 23.8052 42.8319 25.7964 42.6794 27.7426C42.4342 31.1202 42.4182 34.493 41.8369 37.8388C42.0104 37.9933 42.1589 38.1512 42.3292 38.2809C43.0922 38.8394 43.423 39.6069 43.6414 40.4905C44.1644 42.5252 44.097 44.5362 43.546 46.5602C43.066 48.3467 42.6111 50.1299 42.1561 51.9131C42.07 52.2286 41.8888 52.4045 41.569 52.4972C40.4623 52.8202 39.958 52.4811 39.8607 51.3534C39.8531 51.101 39.8705 50.8452 39.8912 50.6144C39.9413 50.0249 39.9915 49.4354 40.0951 48.8642C40.5052 46.352 40.435 43.8775 40.0036 41.3746C39.7732 40.011 39.1487 38.9527 37.8203 38.3672C37.1185 38.0793 36.4788 37.682 35.9232 37.1468C35.6896 36.9241 35.384 36.7362 35.0849 36.5982C33.0601 35.572 31.0353 34.5459 29.0105 33.5197C28.8184 33.4183 28.5674 33.4513 28.3633 33.4528C28.001 34.3875 28.2314 35.1682 28.4902 35.9705C28.9794 37.5534 29.653 38.9854 30.953 40.1323C32.1363 41.1677 33.3752 42.0438 34.9382 42.4718C35.7591 42.6933 36.5362 42.9712 37.3603 43.2176C37.9988 43.4124 38.2139 43.6882 37.9913 44.3257C37.7687 44.9633 37.4926 45.5825 37.1598 46.1585C36.2203 47.752 35.2523 49.3239 34.256 50.8742C33.9788 51.2909 33.6765 51.7108 33.3426 52.0842C32.7151 52.7496 31.9554 52.7989 31.0669 52.2568C31.2043 51.5545 31.3134 50.8305 31.4443 50.0783C30.8712 49.7989 30.367 50.0426 29.8769 50.0057C27.2323 49.8975 24.5658 49.8174 21.9245 49.7341C21.0011 49.7035 20.0897 49.5699 19.1837 49.2836C18.6773 49.1222 18.1523 49.0138 17.4668 48.8506C17.8359 50.2973 18.3228 51.4751 19.1917 52.4505C20.3008 53.6985 21.435 54.9432 22.5692 56.1879C23.4916 57.1816 24.5231 58.0343 25.7697 58.58C26.0152 58.6997 26.2423 58.8726 26.5512 59.0854C26.3733 59.2862 26.2707 59.4771 26.1048 59.575C25.4882 59.9349 24.8224 59.9211 24.1435 59.8076C21.3744 59.3356 19.0778 57.9904 17.1828 56.0095C16.4405 55.2201 15.7637 54.3461 15.1589 53.4372C14.5574 52.5533 14.2004 51.5865 14.3858 50.4724C14.4796 49.8265 14.5985 49.1772 14.7326 48.45C14.3419 48.1972 13.8267 48.1636 13.3519 48.0487C12.292 47.7573 11.4068 47.2402 10.8708 46.2716C10.6994 45.9393 10.4341 45.6701 10.2409 45.3661C9.4048 45.2226 8.62221 45.0975 7.83961 44.9723C6.95332 44.8355 6.29729 44.3136 5.72856 43.6788C5.33995 43.2484 5.19909 42.76 5.27433 42.1672C5.43242 40.6511 6.23998 39.6072 7.64353 39.0171C8.15104 38.7982 8.6651 38.6292 9.12896 38.4668C9.39296 37.3677 9.3809 36.8877 9.06425 35.8396C8.38207 35.7013 7.6715 35.5413 6.98932 35.403C6.07137 35.2196 5.1915 33.9668 5.30489 32.8875C5.4728 31.4461 6.48991 30.2479 7.94806 29.8787C8.34316 29.776 8.78958 29.8693 9.17046 29.4644C9.18789 29.2087 9.25225 28.9214 9.24131 28.6441C9.25107 28.136 9.2139 27.6593 9.21383 27.0764C8.5753 26.8816 7.93677 26.6869 7.29496 26.4672C5.29095 25.7931 4.8946 24.5274 4.87368 23.0095C4.88115 21.5133 6.21692 20.0197 7.68819 19.7501C8.06146 19.6757 8.40963 19.6045 8.95863 19.5069C8.92795 18.4972 8.89183 17.6403 8.87753 16.7552ZM38.3814 1.67195C36.0347 1.49914 33.6815 1.2765 31.3228 1.20664C29.2719 1.14698 27.2156 1.24009 25.1593 1.33321C23.0779 1.42962 21.0281 1.57256 18.9784 1.7155C17.7134 1.80588 16.4517 1.92118 15.2118 2.00826C14.5023 2.05091 13.7863 2.04373 13.0834 2.1362C12.1797 2.25509 11.9047 2.49402 11.7934 3.39567C11.6953 4.39698 11.6725 5.38837 11.653 6.40468C11.6128 8.2347 11.5759 10.0896 11.5358 11.9197C11.4695 14.1333 11.4031 16.3469 11.6162 18.5491C11.7758 20.1501 11.6876 21.809 11.7216 23.4265C11.7479 24.2087 11.7272 25.0224 11.8288 25.7947C11.8846 26.2182 12.1193 26.6435 12.2787 27.0787C11.661 27.8189 11.6894 27.8405 11.7168 28.8253C11.7486 30.0376 11.7302 31.2565 11.7587 32.4439C11.797 33.7061 11.8823 34.9367 11.8956 36.2021C11.898 38.356 12.3523 40.4504 12.5021 42.5596C12.5775 43.7155 12.8691 44.7669 13.6528 45.6775C14.1648 46.2691 14.7139 46.7544 15.4376 47.014C15.9189 47.1788 16.3784 47.3718 16.8751 47.4585C18.2678 47.7568 19.6857 48.0518 21.0937 48.2721C22.0837 48.4206 23.1009 48.3882 24.1247 48.4055C26.6875 48.4739 29.2502 48.5422 31.8916 48.6256C32.8443 47.1317 33.8188 45.6096 34.8369 44.0311C34.5662 43.9146 34.3992 43.8099 34.2137 43.7583C33.0785 43.4768 31.9215 43.2235 30.7645 42.9702C30.5288 42.9252 30.2461 42.9117 30.0234 42.9663C28.7978 43.3556 27.548 43.368 26.2732 43.3836C24.97 43.3777 23.6733 43.4215 22.357 43.3159C22.1496 43.2925 21.9455 43.294 21.7163 43.2988C20.0169 43.193 18.5346 42.6023 17.3033 41.3957C16.9813 41.0833 16.6309 40.7492 16.2652 40.4932C15.392 39.8731 14.8974 39.0258 14.5906 38.0524C14.5076 37.8099 14.4246 37.5674 14.3919 37.3183C14.1482 35.2722 13.9079 33.251 13.6642 31.2048C13.638 31.0055 13.6336 30.778 13.6074 30.5787C13.3016 28.6422 13.3221 26.6627 13.2454 24.7213C13.1546 22.4777 13.0102 20.2158 12.9194 17.9721C12.8241 15.501 13.0367 13.0401 13.4817 10.5992C13.6191 9.89687 13.785 9.21612 13.9726 8.50716C14.2617 7.4047 14.9034 6.45861 15.5451 5.51251C15.8474 5.09259 16.3047 4.88037 16.8253 4.76119C17.4714 4.6255 18.1394 4.4616 18.7855 4.32591C18.983 4.27458 19.209 4.24486 19.4131 4.24335C21.2937 4.17335 23.1994 4.10006 25.0832 4.05497C26.1005 4.02252 27.1057 4.09303 28.1044 4.1137C28.3587 4.10559 28.6196 4.1473 28.8673 4.08937C30.0843 3.8279 31.3002 3.94672 32.5161 4.06554C33.0597 4.12075 33.5847 4.22908 34.1195 4.41216C34.9218 4.68677 35.5025 5.21862 35.7613 6.02091C36.4295 8.18858 37.0443 10.3379 37.0162 12.6479C36.9651 14.7835 37.0145 16.9058 37.0638 19.0282C37.0803 19.7356 37.1721 20.4332 37.242 21.159C37.3469 22.539 37.4737 23.8909 37.5536 25.2743C37.6192 26.3554 37.6597 27.4399 37.6751 28.5276C37.6895 29.9957 37.6252 31.4487 37.6145 32.92C37.6102 33.8583 37.4706 34.7384 37.02 35.5833C37.7688 36.4225 38.7566 36.7487 39.8317 36.9621C39.8776 36.728 39.9081 36.5719 39.9135 36.4191C39.9123 35.6336 39.8326 34.8331 39.8816 34.041C40.0777 30.8726 40.1199 27.6991 40.0835 24.5106C40.0352 22.008 40.1909 19.5038 40.1928 16.9946C40.1861 15.1961 40.104 13.4075 40.047 11.6156C40.001 10.101 39.9081 8.61798 39.8369 7.10672C39.7647 5.39287 39.7208 3.70062 39.6475 1.78416C39.1891 1.79378 38.7961 1.71876 38.3814 1.67195ZM19.2965 24.128C19.7308 23.7414 20.1903 23.3515 20.6912 23.0829C22.0249 22.3498 23.3532 22.3525 24.5725 23.662C24.8411 23.9562 25.1347 24.247 25.4884 24.606C25.8355 24.3322 26.1105 24.0933 26.3855 23.8544C27.5227 22.7924 28.6348 21.7337 29.7403 20.6252C30.9364 19.4288 32.2307 18.3968 33.6703 17.4978C33.7892 17.4315 33.8831 17.3685 33.977 17.3054C34.4212 16.9936 34.6514 16.6085 34.6546 16.0505C34.7373 13.9614 34.7163 11.8607 34.2937 9.81276C34.0742 8.72652 33.6538 7.6667 33.2837 6.60028C32.9966 5.77638 32.3165 5.46034 31.5001 5.46637C30.5833 5.48561 29.6512 5.58289 28.7376 5.62704C27.978 5.67629 27.2216 5.75045 26.4772 5.72166C25.1707 5.69079 23.8762 5.55696 22.5697 5.52609C21.4423 5.49701 20.2929 5.49615 19.1687 5.49198C18.7103 5.5016 18.2366 5.58926 17.9627 6.03079C17.9224 6.11213 17.8569 6.19678 17.8067 6.20338C16.8473 6.48165 16.6979 7.28696 16.5954 8.06075C16.4242 9.47717 16.2781 10.8903 16.2073 12.2935C16.1333 14.2547 16.1848 16.1993 16.3401 18.1557C16.5106 20.6169 16.5022 23.0764 16.569 25.5259C16.58 25.8032 16.6379 26.0491 16.71 26.5971C17.7347 25.6513 18.4998 24.8664 19.2965 24.128ZM28.0291 41.2012C26.4682 40.0126 25.6712 38.4195 25.444 36.4979C25.4014 36.1741 25.3806 35.822 25.3129 35.5014C25.0573 34.1412 26.1442 32.5029 27.7759 32.2882C29.4328 32.0703 30.9346 32.2275 32.418 33.0208C33.2465 33.4947 34.159 33.8308 35.1316 34.2351C35.2494 33.9661 35.3804 33.7968 35.3825 33.6192C35.3343 32.2823 35.2862 30.9454 35.1878 29.6152C35.0565 27.4529 34.9002 25.2939 34.769 23.1316C34.6804 21.8761 34.6453 20.6389 34.5819 19.38C34.5688 19.2804 34.4771 19.1657 34.4356 19.0445C33.7775 19.2831 33.4097 19.7877 32.9568 20.2274C31.5762 21.5748 30.199 22.9472 28.8184 24.2946C28.4343 24.6746 28.0283 25.0828 27.5808 25.3698C27.0646 25.7165 26.4949 26.0448 25.9023 26.1988C24.5696 26.5516 23.4061 26.2484 22.5393 25.0953C22.2926 24.7729 22.0895 24.3942 21.5547 24.2111C21.1826 24.4881 20.7853 24.7685 20.423 25.1203C19.42 26.0379 18.4673 26.9489 17.4643 27.8665C16.8739 28.4257 16.648 29.0383 16.7344 29.8886C16.907 31.5892 16.904 33.313 16.998 34.9986C17.0658 35.9021 17.1369 36.8305 17.3334 37.7423C17.5169 38.5545 17.9197 39.2872 18.6292 39.8274C19.1969 40.2596 19.7208 40.7482 20.2884 41.1804C20.9412 41.6775 21.6496 42.0151 22.4693 42.034C23.9297 42.07 25.4119 42.0777 26.869 42.0888C27.4562 42.0876 28.0216 42.1146 28.587 42.1415C28.6273 42.0602 28.6644 41.954 28.7048 41.8726C28.5214 41.6433 28.2845 41.3957 28.0291 41.2012ZM9.14257 24.3994C8.87501 23.1421 9.2667 21.8487 8.90528 20.6544C8.57127 20.4449 8.35189 20.5245 8.20239 20.7469C7.31735 21.9784 7.59809 23.9183 8.79663 24.8757C8.82502 24.8973 8.87522 24.8907 9.0826 24.9141C9.10659 24.7082 9.18734 24.5456 9.14257 24.3994ZM9.06691 30.6185C8.47753 30.7974 8.41756 31.3122 8.32594 31.7804C8.15467 32.6139 8.15914 33.4243 8.99201 34.1258C9.21236 33.083 9.24709 31.4058 9.06691 30.6185ZM9.40202 40.1543C8.67953 40.6802 8.77458 41.4026 8.75282 42.0137C8.72451 42.575 9.01271 43.0186 9.72439 43.3812C9.79628 42.1806 9.61826 41.2156 9.40202 40.1543Z" fill="black"/>
</g>
</g>
<defs>
<clipPath id="clip0">
<rect width="60" height="60" fill="white"/>
</clipPath>
<clipPath id="clip1">
<rect width="41.904" height="59.6516" fill="white" transform="translate(0 3.04639) rotate(-7.4945)"/>
</clipPath>
</defs>
</svg>
