<svg width="51" height="60" viewBox="0 0 51 60" fill="none" xmlns="http://www.w3.org/2000/svg">
<path d="M0.32258 25.9695C1.3922 25.6816 2.43292 25.4801 3.41582 25.1058C4.54326 24.6452 5.6707 24.3285 6.85596 24.1269C8.15686 23.8966 9.42884 23.5799 10.6719 23.1192C14.8637 21.5358 19.1711 20.2978 23.4207 18.9446C25.9647 18.1097 28.4797 17.1596 31.0526 16.3534C33.9146 15.4321 36.7765 14.5972 39.6385 13.7335C39.8409 13.6759 40.0432 13.5607 40.2167 13.4743C40.7081 13.2152 41.2574 13.1288 41.8067 13.1576C42.327 13.1864 43.4545 14.0214 43.3677 14.4244C43.2232 15.173 43.5701 15.864 43.5123 16.6125C43.3677 19.0022 43.8592 21.3054 44.1772 23.6375C44.4374 25.6528 44.7554 27.697 45.0155 29.7123C45.3914 32.649 45.7672 35.6144 46.1141 38.5799C46.1719 39.1845 46.4321 39.8467 45.8539 40.3361C45.507 40.6528 45.1312 40.9983 44.6975 41.1711C40.8816 42.6106 37.0656 43.9926 33.2208 45.4033C30.5901 46.3822 27.9594 47.3323 25.3287 48.2824C21.7151 49.578 18.1015 50.8448 14.4879 52.1404C14.141 52.2555 13.823 52.4283 13.4761 52.5146C12.9268 52.6874 12.8112 52.6298 12.5799 52.1404C9.97811 46.9868 7.34741 41.8045 4.74562 36.6221C3.41582 33.9734 2.20165 31.267 0.900756 28.5895C0.55385 27.7546 0.467124 26.9196 0.32258 25.9695ZM2.80873 26.7469C2.80873 26.8045 2.77983 26.862 2.77983 26.9196C3.0111 27.0924 3.21346 27.2939 3.44473 27.4379C4.36981 27.9849 5.29489 28.5607 6.21997 29.0789C9.42884 30.7776 12.7244 32.2171 16.1935 33.3112C17.4077 33.6855 18.6218 34.0597 19.8649 34.2325C21.2814 34.434 22.698 34.1461 24.0278 33.7143C25.7623 33.1672 27.2656 32.2459 28.5086 30.9503C29.7806 29.626 30.9948 28.244 32.209 26.8333C33.7122 25.077 35.0998 23.2632 36.3718 21.363C37.4414 19.7219 38.5978 18.1384 39.6963 16.5262C40.0432 16.0367 40.3034 15.4897 40.6792 14.8275C40.3034 14.9139 40.101 14.9427 39.8987 15.0002C37.1234 15.8928 34.3193 16.7565 31.5441 17.6778C29.029 18.5127 26.5139 19.434 23.9989 20.2402C20.1829 21.507 16.3091 22.745 12.4643 23.9542C10.1227 24.6739 7.78104 25.3937 5.43943 26.0847C4.57217 26.3438 3.676 26.5166 2.80873 26.7469ZM14.6902 50.7008C24.3747 47.0732 33.9146 43.5031 43.5412 39.9043C43.4256 39.8179 43.3677 39.7891 43.3099 39.7603C38.9158 37.4859 34.3771 35.5857 29.7228 33.887C29.4048 33.7718 29.1446 33.743 28.8555 33.9158C26.803 34.9811 24.6349 35.7296 22.4378 36.3918C22.2065 36.4494 22.0042 36.6797 21.8596 36.8812C20.9634 38.4072 20.0095 39.9043 19.2289 41.4878C17.6968 44.482 16.2513 47.5338 14.6902 50.7008ZM4.6589 31.6413C7.80995 37.8025 10.8743 43.8198 13.9675 49.8659C15.0082 47.5626 15.9622 45.3457 17.0608 43.1576C18.1593 40.9983 19.4024 38.8966 20.6165 36.7373C20.4431 36.7085 20.2985 36.6797 20.1251 36.6797C19.518 36.6221 18.882 36.6509 18.2749 36.5358C17.0029 36.3342 15.702 36.1903 14.4879 35.7872C12.2619 35.0386 10.0937 34.1461 7.92559 33.2248C6.85596 32.8217 5.84416 32.2459 4.6589 31.6413ZM43.5412 38.3496C42.645 32.1883 41.7488 26.1135 40.8238 19.9811C39.3783 22.3707 37.8462 24.6452 36.0538 26.7469C34.2615 28.8486 32.5559 31.0367 30.3877 32.9081C35.042 34.2901 39.3494 36.1039 43.5412 38.3496Z" fill="black"/>
<path d="M39.3205 5.87287C39.3494 5.12431 39.3783 4.37575 39.4361 3.65598C39.5807 1.81337 41.6621 -0.374731 44.235 0.0571311C44.6975 0.143504 44.7553 0.258667 44.6686 0.74811C44.6108 1.03602 44.6397 1.29514 44.6108 1.58304C44.5819 2.0437 44.6397 2.50435 44.5241 2.93621C44.0326 4.57729 43.5412 6.21836 42.6739 7.71548C42.1825 8.55041 41.4887 8.98228 40.4768 8.92469C39.8119 8.8959 39.494 8.66558 39.4361 8.00339C39.3494 7.31241 39.3494 6.59264 39.3205 5.87287Z" fill="black"/>
<path d="M5.78636 59.5969C5.64181 59.5681 5.38163 59.5681 5.12145 59.5105C4.22528 59.3378 3.93619 58.7044 4.51437 58.0134C5.29491 57.0921 6.19108 56.2284 7.02943 55.3647C7.52088 54.8464 8.07015 54.3858 8.61942 53.8963C9.5445 53.0902 10.6141 52.8887 11.7705 53.2341C12.2619 53.3781 12.4643 53.7236 12.3486 54.2418C12.2908 54.5873 12.1752 54.9616 12.0017 55.2495C11.2212 56.4299 10.3829 57.5528 9.25541 58.4453C8.27251 59.1938 7.14507 59.5681 5.78636 59.5969Z" fill="black"/>
<path d="M16.9162 57.4654C16.8584 57.8397 16.8873 58.2427 16.7428 58.5882C16.3091 59.6535 14.9215 60.2581 13.823 59.9126C13.3894 59.7686 13.1581 59.4519 13.1581 59.0777C13.1003 57.7821 13.4183 56.6017 14.459 55.7379C15.0082 55.2773 15.6442 55.2773 16.3091 55.3636C16.5982 55.3924 16.7428 55.6228 16.7717 55.9395C16.8006 56.4001 16.8584 56.9184 16.9162 57.4654Z" fill="black"/>
<path d="M49.2651 5.5273C49.3808 5.5273 49.4386 5.5273 49.4675 5.5273C50.1324 5.55609 50.3347 5.87279 49.9878 6.4486C49.2651 7.57145 48.34 8.49275 47.1837 9.15494C46.6055 9.47164 45.9984 9.61559 45.3335 9.5868C44.6686 9.55801 44.5241 9.32768 44.8132 8.72308C45.4781 7.45628 46.5766 6.67893 47.7908 6.01674C48.2533 5.72883 48.7448 5.44093 49.2651 5.5273Z" fill="black"/>
</svg>
