<svg width="255" height="35" viewBox="0 0 255 35" fill="none" xmlns="http://www.w3.org/2000/svg">
<path d="M141.344 25V22.858H143.339V25H141.344ZM149.976 25V10.552L158.964 10.552V12.232L151.782 12.232V17.188L158.166 17.188V18.889H151.782V25L149.976 25ZM165.07 25V10.552H166.876V25H165.07ZM183.729 25L176.106 13.954H176.022V25H174.279V10.552H176.127L183.645 21.346H183.729V10.552H185.451V25H183.729ZM202.667 25L201.176 21.157L194.666 21.157L193.175 25H191.348L196.808 10.552H199.076L204.536 25H202.667ZM197.963 12.505H197.858L195.212 19.456L200.609 19.456L197.963 12.505ZM219.865 25L212.242 13.954H212.158V25H210.415V10.552L212.263 10.552L219.781 21.346H219.865V10.552H221.587V25H219.865ZM237.774 24.895C237.34 24.979 236.794 25.042 236.136 25.084C235.492 25.14 234.89 25.168 234.33 25.168C232.594 25.168 231.327 24.979 230.529 24.601C229.731 24.223 229.192 23.537 228.912 22.543C228.646 21.535 228.513 19.946 228.513 17.776C228.513 15.62 228.646 14.038 228.912 13.03C229.192 12.022 229.731 11.329 230.529 10.951C231.327 10.573 232.594 10.384 234.33 10.384C234.904 10.384 235.506 10.412 236.136 10.468C236.766 10.524 237.284 10.601 237.69 10.699V12.274C236.64 12.134 235.674 12.064 234.792 12.064C233.322 12.064 232.293 12.176 231.705 12.4C231.131 12.624 230.753 13.107 230.571 13.849C230.389 14.591 230.298 15.9 230.298 17.776C230.298 19.652 230.389 20.961 230.571 21.703C230.753 22.445 231.131 22.928 231.705 23.152C232.293 23.376 233.322 23.488 234.792 23.488C235.87 23.488 236.864 23.418 237.774 23.278V24.895ZM244.275 25V10.552L253.683 10.552V12.232H246.081V16.873H252.675V18.553H246.081V23.32H253.683V25H244.275Z" fill="black"/>
<g clip-path="url(#clip0)">
<path d="M20.0001 17.5663C20.0001 17.5112 20.0001 17.4672 20.0001 17.4122C19.969 17.0049 19.7929 16.6748 19.4923 16.4546C19.4302 16.4106 19.3576 16.3666 19.2954 16.3226C19.0778 16.1905 13.741 12.9106 13.741 12.9106C13.2747 12.6244 12.8084 12.3383 12.3421 12.0521L19.3576 7.74865C19.4094 7.71563 19.4716 7.68261 19.5338 7.62758C19.9172 7.33041 20.083 6.81312 19.969 6.31783C19.8861 5.98765 19.6892 5.71249 19.3783 5.52538C18.4146 4.94205 17.4509 4.34771 16.4975 3.75337L11.1296 0.495507C11.0778 0.462488 11.0157 0.429469 10.9638 0.396451C10.8602 0.330413 10.7566 0.275381 10.653 0.209344C10.4457 0.0772682 10.2281 0.0112305 10.0001 0.0112305C9.77213 0.0112305 9.55451 0.0772682 9.34726 0.22035C9.3369 0.209344 9.32653 0.22035 9.31617 0.22035L4.35244 3.26909C3.15037 4.00651 1.90684 4.76595 0.684047 5.51438C0.228088 5.78953 0.000108788 6.20777 0.000108788 6.75809C0.000108788 9.45463 0.000108788 12.2062 0.000108788 14.8587V17.2801C0.000108788 17.3681 0.000108788 17.4562 0.000108788 17.5332C0.000108788 17.7534 0.0726476 17.9735 0.207363 18.1826C0.300627 18.3367 0.435342 18.4578 0.611508 18.5678C0.798036 18.6889 7.65814 22.8933 7.65814 22.8933C6.66332 23.4987 0.704772 27.1527 0.704772 27.1527C0.642596 27.1858 0.58042 27.2298 0.507881 27.2848C0.186637 27.5159 -0.0102539 27.9012 -0.0102539 28.3194C-0.0102539 28.7376 0.186637 29.1229 0.518243 29.354C0.559694 29.376 0.590782 29.409 0.632233 29.431L8.42498 34.2078L8.70477 34.3839C8.92239 34.5159 9.14 34.648 9.34726 34.7801C9.55451 34.9122 9.77213 34.9782 9.98975 34.9782C10.2177 34.9782 10.425 34.9122 10.6322 34.7801L10.6737 34.7581L19.0778 29.6071L19.1607 29.5521C19.254 29.4971 19.3369 29.442 19.4302 29.387C19.7721 29.1669 19.969 28.8037 19.9897 28.3634C19.9897 28.3194 19.9897 28.2864 19.9897 28.2424L20.0001 17.5663ZM11.1711 20.7581C11.1711 18.5788 11.1711 16.3996 11.1711 14.2203C11.2644 14.2754 16.5079 17.4892 16.5079 17.4892C16.3628 17.5663 11.1711 20.7581 11.1711 20.7581ZM16.4975 28.3194L11.1711 31.5883C11.1711 29.409 11.1711 27.2298 11.1711 25.0615C11.368 25.1716 16.4975 28.3194 16.4975 28.3194ZM12.3421 22.9043C14.1141 21.8147 15.8861 20.7251 17.6581 19.6465C17.6581 21.8257 17.6581 23.9939 17.6581 26.1732C17.5234 26.0741 13.7514 23.7738 12.3421 22.9043ZM11.1607 3.37916C12.9431 4.46878 14.7151 5.5584 16.4975 6.64802C14.7151 7.73765 12.9431 8.82727 11.1607 9.91689V3.37916ZM8.82912 20.7471C7.47161 19.9326 4.81876 18.3037 3.49234 17.4892C5.27472 16.3996 7.0571 15.299 8.83949 14.2093C8.84985 15.8493 8.83949 19.0961 8.82912 20.7471ZM3.5027 6.64802C5.28508 5.5584 7.0571 4.46878 8.82912 3.37916C8.82912 5.5584 8.82912 7.73765 8.82912 9.91689C7.0571 8.82727 5.28508 7.73765 3.5027 6.64802ZM2.34208 8.79425C2.3628 8.80526 7.6685 12.0631 7.6685 12.0631C5.88612 13.1527 4.1141 14.2424 2.33171 15.332C2.32135 13.7141 2.33171 10.4562 2.34208 8.79425ZM8.83949 31.5993C7.52342 30.7958 4.86021 29.1559 3.51306 28.3194C3.53379 28.3084 8.82912 25.0615 8.82912 25.0615C8.83949 26.7235 8.83949 29.9814 8.83949 31.5993Z" fill="url(#paint0_linear)"/>
</g>
<path d="M40.1 25L40.1 10.552H41.906L41.906 25H40.1ZM48.4478 19.834V18.175L53.5718 18.175V19.834L48.4478 19.834ZM64.9262 25.168C64.1562 25.168 63.2952 25.14 62.3432 25.084C61.4052 25.028 60.5722 24.958 59.8442 24.874V23.215C61.6642 23.397 63.1832 23.488 64.4012 23.488C65.1572 23.488 65.7522 23.46 66.1862 23.404C66.6342 23.334 67.0122 23.215 67.3202 23.047C67.6002 22.879 67.7822 22.634 67.8662 22.312C67.9502 21.976 67.9922 21.535 67.9922 20.989C67.9922 20.331 67.9572 19.869 67.8872 19.603C67.8172 19.323 67.6492 19.12 67.3832 18.994C67.1312 18.868 66.6902 18.777 66.0602 18.721L62.4902 18.322C61.6222 18.224 60.9642 18.021 60.5162 17.713C60.0822 17.391 59.7882 16.978 59.6342 16.474C59.4942 15.956 59.4242 15.284 59.4242 14.458C59.4242 13.31 59.6202 12.442 60.0122 11.854C60.4182 11.266 60.9782 10.874 61.6922 10.678C62.4202 10.482 63.3932 10.384 64.6112 10.384C65.4232 10.384 66.2492 10.419 67.0892 10.489C67.9292 10.559 68.5942 10.643 69.0842 10.741V12.337C68.5522 12.253 67.8942 12.19 67.1102 12.148C66.3262 12.092 65.5982 12.064 64.9262 12.064C64.1422 12.064 63.5122 12.099 63.0362 12.169C62.5602 12.239 62.1892 12.358 61.9232 12.526C61.6292 12.694 61.4402 12.918 61.3562 13.198C61.2722 13.478 61.2302 13.877 61.2302 14.395C61.2302 14.969 61.2722 15.389 61.3562 15.655C61.4402 15.907 61.6012 16.096 61.8392 16.222C62.0772 16.334 62.4692 16.418 63.0152 16.474L66.5432 16.873C67.3832 16.957 68.0342 17.104 68.4962 17.314C68.9582 17.524 69.2942 17.902 69.5042 18.448C69.7002 18.952 69.7982 19.757 69.7982 20.863C69.7982 22.137 69.6022 23.089 69.2102 23.719C68.8182 24.335 68.2932 24.734 67.6352 24.916C66.9772 25.084 66.0742 25.168 64.9262 25.168ZM76.5242 10.552L82.8662 10.552C84.0282 10.552 84.9102 10.741 85.5122 11.119C86.1142 11.497 86.5132 12.008 86.7092 12.652C86.9052 13.296 87.0032 14.129 87.0032 15.151C87.0032 16.131 86.9052 16.95 86.7092 17.608C86.5132 18.252 86.1072 18.77 85.4912 19.162C84.8892 19.554 84.0002 19.75 82.8242 19.75H78.3302V25H76.5242V10.552ZM82.2152 18.07C83.1252 18.07 83.7902 17.979 84.2102 17.797C84.6302 17.601 84.9032 17.307 85.0292 16.915C85.1552 16.523 85.2182 15.935 85.2182 15.151C85.2182 14.367 85.1552 13.779 85.0292 13.387C84.9172 12.995 84.6512 12.708 84.2312 12.526C83.8252 12.33 83.1672 12.232 82.2572 12.232H78.3302V18.07H82.2152ZM102.349 25L100.858 21.157H94.3476L92.8566 25H91.0296L96.4896 10.552L98.7576 10.552L104.218 25H102.349ZM97.6446 12.505H97.5396L94.8936 19.456H100.291L97.6446 12.505ZM118.875 24.895C118.441 24.979 117.895 25.042 117.237 25.084C116.593 25.14 115.991 25.168 115.431 25.168C113.695 25.168 112.428 24.979 111.63 24.601C110.832 24.223 110.293 23.537 110.013 22.543C109.747 21.535 109.614 19.946 109.614 17.776C109.614 15.62 109.747 14.038 110.013 13.03C110.293 12.022 110.832 11.329 111.63 10.951C112.428 10.573 113.695 10.384 115.431 10.384C116.005 10.384 116.607 10.412 117.237 10.468C117.867 10.524 118.385 10.601 118.791 10.699V12.274C117.741 12.134 116.775 12.064 115.893 12.064C114.423 12.064 113.394 12.176 112.806 12.4C112.232 12.624 111.854 13.107 111.672 13.849C111.49 14.591 111.399 15.9 111.399 17.776C111.399 19.652 111.49 20.961 111.672 21.703C111.854 22.445 112.232 22.928 112.806 23.152C113.394 23.376 114.423 23.488 115.893 23.488C116.971 23.488 117.965 23.418 118.875 23.278V24.895ZM125.376 25V10.552L134.784 10.552V12.232L127.182 12.232V16.873H133.776V18.553H127.182V23.32H134.784V25H125.376Z" fill="black"/>
<defs>
<linearGradient id="paint0_linear" x1="14.1369" y1="-7.04381" x2="29.4964" y2="2.163" gradientUnits="userSpaceOnUse">
<stop stop-color="#72B8F3"/>
<stop offset="0.546875" stop-color="#72B28B"/>
<stop offset="1" stop-color="#9FCB6D"/>
</linearGradient>
<clipPath id="clip0">
<rect width="20" height="35" fill="white"/>
</clipPath>
</defs>
</svg>
